M48
;GenerationSoftware,Autodesk,EAGLE,8.7.1*%
;CreationDate,2018-05-13T19:16:24Z*%
FMAT,2
ICI,OFF
METRIC,TZ,000.000
T2C1.016
T1C3.000
%
G90
M71
T1
X3000Y3000
X137000Y3000
X137000Y27000
X3000Y27000
T2
X30810Y4810
X28270Y4810
X6160Y14605
X8700Y14605
X11240Y14605
X13780Y14605
X46170Y14605
X48710Y14605
X51250Y14605
X53790Y14605
X86180Y14605
X88720Y14605
X91260Y14605
X93800Y14605
X126190Y14605
X128730Y14605
X131270Y14605
X133810Y14605
M30