G04 EAGLE Gerber X2 export*
%TF.Part,Single*%
%TF.FileFunction,Profile,NP*%
%TF.FilePolarity,Positive*%
%TF.GenerationSoftware,Autodesk,EAGLE,8.7.1*%
%TF.CreationDate,2018-05-13T19:16:24Z*%
G75*
%MOMM*%
%FSLAX34Y34*%
%LPD*%
%AMOC8*
5,1,8,0,0,1.08239X$1,22.5*%
G01*
%ADD10C,0.254000*%


D10*
X0Y0D02*
X1400000Y0D01*
X1400000Y300000D01*
X0Y300000D01*
X0Y0D01*
X45000Y29464D02*
X44924Y28396D01*
X44771Y27335D01*
X44543Y26288D01*
X44241Y25260D01*
X43867Y24256D01*
X43422Y23281D01*
X42908Y22341D01*
X42329Y21440D01*
X41687Y20582D01*
X40985Y19772D01*
X40228Y19015D01*
X39418Y18313D01*
X38560Y17671D01*
X37659Y17092D01*
X36719Y16578D01*
X35744Y16133D01*
X34740Y15759D01*
X33712Y15457D01*
X32665Y15229D01*
X31604Y15076D01*
X30536Y15000D01*
X29464Y15000D01*
X28396Y15076D01*
X27335Y15229D01*
X26288Y15457D01*
X25260Y15759D01*
X24256Y16133D01*
X23281Y16578D01*
X22341Y17092D01*
X21440Y17671D01*
X20582Y18313D01*
X19772Y19015D01*
X19015Y19772D01*
X18313Y20582D01*
X17671Y21440D01*
X17092Y22341D01*
X16578Y23281D01*
X16133Y24256D01*
X15759Y25260D01*
X15457Y26288D01*
X15229Y27335D01*
X15076Y28396D01*
X15000Y29464D01*
X15000Y30536D01*
X15076Y31604D01*
X15229Y32665D01*
X15457Y33712D01*
X15759Y34740D01*
X16133Y35744D01*
X16578Y36719D01*
X17092Y37659D01*
X17671Y38560D01*
X18313Y39418D01*
X19015Y40228D01*
X19772Y40985D01*
X20582Y41687D01*
X21440Y42329D01*
X22341Y42908D01*
X23281Y43422D01*
X24256Y43867D01*
X25260Y44241D01*
X26288Y44543D01*
X27335Y44771D01*
X28396Y44924D01*
X29464Y45000D01*
X30536Y45000D01*
X31604Y44924D01*
X32665Y44771D01*
X33712Y44543D01*
X34740Y44241D01*
X35744Y43867D01*
X36719Y43422D01*
X37659Y42908D01*
X38560Y42329D01*
X39418Y41687D01*
X40228Y40985D01*
X40985Y40228D01*
X41687Y39418D01*
X42329Y38560D01*
X42908Y37659D01*
X43422Y36719D01*
X43867Y35744D01*
X44241Y34740D01*
X44543Y33712D01*
X44771Y32665D01*
X44924Y31604D01*
X45000Y30536D01*
X45000Y29464D01*
X1385000Y29464D02*
X1384924Y28396D01*
X1384771Y27335D01*
X1384543Y26288D01*
X1384241Y25260D01*
X1383867Y24256D01*
X1383422Y23281D01*
X1382908Y22341D01*
X1382329Y21440D01*
X1381687Y20582D01*
X1380985Y19772D01*
X1380228Y19015D01*
X1379418Y18313D01*
X1378560Y17671D01*
X1377659Y17092D01*
X1376719Y16578D01*
X1375744Y16133D01*
X1374740Y15759D01*
X1373712Y15457D01*
X1372665Y15229D01*
X1371604Y15076D01*
X1370536Y15000D01*
X1369464Y15000D01*
X1368396Y15076D01*
X1367335Y15229D01*
X1366288Y15457D01*
X1365260Y15759D01*
X1364256Y16133D01*
X1363281Y16578D01*
X1362341Y17092D01*
X1361440Y17671D01*
X1360582Y18313D01*
X1359772Y19015D01*
X1359015Y19772D01*
X1358313Y20582D01*
X1357671Y21440D01*
X1357092Y22341D01*
X1356578Y23281D01*
X1356133Y24256D01*
X1355759Y25260D01*
X1355457Y26288D01*
X1355229Y27335D01*
X1355076Y28396D01*
X1355000Y29464D01*
X1355000Y30536D01*
X1355076Y31604D01*
X1355229Y32665D01*
X1355457Y33712D01*
X1355759Y34740D01*
X1356133Y35744D01*
X1356578Y36719D01*
X1357092Y37659D01*
X1357671Y38560D01*
X1358313Y39418D01*
X1359015Y40228D01*
X1359772Y40985D01*
X1360582Y41687D01*
X1361440Y42329D01*
X1362341Y42908D01*
X1363281Y43422D01*
X1364256Y43867D01*
X1365260Y44241D01*
X1366288Y44543D01*
X1367335Y44771D01*
X1368396Y44924D01*
X1369464Y45000D01*
X1370536Y45000D01*
X1371604Y44924D01*
X1372665Y44771D01*
X1373712Y44543D01*
X1374740Y44241D01*
X1375744Y43867D01*
X1376719Y43422D01*
X1377659Y42908D01*
X1378560Y42329D01*
X1379418Y41687D01*
X1380228Y40985D01*
X1380985Y40228D01*
X1381687Y39418D01*
X1382329Y38560D01*
X1382908Y37659D01*
X1383422Y36719D01*
X1383867Y35744D01*
X1384241Y34740D01*
X1384543Y33712D01*
X1384771Y32665D01*
X1384924Y31604D01*
X1385000Y30536D01*
X1385000Y29464D01*
X1385000Y269464D02*
X1384924Y268396D01*
X1384771Y267335D01*
X1384543Y266288D01*
X1384241Y265260D01*
X1383867Y264256D01*
X1383422Y263281D01*
X1382908Y262341D01*
X1382329Y261440D01*
X1381687Y260582D01*
X1380985Y259772D01*
X1380228Y259015D01*
X1379418Y258313D01*
X1378560Y257671D01*
X1377659Y257092D01*
X1376719Y256578D01*
X1375744Y256133D01*
X1374740Y255759D01*
X1373712Y255457D01*
X1372665Y255229D01*
X1371604Y255076D01*
X1370536Y255000D01*
X1369464Y255000D01*
X1368396Y255076D01*
X1367335Y255229D01*
X1366288Y255457D01*
X1365260Y255759D01*
X1364256Y256133D01*
X1363281Y256578D01*
X1362341Y257092D01*
X1361440Y257671D01*
X1360582Y258313D01*
X1359772Y259015D01*
X1359015Y259772D01*
X1358313Y260582D01*
X1357671Y261440D01*
X1357092Y262341D01*
X1356578Y263281D01*
X1356133Y264256D01*
X1355759Y265260D01*
X1355457Y266288D01*
X1355229Y267335D01*
X1355076Y268396D01*
X1355000Y269464D01*
X1355000Y270536D01*
X1355076Y271604D01*
X1355229Y272665D01*
X1355457Y273712D01*
X1355759Y274740D01*
X1356133Y275744D01*
X1356578Y276719D01*
X1357092Y277659D01*
X1357671Y278560D01*
X1358313Y279418D01*
X1359015Y280228D01*
X1359772Y280985D01*
X1360582Y281687D01*
X1361440Y282329D01*
X1362341Y282908D01*
X1363281Y283422D01*
X1364256Y283867D01*
X1365260Y284241D01*
X1366288Y284543D01*
X1367335Y284771D01*
X1368396Y284924D01*
X1369464Y285000D01*
X1370536Y285000D01*
X1371604Y284924D01*
X1372665Y284771D01*
X1373712Y284543D01*
X1374740Y284241D01*
X1375744Y283867D01*
X1376719Y283422D01*
X1377659Y282908D01*
X1378560Y282329D01*
X1379418Y281687D01*
X1380228Y280985D01*
X1380985Y280228D01*
X1381687Y279418D01*
X1382329Y278560D01*
X1382908Y277659D01*
X1383422Y276719D01*
X1383867Y275744D01*
X1384241Y274740D01*
X1384543Y273712D01*
X1384771Y272665D01*
X1384924Y271604D01*
X1385000Y270536D01*
X1385000Y269464D01*
X45000Y269464D02*
X44924Y268396D01*
X44771Y267335D01*
X44543Y266288D01*
X44241Y265260D01*
X43867Y264256D01*
X43422Y263281D01*
X42908Y262341D01*
X42329Y261440D01*
X41687Y260582D01*
X40985Y259772D01*
X40228Y259015D01*
X39418Y258313D01*
X38560Y257671D01*
X37659Y257092D01*
X36719Y256578D01*
X35744Y256133D01*
X34740Y255759D01*
X33712Y255457D01*
X32665Y255229D01*
X31604Y255076D01*
X30536Y255000D01*
X29464Y255000D01*
X28396Y255076D01*
X27335Y255229D01*
X26288Y255457D01*
X25260Y255759D01*
X24256Y256133D01*
X23281Y256578D01*
X22341Y257092D01*
X21440Y257671D01*
X20582Y258313D01*
X19772Y259015D01*
X19015Y259772D01*
X18313Y260582D01*
X17671Y261440D01*
X17092Y262341D01*
X16578Y263281D01*
X16133Y264256D01*
X15759Y265260D01*
X15457Y266288D01*
X15229Y267335D01*
X15076Y268396D01*
X15000Y269464D01*
X15000Y270536D01*
X15076Y271604D01*
X15229Y272665D01*
X15457Y273712D01*
X15759Y274740D01*
X16133Y275744D01*
X16578Y276719D01*
X17092Y277659D01*
X17671Y278560D01*
X18313Y279418D01*
X19015Y280228D01*
X19772Y280985D01*
X20582Y281687D01*
X21440Y282329D01*
X22341Y282908D01*
X23281Y283422D01*
X24256Y283867D01*
X25260Y284241D01*
X26288Y284543D01*
X27335Y284771D01*
X28396Y284924D01*
X29464Y285000D01*
X30536Y285000D01*
X31604Y284924D01*
X32665Y284771D01*
X33712Y284543D01*
X34740Y284241D01*
X35744Y283867D01*
X36719Y283422D01*
X37659Y282908D01*
X38560Y282329D01*
X39418Y281687D01*
X40228Y280985D01*
X40985Y280228D01*
X41687Y279418D01*
X42329Y278560D01*
X42908Y277659D01*
X43422Y276719D01*
X43867Y275744D01*
X44241Y274740D01*
X44543Y273712D01*
X44771Y272665D01*
X44924Y271604D01*
X45000Y270536D01*
X45000Y269464D01*
X45000Y29464D02*
X44924Y28396D01*
X44771Y27335D01*
X44543Y26288D01*
X44241Y25260D01*
X43867Y24256D01*
X43422Y23281D01*
X42908Y22341D01*
X42329Y21440D01*
X41687Y20582D01*
X40985Y19772D01*
X40228Y19015D01*
X39418Y18313D01*
X38560Y17671D01*
X37659Y17092D01*
X36719Y16578D01*
X35744Y16133D01*
X34740Y15759D01*
X33712Y15457D01*
X32665Y15229D01*
X31604Y15076D01*
X30536Y15000D01*
X29464Y15000D01*
X28396Y15076D01*
X27335Y15229D01*
X26288Y15457D01*
X25260Y15759D01*
X24256Y16133D01*
X23281Y16578D01*
X22341Y17092D01*
X21440Y17671D01*
X20582Y18313D01*
X19772Y19015D01*
X19015Y19772D01*
X18313Y20582D01*
X17671Y21440D01*
X17092Y22341D01*
X16578Y23281D01*
X16133Y24256D01*
X15759Y25260D01*
X15457Y26288D01*
X15229Y27335D01*
X15076Y28396D01*
X15000Y29464D01*
X15000Y30536D01*
X15076Y31604D01*
X15229Y32665D01*
X15457Y33712D01*
X15759Y34740D01*
X16133Y35744D01*
X16578Y36719D01*
X17092Y37659D01*
X17671Y38560D01*
X18313Y39418D01*
X19015Y40228D01*
X19772Y40985D01*
X20582Y41687D01*
X21440Y42329D01*
X22341Y42908D01*
X23281Y43422D01*
X24256Y43867D01*
X25260Y44241D01*
X26288Y44543D01*
X27335Y44771D01*
X28396Y44924D01*
X29464Y45000D01*
X30536Y45000D01*
X31604Y44924D01*
X32665Y44771D01*
X33712Y44543D01*
X34740Y44241D01*
X35744Y43867D01*
X36719Y43422D01*
X37659Y42908D01*
X38560Y42329D01*
X39418Y41687D01*
X40228Y40985D01*
X40985Y40228D01*
X41687Y39418D01*
X42329Y38560D01*
X42908Y37659D01*
X43422Y36719D01*
X43867Y35744D01*
X44241Y34740D01*
X44543Y33712D01*
X44771Y32665D01*
X44924Y31604D01*
X45000Y30536D01*
X45000Y29464D01*
X1385000Y29464D02*
X1384924Y28396D01*
X1384771Y27335D01*
X1384543Y26288D01*
X1384241Y25260D01*
X1383867Y24256D01*
X1383422Y23281D01*
X1382908Y22341D01*
X1382329Y21440D01*
X1381687Y20582D01*
X1380985Y19772D01*
X1380228Y19015D01*
X1379418Y18313D01*
X1378560Y17671D01*
X1377659Y17092D01*
X1376719Y16578D01*
X1375744Y16133D01*
X1374740Y15759D01*
X1373712Y15457D01*
X1372665Y15229D01*
X1371604Y15076D01*
X1370536Y15000D01*
X1369464Y15000D01*
X1368396Y15076D01*
X1367335Y15229D01*
X1366288Y15457D01*
X1365260Y15759D01*
X1364256Y16133D01*
X1363281Y16578D01*
X1362341Y17092D01*
X1361440Y17671D01*
X1360582Y18313D01*
X1359772Y19015D01*
X1359015Y19772D01*
X1358313Y20582D01*
X1357671Y21440D01*
X1357092Y22341D01*
X1356578Y23281D01*
X1356133Y24256D01*
X1355759Y25260D01*
X1355457Y26288D01*
X1355229Y27335D01*
X1355076Y28396D01*
X1355000Y29464D01*
X1355000Y30536D01*
X1355076Y31604D01*
X1355229Y32665D01*
X1355457Y33712D01*
X1355759Y34740D01*
X1356133Y35744D01*
X1356578Y36719D01*
X1357092Y37659D01*
X1357671Y38560D01*
X1358313Y39418D01*
X1359015Y40228D01*
X1359772Y40985D01*
X1360582Y41687D01*
X1361440Y42329D01*
X1362341Y42908D01*
X1363281Y43422D01*
X1364256Y43867D01*
X1365260Y44241D01*
X1366288Y44543D01*
X1367335Y44771D01*
X1368396Y44924D01*
X1369464Y45000D01*
X1370536Y45000D01*
X1371604Y44924D01*
X1372665Y44771D01*
X1373712Y44543D01*
X1374740Y44241D01*
X1375744Y43867D01*
X1376719Y43422D01*
X1377659Y42908D01*
X1378560Y42329D01*
X1379418Y41687D01*
X1380228Y40985D01*
X1380985Y40228D01*
X1381687Y39418D01*
X1382329Y38560D01*
X1382908Y37659D01*
X1383422Y36719D01*
X1383867Y35744D01*
X1384241Y34740D01*
X1384543Y33712D01*
X1384771Y32665D01*
X1384924Y31604D01*
X1385000Y30536D01*
X1385000Y29464D01*
X1385000Y269464D02*
X1384924Y268396D01*
X1384771Y267335D01*
X1384543Y266288D01*
X1384241Y265260D01*
X1383867Y264256D01*
X1383422Y263281D01*
X1382908Y262341D01*
X1382329Y261440D01*
X1381687Y260582D01*
X1380985Y259772D01*
X1380228Y259015D01*
X1379418Y258313D01*
X1378560Y257671D01*
X1377659Y257092D01*
X1376719Y256578D01*
X1375744Y256133D01*
X1374740Y255759D01*
X1373712Y255457D01*
X1372665Y255229D01*
X1371604Y255076D01*
X1370536Y255000D01*
X1369464Y255000D01*
X1368396Y255076D01*
X1367335Y255229D01*
X1366288Y255457D01*
X1365260Y255759D01*
X1364256Y256133D01*
X1363281Y256578D01*
X1362341Y257092D01*
X1361440Y257671D01*
X1360582Y258313D01*
X1359772Y259015D01*
X1359015Y259772D01*
X1358313Y260582D01*
X1357671Y261440D01*
X1357092Y262341D01*
X1356578Y263281D01*
X1356133Y264256D01*
X1355759Y265260D01*
X1355457Y266288D01*
X1355229Y267335D01*
X1355076Y268396D01*
X1355000Y269464D01*
X1355000Y270536D01*
X1355076Y271604D01*
X1355229Y272665D01*
X1355457Y273712D01*
X1355759Y274740D01*
X1356133Y275744D01*
X1356578Y276719D01*
X1357092Y277659D01*
X1357671Y278560D01*
X1358313Y279418D01*
X1359015Y280228D01*
X1359772Y280985D01*
X1360582Y281687D01*
X1361440Y282329D01*
X1362341Y282908D01*
X1363281Y283422D01*
X1364256Y283867D01*
X1365260Y284241D01*
X1366288Y284543D01*
X1367335Y284771D01*
X1368396Y284924D01*
X1369464Y285000D01*
X1370536Y285000D01*
X1371604Y284924D01*
X1372665Y284771D01*
X1373712Y284543D01*
X1374740Y284241D01*
X1375744Y283867D01*
X1376719Y283422D01*
X1377659Y282908D01*
X1378560Y282329D01*
X1379418Y281687D01*
X1380228Y280985D01*
X1380985Y280228D01*
X1381687Y279418D01*
X1382329Y278560D01*
X1382908Y277659D01*
X1383422Y276719D01*
X1383867Y275744D01*
X1384241Y274740D01*
X1384543Y273712D01*
X1384771Y272665D01*
X1384924Y271604D01*
X1385000Y270536D01*
X1385000Y269464D01*
X45000Y269464D02*
X44924Y268396D01*
X44771Y267335D01*
X44543Y266288D01*
X44241Y265260D01*
X43867Y264256D01*
X43422Y263281D01*
X42908Y262341D01*
X42329Y261440D01*
X41687Y260582D01*
X40985Y259772D01*
X40228Y259015D01*
X39418Y258313D01*
X38560Y257671D01*
X37659Y257092D01*
X36719Y256578D01*
X35744Y256133D01*
X34740Y255759D01*
X33712Y255457D01*
X32665Y255229D01*
X31604Y255076D01*
X30536Y255000D01*
X29464Y255000D01*
X28396Y255076D01*
X27335Y255229D01*
X26288Y255457D01*
X25260Y255759D01*
X24256Y256133D01*
X23281Y256578D01*
X22341Y257092D01*
X21440Y257671D01*
X20582Y258313D01*
X19772Y259015D01*
X19015Y259772D01*
X18313Y260582D01*
X17671Y261440D01*
X17092Y262341D01*
X16578Y263281D01*
X16133Y264256D01*
X15759Y265260D01*
X15457Y266288D01*
X15229Y267335D01*
X15076Y268396D01*
X15000Y269464D01*
X15000Y270536D01*
X15076Y271604D01*
X15229Y272665D01*
X15457Y273712D01*
X15759Y274740D01*
X16133Y275744D01*
X16578Y276719D01*
X17092Y277659D01*
X17671Y278560D01*
X18313Y279418D01*
X19015Y280228D01*
X19772Y280985D01*
X20582Y281687D01*
X21440Y282329D01*
X22341Y282908D01*
X23281Y283422D01*
X24256Y283867D01*
X25260Y284241D01*
X26288Y284543D01*
X27335Y284771D01*
X28396Y284924D01*
X29464Y285000D01*
X30536Y285000D01*
X31604Y284924D01*
X32665Y284771D01*
X33712Y284543D01*
X34740Y284241D01*
X35744Y283867D01*
X36719Y283422D01*
X37659Y282908D01*
X38560Y282329D01*
X39418Y281687D01*
X40228Y280985D01*
X40985Y280228D01*
X41687Y279418D01*
X42329Y278560D01*
X42908Y277659D01*
X43422Y276719D01*
X43867Y275744D01*
X44241Y274740D01*
X44543Y273712D01*
X44771Y272665D01*
X44924Y271604D01*
X45000Y270536D01*
X45000Y269464D01*
M02*
