G04 EAGLE Gerber X2 export*
%TF.Part,Single*%
%TF.FileFunction,Legend,Top,1*%
%TF.FilePolarity,Positive*%
%TF.GenerationSoftware,Autodesk,EAGLE,8.7.1*%
%TF.CreationDate,2018-05-13T19:16:24Z*%
G75*
%MOMM*%
%FSLAX34Y34*%
%LPD*%
%AMOC8*
5,1,8,0,0,1.08239X$1,22.5*%
G01*
%ADD10C,0.152400*%
%ADD11C,0.203200*%
%ADD12C,0.127000*%


D10*
X1150762Y37018D02*
X1154374Y20762D01*
X1157987Y31599D01*
X1161599Y20762D01*
X1165212Y37018D01*
X1173757Y20762D02*
X1178273Y20762D01*
X1173757Y20762D02*
X1173656Y20764D01*
X1173555Y20770D01*
X1173454Y20779D01*
X1173353Y20792D01*
X1173253Y20809D01*
X1173154Y20830D01*
X1173056Y20854D01*
X1172959Y20882D01*
X1172862Y20914D01*
X1172767Y20949D01*
X1172674Y20988D01*
X1172582Y21030D01*
X1172491Y21076D01*
X1172403Y21125D01*
X1172316Y21177D01*
X1172231Y21233D01*
X1172148Y21291D01*
X1172068Y21353D01*
X1171990Y21418D01*
X1171914Y21485D01*
X1171841Y21555D01*
X1171771Y21628D01*
X1171704Y21704D01*
X1171639Y21782D01*
X1171577Y21862D01*
X1171519Y21945D01*
X1171463Y22030D01*
X1171411Y22116D01*
X1171362Y22205D01*
X1171316Y22296D01*
X1171274Y22388D01*
X1171235Y22481D01*
X1171200Y22576D01*
X1171168Y22673D01*
X1171140Y22770D01*
X1171116Y22868D01*
X1171095Y22967D01*
X1171078Y23067D01*
X1171065Y23168D01*
X1171056Y23269D01*
X1171050Y23370D01*
X1171048Y23471D01*
X1171048Y27987D01*
X1171050Y28106D01*
X1171056Y28226D01*
X1171066Y28345D01*
X1171080Y28463D01*
X1171097Y28582D01*
X1171119Y28699D01*
X1171144Y28816D01*
X1171174Y28931D01*
X1171207Y29046D01*
X1171244Y29160D01*
X1171284Y29272D01*
X1171329Y29383D01*
X1171377Y29492D01*
X1171428Y29600D01*
X1171483Y29706D01*
X1171542Y29810D01*
X1171604Y29912D01*
X1171669Y30012D01*
X1171738Y30110D01*
X1171810Y30206D01*
X1171885Y30299D01*
X1171962Y30389D01*
X1172043Y30477D01*
X1172127Y30562D01*
X1172214Y30644D01*
X1172303Y30724D01*
X1172395Y30800D01*
X1172489Y30874D01*
X1172586Y30944D01*
X1172684Y31011D01*
X1172785Y31075D01*
X1172889Y31135D01*
X1172994Y31192D01*
X1173101Y31245D01*
X1173209Y31295D01*
X1173319Y31341D01*
X1173431Y31383D01*
X1173544Y31422D01*
X1173658Y31457D01*
X1173773Y31488D01*
X1173890Y31516D01*
X1174007Y31539D01*
X1174124Y31559D01*
X1174243Y31575D01*
X1174362Y31587D01*
X1174481Y31595D01*
X1174600Y31599D01*
X1174720Y31599D01*
X1174839Y31595D01*
X1174958Y31587D01*
X1175077Y31575D01*
X1175196Y31559D01*
X1175313Y31539D01*
X1175430Y31516D01*
X1175547Y31488D01*
X1175662Y31457D01*
X1175776Y31422D01*
X1175889Y31383D01*
X1176001Y31341D01*
X1176111Y31295D01*
X1176219Y31245D01*
X1176326Y31192D01*
X1176431Y31135D01*
X1176535Y31075D01*
X1176636Y31011D01*
X1176734Y30944D01*
X1176831Y30874D01*
X1176925Y30800D01*
X1177017Y30724D01*
X1177106Y30644D01*
X1177193Y30562D01*
X1177277Y30477D01*
X1177358Y30389D01*
X1177435Y30299D01*
X1177510Y30206D01*
X1177582Y30110D01*
X1177651Y30012D01*
X1177716Y29912D01*
X1177778Y29810D01*
X1177837Y29706D01*
X1177892Y29600D01*
X1177943Y29492D01*
X1177991Y29383D01*
X1178036Y29272D01*
X1178076Y29160D01*
X1178113Y29046D01*
X1178146Y28931D01*
X1178176Y28816D01*
X1178201Y28699D01*
X1178223Y28582D01*
X1178240Y28463D01*
X1178254Y28345D01*
X1178264Y28226D01*
X1178270Y28106D01*
X1178272Y27987D01*
X1178273Y27987D02*
X1178273Y26181D01*
X1171048Y26181D01*
X1185116Y20762D02*
X1185116Y31599D01*
X1189631Y31599D01*
X1189735Y31597D01*
X1189838Y31591D01*
X1189942Y31581D01*
X1190045Y31567D01*
X1190147Y31549D01*
X1190248Y31528D01*
X1190349Y31502D01*
X1190448Y31473D01*
X1190547Y31440D01*
X1190644Y31403D01*
X1190739Y31362D01*
X1190833Y31318D01*
X1190925Y31270D01*
X1191015Y31219D01*
X1191104Y31164D01*
X1191190Y31106D01*
X1191273Y31044D01*
X1191355Y30980D01*
X1191433Y30912D01*
X1191509Y30842D01*
X1191583Y30769D01*
X1191653Y30692D01*
X1191721Y30614D01*
X1191785Y30532D01*
X1191847Y30449D01*
X1191905Y30363D01*
X1191960Y30274D01*
X1192011Y30184D01*
X1192059Y30092D01*
X1192103Y29998D01*
X1192144Y29903D01*
X1192181Y29806D01*
X1192214Y29707D01*
X1192243Y29608D01*
X1192269Y29507D01*
X1192290Y29406D01*
X1192308Y29304D01*
X1192322Y29201D01*
X1192332Y29097D01*
X1192338Y28994D01*
X1192340Y28890D01*
X1192341Y28890D02*
X1192341Y20762D01*
X1206336Y20762D02*
X1206336Y37018D01*
X1206336Y20762D02*
X1201820Y20762D01*
X1201719Y20764D01*
X1201618Y20770D01*
X1201517Y20779D01*
X1201416Y20792D01*
X1201316Y20809D01*
X1201217Y20830D01*
X1201119Y20854D01*
X1201022Y20882D01*
X1200925Y20914D01*
X1200830Y20949D01*
X1200737Y20988D01*
X1200645Y21030D01*
X1200554Y21076D01*
X1200466Y21125D01*
X1200379Y21177D01*
X1200294Y21233D01*
X1200211Y21291D01*
X1200131Y21353D01*
X1200053Y21418D01*
X1199977Y21485D01*
X1199904Y21555D01*
X1199834Y21628D01*
X1199767Y21704D01*
X1199702Y21782D01*
X1199640Y21862D01*
X1199582Y21945D01*
X1199526Y22030D01*
X1199474Y22116D01*
X1199425Y22205D01*
X1199379Y22296D01*
X1199337Y22388D01*
X1199298Y22481D01*
X1199263Y22576D01*
X1199231Y22673D01*
X1199203Y22770D01*
X1199179Y22868D01*
X1199158Y22967D01*
X1199141Y23067D01*
X1199128Y23168D01*
X1199119Y23269D01*
X1199113Y23370D01*
X1199111Y23471D01*
X1199111Y28890D01*
X1199113Y28991D01*
X1199119Y29092D01*
X1199128Y29193D01*
X1199141Y29294D01*
X1199158Y29394D01*
X1199179Y29493D01*
X1199203Y29591D01*
X1199231Y29688D01*
X1199263Y29785D01*
X1199298Y29880D01*
X1199337Y29973D01*
X1199379Y30065D01*
X1199425Y30156D01*
X1199474Y30244D01*
X1199526Y30331D01*
X1199582Y30416D01*
X1199640Y30499D01*
X1199702Y30579D01*
X1199767Y30657D01*
X1199834Y30733D01*
X1199904Y30806D01*
X1199977Y30876D01*
X1200053Y30943D01*
X1200131Y31008D01*
X1200211Y31070D01*
X1200294Y31128D01*
X1200379Y31184D01*
X1200466Y31236D01*
X1200554Y31285D01*
X1200645Y31331D01*
X1200737Y31373D01*
X1200830Y31412D01*
X1200925Y31447D01*
X1201022Y31479D01*
X1201119Y31507D01*
X1201217Y31531D01*
X1201316Y31552D01*
X1201416Y31569D01*
X1201517Y31582D01*
X1201618Y31591D01*
X1201719Y31597D01*
X1201820Y31599D01*
X1206336Y31599D01*
X1213252Y27987D02*
X1213252Y24374D01*
X1213252Y27987D02*
X1213254Y28106D01*
X1213260Y28226D01*
X1213270Y28345D01*
X1213284Y28463D01*
X1213301Y28582D01*
X1213323Y28699D01*
X1213348Y28816D01*
X1213378Y28931D01*
X1213411Y29046D01*
X1213448Y29160D01*
X1213488Y29272D01*
X1213533Y29383D01*
X1213581Y29492D01*
X1213632Y29600D01*
X1213687Y29706D01*
X1213746Y29810D01*
X1213808Y29912D01*
X1213873Y30012D01*
X1213942Y30110D01*
X1214014Y30206D01*
X1214089Y30299D01*
X1214166Y30389D01*
X1214247Y30477D01*
X1214331Y30562D01*
X1214418Y30644D01*
X1214507Y30724D01*
X1214599Y30800D01*
X1214693Y30874D01*
X1214790Y30944D01*
X1214888Y31011D01*
X1214989Y31075D01*
X1215093Y31135D01*
X1215198Y31192D01*
X1215305Y31245D01*
X1215413Y31295D01*
X1215523Y31341D01*
X1215635Y31383D01*
X1215748Y31422D01*
X1215862Y31457D01*
X1215977Y31488D01*
X1216094Y31516D01*
X1216211Y31539D01*
X1216328Y31559D01*
X1216447Y31575D01*
X1216566Y31587D01*
X1216685Y31595D01*
X1216804Y31599D01*
X1216924Y31599D01*
X1217043Y31595D01*
X1217162Y31587D01*
X1217281Y31575D01*
X1217400Y31559D01*
X1217517Y31539D01*
X1217634Y31516D01*
X1217751Y31488D01*
X1217866Y31457D01*
X1217980Y31422D01*
X1218093Y31383D01*
X1218205Y31341D01*
X1218315Y31295D01*
X1218423Y31245D01*
X1218530Y31192D01*
X1218635Y31135D01*
X1218739Y31075D01*
X1218840Y31011D01*
X1218938Y30944D01*
X1219035Y30874D01*
X1219129Y30800D01*
X1219221Y30724D01*
X1219310Y30644D01*
X1219397Y30562D01*
X1219481Y30477D01*
X1219562Y30389D01*
X1219639Y30299D01*
X1219714Y30206D01*
X1219786Y30110D01*
X1219855Y30012D01*
X1219920Y29912D01*
X1219982Y29810D01*
X1220041Y29706D01*
X1220096Y29600D01*
X1220147Y29492D01*
X1220195Y29383D01*
X1220240Y29272D01*
X1220280Y29160D01*
X1220317Y29046D01*
X1220350Y28931D01*
X1220380Y28816D01*
X1220405Y28699D01*
X1220427Y28582D01*
X1220444Y28463D01*
X1220458Y28345D01*
X1220468Y28226D01*
X1220474Y28106D01*
X1220476Y27987D01*
X1220477Y27987D02*
X1220477Y24374D01*
X1220476Y24374D02*
X1220474Y24255D01*
X1220468Y24135D01*
X1220458Y24016D01*
X1220444Y23898D01*
X1220427Y23779D01*
X1220405Y23662D01*
X1220380Y23545D01*
X1220350Y23430D01*
X1220317Y23315D01*
X1220280Y23201D01*
X1220240Y23089D01*
X1220195Y22978D01*
X1220147Y22869D01*
X1220096Y22761D01*
X1220041Y22655D01*
X1219982Y22551D01*
X1219920Y22449D01*
X1219855Y22349D01*
X1219786Y22251D01*
X1219714Y22155D01*
X1219639Y22062D01*
X1219562Y21972D01*
X1219481Y21884D01*
X1219397Y21799D01*
X1219310Y21717D01*
X1219221Y21637D01*
X1219129Y21561D01*
X1219035Y21487D01*
X1218938Y21417D01*
X1218840Y21350D01*
X1218739Y21286D01*
X1218635Y21226D01*
X1218530Y21169D01*
X1218423Y21116D01*
X1218315Y21066D01*
X1218205Y21020D01*
X1218093Y20978D01*
X1217980Y20939D01*
X1217866Y20904D01*
X1217751Y20873D01*
X1217634Y20845D01*
X1217517Y20822D01*
X1217400Y20802D01*
X1217281Y20786D01*
X1217162Y20774D01*
X1217043Y20766D01*
X1216924Y20762D01*
X1216804Y20762D01*
X1216685Y20766D01*
X1216566Y20774D01*
X1216447Y20786D01*
X1216328Y20802D01*
X1216211Y20822D01*
X1216094Y20845D01*
X1215977Y20873D01*
X1215862Y20904D01*
X1215748Y20939D01*
X1215635Y20978D01*
X1215523Y21020D01*
X1215413Y21066D01*
X1215305Y21116D01*
X1215198Y21169D01*
X1215093Y21226D01*
X1214989Y21286D01*
X1214888Y21350D01*
X1214790Y21417D01*
X1214693Y21487D01*
X1214599Y21561D01*
X1214507Y21637D01*
X1214418Y21717D01*
X1214331Y21799D01*
X1214247Y21884D01*
X1214166Y21972D01*
X1214089Y22062D01*
X1214014Y22155D01*
X1213942Y22251D01*
X1213873Y22349D01*
X1213808Y22449D01*
X1213746Y22551D01*
X1213687Y22655D01*
X1213632Y22761D01*
X1213581Y22869D01*
X1213533Y22978D01*
X1213488Y23089D01*
X1213448Y23201D01*
X1213411Y23315D01*
X1213378Y23430D01*
X1213348Y23545D01*
X1213323Y23662D01*
X1213301Y23779D01*
X1213284Y23898D01*
X1213270Y24016D01*
X1213260Y24135D01*
X1213254Y24255D01*
X1213252Y24374D01*
X1227405Y20762D02*
X1227405Y31599D01*
X1232824Y31599D01*
X1232824Y29793D01*
X1251184Y37018D02*
X1251309Y37016D01*
X1251434Y37010D01*
X1251559Y37001D01*
X1251683Y36987D01*
X1251807Y36970D01*
X1251931Y36949D01*
X1252053Y36924D01*
X1252175Y36895D01*
X1252296Y36863D01*
X1252416Y36827D01*
X1252535Y36787D01*
X1252652Y36744D01*
X1252768Y36697D01*
X1252883Y36646D01*
X1252995Y36592D01*
X1253107Y36534D01*
X1253216Y36474D01*
X1253323Y36409D01*
X1253429Y36342D01*
X1253532Y36271D01*
X1253633Y36197D01*
X1253732Y36120D01*
X1253828Y36040D01*
X1253922Y35957D01*
X1254013Y35872D01*
X1254102Y35783D01*
X1254187Y35692D01*
X1254270Y35598D01*
X1254350Y35502D01*
X1254427Y35403D01*
X1254501Y35302D01*
X1254572Y35199D01*
X1254639Y35093D01*
X1254704Y34986D01*
X1254764Y34877D01*
X1254822Y34765D01*
X1254876Y34653D01*
X1254927Y34538D01*
X1254974Y34422D01*
X1255017Y34305D01*
X1255057Y34186D01*
X1255093Y34066D01*
X1255125Y33945D01*
X1255154Y33823D01*
X1255179Y33701D01*
X1255200Y33577D01*
X1255217Y33453D01*
X1255231Y33329D01*
X1255240Y33204D01*
X1255246Y33079D01*
X1255248Y32954D01*
X1251184Y37018D02*
X1251041Y37016D01*
X1250899Y37010D01*
X1250756Y37000D01*
X1250614Y36987D01*
X1250473Y36969D01*
X1250331Y36948D01*
X1250191Y36923D01*
X1250051Y36894D01*
X1249912Y36861D01*
X1249774Y36824D01*
X1249637Y36784D01*
X1249502Y36740D01*
X1249367Y36692D01*
X1249234Y36640D01*
X1249102Y36585D01*
X1248972Y36526D01*
X1248844Y36464D01*
X1248717Y36398D01*
X1248592Y36329D01*
X1248469Y36257D01*
X1248349Y36181D01*
X1248230Y36102D01*
X1248113Y36019D01*
X1247999Y35934D01*
X1247887Y35845D01*
X1247778Y35754D01*
X1247671Y35659D01*
X1247566Y35562D01*
X1247465Y35461D01*
X1247366Y35358D01*
X1247270Y35253D01*
X1247177Y35144D01*
X1247087Y35033D01*
X1247000Y34920D01*
X1246916Y34805D01*
X1246836Y34687D01*
X1246758Y34567D01*
X1246684Y34445D01*
X1246614Y34321D01*
X1246546Y34195D01*
X1246483Y34067D01*
X1246422Y33938D01*
X1246365Y33807D01*
X1246312Y33675D01*
X1246263Y33541D01*
X1246217Y33406D01*
X1253892Y29793D02*
X1253986Y29885D01*
X1254076Y29979D01*
X1254164Y30076D01*
X1254249Y30176D01*
X1254331Y30278D01*
X1254410Y30383D01*
X1254485Y30490D01*
X1254557Y30599D01*
X1254626Y30710D01*
X1254692Y30824D01*
X1254754Y30939D01*
X1254813Y31056D01*
X1254868Y31175D01*
X1254919Y31295D01*
X1254967Y31417D01*
X1255012Y31540D01*
X1255052Y31664D01*
X1255089Y31790D01*
X1255122Y31917D01*
X1255151Y32044D01*
X1255177Y32173D01*
X1255198Y32302D01*
X1255216Y32432D01*
X1255229Y32562D01*
X1255239Y32692D01*
X1255245Y32823D01*
X1255247Y32954D01*
X1253893Y29793D02*
X1246217Y20762D01*
X1255248Y20762D01*
X1261848Y28890D02*
X1261852Y29210D01*
X1261863Y29529D01*
X1261882Y29849D01*
X1261909Y30167D01*
X1261943Y30485D01*
X1261985Y30802D01*
X1262035Y31118D01*
X1262092Y31433D01*
X1262156Y31746D01*
X1262228Y32058D01*
X1262307Y32368D01*
X1262394Y32675D01*
X1262488Y32981D01*
X1262589Y33284D01*
X1262698Y33585D01*
X1262813Y33883D01*
X1262936Y34179D01*
X1263066Y34471D01*
X1263203Y34760D01*
X1263202Y34761D02*
X1263241Y34869D01*
X1263284Y34976D01*
X1263330Y35081D01*
X1263381Y35185D01*
X1263434Y35287D01*
X1263491Y35387D01*
X1263552Y35485D01*
X1263616Y35580D01*
X1263683Y35674D01*
X1263754Y35765D01*
X1263827Y35854D01*
X1263904Y35940D01*
X1263983Y36023D01*
X1264065Y36104D01*
X1264150Y36182D01*
X1264238Y36256D01*
X1264328Y36328D01*
X1264420Y36396D01*
X1264515Y36462D01*
X1264612Y36524D01*
X1264711Y36582D01*
X1264813Y36638D01*
X1264915Y36689D01*
X1265020Y36737D01*
X1265126Y36782D01*
X1265234Y36823D01*
X1265343Y36860D01*
X1265453Y36893D01*
X1265565Y36922D01*
X1265677Y36948D01*
X1265790Y36970D01*
X1265904Y36987D01*
X1266018Y37001D01*
X1266133Y37011D01*
X1266248Y37017D01*
X1266363Y37019D01*
X1266363Y37018D02*
X1266478Y37016D01*
X1266593Y37010D01*
X1266708Y37000D01*
X1266822Y36986D01*
X1266936Y36969D01*
X1267049Y36947D01*
X1267161Y36921D01*
X1267273Y36892D01*
X1267383Y36859D01*
X1267492Y36822D01*
X1267600Y36781D01*
X1267706Y36736D01*
X1267811Y36688D01*
X1267913Y36637D01*
X1268014Y36581D01*
X1268114Y36523D01*
X1268211Y36461D01*
X1268305Y36396D01*
X1268398Y36327D01*
X1268488Y36255D01*
X1268576Y36181D01*
X1268661Y36103D01*
X1268743Y36022D01*
X1268822Y35939D01*
X1268899Y35853D01*
X1268972Y35764D01*
X1269043Y35673D01*
X1269110Y35579D01*
X1269174Y35484D01*
X1269235Y35386D01*
X1269292Y35286D01*
X1269345Y35184D01*
X1269396Y35080D01*
X1269442Y34975D01*
X1269485Y34868D01*
X1269524Y34760D01*
X1269661Y34471D01*
X1269791Y34179D01*
X1269914Y33883D01*
X1270029Y33585D01*
X1270138Y33284D01*
X1270239Y32981D01*
X1270333Y32675D01*
X1270420Y32368D01*
X1270499Y32058D01*
X1270571Y31746D01*
X1270635Y31433D01*
X1270692Y31118D01*
X1270742Y30802D01*
X1270784Y30485D01*
X1270818Y30167D01*
X1270845Y29849D01*
X1270864Y29529D01*
X1270875Y29210D01*
X1270879Y28890D01*
X1261848Y28890D02*
X1261852Y28570D01*
X1261863Y28251D01*
X1261882Y27931D01*
X1261909Y27613D01*
X1261943Y27295D01*
X1261985Y26978D01*
X1262035Y26662D01*
X1262092Y26347D01*
X1262156Y26034D01*
X1262228Y25722D01*
X1262307Y25412D01*
X1262394Y25105D01*
X1262488Y24799D01*
X1262589Y24496D01*
X1262698Y24195D01*
X1262813Y23897D01*
X1262936Y23601D01*
X1263066Y23309D01*
X1263203Y23020D01*
X1263202Y23020D02*
X1263241Y22912D01*
X1263284Y22805D01*
X1263330Y22700D01*
X1263381Y22596D01*
X1263434Y22494D01*
X1263491Y22394D01*
X1263552Y22296D01*
X1263616Y22201D01*
X1263683Y22107D01*
X1263754Y22016D01*
X1263827Y21927D01*
X1263904Y21841D01*
X1263983Y21758D01*
X1264065Y21677D01*
X1264150Y21599D01*
X1264238Y21525D01*
X1264328Y21453D01*
X1264421Y21384D01*
X1264515Y21319D01*
X1264612Y21257D01*
X1264712Y21199D01*
X1264813Y21143D01*
X1264915Y21092D01*
X1265020Y21044D01*
X1265126Y20999D01*
X1265234Y20958D01*
X1265343Y20921D01*
X1265453Y20888D01*
X1265565Y20859D01*
X1265677Y20833D01*
X1265790Y20811D01*
X1265904Y20794D01*
X1266018Y20780D01*
X1266133Y20770D01*
X1266248Y20764D01*
X1266363Y20762D01*
X1269523Y23020D02*
X1269660Y23309D01*
X1269790Y23601D01*
X1269913Y23897D01*
X1270028Y24195D01*
X1270137Y24496D01*
X1270238Y24799D01*
X1270332Y25105D01*
X1270419Y25412D01*
X1270498Y25722D01*
X1270570Y26034D01*
X1270634Y26347D01*
X1270691Y26662D01*
X1270741Y26978D01*
X1270783Y27295D01*
X1270817Y27613D01*
X1270844Y27931D01*
X1270863Y28251D01*
X1270874Y28570D01*
X1270878Y28890D01*
X1269524Y23020D02*
X1269485Y22912D01*
X1269442Y22805D01*
X1269396Y22700D01*
X1269345Y22596D01*
X1269292Y22494D01*
X1269235Y22394D01*
X1269174Y22296D01*
X1269110Y22201D01*
X1269043Y22107D01*
X1268972Y22016D01*
X1268899Y21927D01*
X1268822Y21841D01*
X1268743Y21758D01*
X1268661Y21677D01*
X1268576Y21599D01*
X1268488Y21525D01*
X1268398Y21453D01*
X1268305Y21384D01*
X1268211Y21319D01*
X1268114Y21257D01*
X1268014Y21199D01*
X1267913Y21143D01*
X1267810Y21092D01*
X1267706Y21044D01*
X1267600Y20999D01*
X1267492Y20958D01*
X1267383Y20921D01*
X1267273Y20888D01*
X1267161Y20859D01*
X1267049Y20833D01*
X1266936Y20811D01*
X1266822Y20794D01*
X1266708Y20780D01*
X1266593Y20770D01*
X1266478Y20764D01*
X1266363Y20762D01*
X1262751Y24374D02*
X1269976Y33406D01*
X1277479Y33406D02*
X1281995Y37018D01*
X1281995Y20762D01*
X1286510Y20762D02*
X1277479Y20762D01*
X1293110Y25278D02*
X1293112Y25411D01*
X1293118Y25543D01*
X1293128Y25675D01*
X1293141Y25807D01*
X1293159Y25939D01*
X1293180Y26069D01*
X1293205Y26200D01*
X1293234Y26329D01*
X1293267Y26457D01*
X1293303Y26585D01*
X1293343Y26711D01*
X1293387Y26836D01*
X1293435Y26960D01*
X1293486Y27082D01*
X1293541Y27203D01*
X1293599Y27322D01*
X1293661Y27440D01*
X1293726Y27555D01*
X1293795Y27669D01*
X1293866Y27780D01*
X1293942Y27889D01*
X1294020Y27996D01*
X1294101Y28101D01*
X1294186Y28203D01*
X1294273Y28303D01*
X1294363Y28400D01*
X1294456Y28495D01*
X1294552Y28586D01*
X1294650Y28675D01*
X1294751Y28761D01*
X1294855Y28844D01*
X1294961Y28924D01*
X1295069Y29000D01*
X1295179Y29074D01*
X1295292Y29144D01*
X1295406Y29211D01*
X1295523Y29274D01*
X1295641Y29334D01*
X1295761Y29391D01*
X1295883Y29444D01*
X1296006Y29493D01*
X1296130Y29539D01*
X1296256Y29581D01*
X1296383Y29619D01*
X1296511Y29654D01*
X1296640Y29685D01*
X1296769Y29712D01*
X1296900Y29735D01*
X1297031Y29755D01*
X1297163Y29770D01*
X1297295Y29782D01*
X1297427Y29790D01*
X1297560Y29794D01*
X1297692Y29794D01*
X1297825Y29790D01*
X1297957Y29782D01*
X1298089Y29770D01*
X1298221Y29755D01*
X1298352Y29735D01*
X1298483Y29712D01*
X1298612Y29685D01*
X1298741Y29654D01*
X1298869Y29619D01*
X1298996Y29581D01*
X1299122Y29539D01*
X1299246Y29493D01*
X1299369Y29444D01*
X1299491Y29391D01*
X1299611Y29334D01*
X1299729Y29274D01*
X1299846Y29211D01*
X1299960Y29144D01*
X1300073Y29074D01*
X1300183Y29000D01*
X1300291Y28924D01*
X1300397Y28844D01*
X1300501Y28761D01*
X1300602Y28675D01*
X1300700Y28586D01*
X1300796Y28495D01*
X1300889Y28400D01*
X1300979Y28303D01*
X1301066Y28203D01*
X1301151Y28101D01*
X1301232Y27996D01*
X1301310Y27889D01*
X1301386Y27780D01*
X1301457Y27669D01*
X1301526Y27555D01*
X1301591Y27440D01*
X1301653Y27322D01*
X1301711Y27203D01*
X1301766Y27082D01*
X1301817Y26960D01*
X1301865Y26836D01*
X1301909Y26711D01*
X1301949Y26585D01*
X1301985Y26457D01*
X1302018Y26329D01*
X1302047Y26200D01*
X1302072Y26069D01*
X1302093Y25939D01*
X1302111Y25807D01*
X1302124Y25675D01*
X1302134Y25543D01*
X1302140Y25411D01*
X1302142Y25278D01*
X1302140Y25145D01*
X1302134Y25013D01*
X1302124Y24881D01*
X1302111Y24749D01*
X1302093Y24617D01*
X1302072Y24487D01*
X1302047Y24356D01*
X1302018Y24227D01*
X1301985Y24099D01*
X1301949Y23971D01*
X1301909Y23845D01*
X1301865Y23720D01*
X1301817Y23596D01*
X1301766Y23474D01*
X1301711Y23353D01*
X1301653Y23234D01*
X1301591Y23116D01*
X1301526Y23001D01*
X1301457Y22887D01*
X1301386Y22776D01*
X1301310Y22667D01*
X1301232Y22560D01*
X1301151Y22455D01*
X1301066Y22353D01*
X1300979Y22253D01*
X1300889Y22156D01*
X1300796Y22061D01*
X1300700Y21970D01*
X1300602Y21881D01*
X1300501Y21795D01*
X1300397Y21712D01*
X1300291Y21632D01*
X1300183Y21556D01*
X1300073Y21482D01*
X1299960Y21412D01*
X1299846Y21345D01*
X1299729Y21282D01*
X1299611Y21222D01*
X1299491Y21165D01*
X1299369Y21112D01*
X1299246Y21063D01*
X1299122Y21017D01*
X1298996Y20975D01*
X1298869Y20937D01*
X1298741Y20902D01*
X1298612Y20871D01*
X1298483Y20844D01*
X1298352Y20821D01*
X1298221Y20801D01*
X1298089Y20786D01*
X1297957Y20774D01*
X1297825Y20766D01*
X1297692Y20762D01*
X1297560Y20762D01*
X1297427Y20766D01*
X1297295Y20774D01*
X1297163Y20786D01*
X1297031Y20801D01*
X1296900Y20821D01*
X1296769Y20844D01*
X1296640Y20871D01*
X1296511Y20902D01*
X1296383Y20937D01*
X1296256Y20975D01*
X1296130Y21017D01*
X1296006Y21063D01*
X1295883Y21112D01*
X1295761Y21165D01*
X1295641Y21222D01*
X1295523Y21282D01*
X1295406Y21345D01*
X1295292Y21412D01*
X1295179Y21482D01*
X1295069Y21556D01*
X1294961Y21632D01*
X1294855Y21712D01*
X1294751Y21795D01*
X1294650Y21881D01*
X1294552Y21970D01*
X1294456Y22061D01*
X1294363Y22156D01*
X1294273Y22253D01*
X1294186Y22353D01*
X1294101Y22455D01*
X1294020Y22560D01*
X1293942Y22667D01*
X1293866Y22776D01*
X1293795Y22887D01*
X1293726Y23001D01*
X1293661Y23116D01*
X1293599Y23234D01*
X1293541Y23353D01*
X1293486Y23474D01*
X1293435Y23596D01*
X1293387Y23720D01*
X1293343Y23845D01*
X1293303Y23971D01*
X1293267Y24099D01*
X1293234Y24227D01*
X1293205Y24356D01*
X1293180Y24487D01*
X1293159Y24617D01*
X1293141Y24749D01*
X1293128Y24881D01*
X1293118Y25013D01*
X1293112Y25145D01*
X1293110Y25278D01*
X1294014Y33406D02*
X1294016Y33525D01*
X1294022Y33645D01*
X1294032Y33764D01*
X1294046Y33882D01*
X1294063Y34001D01*
X1294085Y34118D01*
X1294110Y34235D01*
X1294140Y34350D01*
X1294173Y34465D01*
X1294210Y34579D01*
X1294250Y34691D01*
X1294295Y34802D01*
X1294343Y34911D01*
X1294394Y35019D01*
X1294449Y35125D01*
X1294508Y35229D01*
X1294570Y35331D01*
X1294635Y35431D01*
X1294704Y35529D01*
X1294776Y35625D01*
X1294851Y35718D01*
X1294928Y35808D01*
X1295009Y35896D01*
X1295093Y35981D01*
X1295180Y36063D01*
X1295269Y36143D01*
X1295361Y36219D01*
X1295455Y36293D01*
X1295552Y36363D01*
X1295650Y36430D01*
X1295751Y36494D01*
X1295855Y36554D01*
X1295960Y36611D01*
X1296067Y36664D01*
X1296175Y36714D01*
X1296285Y36760D01*
X1296397Y36802D01*
X1296510Y36841D01*
X1296624Y36876D01*
X1296739Y36907D01*
X1296856Y36935D01*
X1296973Y36958D01*
X1297090Y36978D01*
X1297209Y36994D01*
X1297328Y37006D01*
X1297447Y37014D01*
X1297566Y37018D01*
X1297686Y37018D01*
X1297805Y37014D01*
X1297924Y37006D01*
X1298043Y36994D01*
X1298162Y36978D01*
X1298279Y36958D01*
X1298396Y36935D01*
X1298513Y36907D01*
X1298628Y36876D01*
X1298742Y36841D01*
X1298855Y36802D01*
X1298967Y36760D01*
X1299077Y36714D01*
X1299185Y36664D01*
X1299292Y36611D01*
X1299397Y36554D01*
X1299501Y36494D01*
X1299602Y36430D01*
X1299700Y36363D01*
X1299797Y36293D01*
X1299891Y36219D01*
X1299983Y36143D01*
X1300072Y36063D01*
X1300159Y35981D01*
X1300243Y35896D01*
X1300324Y35808D01*
X1300401Y35718D01*
X1300476Y35625D01*
X1300548Y35529D01*
X1300617Y35431D01*
X1300682Y35331D01*
X1300744Y35229D01*
X1300803Y35125D01*
X1300858Y35019D01*
X1300909Y34911D01*
X1300957Y34802D01*
X1301002Y34691D01*
X1301042Y34579D01*
X1301079Y34465D01*
X1301112Y34350D01*
X1301142Y34235D01*
X1301167Y34118D01*
X1301189Y34001D01*
X1301206Y33882D01*
X1301220Y33764D01*
X1301230Y33645D01*
X1301236Y33525D01*
X1301238Y33406D01*
X1301236Y33287D01*
X1301230Y33167D01*
X1301220Y33048D01*
X1301206Y32930D01*
X1301189Y32811D01*
X1301167Y32694D01*
X1301142Y32577D01*
X1301112Y32462D01*
X1301079Y32347D01*
X1301042Y32233D01*
X1301002Y32121D01*
X1300957Y32010D01*
X1300909Y31901D01*
X1300858Y31793D01*
X1300803Y31687D01*
X1300744Y31583D01*
X1300682Y31481D01*
X1300617Y31381D01*
X1300548Y31283D01*
X1300476Y31187D01*
X1300401Y31094D01*
X1300324Y31004D01*
X1300243Y30916D01*
X1300159Y30831D01*
X1300072Y30749D01*
X1299983Y30669D01*
X1299891Y30593D01*
X1299797Y30519D01*
X1299700Y30449D01*
X1299602Y30382D01*
X1299501Y30318D01*
X1299397Y30258D01*
X1299292Y30201D01*
X1299185Y30148D01*
X1299077Y30098D01*
X1298967Y30052D01*
X1298855Y30010D01*
X1298742Y29971D01*
X1298628Y29936D01*
X1298513Y29905D01*
X1298396Y29877D01*
X1298279Y29854D01*
X1298162Y29834D01*
X1298043Y29818D01*
X1297924Y29806D01*
X1297805Y29798D01*
X1297686Y29794D01*
X1297566Y29794D01*
X1297447Y29798D01*
X1297328Y29806D01*
X1297209Y29818D01*
X1297090Y29834D01*
X1296973Y29854D01*
X1296856Y29877D01*
X1296739Y29905D01*
X1296624Y29936D01*
X1296510Y29971D01*
X1296397Y30010D01*
X1296285Y30052D01*
X1296175Y30098D01*
X1296067Y30148D01*
X1295960Y30201D01*
X1295855Y30258D01*
X1295751Y30318D01*
X1295650Y30382D01*
X1295552Y30449D01*
X1295455Y30519D01*
X1295361Y30593D01*
X1295269Y30669D01*
X1295180Y30749D01*
X1295093Y30831D01*
X1295009Y30916D01*
X1294928Y31004D01*
X1294851Y31094D01*
X1294776Y31187D01*
X1294704Y31283D01*
X1294635Y31381D01*
X1294570Y31481D01*
X1294508Y31583D01*
X1294449Y31687D01*
X1294394Y31793D01*
X1294343Y31901D01*
X1294295Y32010D01*
X1294250Y32121D01*
X1294210Y32233D01*
X1294173Y32347D01*
X1294140Y32462D01*
X1294110Y32577D01*
X1294085Y32694D01*
X1294063Y32811D01*
X1294046Y32930D01*
X1294032Y33048D01*
X1294022Y33167D01*
X1294016Y33287D01*
X1294014Y33406D01*
D11*
X314450Y35400D02*
X301750Y35400D01*
X295400Y41750D01*
X295400Y54450D02*
X301750Y60800D01*
X295400Y41750D02*
X289050Y35400D01*
X276350Y35400D01*
X270000Y41750D01*
X270000Y54450D02*
X276350Y60800D01*
X289050Y60800D01*
X295400Y54450D01*
X320800Y54450D02*
X320800Y41750D01*
X314450Y35400D01*
X320800Y54450D02*
X314450Y60800D01*
X301750Y60800D01*
X270000Y54450D02*
X270000Y41750D01*
D12*
X314536Y33495D02*
X314536Y29741D01*
X314534Y29676D01*
X314528Y29612D01*
X314518Y29548D01*
X314505Y29484D01*
X314487Y29422D01*
X314466Y29361D01*
X314442Y29301D01*
X314413Y29243D01*
X314381Y29186D01*
X314346Y29132D01*
X314308Y29080D01*
X314266Y29030D01*
X314222Y28983D01*
X314175Y28939D01*
X314125Y28897D01*
X314073Y28859D01*
X314019Y28824D01*
X313962Y28792D01*
X313904Y28763D01*
X313844Y28739D01*
X313783Y28718D01*
X313721Y28700D01*
X313657Y28687D01*
X313593Y28677D01*
X313529Y28671D01*
X313464Y28669D01*
X312927Y28669D01*
X317484Y32423D02*
X318824Y33495D01*
X318824Y28669D01*
X317484Y28669D02*
X320165Y28669D01*
D11*
X144150Y158750D02*
X131450Y158750D01*
X144150Y158750D02*
X150500Y152400D01*
X150500Y139700D02*
X144150Y133350D01*
X106050Y158750D02*
X99700Y152400D01*
X106050Y158750D02*
X118750Y158750D01*
X125100Y152400D01*
X125100Y139700D02*
X118750Y133350D01*
X106050Y133350D01*
X99700Y139700D01*
X125100Y152400D02*
X131450Y158750D01*
X125100Y139700D02*
X131450Y133350D01*
X144150Y133350D01*
X67950Y158750D02*
X55250Y158750D01*
X67950Y158750D02*
X74300Y152400D01*
X74300Y139700D02*
X67950Y133350D01*
X74300Y152400D02*
X80650Y158750D01*
X93350Y158750D01*
X99700Y152400D01*
X99700Y139700D02*
X93350Y133350D01*
X80650Y133350D01*
X74300Y139700D01*
X48900Y139700D02*
X48900Y152400D01*
X55250Y158750D01*
X48900Y139700D02*
X55250Y133350D01*
X67950Y133350D01*
X150500Y139700D02*
X150500Y152400D01*
D12*
X51144Y161727D02*
X51144Y165481D01*
X51143Y161727D02*
X51141Y161662D01*
X51135Y161598D01*
X51125Y161534D01*
X51112Y161470D01*
X51094Y161408D01*
X51073Y161347D01*
X51049Y161287D01*
X51020Y161229D01*
X50988Y161172D01*
X50953Y161118D01*
X50915Y161066D01*
X50873Y161016D01*
X50829Y160969D01*
X50782Y160925D01*
X50732Y160883D01*
X50680Y160845D01*
X50626Y160810D01*
X50569Y160778D01*
X50511Y160749D01*
X50451Y160725D01*
X50390Y160704D01*
X50328Y160686D01*
X50264Y160673D01*
X50200Y160663D01*
X50136Y160657D01*
X50071Y160655D01*
X49535Y160655D01*
X55566Y165481D02*
X55634Y165479D01*
X55701Y165473D01*
X55768Y165464D01*
X55835Y165451D01*
X55900Y165434D01*
X55965Y165413D01*
X56028Y165389D01*
X56090Y165361D01*
X56150Y165330D01*
X56208Y165296D01*
X56264Y165258D01*
X56319Y165218D01*
X56370Y165174D01*
X56419Y165127D01*
X56466Y165078D01*
X56510Y165027D01*
X56550Y164972D01*
X56588Y164916D01*
X56622Y164858D01*
X56653Y164798D01*
X56681Y164736D01*
X56705Y164673D01*
X56726Y164608D01*
X56743Y164543D01*
X56756Y164476D01*
X56765Y164409D01*
X56771Y164342D01*
X56773Y164274D01*
X55566Y165481D02*
X55488Y165479D01*
X55410Y165473D01*
X55333Y165463D01*
X55256Y165450D01*
X55180Y165432D01*
X55105Y165411D01*
X55031Y165386D01*
X54959Y165357D01*
X54888Y165325D01*
X54819Y165289D01*
X54751Y165250D01*
X54686Y165207D01*
X54623Y165161D01*
X54562Y165112D01*
X54504Y165060D01*
X54449Y165005D01*
X54396Y164948D01*
X54347Y164888D01*
X54300Y164825D01*
X54257Y164761D01*
X54217Y164694D01*
X54180Y164625D01*
X54147Y164554D01*
X54117Y164482D01*
X54091Y164409D01*
X56371Y163336D02*
X56420Y163385D01*
X56467Y163437D01*
X56510Y163492D01*
X56551Y163549D01*
X56589Y163608D01*
X56623Y163669D01*
X56654Y163732D01*
X56682Y163796D01*
X56706Y163862D01*
X56726Y163928D01*
X56743Y163996D01*
X56756Y164065D01*
X56765Y164134D01*
X56771Y164204D01*
X56773Y164274D01*
X56371Y163336D02*
X54092Y160655D01*
X56773Y160655D01*
D11*
X531550Y158750D02*
X544250Y158750D01*
X550600Y152400D01*
X550600Y139700D02*
X544250Y133350D01*
X506150Y158750D02*
X499800Y152400D01*
X506150Y158750D02*
X518850Y158750D01*
X525200Y152400D01*
X525200Y139700D02*
X518850Y133350D01*
X506150Y133350D01*
X499800Y139700D01*
X525200Y152400D02*
X531550Y158750D01*
X525200Y139700D02*
X531550Y133350D01*
X544250Y133350D01*
X468050Y158750D02*
X455350Y158750D01*
X468050Y158750D02*
X474400Y152400D01*
X474400Y139700D02*
X468050Y133350D01*
X474400Y152400D02*
X480750Y158750D01*
X493450Y158750D01*
X499800Y152400D01*
X499800Y139700D02*
X493450Y133350D01*
X480750Y133350D01*
X474400Y139700D01*
X449000Y139700D02*
X449000Y152400D01*
X455350Y158750D01*
X449000Y139700D02*
X455350Y133350D01*
X468050Y133350D01*
X550600Y139700D02*
X550600Y152400D01*
D12*
X451244Y161727D02*
X451244Y165481D01*
X451243Y161727D02*
X451241Y161662D01*
X451235Y161598D01*
X451225Y161534D01*
X451212Y161470D01*
X451194Y161408D01*
X451173Y161347D01*
X451149Y161287D01*
X451120Y161229D01*
X451088Y161172D01*
X451053Y161118D01*
X451015Y161066D01*
X450973Y161016D01*
X450929Y160969D01*
X450882Y160925D01*
X450832Y160883D01*
X450780Y160845D01*
X450726Y160810D01*
X450669Y160778D01*
X450611Y160749D01*
X450551Y160725D01*
X450490Y160704D01*
X450428Y160686D01*
X450364Y160673D01*
X450300Y160663D01*
X450236Y160657D01*
X450171Y160655D01*
X449635Y160655D01*
X454192Y160655D02*
X455532Y160655D01*
X455603Y160657D01*
X455675Y160663D01*
X455745Y160672D01*
X455815Y160685D01*
X455885Y160702D01*
X455953Y160723D01*
X456020Y160747D01*
X456086Y160775D01*
X456150Y160806D01*
X456213Y160841D01*
X456273Y160879D01*
X456332Y160920D01*
X456388Y160964D01*
X456442Y161011D01*
X456493Y161060D01*
X456541Y161113D01*
X456587Y161168D01*
X456629Y161225D01*
X456669Y161285D01*
X456705Y161346D01*
X456738Y161410D01*
X456767Y161475D01*
X456793Y161541D01*
X456816Y161609D01*
X456835Y161678D01*
X456850Y161748D01*
X456861Y161818D01*
X456869Y161889D01*
X456873Y161960D01*
X456873Y162032D01*
X456869Y162103D01*
X456861Y162174D01*
X456850Y162244D01*
X456835Y162314D01*
X456816Y162383D01*
X456793Y162451D01*
X456767Y162517D01*
X456738Y162582D01*
X456705Y162646D01*
X456669Y162707D01*
X456629Y162767D01*
X456587Y162824D01*
X456541Y162879D01*
X456493Y162932D01*
X456442Y162981D01*
X456388Y163028D01*
X456332Y163072D01*
X456273Y163113D01*
X456213Y163151D01*
X456150Y163186D01*
X456086Y163217D01*
X456020Y163245D01*
X455953Y163269D01*
X455885Y163290D01*
X455815Y163307D01*
X455745Y163320D01*
X455675Y163329D01*
X455603Y163335D01*
X455532Y163337D01*
X455800Y165481D02*
X454192Y165481D01*
X455800Y165481D02*
X455865Y165479D01*
X455929Y165473D01*
X455993Y165463D01*
X456057Y165450D01*
X456119Y165432D01*
X456180Y165411D01*
X456240Y165387D01*
X456298Y165358D01*
X456355Y165326D01*
X456409Y165291D01*
X456461Y165253D01*
X456511Y165211D01*
X456558Y165167D01*
X456602Y165120D01*
X456644Y165070D01*
X456682Y165018D01*
X456717Y164964D01*
X456749Y164907D01*
X456778Y164849D01*
X456802Y164789D01*
X456823Y164728D01*
X456841Y164666D01*
X456854Y164602D01*
X456864Y164538D01*
X456870Y164474D01*
X456872Y164409D01*
X456870Y164344D01*
X456864Y164280D01*
X456854Y164216D01*
X456841Y164152D01*
X456823Y164090D01*
X456802Y164029D01*
X456778Y163969D01*
X456749Y163911D01*
X456717Y163854D01*
X456682Y163800D01*
X456644Y163748D01*
X456602Y163698D01*
X456558Y163651D01*
X456511Y163607D01*
X456461Y163565D01*
X456409Y163527D01*
X456355Y163492D01*
X456298Y163460D01*
X456240Y163431D01*
X456180Y163407D01*
X456119Y163386D01*
X456057Y163368D01*
X455993Y163355D01*
X455929Y163345D01*
X455865Y163339D01*
X455800Y163337D01*
X455800Y163336D02*
X454728Y163336D01*
D11*
X931650Y158750D02*
X944350Y158750D01*
X950700Y152400D01*
X950700Y139700D02*
X944350Y133350D01*
X906250Y158750D02*
X899900Y152400D01*
X906250Y158750D02*
X918950Y158750D01*
X925300Y152400D01*
X925300Y139700D02*
X918950Y133350D01*
X906250Y133350D01*
X899900Y139700D01*
X925300Y152400D02*
X931650Y158750D01*
X925300Y139700D02*
X931650Y133350D01*
X944350Y133350D01*
X868150Y158750D02*
X855450Y158750D01*
X868150Y158750D02*
X874500Y152400D01*
X874500Y139700D02*
X868150Y133350D01*
X874500Y152400D02*
X880850Y158750D01*
X893550Y158750D01*
X899900Y152400D01*
X899900Y139700D02*
X893550Y133350D01*
X880850Y133350D01*
X874500Y139700D01*
X849100Y139700D02*
X849100Y152400D01*
X855450Y158750D01*
X849100Y139700D02*
X855450Y133350D01*
X868150Y133350D01*
X950700Y139700D02*
X950700Y152400D01*
D12*
X851344Y161727D02*
X851344Y165481D01*
X851343Y161727D02*
X851341Y161662D01*
X851335Y161598D01*
X851325Y161534D01*
X851312Y161470D01*
X851294Y161408D01*
X851273Y161347D01*
X851249Y161287D01*
X851220Y161229D01*
X851188Y161172D01*
X851153Y161118D01*
X851115Y161066D01*
X851073Y161016D01*
X851029Y160969D01*
X850982Y160925D01*
X850932Y160883D01*
X850880Y160845D01*
X850826Y160810D01*
X850769Y160778D01*
X850711Y160749D01*
X850651Y160725D01*
X850590Y160704D01*
X850528Y160686D01*
X850464Y160673D01*
X850400Y160663D01*
X850336Y160657D01*
X850271Y160655D01*
X849735Y160655D01*
X854292Y161727D02*
X855364Y165481D01*
X854292Y161727D02*
X856973Y161727D01*
X856168Y160655D02*
X856168Y162800D01*
D11*
X1331750Y158750D02*
X1344450Y158750D01*
X1350800Y152400D01*
X1350800Y139700D02*
X1344450Y133350D01*
X1306350Y158750D02*
X1300000Y152400D01*
X1306350Y158750D02*
X1319050Y158750D01*
X1325400Y152400D01*
X1325400Y139700D02*
X1319050Y133350D01*
X1306350Y133350D01*
X1300000Y139700D01*
X1325400Y152400D02*
X1331750Y158750D01*
X1325400Y139700D02*
X1331750Y133350D01*
X1344450Y133350D01*
X1268250Y158750D02*
X1255550Y158750D01*
X1268250Y158750D02*
X1274600Y152400D01*
X1274600Y139700D02*
X1268250Y133350D01*
X1274600Y152400D02*
X1280950Y158750D01*
X1293650Y158750D01*
X1300000Y152400D01*
X1300000Y139700D02*
X1293650Y133350D01*
X1280950Y133350D01*
X1274600Y139700D01*
X1249200Y139700D02*
X1249200Y152400D01*
X1255550Y158750D01*
X1249200Y139700D02*
X1255550Y133350D01*
X1268250Y133350D01*
X1350800Y139700D02*
X1350800Y152400D01*
D12*
X1251444Y161727D02*
X1251444Y165481D01*
X1251443Y161727D02*
X1251441Y161662D01*
X1251435Y161598D01*
X1251425Y161534D01*
X1251412Y161470D01*
X1251394Y161408D01*
X1251373Y161347D01*
X1251349Y161287D01*
X1251320Y161229D01*
X1251288Y161172D01*
X1251253Y161118D01*
X1251215Y161066D01*
X1251173Y161016D01*
X1251129Y160969D01*
X1251082Y160925D01*
X1251032Y160883D01*
X1250980Y160845D01*
X1250926Y160810D01*
X1250869Y160778D01*
X1250811Y160749D01*
X1250751Y160725D01*
X1250690Y160704D01*
X1250628Y160686D01*
X1250564Y160673D01*
X1250500Y160663D01*
X1250436Y160657D01*
X1250371Y160655D01*
X1249835Y160655D01*
X1254392Y160655D02*
X1256000Y160655D01*
X1256065Y160657D01*
X1256129Y160663D01*
X1256193Y160673D01*
X1256257Y160686D01*
X1256319Y160704D01*
X1256380Y160725D01*
X1256440Y160749D01*
X1256498Y160778D01*
X1256555Y160810D01*
X1256609Y160845D01*
X1256661Y160883D01*
X1256711Y160925D01*
X1256758Y160969D01*
X1256802Y161016D01*
X1256844Y161066D01*
X1256882Y161118D01*
X1256917Y161172D01*
X1256949Y161229D01*
X1256978Y161287D01*
X1257002Y161347D01*
X1257023Y161408D01*
X1257041Y161470D01*
X1257054Y161534D01*
X1257064Y161598D01*
X1257070Y161662D01*
X1257072Y161727D01*
X1257073Y161727D02*
X1257073Y162264D01*
X1257072Y162264D02*
X1257070Y162329D01*
X1257064Y162393D01*
X1257054Y162457D01*
X1257041Y162521D01*
X1257023Y162583D01*
X1257002Y162644D01*
X1256978Y162704D01*
X1256949Y162762D01*
X1256917Y162819D01*
X1256882Y162873D01*
X1256844Y162925D01*
X1256802Y162975D01*
X1256758Y163022D01*
X1256711Y163066D01*
X1256661Y163108D01*
X1256609Y163146D01*
X1256555Y163181D01*
X1256498Y163213D01*
X1256440Y163242D01*
X1256380Y163266D01*
X1256319Y163287D01*
X1256257Y163305D01*
X1256193Y163318D01*
X1256129Y163328D01*
X1256065Y163334D01*
X1256000Y163336D01*
X1254392Y163336D01*
X1254392Y165481D01*
X1257073Y165481D01*
M02*
