M48
;GenerationSoftware,Autodesk,EAGLE,8.7.1*%
;CreationDate,2018-05-13T19:15:01Z*%
FMAT,2
ICI,OFF
METRIC,TZ,000.000
T4C0.762
T3C1.118
T2C1.400
T1C3.000
%
G90
M71
T1
X25410Y14990
X7610Y14990
T2
X20710Y9950
X16510Y9950
X12310Y9950
X12310Y15450
X16510Y15450
X20710Y15450
T3
X24130Y29210
X26670Y29210
X24130Y39370
X26670Y39370
X24130Y50800
X26670Y50800
X6350Y29210
X8890Y29210
X6350Y49530
X8890Y49530
T4
X40640Y59690
X40640Y2540
X2540Y2540
X2540Y59690
M30