G04 EAGLE Gerber X2 export*
%TF.Part,Single*%
%TF.FileFunction,Profile,NP*%
%TF.FilePolarity,Positive*%
%TF.GenerationSoftware,Autodesk,EAGLE,8.7.1*%
%TF.CreationDate,2018-05-13T19:15:01Z*%
G75*
%MOMM*%
%FSLAX34Y34*%
%LPD*%
%AMOC8*
5,1,8,0,0,1.08239X$1,22.5*%
G01*
%ADD10C,0.254000*%


D10*
X0Y0D02*
X431600Y0D01*
X431600Y619000D01*
X0Y619000D01*
X0Y0D01*
X410210Y596650D02*
X410145Y596155D01*
X410016Y595673D01*
X409824Y595211D01*
X409575Y594779D01*
X409271Y594383D01*
X408918Y594029D01*
X408521Y593725D01*
X408089Y593476D01*
X407627Y593284D01*
X407145Y593155D01*
X406650Y593090D01*
X406150Y593090D01*
X405655Y593155D01*
X405173Y593284D01*
X404711Y593476D01*
X404279Y593725D01*
X403883Y594029D01*
X403529Y594383D01*
X403225Y594779D01*
X402976Y595211D01*
X402784Y595673D01*
X402655Y596155D01*
X402590Y596650D01*
X402590Y597150D01*
X402655Y597645D01*
X402784Y598127D01*
X402976Y598589D01*
X403225Y599021D01*
X403529Y599418D01*
X403883Y599771D01*
X404279Y600075D01*
X404711Y600324D01*
X405173Y600516D01*
X405655Y600645D01*
X406150Y600710D01*
X406650Y600710D01*
X407145Y600645D01*
X407627Y600516D01*
X408089Y600324D01*
X408521Y600075D01*
X408918Y599771D01*
X409271Y599418D01*
X409575Y599021D01*
X409824Y598589D01*
X410016Y598127D01*
X410145Y597645D01*
X410210Y597150D01*
X410210Y596650D01*
X410210Y25150D02*
X410145Y24655D01*
X410016Y24173D01*
X409824Y23711D01*
X409575Y23279D01*
X409271Y22883D01*
X408918Y22529D01*
X408521Y22225D01*
X408089Y21976D01*
X407627Y21784D01*
X407145Y21655D01*
X406650Y21590D01*
X406150Y21590D01*
X405655Y21655D01*
X405173Y21784D01*
X404711Y21976D01*
X404279Y22225D01*
X403883Y22529D01*
X403529Y22883D01*
X403225Y23279D01*
X402976Y23711D01*
X402784Y24173D01*
X402655Y24655D01*
X402590Y25150D01*
X402590Y25650D01*
X402655Y26145D01*
X402784Y26627D01*
X402976Y27089D01*
X403225Y27521D01*
X403529Y27918D01*
X403883Y28271D01*
X404279Y28575D01*
X404711Y28824D01*
X405173Y29016D01*
X405655Y29145D01*
X406150Y29210D01*
X406650Y29210D01*
X407145Y29145D01*
X407627Y29016D01*
X408089Y28824D01*
X408521Y28575D01*
X408918Y28271D01*
X409271Y27918D01*
X409575Y27521D01*
X409824Y27089D01*
X410016Y26627D01*
X410145Y26145D01*
X410210Y25650D01*
X410210Y25150D01*
X29210Y25150D02*
X29145Y24655D01*
X29016Y24173D01*
X28824Y23711D01*
X28575Y23279D01*
X28271Y22883D01*
X27918Y22529D01*
X27521Y22225D01*
X27089Y21976D01*
X26627Y21784D01*
X26145Y21655D01*
X25650Y21590D01*
X25150Y21590D01*
X24655Y21655D01*
X24173Y21784D01*
X23711Y21976D01*
X23279Y22225D01*
X22883Y22529D01*
X22529Y22883D01*
X22225Y23279D01*
X21976Y23711D01*
X21784Y24173D01*
X21655Y24655D01*
X21590Y25150D01*
X21590Y25650D01*
X21655Y26145D01*
X21784Y26627D01*
X21976Y27089D01*
X22225Y27521D01*
X22529Y27918D01*
X22883Y28271D01*
X23279Y28575D01*
X23711Y28824D01*
X24173Y29016D01*
X24655Y29145D01*
X25150Y29210D01*
X25650Y29210D01*
X26145Y29145D01*
X26627Y29016D01*
X27089Y28824D01*
X27521Y28575D01*
X27918Y28271D01*
X28271Y27918D01*
X28575Y27521D01*
X28824Y27089D01*
X29016Y26627D01*
X29145Y26145D01*
X29210Y25650D01*
X29210Y25150D01*
X29210Y596650D02*
X29145Y596155D01*
X29016Y595673D01*
X28824Y595211D01*
X28575Y594779D01*
X28271Y594383D01*
X27918Y594029D01*
X27521Y593725D01*
X27089Y593476D01*
X26627Y593284D01*
X26145Y593155D01*
X25650Y593090D01*
X25150Y593090D01*
X24655Y593155D01*
X24173Y593284D01*
X23711Y593476D01*
X23279Y593725D01*
X22883Y594029D01*
X22529Y594383D01*
X22225Y594779D01*
X21976Y595211D01*
X21784Y595673D01*
X21655Y596155D01*
X21590Y596650D01*
X21590Y597150D01*
X21655Y597645D01*
X21784Y598127D01*
X21976Y598589D01*
X22225Y599021D01*
X22529Y599418D01*
X22883Y599771D01*
X23279Y600075D01*
X23711Y600324D01*
X24173Y600516D01*
X24655Y600645D01*
X25150Y600710D01*
X25650Y600710D01*
X26145Y600645D01*
X26627Y600516D01*
X27089Y600324D01*
X27521Y600075D01*
X27918Y599771D01*
X28271Y599418D01*
X28575Y599021D01*
X28824Y598589D01*
X29016Y598127D01*
X29145Y597645D01*
X29210Y597150D01*
X29210Y596650D01*
X410210Y596650D02*
X410145Y596155D01*
X410016Y595673D01*
X409824Y595211D01*
X409575Y594779D01*
X409271Y594383D01*
X408918Y594029D01*
X408521Y593725D01*
X408089Y593476D01*
X407627Y593284D01*
X407145Y593155D01*
X406650Y593090D01*
X406150Y593090D01*
X405655Y593155D01*
X405173Y593284D01*
X404711Y593476D01*
X404279Y593725D01*
X403883Y594029D01*
X403529Y594383D01*
X403225Y594779D01*
X402976Y595211D01*
X402784Y595673D01*
X402655Y596155D01*
X402590Y596650D01*
X402590Y597150D01*
X402655Y597645D01*
X402784Y598127D01*
X402976Y598589D01*
X403225Y599021D01*
X403529Y599418D01*
X403883Y599771D01*
X404279Y600075D01*
X404711Y600324D01*
X405173Y600516D01*
X405655Y600645D01*
X406150Y600710D01*
X406650Y600710D01*
X407145Y600645D01*
X407627Y600516D01*
X408089Y600324D01*
X408521Y600075D01*
X408918Y599771D01*
X409271Y599418D01*
X409575Y599021D01*
X409824Y598589D01*
X410016Y598127D01*
X410145Y597645D01*
X410210Y597150D01*
X410210Y596650D01*
X410210Y25150D02*
X410145Y24655D01*
X410016Y24173D01*
X409824Y23711D01*
X409575Y23279D01*
X409271Y22883D01*
X408918Y22529D01*
X408521Y22225D01*
X408089Y21976D01*
X407627Y21784D01*
X407145Y21655D01*
X406650Y21590D01*
X406150Y21590D01*
X405655Y21655D01*
X405173Y21784D01*
X404711Y21976D01*
X404279Y22225D01*
X403883Y22529D01*
X403529Y22883D01*
X403225Y23279D01*
X402976Y23711D01*
X402784Y24173D01*
X402655Y24655D01*
X402590Y25150D01*
X402590Y25650D01*
X402655Y26145D01*
X402784Y26627D01*
X402976Y27089D01*
X403225Y27521D01*
X403529Y27918D01*
X403883Y28271D01*
X404279Y28575D01*
X404711Y28824D01*
X405173Y29016D01*
X405655Y29145D01*
X406150Y29210D01*
X406650Y29210D01*
X407145Y29145D01*
X407627Y29016D01*
X408089Y28824D01*
X408521Y28575D01*
X408918Y28271D01*
X409271Y27918D01*
X409575Y27521D01*
X409824Y27089D01*
X410016Y26627D01*
X410145Y26145D01*
X410210Y25650D01*
X410210Y25150D01*
X29210Y25150D02*
X29145Y24655D01*
X29016Y24173D01*
X28824Y23711D01*
X28575Y23279D01*
X28271Y22883D01*
X27918Y22529D01*
X27521Y22225D01*
X27089Y21976D01*
X26627Y21784D01*
X26145Y21655D01*
X25650Y21590D01*
X25150Y21590D01*
X24655Y21655D01*
X24173Y21784D01*
X23711Y21976D01*
X23279Y22225D01*
X22883Y22529D01*
X22529Y22883D01*
X22225Y23279D01*
X21976Y23711D01*
X21784Y24173D01*
X21655Y24655D01*
X21590Y25150D01*
X21590Y25650D01*
X21655Y26145D01*
X21784Y26627D01*
X21976Y27089D01*
X22225Y27521D01*
X22529Y27918D01*
X22883Y28271D01*
X23279Y28575D01*
X23711Y28824D01*
X24173Y29016D01*
X24655Y29145D01*
X25150Y29210D01*
X25650Y29210D01*
X26145Y29145D01*
X26627Y29016D01*
X27089Y28824D01*
X27521Y28575D01*
X27918Y28271D01*
X28271Y27918D01*
X28575Y27521D01*
X28824Y27089D01*
X29016Y26627D01*
X29145Y26145D01*
X29210Y25650D01*
X29210Y25150D01*
X29210Y596650D02*
X29145Y596155D01*
X29016Y595673D01*
X28824Y595211D01*
X28575Y594779D01*
X28271Y594383D01*
X27918Y594029D01*
X27521Y593725D01*
X27089Y593476D01*
X26627Y593284D01*
X26145Y593155D01*
X25650Y593090D01*
X25150Y593090D01*
X24655Y593155D01*
X24173Y593284D01*
X23711Y593476D01*
X23279Y593725D01*
X22883Y594029D01*
X22529Y594383D01*
X22225Y594779D01*
X21976Y595211D01*
X21784Y595673D01*
X21655Y596155D01*
X21590Y596650D01*
X21590Y597150D01*
X21655Y597645D01*
X21784Y598127D01*
X21976Y598589D01*
X22225Y599021D01*
X22529Y599418D01*
X22883Y599771D01*
X23279Y600075D01*
X23711Y600324D01*
X24173Y600516D01*
X24655Y600645D01*
X25150Y600710D01*
X25650Y600710D01*
X26145Y600645D01*
X26627Y600516D01*
X27089Y600324D01*
X27521Y600075D01*
X27918Y599771D01*
X28271Y599418D01*
X28575Y599021D01*
X28824Y598589D01*
X29016Y598127D01*
X29145Y597645D01*
X29210Y597150D01*
X29210Y596650D01*
X269100Y149364D02*
X269024Y148296D01*
X268871Y147235D01*
X268643Y146188D01*
X268341Y145160D01*
X267967Y144156D01*
X267522Y143181D01*
X267008Y142241D01*
X266429Y141340D01*
X265787Y140482D01*
X265085Y139672D01*
X264328Y138915D01*
X263518Y138213D01*
X262660Y137571D01*
X261759Y136992D01*
X260819Y136478D01*
X259844Y136033D01*
X258840Y135659D01*
X257812Y135357D01*
X256765Y135129D01*
X255704Y134976D01*
X254636Y134900D01*
X253564Y134900D01*
X252496Y134976D01*
X251435Y135129D01*
X250388Y135357D01*
X249360Y135659D01*
X248356Y136033D01*
X247381Y136478D01*
X246441Y136992D01*
X245540Y137571D01*
X244682Y138213D01*
X243872Y138915D01*
X243115Y139672D01*
X242413Y140482D01*
X241771Y141340D01*
X241192Y142241D01*
X240678Y143181D01*
X240233Y144156D01*
X239859Y145160D01*
X239557Y146188D01*
X239329Y147235D01*
X239176Y148296D01*
X239100Y149364D01*
X239100Y150436D01*
X239176Y151504D01*
X239329Y152565D01*
X239557Y153612D01*
X239859Y154640D01*
X240233Y155644D01*
X240678Y156619D01*
X241192Y157559D01*
X241771Y158460D01*
X242413Y159318D01*
X243115Y160128D01*
X243872Y160885D01*
X244682Y161587D01*
X245540Y162229D01*
X246441Y162808D01*
X247381Y163322D01*
X248356Y163767D01*
X249360Y164141D01*
X250388Y164443D01*
X251435Y164671D01*
X252496Y164824D01*
X253564Y164900D01*
X254636Y164900D01*
X255704Y164824D01*
X256765Y164671D01*
X257812Y164443D01*
X258840Y164141D01*
X259844Y163767D01*
X260819Y163322D01*
X261759Y162808D01*
X262660Y162229D01*
X263518Y161587D01*
X264328Y160885D01*
X265085Y160128D01*
X265787Y159318D01*
X266429Y158460D01*
X267008Y157559D01*
X267522Y156619D01*
X267967Y155644D01*
X268341Y154640D01*
X268643Y153612D01*
X268871Y152565D01*
X269024Y151504D01*
X269100Y150436D01*
X269100Y149364D01*
X91100Y149364D02*
X91024Y148296D01*
X90871Y147235D01*
X90643Y146188D01*
X90341Y145160D01*
X89967Y144156D01*
X89522Y143181D01*
X89008Y142241D01*
X88429Y141340D01*
X87787Y140482D01*
X87085Y139672D01*
X86328Y138915D01*
X85518Y138213D01*
X84660Y137571D01*
X83759Y136992D01*
X82819Y136478D01*
X81844Y136033D01*
X80840Y135659D01*
X79812Y135357D01*
X78765Y135129D01*
X77704Y134976D01*
X76636Y134900D01*
X75564Y134900D01*
X74496Y134976D01*
X73435Y135129D01*
X72388Y135357D01*
X71360Y135659D01*
X70356Y136033D01*
X69381Y136478D01*
X68441Y136992D01*
X67540Y137571D01*
X66682Y138213D01*
X65872Y138915D01*
X65115Y139672D01*
X64413Y140482D01*
X63771Y141340D01*
X63192Y142241D01*
X62678Y143181D01*
X62233Y144156D01*
X61859Y145160D01*
X61557Y146188D01*
X61329Y147235D01*
X61176Y148296D01*
X61100Y149364D01*
X61100Y150436D01*
X61176Y151504D01*
X61329Y152565D01*
X61557Y153612D01*
X61859Y154640D01*
X62233Y155644D01*
X62678Y156619D01*
X63192Y157559D01*
X63771Y158460D01*
X64413Y159318D01*
X65115Y160128D01*
X65872Y160885D01*
X66682Y161587D01*
X67540Y162229D01*
X68441Y162808D01*
X69381Y163322D01*
X70356Y163767D01*
X71360Y164141D01*
X72388Y164443D01*
X73435Y164671D01*
X74496Y164824D01*
X75564Y164900D01*
X76636Y164900D01*
X77704Y164824D01*
X78765Y164671D01*
X79812Y164443D01*
X80840Y164141D01*
X81844Y163767D01*
X82819Y163322D01*
X83759Y162808D01*
X84660Y162229D01*
X85518Y161587D01*
X86328Y160885D01*
X87085Y160128D01*
X87787Y159318D01*
X88429Y158460D01*
X89008Y157559D01*
X89522Y156619D01*
X89967Y155644D01*
X90341Y154640D01*
X90643Y153612D01*
X90871Y152565D01*
X91024Y151504D01*
X91100Y150436D01*
X91100Y149364D01*
M02*
