G04 EAGLE Gerber X2 export*
%TF.Part,Single*%
%TF.FileFunction,Legend,Top,1*%
%TF.FilePolarity,Positive*%
%TF.GenerationSoftware,Autodesk,EAGLE,8.7.1*%
%TF.CreationDate,2018-05-13T19:15:01Z*%
G75*
%MOMM*%
%FSLAX34Y34*%
%LPD*%
%AMOC8*
5,1,8,0,0,1.08239X$1,22.5*%
G01*
%ADD10C,0.152400*%
%ADD11C,0.127000*%
%ADD12C,0.254000*%
%ADD13C,0.101600*%


D10*
X254762Y563118D02*
X258374Y546862D01*
X261987Y557699D01*
X265599Y546862D01*
X269212Y563118D01*
X277757Y546862D02*
X282273Y546862D01*
X277757Y546862D02*
X277656Y546864D01*
X277555Y546870D01*
X277454Y546879D01*
X277353Y546892D01*
X277253Y546909D01*
X277154Y546930D01*
X277056Y546954D01*
X276959Y546982D01*
X276862Y547014D01*
X276767Y547049D01*
X276674Y547088D01*
X276582Y547130D01*
X276491Y547176D01*
X276403Y547225D01*
X276316Y547277D01*
X276231Y547333D01*
X276148Y547391D01*
X276068Y547453D01*
X275990Y547518D01*
X275914Y547585D01*
X275841Y547655D01*
X275771Y547728D01*
X275704Y547804D01*
X275639Y547882D01*
X275577Y547962D01*
X275519Y548045D01*
X275463Y548130D01*
X275411Y548217D01*
X275362Y548305D01*
X275316Y548396D01*
X275274Y548488D01*
X275235Y548581D01*
X275200Y548676D01*
X275168Y548773D01*
X275140Y548870D01*
X275116Y548968D01*
X275095Y549067D01*
X275078Y549167D01*
X275065Y549268D01*
X275056Y549369D01*
X275050Y549470D01*
X275048Y549571D01*
X275048Y554087D01*
X275050Y554206D01*
X275056Y554326D01*
X275066Y554445D01*
X275080Y554563D01*
X275097Y554682D01*
X275119Y554799D01*
X275144Y554916D01*
X275174Y555031D01*
X275207Y555146D01*
X275244Y555260D01*
X275284Y555372D01*
X275329Y555483D01*
X275377Y555592D01*
X275428Y555700D01*
X275483Y555806D01*
X275542Y555910D01*
X275604Y556012D01*
X275669Y556112D01*
X275738Y556210D01*
X275810Y556306D01*
X275885Y556399D01*
X275962Y556489D01*
X276043Y556577D01*
X276127Y556662D01*
X276214Y556744D01*
X276303Y556824D01*
X276395Y556900D01*
X276489Y556974D01*
X276586Y557044D01*
X276684Y557111D01*
X276785Y557175D01*
X276889Y557235D01*
X276994Y557292D01*
X277101Y557345D01*
X277209Y557395D01*
X277319Y557441D01*
X277431Y557483D01*
X277544Y557522D01*
X277658Y557557D01*
X277773Y557588D01*
X277890Y557616D01*
X278007Y557639D01*
X278124Y557659D01*
X278243Y557675D01*
X278362Y557687D01*
X278481Y557695D01*
X278600Y557699D01*
X278720Y557699D01*
X278839Y557695D01*
X278958Y557687D01*
X279077Y557675D01*
X279196Y557659D01*
X279313Y557639D01*
X279430Y557616D01*
X279547Y557588D01*
X279662Y557557D01*
X279776Y557522D01*
X279889Y557483D01*
X280001Y557441D01*
X280111Y557395D01*
X280219Y557345D01*
X280326Y557292D01*
X280431Y557235D01*
X280535Y557175D01*
X280636Y557111D01*
X280734Y557044D01*
X280831Y556974D01*
X280925Y556900D01*
X281017Y556824D01*
X281106Y556744D01*
X281193Y556662D01*
X281277Y556577D01*
X281358Y556489D01*
X281435Y556399D01*
X281510Y556306D01*
X281582Y556210D01*
X281651Y556112D01*
X281716Y556012D01*
X281778Y555910D01*
X281837Y555806D01*
X281892Y555700D01*
X281943Y555592D01*
X281991Y555483D01*
X282036Y555372D01*
X282076Y555260D01*
X282113Y555146D01*
X282146Y555031D01*
X282176Y554916D01*
X282201Y554799D01*
X282223Y554682D01*
X282240Y554563D01*
X282254Y554445D01*
X282264Y554326D01*
X282270Y554206D01*
X282272Y554087D01*
X282273Y554087D02*
X282273Y552281D01*
X275048Y552281D01*
X289116Y546862D02*
X289116Y557699D01*
X293631Y557699D01*
X293735Y557697D01*
X293838Y557691D01*
X293942Y557681D01*
X294045Y557667D01*
X294147Y557649D01*
X294248Y557628D01*
X294349Y557602D01*
X294448Y557573D01*
X294547Y557540D01*
X294644Y557503D01*
X294739Y557462D01*
X294833Y557418D01*
X294925Y557370D01*
X295015Y557319D01*
X295104Y557264D01*
X295190Y557206D01*
X295273Y557144D01*
X295355Y557080D01*
X295433Y557012D01*
X295509Y556942D01*
X295583Y556869D01*
X295653Y556792D01*
X295721Y556714D01*
X295785Y556632D01*
X295847Y556549D01*
X295905Y556463D01*
X295960Y556374D01*
X296011Y556284D01*
X296059Y556192D01*
X296103Y556098D01*
X296144Y556003D01*
X296181Y555906D01*
X296214Y555807D01*
X296243Y555708D01*
X296269Y555607D01*
X296290Y555506D01*
X296308Y555404D01*
X296322Y555301D01*
X296332Y555197D01*
X296338Y555094D01*
X296340Y554990D01*
X296341Y554990D02*
X296341Y546862D01*
X310336Y546862D02*
X310336Y563118D01*
X310336Y546862D02*
X305820Y546862D01*
X305719Y546864D01*
X305618Y546870D01*
X305517Y546879D01*
X305416Y546892D01*
X305316Y546909D01*
X305217Y546930D01*
X305119Y546954D01*
X305022Y546982D01*
X304925Y547014D01*
X304830Y547049D01*
X304737Y547088D01*
X304645Y547130D01*
X304554Y547176D01*
X304466Y547225D01*
X304379Y547277D01*
X304294Y547333D01*
X304211Y547391D01*
X304131Y547453D01*
X304053Y547518D01*
X303977Y547585D01*
X303904Y547655D01*
X303834Y547728D01*
X303767Y547804D01*
X303702Y547882D01*
X303640Y547962D01*
X303582Y548045D01*
X303526Y548130D01*
X303474Y548217D01*
X303425Y548305D01*
X303379Y548396D01*
X303337Y548488D01*
X303298Y548581D01*
X303263Y548676D01*
X303231Y548773D01*
X303203Y548870D01*
X303179Y548968D01*
X303158Y549067D01*
X303141Y549167D01*
X303128Y549268D01*
X303119Y549369D01*
X303113Y549470D01*
X303111Y549571D01*
X303111Y554990D01*
X303113Y555091D01*
X303119Y555192D01*
X303128Y555293D01*
X303141Y555394D01*
X303158Y555494D01*
X303179Y555593D01*
X303203Y555691D01*
X303231Y555788D01*
X303263Y555885D01*
X303298Y555980D01*
X303337Y556073D01*
X303379Y556165D01*
X303425Y556256D01*
X303474Y556345D01*
X303526Y556431D01*
X303582Y556516D01*
X303640Y556599D01*
X303702Y556679D01*
X303767Y556757D01*
X303834Y556833D01*
X303904Y556906D01*
X303977Y556976D01*
X304053Y557043D01*
X304131Y557108D01*
X304211Y557170D01*
X304294Y557228D01*
X304379Y557284D01*
X304466Y557336D01*
X304554Y557385D01*
X304645Y557431D01*
X304737Y557473D01*
X304830Y557512D01*
X304925Y557547D01*
X305022Y557579D01*
X305119Y557607D01*
X305217Y557631D01*
X305316Y557652D01*
X305416Y557669D01*
X305517Y557682D01*
X305618Y557691D01*
X305719Y557697D01*
X305820Y557699D01*
X310336Y557699D01*
X317252Y554087D02*
X317252Y550474D01*
X317252Y554087D02*
X317254Y554206D01*
X317260Y554326D01*
X317270Y554445D01*
X317284Y554563D01*
X317301Y554682D01*
X317323Y554799D01*
X317348Y554916D01*
X317378Y555031D01*
X317411Y555146D01*
X317448Y555260D01*
X317488Y555372D01*
X317533Y555483D01*
X317581Y555592D01*
X317632Y555700D01*
X317687Y555806D01*
X317746Y555910D01*
X317808Y556012D01*
X317873Y556112D01*
X317942Y556210D01*
X318014Y556306D01*
X318089Y556399D01*
X318166Y556489D01*
X318247Y556577D01*
X318331Y556662D01*
X318418Y556744D01*
X318507Y556824D01*
X318599Y556900D01*
X318693Y556974D01*
X318790Y557044D01*
X318888Y557111D01*
X318989Y557175D01*
X319093Y557235D01*
X319198Y557292D01*
X319305Y557345D01*
X319413Y557395D01*
X319523Y557441D01*
X319635Y557483D01*
X319748Y557522D01*
X319862Y557557D01*
X319977Y557588D01*
X320094Y557616D01*
X320211Y557639D01*
X320328Y557659D01*
X320447Y557675D01*
X320566Y557687D01*
X320685Y557695D01*
X320804Y557699D01*
X320924Y557699D01*
X321043Y557695D01*
X321162Y557687D01*
X321281Y557675D01*
X321400Y557659D01*
X321517Y557639D01*
X321634Y557616D01*
X321751Y557588D01*
X321866Y557557D01*
X321980Y557522D01*
X322093Y557483D01*
X322205Y557441D01*
X322315Y557395D01*
X322423Y557345D01*
X322530Y557292D01*
X322635Y557235D01*
X322739Y557175D01*
X322840Y557111D01*
X322938Y557044D01*
X323035Y556974D01*
X323129Y556900D01*
X323221Y556824D01*
X323310Y556744D01*
X323397Y556662D01*
X323481Y556577D01*
X323562Y556489D01*
X323639Y556399D01*
X323714Y556306D01*
X323786Y556210D01*
X323855Y556112D01*
X323920Y556012D01*
X323982Y555910D01*
X324041Y555806D01*
X324096Y555700D01*
X324147Y555592D01*
X324195Y555483D01*
X324240Y555372D01*
X324280Y555260D01*
X324317Y555146D01*
X324350Y555031D01*
X324380Y554916D01*
X324405Y554799D01*
X324427Y554682D01*
X324444Y554563D01*
X324458Y554445D01*
X324468Y554326D01*
X324474Y554206D01*
X324476Y554087D01*
X324477Y554087D02*
X324477Y550474D01*
X324476Y550474D02*
X324474Y550355D01*
X324468Y550235D01*
X324458Y550116D01*
X324444Y549998D01*
X324427Y549879D01*
X324405Y549762D01*
X324380Y549645D01*
X324350Y549530D01*
X324317Y549415D01*
X324280Y549301D01*
X324240Y549189D01*
X324195Y549078D01*
X324147Y548969D01*
X324096Y548861D01*
X324041Y548755D01*
X323982Y548651D01*
X323920Y548549D01*
X323855Y548449D01*
X323786Y548351D01*
X323714Y548255D01*
X323639Y548162D01*
X323562Y548072D01*
X323481Y547984D01*
X323397Y547899D01*
X323310Y547817D01*
X323221Y547737D01*
X323129Y547661D01*
X323035Y547587D01*
X322938Y547517D01*
X322840Y547450D01*
X322739Y547386D01*
X322635Y547326D01*
X322530Y547269D01*
X322423Y547216D01*
X322315Y547166D01*
X322205Y547120D01*
X322093Y547078D01*
X321980Y547039D01*
X321866Y547004D01*
X321751Y546973D01*
X321634Y546945D01*
X321517Y546922D01*
X321400Y546902D01*
X321281Y546886D01*
X321162Y546874D01*
X321043Y546866D01*
X320924Y546862D01*
X320804Y546862D01*
X320685Y546866D01*
X320566Y546874D01*
X320447Y546886D01*
X320328Y546902D01*
X320211Y546922D01*
X320094Y546945D01*
X319977Y546973D01*
X319862Y547004D01*
X319748Y547039D01*
X319635Y547078D01*
X319523Y547120D01*
X319413Y547166D01*
X319305Y547216D01*
X319198Y547269D01*
X319093Y547326D01*
X318989Y547386D01*
X318888Y547450D01*
X318790Y547517D01*
X318693Y547587D01*
X318599Y547661D01*
X318507Y547737D01*
X318418Y547817D01*
X318331Y547899D01*
X318247Y547984D01*
X318166Y548072D01*
X318089Y548162D01*
X318014Y548255D01*
X317942Y548351D01*
X317873Y548449D01*
X317808Y548549D01*
X317746Y548651D01*
X317687Y548755D01*
X317632Y548861D01*
X317581Y548969D01*
X317533Y549078D01*
X317488Y549189D01*
X317448Y549301D01*
X317411Y549415D01*
X317378Y549530D01*
X317348Y549645D01*
X317323Y549762D01*
X317301Y549879D01*
X317284Y549998D01*
X317270Y550116D01*
X317260Y550235D01*
X317254Y550355D01*
X317252Y550474D01*
X331405Y546862D02*
X331405Y557699D01*
X336824Y557699D01*
X336824Y555893D01*
X350043Y560409D02*
X352752Y560409D01*
X350043Y560408D02*
X349939Y560406D01*
X349836Y560400D01*
X349732Y560390D01*
X349629Y560376D01*
X349527Y560358D01*
X349426Y560337D01*
X349325Y560311D01*
X349226Y560282D01*
X349127Y560249D01*
X349030Y560212D01*
X348935Y560171D01*
X348841Y560127D01*
X348749Y560079D01*
X348659Y560028D01*
X348570Y559973D01*
X348484Y559915D01*
X348401Y559853D01*
X348319Y559789D01*
X348241Y559721D01*
X348165Y559651D01*
X348091Y559578D01*
X348021Y559501D01*
X347953Y559423D01*
X347889Y559341D01*
X347827Y559258D01*
X347769Y559172D01*
X347714Y559083D01*
X347663Y558993D01*
X347615Y558901D01*
X347571Y558807D01*
X347530Y558712D01*
X347493Y558615D01*
X347460Y558516D01*
X347431Y558417D01*
X347405Y558316D01*
X347384Y558215D01*
X347366Y558113D01*
X347352Y558010D01*
X347342Y557906D01*
X347336Y557803D01*
X347334Y557699D01*
X347333Y557699D02*
X347333Y552281D01*
X347334Y552281D02*
X347336Y552178D01*
X347342Y552076D01*
X347351Y551974D01*
X347365Y551872D01*
X347382Y551771D01*
X347404Y551671D01*
X347429Y551572D01*
X347457Y551473D01*
X347490Y551376D01*
X347526Y551280D01*
X347565Y551185D01*
X347609Y551092D01*
X347655Y551001D01*
X347706Y550912D01*
X347759Y550824D01*
X347816Y550739D01*
X347876Y550656D01*
X347939Y550575D01*
X348005Y550496D01*
X348074Y550421D01*
X348146Y550347D01*
X348220Y550277D01*
X348297Y550209D01*
X348377Y550145D01*
X348459Y550083D01*
X348543Y550025D01*
X348630Y549970D01*
X348718Y549918D01*
X348809Y549870D01*
X348901Y549825D01*
X348994Y549783D01*
X349090Y549745D01*
X349186Y549711D01*
X349284Y549680D01*
X349383Y549654D01*
X349483Y549630D01*
X349584Y549611D01*
X349685Y549596D01*
X349787Y549584D01*
X349889Y549576D01*
X349992Y549572D01*
X350094Y549572D01*
X350197Y549576D01*
X350299Y549584D01*
X350401Y549596D01*
X350502Y549611D01*
X350603Y549630D01*
X350703Y549654D01*
X350802Y549680D01*
X350900Y549711D01*
X350996Y549745D01*
X351092Y549783D01*
X351185Y549825D01*
X351277Y549870D01*
X351368Y549918D01*
X351456Y549970D01*
X351543Y550025D01*
X351627Y550083D01*
X351709Y550145D01*
X351789Y550209D01*
X351866Y550277D01*
X351940Y550347D01*
X352012Y550421D01*
X352081Y550496D01*
X352147Y550575D01*
X352210Y550656D01*
X352270Y550739D01*
X352327Y550824D01*
X352380Y550912D01*
X352431Y551001D01*
X352477Y551092D01*
X352521Y551185D01*
X352560Y551280D01*
X352596Y551376D01*
X352629Y551473D01*
X352657Y551572D01*
X352682Y551671D01*
X352704Y551771D01*
X352721Y551872D01*
X352735Y551974D01*
X352744Y552076D01*
X352750Y552178D01*
X352752Y552281D01*
X352752Y551829D02*
X352752Y560409D01*
X352752Y551829D02*
X352754Y551736D01*
X352760Y551643D01*
X352769Y551550D01*
X352783Y551457D01*
X352800Y551366D01*
X352821Y551275D01*
X352846Y551185D01*
X352874Y551096D01*
X352906Y551008D01*
X352942Y550922D01*
X352981Y550837D01*
X353024Y550754D01*
X353070Y550673D01*
X353120Y550594D01*
X353172Y550517D01*
X353228Y550442D01*
X353287Y550370D01*
X353349Y550300D01*
X353413Y550232D01*
X353481Y550168D01*
X353551Y550106D01*
X353623Y550047D01*
X353698Y549991D01*
X353775Y549939D01*
X353854Y549889D01*
X353935Y549843D01*
X354018Y549800D01*
X354103Y549761D01*
X354189Y549725D01*
X354277Y549693D01*
X354366Y549665D01*
X354456Y549640D01*
X354547Y549619D01*
X354638Y549602D01*
X354731Y549588D01*
X354824Y549579D01*
X354917Y549573D01*
X355010Y549571D01*
X355103Y549573D01*
X355196Y549579D01*
X355289Y549588D01*
X355382Y549602D01*
X355473Y549619D01*
X355564Y549640D01*
X355654Y549665D01*
X355743Y549693D01*
X355831Y549725D01*
X355917Y549761D01*
X356002Y549800D01*
X356085Y549843D01*
X356166Y549889D01*
X356245Y549939D01*
X356322Y549991D01*
X356397Y550047D01*
X356469Y550106D01*
X356539Y550168D01*
X356607Y550232D01*
X356671Y550300D01*
X356733Y550370D01*
X356792Y550442D01*
X356848Y550517D01*
X356900Y550594D01*
X356950Y550673D01*
X356996Y550754D01*
X357039Y550837D01*
X357078Y550922D01*
X357114Y551008D01*
X357146Y551096D01*
X357174Y551185D01*
X357199Y551275D01*
X357220Y551366D01*
X357237Y551457D01*
X357251Y551550D01*
X357260Y551643D01*
X357266Y551736D01*
X357268Y551829D01*
X357268Y558602D01*
X357266Y558778D01*
X357259Y558954D01*
X357249Y559129D01*
X357234Y559305D01*
X357215Y559480D01*
X357191Y559654D01*
X357163Y559828D01*
X357131Y560001D01*
X357095Y560173D01*
X357055Y560344D01*
X357010Y560514D01*
X356962Y560684D01*
X356909Y560851D01*
X356852Y561018D01*
X356791Y561183D01*
X356726Y561347D01*
X356658Y561508D01*
X356585Y561669D01*
X356508Y561827D01*
X356428Y561984D01*
X356344Y562138D01*
X356256Y562290D01*
X356164Y562441D01*
X356069Y562589D01*
X355970Y562734D01*
X355867Y562877D01*
X355762Y563018D01*
X355652Y563156D01*
X355540Y563291D01*
X355424Y563423D01*
X355305Y563553D01*
X355183Y563680D01*
X355058Y563803D01*
X354930Y563924D01*
X354798Y564041D01*
X354665Y564155D01*
X354528Y564266D01*
X354389Y564374D01*
X354247Y564478D01*
X354103Y564579D01*
X353956Y564676D01*
X353807Y564769D01*
X353656Y564859D01*
X353502Y564945D01*
X353347Y565027D01*
X353189Y565106D01*
X353030Y565181D01*
X352869Y565252D01*
X352706Y565318D01*
X352542Y565381D01*
X352376Y565440D01*
X352209Y565495D01*
X352040Y565545D01*
X351870Y565592D01*
X351700Y565634D01*
X351528Y565673D01*
X351355Y565707D01*
X351182Y565737D01*
X351008Y565762D01*
X350833Y565784D01*
X350658Y565801D01*
X350483Y565814D01*
X350307Y565822D01*
X350131Y565826D01*
X349955Y565826D01*
X349779Y565822D01*
X349603Y565814D01*
X349428Y565801D01*
X349253Y565784D01*
X349078Y565762D01*
X348904Y565737D01*
X348731Y565707D01*
X348558Y565673D01*
X348386Y565634D01*
X348216Y565592D01*
X348046Y565545D01*
X347877Y565495D01*
X347710Y565440D01*
X347544Y565381D01*
X347380Y565318D01*
X347217Y565252D01*
X347056Y565181D01*
X346897Y565106D01*
X346739Y565027D01*
X346584Y564945D01*
X346431Y564859D01*
X346279Y564769D01*
X346130Y564676D01*
X345983Y564579D01*
X345839Y564478D01*
X345697Y564374D01*
X345558Y564266D01*
X345421Y564155D01*
X345288Y564041D01*
X345156Y563924D01*
X345028Y563803D01*
X344903Y563680D01*
X344781Y563553D01*
X344662Y563423D01*
X344546Y563291D01*
X344434Y563156D01*
X344324Y563018D01*
X344219Y562877D01*
X344116Y562734D01*
X344017Y562589D01*
X343922Y562441D01*
X343830Y562290D01*
X343742Y562138D01*
X343658Y561984D01*
X343578Y561827D01*
X343501Y561669D01*
X343428Y561508D01*
X343360Y561347D01*
X343295Y561183D01*
X343234Y561018D01*
X343177Y560851D01*
X343124Y560684D01*
X343076Y560514D01*
X343031Y560344D01*
X342991Y560173D01*
X342955Y560001D01*
X342923Y559828D01*
X342895Y559654D01*
X342871Y559480D01*
X342852Y559305D01*
X342837Y559129D01*
X342827Y558954D01*
X342820Y558778D01*
X342818Y558602D01*
X342818Y550926D01*
X342820Y550762D01*
X342826Y550597D01*
X342836Y550433D01*
X342850Y550269D01*
X342868Y550106D01*
X342890Y549943D01*
X342915Y549780D01*
X342945Y549619D01*
X342979Y549458D01*
X343016Y549298D01*
X343058Y549138D01*
X343103Y548980D01*
X343152Y548823D01*
X343205Y548668D01*
X343261Y548513D01*
X343322Y548360D01*
X343386Y548209D01*
X343453Y548059D01*
X343524Y547911D01*
X343599Y547764D01*
X343678Y547620D01*
X343759Y547477D01*
X343845Y547336D01*
X343933Y547198D01*
X344025Y547061D01*
X344121Y546927D01*
X344219Y546796D01*
X344321Y546666D01*
X344425Y546540D01*
X344533Y546415D01*
X344644Y546294D01*
X344758Y546175D01*
X344874Y546059D01*
X344993Y545946D01*
X345115Y545835D01*
X345240Y545728D01*
X345367Y545624D01*
X345497Y545523D01*
X345629Y545425D01*
X345763Y545330D01*
X345900Y545238D01*
X346039Y545150D01*
X346180Y545066D01*
X346323Y544984D01*
X346468Y544907D01*
X346614Y544832D01*
X346763Y544762D01*
X346913Y544694D01*
X347065Y544631D01*
X347218Y544571D01*
X347372Y544515D01*
X347528Y544463D01*
X347686Y544415D01*
X347844Y544370D01*
X348003Y544329D01*
X348163Y544292D01*
X348324Y544259D01*
X348486Y544230D01*
X348649Y544205D01*
X348812Y544184D01*
X348975Y544166D01*
X349139Y544153D01*
X369773Y563118D02*
X369898Y563116D01*
X370023Y563110D01*
X370148Y563101D01*
X370272Y563087D01*
X370396Y563070D01*
X370520Y563049D01*
X370642Y563024D01*
X370764Y562995D01*
X370885Y562963D01*
X371005Y562927D01*
X371124Y562887D01*
X371241Y562844D01*
X371357Y562797D01*
X371472Y562746D01*
X371584Y562692D01*
X371696Y562634D01*
X371805Y562574D01*
X371912Y562509D01*
X372018Y562442D01*
X372121Y562371D01*
X372222Y562297D01*
X372321Y562220D01*
X372417Y562140D01*
X372511Y562057D01*
X372602Y561972D01*
X372691Y561883D01*
X372776Y561792D01*
X372859Y561698D01*
X372939Y561602D01*
X373016Y561503D01*
X373090Y561402D01*
X373161Y561299D01*
X373228Y561193D01*
X373293Y561086D01*
X373353Y560977D01*
X373411Y560865D01*
X373465Y560753D01*
X373516Y560638D01*
X373563Y560522D01*
X373606Y560405D01*
X373646Y560286D01*
X373682Y560166D01*
X373714Y560045D01*
X373743Y559923D01*
X373768Y559801D01*
X373789Y559677D01*
X373806Y559553D01*
X373820Y559429D01*
X373829Y559304D01*
X373835Y559179D01*
X373837Y559054D01*
X369773Y563118D02*
X369630Y563116D01*
X369488Y563110D01*
X369345Y563100D01*
X369203Y563087D01*
X369062Y563069D01*
X368920Y563048D01*
X368780Y563023D01*
X368640Y562994D01*
X368501Y562961D01*
X368363Y562924D01*
X368226Y562884D01*
X368091Y562840D01*
X367956Y562792D01*
X367823Y562740D01*
X367691Y562685D01*
X367561Y562626D01*
X367433Y562564D01*
X367306Y562498D01*
X367181Y562429D01*
X367058Y562357D01*
X366938Y562281D01*
X366819Y562202D01*
X366702Y562119D01*
X366588Y562034D01*
X366476Y561945D01*
X366367Y561854D01*
X366260Y561759D01*
X366155Y561662D01*
X366054Y561561D01*
X365955Y561458D01*
X365859Y561353D01*
X365766Y561244D01*
X365676Y561133D01*
X365589Y561020D01*
X365505Y560905D01*
X365425Y560787D01*
X365347Y560667D01*
X365273Y560545D01*
X365203Y560421D01*
X365135Y560295D01*
X365072Y560167D01*
X365011Y560038D01*
X364954Y559907D01*
X364901Y559775D01*
X364852Y559641D01*
X364806Y559506D01*
X372482Y555893D02*
X372576Y555985D01*
X372666Y556079D01*
X372754Y556176D01*
X372839Y556276D01*
X372921Y556378D01*
X373000Y556483D01*
X373075Y556590D01*
X373147Y556699D01*
X373216Y556810D01*
X373282Y556924D01*
X373344Y557039D01*
X373403Y557156D01*
X373458Y557275D01*
X373509Y557395D01*
X373557Y557517D01*
X373602Y557640D01*
X373642Y557764D01*
X373679Y557890D01*
X373712Y558017D01*
X373741Y558144D01*
X373767Y558273D01*
X373788Y558402D01*
X373806Y558532D01*
X373819Y558662D01*
X373829Y558792D01*
X373835Y558923D01*
X373837Y559054D01*
X372482Y555893D02*
X364806Y546862D01*
X373837Y546862D01*
X380437Y554990D02*
X380441Y555310D01*
X380452Y555629D01*
X380471Y555949D01*
X380498Y556267D01*
X380532Y556585D01*
X380574Y556902D01*
X380624Y557218D01*
X380681Y557533D01*
X380745Y557846D01*
X380817Y558158D01*
X380896Y558468D01*
X380983Y558775D01*
X381077Y559081D01*
X381178Y559384D01*
X381287Y559685D01*
X381402Y559983D01*
X381525Y560279D01*
X381655Y560571D01*
X381792Y560860D01*
X381791Y560861D02*
X381830Y560969D01*
X381873Y561076D01*
X381919Y561181D01*
X381970Y561285D01*
X382023Y561387D01*
X382080Y561487D01*
X382141Y561585D01*
X382205Y561680D01*
X382272Y561774D01*
X382343Y561865D01*
X382416Y561954D01*
X382493Y562040D01*
X382572Y562123D01*
X382654Y562204D01*
X382739Y562282D01*
X382827Y562356D01*
X382917Y562428D01*
X383009Y562496D01*
X383104Y562562D01*
X383201Y562624D01*
X383300Y562682D01*
X383402Y562738D01*
X383504Y562789D01*
X383609Y562837D01*
X383715Y562882D01*
X383823Y562923D01*
X383932Y562960D01*
X384042Y562993D01*
X384154Y563022D01*
X384266Y563048D01*
X384379Y563070D01*
X384493Y563087D01*
X384607Y563101D01*
X384722Y563111D01*
X384837Y563117D01*
X384952Y563119D01*
X384952Y563118D02*
X385067Y563116D01*
X385182Y563110D01*
X385297Y563100D01*
X385411Y563086D01*
X385525Y563069D01*
X385638Y563047D01*
X385750Y563021D01*
X385862Y562992D01*
X385972Y562959D01*
X386081Y562922D01*
X386189Y562881D01*
X386295Y562836D01*
X386400Y562788D01*
X386502Y562737D01*
X386603Y562681D01*
X386703Y562623D01*
X386800Y562561D01*
X386894Y562496D01*
X386987Y562427D01*
X387077Y562355D01*
X387165Y562281D01*
X387250Y562203D01*
X387332Y562122D01*
X387411Y562039D01*
X387488Y561953D01*
X387561Y561864D01*
X387632Y561773D01*
X387699Y561679D01*
X387763Y561584D01*
X387824Y561486D01*
X387881Y561386D01*
X387934Y561284D01*
X387985Y561180D01*
X388031Y561075D01*
X388074Y560968D01*
X388113Y560860D01*
X388250Y560571D01*
X388380Y560279D01*
X388503Y559983D01*
X388618Y559685D01*
X388727Y559384D01*
X388828Y559081D01*
X388922Y558775D01*
X389009Y558468D01*
X389088Y558158D01*
X389160Y557846D01*
X389224Y557533D01*
X389281Y557218D01*
X389331Y556902D01*
X389373Y556585D01*
X389407Y556267D01*
X389434Y555949D01*
X389453Y555629D01*
X389464Y555310D01*
X389468Y554990D01*
X380437Y554990D02*
X380441Y554670D01*
X380452Y554351D01*
X380471Y554031D01*
X380498Y553713D01*
X380532Y553395D01*
X380574Y553078D01*
X380624Y552762D01*
X380681Y552447D01*
X380745Y552134D01*
X380817Y551822D01*
X380896Y551512D01*
X380983Y551205D01*
X381077Y550899D01*
X381178Y550596D01*
X381287Y550295D01*
X381402Y549997D01*
X381525Y549701D01*
X381655Y549409D01*
X381792Y549120D01*
X381791Y549120D02*
X381830Y549012D01*
X381873Y548905D01*
X381919Y548800D01*
X381970Y548696D01*
X382023Y548594D01*
X382080Y548494D01*
X382141Y548396D01*
X382205Y548301D01*
X382272Y548207D01*
X382343Y548116D01*
X382416Y548027D01*
X382493Y547941D01*
X382572Y547858D01*
X382654Y547777D01*
X382739Y547699D01*
X382827Y547625D01*
X382917Y547553D01*
X383010Y547484D01*
X383104Y547419D01*
X383201Y547357D01*
X383301Y547299D01*
X383402Y547243D01*
X383504Y547192D01*
X383609Y547144D01*
X383715Y547099D01*
X383823Y547058D01*
X383932Y547021D01*
X384042Y546988D01*
X384154Y546959D01*
X384266Y546933D01*
X384379Y546911D01*
X384493Y546894D01*
X384607Y546880D01*
X384722Y546870D01*
X384837Y546864D01*
X384952Y546862D01*
X388113Y549120D02*
X388250Y549409D01*
X388380Y549701D01*
X388503Y549997D01*
X388618Y550295D01*
X388727Y550596D01*
X388828Y550899D01*
X388922Y551205D01*
X389009Y551512D01*
X389088Y551822D01*
X389160Y552134D01*
X389224Y552447D01*
X389281Y552762D01*
X389331Y553078D01*
X389373Y553395D01*
X389407Y553713D01*
X389434Y554031D01*
X389453Y554351D01*
X389464Y554670D01*
X389468Y554990D01*
X388113Y549120D02*
X388074Y549012D01*
X388031Y548905D01*
X387985Y548800D01*
X387934Y548696D01*
X387881Y548594D01*
X387824Y548494D01*
X387763Y548396D01*
X387699Y548301D01*
X387632Y548207D01*
X387561Y548116D01*
X387488Y548027D01*
X387411Y547941D01*
X387332Y547858D01*
X387250Y547777D01*
X387165Y547699D01*
X387077Y547625D01*
X386987Y547553D01*
X386894Y547484D01*
X386800Y547419D01*
X386703Y547357D01*
X386603Y547299D01*
X386502Y547243D01*
X386399Y547192D01*
X386295Y547144D01*
X386189Y547099D01*
X386081Y547058D01*
X385972Y547021D01*
X385862Y546988D01*
X385750Y546959D01*
X385638Y546933D01*
X385525Y546911D01*
X385411Y546894D01*
X385297Y546880D01*
X385182Y546870D01*
X385067Y546864D01*
X384952Y546862D01*
X381340Y550474D02*
X388565Y559506D01*
X396068Y559506D02*
X400584Y563118D01*
X400584Y546862D01*
X405099Y546862D02*
X396068Y546862D01*
X411699Y551378D02*
X411701Y551511D01*
X411707Y551643D01*
X411717Y551775D01*
X411730Y551907D01*
X411748Y552039D01*
X411769Y552169D01*
X411794Y552300D01*
X411823Y552429D01*
X411856Y552557D01*
X411892Y552685D01*
X411932Y552811D01*
X411976Y552936D01*
X412024Y553060D01*
X412075Y553182D01*
X412130Y553303D01*
X412188Y553422D01*
X412250Y553540D01*
X412315Y553655D01*
X412384Y553769D01*
X412455Y553880D01*
X412531Y553989D01*
X412609Y554096D01*
X412690Y554201D01*
X412775Y554303D01*
X412862Y554403D01*
X412952Y554500D01*
X413045Y554595D01*
X413141Y554686D01*
X413239Y554775D01*
X413340Y554861D01*
X413444Y554944D01*
X413550Y555024D01*
X413658Y555100D01*
X413768Y555174D01*
X413881Y555244D01*
X413995Y555311D01*
X414112Y555374D01*
X414230Y555434D01*
X414350Y555491D01*
X414472Y555544D01*
X414595Y555593D01*
X414719Y555639D01*
X414845Y555681D01*
X414972Y555719D01*
X415100Y555754D01*
X415229Y555785D01*
X415358Y555812D01*
X415489Y555835D01*
X415620Y555855D01*
X415752Y555870D01*
X415884Y555882D01*
X416016Y555890D01*
X416149Y555894D01*
X416281Y555894D01*
X416414Y555890D01*
X416546Y555882D01*
X416678Y555870D01*
X416810Y555855D01*
X416941Y555835D01*
X417072Y555812D01*
X417201Y555785D01*
X417330Y555754D01*
X417458Y555719D01*
X417585Y555681D01*
X417711Y555639D01*
X417835Y555593D01*
X417958Y555544D01*
X418080Y555491D01*
X418200Y555434D01*
X418318Y555374D01*
X418435Y555311D01*
X418549Y555244D01*
X418662Y555174D01*
X418772Y555100D01*
X418880Y555024D01*
X418986Y554944D01*
X419090Y554861D01*
X419191Y554775D01*
X419289Y554686D01*
X419385Y554595D01*
X419478Y554500D01*
X419568Y554403D01*
X419655Y554303D01*
X419740Y554201D01*
X419821Y554096D01*
X419899Y553989D01*
X419975Y553880D01*
X420046Y553769D01*
X420115Y553655D01*
X420180Y553540D01*
X420242Y553422D01*
X420300Y553303D01*
X420355Y553182D01*
X420406Y553060D01*
X420454Y552936D01*
X420498Y552811D01*
X420538Y552685D01*
X420574Y552557D01*
X420607Y552429D01*
X420636Y552300D01*
X420661Y552169D01*
X420682Y552039D01*
X420700Y551907D01*
X420713Y551775D01*
X420723Y551643D01*
X420729Y551511D01*
X420731Y551378D01*
X420729Y551245D01*
X420723Y551113D01*
X420713Y550981D01*
X420700Y550849D01*
X420682Y550717D01*
X420661Y550587D01*
X420636Y550456D01*
X420607Y550327D01*
X420574Y550199D01*
X420538Y550071D01*
X420498Y549945D01*
X420454Y549820D01*
X420406Y549696D01*
X420355Y549574D01*
X420300Y549453D01*
X420242Y549334D01*
X420180Y549216D01*
X420115Y549101D01*
X420046Y548987D01*
X419975Y548876D01*
X419899Y548767D01*
X419821Y548660D01*
X419740Y548555D01*
X419655Y548453D01*
X419568Y548353D01*
X419478Y548256D01*
X419385Y548161D01*
X419289Y548070D01*
X419191Y547981D01*
X419090Y547895D01*
X418986Y547812D01*
X418880Y547732D01*
X418772Y547656D01*
X418662Y547582D01*
X418549Y547512D01*
X418435Y547445D01*
X418318Y547382D01*
X418200Y547322D01*
X418080Y547265D01*
X417958Y547212D01*
X417835Y547163D01*
X417711Y547117D01*
X417585Y547075D01*
X417458Y547037D01*
X417330Y547002D01*
X417201Y546971D01*
X417072Y546944D01*
X416941Y546921D01*
X416810Y546901D01*
X416678Y546886D01*
X416546Y546874D01*
X416414Y546866D01*
X416281Y546862D01*
X416149Y546862D01*
X416016Y546866D01*
X415884Y546874D01*
X415752Y546886D01*
X415620Y546901D01*
X415489Y546921D01*
X415358Y546944D01*
X415229Y546971D01*
X415100Y547002D01*
X414972Y547037D01*
X414845Y547075D01*
X414719Y547117D01*
X414595Y547163D01*
X414472Y547212D01*
X414350Y547265D01*
X414230Y547322D01*
X414112Y547382D01*
X413995Y547445D01*
X413881Y547512D01*
X413768Y547582D01*
X413658Y547656D01*
X413550Y547732D01*
X413444Y547812D01*
X413340Y547895D01*
X413239Y547981D01*
X413141Y548070D01*
X413045Y548161D01*
X412952Y548256D01*
X412862Y548353D01*
X412775Y548453D01*
X412690Y548555D01*
X412609Y548660D01*
X412531Y548767D01*
X412455Y548876D01*
X412384Y548987D01*
X412315Y549101D01*
X412250Y549216D01*
X412188Y549334D01*
X412130Y549453D01*
X412075Y549574D01*
X412024Y549696D01*
X411976Y549820D01*
X411932Y549945D01*
X411892Y550071D01*
X411856Y550199D01*
X411823Y550327D01*
X411794Y550456D01*
X411769Y550587D01*
X411748Y550717D01*
X411730Y550849D01*
X411717Y550981D01*
X411707Y551113D01*
X411701Y551245D01*
X411699Y551378D01*
X412603Y559506D02*
X412605Y559625D01*
X412611Y559745D01*
X412621Y559864D01*
X412635Y559982D01*
X412652Y560101D01*
X412674Y560218D01*
X412699Y560335D01*
X412729Y560450D01*
X412762Y560565D01*
X412799Y560679D01*
X412839Y560791D01*
X412884Y560902D01*
X412932Y561011D01*
X412983Y561119D01*
X413038Y561225D01*
X413097Y561329D01*
X413159Y561431D01*
X413224Y561531D01*
X413293Y561629D01*
X413365Y561725D01*
X413440Y561818D01*
X413517Y561908D01*
X413598Y561996D01*
X413682Y562081D01*
X413769Y562163D01*
X413858Y562243D01*
X413950Y562319D01*
X414044Y562393D01*
X414141Y562463D01*
X414239Y562530D01*
X414340Y562594D01*
X414444Y562654D01*
X414549Y562711D01*
X414656Y562764D01*
X414764Y562814D01*
X414874Y562860D01*
X414986Y562902D01*
X415099Y562941D01*
X415213Y562976D01*
X415328Y563007D01*
X415445Y563035D01*
X415562Y563058D01*
X415679Y563078D01*
X415798Y563094D01*
X415917Y563106D01*
X416036Y563114D01*
X416155Y563118D01*
X416275Y563118D01*
X416394Y563114D01*
X416513Y563106D01*
X416632Y563094D01*
X416751Y563078D01*
X416868Y563058D01*
X416985Y563035D01*
X417102Y563007D01*
X417217Y562976D01*
X417331Y562941D01*
X417444Y562902D01*
X417556Y562860D01*
X417666Y562814D01*
X417774Y562764D01*
X417881Y562711D01*
X417986Y562654D01*
X418090Y562594D01*
X418191Y562530D01*
X418289Y562463D01*
X418386Y562393D01*
X418480Y562319D01*
X418572Y562243D01*
X418661Y562163D01*
X418748Y562081D01*
X418832Y561996D01*
X418913Y561908D01*
X418990Y561818D01*
X419065Y561725D01*
X419137Y561629D01*
X419206Y561531D01*
X419271Y561431D01*
X419333Y561329D01*
X419392Y561225D01*
X419447Y561119D01*
X419498Y561011D01*
X419546Y560902D01*
X419591Y560791D01*
X419631Y560679D01*
X419668Y560565D01*
X419701Y560450D01*
X419731Y560335D01*
X419756Y560218D01*
X419778Y560101D01*
X419795Y559982D01*
X419809Y559864D01*
X419819Y559745D01*
X419825Y559625D01*
X419827Y559506D01*
X419825Y559387D01*
X419819Y559267D01*
X419809Y559148D01*
X419795Y559030D01*
X419778Y558911D01*
X419756Y558794D01*
X419731Y558677D01*
X419701Y558562D01*
X419668Y558447D01*
X419631Y558333D01*
X419591Y558221D01*
X419546Y558110D01*
X419498Y558001D01*
X419447Y557893D01*
X419392Y557787D01*
X419333Y557683D01*
X419271Y557581D01*
X419206Y557481D01*
X419137Y557383D01*
X419065Y557287D01*
X418990Y557194D01*
X418913Y557104D01*
X418832Y557016D01*
X418748Y556931D01*
X418661Y556849D01*
X418572Y556769D01*
X418480Y556693D01*
X418386Y556619D01*
X418289Y556549D01*
X418191Y556482D01*
X418090Y556418D01*
X417986Y556358D01*
X417881Y556301D01*
X417774Y556248D01*
X417666Y556198D01*
X417556Y556152D01*
X417444Y556110D01*
X417331Y556071D01*
X417217Y556036D01*
X417102Y556005D01*
X416985Y555977D01*
X416868Y555954D01*
X416751Y555934D01*
X416632Y555918D01*
X416513Y555906D01*
X416394Y555898D01*
X416275Y555894D01*
X416155Y555894D01*
X416036Y555898D01*
X415917Y555906D01*
X415798Y555918D01*
X415679Y555934D01*
X415562Y555954D01*
X415445Y555977D01*
X415328Y556005D01*
X415213Y556036D01*
X415099Y556071D01*
X414986Y556110D01*
X414874Y556152D01*
X414764Y556198D01*
X414656Y556248D01*
X414549Y556301D01*
X414444Y556358D01*
X414340Y556418D01*
X414239Y556482D01*
X414141Y556549D01*
X414044Y556619D01*
X413950Y556693D01*
X413858Y556769D01*
X413769Y556849D01*
X413682Y556931D01*
X413598Y557016D01*
X413517Y557104D01*
X413440Y557194D01*
X413365Y557287D01*
X413293Y557383D01*
X413224Y557481D01*
X413159Y557581D01*
X413097Y557683D01*
X413038Y557787D01*
X412983Y557893D01*
X412932Y558001D01*
X412884Y558110D01*
X412839Y558221D01*
X412799Y558333D01*
X412762Y558447D01*
X412729Y558562D01*
X412699Y558677D01*
X412674Y558794D01*
X412652Y558911D01*
X412635Y559030D01*
X412621Y559148D01*
X412611Y559267D01*
X412605Y559387D01*
X412603Y559506D01*
X229362Y271018D02*
X229362Y254762D01*
X236587Y254762D01*
X242358Y267406D02*
X246874Y271018D01*
X246874Y254762D01*
X251389Y254762D02*
X242358Y254762D01*
X203962Y419862D02*
X203962Y436118D01*
X203962Y419862D02*
X211187Y419862D01*
X225989Y432054D02*
X225987Y432179D01*
X225981Y432304D01*
X225972Y432429D01*
X225958Y432553D01*
X225941Y432677D01*
X225920Y432801D01*
X225895Y432923D01*
X225866Y433045D01*
X225834Y433166D01*
X225798Y433286D01*
X225758Y433405D01*
X225715Y433522D01*
X225668Y433638D01*
X225617Y433753D01*
X225563Y433865D01*
X225505Y433977D01*
X225445Y434086D01*
X225380Y434193D01*
X225313Y434299D01*
X225242Y434402D01*
X225168Y434503D01*
X225091Y434602D01*
X225011Y434698D01*
X224928Y434792D01*
X224843Y434883D01*
X224754Y434972D01*
X224663Y435057D01*
X224569Y435140D01*
X224473Y435220D01*
X224374Y435297D01*
X224273Y435371D01*
X224170Y435442D01*
X224064Y435509D01*
X223957Y435574D01*
X223848Y435634D01*
X223736Y435692D01*
X223624Y435746D01*
X223509Y435797D01*
X223393Y435844D01*
X223276Y435887D01*
X223157Y435927D01*
X223037Y435963D01*
X222916Y435995D01*
X222794Y436024D01*
X222672Y436049D01*
X222548Y436070D01*
X222424Y436087D01*
X222300Y436101D01*
X222175Y436110D01*
X222050Y436116D01*
X221925Y436118D01*
X221782Y436116D01*
X221640Y436110D01*
X221497Y436100D01*
X221355Y436087D01*
X221214Y436069D01*
X221072Y436048D01*
X220932Y436023D01*
X220792Y435994D01*
X220653Y435961D01*
X220515Y435924D01*
X220378Y435884D01*
X220243Y435840D01*
X220108Y435792D01*
X219975Y435740D01*
X219843Y435685D01*
X219713Y435626D01*
X219585Y435564D01*
X219458Y435498D01*
X219333Y435429D01*
X219210Y435357D01*
X219090Y435281D01*
X218971Y435202D01*
X218854Y435119D01*
X218740Y435034D01*
X218628Y434945D01*
X218519Y434854D01*
X218412Y434759D01*
X218307Y434662D01*
X218206Y434561D01*
X218107Y434458D01*
X218011Y434353D01*
X217918Y434244D01*
X217828Y434133D01*
X217741Y434020D01*
X217657Y433905D01*
X217577Y433787D01*
X217499Y433667D01*
X217425Y433545D01*
X217355Y433421D01*
X217287Y433295D01*
X217224Y433167D01*
X217163Y433038D01*
X217106Y432907D01*
X217053Y432775D01*
X217004Y432641D01*
X216958Y432506D01*
X224634Y428893D02*
X224728Y428985D01*
X224818Y429079D01*
X224906Y429176D01*
X224991Y429276D01*
X225073Y429378D01*
X225152Y429483D01*
X225227Y429590D01*
X225299Y429699D01*
X225368Y429810D01*
X225434Y429924D01*
X225496Y430039D01*
X225555Y430156D01*
X225610Y430275D01*
X225661Y430395D01*
X225709Y430517D01*
X225754Y430640D01*
X225794Y430764D01*
X225831Y430890D01*
X225864Y431017D01*
X225893Y431144D01*
X225919Y431273D01*
X225940Y431402D01*
X225958Y431532D01*
X225971Y431662D01*
X225981Y431792D01*
X225987Y431923D01*
X225989Y432054D01*
X224635Y428893D02*
X216958Y419862D01*
X225989Y419862D01*
X191262Y508762D02*
X191262Y525018D01*
X191262Y508762D02*
X198487Y508762D01*
X204258Y508762D02*
X208774Y508762D01*
X208907Y508764D01*
X209039Y508770D01*
X209171Y508780D01*
X209303Y508793D01*
X209435Y508811D01*
X209565Y508832D01*
X209696Y508857D01*
X209825Y508886D01*
X209953Y508919D01*
X210081Y508955D01*
X210207Y508995D01*
X210332Y509039D01*
X210456Y509087D01*
X210578Y509138D01*
X210699Y509193D01*
X210818Y509251D01*
X210936Y509313D01*
X211051Y509378D01*
X211165Y509447D01*
X211276Y509518D01*
X211385Y509594D01*
X211492Y509672D01*
X211597Y509753D01*
X211699Y509838D01*
X211799Y509925D01*
X211896Y510015D01*
X211991Y510108D01*
X212082Y510204D01*
X212171Y510302D01*
X212257Y510403D01*
X212340Y510507D01*
X212420Y510613D01*
X212496Y510721D01*
X212570Y510831D01*
X212640Y510944D01*
X212707Y511058D01*
X212770Y511175D01*
X212830Y511293D01*
X212887Y511413D01*
X212940Y511535D01*
X212989Y511658D01*
X213035Y511782D01*
X213077Y511908D01*
X213115Y512035D01*
X213150Y512163D01*
X213181Y512292D01*
X213208Y512421D01*
X213231Y512552D01*
X213251Y512683D01*
X213266Y512815D01*
X213278Y512947D01*
X213286Y513079D01*
X213290Y513212D01*
X213290Y513344D01*
X213286Y513477D01*
X213278Y513609D01*
X213266Y513741D01*
X213251Y513873D01*
X213231Y514004D01*
X213208Y514135D01*
X213181Y514264D01*
X213150Y514393D01*
X213115Y514521D01*
X213077Y514648D01*
X213035Y514774D01*
X212989Y514898D01*
X212940Y515021D01*
X212887Y515143D01*
X212830Y515263D01*
X212770Y515381D01*
X212707Y515498D01*
X212640Y515612D01*
X212570Y515725D01*
X212496Y515835D01*
X212420Y515943D01*
X212340Y516049D01*
X212257Y516153D01*
X212171Y516254D01*
X212082Y516352D01*
X211991Y516448D01*
X211896Y516541D01*
X211799Y516631D01*
X211699Y516718D01*
X211597Y516803D01*
X211492Y516884D01*
X211385Y516962D01*
X211276Y517038D01*
X211165Y517109D01*
X211051Y517178D01*
X210936Y517243D01*
X210818Y517305D01*
X210699Y517363D01*
X210578Y517418D01*
X210456Y517469D01*
X210332Y517517D01*
X210207Y517561D01*
X210081Y517601D01*
X209953Y517637D01*
X209825Y517670D01*
X209696Y517699D01*
X209565Y517724D01*
X209435Y517745D01*
X209303Y517763D01*
X209171Y517776D01*
X209039Y517786D01*
X208907Y517792D01*
X208774Y517794D01*
X209677Y525018D02*
X204258Y525018D01*
X209677Y525018D02*
X209796Y525016D01*
X209916Y525010D01*
X210035Y525000D01*
X210153Y524986D01*
X210272Y524969D01*
X210389Y524947D01*
X210506Y524922D01*
X210621Y524892D01*
X210736Y524859D01*
X210850Y524822D01*
X210962Y524782D01*
X211073Y524737D01*
X211182Y524689D01*
X211290Y524638D01*
X211396Y524583D01*
X211500Y524524D01*
X211602Y524462D01*
X211702Y524397D01*
X211800Y524328D01*
X211896Y524256D01*
X211989Y524181D01*
X212079Y524104D01*
X212167Y524023D01*
X212252Y523939D01*
X212334Y523852D01*
X212414Y523763D01*
X212490Y523671D01*
X212564Y523577D01*
X212634Y523480D01*
X212701Y523382D01*
X212765Y523281D01*
X212825Y523177D01*
X212882Y523072D01*
X212935Y522965D01*
X212985Y522857D01*
X213031Y522747D01*
X213073Y522635D01*
X213112Y522522D01*
X213147Y522408D01*
X213178Y522293D01*
X213206Y522176D01*
X213229Y522059D01*
X213249Y521942D01*
X213265Y521823D01*
X213277Y521704D01*
X213285Y521585D01*
X213289Y521466D01*
X213289Y521346D01*
X213285Y521227D01*
X213277Y521108D01*
X213265Y520989D01*
X213249Y520870D01*
X213229Y520753D01*
X213206Y520636D01*
X213178Y520519D01*
X213147Y520404D01*
X213112Y520290D01*
X213073Y520177D01*
X213031Y520065D01*
X212985Y519955D01*
X212935Y519847D01*
X212882Y519740D01*
X212825Y519635D01*
X212765Y519531D01*
X212701Y519430D01*
X212634Y519332D01*
X212564Y519235D01*
X212490Y519141D01*
X212414Y519049D01*
X212334Y518960D01*
X212252Y518873D01*
X212167Y518789D01*
X212079Y518708D01*
X211989Y518631D01*
X211896Y518556D01*
X211800Y518484D01*
X211702Y518415D01*
X211602Y518350D01*
X211500Y518288D01*
X211396Y518229D01*
X211290Y518174D01*
X211182Y518123D01*
X211073Y518075D01*
X210962Y518030D01*
X210850Y517990D01*
X210736Y517953D01*
X210621Y517920D01*
X210506Y517890D01*
X210389Y517865D01*
X210272Y517843D01*
X210153Y517826D01*
X210035Y517812D01*
X209916Y517802D01*
X209796Y517796D01*
X209677Y517794D01*
X209677Y517793D02*
X206064Y517793D01*
X13462Y321818D02*
X13462Y305562D01*
X20687Y305562D01*
X26458Y309174D02*
X30071Y321818D01*
X26458Y309174D02*
X35489Y309174D01*
X32780Y312787D02*
X32780Y305562D01*
X13462Y508762D02*
X13462Y525018D01*
X13462Y508762D02*
X20687Y508762D01*
X26458Y508762D02*
X31877Y508762D01*
X31995Y508764D01*
X32113Y508770D01*
X32231Y508779D01*
X32348Y508793D01*
X32465Y508810D01*
X32582Y508831D01*
X32697Y508856D01*
X32812Y508885D01*
X32926Y508918D01*
X33038Y508954D01*
X33149Y508994D01*
X33259Y509037D01*
X33368Y509084D01*
X33475Y509134D01*
X33580Y509189D01*
X33683Y509246D01*
X33784Y509307D01*
X33884Y509371D01*
X33981Y509438D01*
X34076Y509508D01*
X34168Y509582D01*
X34259Y509658D01*
X34346Y509738D01*
X34431Y509820D01*
X34513Y509905D01*
X34593Y509992D01*
X34669Y510083D01*
X34743Y510175D01*
X34813Y510270D01*
X34880Y510367D01*
X34944Y510467D01*
X35005Y510568D01*
X35062Y510671D01*
X35117Y510776D01*
X35167Y510883D01*
X35214Y510992D01*
X35257Y511102D01*
X35297Y511213D01*
X35333Y511325D01*
X35366Y511439D01*
X35395Y511554D01*
X35420Y511669D01*
X35441Y511786D01*
X35458Y511903D01*
X35472Y512020D01*
X35481Y512138D01*
X35487Y512256D01*
X35489Y512374D01*
X35489Y514181D01*
X35487Y514299D01*
X35481Y514417D01*
X35472Y514535D01*
X35458Y514652D01*
X35441Y514769D01*
X35420Y514886D01*
X35395Y515001D01*
X35366Y515116D01*
X35333Y515230D01*
X35297Y515342D01*
X35257Y515453D01*
X35214Y515563D01*
X35167Y515672D01*
X35117Y515779D01*
X35062Y515884D01*
X35005Y515987D01*
X34944Y516088D01*
X34880Y516188D01*
X34813Y516285D01*
X34743Y516380D01*
X34669Y516472D01*
X34593Y516563D01*
X34513Y516650D01*
X34431Y516735D01*
X34346Y516817D01*
X34259Y516897D01*
X34168Y516973D01*
X34076Y517047D01*
X33981Y517117D01*
X33884Y517184D01*
X33784Y517248D01*
X33683Y517309D01*
X33580Y517366D01*
X33475Y517421D01*
X33368Y517471D01*
X33259Y517518D01*
X33149Y517561D01*
X33038Y517601D01*
X32926Y517637D01*
X32812Y517670D01*
X32697Y517699D01*
X32582Y517724D01*
X32465Y517745D01*
X32348Y517762D01*
X32231Y517776D01*
X32113Y517785D01*
X31995Y517791D01*
X31877Y517793D01*
X26458Y517793D01*
X26458Y525018D01*
X35489Y525018D01*
X26162Y67818D02*
X26162Y51562D01*
X31581Y58787D02*
X26162Y67818D01*
X31581Y58787D02*
X36999Y67818D01*
X36999Y51562D01*
X44259Y56078D02*
X44259Y63302D01*
X44261Y63435D01*
X44267Y63567D01*
X44277Y63699D01*
X44290Y63831D01*
X44308Y63963D01*
X44329Y64093D01*
X44354Y64224D01*
X44383Y64353D01*
X44416Y64481D01*
X44452Y64609D01*
X44492Y64735D01*
X44536Y64860D01*
X44584Y64984D01*
X44635Y65106D01*
X44690Y65227D01*
X44748Y65346D01*
X44810Y65464D01*
X44875Y65579D01*
X44944Y65693D01*
X45015Y65804D01*
X45091Y65913D01*
X45169Y66020D01*
X45250Y66125D01*
X45335Y66227D01*
X45422Y66327D01*
X45512Y66424D01*
X45605Y66519D01*
X45701Y66610D01*
X45799Y66699D01*
X45900Y66785D01*
X46004Y66868D01*
X46110Y66948D01*
X46218Y67024D01*
X46328Y67098D01*
X46441Y67168D01*
X46555Y67235D01*
X46672Y67298D01*
X46790Y67358D01*
X46910Y67415D01*
X47032Y67468D01*
X47155Y67517D01*
X47279Y67563D01*
X47405Y67605D01*
X47532Y67643D01*
X47660Y67678D01*
X47789Y67709D01*
X47918Y67736D01*
X48049Y67759D01*
X48180Y67779D01*
X48312Y67794D01*
X48444Y67806D01*
X48576Y67814D01*
X48709Y67818D01*
X48841Y67818D01*
X48974Y67814D01*
X49106Y67806D01*
X49238Y67794D01*
X49370Y67779D01*
X49501Y67759D01*
X49632Y67736D01*
X49761Y67709D01*
X49890Y67678D01*
X50018Y67643D01*
X50145Y67605D01*
X50271Y67563D01*
X50395Y67517D01*
X50518Y67468D01*
X50640Y67415D01*
X50760Y67358D01*
X50878Y67298D01*
X50995Y67235D01*
X51109Y67168D01*
X51222Y67098D01*
X51332Y67024D01*
X51440Y66948D01*
X51546Y66868D01*
X51650Y66785D01*
X51751Y66699D01*
X51849Y66610D01*
X51945Y66519D01*
X52038Y66424D01*
X52128Y66327D01*
X52215Y66227D01*
X52300Y66125D01*
X52381Y66020D01*
X52459Y65913D01*
X52535Y65804D01*
X52606Y65693D01*
X52675Y65579D01*
X52740Y65464D01*
X52802Y65346D01*
X52860Y65227D01*
X52915Y65106D01*
X52966Y64984D01*
X53014Y64860D01*
X53058Y64735D01*
X53098Y64609D01*
X53134Y64481D01*
X53167Y64353D01*
X53196Y64224D01*
X53221Y64093D01*
X53242Y63963D01*
X53260Y63831D01*
X53273Y63699D01*
X53283Y63567D01*
X53289Y63435D01*
X53291Y63302D01*
X53291Y56078D01*
X53289Y55945D01*
X53283Y55813D01*
X53273Y55681D01*
X53260Y55549D01*
X53242Y55417D01*
X53221Y55287D01*
X53196Y55156D01*
X53167Y55027D01*
X53134Y54899D01*
X53098Y54771D01*
X53058Y54645D01*
X53014Y54520D01*
X52966Y54396D01*
X52915Y54274D01*
X52860Y54153D01*
X52802Y54034D01*
X52740Y53916D01*
X52675Y53801D01*
X52606Y53687D01*
X52535Y53576D01*
X52459Y53467D01*
X52381Y53360D01*
X52300Y53255D01*
X52215Y53153D01*
X52128Y53053D01*
X52038Y52956D01*
X51945Y52861D01*
X51849Y52770D01*
X51751Y52681D01*
X51650Y52595D01*
X51546Y52512D01*
X51440Y52432D01*
X51332Y52356D01*
X51222Y52282D01*
X51109Y52212D01*
X50995Y52145D01*
X50878Y52082D01*
X50760Y52022D01*
X50640Y51965D01*
X50518Y51912D01*
X50395Y51863D01*
X50271Y51817D01*
X50145Y51775D01*
X50018Y51737D01*
X49890Y51702D01*
X49761Y51671D01*
X49632Y51644D01*
X49501Y51621D01*
X49370Y51601D01*
X49238Y51586D01*
X49106Y51574D01*
X48974Y51566D01*
X48841Y51562D01*
X48709Y51562D01*
X48576Y51566D01*
X48444Y51574D01*
X48312Y51586D01*
X48180Y51601D01*
X48049Y51621D01*
X47918Y51644D01*
X47789Y51671D01*
X47660Y51702D01*
X47532Y51737D01*
X47405Y51775D01*
X47279Y51817D01*
X47155Y51863D01*
X47032Y51912D01*
X46910Y51965D01*
X46790Y52022D01*
X46672Y52082D01*
X46555Y52145D01*
X46441Y52212D01*
X46328Y52282D01*
X46218Y52356D01*
X46110Y52432D01*
X46004Y52512D01*
X45900Y52595D01*
X45799Y52681D01*
X45701Y52770D01*
X45605Y52861D01*
X45512Y52956D01*
X45422Y53053D01*
X45335Y53153D01*
X45250Y53255D01*
X45169Y53360D01*
X45091Y53467D01*
X45015Y53576D01*
X44944Y53687D01*
X44875Y53801D01*
X44810Y53916D01*
X44748Y54034D01*
X44690Y54153D01*
X44635Y54274D01*
X44584Y54396D01*
X44536Y54520D01*
X44492Y54645D01*
X44452Y54771D01*
X44416Y54899D01*
X44383Y55027D01*
X44354Y55156D01*
X44329Y55287D01*
X44308Y55417D01*
X44290Y55549D01*
X44277Y55681D01*
X44267Y55813D01*
X44261Y55945D01*
X44259Y56078D01*
X60442Y51562D02*
X60442Y67818D01*
X60442Y51562D02*
X67666Y51562D01*
X73989Y51562D02*
X81213Y51562D01*
X73989Y51562D02*
X73989Y67818D01*
X81213Y67818D01*
X79407Y60593D02*
X73989Y60593D01*
X86082Y51562D02*
X96919Y67818D01*
X86082Y67818D02*
X96919Y51562D01*
D11*
X230844Y314127D02*
X230844Y317881D01*
X230843Y314127D02*
X230841Y314062D01*
X230835Y313998D01*
X230825Y313934D01*
X230812Y313870D01*
X230794Y313808D01*
X230773Y313747D01*
X230749Y313687D01*
X230720Y313629D01*
X230688Y313572D01*
X230653Y313518D01*
X230615Y313466D01*
X230573Y313416D01*
X230529Y313369D01*
X230482Y313325D01*
X230432Y313283D01*
X230380Y313245D01*
X230326Y313210D01*
X230269Y313178D01*
X230211Y313149D01*
X230151Y313125D01*
X230090Y313104D01*
X230028Y313086D01*
X229964Y313073D01*
X229900Y313063D01*
X229836Y313057D01*
X229771Y313055D01*
X229235Y313055D01*
X233792Y316809D02*
X235132Y317881D01*
X235132Y313055D01*
X233792Y313055D02*
X236473Y313055D01*
X230844Y415727D02*
X230844Y419481D01*
X230843Y415727D02*
X230841Y415662D01*
X230835Y415598D01*
X230825Y415534D01*
X230812Y415470D01*
X230794Y415408D01*
X230773Y415347D01*
X230749Y415287D01*
X230720Y415229D01*
X230688Y415172D01*
X230653Y415118D01*
X230615Y415066D01*
X230573Y415016D01*
X230529Y414969D01*
X230482Y414925D01*
X230432Y414883D01*
X230380Y414845D01*
X230326Y414810D01*
X230269Y414778D01*
X230211Y414749D01*
X230151Y414725D01*
X230090Y414704D01*
X230028Y414686D01*
X229964Y414673D01*
X229900Y414663D01*
X229836Y414657D01*
X229771Y414655D01*
X229235Y414655D01*
X235266Y419481D02*
X235334Y419479D01*
X235401Y419473D01*
X235468Y419464D01*
X235535Y419451D01*
X235600Y419434D01*
X235665Y419413D01*
X235728Y419389D01*
X235790Y419361D01*
X235850Y419330D01*
X235908Y419296D01*
X235964Y419258D01*
X236019Y419218D01*
X236070Y419174D01*
X236119Y419127D01*
X236166Y419078D01*
X236210Y419027D01*
X236250Y418972D01*
X236288Y418916D01*
X236322Y418858D01*
X236353Y418798D01*
X236381Y418736D01*
X236405Y418673D01*
X236426Y418608D01*
X236443Y418543D01*
X236456Y418476D01*
X236465Y418409D01*
X236471Y418342D01*
X236473Y418274D01*
X235266Y419481D02*
X235188Y419479D01*
X235110Y419473D01*
X235033Y419463D01*
X234956Y419450D01*
X234880Y419432D01*
X234805Y419411D01*
X234731Y419386D01*
X234659Y419357D01*
X234588Y419325D01*
X234519Y419289D01*
X234451Y419250D01*
X234386Y419207D01*
X234323Y419161D01*
X234262Y419112D01*
X234204Y419060D01*
X234149Y419005D01*
X234096Y418948D01*
X234047Y418888D01*
X234000Y418825D01*
X233957Y418761D01*
X233917Y418694D01*
X233880Y418625D01*
X233847Y418554D01*
X233817Y418482D01*
X233791Y418409D01*
X236071Y417336D02*
X236120Y417385D01*
X236167Y417437D01*
X236210Y417492D01*
X236251Y417549D01*
X236289Y417608D01*
X236323Y417669D01*
X236354Y417732D01*
X236382Y417796D01*
X236406Y417862D01*
X236426Y417928D01*
X236443Y417996D01*
X236456Y418065D01*
X236465Y418134D01*
X236471Y418204D01*
X236473Y418274D01*
X236071Y417336D02*
X233792Y414655D01*
X236473Y414655D01*
X230844Y530027D02*
X230844Y533781D01*
X230843Y530027D02*
X230841Y529962D01*
X230835Y529898D01*
X230825Y529834D01*
X230812Y529770D01*
X230794Y529708D01*
X230773Y529647D01*
X230749Y529587D01*
X230720Y529529D01*
X230688Y529472D01*
X230653Y529418D01*
X230615Y529366D01*
X230573Y529316D01*
X230529Y529269D01*
X230482Y529225D01*
X230432Y529183D01*
X230380Y529145D01*
X230326Y529110D01*
X230269Y529078D01*
X230211Y529049D01*
X230151Y529025D01*
X230090Y529004D01*
X230028Y528986D01*
X229964Y528973D01*
X229900Y528963D01*
X229836Y528957D01*
X229771Y528955D01*
X229235Y528955D01*
X233792Y528955D02*
X235132Y528955D01*
X235203Y528957D01*
X235275Y528963D01*
X235345Y528972D01*
X235415Y528985D01*
X235485Y529002D01*
X235553Y529023D01*
X235620Y529047D01*
X235686Y529075D01*
X235750Y529106D01*
X235813Y529141D01*
X235873Y529179D01*
X235932Y529220D01*
X235988Y529264D01*
X236042Y529311D01*
X236093Y529360D01*
X236141Y529413D01*
X236187Y529468D01*
X236229Y529525D01*
X236269Y529585D01*
X236305Y529646D01*
X236338Y529710D01*
X236367Y529775D01*
X236393Y529841D01*
X236416Y529909D01*
X236435Y529978D01*
X236450Y530048D01*
X236461Y530118D01*
X236469Y530189D01*
X236473Y530260D01*
X236473Y530332D01*
X236469Y530403D01*
X236461Y530474D01*
X236450Y530544D01*
X236435Y530614D01*
X236416Y530683D01*
X236393Y530751D01*
X236367Y530817D01*
X236338Y530882D01*
X236305Y530946D01*
X236269Y531007D01*
X236229Y531067D01*
X236187Y531124D01*
X236141Y531179D01*
X236093Y531232D01*
X236042Y531281D01*
X235988Y531328D01*
X235932Y531372D01*
X235873Y531413D01*
X235813Y531451D01*
X235750Y531486D01*
X235686Y531517D01*
X235620Y531545D01*
X235553Y531569D01*
X235485Y531590D01*
X235415Y531607D01*
X235345Y531620D01*
X235275Y531629D01*
X235203Y531635D01*
X235132Y531637D01*
X235400Y533781D02*
X233792Y533781D01*
X235400Y533781D02*
X235465Y533779D01*
X235529Y533773D01*
X235593Y533763D01*
X235657Y533750D01*
X235719Y533732D01*
X235780Y533711D01*
X235840Y533687D01*
X235898Y533658D01*
X235955Y533626D01*
X236009Y533591D01*
X236061Y533553D01*
X236111Y533511D01*
X236158Y533467D01*
X236202Y533420D01*
X236244Y533370D01*
X236282Y533318D01*
X236317Y533264D01*
X236349Y533207D01*
X236378Y533149D01*
X236402Y533089D01*
X236423Y533028D01*
X236441Y532966D01*
X236454Y532902D01*
X236464Y532838D01*
X236470Y532774D01*
X236472Y532709D01*
X236470Y532644D01*
X236464Y532580D01*
X236454Y532516D01*
X236441Y532452D01*
X236423Y532390D01*
X236402Y532329D01*
X236378Y532269D01*
X236349Y532211D01*
X236317Y532154D01*
X236282Y532100D01*
X236244Y532048D01*
X236202Y531998D01*
X236158Y531951D01*
X236111Y531907D01*
X236061Y531865D01*
X236009Y531827D01*
X235955Y531792D01*
X235898Y531760D01*
X235840Y531731D01*
X235780Y531707D01*
X235719Y531686D01*
X235657Y531668D01*
X235593Y531655D01*
X235529Y531645D01*
X235465Y531639D01*
X235400Y531637D01*
X235400Y531636D02*
X234328Y531636D01*
X53044Y317881D02*
X53044Y314127D01*
X53043Y314127D02*
X53041Y314062D01*
X53035Y313998D01*
X53025Y313934D01*
X53012Y313870D01*
X52994Y313808D01*
X52973Y313747D01*
X52949Y313687D01*
X52920Y313629D01*
X52888Y313572D01*
X52853Y313518D01*
X52815Y313466D01*
X52773Y313416D01*
X52729Y313369D01*
X52682Y313325D01*
X52632Y313283D01*
X52580Y313245D01*
X52526Y313210D01*
X52469Y313178D01*
X52411Y313149D01*
X52351Y313125D01*
X52290Y313104D01*
X52228Y313086D01*
X52164Y313073D01*
X52100Y313063D01*
X52036Y313057D01*
X51971Y313055D01*
X51435Y313055D01*
X55992Y314127D02*
X57064Y317881D01*
X55992Y314127D02*
X58673Y314127D01*
X57868Y313055D02*
X57868Y315200D01*
X53044Y517327D02*
X53044Y521081D01*
X53043Y517327D02*
X53041Y517262D01*
X53035Y517198D01*
X53025Y517134D01*
X53012Y517070D01*
X52994Y517008D01*
X52973Y516947D01*
X52949Y516887D01*
X52920Y516829D01*
X52888Y516772D01*
X52853Y516718D01*
X52815Y516666D01*
X52773Y516616D01*
X52729Y516569D01*
X52682Y516525D01*
X52632Y516483D01*
X52580Y516445D01*
X52526Y516410D01*
X52469Y516378D01*
X52411Y516349D01*
X52351Y516325D01*
X52290Y516304D01*
X52228Y516286D01*
X52164Y516273D01*
X52100Y516263D01*
X52036Y516257D01*
X51971Y516255D01*
X51435Y516255D01*
X55992Y516255D02*
X57600Y516255D01*
X57665Y516257D01*
X57729Y516263D01*
X57793Y516273D01*
X57857Y516286D01*
X57919Y516304D01*
X57980Y516325D01*
X58040Y516349D01*
X58098Y516378D01*
X58155Y516410D01*
X58209Y516445D01*
X58261Y516483D01*
X58311Y516525D01*
X58358Y516569D01*
X58402Y516616D01*
X58444Y516666D01*
X58482Y516718D01*
X58517Y516772D01*
X58549Y516829D01*
X58578Y516887D01*
X58602Y516947D01*
X58623Y517008D01*
X58641Y517070D01*
X58654Y517134D01*
X58664Y517198D01*
X58670Y517262D01*
X58672Y517327D01*
X58673Y517327D02*
X58673Y517864D01*
X58672Y517864D02*
X58670Y517929D01*
X58664Y517993D01*
X58654Y518057D01*
X58641Y518121D01*
X58623Y518183D01*
X58602Y518244D01*
X58578Y518304D01*
X58549Y518362D01*
X58517Y518419D01*
X58482Y518473D01*
X58444Y518525D01*
X58402Y518575D01*
X58358Y518622D01*
X58311Y518666D01*
X58261Y518708D01*
X58209Y518746D01*
X58155Y518781D01*
X58098Y518813D01*
X58040Y518842D01*
X57980Y518866D01*
X57919Y518887D01*
X57857Y518905D01*
X57793Y518918D01*
X57729Y518928D01*
X57665Y518934D01*
X57600Y518936D01*
X55992Y518936D01*
X55992Y521081D01*
X58673Y521081D01*
D12*
X97100Y172000D02*
X233100Y172000D01*
X233100Y105000D01*
X233100Y94000D02*
X233100Y78000D01*
X97100Y78000D01*
X97100Y172000D01*
X90100Y159000D02*
X89876Y159338D01*
X89644Y159671D01*
X89405Y159999D01*
X89157Y160320D01*
X88902Y160635D01*
X88639Y160944D01*
X88368Y161246D01*
X88090Y161542D01*
X87805Y161831D01*
X87514Y162113D01*
X87215Y162387D01*
X86910Y162655D01*
X86598Y162914D01*
X86280Y163166D01*
X85956Y163411D01*
X85626Y163647D01*
X85291Y163875D01*
X84950Y164095D01*
X84604Y164306D01*
X84253Y164509D01*
X83896Y164704D01*
X83536Y164890D01*
X83171Y165066D01*
X82801Y165234D01*
X82428Y165393D01*
X82051Y165543D01*
X81670Y165683D01*
X81286Y165814D01*
X80899Y165936D01*
X80509Y166048D01*
X80117Y166151D01*
X79722Y166244D01*
X79325Y166328D01*
X78926Y166401D01*
X78526Y166465D01*
X78124Y166520D01*
X77720Y166564D01*
X77316Y166599D01*
X76911Y166623D01*
X76506Y166638D01*
X76100Y166643D01*
X75694Y166638D01*
X75289Y166623D01*
X74884Y166599D01*
X74480Y166564D01*
X74076Y166520D01*
X73674Y166465D01*
X73274Y166401D01*
X72875Y166328D01*
X72478Y166244D01*
X72083Y166151D01*
X71691Y166048D01*
X71301Y165936D01*
X70914Y165814D01*
X70530Y165683D01*
X70149Y165543D01*
X69772Y165393D01*
X69399Y165234D01*
X69029Y165066D01*
X68664Y164890D01*
X68304Y164704D01*
X67947Y164509D01*
X67596Y164306D01*
X67250Y164095D01*
X66909Y163875D01*
X66574Y163647D01*
X66244Y163411D01*
X65920Y163166D01*
X65602Y162914D01*
X65290Y162655D01*
X64985Y162387D01*
X64686Y162113D01*
X64395Y161831D01*
X64110Y161542D01*
X63832Y161246D01*
X63561Y160944D01*
X63298Y160635D01*
X63043Y160320D01*
X62795Y159999D01*
X62556Y159671D01*
X62324Y159338D01*
X62100Y159000D01*
X62100Y141000D02*
X62324Y140662D01*
X62556Y140329D01*
X62795Y140001D01*
X63043Y139680D01*
X63298Y139365D01*
X63561Y139056D01*
X63832Y138754D01*
X64110Y138458D01*
X64395Y138169D01*
X64686Y137887D01*
X64985Y137613D01*
X65290Y137345D01*
X65602Y137086D01*
X65920Y136834D01*
X66244Y136589D01*
X66574Y136353D01*
X66909Y136125D01*
X67250Y135905D01*
X67596Y135694D01*
X67947Y135491D01*
X68304Y135296D01*
X68664Y135110D01*
X69029Y134934D01*
X69399Y134766D01*
X69772Y134607D01*
X70149Y134457D01*
X70530Y134317D01*
X70914Y134186D01*
X71301Y134064D01*
X71691Y133952D01*
X72083Y133849D01*
X72478Y133756D01*
X72875Y133672D01*
X73274Y133599D01*
X73674Y133535D01*
X74076Y133480D01*
X74480Y133436D01*
X74884Y133401D01*
X75289Y133377D01*
X75694Y133362D01*
X76100Y133357D01*
X76506Y133362D01*
X76911Y133377D01*
X77316Y133401D01*
X77720Y133436D01*
X78124Y133480D01*
X78526Y133535D01*
X78926Y133599D01*
X79325Y133672D01*
X79722Y133756D01*
X80117Y133849D01*
X80509Y133952D01*
X80899Y134064D01*
X81286Y134186D01*
X81670Y134317D01*
X82051Y134457D01*
X82428Y134607D01*
X82801Y134766D01*
X83171Y134934D01*
X83536Y135110D01*
X83896Y135296D01*
X84253Y135491D01*
X84604Y135694D01*
X84950Y135905D01*
X85291Y136125D01*
X85626Y136353D01*
X85956Y136589D01*
X86280Y136834D01*
X86598Y137086D01*
X86910Y137345D01*
X87215Y137613D01*
X87514Y137887D01*
X87805Y138169D01*
X88090Y138458D01*
X88368Y138754D01*
X88639Y139056D01*
X88902Y139365D01*
X89157Y139680D01*
X89405Y140001D01*
X89644Y140329D01*
X89876Y140662D01*
X90100Y141000D01*
X62100Y141000D02*
X62100Y159000D01*
X89100Y160000D02*
X96100Y160000D01*
X96100Y140000D02*
X89100Y140000D01*
X240100Y141000D02*
X240324Y140662D01*
X240556Y140329D01*
X240795Y140001D01*
X241043Y139680D01*
X241298Y139365D01*
X241561Y139056D01*
X241832Y138754D01*
X242110Y138458D01*
X242395Y138169D01*
X242686Y137887D01*
X242985Y137613D01*
X243290Y137345D01*
X243602Y137086D01*
X243920Y136834D01*
X244244Y136589D01*
X244574Y136353D01*
X244909Y136125D01*
X245250Y135905D01*
X245596Y135694D01*
X245947Y135491D01*
X246304Y135296D01*
X246664Y135110D01*
X247029Y134934D01*
X247399Y134766D01*
X247772Y134607D01*
X248149Y134457D01*
X248530Y134317D01*
X248914Y134186D01*
X249301Y134064D01*
X249691Y133952D01*
X250083Y133849D01*
X250478Y133756D01*
X250875Y133672D01*
X251274Y133599D01*
X251674Y133535D01*
X252076Y133480D01*
X252480Y133436D01*
X252884Y133401D01*
X253289Y133377D01*
X253694Y133362D01*
X254100Y133357D01*
X254506Y133362D01*
X254911Y133377D01*
X255316Y133401D01*
X255720Y133436D01*
X256124Y133480D01*
X256526Y133535D01*
X256926Y133599D01*
X257325Y133672D01*
X257722Y133756D01*
X258117Y133849D01*
X258509Y133952D01*
X258899Y134064D01*
X259286Y134186D01*
X259670Y134317D01*
X260051Y134457D01*
X260428Y134607D01*
X260801Y134766D01*
X261171Y134934D01*
X261536Y135110D01*
X261896Y135296D01*
X262253Y135491D01*
X262604Y135694D01*
X262950Y135905D01*
X263291Y136125D01*
X263626Y136353D01*
X263956Y136589D01*
X264280Y136834D01*
X264598Y137086D01*
X264910Y137345D01*
X265215Y137613D01*
X265514Y137887D01*
X265805Y138169D01*
X266090Y138458D01*
X266368Y138754D01*
X266639Y139056D01*
X266902Y139365D01*
X267157Y139680D01*
X267405Y140001D01*
X267644Y140329D01*
X267876Y140662D01*
X268100Y141000D01*
X268100Y159000D02*
X267876Y159338D01*
X267644Y159671D01*
X267405Y159999D01*
X267157Y160320D01*
X266902Y160635D01*
X266639Y160944D01*
X266368Y161246D01*
X266090Y161542D01*
X265805Y161831D01*
X265514Y162113D01*
X265215Y162387D01*
X264910Y162655D01*
X264598Y162914D01*
X264280Y163166D01*
X263956Y163411D01*
X263626Y163647D01*
X263291Y163875D01*
X262950Y164095D01*
X262604Y164306D01*
X262253Y164509D01*
X261896Y164704D01*
X261536Y164890D01*
X261171Y165066D01*
X260801Y165234D01*
X260428Y165393D01*
X260051Y165543D01*
X259670Y165683D01*
X259286Y165814D01*
X258899Y165936D01*
X258509Y166048D01*
X258117Y166151D01*
X257722Y166244D01*
X257325Y166328D01*
X256926Y166401D01*
X256526Y166465D01*
X256124Y166520D01*
X255720Y166564D01*
X255316Y166599D01*
X254911Y166623D01*
X254506Y166638D01*
X254100Y166643D01*
X253694Y166638D01*
X253289Y166623D01*
X252884Y166599D01*
X252480Y166564D01*
X252076Y166520D01*
X251674Y166465D01*
X251274Y166401D01*
X250875Y166328D01*
X250478Y166244D01*
X250083Y166151D01*
X249691Y166048D01*
X249301Y165936D01*
X248914Y165814D01*
X248530Y165683D01*
X248149Y165543D01*
X247772Y165393D01*
X247399Y165234D01*
X247029Y165066D01*
X246664Y164890D01*
X246304Y164704D01*
X245947Y164509D01*
X245596Y164306D01*
X245250Y164095D01*
X244909Y163875D01*
X244574Y163647D01*
X244244Y163411D01*
X243920Y163166D01*
X243602Y162914D01*
X243290Y162655D01*
X242985Y162387D01*
X242686Y162113D01*
X242395Y161831D01*
X242110Y161542D01*
X241832Y161246D01*
X241561Y160944D01*
X241298Y160635D01*
X241043Y160320D01*
X240795Y159999D01*
X240556Y159671D01*
X240324Y159338D01*
X240100Y159000D01*
X268100Y159000D02*
X268100Y141000D01*
X241100Y140000D02*
X234100Y140000D01*
X234100Y160000D02*
X241100Y160000D01*
X233100Y105000D02*
X233248Y104998D01*
X233395Y104992D01*
X233543Y104982D01*
X233690Y104968D01*
X233836Y104951D01*
X233982Y104929D01*
X234128Y104903D01*
X234272Y104874D01*
X234416Y104840D01*
X234559Y104803D01*
X234701Y104762D01*
X234842Y104717D01*
X234981Y104668D01*
X235119Y104616D01*
X235256Y104560D01*
X235391Y104500D01*
X235524Y104437D01*
X235656Y104370D01*
X235786Y104300D01*
X235914Y104226D01*
X236040Y104149D01*
X236163Y104068D01*
X236285Y103984D01*
X236404Y103897D01*
X236521Y103807D01*
X236635Y103713D01*
X236747Y103617D01*
X236856Y103517D01*
X236963Y103415D01*
X237067Y103310D01*
X237167Y103202D01*
X237265Y103092D01*
X237360Y102978D01*
X237452Y102863D01*
X237541Y102745D01*
X237626Y102624D01*
X237709Y102502D01*
X237788Y102377D01*
X237863Y102250D01*
X237935Y102121D01*
X238004Y101990D01*
X238069Y101858D01*
X238130Y101724D01*
X238188Y101588D01*
X238243Y101450D01*
X238293Y101312D01*
X238340Y101171D01*
X238383Y101030D01*
X238422Y100888D01*
X238457Y100744D01*
X238489Y100600D01*
X238516Y100455D01*
X238540Y100309D01*
X238560Y100163D01*
X238576Y100016D01*
X238588Y99869D01*
X238596Y99721D01*
X238600Y99574D01*
X238600Y99426D01*
X238596Y99279D01*
X238588Y99131D01*
X238576Y98984D01*
X238560Y98837D01*
X238540Y98691D01*
X238516Y98545D01*
X238489Y98400D01*
X238457Y98256D01*
X238422Y98112D01*
X238383Y97970D01*
X238340Y97829D01*
X238293Y97688D01*
X238243Y97550D01*
X238188Y97412D01*
X238130Y97276D01*
X238069Y97142D01*
X238004Y97010D01*
X237935Y96879D01*
X237863Y96750D01*
X237788Y96623D01*
X237709Y96498D01*
X237626Y96376D01*
X237541Y96255D01*
X237452Y96137D01*
X237360Y96022D01*
X237265Y95908D01*
X237167Y95798D01*
X237067Y95690D01*
X236963Y95585D01*
X236856Y95483D01*
X236747Y95383D01*
X236635Y95287D01*
X236521Y95193D01*
X236404Y95103D01*
X236285Y95016D01*
X236163Y94932D01*
X236040Y94851D01*
X235914Y94774D01*
X235786Y94700D01*
X235656Y94630D01*
X235524Y94563D01*
X235391Y94500D01*
X235256Y94440D01*
X235119Y94384D01*
X234981Y94332D01*
X234842Y94283D01*
X234701Y94238D01*
X234559Y94197D01*
X234416Y94160D01*
X234272Y94126D01*
X234128Y94097D01*
X233982Y94071D01*
X233836Y94049D01*
X233690Y94032D01*
X233543Y94018D01*
X233395Y94008D01*
X233248Y94002D01*
X233100Y94000D01*
D13*
X156154Y69342D02*
X152908Y66746D01*
X156154Y69342D02*
X156154Y57658D01*
X159399Y57658D02*
X152908Y57658D01*
M02*
