M48
;GenerationSoftware,Autodesk,EAGLE,8.7.1*%
;CreationDate,2018-05-13T19:12:58Z*%
FMAT,2
ICI,OFF
METRIC,TZ,000.000
T3C1.016
T2C1.400
T1C3.000
%
G90
M71
T1
X21840Y90130
X21840Y59730
X3810Y110490
X3810Y58420
X115570Y110490
X115570Y58420
T2
X21380Y81230
X21380Y85430
X26880Y85430
X26880Y81230
X26880Y77030
X26880Y72830
X26880Y68630
X26880Y64430
X21380Y64430
X21380Y77030
X21380Y72830
X21380Y68630
T3
X49530Y90805
X49530Y88265
X90964Y90805
X90964Y88265
X49530Y62230
X49530Y64770
X90964Y62230
X90964Y64770
X104775Y62230
X104775Y64770
X63341Y90805
X63341Y88265
X104775Y90805
X77153Y88265
X63341Y62230
X63341Y64770
X77153Y62230
X77153Y64770
X77153Y90805
X104775Y88265
M30