G04 EAGLE Gerber X2 export*
%TF.Part,Single*%
%TF.FileFunction,Legend,Top,1*%
%TF.FilePolarity,Positive*%
%TF.GenerationSoftware,Autodesk,EAGLE,8.7.1*%
%TF.CreationDate,2018-05-13T19:12:58Z*%
G75*
%MOMM*%
%FSLAX34Y34*%
%LPD*%
%AMOC8*
5,1,8,0,0,1.08239X$1,22.5*%
G01*
%ADD10C,0.127000*%
%ADD11C,0.203200*%
%ADD12C,0.254000*%
%ADD13C,0.101600*%


D10*
X965835Y1108329D02*
X969278Y1092835D01*
X972721Y1103164D01*
X976164Y1092835D01*
X979607Y1108329D01*
X985788Y1092835D02*
X992674Y1092835D01*
X985788Y1092835D02*
X985788Y1108329D01*
X992674Y1108329D01*
X990953Y1101443D02*
X985788Y1101443D01*
X998644Y1108329D02*
X998644Y1092835D01*
X1007252Y1092835D02*
X998644Y1108329D01*
X1007252Y1108329D02*
X1007252Y1092835D01*
X1014501Y1092835D02*
X1014501Y1108329D01*
X1018805Y1108329D01*
X1018935Y1108327D01*
X1019065Y1108321D01*
X1019195Y1108311D01*
X1019324Y1108298D01*
X1019453Y1108280D01*
X1019581Y1108259D01*
X1019708Y1108233D01*
X1019835Y1108204D01*
X1019961Y1108171D01*
X1020085Y1108134D01*
X1020209Y1108094D01*
X1020331Y1108049D01*
X1020452Y1108001D01*
X1020571Y1107950D01*
X1020689Y1107895D01*
X1020805Y1107836D01*
X1020919Y1107774D01*
X1021032Y1107708D01*
X1021142Y1107639D01*
X1021250Y1107567D01*
X1021356Y1107492D01*
X1021459Y1107413D01*
X1021560Y1107331D01*
X1021659Y1107247D01*
X1021755Y1107159D01*
X1021848Y1107068D01*
X1021939Y1106975D01*
X1022027Y1106879D01*
X1022111Y1106780D01*
X1022193Y1106679D01*
X1022272Y1106576D01*
X1022347Y1106470D01*
X1022419Y1106362D01*
X1022488Y1106252D01*
X1022554Y1106139D01*
X1022616Y1106025D01*
X1022675Y1105909D01*
X1022730Y1105791D01*
X1022781Y1105672D01*
X1022829Y1105551D01*
X1022874Y1105429D01*
X1022914Y1105305D01*
X1022951Y1105181D01*
X1022984Y1105055D01*
X1023013Y1104928D01*
X1023039Y1104801D01*
X1023060Y1104673D01*
X1023078Y1104544D01*
X1023091Y1104415D01*
X1023101Y1104285D01*
X1023107Y1104155D01*
X1023109Y1104025D01*
X1023109Y1097139D01*
X1023107Y1097009D01*
X1023101Y1096879D01*
X1023091Y1096749D01*
X1023078Y1096620D01*
X1023060Y1096491D01*
X1023039Y1096363D01*
X1023013Y1096236D01*
X1022984Y1096109D01*
X1022951Y1095983D01*
X1022914Y1095859D01*
X1022874Y1095735D01*
X1022829Y1095613D01*
X1022781Y1095492D01*
X1022730Y1095373D01*
X1022675Y1095255D01*
X1022616Y1095139D01*
X1022554Y1095025D01*
X1022488Y1094912D01*
X1022419Y1094802D01*
X1022347Y1094694D01*
X1022272Y1094588D01*
X1022193Y1094485D01*
X1022111Y1094384D01*
X1022027Y1094285D01*
X1021939Y1094189D01*
X1021848Y1094096D01*
X1021755Y1094005D01*
X1021659Y1093917D01*
X1021560Y1093833D01*
X1021459Y1093751D01*
X1021356Y1093672D01*
X1021250Y1093597D01*
X1021142Y1093525D01*
X1021032Y1093456D01*
X1020919Y1093390D01*
X1020805Y1093328D01*
X1020689Y1093269D01*
X1020571Y1093214D01*
X1020452Y1093163D01*
X1020331Y1093115D01*
X1020209Y1093070D01*
X1020085Y1093030D01*
X1019961Y1092993D01*
X1019835Y1092960D01*
X1019708Y1092931D01*
X1019581Y1092905D01*
X1019453Y1092884D01*
X1019324Y1092866D01*
X1019195Y1092853D01*
X1019065Y1092843D01*
X1018935Y1092837D01*
X1018805Y1092835D01*
X1014501Y1092835D01*
X1029863Y1097139D02*
X1029863Y1104025D01*
X1029862Y1104025D02*
X1029864Y1104155D01*
X1029870Y1104285D01*
X1029880Y1104415D01*
X1029893Y1104544D01*
X1029911Y1104673D01*
X1029932Y1104801D01*
X1029958Y1104928D01*
X1029987Y1105055D01*
X1030020Y1105181D01*
X1030057Y1105305D01*
X1030097Y1105429D01*
X1030142Y1105551D01*
X1030190Y1105672D01*
X1030241Y1105791D01*
X1030296Y1105909D01*
X1030355Y1106025D01*
X1030417Y1106139D01*
X1030483Y1106252D01*
X1030552Y1106362D01*
X1030624Y1106470D01*
X1030699Y1106576D01*
X1030778Y1106679D01*
X1030860Y1106780D01*
X1030944Y1106879D01*
X1031032Y1106975D01*
X1031123Y1107068D01*
X1031216Y1107159D01*
X1031312Y1107247D01*
X1031411Y1107331D01*
X1031512Y1107413D01*
X1031615Y1107492D01*
X1031721Y1107567D01*
X1031829Y1107639D01*
X1031939Y1107708D01*
X1032052Y1107774D01*
X1032166Y1107836D01*
X1032282Y1107895D01*
X1032400Y1107950D01*
X1032519Y1108001D01*
X1032640Y1108049D01*
X1032762Y1108094D01*
X1032886Y1108134D01*
X1033010Y1108171D01*
X1033136Y1108204D01*
X1033263Y1108233D01*
X1033390Y1108259D01*
X1033518Y1108280D01*
X1033647Y1108298D01*
X1033776Y1108311D01*
X1033906Y1108321D01*
X1034036Y1108327D01*
X1034166Y1108329D01*
X1034296Y1108327D01*
X1034426Y1108321D01*
X1034556Y1108311D01*
X1034685Y1108298D01*
X1034814Y1108280D01*
X1034942Y1108259D01*
X1035069Y1108233D01*
X1035196Y1108204D01*
X1035322Y1108171D01*
X1035446Y1108134D01*
X1035570Y1108094D01*
X1035692Y1108049D01*
X1035813Y1108001D01*
X1035932Y1107950D01*
X1036050Y1107895D01*
X1036166Y1107836D01*
X1036280Y1107774D01*
X1036393Y1107708D01*
X1036503Y1107639D01*
X1036611Y1107567D01*
X1036717Y1107492D01*
X1036820Y1107413D01*
X1036921Y1107331D01*
X1037020Y1107247D01*
X1037116Y1107159D01*
X1037209Y1107068D01*
X1037300Y1106975D01*
X1037388Y1106879D01*
X1037472Y1106780D01*
X1037554Y1106679D01*
X1037633Y1106576D01*
X1037708Y1106470D01*
X1037780Y1106362D01*
X1037849Y1106252D01*
X1037915Y1106139D01*
X1037977Y1106025D01*
X1038036Y1105909D01*
X1038091Y1105791D01*
X1038142Y1105672D01*
X1038190Y1105551D01*
X1038235Y1105429D01*
X1038275Y1105305D01*
X1038312Y1105181D01*
X1038345Y1105055D01*
X1038374Y1104928D01*
X1038400Y1104801D01*
X1038421Y1104673D01*
X1038439Y1104544D01*
X1038452Y1104415D01*
X1038462Y1104285D01*
X1038468Y1104155D01*
X1038470Y1104025D01*
X1038470Y1097139D01*
X1038468Y1097009D01*
X1038462Y1096879D01*
X1038452Y1096749D01*
X1038439Y1096620D01*
X1038421Y1096491D01*
X1038400Y1096363D01*
X1038374Y1096236D01*
X1038345Y1096109D01*
X1038312Y1095983D01*
X1038275Y1095859D01*
X1038235Y1095735D01*
X1038190Y1095613D01*
X1038142Y1095492D01*
X1038091Y1095373D01*
X1038036Y1095255D01*
X1037977Y1095139D01*
X1037915Y1095025D01*
X1037849Y1094912D01*
X1037780Y1094802D01*
X1037708Y1094694D01*
X1037633Y1094588D01*
X1037554Y1094485D01*
X1037472Y1094384D01*
X1037388Y1094285D01*
X1037300Y1094189D01*
X1037209Y1094096D01*
X1037116Y1094005D01*
X1037020Y1093917D01*
X1036921Y1093833D01*
X1036820Y1093751D01*
X1036717Y1093672D01*
X1036611Y1093597D01*
X1036503Y1093525D01*
X1036393Y1093456D01*
X1036280Y1093390D01*
X1036166Y1093328D01*
X1036050Y1093269D01*
X1035932Y1093214D01*
X1035813Y1093163D01*
X1035692Y1093115D01*
X1035570Y1093070D01*
X1035446Y1093030D01*
X1035322Y1092993D01*
X1035196Y1092960D01*
X1035069Y1092931D01*
X1034942Y1092905D01*
X1034814Y1092884D01*
X1034685Y1092866D01*
X1034556Y1092853D01*
X1034426Y1092843D01*
X1034296Y1092837D01*
X1034166Y1092835D01*
X1034036Y1092837D01*
X1033906Y1092843D01*
X1033776Y1092853D01*
X1033647Y1092866D01*
X1033518Y1092884D01*
X1033390Y1092905D01*
X1033263Y1092931D01*
X1033136Y1092960D01*
X1033010Y1092993D01*
X1032886Y1093030D01*
X1032762Y1093070D01*
X1032640Y1093115D01*
X1032519Y1093163D01*
X1032400Y1093214D01*
X1032282Y1093269D01*
X1032166Y1093328D01*
X1032052Y1093390D01*
X1031939Y1093456D01*
X1031829Y1093525D01*
X1031721Y1093597D01*
X1031615Y1093672D01*
X1031512Y1093751D01*
X1031411Y1093833D01*
X1031312Y1093917D01*
X1031216Y1094005D01*
X1031123Y1094096D01*
X1031032Y1094189D01*
X1030944Y1094285D01*
X1030860Y1094384D01*
X1030778Y1094485D01*
X1030699Y1094588D01*
X1030624Y1094694D01*
X1030552Y1094802D01*
X1030483Y1094912D01*
X1030417Y1095025D01*
X1030355Y1095139D01*
X1030296Y1095255D01*
X1030241Y1095373D01*
X1030190Y1095492D01*
X1030142Y1095613D01*
X1030097Y1095735D01*
X1030057Y1095859D01*
X1030020Y1095983D01*
X1029987Y1096109D01*
X1029958Y1096236D01*
X1029932Y1096363D01*
X1029911Y1096491D01*
X1029893Y1096620D01*
X1029880Y1096749D01*
X1029870Y1096879D01*
X1029864Y1097009D01*
X1029862Y1097139D01*
X1045309Y1092835D02*
X1045309Y1108329D01*
X1049613Y1108329D01*
X1049743Y1108327D01*
X1049873Y1108321D01*
X1050003Y1108311D01*
X1050132Y1108298D01*
X1050261Y1108280D01*
X1050389Y1108259D01*
X1050516Y1108233D01*
X1050643Y1108204D01*
X1050769Y1108171D01*
X1050893Y1108134D01*
X1051017Y1108094D01*
X1051139Y1108049D01*
X1051260Y1108001D01*
X1051379Y1107950D01*
X1051497Y1107895D01*
X1051613Y1107836D01*
X1051727Y1107774D01*
X1051840Y1107708D01*
X1051950Y1107639D01*
X1052058Y1107567D01*
X1052164Y1107492D01*
X1052267Y1107413D01*
X1052368Y1107331D01*
X1052467Y1107247D01*
X1052563Y1107159D01*
X1052656Y1107068D01*
X1052747Y1106975D01*
X1052835Y1106879D01*
X1052919Y1106780D01*
X1053001Y1106679D01*
X1053080Y1106576D01*
X1053155Y1106470D01*
X1053227Y1106362D01*
X1053296Y1106252D01*
X1053362Y1106139D01*
X1053424Y1106025D01*
X1053483Y1105909D01*
X1053538Y1105791D01*
X1053589Y1105672D01*
X1053637Y1105551D01*
X1053682Y1105429D01*
X1053722Y1105305D01*
X1053759Y1105181D01*
X1053792Y1105055D01*
X1053821Y1104928D01*
X1053847Y1104801D01*
X1053868Y1104673D01*
X1053886Y1104544D01*
X1053899Y1104415D01*
X1053909Y1104285D01*
X1053915Y1104155D01*
X1053917Y1104025D01*
X1053915Y1103895D01*
X1053909Y1103765D01*
X1053899Y1103635D01*
X1053886Y1103506D01*
X1053868Y1103377D01*
X1053847Y1103249D01*
X1053821Y1103122D01*
X1053792Y1102995D01*
X1053759Y1102869D01*
X1053722Y1102745D01*
X1053682Y1102621D01*
X1053637Y1102499D01*
X1053589Y1102378D01*
X1053538Y1102259D01*
X1053483Y1102141D01*
X1053424Y1102025D01*
X1053362Y1101911D01*
X1053296Y1101798D01*
X1053227Y1101688D01*
X1053155Y1101580D01*
X1053080Y1101474D01*
X1053001Y1101371D01*
X1052919Y1101270D01*
X1052835Y1101171D01*
X1052747Y1101075D01*
X1052656Y1100982D01*
X1052563Y1100891D01*
X1052467Y1100803D01*
X1052368Y1100719D01*
X1052267Y1100637D01*
X1052164Y1100558D01*
X1052058Y1100483D01*
X1051950Y1100411D01*
X1051840Y1100342D01*
X1051727Y1100276D01*
X1051613Y1100214D01*
X1051497Y1100155D01*
X1051379Y1100100D01*
X1051260Y1100049D01*
X1051139Y1100001D01*
X1051017Y1099956D01*
X1050893Y1099916D01*
X1050769Y1099879D01*
X1050643Y1099846D01*
X1050516Y1099817D01*
X1050389Y1099791D01*
X1050261Y1099770D01*
X1050132Y1099752D01*
X1050003Y1099739D01*
X1049873Y1099729D01*
X1049743Y1099723D01*
X1049613Y1099721D01*
X1045309Y1099721D01*
X1050474Y1099721D02*
X1053917Y1092835D01*
X1072752Y1108330D02*
X1072874Y1108328D01*
X1072995Y1108322D01*
X1073117Y1108313D01*
X1073238Y1108299D01*
X1073358Y1108282D01*
X1073478Y1108261D01*
X1073597Y1108237D01*
X1073715Y1108208D01*
X1073833Y1108176D01*
X1073949Y1108140D01*
X1074064Y1108101D01*
X1074178Y1108058D01*
X1074291Y1108011D01*
X1074401Y1107961D01*
X1074511Y1107908D01*
X1074618Y1107851D01*
X1074724Y1107791D01*
X1074828Y1107727D01*
X1074930Y1107660D01*
X1075029Y1107590D01*
X1075126Y1107517D01*
X1075221Y1107441D01*
X1075314Y1107362D01*
X1075404Y1107280D01*
X1075491Y1107195D01*
X1075576Y1107108D01*
X1075658Y1107018D01*
X1075737Y1106925D01*
X1075813Y1106830D01*
X1075886Y1106733D01*
X1075956Y1106634D01*
X1076023Y1106532D01*
X1076087Y1106428D01*
X1076147Y1106322D01*
X1076204Y1106215D01*
X1076257Y1106105D01*
X1076307Y1105995D01*
X1076354Y1105882D01*
X1076397Y1105768D01*
X1076436Y1105653D01*
X1076472Y1105537D01*
X1076504Y1105419D01*
X1076533Y1105301D01*
X1076557Y1105182D01*
X1076578Y1105062D01*
X1076595Y1104942D01*
X1076609Y1104821D01*
X1076618Y1104699D01*
X1076624Y1104578D01*
X1076626Y1104456D01*
X1072752Y1108329D02*
X1072613Y1108327D01*
X1072474Y1108321D01*
X1072335Y1108312D01*
X1072197Y1108298D01*
X1072059Y1108280D01*
X1071922Y1108259D01*
X1071785Y1108234D01*
X1071649Y1108205D01*
X1071514Y1108172D01*
X1071379Y1108136D01*
X1071246Y1108096D01*
X1071114Y1108052D01*
X1070984Y1108004D01*
X1070854Y1107953D01*
X1070727Y1107898D01*
X1070600Y1107840D01*
X1070476Y1107778D01*
X1070353Y1107713D01*
X1070232Y1107644D01*
X1070113Y1107572D01*
X1069996Y1107496D01*
X1069882Y1107418D01*
X1069769Y1107336D01*
X1069659Y1107251D01*
X1069551Y1107163D01*
X1069446Y1107072D01*
X1069344Y1106978D01*
X1069244Y1106882D01*
X1069146Y1106782D01*
X1069052Y1106680D01*
X1068960Y1106576D01*
X1068872Y1106468D01*
X1068786Y1106359D01*
X1068704Y1106247D01*
X1068625Y1106132D01*
X1068549Y1106016D01*
X1068476Y1105898D01*
X1068406Y1105777D01*
X1068340Y1105655D01*
X1068278Y1105530D01*
X1068219Y1105405D01*
X1068163Y1105277D01*
X1068111Y1105148D01*
X1068063Y1105018D01*
X1068018Y1104886D01*
X1075335Y1101443D02*
X1075424Y1101530D01*
X1075510Y1101620D01*
X1075594Y1101713D01*
X1075675Y1101808D01*
X1075753Y1101905D01*
X1075828Y1102005D01*
X1075900Y1102107D01*
X1075969Y1102211D01*
X1076034Y1102317D01*
X1076097Y1102425D01*
X1076156Y1102535D01*
X1076212Y1102647D01*
X1076265Y1102760D01*
X1076314Y1102874D01*
X1076359Y1102991D01*
X1076402Y1103108D01*
X1076440Y1103227D01*
X1076475Y1103346D01*
X1076507Y1103467D01*
X1076535Y1103589D01*
X1076559Y1103711D01*
X1076579Y1103834D01*
X1076596Y1103958D01*
X1076609Y1104082D01*
X1076619Y1104207D01*
X1076624Y1104331D01*
X1076626Y1104456D01*
X1075335Y1101443D02*
X1068018Y1092835D01*
X1076626Y1092835D01*
X1082884Y1100582D02*
X1082888Y1100887D01*
X1082899Y1101191D01*
X1082917Y1101496D01*
X1082942Y1101799D01*
X1082975Y1102102D01*
X1083015Y1102405D01*
X1083062Y1102706D01*
X1083116Y1103006D01*
X1083178Y1103304D01*
X1083246Y1103601D01*
X1083322Y1103897D01*
X1083404Y1104190D01*
X1083494Y1104481D01*
X1083591Y1104770D01*
X1083694Y1105057D01*
X1083804Y1105341D01*
X1083921Y1105623D01*
X1084045Y1105901D01*
X1084175Y1106177D01*
X1084213Y1106280D01*
X1084253Y1106382D01*
X1084298Y1106482D01*
X1084346Y1106581D01*
X1084397Y1106678D01*
X1084451Y1106773D01*
X1084509Y1106867D01*
X1084570Y1106958D01*
X1084634Y1107047D01*
X1084701Y1107134D01*
X1084771Y1107218D01*
X1084844Y1107301D01*
X1084920Y1107380D01*
X1084998Y1107457D01*
X1085079Y1107531D01*
X1085163Y1107602D01*
X1085249Y1107670D01*
X1085337Y1107736D01*
X1085427Y1107798D01*
X1085520Y1107857D01*
X1085614Y1107913D01*
X1085710Y1107966D01*
X1085808Y1108015D01*
X1085908Y1108061D01*
X1086009Y1108103D01*
X1086112Y1108142D01*
X1086216Y1108177D01*
X1086321Y1108209D01*
X1086427Y1108237D01*
X1086534Y1108261D01*
X1086642Y1108282D01*
X1086750Y1108299D01*
X1086859Y1108312D01*
X1086969Y1108321D01*
X1087078Y1108327D01*
X1087188Y1108329D01*
X1087298Y1108327D01*
X1087407Y1108321D01*
X1087517Y1108312D01*
X1087626Y1108299D01*
X1087734Y1108282D01*
X1087842Y1108261D01*
X1087949Y1108237D01*
X1088055Y1108209D01*
X1088160Y1108177D01*
X1088264Y1108142D01*
X1088367Y1108103D01*
X1088468Y1108061D01*
X1088568Y1108015D01*
X1088666Y1107966D01*
X1088762Y1107913D01*
X1088856Y1107857D01*
X1088949Y1107798D01*
X1089039Y1107736D01*
X1089127Y1107670D01*
X1089213Y1107602D01*
X1089297Y1107531D01*
X1089378Y1107457D01*
X1089456Y1107380D01*
X1089532Y1107300D01*
X1089605Y1107218D01*
X1089675Y1107134D01*
X1089742Y1107047D01*
X1089806Y1106958D01*
X1089867Y1106867D01*
X1089925Y1106773D01*
X1089979Y1106678D01*
X1090030Y1106581D01*
X1090078Y1106482D01*
X1090123Y1106382D01*
X1090163Y1106280D01*
X1090201Y1106177D01*
X1090200Y1106177D02*
X1090330Y1105901D01*
X1090454Y1105623D01*
X1090571Y1105341D01*
X1090681Y1105057D01*
X1090784Y1104770D01*
X1090881Y1104481D01*
X1090971Y1104190D01*
X1091053Y1103897D01*
X1091129Y1103601D01*
X1091197Y1103304D01*
X1091259Y1103006D01*
X1091313Y1102706D01*
X1091360Y1102405D01*
X1091400Y1102102D01*
X1091433Y1101799D01*
X1091458Y1101496D01*
X1091476Y1101191D01*
X1091487Y1100887D01*
X1091491Y1100582D01*
X1082884Y1100582D02*
X1082888Y1100277D01*
X1082899Y1099973D01*
X1082917Y1099668D01*
X1082942Y1099365D01*
X1082975Y1099062D01*
X1083015Y1098759D01*
X1083062Y1098458D01*
X1083116Y1098158D01*
X1083178Y1097860D01*
X1083246Y1097563D01*
X1083322Y1097267D01*
X1083404Y1096974D01*
X1083494Y1096683D01*
X1083591Y1096394D01*
X1083694Y1096107D01*
X1083804Y1095823D01*
X1083921Y1095541D01*
X1084045Y1095263D01*
X1084175Y1094987D01*
X1084213Y1094884D01*
X1084253Y1094782D01*
X1084298Y1094682D01*
X1084346Y1094583D01*
X1084397Y1094486D01*
X1084451Y1094391D01*
X1084509Y1094297D01*
X1084570Y1094206D01*
X1084634Y1094117D01*
X1084701Y1094030D01*
X1084771Y1093945D01*
X1084844Y1093863D01*
X1084920Y1093784D01*
X1084998Y1093707D01*
X1085079Y1093633D01*
X1085163Y1093562D01*
X1085249Y1093494D01*
X1085337Y1093428D01*
X1085427Y1093366D01*
X1085520Y1093307D01*
X1085614Y1093251D01*
X1085710Y1093198D01*
X1085809Y1093149D01*
X1085908Y1093103D01*
X1086009Y1093061D01*
X1086112Y1093022D01*
X1086216Y1092987D01*
X1086321Y1092955D01*
X1086427Y1092927D01*
X1086534Y1092903D01*
X1086642Y1092882D01*
X1086750Y1092865D01*
X1086859Y1092852D01*
X1086969Y1092843D01*
X1087078Y1092837D01*
X1087188Y1092835D01*
X1090200Y1094987D02*
X1090330Y1095263D01*
X1090454Y1095541D01*
X1090571Y1095823D01*
X1090681Y1096107D01*
X1090784Y1096394D01*
X1090881Y1096683D01*
X1090971Y1096974D01*
X1091053Y1097267D01*
X1091129Y1097563D01*
X1091197Y1097860D01*
X1091259Y1098158D01*
X1091313Y1098458D01*
X1091360Y1098759D01*
X1091400Y1099062D01*
X1091433Y1099365D01*
X1091458Y1099668D01*
X1091476Y1099973D01*
X1091487Y1100277D01*
X1091491Y1100582D01*
X1090201Y1094987D02*
X1090163Y1094884D01*
X1090123Y1094782D01*
X1090078Y1094682D01*
X1090030Y1094583D01*
X1089979Y1094486D01*
X1089925Y1094391D01*
X1089867Y1094297D01*
X1089806Y1094206D01*
X1089742Y1094117D01*
X1089675Y1094030D01*
X1089605Y1093946D01*
X1089532Y1093863D01*
X1089456Y1093784D01*
X1089378Y1093707D01*
X1089297Y1093633D01*
X1089213Y1093562D01*
X1089127Y1093494D01*
X1089039Y1093428D01*
X1088949Y1093366D01*
X1088856Y1093307D01*
X1088762Y1093251D01*
X1088666Y1093198D01*
X1088568Y1093149D01*
X1088468Y1093103D01*
X1088367Y1093061D01*
X1088264Y1093022D01*
X1088160Y1092987D01*
X1088055Y1092955D01*
X1087949Y1092927D01*
X1087842Y1092903D01*
X1087734Y1092882D01*
X1087626Y1092865D01*
X1087517Y1092852D01*
X1087407Y1092843D01*
X1087298Y1092837D01*
X1087188Y1092835D01*
X1083745Y1096278D02*
X1090631Y1104886D01*
X1097750Y1104886D02*
X1102053Y1108329D01*
X1102053Y1092835D01*
X1097750Y1092835D02*
X1106357Y1092835D01*
X1112615Y1097139D02*
X1112617Y1097269D01*
X1112623Y1097399D01*
X1112633Y1097529D01*
X1112646Y1097658D01*
X1112664Y1097787D01*
X1112685Y1097915D01*
X1112711Y1098042D01*
X1112740Y1098169D01*
X1112773Y1098295D01*
X1112810Y1098419D01*
X1112850Y1098543D01*
X1112895Y1098665D01*
X1112943Y1098786D01*
X1112994Y1098905D01*
X1113049Y1099023D01*
X1113108Y1099139D01*
X1113170Y1099253D01*
X1113236Y1099366D01*
X1113305Y1099476D01*
X1113377Y1099584D01*
X1113452Y1099690D01*
X1113531Y1099793D01*
X1113613Y1099894D01*
X1113697Y1099993D01*
X1113785Y1100089D01*
X1113876Y1100182D01*
X1113969Y1100273D01*
X1114065Y1100361D01*
X1114164Y1100445D01*
X1114265Y1100527D01*
X1114368Y1100606D01*
X1114474Y1100681D01*
X1114582Y1100753D01*
X1114692Y1100822D01*
X1114805Y1100888D01*
X1114919Y1100950D01*
X1115035Y1101009D01*
X1115153Y1101064D01*
X1115272Y1101115D01*
X1115393Y1101163D01*
X1115515Y1101208D01*
X1115639Y1101248D01*
X1115763Y1101285D01*
X1115889Y1101318D01*
X1116016Y1101347D01*
X1116143Y1101373D01*
X1116271Y1101394D01*
X1116400Y1101412D01*
X1116529Y1101425D01*
X1116659Y1101435D01*
X1116789Y1101441D01*
X1116919Y1101443D01*
X1117049Y1101441D01*
X1117179Y1101435D01*
X1117309Y1101425D01*
X1117438Y1101412D01*
X1117567Y1101394D01*
X1117695Y1101373D01*
X1117822Y1101347D01*
X1117949Y1101318D01*
X1118075Y1101285D01*
X1118199Y1101248D01*
X1118323Y1101208D01*
X1118445Y1101163D01*
X1118566Y1101115D01*
X1118685Y1101064D01*
X1118803Y1101009D01*
X1118919Y1100950D01*
X1119033Y1100888D01*
X1119146Y1100822D01*
X1119256Y1100753D01*
X1119364Y1100681D01*
X1119470Y1100606D01*
X1119573Y1100527D01*
X1119674Y1100445D01*
X1119773Y1100361D01*
X1119869Y1100273D01*
X1119962Y1100182D01*
X1120053Y1100089D01*
X1120141Y1099993D01*
X1120225Y1099894D01*
X1120307Y1099793D01*
X1120386Y1099690D01*
X1120461Y1099584D01*
X1120533Y1099476D01*
X1120602Y1099366D01*
X1120668Y1099253D01*
X1120730Y1099139D01*
X1120789Y1099023D01*
X1120844Y1098905D01*
X1120895Y1098786D01*
X1120943Y1098665D01*
X1120988Y1098543D01*
X1121028Y1098419D01*
X1121065Y1098295D01*
X1121098Y1098169D01*
X1121127Y1098042D01*
X1121153Y1097915D01*
X1121174Y1097787D01*
X1121192Y1097658D01*
X1121205Y1097529D01*
X1121215Y1097399D01*
X1121221Y1097269D01*
X1121223Y1097139D01*
X1121221Y1097009D01*
X1121215Y1096879D01*
X1121205Y1096749D01*
X1121192Y1096620D01*
X1121174Y1096491D01*
X1121153Y1096363D01*
X1121127Y1096236D01*
X1121098Y1096109D01*
X1121065Y1095983D01*
X1121028Y1095859D01*
X1120988Y1095735D01*
X1120943Y1095613D01*
X1120895Y1095492D01*
X1120844Y1095373D01*
X1120789Y1095255D01*
X1120730Y1095139D01*
X1120668Y1095025D01*
X1120602Y1094912D01*
X1120533Y1094802D01*
X1120461Y1094694D01*
X1120386Y1094588D01*
X1120307Y1094485D01*
X1120225Y1094384D01*
X1120141Y1094285D01*
X1120053Y1094189D01*
X1119962Y1094096D01*
X1119869Y1094005D01*
X1119773Y1093917D01*
X1119674Y1093833D01*
X1119573Y1093751D01*
X1119470Y1093672D01*
X1119364Y1093597D01*
X1119256Y1093525D01*
X1119146Y1093456D01*
X1119033Y1093390D01*
X1118919Y1093328D01*
X1118803Y1093269D01*
X1118685Y1093214D01*
X1118566Y1093163D01*
X1118445Y1093115D01*
X1118323Y1093070D01*
X1118199Y1093030D01*
X1118075Y1092993D01*
X1117949Y1092960D01*
X1117822Y1092931D01*
X1117695Y1092905D01*
X1117567Y1092884D01*
X1117438Y1092866D01*
X1117309Y1092853D01*
X1117179Y1092843D01*
X1117049Y1092837D01*
X1116919Y1092835D01*
X1116789Y1092837D01*
X1116659Y1092843D01*
X1116529Y1092853D01*
X1116400Y1092866D01*
X1116271Y1092884D01*
X1116143Y1092905D01*
X1116016Y1092931D01*
X1115889Y1092960D01*
X1115763Y1092993D01*
X1115639Y1093030D01*
X1115515Y1093070D01*
X1115393Y1093115D01*
X1115272Y1093163D01*
X1115153Y1093214D01*
X1115035Y1093269D01*
X1114919Y1093328D01*
X1114805Y1093390D01*
X1114692Y1093456D01*
X1114582Y1093525D01*
X1114474Y1093597D01*
X1114368Y1093672D01*
X1114265Y1093751D01*
X1114164Y1093833D01*
X1114065Y1093917D01*
X1113969Y1094005D01*
X1113876Y1094096D01*
X1113785Y1094189D01*
X1113697Y1094285D01*
X1113613Y1094384D01*
X1113531Y1094485D01*
X1113452Y1094588D01*
X1113377Y1094694D01*
X1113305Y1094802D01*
X1113236Y1094912D01*
X1113170Y1095025D01*
X1113108Y1095139D01*
X1113049Y1095255D01*
X1112994Y1095373D01*
X1112943Y1095492D01*
X1112895Y1095613D01*
X1112850Y1095735D01*
X1112810Y1095859D01*
X1112773Y1095983D01*
X1112740Y1096109D01*
X1112711Y1096236D01*
X1112685Y1096363D01*
X1112664Y1096491D01*
X1112646Y1096620D01*
X1112633Y1096749D01*
X1112623Y1096879D01*
X1112617Y1097009D01*
X1112615Y1097139D01*
X1113476Y1104886D02*
X1113478Y1105002D01*
X1113484Y1105118D01*
X1113494Y1105234D01*
X1113507Y1105350D01*
X1113525Y1105465D01*
X1113546Y1105579D01*
X1113572Y1105693D01*
X1113601Y1105805D01*
X1113634Y1105917D01*
X1113671Y1106027D01*
X1113711Y1106136D01*
X1113755Y1106244D01*
X1113803Y1106350D01*
X1113854Y1106454D01*
X1113909Y1106557D01*
X1113967Y1106658D01*
X1114028Y1106756D01*
X1114093Y1106853D01*
X1114161Y1106947D01*
X1114232Y1107039D01*
X1114307Y1107129D01*
X1114384Y1107216D01*
X1114464Y1107300D01*
X1114547Y1107381D01*
X1114633Y1107460D01*
X1114721Y1107536D01*
X1114812Y1107609D01*
X1114905Y1107678D01*
X1115000Y1107745D01*
X1115098Y1107808D01*
X1115198Y1107868D01*
X1115299Y1107924D01*
X1115403Y1107977D01*
X1115508Y1108027D01*
X1115615Y1108072D01*
X1115723Y1108115D01*
X1115833Y1108153D01*
X1115944Y1108188D01*
X1116056Y1108219D01*
X1116169Y1108246D01*
X1116283Y1108270D01*
X1116398Y1108289D01*
X1116513Y1108305D01*
X1116629Y1108317D01*
X1116745Y1108325D01*
X1116861Y1108329D01*
X1116977Y1108329D01*
X1117093Y1108325D01*
X1117209Y1108317D01*
X1117325Y1108305D01*
X1117440Y1108289D01*
X1117555Y1108270D01*
X1117669Y1108246D01*
X1117782Y1108219D01*
X1117894Y1108188D01*
X1118005Y1108153D01*
X1118115Y1108115D01*
X1118223Y1108072D01*
X1118330Y1108027D01*
X1118435Y1107977D01*
X1118539Y1107924D01*
X1118641Y1107868D01*
X1118740Y1107808D01*
X1118838Y1107745D01*
X1118933Y1107678D01*
X1119026Y1107609D01*
X1119117Y1107536D01*
X1119205Y1107460D01*
X1119291Y1107381D01*
X1119374Y1107300D01*
X1119454Y1107216D01*
X1119531Y1107129D01*
X1119606Y1107039D01*
X1119677Y1106947D01*
X1119745Y1106853D01*
X1119810Y1106756D01*
X1119871Y1106658D01*
X1119929Y1106557D01*
X1119984Y1106454D01*
X1120035Y1106350D01*
X1120083Y1106244D01*
X1120127Y1106136D01*
X1120167Y1106027D01*
X1120204Y1105917D01*
X1120237Y1105805D01*
X1120266Y1105693D01*
X1120292Y1105579D01*
X1120313Y1105465D01*
X1120331Y1105350D01*
X1120344Y1105234D01*
X1120354Y1105118D01*
X1120360Y1105002D01*
X1120362Y1104886D01*
X1120360Y1104770D01*
X1120354Y1104654D01*
X1120344Y1104538D01*
X1120331Y1104422D01*
X1120313Y1104307D01*
X1120292Y1104193D01*
X1120266Y1104079D01*
X1120237Y1103967D01*
X1120204Y1103855D01*
X1120167Y1103745D01*
X1120127Y1103636D01*
X1120083Y1103528D01*
X1120035Y1103422D01*
X1119984Y1103318D01*
X1119929Y1103215D01*
X1119871Y1103114D01*
X1119810Y1103016D01*
X1119745Y1102919D01*
X1119677Y1102825D01*
X1119606Y1102733D01*
X1119531Y1102643D01*
X1119454Y1102556D01*
X1119374Y1102472D01*
X1119291Y1102391D01*
X1119205Y1102312D01*
X1119117Y1102236D01*
X1119026Y1102163D01*
X1118933Y1102094D01*
X1118838Y1102027D01*
X1118740Y1101964D01*
X1118641Y1101904D01*
X1118539Y1101848D01*
X1118435Y1101795D01*
X1118330Y1101745D01*
X1118223Y1101700D01*
X1118115Y1101657D01*
X1118005Y1101619D01*
X1117894Y1101584D01*
X1117782Y1101553D01*
X1117669Y1101526D01*
X1117555Y1101502D01*
X1117440Y1101483D01*
X1117325Y1101467D01*
X1117209Y1101455D01*
X1117093Y1101447D01*
X1116977Y1101443D01*
X1116861Y1101443D01*
X1116745Y1101447D01*
X1116629Y1101455D01*
X1116513Y1101467D01*
X1116398Y1101483D01*
X1116283Y1101502D01*
X1116169Y1101526D01*
X1116056Y1101553D01*
X1115944Y1101584D01*
X1115833Y1101619D01*
X1115723Y1101657D01*
X1115615Y1101700D01*
X1115508Y1101745D01*
X1115403Y1101795D01*
X1115299Y1101848D01*
X1115198Y1101904D01*
X1115098Y1101964D01*
X1115000Y1102027D01*
X1114905Y1102094D01*
X1114812Y1102163D01*
X1114721Y1102236D01*
X1114633Y1102312D01*
X1114547Y1102391D01*
X1114464Y1102472D01*
X1114384Y1102556D01*
X1114307Y1102643D01*
X1114232Y1102733D01*
X1114161Y1102825D01*
X1114093Y1102919D01*
X1114028Y1103016D01*
X1113967Y1103114D01*
X1113909Y1103215D01*
X1113854Y1103318D01*
X1113803Y1103422D01*
X1113755Y1103528D01*
X1113711Y1103636D01*
X1113671Y1103745D01*
X1113634Y1103855D01*
X1113601Y1103967D01*
X1113572Y1104079D01*
X1113546Y1104193D01*
X1113525Y1104307D01*
X1113507Y1104422D01*
X1113494Y1104538D01*
X1113484Y1104654D01*
X1113478Y1104770D01*
X1113476Y1104886D01*
D11*
X508000Y914400D02*
X508000Y901700D01*
X501650Y895350D01*
X488950Y895350D02*
X482600Y901700D01*
X501650Y895350D02*
X508000Y889000D01*
X508000Y876300D01*
X501650Y869950D01*
X488950Y869950D02*
X482600Y876300D01*
X482600Y889000D01*
X488950Y895350D01*
X488950Y920750D02*
X501650Y920750D01*
X508000Y914400D01*
X488950Y920750D02*
X482600Y914400D01*
X482600Y901700D01*
X488950Y869950D02*
X501650Y869950D01*
X528066Y929386D02*
X528066Y937514D01*
X530775Y932998D01*
X533485Y937514D01*
X533485Y929386D01*
X538576Y935708D02*
X540834Y937514D01*
X540834Y929386D01*
X543091Y929386D02*
X538576Y929386D01*
X922338Y914400D02*
X922338Y901700D01*
X915988Y895350D01*
X903288Y895350D02*
X896938Y901700D01*
X915988Y895350D02*
X922338Y889000D01*
X922338Y876300D01*
X915988Y869950D01*
X903288Y869950D02*
X896938Y876300D01*
X896938Y889000D01*
X903288Y895350D01*
X903288Y920750D02*
X915988Y920750D01*
X922338Y914400D01*
X903288Y920750D02*
X896938Y914400D01*
X896938Y901700D01*
X903288Y869950D02*
X915988Y869950D01*
X953516Y928116D02*
X953516Y936244D01*
X956225Y931728D01*
X958935Y936244D01*
X958935Y928116D01*
X964026Y929922D02*
X965832Y936244D01*
X964026Y929922D02*
X968541Y929922D01*
X967187Y931728D02*
X967187Y928116D01*
X482600Y628650D02*
X482600Y615950D01*
X482600Y628650D02*
X488950Y635000D01*
X501650Y635000D02*
X508000Y628650D01*
X488950Y635000D02*
X482600Y641350D01*
X482600Y654050D01*
X488950Y660400D01*
X501650Y660400D02*
X508000Y654050D01*
X508000Y641350D01*
X501650Y635000D01*
X501650Y609600D02*
X488950Y609600D01*
X482600Y615950D01*
X501650Y609600D02*
X508000Y615950D01*
X508000Y628650D01*
X501650Y660400D02*
X488950Y660400D01*
X479259Y594614D02*
X479259Y586486D01*
X481968Y590098D02*
X479259Y594614D01*
X481968Y590098D02*
X484677Y594614D01*
X484677Y586486D01*
X489768Y591002D02*
X492478Y591002D01*
X492478Y591001D02*
X492561Y590999D01*
X492645Y590993D01*
X492728Y590984D01*
X492810Y590970D01*
X492891Y590953D01*
X492972Y590932D01*
X493052Y590907D01*
X493130Y590879D01*
X493207Y590847D01*
X493283Y590812D01*
X493357Y590773D01*
X493429Y590730D01*
X493499Y590685D01*
X493566Y590636D01*
X493632Y590584D01*
X493695Y590530D01*
X493755Y590472D01*
X493813Y590412D01*
X493867Y590349D01*
X493919Y590283D01*
X493968Y590216D01*
X494013Y590146D01*
X494056Y590074D01*
X494095Y590000D01*
X494130Y589924D01*
X494162Y589847D01*
X494190Y589769D01*
X494215Y589689D01*
X494236Y589608D01*
X494253Y589527D01*
X494267Y589445D01*
X494276Y589362D01*
X494282Y589278D01*
X494284Y589195D01*
X494284Y588744D01*
X494282Y588651D01*
X494276Y588558D01*
X494267Y588465D01*
X494253Y588372D01*
X494236Y588281D01*
X494215Y588190D01*
X494190Y588100D01*
X494162Y588011D01*
X494130Y587923D01*
X494094Y587837D01*
X494055Y587752D01*
X494012Y587669D01*
X493966Y587588D01*
X493916Y587509D01*
X493864Y587432D01*
X493808Y587357D01*
X493749Y587285D01*
X493687Y587215D01*
X493623Y587147D01*
X493555Y587083D01*
X493485Y587021D01*
X493413Y586962D01*
X493338Y586906D01*
X493261Y586854D01*
X493182Y586804D01*
X493101Y586758D01*
X493018Y586715D01*
X492933Y586676D01*
X492847Y586640D01*
X492759Y586608D01*
X492670Y586580D01*
X492580Y586555D01*
X492489Y586534D01*
X492398Y586517D01*
X492305Y586503D01*
X492212Y586494D01*
X492119Y586488D01*
X492026Y586486D01*
X491933Y586488D01*
X491840Y586494D01*
X491747Y586503D01*
X491654Y586517D01*
X491563Y586534D01*
X491472Y586555D01*
X491382Y586580D01*
X491293Y586608D01*
X491205Y586640D01*
X491119Y586676D01*
X491034Y586715D01*
X490951Y586758D01*
X490870Y586804D01*
X490791Y586854D01*
X490714Y586906D01*
X490639Y586962D01*
X490567Y587021D01*
X490497Y587083D01*
X490429Y587147D01*
X490365Y587215D01*
X490303Y587285D01*
X490244Y587357D01*
X490188Y587432D01*
X490136Y587509D01*
X490086Y587588D01*
X490040Y587669D01*
X489997Y587752D01*
X489958Y587837D01*
X489922Y587923D01*
X489890Y588011D01*
X489862Y588100D01*
X489837Y588190D01*
X489816Y588281D01*
X489799Y588372D01*
X489785Y588465D01*
X489776Y588558D01*
X489770Y588651D01*
X489768Y588744D01*
X489768Y591002D01*
X489769Y591002D02*
X489771Y591120D01*
X489777Y591238D01*
X489786Y591356D01*
X489800Y591473D01*
X489817Y591590D01*
X489838Y591707D01*
X489863Y591822D01*
X489892Y591937D01*
X489925Y592051D01*
X489961Y592163D01*
X490001Y592274D01*
X490044Y592384D01*
X490091Y592493D01*
X490141Y592600D01*
X490195Y592705D01*
X490253Y592808D01*
X490314Y592909D01*
X490378Y593009D01*
X490445Y593106D01*
X490515Y593201D01*
X490589Y593293D01*
X490665Y593384D01*
X490745Y593471D01*
X490827Y593556D01*
X490912Y593638D01*
X490999Y593718D01*
X491090Y593794D01*
X491182Y593868D01*
X491277Y593938D01*
X491374Y594005D01*
X491474Y594069D01*
X491575Y594130D01*
X491678Y594187D01*
X491783Y594241D01*
X491890Y594292D01*
X491999Y594339D01*
X492109Y594382D01*
X492220Y594422D01*
X492332Y594458D01*
X492446Y594491D01*
X492561Y594520D01*
X492676Y594545D01*
X492793Y594566D01*
X492910Y594583D01*
X493027Y594597D01*
X493145Y594606D01*
X493263Y594612D01*
X493381Y594614D01*
X896938Y615950D02*
X896938Y628650D01*
X903288Y635000D01*
X915988Y635000D02*
X922338Y628650D01*
X903288Y635000D02*
X896938Y641350D01*
X896938Y654050D01*
X903288Y660400D01*
X915988Y660400D02*
X922338Y654050D01*
X922338Y641350D01*
X915988Y635000D01*
X915988Y609600D02*
X903288Y609600D01*
X896938Y615950D01*
X915988Y609600D02*
X922338Y615950D01*
X922338Y628650D01*
X915988Y660400D02*
X903288Y660400D01*
X898359Y589852D02*
X898359Y581724D01*
X901068Y585336D02*
X898359Y589852D01*
X901068Y585336D02*
X903777Y589852D01*
X903777Y581724D01*
X910675Y585336D02*
X913384Y585336D01*
X910675Y585336D02*
X910592Y585338D01*
X910508Y585344D01*
X910425Y585353D01*
X910343Y585367D01*
X910262Y585384D01*
X910181Y585405D01*
X910101Y585430D01*
X910023Y585458D01*
X909946Y585490D01*
X909870Y585525D01*
X909796Y585564D01*
X909724Y585607D01*
X909654Y585652D01*
X909587Y585701D01*
X909521Y585753D01*
X909458Y585807D01*
X909398Y585865D01*
X909340Y585925D01*
X909286Y585988D01*
X909234Y586054D01*
X909185Y586121D01*
X909140Y586191D01*
X909097Y586263D01*
X909058Y586337D01*
X909023Y586413D01*
X908991Y586490D01*
X908963Y586568D01*
X908938Y586648D01*
X908917Y586729D01*
X908900Y586810D01*
X908886Y586892D01*
X908877Y586975D01*
X908871Y587059D01*
X908869Y587142D01*
X908868Y587142D02*
X908868Y587594D01*
X908870Y587687D01*
X908876Y587780D01*
X908885Y587873D01*
X908899Y587966D01*
X908916Y588057D01*
X908937Y588148D01*
X908962Y588238D01*
X908990Y588327D01*
X909022Y588415D01*
X909058Y588501D01*
X909097Y588586D01*
X909140Y588669D01*
X909186Y588750D01*
X909236Y588829D01*
X909288Y588906D01*
X909344Y588981D01*
X909403Y589053D01*
X909465Y589123D01*
X909529Y589191D01*
X909597Y589255D01*
X909667Y589317D01*
X909739Y589376D01*
X909814Y589432D01*
X909891Y589484D01*
X909970Y589534D01*
X910051Y589580D01*
X910134Y589623D01*
X910219Y589662D01*
X910305Y589698D01*
X910393Y589730D01*
X910482Y589758D01*
X910572Y589783D01*
X910663Y589804D01*
X910754Y589821D01*
X910847Y589835D01*
X910940Y589844D01*
X911033Y589850D01*
X911126Y589852D01*
X911219Y589850D01*
X911312Y589844D01*
X911405Y589835D01*
X911498Y589821D01*
X911589Y589804D01*
X911680Y589783D01*
X911770Y589758D01*
X911859Y589730D01*
X911947Y589698D01*
X912033Y589662D01*
X912118Y589623D01*
X912201Y589580D01*
X912282Y589534D01*
X912361Y589484D01*
X912438Y589432D01*
X912513Y589376D01*
X912585Y589317D01*
X912655Y589255D01*
X912723Y589191D01*
X912787Y589123D01*
X912849Y589053D01*
X912908Y588981D01*
X912964Y588906D01*
X913016Y588829D01*
X913066Y588750D01*
X913112Y588669D01*
X913155Y588586D01*
X913194Y588501D01*
X913230Y588415D01*
X913262Y588327D01*
X913290Y588238D01*
X913315Y588148D01*
X913336Y588057D01*
X913353Y587966D01*
X913367Y587873D01*
X913376Y587780D01*
X913382Y587687D01*
X913384Y587594D01*
X913384Y585336D01*
X913382Y585218D01*
X913376Y585100D01*
X913367Y584982D01*
X913353Y584865D01*
X913336Y584748D01*
X913315Y584631D01*
X913290Y584516D01*
X913261Y584401D01*
X913228Y584287D01*
X913192Y584175D01*
X913152Y584064D01*
X913109Y583954D01*
X913062Y583845D01*
X913012Y583738D01*
X912957Y583633D01*
X912900Y583530D01*
X912839Y583429D01*
X912775Y583329D01*
X912708Y583232D01*
X912638Y583137D01*
X912564Y583045D01*
X912488Y582954D01*
X912408Y582867D01*
X912326Y582782D01*
X912241Y582700D01*
X912154Y582620D01*
X912063Y582544D01*
X911971Y582470D01*
X911876Y582400D01*
X911779Y582333D01*
X911679Y582269D01*
X911578Y582208D01*
X911475Y582151D01*
X911370Y582096D01*
X911263Y582046D01*
X911154Y581999D01*
X911044Y581956D01*
X910933Y581916D01*
X910821Y581880D01*
X910707Y581847D01*
X910592Y581818D01*
X910477Y581793D01*
X910360Y581772D01*
X910243Y581755D01*
X910126Y581741D01*
X910008Y581732D01*
X909890Y581726D01*
X909772Y581724D01*
X1035050Y615950D02*
X1035050Y628650D01*
X1041400Y635000D01*
X1054100Y635000D02*
X1060450Y628650D01*
X1041400Y635000D02*
X1035050Y641350D01*
X1035050Y654050D01*
X1041400Y660400D01*
X1054100Y660400D02*
X1060450Y654050D01*
X1060450Y641350D01*
X1054100Y635000D01*
X1054100Y609600D02*
X1041400Y609600D01*
X1035050Y615950D01*
X1054100Y609600D02*
X1060450Y615950D01*
X1060450Y628650D01*
X1054100Y660400D02*
X1041400Y660400D01*
X1028915Y588264D02*
X1028915Y580136D01*
X1031624Y583748D02*
X1028915Y588264D01*
X1031624Y583748D02*
X1034333Y588264D01*
X1034333Y580136D01*
X1039425Y586458D02*
X1041682Y588264D01*
X1041682Y580136D01*
X1039425Y580136D02*
X1043940Y580136D01*
X1048569Y584200D02*
X1048571Y584360D01*
X1048577Y584520D01*
X1048586Y584679D01*
X1048600Y584839D01*
X1048617Y584998D01*
X1048638Y585156D01*
X1048662Y585314D01*
X1048691Y585471D01*
X1048723Y585628D01*
X1048759Y585784D01*
X1048799Y585939D01*
X1048842Y586093D01*
X1048889Y586246D01*
X1048940Y586397D01*
X1048994Y586548D01*
X1049052Y586697D01*
X1049113Y586844D01*
X1049178Y586990D01*
X1049246Y587135D01*
X1049245Y587135D02*
X1049273Y587210D01*
X1049304Y587283D01*
X1049339Y587355D01*
X1049377Y587425D01*
X1049418Y587493D01*
X1049463Y587559D01*
X1049510Y587623D01*
X1049561Y587685D01*
X1049614Y587744D01*
X1049671Y587800D01*
X1049730Y587854D01*
X1049791Y587905D01*
X1049855Y587953D01*
X1049921Y587998D01*
X1049989Y588039D01*
X1050059Y588077D01*
X1050130Y588112D01*
X1050204Y588144D01*
X1050278Y588172D01*
X1050354Y588196D01*
X1050431Y588217D01*
X1050509Y588234D01*
X1050588Y588247D01*
X1050667Y588256D01*
X1050746Y588262D01*
X1050826Y588264D01*
X1050906Y588262D01*
X1050985Y588256D01*
X1051064Y588247D01*
X1051143Y588234D01*
X1051221Y588217D01*
X1051298Y588196D01*
X1051374Y588172D01*
X1051448Y588144D01*
X1051522Y588112D01*
X1051593Y588077D01*
X1051663Y588039D01*
X1051731Y587998D01*
X1051797Y587953D01*
X1051861Y587905D01*
X1051922Y587854D01*
X1051981Y587800D01*
X1052038Y587744D01*
X1052091Y587685D01*
X1052142Y587623D01*
X1052189Y587559D01*
X1052234Y587493D01*
X1052275Y587425D01*
X1052313Y587355D01*
X1052348Y587283D01*
X1052379Y587210D01*
X1052407Y587135D01*
X1052475Y586990D01*
X1052540Y586844D01*
X1052601Y586697D01*
X1052659Y586548D01*
X1052713Y586397D01*
X1052764Y586246D01*
X1052811Y586093D01*
X1052854Y585939D01*
X1052894Y585784D01*
X1052930Y585628D01*
X1052962Y585471D01*
X1052991Y585314D01*
X1053015Y585156D01*
X1053036Y584998D01*
X1053053Y584839D01*
X1053067Y584679D01*
X1053076Y584520D01*
X1053082Y584360D01*
X1053084Y584200D01*
X1048569Y584200D02*
X1048571Y584040D01*
X1048577Y583880D01*
X1048586Y583721D01*
X1048600Y583561D01*
X1048617Y583402D01*
X1048638Y583244D01*
X1048662Y583086D01*
X1048691Y582929D01*
X1048723Y582772D01*
X1048759Y582616D01*
X1048799Y582461D01*
X1048842Y582307D01*
X1048889Y582155D01*
X1048940Y582003D01*
X1048994Y581852D01*
X1049052Y581703D01*
X1049113Y581556D01*
X1049178Y581410D01*
X1049246Y581265D01*
X1049245Y581265D02*
X1049273Y581190D01*
X1049304Y581117D01*
X1049339Y581045D01*
X1049377Y580975D01*
X1049418Y580907D01*
X1049463Y580841D01*
X1049510Y580777D01*
X1049561Y580715D01*
X1049614Y580656D01*
X1049671Y580600D01*
X1049730Y580546D01*
X1049791Y580495D01*
X1049855Y580447D01*
X1049921Y580402D01*
X1049989Y580361D01*
X1050059Y580323D01*
X1050130Y580288D01*
X1050204Y580256D01*
X1050278Y580228D01*
X1050354Y580204D01*
X1050431Y580183D01*
X1050509Y580166D01*
X1050588Y580153D01*
X1050667Y580144D01*
X1050746Y580138D01*
X1050826Y580136D01*
X1052407Y581265D02*
X1052475Y581410D01*
X1052540Y581556D01*
X1052601Y581703D01*
X1052659Y581852D01*
X1052713Y582003D01*
X1052764Y582155D01*
X1052811Y582307D01*
X1052854Y582461D01*
X1052894Y582616D01*
X1052930Y582772D01*
X1052962Y582929D01*
X1052991Y583086D01*
X1053015Y583244D01*
X1053036Y583402D01*
X1053053Y583561D01*
X1053067Y583721D01*
X1053076Y583880D01*
X1053082Y584040D01*
X1053084Y584200D01*
X1052407Y581265D02*
X1052379Y581190D01*
X1052348Y581117D01*
X1052313Y581045D01*
X1052275Y580975D01*
X1052234Y580907D01*
X1052189Y580841D01*
X1052142Y580777D01*
X1052091Y580715D01*
X1052038Y580656D01*
X1051981Y580600D01*
X1051922Y580546D01*
X1051861Y580495D01*
X1051797Y580447D01*
X1051731Y580402D01*
X1051663Y580361D01*
X1051593Y580323D01*
X1051522Y580288D01*
X1051448Y580256D01*
X1051374Y580228D01*
X1051298Y580204D01*
X1051221Y580183D01*
X1051143Y580166D01*
X1051064Y580153D01*
X1050985Y580144D01*
X1050906Y580138D01*
X1050826Y580136D01*
X1049020Y581942D02*
X1052632Y586458D01*
X646113Y901700D02*
X646113Y914400D01*
X646113Y901700D02*
X639763Y895350D01*
X627063Y895350D02*
X620713Y901700D01*
X639763Y895350D02*
X646113Y889000D01*
X646113Y876300D01*
X639763Y869950D01*
X627063Y869950D02*
X620713Y876300D01*
X620713Y889000D01*
X627063Y895350D01*
X627063Y920750D02*
X639763Y920750D01*
X646113Y914400D01*
X627063Y920750D02*
X620713Y914400D01*
X620713Y901700D01*
X627063Y869950D02*
X639763Y869950D01*
X655066Y927799D02*
X655066Y935927D01*
X657775Y931411D01*
X660485Y935927D01*
X660485Y927799D01*
X668059Y935927D02*
X668148Y935925D01*
X668236Y935919D01*
X668324Y935910D01*
X668412Y935896D01*
X668499Y935879D01*
X668585Y935858D01*
X668670Y935833D01*
X668754Y935804D01*
X668837Y935772D01*
X668918Y935737D01*
X668997Y935697D01*
X669075Y935655D01*
X669151Y935609D01*
X669225Y935560D01*
X669296Y935507D01*
X669365Y935452D01*
X669432Y935393D01*
X669496Y935332D01*
X669557Y935268D01*
X669616Y935201D01*
X669671Y935132D01*
X669724Y935061D01*
X669773Y934987D01*
X669819Y934911D01*
X669861Y934833D01*
X669901Y934754D01*
X669936Y934673D01*
X669968Y934590D01*
X669997Y934506D01*
X670022Y934421D01*
X670043Y934335D01*
X670060Y934248D01*
X670074Y934160D01*
X670083Y934072D01*
X670089Y933984D01*
X670091Y933895D01*
X668059Y935927D02*
X667960Y935925D01*
X667860Y935919D01*
X667761Y935910D01*
X667663Y935897D01*
X667564Y935880D01*
X667467Y935859D01*
X667371Y935835D01*
X667275Y935807D01*
X667181Y935775D01*
X667088Y935740D01*
X666996Y935701D01*
X666906Y935659D01*
X666818Y935613D01*
X666731Y935564D01*
X666646Y935512D01*
X666564Y935456D01*
X666483Y935398D01*
X666405Y935336D01*
X666329Y935272D01*
X666256Y935205D01*
X666185Y935135D01*
X666118Y935062D01*
X666052Y934987D01*
X665990Y934909D01*
X665931Y934829D01*
X665875Y934747D01*
X665822Y934663D01*
X665772Y934576D01*
X665726Y934488D01*
X665683Y934399D01*
X665643Y934307D01*
X665607Y934214D01*
X665575Y934120D01*
X669415Y932314D02*
X669481Y932380D01*
X669544Y932448D01*
X669604Y932519D01*
X669661Y932593D01*
X669715Y932668D01*
X669765Y932746D01*
X669813Y932827D01*
X669856Y932909D01*
X669897Y932993D01*
X669933Y933078D01*
X669966Y933165D01*
X669996Y933253D01*
X670021Y933343D01*
X670043Y933433D01*
X670060Y933525D01*
X670074Y933617D01*
X670084Y933709D01*
X670090Y933802D01*
X670092Y933895D01*
X669414Y932314D02*
X665576Y927799D01*
X670091Y927799D01*
X1060450Y914400D02*
X1060450Y901700D01*
X1054100Y895350D01*
X1041400Y895350D02*
X1035050Y901700D01*
X1054100Y895350D02*
X1060450Y889000D01*
X1060450Y876300D01*
X1054100Y869950D01*
X1041400Y869950D02*
X1035050Y876300D01*
X1035050Y889000D01*
X1041400Y895350D01*
X1041400Y920750D02*
X1054100Y920750D01*
X1060450Y914400D01*
X1041400Y920750D02*
X1035050Y914400D01*
X1035050Y901700D01*
X1041400Y869950D02*
X1054100Y869950D01*
X1086866Y935736D02*
X1086866Y943864D01*
X1089575Y939348D01*
X1092285Y943864D01*
X1092285Y935736D01*
X1097376Y935736D02*
X1100085Y935736D01*
X1100168Y935738D01*
X1100252Y935744D01*
X1100335Y935753D01*
X1100417Y935767D01*
X1100498Y935784D01*
X1100579Y935805D01*
X1100659Y935830D01*
X1100737Y935858D01*
X1100814Y935890D01*
X1100890Y935925D01*
X1100964Y935964D01*
X1101036Y936007D01*
X1101106Y936052D01*
X1101173Y936101D01*
X1101239Y936153D01*
X1101302Y936207D01*
X1101362Y936265D01*
X1101420Y936325D01*
X1101474Y936388D01*
X1101526Y936454D01*
X1101575Y936521D01*
X1101621Y936591D01*
X1101663Y936663D01*
X1101702Y936737D01*
X1101737Y936813D01*
X1101769Y936890D01*
X1101797Y936968D01*
X1101822Y937048D01*
X1101843Y937129D01*
X1101860Y937210D01*
X1101874Y937293D01*
X1101883Y937375D01*
X1101889Y937459D01*
X1101891Y937542D01*
X1101891Y938445D01*
X1101889Y938528D01*
X1101883Y938612D01*
X1101874Y938695D01*
X1101860Y938777D01*
X1101843Y938858D01*
X1101822Y938939D01*
X1101797Y939019D01*
X1101769Y939097D01*
X1101737Y939174D01*
X1101702Y939250D01*
X1101663Y939324D01*
X1101620Y939396D01*
X1101575Y939466D01*
X1101526Y939533D01*
X1101474Y939599D01*
X1101420Y939662D01*
X1101362Y939722D01*
X1101302Y939780D01*
X1101239Y939834D01*
X1101173Y939886D01*
X1101106Y939935D01*
X1101036Y939980D01*
X1100964Y940023D01*
X1100890Y940062D01*
X1100814Y940097D01*
X1100737Y940129D01*
X1100659Y940157D01*
X1100579Y940182D01*
X1100498Y940203D01*
X1100417Y940220D01*
X1100335Y940234D01*
X1100252Y940243D01*
X1100168Y940249D01*
X1100085Y940251D01*
X1100085Y940252D02*
X1097376Y940252D01*
X1097376Y943864D01*
X1101891Y943864D01*
X620713Y628650D02*
X620713Y615950D01*
X620713Y628650D02*
X627063Y635000D01*
X639763Y635000D02*
X646113Y628650D01*
X627063Y635000D02*
X620713Y641350D01*
X620713Y654050D01*
X627063Y660400D01*
X639763Y660400D02*
X646113Y654050D01*
X646113Y641350D01*
X639763Y635000D01*
X639763Y609600D02*
X627063Y609600D01*
X620713Y615950D01*
X639763Y609600D02*
X646113Y615950D01*
X646113Y628650D01*
X639763Y660400D02*
X627063Y660400D01*
X618959Y593027D02*
X618959Y584899D01*
X621668Y588511D02*
X618959Y593027D01*
X621668Y588511D02*
X624377Y593027D01*
X624377Y584899D01*
X629468Y592123D02*
X629468Y593027D01*
X633984Y593027D01*
X631726Y584899D01*
X758825Y615950D02*
X758825Y628650D01*
X765175Y635000D01*
X777875Y635000D02*
X784225Y628650D01*
X765175Y635000D02*
X758825Y641350D01*
X758825Y654050D01*
X765175Y660400D01*
X777875Y660400D02*
X784225Y654050D01*
X784225Y641350D01*
X777875Y635000D01*
X777875Y609600D02*
X765175Y609600D01*
X758825Y615950D01*
X777875Y609600D02*
X784225Y615950D01*
X784225Y628650D01*
X777875Y660400D02*
X765175Y660400D01*
X758659Y591439D02*
X758659Y583311D01*
X761368Y586923D02*
X758659Y591439D01*
X761368Y586923D02*
X764077Y591439D01*
X764077Y583311D01*
X769168Y585569D02*
X769170Y585662D01*
X769176Y585755D01*
X769185Y585848D01*
X769199Y585941D01*
X769216Y586032D01*
X769237Y586123D01*
X769262Y586213D01*
X769290Y586302D01*
X769322Y586390D01*
X769358Y586476D01*
X769397Y586561D01*
X769440Y586644D01*
X769486Y586725D01*
X769536Y586804D01*
X769588Y586881D01*
X769644Y586956D01*
X769703Y587028D01*
X769765Y587098D01*
X769829Y587166D01*
X769897Y587230D01*
X769967Y587292D01*
X770039Y587351D01*
X770114Y587407D01*
X770191Y587459D01*
X770270Y587509D01*
X770351Y587555D01*
X770434Y587598D01*
X770519Y587637D01*
X770605Y587673D01*
X770693Y587705D01*
X770782Y587733D01*
X770872Y587758D01*
X770963Y587779D01*
X771054Y587796D01*
X771147Y587810D01*
X771240Y587819D01*
X771333Y587825D01*
X771426Y587827D01*
X771519Y587825D01*
X771612Y587819D01*
X771705Y587810D01*
X771798Y587796D01*
X771889Y587779D01*
X771980Y587758D01*
X772070Y587733D01*
X772159Y587705D01*
X772247Y587673D01*
X772333Y587637D01*
X772418Y587598D01*
X772501Y587555D01*
X772582Y587509D01*
X772661Y587459D01*
X772738Y587407D01*
X772813Y587351D01*
X772885Y587292D01*
X772955Y587230D01*
X773023Y587166D01*
X773087Y587098D01*
X773149Y587028D01*
X773208Y586956D01*
X773264Y586881D01*
X773316Y586804D01*
X773366Y586725D01*
X773412Y586644D01*
X773455Y586561D01*
X773494Y586476D01*
X773530Y586390D01*
X773562Y586302D01*
X773590Y586213D01*
X773615Y586123D01*
X773636Y586032D01*
X773653Y585941D01*
X773667Y585848D01*
X773676Y585755D01*
X773682Y585662D01*
X773684Y585569D01*
X773682Y585476D01*
X773676Y585383D01*
X773667Y585290D01*
X773653Y585197D01*
X773636Y585106D01*
X773615Y585015D01*
X773590Y584925D01*
X773562Y584836D01*
X773530Y584748D01*
X773494Y584662D01*
X773455Y584577D01*
X773412Y584494D01*
X773366Y584413D01*
X773316Y584334D01*
X773264Y584257D01*
X773208Y584182D01*
X773149Y584110D01*
X773087Y584040D01*
X773023Y583972D01*
X772955Y583908D01*
X772885Y583846D01*
X772813Y583787D01*
X772738Y583731D01*
X772661Y583679D01*
X772582Y583629D01*
X772501Y583583D01*
X772418Y583540D01*
X772333Y583501D01*
X772247Y583465D01*
X772159Y583433D01*
X772070Y583405D01*
X771980Y583380D01*
X771889Y583359D01*
X771798Y583342D01*
X771705Y583328D01*
X771612Y583319D01*
X771519Y583313D01*
X771426Y583311D01*
X771333Y583313D01*
X771240Y583319D01*
X771147Y583328D01*
X771054Y583342D01*
X770963Y583359D01*
X770872Y583380D01*
X770782Y583405D01*
X770693Y583433D01*
X770605Y583465D01*
X770519Y583501D01*
X770434Y583540D01*
X770351Y583583D01*
X770270Y583629D01*
X770191Y583679D01*
X770114Y583731D01*
X770039Y583787D01*
X769967Y583846D01*
X769897Y583908D01*
X769829Y583972D01*
X769765Y584040D01*
X769703Y584110D01*
X769644Y584182D01*
X769588Y584257D01*
X769536Y584334D01*
X769486Y584413D01*
X769440Y584494D01*
X769397Y584577D01*
X769358Y584662D01*
X769322Y584748D01*
X769290Y584836D01*
X769262Y584925D01*
X769237Y585015D01*
X769216Y585106D01*
X769199Y585197D01*
X769185Y585290D01*
X769176Y585383D01*
X769170Y585476D01*
X769168Y585569D01*
X769620Y589633D02*
X769622Y589716D01*
X769628Y589800D01*
X769637Y589883D01*
X769651Y589965D01*
X769668Y590046D01*
X769689Y590127D01*
X769714Y590207D01*
X769742Y590285D01*
X769774Y590362D01*
X769809Y590438D01*
X769848Y590512D01*
X769891Y590584D01*
X769936Y590654D01*
X769985Y590721D01*
X770037Y590787D01*
X770091Y590850D01*
X770149Y590910D01*
X770209Y590968D01*
X770272Y591022D01*
X770338Y591074D01*
X770405Y591123D01*
X770475Y591168D01*
X770547Y591211D01*
X770621Y591250D01*
X770697Y591285D01*
X770774Y591317D01*
X770852Y591345D01*
X770932Y591370D01*
X771013Y591391D01*
X771094Y591408D01*
X771176Y591422D01*
X771259Y591431D01*
X771343Y591437D01*
X771426Y591439D01*
X771509Y591437D01*
X771593Y591431D01*
X771676Y591422D01*
X771758Y591408D01*
X771839Y591391D01*
X771920Y591370D01*
X772000Y591345D01*
X772078Y591317D01*
X772155Y591285D01*
X772231Y591250D01*
X772305Y591211D01*
X772377Y591168D01*
X772447Y591123D01*
X772514Y591074D01*
X772580Y591022D01*
X772643Y590968D01*
X772703Y590910D01*
X772761Y590850D01*
X772815Y590787D01*
X772867Y590721D01*
X772916Y590654D01*
X772961Y590584D01*
X773004Y590512D01*
X773043Y590438D01*
X773078Y590362D01*
X773110Y590285D01*
X773138Y590207D01*
X773163Y590127D01*
X773184Y590046D01*
X773201Y589965D01*
X773215Y589883D01*
X773224Y589800D01*
X773230Y589716D01*
X773232Y589633D01*
X773230Y589550D01*
X773224Y589466D01*
X773215Y589383D01*
X773201Y589301D01*
X773184Y589220D01*
X773163Y589139D01*
X773138Y589059D01*
X773110Y588981D01*
X773078Y588904D01*
X773043Y588828D01*
X773004Y588754D01*
X772961Y588682D01*
X772916Y588612D01*
X772867Y588545D01*
X772815Y588479D01*
X772761Y588416D01*
X772703Y588356D01*
X772643Y588298D01*
X772580Y588244D01*
X772514Y588192D01*
X772447Y588143D01*
X772377Y588098D01*
X772305Y588055D01*
X772231Y588016D01*
X772155Y587981D01*
X772078Y587949D01*
X772000Y587921D01*
X771920Y587896D01*
X771839Y587875D01*
X771758Y587858D01*
X771676Y587844D01*
X771593Y587835D01*
X771509Y587829D01*
X771426Y587827D01*
X771343Y587829D01*
X771259Y587835D01*
X771176Y587844D01*
X771094Y587858D01*
X771013Y587875D01*
X770932Y587896D01*
X770852Y587921D01*
X770774Y587949D01*
X770697Y587981D01*
X770621Y588016D01*
X770547Y588055D01*
X770475Y588098D01*
X770405Y588143D01*
X770338Y588192D01*
X770272Y588244D01*
X770209Y588298D01*
X770149Y588356D01*
X770091Y588416D01*
X770037Y588479D01*
X769985Y588545D01*
X769936Y588612D01*
X769891Y588682D01*
X769848Y588754D01*
X769809Y588828D01*
X769774Y588904D01*
X769742Y588981D01*
X769714Y589059D01*
X769689Y589139D01*
X769668Y589220D01*
X769651Y589301D01*
X769637Y589383D01*
X769628Y589466D01*
X769622Y589550D01*
X769620Y589633D01*
X784225Y901700D02*
X784225Y914400D01*
X784225Y901700D02*
X777875Y895350D01*
X765175Y895350D02*
X758825Y901700D01*
X777875Y895350D02*
X784225Y889000D01*
X784225Y876300D01*
X777875Y869950D01*
X765175Y869950D02*
X758825Y876300D01*
X758825Y889000D01*
X765175Y895350D01*
X765175Y920750D02*
X777875Y920750D01*
X784225Y914400D01*
X765175Y920750D02*
X758825Y914400D01*
X758825Y901700D01*
X765175Y869950D02*
X777875Y869950D01*
X807466Y926211D02*
X807466Y934339D01*
X810175Y929823D01*
X812885Y934339D01*
X812885Y926211D01*
X817976Y926211D02*
X820234Y926211D01*
X820327Y926213D01*
X820420Y926219D01*
X820513Y926228D01*
X820606Y926242D01*
X820697Y926259D01*
X820788Y926280D01*
X820878Y926305D01*
X820967Y926333D01*
X821055Y926365D01*
X821141Y926401D01*
X821226Y926440D01*
X821309Y926483D01*
X821390Y926529D01*
X821469Y926579D01*
X821546Y926631D01*
X821621Y926687D01*
X821693Y926746D01*
X821763Y926808D01*
X821831Y926872D01*
X821895Y926940D01*
X821957Y927010D01*
X822016Y927082D01*
X822072Y927157D01*
X822124Y927234D01*
X822174Y927313D01*
X822220Y927394D01*
X822263Y927477D01*
X822302Y927562D01*
X822338Y927648D01*
X822370Y927736D01*
X822398Y927825D01*
X822423Y927915D01*
X822444Y928006D01*
X822461Y928097D01*
X822475Y928190D01*
X822484Y928283D01*
X822490Y928376D01*
X822492Y928469D01*
X822490Y928562D01*
X822484Y928655D01*
X822475Y928748D01*
X822461Y928841D01*
X822444Y928932D01*
X822423Y929023D01*
X822398Y929113D01*
X822370Y929202D01*
X822338Y929290D01*
X822302Y929376D01*
X822263Y929461D01*
X822220Y929544D01*
X822174Y929625D01*
X822124Y929704D01*
X822072Y929781D01*
X822016Y929856D01*
X821957Y929928D01*
X821895Y929998D01*
X821831Y930066D01*
X821763Y930130D01*
X821693Y930192D01*
X821621Y930251D01*
X821546Y930307D01*
X821469Y930359D01*
X821390Y930409D01*
X821309Y930455D01*
X821226Y930498D01*
X821141Y930537D01*
X821055Y930573D01*
X820967Y930605D01*
X820878Y930633D01*
X820788Y930658D01*
X820697Y930679D01*
X820606Y930696D01*
X820513Y930710D01*
X820420Y930719D01*
X820327Y930725D01*
X820234Y930727D01*
X820685Y934339D02*
X817976Y934339D01*
X820685Y934339D02*
X820768Y934337D01*
X820852Y934331D01*
X820935Y934322D01*
X821017Y934308D01*
X821098Y934291D01*
X821179Y934270D01*
X821259Y934245D01*
X821337Y934217D01*
X821414Y934185D01*
X821490Y934150D01*
X821564Y934111D01*
X821636Y934068D01*
X821706Y934023D01*
X821773Y933974D01*
X821839Y933922D01*
X821902Y933868D01*
X821962Y933810D01*
X822020Y933750D01*
X822074Y933687D01*
X822126Y933621D01*
X822175Y933554D01*
X822220Y933484D01*
X822263Y933412D01*
X822302Y933338D01*
X822337Y933262D01*
X822369Y933185D01*
X822397Y933107D01*
X822422Y933027D01*
X822443Y932946D01*
X822460Y932865D01*
X822474Y932783D01*
X822483Y932700D01*
X822489Y932616D01*
X822491Y932533D01*
X822489Y932450D01*
X822483Y932366D01*
X822474Y932283D01*
X822460Y932201D01*
X822443Y932120D01*
X822422Y932039D01*
X822397Y931959D01*
X822369Y931881D01*
X822337Y931804D01*
X822302Y931728D01*
X822263Y931654D01*
X822220Y931582D01*
X822175Y931512D01*
X822126Y931445D01*
X822074Y931379D01*
X822020Y931316D01*
X821962Y931256D01*
X821902Y931198D01*
X821839Y931144D01*
X821773Y931092D01*
X821706Y931043D01*
X821636Y930998D01*
X821564Y930955D01*
X821490Y930916D01*
X821414Y930881D01*
X821337Y930849D01*
X821259Y930821D01*
X821179Y930796D01*
X821098Y930775D01*
X821017Y930758D01*
X820935Y930744D01*
X820852Y930735D01*
X820768Y930729D01*
X820685Y930727D01*
X818879Y930727D01*
D12*
X196300Y880300D02*
X196300Y618300D01*
X196300Y880300D02*
X263300Y880300D01*
X274300Y880300D02*
X290300Y880300D01*
X290300Y618300D01*
X196300Y618300D01*
X209300Y611300D02*
X208962Y611076D01*
X208629Y610844D01*
X208301Y610605D01*
X207980Y610357D01*
X207665Y610102D01*
X207356Y609839D01*
X207054Y609568D01*
X206758Y609290D01*
X206469Y609005D01*
X206187Y608714D01*
X205913Y608415D01*
X205645Y608110D01*
X205386Y607798D01*
X205134Y607480D01*
X204889Y607156D01*
X204653Y606826D01*
X204425Y606491D01*
X204205Y606150D01*
X203994Y605804D01*
X203791Y605453D01*
X203596Y605096D01*
X203410Y604736D01*
X203234Y604371D01*
X203066Y604001D01*
X202907Y603628D01*
X202757Y603251D01*
X202617Y602870D01*
X202486Y602486D01*
X202364Y602099D01*
X202252Y601709D01*
X202149Y601317D01*
X202056Y600922D01*
X201972Y600525D01*
X201899Y600126D01*
X201835Y599726D01*
X201780Y599324D01*
X201736Y598920D01*
X201701Y598516D01*
X201677Y598111D01*
X201662Y597706D01*
X201657Y597300D01*
X201662Y596894D01*
X201677Y596489D01*
X201701Y596084D01*
X201736Y595680D01*
X201780Y595276D01*
X201835Y594874D01*
X201899Y594474D01*
X201972Y594075D01*
X202056Y593678D01*
X202149Y593283D01*
X202252Y592891D01*
X202364Y592501D01*
X202486Y592114D01*
X202617Y591730D01*
X202757Y591349D01*
X202907Y590972D01*
X203066Y590599D01*
X203234Y590229D01*
X203410Y589864D01*
X203596Y589504D01*
X203791Y589147D01*
X203994Y588796D01*
X204205Y588450D01*
X204425Y588109D01*
X204653Y587774D01*
X204889Y587444D01*
X205134Y587120D01*
X205386Y586802D01*
X205645Y586490D01*
X205913Y586185D01*
X206187Y585886D01*
X206469Y585595D01*
X206758Y585310D01*
X207054Y585032D01*
X207356Y584761D01*
X207665Y584498D01*
X207980Y584243D01*
X208301Y583995D01*
X208629Y583756D01*
X208962Y583524D01*
X209300Y583300D01*
X227300Y583300D02*
X227638Y583524D01*
X227971Y583756D01*
X228299Y583995D01*
X228620Y584243D01*
X228935Y584498D01*
X229244Y584761D01*
X229546Y585032D01*
X229842Y585310D01*
X230131Y585595D01*
X230413Y585886D01*
X230687Y586185D01*
X230955Y586490D01*
X231214Y586802D01*
X231466Y587120D01*
X231711Y587444D01*
X231947Y587774D01*
X232175Y588109D01*
X232395Y588450D01*
X232606Y588796D01*
X232809Y589147D01*
X233004Y589504D01*
X233190Y589864D01*
X233366Y590229D01*
X233534Y590599D01*
X233693Y590972D01*
X233843Y591349D01*
X233983Y591730D01*
X234114Y592114D01*
X234236Y592501D01*
X234348Y592891D01*
X234451Y593283D01*
X234544Y593678D01*
X234628Y594075D01*
X234701Y594474D01*
X234765Y594874D01*
X234820Y595276D01*
X234864Y595680D01*
X234899Y596084D01*
X234923Y596489D01*
X234938Y596894D01*
X234943Y597300D01*
X234938Y597706D01*
X234923Y598111D01*
X234899Y598516D01*
X234864Y598920D01*
X234820Y599324D01*
X234765Y599726D01*
X234701Y600126D01*
X234628Y600525D01*
X234544Y600922D01*
X234451Y601317D01*
X234348Y601709D01*
X234236Y602099D01*
X234114Y602486D01*
X233983Y602870D01*
X233843Y603251D01*
X233693Y603628D01*
X233534Y604001D01*
X233366Y604371D01*
X233190Y604736D01*
X233004Y605096D01*
X232809Y605453D01*
X232606Y605804D01*
X232395Y606150D01*
X232175Y606491D01*
X231947Y606826D01*
X231711Y607156D01*
X231466Y607480D01*
X231214Y607798D01*
X230955Y608110D01*
X230687Y608415D01*
X230413Y608714D01*
X230131Y609005D01*
X229842Y609290D01*
X229546Y609568D01*
X229244Y609839D01*
X228935Y610102D01*
X228620Y610357D01*
X228299Y610605D01*
X227971Y610844D01*
X227638Y611076D01*
X227300Y611300D01*
X227300Y583300D02*
X209300Y583300D01*
X208300Y610300D02*
X208300Y617300D01*
X228300Y617300D02*
X228300Y610300D01*
X227300Y887300D02*
X227638Y887524D01*
X227971Y887756D01*
X228299Y887995D01*
X228620Y888243D01*
X228935Y888498D01*
X229244Y888761D01*
X229546Y889032D01*
X229842Y889310D01*
X230131Y889595D01*
X230413Y889886D01*
X230687Y890185D01*
X230955Y890490D01*
X231214Y890802D01*
X231466Y891120D01*
X231711Y891444D01*
X231947Y891774D01*
X232175Y892109D01*
X232395Y892450D01*
X232606Y892796D01*
X232809Y893147D01*
X233004Y893504D01*
X233190Y893864D01*
X233366Y894229D01*
X233534Y894599D01*
X233693Y894972D01*
X233843Y895349D01*
X233983Y895730D01*
X234114Y896114D01*
X234236Y896501D01*
X234348Y896891D01*
X234451Y897283D01*
X234544Y897678D01*
X234628Y898075D01*
X234701Y898474D01*
X234765Y898874D01*
X234820Y899276D01*
X234864Y899680D01*
X234899Y900084D01*
X234923Y900489D01*
X234938Y900894D01*
X234943Y901300D01*
X234938Y901706D01*
X234923Y902111D01*
X234899Y902516D01*
X234864Y902920D01*
X234820Y903324D01*
X234765Y903726D01*
X234701Y904126D01*
X234628Y904525D01*
X234544Y904922D01*
X234451Y905317D01*
X234348Y905709D01*
X234236Y906099D01*
X234114Y906486D01*
X233983Y906870D01*
X233843Y907251D01*
X233693Y907628D01*
X233534Y908001D01*
X233366Y908371D01*
X233190Y908736D01*
X233004Y909096D01*
X232809Y909453D01*
X232606Y909804D01*
X232395Y910150D01*
X232175Y910491D01*
X231947Y910826D01*
X231711Y911156D01*
X231466Y911480D01*
X231214Y911798D01*
X230955Y912110D01*
X230687Y912415D01*
X230413Y912714D01*
X230131Y913005D01*
X229842Y913290D01*
X229546Y913568D01*
X229244Y913839D01*
X228935Y914102D01*
X228620Y914357D01*
X228299Y914605D01*
X227971Y914844D01*
X227638Y915076D01*
X227300Y915300D01*
X209300Y915300D02*
X208962Y915076D01*
X208629Y914844D01*
X208301Y914605D01*
X207980Y914357D01*
X207665Y914102D01*
X207356Y913839D01*
X207054Y913568D01*
X206758Y913290D01*
X206469Y913005D01*
X206187Y912714D01*
X205913Y912415D01*
X205645Y912110D01*
X205386Y911798D01*
X205134Y911480D01*
X204889Y911156D01*
X204653Y910826D01*
X204425Y910491D01*
X204205Y910150D01*
X203994Y909804D01*
X203791Y909453D01*
X203596Y909096D01*
X203410Y908736D01*
X203234Y908371D01*
X203066Y908001D01*
X202907Y907628D01*
X202757Y907251D01*
X202617Y906870D01*
X202486Y906486D01*
X202364Y906099D01*
X202252Y905709D01*
X202149Y905317D01*
X202056Y904922D01*
X201972Y904525D01*
X201899Y904126D01*
X201835Y903726D01*
X201780Y903324D01*
X201736Y902920D01*
X201701Y902516D01*
X201677Y902111D01*
X201662Y901706D01*
X201657Y901300D01*
X201662Y900894D01*
X201677Y900489D01*
X201701Y900084D01*
X201736Y899680D01*
X201780Y899276D01*
X201835Y898874D01*
X201899Y898474D01*
X201972Y898075D01*
X202056Y897678D01*
X202149Y897283D01*
X202252Y896891D01*
X202364Y896501D01*
X202486Y896114D01*
X202617Y895730D01*
X202757Y895349D01*
X202907Y894972D01*
X203066Y894599D01*
X203234Y894229D01*
X203410Y893864D01*
X203596Y893504D01*
X203791Y893147D01*
X203994Y892796D01*
X204205Y892450D01*
X204425Y892109D01*
X204653Y891774D01*
X204889Y891444D01*
X205134Y891120D01*
X205386Y890802D01*
X205645Y890490D01*
X205913Y890185D01*
X206187Y889886D01*
X206469Y889595D01*
X206758Y889310D01*
X207054Y889032D01*
X207356Y888761D01*
X207665Y888498D01*
X207980Y888243D01*
X208301Y887995D01*
X208629Y887756D01*
X208962Y887524D01*
X209300Y887300D01*
X209300Y915300D02*
X227300Y915300D01*
X228300Y888300D02*
X228300Y881300D01*
X208300Y881300D02*
X208300Y888300D01*
X263300Y880300D02*
X263302Y880448D01*
X263308Y880595D01*
X263318Y880743D01*
X263332Y880890D01*
X263349Y881036D01*
X263371Y881182D01*
X263397Y881328D01*
X263426Y881472D01*
X263460Y881616D01*
X263497Y881759D01*
X263538Y881901D01*
X263583Y882042D01*
X263632Y882181D01*
X263684Y882319D01*
X263740Y882456D01*
X263800Y882591D01*
X263863Y882724D01*
X263930Y882856D01*
X264000Y882986D01*
X264074Y883114D01*
X264151Y883240D01*
X264232Y883363D01*
X264316Y883485D01*
X264403Y883604D01*
X264493Y883721D01*
X264587Y883835D01*
X264683Y883947D01*
X264783Y884056D01*
X264885Y884163D01*
X264990Y884267D01*
X265098Y884367D01*
X265208Y884465D01*
X265322Y884560D01*
X265437Y884652D01*
X265555Y884741D01*
X265676Y884826D01*
X265798Y884909D01*
X265923Y884988D01*
X266050Y885063D01*
X266179Y885135D01*
X266310Y885204D01*
X266442Y885269D01*
X266576Y885330D01*
X266712Y885388D01*
X266850Y885443D01*
X266988Y885493D01*
X267129Y885540D01*
X267270Y885583D01*
X267412Y885622D01*
X267556Y885657D01*
X267700Y885689D01*
X267845Y885716D01*
X267991Y885740D01*
X268137Y885760D01*
X268284Y885776D01*
X268431Y885788D01*
X268579Y885796D01*
X268726Y885800D01*
X268874Y885800D01*
X269021Y885796D01*
X269169Y885788D01*
X269316Y885776D01*
X269463Y885760D01*
X269609Y885740D01*
X269755Y885716D01*
X269900Y885689D01*
X270044Y885657D01*
X270188Y885622D01*
X270330Y885583D01*
X270471Y885540D01*
X270612Y885493D01*
X270750Y885443D01*
X270888Y885388D01*
X271024Y885330D01*
X271158Y885269D01*
X271290Y885204D01*
X271421Y885135D01*
X271550Y885063D01*
X271677Y884988D01*
X271802Y884909D01*
X271924Y884826D01*
X272045Y884741D01*
X272163Y884652D01*
X272278Y884560D01*
X272392Y884465D01*
X272502Y884367D01*
X272610Y884267D01*
X272715Y884163D01*
X272817Y884056D01*
X272917Y883947D01*
X273013Y883835D01*
X273107Y883721D01*
X273197Y883604D01*
X273284Y883485D01*
X273368Y883363D01*
X273449Y883240D01*
X273526Y883114D01*
X273600Y882986D01*
X273670Y882856D01*
X273737Y882724D01*
X273800Y882591D01*
X273860Y882456D01*
X273916Y882319D01*
X273968Y882181D01*
X274017Y882042D01*
X274062Y881901D01*
X274103Y881759D01*
X274140Y881616D01*
X274174Y881472D01*
X274203Y881328D01*
X274229Y881182D01*
X274251Y881036D01*
X274268Y880890D01*
X274282Y880743D01*
X274292Y880595D01*
X274298Y880448D01*
X274300Y880300D01*
D13*
X267208Y602742D02*
X267208Y591058D01*
X271103Y596251D02*
X267208Y602742D01*
X271103Y596251D02*
X274997Y602742D01*
X274997Y591058D01*
X280430Y594304D02*
X280430Y599496D01*
X280432Y599609D01*
X280438Y599722D01*
X280448Y599835D01*
X280462Y599948D01*
X280479Y600060D01*
X280501Y600171D01*
X280526Y600281D01*
X280556Y600391D01*
X280589Y600499D01*
X280626Y600606D01*
X280666Y600712D01*
X280711Y600816D01*
X280759Y600919D01*
X280810Y601020D01*
X280865Y601119D01*
X280923Y601216D01*
X280985Y601311D01*
X281050Y601404D01*
X281118Y601494D01*
X281189Y601582D01*
X281264Y601668D01*
X281341Y601751D01*
X281421Y601831D01*
X281504Y601908D01*
X281590Y601983D01*
X281678Y602054D01*
X281768Y602122D01*
X281861Y602187D01*
X281956Y602249D01*
X282053Y602307D01*
X282152Y602362D01*
X282253Y602413D01*
X282356Y602461D01*
X282460Y602506D01*
X282566Y602546D01*
X282673Y602583D01*
X282781Y602616D01*
X282891Y602646D01*
X283001Y602671D01*
X283112Y602693D01*
X283224Y602710D01*
X283337Y602724D01*
X283450Y602734D01*
X283563Y602740D01*
X283676Y602742D01*
X283789Y602740D01*
X283902Y602734D01*
X284015Y602724D01*
X284128Y602710D01*
X284240Y602693D01*
X284351Y602671D01*
X284461Y602646D01*
X284571Y602616D01*
X284679Y602583D01*
X284786Y602546D01*
X284892Y602506D01*
X284996Y602461D01*
X285099Y602413D01*
X285200Y602362D01*
X285299Y602307D01*
X285396Y602249D01*
X285491Y602187D01*
X285584Y602122D01*
X285674Y602054D01*
X285762Y601983D01*
X285848Y601908D01*
X285931Y601831D01*
X286011Y601751D01*
X286088Y601668D01*
X286163Y601582D01*
X286234Y601494D01*
X286302Y601404D01*
X286367Y601311D01*
X286429Y601216D01*
X286487Y601119D01*
X286542Y601020D01*
X286593Y600919D01*
X286641Y600816D01*
X286686Y600712D01*
X286726Y600606D01*
X286763Y600499D01*
X286796Y600391D01*
X286826Y600281D01*
X286851Y600171D01*
X286873Y600060D01*
X286890Y599948D01*
X286904Y599835D01*
X286914Y599722D01*
X286920Y599609D01*
X286922Y599496D01*
X286921Y599496D02*
X286921Y594304D01*
X286922Y594304D02*
X286920Y594191D01*
X286914Y594078D01*
X286904Y593965D01*
X286890Y593852D01*
X286873Y593740D01*
X286851Y593629D01*
X286826Y593519D01*
X286796Y593409D01*
X286763Y593301D01*
X286726Y593194D01*
X286686Y593088D01*
X286641Y592984D01*
X286593Y592881D01*
X286542Y592780D01*
X286487Y592681D01*
X286429Y592584D01*
X286367Y592489D01*
X286302Y592396D01*
X286234Y592306D01*
X286163Y592218D01*
X286088Y592132D01*
X286011Y592049D01*
X285931Y591969D01*
X285848Y591892D01*
X285762Y591817D01*
X285674Y591746D01*
X285584Y591678D01*
X285491Y591613D01*
X285396Y591551D01*
X285299Y591493D01*
X285200Y591438D01*
X285099Y591387D01*
X284996Y591339D01*
X284892Y591294D01*
X284786Y591254D01*
X284679Y591217D01*
X284571Y591184D01*
X284461Y591154D01*
X284351Y591129D01*
X284240Y591107D01*
X284128Y591090D01*
X284015Y591076D01*
X283902Y591066D01*
X283789Y591060D01*
X283676Y591058D01*
X283563Y591060D01*
X283450Y591066D01*
X283337Y591076D01*
X283224Y591090D01*
X283112Y591107D01*
X283001Y591129D01*
X282891Y591154D01*
X282781Y591184D01*
X282673Y591217D01*
X282566Y591254D01*
X282460Y591294D01*
X282356Y591339D01*
X282253Y591387D01*
X282152Y591438D01*
X282053Y591493D01*
X281956Y591551D01*
X281861Y591613D01*
X281768Y591678D01*
X281678Y591746D01*
X281590Y591817D01*
X281504Y591892D01*
X281421Y591969D01*
X281341Y592049D01*
X281264Y592132D01*
X281189Y592218D01*
X281118Y592306D01*
X281050Y592396D01*
X280985Y592489D01*
X280923Y592584D01*
X280865Y592681D01*
X280810Y592780D01*
X280759Y592881D01*
X280711Y592984D01*
X280666Y593088D01*
X280626Y593194D01*
X280589Y593301D01*
X280556Y593409D01*
X280526Y593519D01*
X280501Y593629D01*
X280479Y593740D01*
X280462Y593852D01*
X280448Y593965D01*
X280438Y594078D01*
X280432Y594191D01*
X280430Y594304D01*
X292264Y591058D02*
X292264Y602742D01*
X292264Y591058D02*
X297457Y591058D01*
X302170Y591058D02*
X307363Y591058D01*
X302170Y591058D02*
X302170Y602742D01*
X307363Y602742D01*
X306064Y597549D02*
X302170Y597549D01*
X311023Y591058D02*
X318812Y602742D01*
X311023Y602742D02*
X318812Y591058D01*
X323215Y595602D02*
X331004Y595602D01*
X336056Y600146D02*
X339302Y602742D01*
X339302Y591058D01*
X342547Y591058D02*
X336056Y591058D01*
X351056Y602742D02*
X351163Y602740D01*
X351269Y602734D01*
X351375Y602724D01*
X351481Y602711D01*
X351587Y602693D01*
X351691Y602672D01*
X351795Y602647D01*
X351898Y602618D01*
X351999Y602586D01*
X352099Y602549D01*
X352198Y602509D01*
X352296Y602466D01*
X352392Y602419D01*
X352486Y602368D01*
X352578Y602314D01*
X352668Y602257D01*
X352756Y602197D01*
X352841Y602133D01*
X352924Y602066D01*
X353005Y601996D01*
X353083Y601924D01*
X353159Y601848D01*
X353231Y601770D01*
X353301Y601689D01*
X353368Y601606D01*
X353432Y601521D01*
X353492Y601433D01*
X353549Y601343D01*
X353603Y601251D01*
X353654Y601157D01*
X353701Y601061D01*
X353744Y600963D01*
X353784Y600864D01*
X353821Y600764D01*
X353853Y600663D01*
X353882Y600560D01*
X353907Y600456D01*
X353928Y600352D01*
X353946Y600246D01*
X353959Y600140D01*
X353969Y600034D01*
X353975Y599928D01*
X353977Y599821D01*
X351056Y602742D02*
X350935Y602740D01*
X350814Y602734D01*
X350694Y602724D01*
X350573Y602711D01*
X350454Y602693D01*
X350334Y602672D01*
X350216Y602647D01*
X350099Y602618D01*
X349982Y602585D01*
X349867Y602549D01*
X349753Y602508D01*
X349640Y602465D01*
X349528Y602417D01*
X349419Y602366D01*
X349311Y602311D01*
X349204Y602253D01*
X349100Y602192D01*
X348998Y602127D01*
X348898Y602059D01*
X348800Y601988D01*
X348704Y601914D01*
X348611Y601837D01*
X348521Y601756D01*
X348433Y601673D01*
X348348Y601587D01*
X348265Y601498D01*
X348186Y601407D01*
X348109Y601313D01*
X348036Y601217D01*
X347966Y601119D01*
X347899Y601018D01*
X347835Y600915D01*
X347775Y600810D01*
X347718Y600703D01*
X347664Y600595D01*
X347614Y600485D01*
X347568Y600373D01*
X347525Y600260D01*
X347486Y600145D01*
X353004Y597549D02*
X353083Y597626D01*
X353159Y597707D01*
X353232Y597790D01*
X353302Y597875D01*
X353369Y597963D01*
X353433Y598053D01*
X353493Y598145D01*
X353550Y598240D01*
X353604Y598336D01*
X353655Y598434D01*
X353702Y598534D01*
X353746Y598636D01*
X353786Y598739D01*
X353822Y598843D01*
X353854Y598949D01*
X353883Y599055D01*
X353908Y599163D01*
X353930Y599271D01*
X353947Y599381D01*
X353961Y599490D01*
X353970Y599600D01*
X353976Y599711D01*
X353978Y599821D01*
X353003Y597549D02*
X347486Y591058D01*
X353977Y591058D01*
X359466Y591058D02*
X359466Y602742D01*
X362712Y602742D01*
X362825Y602740D01*
X362938Y602734D01*
X363051Y602724D01*
X363164Y602710D01*
X363276Y602693D01*
X363387Y602671D01*
X363497Y602646D01*
X363607Y602616D01*
X363715Y602583D01*
X363822Y602546D01*
X363928Y602506D01*
X364032Y602461D01*
X364135Y602413D01*
X364236Y602362D01*
X364335Y602307D01*
X364432Y602249D01*
X364527Y602187D01*
X364620Y602122D01*
X364710Y602054D01*
X364798Y601983D01*
X364884Y601908D01*
X364967Y601831D01*
X365047Y601751D01*
X365124Y601668D01*
X365199Y601582D01*
X365270Y601494D01*
X365338Y601404D01*
X365403Y601311D01*
X365465Y601216D01*
X365523Y601119D01*
X365578Y601020D01*
X365629Y600919D01*
X365677Y600816D01*
X365722Y600712D01*
X365762Y600606D01*
X365799Y600499D01*
X365832Y600391D01*
X365862Y600281D01*
X365887Y600171D01*
X365909Y600060D01*
X365926Y599948D01*
X365940Y599835D01*
X365950Y599722D01*
X365956Y599609D01*
X365958Y599496D01*
X365956Y599383D01*
X365950Y599270D01*
X365940Y599157D01*
X365926Y599044D01*
X365909Y598932D01*
X365887Y598821D01*
X365862Y598711D01*
X365832Y598601D01*
X365799Y598493D01*
X365762Y598386D01*
X365722Y598280D01*
X365677Y598176D01*
X365629Y598073D01*
X365578Y597972D01*
X365523Y597873D01*
X365465Y597776D01*
X365403Y597681D01*
X365338Y597588D01*
X365270Y597498D01*
X365199Y597410D01*
X365124Y597324D01*
X365047Y597241D01*
X364967Y597161D01*
X364884Y597084D01*
X364798Y597009D01*
X364710Y596938D01*
X364620Y596870D01*
X364527Y596805D01*
X364432Y596743D01*
X364335Y596685D01*
X364236Y596630D01*
X364135Y596579D01*
X364032Y596531D01*
X363928Y596486D01*
X363822Y596446D01*
X363715Y596409D01*
X363607Y596376D01*
X363497Y596346D01*
X363387Y596321D01*
X363276Y596299D01*
X363164Y596282D01*
X363051Y596268D01*
X362938Y596258D01*
X362825Y596252D01*
X362712Y596250D01*
X362712Y596251D02*
X359466Y596251D01*
X371306Y591058D02*
X371306Y602742D01*
X370007Y591058D02*
X372604Y591058D01*
X372604Y602742D02*
X370007Y602742D01*
X377585Y602742D02*
X377585Y591058D01*
X384076Y591058D02*
X377585Y602742D01*
X384076Y602742D02*
X384076Y591058D01*
M02*
