G04 EAGLE Gerber X2 export*
%TF.Part,Single*%
%TF.FileFunction,Copper,L2,Bot,Mixed*%
%TF.FilePolarity,Positive*%
%TF.GenerationSoftware,Autodesk,EAGLE,8.7.1*%
%TF.CreationDate,2018-05-16T11:23:47Z*%
G75*
%MOMM*%
%FSLAX34Y34*%
%LPD*%
%AMOC8*
5,1,8,0,0,1.08239X$1,22.5*%
G01*
%ADD10C,1.930400*%
%ADD11C,1.879600*%
%ADD12C,1.016000*%


D10*
X72100Y145348D02*
X72100Y164652D01*
D11*
X97500Y164398D02*
X97500Y145602D01*
X122900Y145602D02*
X122900Y164398D01*
D10*
X473767Y164652D02*
X473767Y145348D01*
D11*
X499167Y145602D02*
X499167Y164398D01*
X524567Y164398D02*
X524567Y145602D01*
D10*
X875433Y145348D02*
X875433Y164652D01*
D11*
X900833Y164398D02*
X900833Y145602D01*
X926233Y145602D02*
X926233Y164398D01*
D10*
X1277100Y159652D02*
X1277100Y140348D01*
D11*
X1302500Y140602D02*
X1302500Y159398D01*
X1327900Y159398D02*
X1327900Y140602D01*
X310000Y79398D02*
X310000Y60602D01*
X335400Y60602D02*
X335400Y79398D01*
D12*
X522500Y155000D02*
X524567Y155000D01*
X925000Y155000D02*
X926233Y155000D01*
X1327500Y150000D02*
X1327900Y150000D01*
X304800Y76200D02*
X203200Y76200D01*
X127000Y152400D01*
X304800Y76200D02*
X310000Y70000D01*
X127000Y152400D02*
X122900Y155000D01*
X310000Y70000D02*
X310000Y45600D01*
X317500Y38100D01*
X457200Y38100D01*
X508000Y88900D01*
X520700Y101600D01*
X1295400Y101600D02*
X1327500Y133700D01*
X1327500Y150000D01*
X533400Y101600D02*
X520700Y101600D01*
X533400Y101600D02*
X914400Y101600D01*
X927100Y101600D01*
X939800Y101600D01*
X1295400Y101600D01*
X927100Y154133D02*
X926233Y155000D01*
X927100Y154133D02*
X927100Y114300D01*
X927100Y101600D01*
X914400Y101600D02*
X927100Y114300D01*
X939800Y101600D01*
X524567Y155000D02*
X520700Y151133D01*
X520700Y114300D01*
X520700Y101600D01*
X520700Y114300D02*
X533400Y101600D01*
X72500Y155000D02*
X72100Y155000D01*
X342900Y76200D02*
X393700Y76200D01*
X342900Y76200D02*
X336550Y76200D01*
X393700Y76200D02*
X469900Y152400D01*
X336550Y76200D02*
X335400Y70000D01*
X469900Y152400D02*
X473767Y155000D01*
X76200Y158750D02*
X76200Y171450D01*
X88900Y184150D01*
X234950Y184150D01*
X342900Y76200D01*
X76200Y158750D02*
X72100Y155000D01*
X335400Y70000D02*
X342900Y76200D01*
X473767Y155000D02*
X473767Y168967D01*
X508000Y203200D01*
X1223900Y203200D02*
X1277100Y150000D01*
X863600Y203200D02*
X508000Y203200D01*
X863600Y203200D02*
X876300Y203200D01*
X889000Y203200D01*
X1223900Y203200D01*
X876300Y203200D02*
X876300Y190500D01*
X876300Y155867D01*
X875433Y155000D01*
X876300Y190500D02*
X863600Y203200D01*
X876300Y190500D02*
X889000Y203200D01*
M02*
