G04 EAGLE Gerber X2 export*
%TF.Part,Single*%
%TF.FileFunction,Legend,Top,1*%
%TF.FilePolarity,Positive*%
%TF.GenerationSoftware,Autodesk,EAGLE,8.7.1*%
%TF.CreationDate,2018-05-13T19:17:34Z*%
G75*
%MOMM*%
%FSLAX34Y34*%
%LPD*%
%AMOC8*
5,1,8,0,0,1.08239X$1,22.5*%
G01*
%ADD10C,0.127000*%
%ADD11C,0.152400*%
%ADD12C,0.203200*%
%ADD13R,0.508000X0.508000*%


D10*
X650635Y276129D02*
X650635Y260635D01*
X657521Y260635D01*
X665810Y266660D02*
X669683Y266660D01*
X665810Y266661D02*
X665701Y266659D01*
X665593Y266653D01*
X665484Y266643D01*
X665376Y266630D01*
X665269Y266612D01*
X665162Y266591D01*
X665056Y266565D01*
X664952Y266536D01*
X664848Y266503D01*
X664745Y266467D01*
X664644Y266426D01*
X664545Y266383D01*
X664447Y266335D01*
X664351Y266284D01*
X664257Y266230D01*
X664164Y266172D01*
X664074Y266111D01*
X663987Y266047D01*
X663901Y265979D01*
X663818Y265909D01*
X663738Y265835D01*
X663660Y265759D01*
X663586Y265680D01*
X663514Y265599D01*
X663445Y265514D01*
X663379Y265428D01*
X663316Y265339D01*
X663257Y265248D01*
X663201Y265155D01*
X663148Y265059D01*
X663099Y264962D01*
X663053Y264864D01*
X663011Y264763D01*
X662973Y264661D01*
X662938Y264558D01*
X662907Y264454D01*
X662880Y264349D01*
X662856Y264242D01*
X662837Y264135D01*
X662821Y264028D01*
X662809Y263920D01*
X662801Y263811D01*
X662797Y263702D01*
X662797Y263594D01*
X662801Y263485D01*
X662809Y263376D01*
X662821Y263268D01*
X662837Y263161D01*
X662856Y263054D01*
X662880Y262947D01*
X662907Y262842D01*
X662938Y262738D01*
X662973Y262635D01*
X663011Y262533D01*
X663053Y262432D01*
X663099Y262334D01*
X663148Y262237D01*
X663201Y262142D01*
X663257Y262048D01*
X663316Y261957D01*
X663379Y261868D01*
X663445Y261782D01*
X663514Y261697D01*
X663586Y261616D01*
X663660Y261537D01*
X663738Y261461D01*
X663818Y261387D01*
X663901Y261317D01*
X663987Y261249D01*
X664074Y261185D01*
X664164Y261124D01*
X664257Y261066D01*
X664351Y261012D01*
X664447Y260961D01*
X664545Y260913D01*
X664644Y260870D01*
X664745Y260829D01*
X664848Y260793D01*
X664952Y260760D01*
X665056Y260731D01*
X665162Y260705D01*
X665269Y260684D01*
X665376Y260666D01*
X665484Y260653D01*
X665593Y260643D01*
X665701Y260637D01*
X665810Y260635D01*
X669683Y260635D01*
X669683Y268382D01*
X669681Y268481D01*
X669675Y268580D01*
X669666Y268678D01*
X669653Y268776D01*
X669636Y268874D01*
X669615Y268970D01*
X669591Y269066D01*
X669563Y269161D01*
X669531Y269255D01*
X669496Y269347D01*
X669457Y269438D01*
X669415Y269528D01*
X669369Y269615D01*
X669320Y269701D01*
X669268Y269785D01*
X669213Y269867D01*
X669154Y269947D01*
X669093Y270025D01*
X669029Y270100D01*
X668961Y270172D01*
X668891Y270242D01*
X668819Y270310D01*
X668744Y270374D01*
X668666Y270435D01*
X668586Y270494D01*
X668504Y270549D01*
X668420Y270601D01*
X668334Y270650D01*
X668247Y270696D01*
X668157Y270738D01*
X668066Y270777D01*
X667974Y270812D01*
X667880Y270844D01*
X667785Y270872D01*
X667689Y270896D01*
X667593Y270917D01*
X667495Y270934D01*
X667397Y270947D01*
X667299Y270956D01*
X667200Y270962D01*
X667101Y270964D01*
X663658Y270964D01*
X677536Y266660D02*
X681840Y264939D01*
X677536Y266661D02*
X677450Y266697D01*
X677365Y266738D01*
X677282Y266781D01*
X677201Y266829D01*
X677122Y266879D01*
X677045Y266933D01*
X676970Y266990D01*
X676898Y267050D01*
X676829Y267114D01*
X676762Y267180D01*
X676698Y267248D01*
X676637Y267320D01*
X676580Y267394D01*
X676525Y267470D01*
X676473Y267548D01*
X676425Y267629D01*
X676381Y267711D01*
X676339Y267796D01*
X676302Y267882D01*
X676268Y267969D01*
X676238Y268058D01*
X676211Y268148D01*
X676188Y268239D01*
X676169Y268331D01*
X676155Y268424D01*
X676143Y268517D01*
X676136Y268611D01*
X676133Y268704D01*
X676134Y268798D01*
X676139Y268892D01*
X676147Y268985D01*
X676160Y269078D01*
X676176Y269171D01*
X676197Y269262D01*
X676221Y269353D01*
X676249Y269443D01*
X676281Y269531D01*
X676316Y269618D01*
X676355Y269703D01*
X676397Y269787D01*
X676444Y269869D01*
X676493Y269948D01*
X676546Y270026D01*
X676602Y270101D01*
X676661Y270174D01*
X676723Y270245D01*
X676788Y270312D01*
X676856Y270377D01*
X676926Y270439D01*
X676999Y270498D01*
X677075Y270554D01*
X677152Y270607D01*
X677232Y270656D01*
X677314Y270702D01*
X677398Y270744D01*
X677483Y270783D01*
X677570Y270819D01*
X677658Y270850D01*
X677748Y270878D01*
X677839Y270902D01*
X677930Y270922D01*
X678023Y270939D01*
X678116Y270951D01*
X678209Y270960D01*
X678303Y270964D01*
X678397Y270965D01*
X678397Y270964D02*
X678632Y270958D01*
X678866Y270946D01*
X679101Y270929D01*
X679335Y270905D01*
X679568Y270877D01*
X679800Y270842D01*
X680032Y270802D01*
X680263Y270757D01*
X680492Y270706D01*
X680720Y270650D01*
X680947Y270588D01*
X681172Y270520D01*
X681396Y270447D01*
X681617Y270369D01*
X681837Y270286D01*
X682055Y270197D01*
X682270Y270103D01*
X681840Y264939D02*
X681926Y264903D01*
X682011Y264862D01*
X682094Y264819D01*
X682175Y264771D01*
X682254Y264721D01*
X682331Y264667D01*
X682406Y264610D01*
X682478Y264550D01*
X682547Y264486D01*
X682614Y264420D01*
X682678Y264352D01*
X682739Y264280D01*
X682796Y264206D01*
X682851Y264130D01*
X682903Y264052D01*
X682951Y263971D01*
X682995Y263889D01*
X683037Y263804D01*
X683074Y263718D01*
X683108Y263631D01*
X683138Y263542D01*
X683165Y263452D01*
X683188Y263361D01*
X683207Y263269D01*
X683221Y263176D01*
X683233Y263083D01*
X683240Y262989D01*
X683243Y262896D01*
X683242Y262802D01*
X683237Y262708D01*
X683229Y262615D01*
X683216Y262522D01*
X683200Y262429D01*
X683179Y262338D01*
X683155Y262247D01*
X683127Y262157D01*
X683095Y262069D01*
X683060Y261982D01*
X683021Y261897D01*
X682979Y261813D01*
X682932Y261731D01*
X682883Y261652D01*
X682830Y261574D01*
X682774Y261499D01*
X682715Y261426D01*
X682653Y261355D01*
X682588Y261288D01*
X682520Y261223D01*
X682450Y261161D01*
X682377Y261102D01*
X682301Y261046D01*
X682224Y260993D01*
X682144Y260944D01*
X682062Y260898D01*
X681978Y260856D01*
X681893Y260817D01*
X681806Y260781D01*
X681718Y260750D01*
X681628Y260722D01*
X681537Y260698D01*
X681446Y260678D01*
X681353Y260661D01*
X681260Y260649D01*
X681167Y260640D01*
X681073Y260636D01*
X680979Y260635D01*
X680980Y260635D02*
X680634Y260645D01*
X680290Y260662D01*
X679945Y260687D01*
X679602Y260720D01*
X679259Y260762D01*
X678917Y260812D01*
X678577Y260869D01*
X678238Y260935D01*
X677900Y261009D01*
X677565Y261091D01*
X677232Y261180D01*
X676900Y261278D01*
X676572Y261383D01*
X676245Y261496D01*
X691711Y260635D02*
X696015Y260635D01*
X691711Y260635D02*
X691612Y260637D01*
X691513Y260643D01*
X691415Y260652D01*
X691317Y260665D01*
X691219Y260682D01*
X691123Y260703D01*
X691027Y260727D01*
X690932Y260755D01*
X690838Y260787D01*
X690746Y260822D01*
X690655Y260861D01*
X690565Y260903D01*
X690478Y260949D01*
X690392Y260998D01*
X690308Y261050D01*
X690226Y261105D01*
X690146Y261164D01*
X690068Y261225D01*
X689993Y261289D01*
X689921Y261357D01*
X689851Y261427D01*
X689783Y261499D01*
X689719Y261574D01*
X689658Y261652D01*
X689599Y261732D01*
X689544Y261814D01*
X689492Y261898D01*
X689443Y261984D01*
X689397Y262071D01*
X689355Y262161D01*
X689316Y262252D01*
X689281Y262344D01*
X689249Y262438D01*
X689221Y262533D01*
X689197Y262629D01*
X689176Y262725D01*
X689159Y262823D01*
X689146Y262921D01*
X689137Y263019D01*
X689131Y263118D01*
X689129Y263217D01*
X689129Y267521D01*
X689131Y267637D01*
X689137Y267753D01*
X689147Y267869D01*
X689160Y267985D01*
X689178Y268100D01*
X689199Y268214D01*
X689225Y268328D01*
X689254Y268440D01*
X689287Y268552D01*
X689324Y268662D01*
X689364Y268771D01*
X689408Y268879D01*
X689456Y268985D01*
X689507Y269089D01*
X689562Y269192D01*
X689620Y269293D01*
X689681Y269391D01*
X689746Y269488D01*
X689814Y269582D01*
X689885Y269674D01*
X689960Y269764D01*
X690037Y269851D01*
X690117Y269935D01*
X690200Y270016D01*
X690286Y270095D01*
X690374Y270171D01*
X690465Y270244D01*
X690558Y270313D01*
X690653Y270380D01*
X690751Y270443D01*
X690851Y270503D01*
X690952Y270559D01*
X691056Y270612D01*
X691161Y270662D01*
X691268Y270707D01*
X691376Y270750D01*
X691486Y270788D01*
X691597Y270823D01*
X691709Y270854D01*
X691822Y270881D01*
X691936Y270905D01*
X692051Y270924D01*
X692166Y270940D01*
X692282Y270952D01*
X692398Y270960D01*
X692514Y270964D01*
X692630Y270964D01*
X692746Y270960D01*
X692862Y270952D01*
X692978Y270940D01*
X693093Y270924D01*
X693208Y270905D01*
X693322Y270881D01*
X693435Y270854D01*
X693547Y270823D01*
X693658Y270788D01*
X693768Y270750D01*
X693876Y270707D01*
X693983Y270662D01*
X694088Y270612D01*
X694192Y270559D01*
X694294Y270503D01*
X694393Y270443D01*
X694491Y270380D01*
X694586Y270313D01*
X694679Y270244D01*
X694770Y270171D01*
X694858Y270095D01*
X694944Y270016D01*
X695027Y269935D01*
X695107Y269851D01*
X695184Y269764D01*
X695259Y269674D01*
X695330Y269582D01*
X695398Y269488D01*
X695463Y269391D01*
X695524Y269293D01*
X695582Y269192D01*
X695637Y269089D01*
X695688Y268985D01*
X695736Y268879D01*
X695780Y268771D01*
X695820Y268662D01*
X695857Y268552D01*
X695890Y268440D01*
X695919Y268328D01*
X695945Y268214D01*
X695966Y268100D01*
X695984Y267985D01*
X695997Y267869D01*
X696007Y267753D01*
X696013Y267637D01*
X696015Y267521D01*
X696015Y265800D01*
X689129Y265800D01*
X702586Y270964D02*
X702586Y260635D01*
X702586Y270964D02*
X707751Y270964D01*
X707751Y269243D01*
X721638Y266660D02*
X725942Y264939D01*
X721638Y266661D02*
X721552Y266697D01*
X721467Y266738D01*
X721384Y266781D01*
X721303Y266829D01*
X721224Y266879D01*
X721147Y266933D01*
X721072Y266990D01*
X721000Y267050D01*
X720931Y267114D01*
X720864Y267180D01*
X720800Y267248D01*
X720739Y267320D01*
X720682Y267394D01*
X720627Y267470D01*
X720575Y267548D01*
X720527Y267629D01*
X720483Y267711D01*
X720441Y267796D01*
X720404Y267882D01*
X720370Y267969D01*
X720340Y268058D01*
X720313Y268148D01*
X720290Y268239D01*
X720271Y268331D01*
X720257Y268424D01*
X720245Y268517D01*
X720238Y268611D01*
X720235Y268704D01*
X720236Y268798D01*
X720241Y268892D01*
X720249Y268985D01*
X720262Y269078D01*
X720278Y269171D01*
X720299Y269262D01*
X720323Y269353D01*
X720351Y269443D01*
X720383Y269531D01*
X720418Y269618D01*
X720457Y269703D01*
X720499Y269787D01*
X720546Y269869D01*
X720595Y269948D01*
X720648Y270026D01*
X720704Y270101D01*
X720763Y270174D01*
X720825Y270245D01*
X720890Y270312D01*
X720958Y270377D01*
X721028Y270439D01*
X721101Y270498D01*
X721177Y270554D01*
X721254Y270607D01*
X721334Y270656D01*
X721416Y270702D01*
X721500Y270744D01*
X721585Y270783D01*
X721672Y270819D01*
X721760Y270850D01*
X721850Y270878D01*
X721941Y270902D01*
X722032Y270922D01*
X722125Y270939D01*
X722218Y270951D01*
X722311Y270960D01*
X722405Y270964D01*
X722499Y270965D01*
X722499Y270964D02*
X722734Y270958D01*
X722968Y270946D01*
X723203Y270929D01*
X723437Y270905D01*
X723670Y270877D01*
X723902Y270842D01*
X724134Y270802D01*
X724365Y270757D01*
X724594Y270706D01*
X724822Y270650D01*
X725049Y270588D01*
X725274Y270520D01*
X725498Y270447D01*
X725719Y270369D01*
X725939Y270286D01*
X726157Y270197D01*
X726372Y270103D01*
X725942Y264939D02*
X726028Y264903D01*
X726113Y264862D01*
X726196Y264819D01*
X726277Y264771D01*
X726356Y264721D01*
X726433Y264667D01*
X726508Y264610D01*
X726580Y264550D01*
X726649Y264486D01*
X726716Y264420D01*
X726780Y264352D01*
X726841Y264280D01*
X726898Y264206D01*
X726953Y264130D01*
X727005Y264052D01*
X727053Y263971D01*
X727097Y263889D01*
X727139Y263804D01*
X727176Y263718D01*
X727210Y263631D01*
X727240Y263542D01*
X727267Y263452D01*
X727290Y263361D01*
X727309Y263269D01*
X727323Y263176D01*
X727335Y263083D01*
X727342Y262989D01*
X727345Y262896D01*
X727344Y262802D01*
X727339Y262708D01*
X727331Y262615D01*
X727318Y262522D01*
X727302Y262429D01*
X727281Y262338D01*
X727257Y262247D01*
X727229Y262157D01*
X727197Y262069D01*
X727162Y261982D01*
X727123Y261897D01*
X727081Y261813D01*
X727034Y261731D01*
X726985Y261652D01*
X726932Y261574D01*
X726876Y261499D01*
X726817Y261426D01*
X726755Y261355D01*
X726690Y261288D01*
X726622Y261223D01*
X726552Y261161D01*
X726479Y261102D01*
X726403Y261046D01*
X726326Y260993D01*
X726246Y260944D01*
X726164Y260898D01*
X726080Y260856D01*
X725995Y260817D01*
X725908Y260781D01*
X725820Y260750D01*
X725730Y260722D01*
X725639Y260698D01*
X725548Y260678D01*
X725455Y260661D01*
X725362Y260649D01*
X725269Y260640D01*
X725175Y260636D01*
X725081Y260635D01*
X724735Y260645D01*
X724391Y260662D01*
X724046Y260687D01*
X723703Y260720D01*
X723360Y260762D01*
X723018Y260812D01*
X722678Y260869D01*
X722339Y260935D01*
X722001Y261009D01*
X721666Y261091D01*
X721333Y261180D01*
X721001Y261278D01*
X720673Y261383D01*
X720346Y261496D01*
X733205Y260635D02*
X733205Y270964D01*
X732774Y275268D02*
X732774Y276129D01*
X733635Y276129D01*
X733635Y275268D01*
X732774Y275268D01*
X745994Y276129D02*
X745994Y260635D01*
X741690Y260635D01*
X741591Y260637D01*
X741492Y260643D01*
X741394Y260652D01*
X741296Y260665D01*
X741198Y260682D01*
X741102Y260703D01*
X741006Y260727D01*
X740911Y260755D01*
X740817Y260787D01*
X740725Y260822D01*
X740634Y260861D01*
X740544Y260903D01*
X740457Y260949D01*
X740371Y260998D01*
X740287Y261050D01*
X740205Y261105D01*
X740125Y261164D01*
X740047Y261225D01*
X739972Y261289D01*
X739900Y261357D01*
X739830Y261427D01*
X739762Y261499D01*
X739698Y261574D01*
X739637Y261652D01*
X739578Y261732D01*
X739523Y261814D01*
X739471Y261898D01*
X739422Y261984D01*
X739376Y262071D01*
X739334Y262161D01*
X739295Y262252D01*
X739260Y262344D01*
X739228Y262438D01*
X739200Y262533D01*
X739176Y262629D01*
X739155Y262725D01*
X739138Y262823D01*
X739125Y262921D01*
X739116Y263019D01*
X739110Y263118D01*
X739108Y263217D01*
X739108Y268382D01*
X739110Y268481D01*
X739116Y268580D01*
X739125Y268678D01*
X739138Y268776D01*
X739155Y268874D01*
X739176Y268970D01*
X739200Y269066D01*
X739228Y269161D01*
X739260Y269255D01*
X739295Y269347D01*
X739334Y269438D01*
X739376Y269528D01*
X739422Y269615D01*
X739471Y269701D01*
X739523Y269785D01*
X739578Y269867D01*
X739637Y269947D01*
X739698Y270025D01*
X739762Y270100D01*
X739830Y270172D01*
X739900Y270242D01*
X739972Y270310D01*
X740047Y270374D01*
X740125Y270435D01*
X740205Y270494D01*
X740287Y270549D01*
X740371Y270601D01*
X740457Y270650D01*
X740544Y270696D01*
X740634Y270738D01*
X740725Y270777D01*
X740817Y270812D01*
X740911Y270844D01*
X741006Y270872D01*
X741102Y270896D01*
X741198Y270917D01*
X741296Y270934D01*
X741394Y270947D01*
X741492Y270956D01*
X741591Y270962D01*
X741690Y270964D01*
X745994Y270964D01*
X755138Y260635D02*
X759442Y260635D01*
X755138Y260635D02*
X755039Y260637D01*
X754940Y260643D01*
X754842Y260652D01*
X754744Y260665D01*
X754646Y260682D01*
X754550Y260703D01*
X754454Y260727D01*
X754359Y260755D01*
X754265Y260787D01*
X754173Y260822D01*
X754082Y260861D01*
X753992Y260903D01*
X753905Y260949D01*
X753819Y260998D01*
X753735Y261050D01*
X753653Y261105D01*
X753573Y261164D01*
X753495Y261225D01*
X753420Y261289D01*
X753348Y261357D01*
X753278Y261427D01*
X753210Y261499D01*
X753146Y261574D01*
X753085Y261652D01*
X753026Y261732D01*
X752971Y261814D01*
X752919Y261898D01*
X752870Y261984D01*
X752824Y262071D01*
X752782Y262161D01*
X752743Y262252D01*
X752708Y262344D01*
X752676Y262438D01*
X752648Y262533D01*
X752624Y262629D01*
X752603Y262725D01*
X752586Y262823D01*
X752573Y262921D01*
X752564Y263019D01*
X752558Y263118D01*
X752556Y263217D01*
X752556Y267521D01*
X752558Y267637D01*
X752564Y267753D01*
X752574Y267869D01*
X752587Y267985D01*
X752605Y268100D01*
X752626Y268214D01*
X752652Y268328D01*
X752681Y268440D01*
X752714Y268552D01*
X752751Y268662D01*
X752791Y268771D01*
X752835Y268879D01*
X752883Y268985D01*
X752934Y269089D01*
X752989Y269192D01*
X753047Y269293D01*
X753108Y269391D01*
X753173Y269488D01*
X753241Y269582D01*
X753312Y269674D01*
X753387Y269764D01*
X753464Y269851D01*
X753544Y269935D01*
X753627Y270016D01*
X753713Y270095D01*
X753801Y270171D01*
X753892Y270244D01*
X753985Y270313D01*
X754080Y270380D01*
X754178Y270443D01*
X754278Y270503D01*
X754379Y270559D01*
X754483Y270612D01*
X754588Y270662D01*
X754695Y270707D01*
X754803Y270750D01*
X754913Y270788D01*
X755024Y270823D01*
X755136Y270854D01*
X755249Y270881D01*
X755363Y270905D01*
X755478Y270924D01*
X755593Y270940D01*
X755709Y270952D01*
X755825Y270960D01*
X755941Y270964D01*
X756057Y270964D01*
X756173Y270960D01*
X756289Y270952D01*
X756405Y270940D01*
X756520Y270924D01*
X756635Y270905D01*
X756749Y270881D01*
X756862Y270854D01*
X756974Y270823D01*
X757085Y270788D01*
X757195Y270750D01*
X757303Y270707D01*
X757410Y270662D01*
X757515Y270612D01*
X757619Y270559D01*
X757721Y270503D01*
X757820Y270443D01*
X757918Y270380D01*
X758013Y270313D01*
X758106Y270244D01*
X758197Y270171D01*
X758285Y270095D01*
X758371Y270016D01*
X758454Y269935D01*
X758534Y269851D01*
X758611Y269764D01*
X758686Y269674D01*
X758757Y269582D01*
X758825Y269488D01*
X758890Y269391D01*
X758951Y269293D01*
X759009Y269192D01*
X759064Y269089D01*
X759115Y268985D01*
X759163Y268879D01*
X759207Y268771D01*
X759247Y268662D01*
X759284Y268552D01*
X759317Y268440D01*
X759346Y268328D01*
X759372Y268214D01*
X759393Y268100D01*
X759411Y267985D01*
X759424Y267869D01*
X759434Y267753D01*
X759440Y267637D01*
X759442Y267521D01*
X759442Y265800D01*
X752556Y265800D01*
D11*
X1150762Y37018D02*
X1154374Y20762D01*
X1157987Y31599D01*
X1161599Y20762D01*
X1165212Y37018D01*
X1173757Y20762D02*
X1178273Y20762D01*
X1173757Y20762D02*
X1173656Y20764D01*
X1173555Y20770D01*
X1173454Y20779D01*
X1173353Y20792D01*
X1173253Y20809D01*
X1173154Y20830D01*
X1173056Y20854D01*
X1172959Y20882D01*
X1172862Y20914D01*
X1172767Y20949D01*
X1172674Y20988D01*
X1172582Y21030D01*
X1172491Y21076D01*
X1172403Y21125D01*
X1172316Y21177D01*
X1172231Y21233D01*
X1172148Y21291D01*
X1172068Y21353D01*
X1171990Y21418D01*
X1171914Y21485D01*
X1171841Y21555D01*
X1171771Y21628D01*
X1171704Y21704D01*
X1171639Y21782D01*
X1171577Y21862D01*
X1171519Y21945D01*
X1171463Y22030D01*
X1171411Y22116D01*
X1171362Y22205D01*
X1171316Y22296D01*
X1171274Y22388D01*
X1171235Y22481D01*
X1171200Y22576D01*
X1171168Y22673D01*
X1171140Y22770D01*
X1171116Y22868D01*
X1171095Y22967D01*
X1171078Y23067D01*
X1171065Y23168D01*
X1171056Y23269D01*
X1171050Y23370D01*
X1171048Y23471D01*
X1171048Y27987D01*
X1171050Y28106D01*
X1171056Y28226D01*
X1171066Y28345D01*
X1171080Y28463D01*
X1171097Y28582D01*
X1171119Y28699D01*
X1171144Y28816D01*
X1171174Y28931D01*
X1171207Y29046D01*
X1171244Y29160D01*
X1171284Y29272D01*
X1171329Y29383D01*
X1171377Y29492D01*
X1171428Y29600D01*
X1171483Y29706D01*
X1171542Y29810D01*
X1171604Y29912D01*
X1171669Y30012D01*
X1171738Y30110D01*
X1171810Y30206D01*
X1171885Y30299D01*
X1171962Y30389D01*
X1172043Y30477D01*
X1172127Y30562D01*
X1172214Y30644D01*
X1172303Y30724D01*
X1172395Y30800D01*
X1172489Y30874D01*
X1172586Y30944D01*
X1172684Y31011D01*
X1172785Y31075D01*
X1172889Y31135D01*
X1172994Y31192D01*
X1173101Y31245D01*
X1173209Y31295D01*
X1173319Y31341D01*
X1173431Y31383D01*
X1173544Y31422D01*
X1173658Y31457D01*
X1173773Y31488D01*
X1173890Y31516D01*
X1174007Y31539D01*
X1174124Y31559D01*
X1174243Y31575D01*
X1174362Y31587D01*
X1174481Y31595D01*
X1174600Y31599D01*
X1174720Y31599D01*
X1174839Y31595D01*
X1174958Y31587D01*
X1175077Y31575D01*
X1175196Y31559D01*
X1175313Y31539D01*
X1175430Y31516D01*
X1175547Y31488D01*
X1175662Y31457D01*
X1175776Y31422D01*
X1175889Y31383D01*
X1176001Y31341D01*
X1176111Y31295D01*
X1176219Y31245D01*
X1176326Y31192D01*
X1176431Y31135D01*
X1176535Y31075D01*
X1176636Y31011D01*
X1176734Y30944D01*
X1176831Y30874D01*
X1176925Y30800D01*
X1177017Y30724D01*
X1177106Y30644D01*
X1177193Y30562D01*
X1177277Y30477D01*
X1177358Y30389D01*
X1177435Y30299D01*
X1177510Y30206D01*
X1177582Y30110D01*
X1177651Y30012D01*
X1177716Y29912D01*
X1177778Y29810D01*
X1177837Y29706D01*
X1177892Y29600D01*
X1177943Y29492D01*
X1177991Y29383D01*
X1178036Y29272D01*
X1178076Y29160D01*
X1178113Y29046D01*
X1178146Y28931D01*
X1178176Y28816D01*
X1178201Y28699D01*
X1178223Y28582D01*
X1178240Y28463D01*
X1178254Y28345D01*
X1178264Y28226D01*
X1178270Y28106D01*
X1178272Y27987D01*
X1178273Y27987D02*
X1178273Y26181D01*
X1171048Y26181D01*
X1185116Y20762D02*
X1185116Y31599D01*
X1189631Y31599D01*
X1189735Y31597D01*
X1189838Y31591D01*
X1189942Y31581D01*
X1190045Y31567D01*
X1190147Y31549D01*
X1190248Y31528D01*
X1190349Y31502D01*
X1190448Y31473D01*
X1190547Y31440D01*
X1190644Y31403D01*
X1190739Y31362D01*
X1190833Y31318D01*
X1190925Y31270D01*
X1191015Y31219D01*
X1191104Y31164D01*
X1191190Y31106D01*
X1191273Y31044D01*
X1191355Y30980D01*
X1191433Y30912D01*
X1191509Y30842D01*
X1191583Y30769D01*
X1191653Y30692D01*
X1191721Y30614D01*
X1191785Y30532D01*
X1191847Y30449D01*
X1191905Y30363D01*
X1191960Y30274D01*
X1192011Y30184D01*
X1192059Y30092D01*
X1192103Y29998D01*
X1192144Y29903D01*
X1192181Y29806D01*
X1192214Y29707D01*
X1192243Y29608D01*
X1192269Y29507D01*
X1192290Y29406D01*
X1192308Y29304D01*
X1192322Y29201D01*
X1192332Y29097D01*
X1192338Y28994D01*
X1192340Y28890D01*
X1192341Y28890D02*
X1192341Y20762D01*
X1206336Y20762D02*
X1206336Y37018D01*
X1206336Y20762D02*
X1201820Y20762D01*
X1201719Y20764D01*
X1201618Y20770D01*
X1201517Y20779D01*
X1201416Y20792D01*
X1201316Y20809D01*
X1201217Y20830D01*
X1201119Y20854D01*
X1201022Y20882D01*
X1200925Y20914D01*
X1200830Y20949D01*
X1200737Y20988D01*
X1200645Y21030D01*
X1200554Y21076D01*
X1200466Y21125D01*
X1200379Y21177D01*
X1200294Y21233D01*
X1200211Y21291D01*
X1200131Y21353D01*
X1200053Y21418D01*
X1199977Y21485D01*
X1199904Y21555D01*
X1199834Y21628D01*
X1199767Y21704D01*
X1199702Y21782D01*
X1199640Y21862D01*
X1199582Y21945D01*
X1199526Y22030D01*
X1199474Y22116D01*
X1199425Y22205D01*
X1199379Y22296D01*
X1199337Y22388D01*
X1199298Y22481D01*
X1199263Y22576D01*
X1199231Y22673D01*
X1199203Y22770D01*
X1199179Y22868D01*
X1199158Y22967D01*
X1199141Y23067D01*
X1199128Y23168D01*
X1199119Y23269D01*
X1199113Y23370D01*
X1199111Y23471D01*
X1199111Y28890D01*
X1199113Y28991D01*
X1199119Y29092D01*
X1199128Y29193D01*
X1199141Y29294D01*
X1199158Y29394D01*
X1199179Y29493D01*
X1199203Y29591D01*
X1199231Y29688D01*
X1199263Y29785D01*
X1199298Y29880D01*
X1199337Y29973D01*
X1199379Y30065D01*
X1199425Y30156D01*
X1199474Y30244D01*
X1199526Y30331D01*
X1199582Y30416D01*
X1199640Y30499D01*
X1199702Y30579D01*
X1199767Y30657D01*
X1199834Y30733D01*
X1199904Y30806D01*
X1199977Y30876D01*
X1200053Y30943D01*
X1200131Y31008D01*
X1200211Y31070D01*
X1200294Y31128D01*
X1200379Y31184D01*
X1200466Y31236D01*
X1200554Y31285D01*
X1200645Y31331D01*
X1200737Y31373D01*
X1200830Y31412D01*
X1200925Y31447D01*
X1201022Y31479D01*
X1201119Y31507D01*
X1201217Y31531D01*
X1201316Y31552D01*
X1201416Y31569D01*
X1201517Y31582D01*
X1201618Y31591D01*
X1201719Y31597D01*
X1201820Y31599D01*
X1206336Y31599D01*
X1213252Y27987D02*
X1213252Y24374D01*
X1213252Y27987D02*
X1213254Y28106D01*
X1213260Y28226D01*
X1213270Y28345D01*
X1213284Y28463D01*
X1213301Y28582D01*
X1213323Y28699D01*
X1213348Y28816D01*
X1213378Y28931D01*
X1213411Y29046D01*
X1213448Y29160D01*
X1213488Y29272D01*
X1213533Y29383D01*
X1213581Y29492D01*
X1213632Y29600D01*
X1213687Y29706D01*
X1213746Y29810D01*
X1213808Y29912D01*
X1213873Y30012D01*
X1213942Y30110D01*
X1214014Y30206D01*
X1214089Y30299D01*
X1214166Y30389D01*
X1214247Y30477D01*
X1214331Y30562D01*
X1214418Y30644D01*
X1214507Y30724D01*
X1214599Y30800D01*
X1214693Y30874D01*
X1214790Y30944D01*
X1214888Y31011D01*
X1214989Y31075D01*
X1215093Y31135D01*
X1215198Y31192D01*
X1215305Y31245D01*
X1215413Y31295D01*
X1215523Y31341D01*
X1215635Y31383D01*
X1215748Y31422D01*
X1215862Y31457D01*
X1215977Y31488D01*
X1216094Y31516D01*
X1216211Y31539D01*
X1216328Y31559D01*
X1216447Y31575D01*
X1216566Y31587D01*
X1216685Y31595D01*
X1216804Y31599D01*
X1216924Y31599D01*
X1217043Y31595D01*
X1217162Y31587D01*
X1217281Y31575D01*
X1217400Y31559D01*
X1217517Y31539D01*
X1217634Y31516D01*
X1217751Y31488D01*
X1217866Y31457D01*
X1217980Y31422D01*
X1218093Y31383D01*
X1218205Y31341D01*
X1218315Y31295D01*
X1218423Y31245D01*
X1218530Y31192D01*
X1218635Y31135D01*
X1218739Y31075D01*
X1218840Y31011D01*
X1218938Y30944D01*
X1219035Y30874D01*
X1219129Y30800D01*
X1219221Y30724D01*
X1219310Y30644D01*
X1219397Y30562D01*
X1219481Y30477D01*
X1219562Y30389D01*
X1219639Y30299D01*
X1219714Y30206D01*
X1219786Y30110D01*
X1219855Y30012D01*
X1219920Y29912D01*
X1219982Y29810D01*
X1220041Y29706D01*
X1220096Y29600D01*
X1220147Y29492D01*
X1220195Y29383D01*
X1220240Y29272D01*
X1220280Y29160D01*
X1220317Y29046D01*
X1220350Y28931D01*
X1220380Y28816D01*
X1220405Y28699D01*
X1220427Y28582D01*
X1220444Y28463D01*
X1220458Y28345D01*
X1220468Y28226D01*
X1220474Y28106D01*
X1220476Y27987D01*
X1220477Y27987D02*
X1220477Y24374D01*
X1220476Y24374D02*
X1220474Y24255D01*
X1220468Y24135D01*
X1220458Y24016D01*
X1220444Y23898D01*
X1220427Y23779D01*
X1220405Y23662D01*
X1220380Y23545D01*
X1220350Y23430D01*
X1220317Y23315D01*
X1220280Y23201D01*
X1220240Y23089D01*
X1220195Y22978D01*
X1220147Y22869D01*
X1220096Y22761D01*
X1220041Y22655D01*
X1219982Y22551D01*
X1219920Y22449D01*
X1219855Y22349D01*
X1219786Y22251D01*
X1219714Y22155D01*
X1219639Y22062D01*
X1219562Y21972D01*
X1219481Y21884D01*
X1219397Y21799D01*
X1219310Y21717D01*
X1219221Y21637D01*
X1219129Y21561D01*
X1219035Y21487D01*
X1218938Y21417D01*
X1218840Y21350D01*
X1218739Y21286D01*
X1218635Y21226D01*
X1218530Y21169D01*
X1218423Y21116D01*
X1218315Y21066D01*
X1218205Y21020D01*
X1218093Y20978D01*
X1217980Y20939D01*
X1217866Y20904D01*
X1217751Y20873D01*
X1217634Y20845D01*
X1217517Y20822D01*
X1217400Y20802D01*
X1217281Y20786D01*
X1217162Y20774D01*
X1217043Y20766D01*
X1216924Y20762D01*
X1216804Y20762D01*
X1216685Y20766D01*
X1216566Y20774D01*
X1216447Y20786D01*
X1216328Y20802D01*
X1216211Y20822D01*
X1216094Y20845D01*
X1215977Y20873D01*
X1215862Y20904D01*
X1215748Y20939D01*
X1215635Y20978D01*
X1215523Y21020D01*
X1215413Y21066D01*
X1215305Y21116D01*
X1215198Y21169D01*
X1215093Y21226D01*
X1214989Y21286D01*
X1214888Y21350D01*
X1214790Y21417D01*
X1214693Y21487D01*
X1214599Y21561D01*
X1214507Y21637D01*
X1214418Y21717D01*
X1214331Y21799D01*
X1214247Y21884D01*
X1214166Y21972D01*
X1214089Y22062D01*
X1214014Y22155D01*
X1213942Y22251D01*
X1213873Y22349D01*
X1213808Y22449D01*
X1213746Y22551D01*
X1213687Y22655D01*
X1213632Y22761D01*
X1213581Y22869D01*
X1213533Y22978D01*
X1213488Y23089D01*
X1213448Y23201D01*
X1213411Y23315D01*
X1213378Y23430D01*
X1213348Y23545D01*
X1213323Y23662D01*
X1213301Y23779D01*
X1213284Y23898D01*
X1213270Y24016D01*
X1213260Y24135D01*
X1213254Y24255D01*
X1213252Y24374D01*
X1227405Y20762D02*
X1227405Y31599D01*
X1232824Y31599D01*
X1232824Y29793D01*
X1251184Y37018D02*
X1251309Y37016D01*
X1251434Y37010D01*
X1251559Y37001D01*
X1251683Y36987D01*
X1251807Y36970D01*
X1251931Y36949D01*
X1252053Y36924D01*
X1252175Y36895D01*
X1252296Y36863D01*
X1252416Y36827D01*
X1252535Y36787D01*
X1252652Y36744D01*
X1252768Y36697D01*
X1252883Y36646D01*
X1252995Y36592D01*
X1253107Y36534D01*
X1253216Y36474D01*
X1253323Y36409D01*
X1253429Y36342D01*
X1253532Y36271D01*
X1253633Y36197D01*
X1253732Y36120D01*
X1253828Y36040D01*
X1253922Y35957D01*
X1254013Y35872D01*
X1254102Y35783D01*
X1254187Y35692D01*
X1254270Y35598D01*
X1254350Y35502D01*
X1254427Y35403D01*
X1254501Y35302D01*
X1254572Y35199D01*
X1254639Y35093D01*
X1254704Y34986D01*
X1254764Y34877D01*
X1254822Y34765D01*
X1254876Y34653D01*
X1254927Y34538D01*
X1254974Y34422D01*
X1255017Y34305D01*
X1255057Y34186D01*
X1255093Y34066D01*
X1255125Y33945D01*
X1255154Y33823D01*
X1255179Y33701D01*
X1255200Y33577D01*
X1255217Y33453D01*
X1255231Y33329D01*
X1255240Y33204D01*
X1255246Y33079D01*
X1255248Y32954D01*
X1251184Y37018D02*
X1251041Y37016D01*
X1250899Y37010D01*
X1250756Y37000D01*
X1250614Y36987D01*
X1250473Y36969D01*
X1250331Y36948D01*
X1250191Y36923D01*
X1250051Y36894D01*
X1249912Y36861D01*
X1249774Y36824D01*
X1249637Y36784D01*
X1249502Y36740D01*
X1249367Y36692D01*
X1249234Y36640D01*
X1249102Y36585D01*
X1248972Y36526D01*
X1248844Y36464D01*
X1248717Y36398D01*
X1248592Y36329D01*
X1248469Y36257D01*
X1248349Y36181D01*
X1248230Y36102D01*
X1248113Y36019D01*
X1247999Y35934D01*
X1247887Y35845D01*
X1247778Y35754D01*
X1247671Y35659D01*
X1247566Y35562D01*
X1247465Y35461D01*
X1247366Y35358D01*
X1247270Y35253D01*
X1247177Y35144D01*
X1247087Y35033D01*
X1247000Y34920D01*
X1246916Y34805D01*
X1246836Y34687D01*
X1246758Y34567D01*
X1246684Y34445D01*
X1246614Y34321D01*
X1246546Y34195D01*
X1246483Y34067D01*
X1246422Y33938D01*
X1246365Y33807D01*
X1246312Y33675D01*
X1246263Y33541D01*
X1246217Y33406D01*
X1253892Y29793D02*
X1253986Y29885D01*
X1254076Y29979D01*
X1254164Y30076D01*
X1254249Y30176D01*
X1254331Y30278D01*
X1254410Y30383D01*
X1254485Y30490D01*
X1254557Y30599D01*
X1254626Y30710D01*
X1254692Y30824D01*
X1254754Y30939D01*
X1254813Y31056D01*
X1254868Y31175D01*
X1254919Y31295D01*
X1254967Y31417D01*
X1255012Y31540D01*
X1255052Y31664D01*
X1255089Y31790D01*
X1255122Y31917D01*
X1255151Y32044D01*
X1255177Y32173D01*
X1255198Y32302D01*
X1255216Y32432D01*
X1255229Y32562D01*
X1255239Y32692D01*
X1255245Y32823D01*
X1255247Y32954D01*
X1253893Y29793D02*
X1246217Y20762D01*
X1255248Y20762D01*
X1261848Y28890D02*
X1261852Y29210D01*
X1261863Y29529D01*
X1261882Y29849D01*
X1261909Y30167D01*
X1261943Y30485D01*
X1261985Y30802D01*
X1262035Y31118D01*
X1262092Y31433D01*
X1262156Y31746D01*
X1262228Y32058D01*
X1262307Y32368D01*
X1262394Y32675D01*
X1262488Y32981D01*
X1262589Y33284D01*
X1262698Y33585D01*
X1262813Y33883D01*
X1262936Y34179D01*
X1263066Y34471D01*
X1263203Y34760D01*
X1263202Y34761D02*
X1263241Y34869D01*
X1263284Y34976D01*
X1263330Y35081D01*
X1263381Y35185D01*
X1263434Y35287D01*
X1263491Y35387D01*
X1263552Y35485D01*
X1263616Y35580D01*
X1263683Y35674D01*
X1263754Y35765D01*
X1263827Y35854D01*
X1263904Y35940D01*
X1263983Y36023D01*
X1264065Y36104D01*
X1264150Y36182D01*
X1264238Y36256D01*
X1264328Y36328D01*
X1264420Y36396D01*
X1264515Y36462D01*
X1264612Y36524D01*
X1264711Y36582D01*
X1264813Y36638D01*
X1264915Y36689D01*
X1265020Y36737D01*
X1265126Y36782D01*
X1265234Y36823D01*
X1265343Y36860D01*
X1265453Y36893D01*
X1265565Y36922D01*
X1265677Y36948D01*
X1265790Y36970D01*
X1265904Y36987D01*
X1266018Y37001D01*
X1266133Y37011D01*
X1266248Y37017D01*
X1266363Y37019D01*
X1266363Y37018D02*
X1266478Y37016D01*
X1266593Y37010D01*
X1266708Y37000D01*
X1266822Y36986D01*
X1266936Y36969D01*
X1267049Y36947D01*
X1267161Y36921D01*
X1267273Y36892D01*
X1267383Y36859D01*
X1267492Y36822D01*
X1267600Y36781D01*
X1267706Y36736D01*
X1267811Y36688D01*
X1267913Y36637D01*
X1268014Y36581D01*
X1268114Y36523D01*
X1268211Y36461D01*
X1268305Y36396D01*
X1268398Y36327D01*
X1268488Y36255D01*
X1268576Y36181D01*
X1268661Y36103D01*
X1268743Y36022D01*
X1268822Y35939D01*
X1268899Y35853D01*
X1268972Y35764D01*
X1269043Y35673D01*
X1269110Y35579D01*
X1269174Y35484D01*
X1269235Y35386D01*
X1269292Y35286D01*
X1269345Y35184D01*
X1269396Y35080D01*
X1269442Y34975D01*
X1269485Y34868D01*
X1269524Y34760D01*
X1269661Y34471D01*
X1269791Y34179D01*
X1269914Y33883D01*
X1270029Y33585D01*
X1270138Y33284D01*
X1270239Y32981D01*
X1270333Y32675D01*
X1270420Y32368D01*
X1270499Y32058D01*
X1270571Y31746D01*
X1270635Y31433D01*
X1270692Y31118D01*
X1270742Y30802D01*
X1270784Y30485D01*
X1270818Y30167D01*
X1270845Y29849D01*
X1270864Y29529D01*
X1270875Y29210D01*
X1270879Y28890D01*
X1261848Y28890D02*
X1261852Y28570D01*
X1261863Y28251D01*
X1261882Y27931D01*
X1261909Y27613D01*
X1261943Y27295D01*
X1261985Y26978D01*
X1262035Y26662D01*
X1262092Y26347D01*
X1262156Y26034D01*
X1262228Y25722D01*
X1262307Y25412D01*
X1262394Y25105D01*
X1262488Y24799D01*
X1262589Y24496D01*
X1262698Y24195D01*
X1262813Y23897D01*
X1262936Y23601D01*
X1263066Y23309D01*
X1263203Y23020D01*
X1263202Y23020D02*
X1263241Y22912D01*
X1263284Y22805D01*
X1263330Y22700D01*
X1263381Y22596D01*
X1263434Y22494D01*
X1263491Y22394D01*
X1263552Y22296D01*
X1263616Y22201D01*
X1263683Y22107D01*
X1263754Y22016D01*
X1263827Y21927D01*
X1263904Y21841D01*
X1263983Y21758D01*
X1264065Y21677D01*
X1264150Y21599D01*
X1264238Y21525D01*
X1264328Y21453D01*
X1264421Y21384D01*
X1264515Y21319D01*
X1264612Y21257D01*
X1264712Y21199D01*
X1264813Y21143D01*
X1264915Y21092D01*
X1265020Y21044D01*
X1265126Y20999D01*
X1265234Y20958D01*
X1265343Y20921D01*
X1265453Y20888D01*
X1265565Y20859D01*
X1265677Y20833D01*
X1265790Y20811D01*
X1265904Y20794D01*
X1266018Y20780D01*
X1266133Y20770D01*
X1266248Y20764D01*
X1266363Y20762D01*
X1269523Y23020D02*
X1269660Y23309D01*
X1269790Y23601D01*
X1269913Y23897D01*
X1270028Y24195D01*
X1270137Y24496D01*
X1270238Y24799D01*
X1270332Y25105D01*
X1270419Y25412D01*
X1270498Y25722D01*
X1270570Y26034D01*
X1270634Y26347D01*
X1270691Y26662D01*
X1270741Y26978D01*
X1270783Y27295D01*
X1270817Y27613D01*
X1270844Y27931D01*
X1270863Y28251D01*
X1270874Y28570D01*
X1270878Y28890D01*
X1269524Y23020D02*
X1269485Y22912D01*
X1269442Y22805D01*
X1269396Y22700D01*
X1269345Y22596D01*
X1269292Y22494D01*
X1269235Y22394D01*
X1269174Y22296D01*
X1269110Y22201D01*
X1269043Y22107D01*
X1268972Y22016D01*
X1268899Y21927D01*
X1268822Y21841D01*
X1268743Y21758D01*
X1268661Y21677D01*
X1268576Y21599D01*
X1268488Y21525D01*
X1268398Y21453D01*
X1268305Y21384D01*
X1268211Y21319D01*
X1268114Y21257D01*
X1268014Y21199D01*
X1267913Y21143D01*
X1267810Y21092D01*
X1267706Y21044D01*
X1267600Y20999D01*
X1267492Y20958D01*
X1267383Y20921D01*
X1267273Y20888D01*
X1267161Y20859D01*
X1267049Y20833D01*
X1266936Y20811D01*
X1266822Y20794D01*
X1266708Y20780D01*
X1266593Y20770D01*
X1266478Y20764D01*
X1266363Y20762D01*
X1262751Y24374D02*
X1269976Y33406D01*
X1277479Y33406D02*
X1281995Y37018D01*
X1281995Y20762D01*
X1286510Y20762D02*
X1277479Y20762D01*
X1293110Y25278D02*
X1293112Y25411D01*
X1293118Y25543D01*
X1293128Y25675D01*
X1293141Y25807D01*
X1293159Y25939D01*
X1293180Y26069D01*
X1293205Y26200D01*
X1293234Y26329D01*
X1293267Y26457D01*
X1293303Y26585D01*
X1293343Y26711D01*
X1293387Y26836D01*
X1293435Y26960D01*
X1293486Y27082D01*
X1293541Y27203D01*
X1293599Y27322D01*
X1293661Y27440D01*
X1293726Y27555D01*
X1293795Y27669D01*
X1293866Y27780D01*
X1293942Y27889D01*
X1294020Y27996D01*
X1294101Y28101D01*
X1294186Y28203D01*
X1294273Y28303D01*
X1294363Y28400D01*
X1294456Y28495D01*
X1294552Y28586D01*
X1294650Y28675D01*
X1294751Y28761D01*
X1294855Y28844D01*
X1294961Y28924D01*
X1295069Y29000D01*
X1295179Y29074D01*
X1295292Y29144D01*
X1295406Y29211D01*
X1295523Y29274D01*
X1295641Y29334D01*
X1295761Y29391D01*
X1295883Y29444D01*
X1296006Y29493D01*
X1296130Y29539D01*
X1296256Y29581D01*
X1296383Y29619D01*
X1296511Y29654D01*
X1296640Y29685D01*
X1296769Y29712D01*
X1296900Y29735D01*
X1297031Y29755D01*
X1297163Y29770D01*
X1297295Y29782D01*
X1297427Y29790D01*
X1297560Y29794D01*
X1297692Y29794D01*
X1297825Y29790D01*
X1297957Y29782D01*
X1298089Y29770D01*
X1298221Y29755D01*
X1298352Y29735D01*
X1298483Y29712D01*
X1298612Y29685D01*
X1298741Y29654D01*
X1298869Y29619D01*
X1298996Y29581D01*
X1299122Y29539D01*
X1299246Y29493D01*
X1299369Y29444D01*
X1299491Y29391D01*
X1299611Y29334D01*
X1299729Y29274D01*
X1299846Y29211D01*
X1299960Y29144D01*
X1300073Y29074D01*
X1300183Y29000D01*
X1300291Y28924D01*
X1300397Y28844D01*
X1300501Y28761D01*
X1300602Y28675D01*
X1300700Y28586D01*
X1300796Y28495D01*
X1300889Y28400D01*
X1300979Y28303D01*
X1301066Y28203D01*
X1301151Y28101D01*
X1301232Y27996D01*
X1301310Y27889D01*
X1301386Y27780D01*
X1301457Y27669D01*
X1301526Y27555D01*
X1301591Y27440D01*
X1301653Y27322D01*
X1301711Y27203D01*
X1301766Y27082D01*
X1301817Y26960D01*
X1301865Y26836D01*
X1301909Y26711D01*
X1301949Y26585D01*
X1301985Y26457D01*
X1302018Y26329D01*
X1302047Y26200D01*
X1302072Y26069D01*
X1302093Y25939D01*
X1302111Y25807D01*
X1302124Y25675D01*
X1302134Y25543D01*
X1302140Y25411D01*
X1302142Y25278D01*
X1302140Y25145D01*
X1302134Y25013D01*
X1302124Y24881D01*
X1302111Y24749D01*
X1302093Y24617D01*
X1302072Y24487D01*
X1302047Y24356D01*
X1302018Y24227D01*
X1301985Y24099D01*
X1301949Y23971D01*
X1301909Y23845D01*
X1301865Y23720D01*
X1301817Y23596D01*
X1301766Y23474D01*
X1301711Y23353D01*
X1301653Y23234D01*
X1301591Y23116D01*
X1301526Y23001D01*
X1301457Y22887D01*
X1301386Y22776D01*
X1301310Y22667D01*
X1301232Y22560D01*
X1301151Y22455D01*
X1301066Y22353D01*
X1300979Y22253D01*
X1300889Y22156D01*
X1300796Y22061D01*
X1300700Y21970D01*
X1300602Y21881D01*
X1300501Y21795D01*
X1300397Y21712D01*
X1300291Y21632D01*
X1300183Y21556D01*
X1300073Y21482D01*
X1299960Y21412D01*
X1299846Y21345D01*
X1299729Y21282D01*
X1299611Y21222D01*
X1299491Y21165D01*
X1299369Y21112D01*
X1299246Y21063D01*
X1299122Y21017D01*
X1298996Y20975D01*
X1298869Y20937D01*
X1298741Y20902D01*
X1298612Y20871D01*
X1298483Y20844D01*
X1298352Y20821D01*
X1298221Y20801D01*
X1298089Y20786D01*
X1297957Y20774D01*
X1297825Y20766D01*
X1297692Y20762D01*
X1297560Y20762D01*
X1297427Y20766D01*
X1297295Y20774D01*
X1297163Y20786D01*
X1297031Y20801D01*
X1296900Y20821D01*
X1296769Y20844D01*
X1296640Y20871D01*
X1296511Y20902D01*
X1296383Y20937D01*
X1296256Y20975D01*
X1296130Y21017D01*
X1296006Y21063D01*
X1295883Y21112D01*
X1295761Y21165D01*
X1295641Y21222D01*
X1295523Y21282D01*
X1295406Y21345D01*
X1295292Y21412D01*
X1295179Y21482D01*
X1295069Y21556D01*
X1294961Y21632D01*
X1294855Y21712D01*
X1294751Y21795D01*
X1294650Y21881D01*
X1294552Y21970D01*
X1294456Y22061D01*
X1294363Y22156D01*
X1294273Y22253D01*
X1294186Y22353D01*
X1294101Y22455D01*
X1294020Y22560D01*
X1293942Y22667D01*
X1293866Y22776D01*
X1293795Y22887D01*
X1293726Y23001D01*
X1293661Y23116D01*
X1293599Y23234D01*
X1293541Y23353D01*
X1293486Y23474D01*
X1293435Y23596D01*
X1293387Y23720D01*
X1293343Y23845D01*
X1293303Y23971D01*
X1293267Y24099D01*
X1293234Y24227D01*
X1293205Y24356D01*
X1293180Y24487D01*
X1293159Y24617D01*
X1293141Y24749D01*
X1293128Y24881D01*
X1293118Y25013D01*
X1293112Y25145D01*
X1293110Y25278D01*
X1294014Y33406D02*
X1294016Y33525D01*
X1294022Y33645D01*
X1294032Y33764D01*
X1294046Y33882D01*
X1294063Y34001D01*
X1294085Y34118D01*
X1294110Y34235D01*
X1294140Y34350D01*
X1294173Y34465D01*
X1294210Y34579D01*
X1294250Y34691D01*
X1294295Y34802D01*
X1294343Y34911D01*
X1294394Y35019D01*
X1294449Y35125D01*
X1294508Y35229D01*
X1294570Y35331D01*
X1294635Y35431D01*
X1294704Y35529D01*
X1294776Y35625D01*
X1294851Y35718D01*
X1294928Y35808D01*
X1295009Y35896D01*
X1295093Y35981D01*
X1295180Y36063D01*
X1295269Y36143D01*
X1295361Y36219D01*
X1295455Y36293D01*
X1295552Y36363D01*
X1295650Y36430D01*
X1295751Y36494D01*
X1295855Y36554D01*
X1295960Y36611D01*
X1296067Y36664D01*
X1296175Y36714D01*
X1296285Y36760D01*
X1296397Y36802D01*
X1296510Y36841D01*
X1296624Y36876D01*
X1296739Y36907D01*
X1296856Y36935D01*
X1296973Y36958D01*
X1297090Y36978D01*
X1297209Y36994D01*
X1297328Y37006D01*
X1297447Y37014D01*
X1297566Y37018D01*
X1297686Y37018D01*
X1297805Y37014D01*
X1297924Y37006D01*
X1298043Y36994D01*
X1298162Y36978D01*
X1298279Y36958D01*
X1298396Y36935D01*
X1298513Y36907D01*
X1298628Y36876D01*
X1298742Y36841D01*
X1298855Y36802D01*
X1298967Y36760D01*
X1299077Y36714D01*
X1299185Y36664D01*
X1299292Y36611D01*
X1299397Y36554D01*
X1299501Y36494D01*
X1299602Y36430D01*
X1299700Y36363D01*
X1299797Y36293D01*
X1299891Y36219D01*
X1299983Y36143D01*
X1300072Y36063D01*
X1300159Y35981D01*
X1300243Y35896D01*
X1300324Y35808D01*
X1300401Y35718D01*
X1300476Y35625D01*
X1300548Y35529D01*
X1300617Y35431D01*
X1300682Y35331D01*
X1300744Y35229D01*
X1300803Y35125D01*
X1300858Y35019D01*
X1300909Y34911D01*
X1300957Y34802D01*
X1301002Y34691D01*
X1301042Y34579D01*
X1301079Y34465D01*
X1301112Y34350D01*
X1301142Y34235D01*
X1301167Y34118D01*
X1301189Y34001D01*
X1301206Y33882D01*
X1301220Y33764D01*
X1301230Y33645D01*
X1301236Y33525D01*
X1301238Y33406D01*
X1301236Y33287D01*
X1301230Y33167D01*
X1301220Y33048D01*
X1301206Y32930D01*
X1301189Y32811D01*
X1301167Y32694D01*
X1301142Y32577D01*
X1301112Y32462D01*
X1301079Y32347D01*
X1301042Y32233D01*
X1301002Y32121D01*
X1300957Y32010D01*
X1300909Y31901D01*
X1300858Y31793D01*
X1300803Y31687D01*
X1300744Y31583D01*
X1300682Y31481D01*
X1300617Y31381D01*
X1300548Y31283D01*
X1300476Y31187D01*
X1300401Y31094D01*
X1300324Y31004D01*
X1300243Y30916D01*
X1300159Y30831D01*
X1300072Y30749D01*
X1299983Y30669D01*
X1299891Y30593D01*
X1299797Y30519D01*
X1299700Y30449D01*
X1299602Y30382D01*
X1299501Y30318D01*
X1299397Y30258D01*
X1299292Y30201D01*
X1299185Y30148D01*
X1299077Y30098D01*
X1298967Y30052D01*
X1298855Y30010D01*
X1298742Y29971D01*
X1298628Y29936D01*
X1298513Y29905D01*
X1298396Y29877D01*
X1298279Y29854D01*
X1298162Y29834D01*
X1298043Y29818D01*
X1297924Y29806D01*
X1297805Y29798D01*
X1297686Y29794D01*
X1297566Y29794D01*
X1297447Y29798D01*
X1297328Y29806D01*
X1297209Y29818D01*
X1297090Y29834D01*
X1296973Y29854D01*
X1296856Y29877D01*
X1296739Y29905D01*
X1296624Y29936D01*
X1296510Y29971D01*
X1296397Y30010D01*
X1296285Y30052D01*
X1296175Y30098D01*
X1296067Y30148D01*
X1295960Y30201D01*
X1295855Y30258D01*
X1295751Y30318D01*
X1295650Y30382D01*
X1295552Y30449D01*
X1295455Y30519D01*
X1295361Y30593D01*
X1295269Y30669D01*
X1295180Y30749D01*
X1295093Y30831D01*
X1295009Y30916D01*
X1294928Y31004D01*
X1294851Y31094D01*
X1294776Y31187D01*
X1294704Y31283D01*
X1294635Y31381D01*
X1294570Y31481D01*
X1294508Y31583D01*
X1294449Y31687D01*
X1294394Y31793D01*
X1294343Y31901D01*
X1294295Y32010D01*
X1294250Y32121D01*
X1294210Y32233D01*
X1294173Y32347D01*
X1294140Y32462D01*
X1294110Y32577D01*
X1294085Y32694D01*
X1294063Y32811D01*
X1294046Y32930D01*
X1294032Y33048D01*
X1294022Y33167D01*
X1294016Y33287D01*
X1294014Y33406D01*
D12*
X116550Y167700D02*
X110200Y161350D01*
X116550Y167700D02*
X129250Y167700D01*
X135600Y161350D01*
X135600Y148650D02*
X129250Y142300D01*
X116550Y142300D01*
X110200Y148650D01*
X78450Y167700D02*
X65750Y167700D01*
X78450Y167700D02*
X84800Y161350D01*
X84800Y148650D02*
X78450Y142300D01*
X84800Y161350D02*
X91150Y167700D01*
X103850Y167700D01*
X110200Y161350D01*
X110200Y148650D02*
X103850Y142300D01*
X91150Y142300D01*
X84800Y148650D01*
X59400Y148650D02*
X59400Y161350D01*
X65750Y167700D01*
X59400Y148650D02*
X65750Y142300D01*
X78450Y142300D01*
X135600Y148650D02*
X135600Y161350D01*
D13*
X97500Y155000D03*
X72100Y155000D03*
D10*
X61644Y170677D02*
X61644Y174431D01*
X61643Y170677D02*
X61641Y170612D01*
X61635Y170548D01*
X61625Y170484D01*
X61612Y170420D01*
X61594Y170358D01*
X61573Y170297D01*
X61549Y170237D01*
X61520Y170179D01*
X61488Y170122D01*
X61453Y170068D01*
X61415Y170016D01*
X61373Y169966D01*
X61329Y169919D01*
X61282Y169875D01*
X61232Y169833D01*
X61180Y169795D01*
X61126Y169760D01*
X61069Y169728D01*
X61011Y169699D01*
X60951Y169675D01*
X60890Y169654D01*
X60828Y169636D01*
X60764Y169623D01*
X60700Y169613D01*
X60636Y169607D01*
X60571Y169605D01*
X60035Y169605D01*
X64592Y173359D02*
X65932Y174431D01*
X65932Y169605D01*
X64592Y169605D02*
X67273Y169605D01*
D12*
X511867Y161350D02*
X518217Y167700D01*
X530917Y167700D01*
X537267Y161350D01*
X537267Y148650D02*
X530917Y142300D01*
X518217Y142300D01*
X511867Y148650D01*
X480117Y167700D02*
X467417Y167700D01*
X480117Y167700D02*
X486467Y161350D01*
X486467Y148650D02*
X480117Y142300D01*
X486467Y161350D02*
X492817Y167700D01*
X505517Y167700D01*
X511867Y161350D01*
X511867Y148650D02*
X505517Y142300D01*
X492817Y142300D01*
X486467Y148650D01*
X461067Y148650D02*
X461067Y161350D01*
X467417Y167700D01*
X461067Y148650D02*
X467417Y142300D01*
X480117Y142300D01*
X537267Y148650D02*
X537267Y161350D01*
D13*
X499167Y155000D03*
X473767Y155000D03*
D10*
X463310Y170677D02*
X463310Y174431D01*
X463310Y170677D02*
X463308Y170612D01*
X463302Y170548D01*
X463292Y170484D01*
X463279Y170420D01*
X463261Y170358D01*
X463240Y170297D01*
X463216Y170237D01*
X463187Y170179D01*
X463155Y170122D01*
X463120Y170068D01*
X463082Y170016D01*
X463040Y169966D01*
X462996Y169919D01*
X462949Y169875D01*
X462899Y169833D01*
X462847Y169795D01*
X462793Y169760D01*
X462736Y169728D01*
X462678Y169699D01*
X462618Y169675D01*
X462557Y169654D01*
X462495Y169636D01*
X462431Y169623D01*
X462367Y169613D01*
X462303Y169607D01*
X462238Y169605D01*
X461702Y169605D01*
X467733Y174431D02*
X467801Y174429D01*
X467868Y174423D01*
X467935Y174414D01*
X468002Y174401D01*
X468067Y174384D01*
X468132Y174363D01*
X468195Y174339D01*
X468257Y174311D01*
X468317Y174280D01*
X468375Y174246D01*
X468431Y174208D01*
X468486Y174168D01*
X468537Y174124D01*
X468586Y174077D01*
X468633Y174028D01*
X468677Y173977D01*
X468717Y173922D01*
X468755Y173866D01*
X468789Y173808D01*
X468820Y173748D01*
X468848Y173686D01*
X468872Y173623D01*
X468893Y173558D01*
X468910Y173493D01*
X468923Y173426D01*
X468932Y173359D01*
X468938Y173292D01*
X468940Y173224D01*
X467733Y174431D02*
X467655Y174429D01*
X467577Y174423D01*
X467500Y174413D01*
X467423Y174400D01*
X467347Y174382D01*
X467272Y174361D01*
X467198Y174336D01*
X467126Y174307D01*
X467055Y174275D01*
X466986Y174239D01*
X466918Y174200D01*
X466853Y174157D01*
X466790Y174111D01*
X466729Y174062D01*
X466671Y174010D01*
X466616Y173955D01*
X466563Y173898D01*
X466514Y173838D01*
X466467Y173775D01*
X466424Y173711D01*
X466384Y173644D01*
X466347Y173575D01*
X466314Y173504D01*
X466284Y173432D01*
X466258Y173359D01*
X468537Y172286D02*
X468586Y172335D01*
X468633Y172387D01*
X468676Y172442D01*
X468717Y172499D01*
X468755Y172558D01*
X468789Y172619D01*
X468820Y172682D01*
X468848Y172746D01*
X468872Y172812D01*
X468892Y172878D01*
X468909Y172946D01*
X468922Y173015D01*
X468931Y173084D01*
X468937Y173154D01*
X468939Y173224D01*
X468537Y172286D02*
X466258Y169605D01*
X468939Y169605D01*
D12*
X913533Y161350D02*
X919883Y167700D01*
X932583Y167700D01*
X938933Y161350D01*
X938933Y148650D02*
X932583Y142300D01*
X919883Y142300D01*
X913533Y148650D01*
X881783Y167700D02*
X869083Y167700D01*
X881783Y167700D02*
X888133Y161350D01*
X888133Y148650D02*
X881783Y142300D01*
X888133Y161350D02*
X894483Y167700D01*
X907183Y167700D01*
X913533Y161350D01*
X913533Y148650D02*
X907183Y142300D01*
X894483Y142300D01*
X888133Y148650D01*
X862733Y148650D02*
X862733Y161350D01*
X869083Y167700D01*
X862733Y148650D02*
X869083Y142300D01*
X881783Y142300D01*
X938933Y148650D02*
X938933Y161350D01*
D13*
X900833Y155000D03*
X875433Y155000D03*
D10*
X864977Y170677D02*
X864977Y174431D01*
X864976Y170677D02*
X864974Y170612D01*
X864968Y170548D01*
X864958Y170484D01*
X864945Y170420D01*
X864927Y170358D01*
X864906Y170297D01*
X864882Y170237D01*
X864853Y170179D01*
X864821Y170122D01*
X864786Y170068D01*
X864748Y170016D01*
X864706Y169966D01*
X864662Y169919D01*
X864615Y169875D01*
X864565Y169833D01*
X864513Y169795D01*
X864459Y169760D01*
X864402Y169728D01*
X864344Y169699D01*
X864284Y169675D01*
X864223Y169654D01*
X864161Y169636D01*
X864097Y169623D01*
X864033Y169613D01*
X863969Y169607D01*
X863904Y169605D01*
X863368Y169605D01*
X867925Y169605D02*
X869265Y169605D01*
X869336Y169607D01*
X869408Y169613D01*
X869478Y169622D01*
X869548Y169635D01*
X869618Y169652D01*
X869686Y169673D01*
X869753Y169697D01*
X869819Y169725D01*
X869883Y169756D01*
X869946Y169791D01*
X870006Y169829D01*
X870065Y169870D01*
X870121Y169914D01*
X870175Y169961D01*
X870226Y170010D01*
X870274Y170063D01*
X870320Y170118D01*
X870362Y170175D01*
X870402Y170235D01*
X870438Y170296D01*
X870471Y170360D01*
X870500Y170425D01*
X870526Y170491D01*
X870549Y170559D01*
X870568Y170628D01*
X870583Y170698D01*
X870594Y170768D01*
X870602Y170839D01*
X870606Y170910D01*
X870606Y170982D01*
X870602Y171053D01*
X870594Y171124D01*
X870583Y171194D01*
X870568Y171264D01*
X870549Y171333D01*
X870526Y171401D01*
X870500Y171467D01*
X870471Y171532D01*
X870438Y171596D01*
X870402Y171657D01*
X870362Y171717D01*
X870320Y171774D01*
X870274Y171829D01*
X870226Y171882D01*
X870175Y171931D01*
X870121Y171978D01*
X870065Y172022D01*
X870006Y172063D01*
X869946Y172101D01*
X869883Y172136D01*
X869819Y172167D01*
X869753Y172195D01*
X869686Y172219D01*
X869618Y172240D01*
X869548Y172257D01*
X869478Y172270D01*
X869408Y172279D01*
X869336Y172285D01*
X869265Y172287D01*
X869534Y174431D02*
X867925Y174431D01*
X869534Y174431D02*
X869599Y174429D01*
X869663Y174423D01*
X869727Y174413D01*
X869791Y174400D01*
X869853Y174382D01*
X869914Y174361D01*
X869974Y174337D01*
X870032Y174308D01*
X870089Y174276D01*
X870143Y174241D01*
X870195Y174203D01*
X870245Y174161D01*
X870292Y174117D01*
X870336Y174070D01*
X870378Y174020D01*
X870416Y173968D01*
X870451Y173914D01*
X870483Y173857D01*
X870512Y173799D01*
X870536Y173739D01*
X870557Y173678D01*
X870575Y173616D01*
X870588Y173552D01*
X870598Y173488D01*
X870604Y173424D01*
X870606Y173359D01*
X870604Y173294D01*
X870598Y173230D01*
X870588Y173166D01*
X870575Y173102D01*
X870557Y173040D01*
X870536Y172979D01*
X870512Y172919D01*
X870483Y172861D01*
X870451Y172804D01*
X870416Y172750D01*
X870378Y172698D01*
X870336Y172648D01*
X870292Y172601D01*
X870245Y172557D01*
X870195Y172515D01*
X870143Y172477D01*
X870089Y172442D01*
X870032Y172410D01*
X869974Y172381D01*
X869914Y172357D01*
X869853Y172336D01*
X869791Y172318D01*
X869727Y172305D01*
X869663Y172295D01*
X869599Y172289D01*
X869534Y172287D01*
X869534Y172286D02*
X868461Y172286D01*
D12*
X1315200Y156350D02*
X1321550Y162700D01*
X1334250Y162700D01*
X1340600Y156350D01*
X1340600Y143650D02*
X1334250Y137300D01*
X1321550Y137300D01*
X1315200Y143650D01*
X1283450Y162700D02*
X1270750Y162700D01*
X1283450Y162700D02*
X1289800Y156350D01*
X1289800Y143650D02*
X1283450Y137300D01*
X1289800Y156350D02*
X1296150Y162700D01*
X1308850Y162700D01*
X1315200Y156350D01*
X1315200Y143650D02*
X1308850Y137300D01*
X1296150Y137300D01*
X1289800Y143650D01*
X1264400Y143650D02*
X1264400Y156350D01*
X1270750Y162700D01*
X1264400Y143650D02*
X1270750Y137300D01*
X1283450Y137300D01*
X1340600Y143650D02*
X1340600Y156350D01*
D13*
X1302500Y150000D03*
X1277100Y150000D03*
D10*
X1266644Y165677D02*
X1266644Y169431D01*
X1266643Y165677D02*
X1266641Y165612D01*
X1266635Y165548D01*
X1266625Y165484D01*
X1266612Y165420D01*
X1266594Y165358D01*
X1266573Y165297D01*
X1266549Y165237D01*
X1266520Y165179D01*
X1266488Y165122D01*
X1266453Y165068D01*
X1266415Y165016D01*
X1266373Y164966D01*
X1266329Y164919D01*
X1266282Y164875D01*
X1266232Y164833D01*
X1266180Y164795D01*
X1266126Y164760D01*
X1266069Y164728D01*
X1266011Y164699D01*
X1265951Y164675D01*
X1265890Y164654D01*
X1265828Y164636D01*
X1265764Y164623D01*
X1265700Y164613D01*
X1265636Y164607D01*
X1265571Y164605D01*
X1265035Y164605D01*
X1269591Y165677D02*
X1270664Y169431D01*
X1269591Y165677D02*
X1272273Y165677D01*
X1271468Y164605D02*
X1271468Y166750D01*
D12*
X316350Y82700D02*
X303650Y82700D01*
X316350Y82700D02*
X322700Y76350D01*
X322700Y63650D02*
X316350Y57300D01*
X322700Y76350D02*
X329050Y82700D01*
X341750Y82700D01*
X348100Y76350D01*
X348100Y63650D02*
X341750Y57300D01*
X329050Y57300D01*
X322700Y63650D01*
X297300Y63650D02*
X297300Y76350D01*
X303650Y82700D01*
X297300Y63650D02*
X303650Y57300D01*
X316350Y57300D01*
X348100Y63650D02*
X348100Y76350D01*
D10*
X299544Y85677D02*
X299544Y89431D01*
X299543Y85677D02*
X299541Y85612D01*
X299535Y85548D01*
X299525Y85484D01*
X299512Y85420D01*
X299494Y85358D01*
X299473Y85297D01*
X299449Y85237D01*
X299420Y85179D01*
X299388Y85122D01*
X299353Y85068D01*
X299315Y85016D01*
X299273Y84966D01*
X299229Y84919D01*
X299182Y84875D01*
X299132Y84833D01*
X299080Y84795D01*
X299026Y84760D01*
X298969Y84728D01*
X298911Y84699D01*
X298851Y84675D01*
X298790Y84654D01*
X298728Y84636D01*
X298664Y84623D01*
X298600Y84613D01*
X298536Y84607D01*
X298471Y84605D01*
X297935Y84605D01*
X302492Y84605D02*
X304100Y84605D01*
X304165Y84607D01*
X304229Y84613D01*
X304293Y84623D01*
X304357Y84636D01*
X304419Y84654D01*
X304480Y84675D01*
X304540Y84699D01*
X304598Y84728D01*
X304655Y84760D01*
X304709Y84795D01*
X304761Y84833D01*
X304811Y84875D01*
X304858Y84919D01*
X304902Y84966D01*
X304944Y85016D01*
X304982Y85068D01*
X305017Y85122D01*
X305049Y85179D01*
X305078Y85237D01*
X305102Y85297D01*
X305123Y85358D01*
X305141Y85420D01*
X305154Y85484D01*
X305164Y85548D01*
X305170Y85612D01*
X305172Y85677D01*
X305173Y85677D02*
X305173Y86214D01*
X305172Y86214D02*
X305170Y86279D01*
X305164Y86343D01*
X305154Y86407D01*
X305141Y86471D01*
X305123Y86533D01*
X305102Y86594D01*
X305078Y86654D01*
X305049Y86712D01*
X305017Y86769D01*
X304982Y86823D01*
X304944Y86875D01*
X304902Y86925D01*
X304858Y86972D01*
X304811Y87016D01*
X304761Y87058D01*
X304709Y87096D01*
X304655Y87131D01*
X304598Y87163D01*
X304540Y87192D01*
X304480Y87216D01*
X304419Y87237D01*
X304357Y87255D01*
X304293Y87268D01*
X304229Y87278D01*
X304165Y87284D01*
X304100Y87286D01*
X302492Y87286D01*
X302492Y89431D01*
X305173Y89431D01*
M02*
