G04 EAGLE Gerber X2 export*
%TF.Part,Single*%
%TF.FileFunction,Copper,L2,Bot,Mixed*%
%TF.FilePolarity,Positive*%
%TF.GenerationSoftware,Autodesk,EAGLE,8.7.1*%
%TF.CreationDate,2018-05-14T10:07:05Z*%
G75*
%MOMM*%
%FSLAX34Y34*%
%LPD*%
%AMOC8*
5,1,8,0,0,1.08239X$1,22.5*%
G01*
%ADD10C,1.879600*%
%ADD11C,4.216000*%
%ADD12C,3.816000*%
%ADD13C,1.930400*%
%ADD14C,1.320800*%
%ADD15R,2.100000X2.100000*%
%ADD16C,1.016000*%
%ADD17C,1.270000*%

G36*
X1513784Y-27927D02*
X1513784Y-27927D01*
X1513980Y-27924D01*
X1514102Y-27907D01*
X1514225Y-27899D01*
X1514417Y-27863D01*
X1514611Y-27835D01*
X1514730Y-27803D01*
X1514851Y-27780D01*
X1515037Y-27720D01*
X1515226Y-27668D01*
X1515340Y-27621D01*
X1515457Y-27583D01*
X1515634Y-27500D01*
X1515815Y-27425D01*
X1515922Y-27365D01*
X1516033Y-27312D01*
X1516199Y-27207D01*
X1516369Y-27111D01*
X1516467Y-27037D01*
X1516571Y-26971D01*
X1516723Y-26847D01*
X1516879Y-26729D01*
X1516968Y-26644D01*
X1517063Y-26566D01*
X1517197Y-26423D01*
X1517338Y-26287D01*
X1517415Y-26191D01*
X1517499Y-26102D01*
X1517615Y-25943D01*
X1517737Y-25791D01*
X1517802Y-25686D01*
X1517874Y-25587D01*
X1517969Y-25415D01*
X1518072Y-25248D01*
X1518122Y-25136D01*
X1518182Y-25029D01*
X1518254Y-24846D01*
X1518335Y-24668D01*
X1518372Y-24551D01*
X1518417Y-24436D01*
X1518466Y-24247D01*
X1518524Y-24060D01*
X1518546Y-23939D01*
X1518577Y-23820D01*
X1518602Y-23625D01*
X1518636Y-23432D01*
X1518642Y-23310D01*
X1518658Y-23188D01*
X1518658Y-22991D01*
X1518668Y-22796D01*
X1518658Y-22674D01*
X1518659Y-22550D01*
X1518635Y-22356D01*
X1518620Y-22161D01*
X1518595Y-22040D01*
X1518580Y-21918D01*
X1518532Y-21728D01*
X1518493Y-21536D01*
X1518454Y-21423D01*
X1518423Y-21301D01*
X1518345Y-21103D01*
X1518281Y-20916D01*
X1516539Y-16710D01*
X1516539Y-8690D01*
X1519609Y-1280D01*
X1525280Y4391D01*
X1532690Y7461D01*
X1540710Y7461D01*
X1544716Y5801D01*
X1544901Y5738D01*
X1545084Y5666D01*
X1545203Y5635D01*
X1545319Y5595D01*
X1545511Y5555D01*
X1545700Y5506D01*
X1545822Y5491D01*
X1545943Y5466D01*
X1546138Y5450D01*
X1546332Y5425D01*
X1546455Y5425D01*
X1546578Y5415D01*
X1546774Y5424D01*
X1546970Y5424D01*
X1547092Y5439D01*
X1547214Y5445D01*
X1547407Y5479D01*
X1547602Y5503D01*
X1547721Y5533D01*
X1547842Y5554D01*
X1548029Y5612D01*
X1548219Y5660D01*
X1548334Y5705D01*
X1548451Y5741D01*
X1548630Y5821D01*
X1548812Y5893D01*
X1548920Y5952D01*
X1549032Y6003D01*
X1549199Y6105D01*
X1549371Y6199D01*
X1549471Y6271D01*
X1549576Y6335D01*
X1549729Y6457D01*
X1549888Y6572D01*
X1549977Y6656D01*
X1550074Y6733D01*
X1550210Y6873D01*
X1550353Y7007D01*
X1550432Y7101D01*
X1550518Y7190D01*
X1550636Y7346D01*
X1550761Y7497D01*
X1550827Y7600D01*
X1550901Y7699D01*
X1550998Y7869D01*
X1551104Y8034D01*
X1551156Y8145D01*
X1551217Y8252D01*
X1551293Y8432D01*
X1551377Y8609D01*
X1551415Y8726D01*
X1551462Y8840D01*
X1551514Y9029D01*
X1551576Y9215D01*
X1551599Y9335D01*
X1551632Y9454D01*
X1551660Y9648D01*
X1551697Y9840D01*
X1551705Y9960D01*
X1551723Y10085D01*
X1551727Y10297D01*
X1551739Y10494D01*
X1551739Y903906D01*
X1551727Y904101D01*
X1551724Y904297D01*
X1551707Y904419D01*
X1551699Y904542D01*
X1551663Y904734D01*
X1551635Y904928D01*
X1551603Y905047D01*
X1551580Y905168D01*
X1551520Y905354D01*
X1551468Y905543D01*
X1551421Y905657D01*
X1551383Y905774D01*
X1551300Y905951D01*
X1551225Y906132D01*
X1551165Y906239D01*
X1551112Y906350D01*
X1551007Y906516D01*
X1550911Y906686D01*
X1550837Y906785D01*
X1550771Y906889D01*
X1550647Y907040D01*
X1550529Y907197D01*
X1550444Y907285D01*
X1550366Y907380D01*
X1550223Y907514D01*
X1550087Y907655D01*
X1549991Y907732D01*
X1549902Y907816D01*
X1549743Y907932D01*
X1549591Y908055D01*
X1549486Y908119D01*
X1549387Y908191D01*
X1549215Y908286D01*
X1549048Y908389D01*
X1548936Y908440D01*
X1548829Y908499D01*
X1548646Y908572D01*
X1548468Y908653D01*
X1548351Y908689D01*
X1548236Y908734D01*
X1548047Y908784D01*
X1547860Y908842D01*
X1547739Y908863D01*
X1547620Y908894D01*
X1547425Y908919D01*
X1547232Y908953D01*
X1547110Y908959D01*
X1546988Y908975D01*
X1546791Y908975D01*
X1546596Y908985D01*
X1546474Y908976D01*
X1546350Y908976D01*
X1546156Y908952D01*
X1545961Y908937D01*
X1545840Y908912D01*
X1545718Y908897D01*
X1545528Y908849D01*
X1545336Y908810D01*
X1545223Y908771D01*
X1545101Y908740D01*
X1544903Y908662D01*
X1544716Y908599D01*
X1540710Y906939D01*
X1532690Y906939D01*
X1525280Y910009D01*
X1519609Y915680D01*
X1516539Y923090D01*
X1516539Y931110D01*
X1516915Y932016D01*
X1516978Y932202D01*
X1517050Y932384D01*
X1517081Y932503D01*
X1517121Y932619D01*
X1517161Y932811D01*
X1517210Y933000D01*
X1517225Y933122D01*
X1517250Y933243D01*
X1517266Y933438D01*
X1517291Y933632D01*
X1517291Y933755D01*
X1517301Y933878D01*
X1517291Y934074D01*
X1517292Y934270D01*
X1517277Y934392D01*
X1517271Y934514D01*
X1517237Y934707D01*
X1517213Y934902D01*
X1517183Y935021D01*
X1517162Y935142D01*
X1517104Y935329D01*
X1517056Y935519D01*
X1517011Y935634D01*
X1516975Y935751D01*
X1516895Y935930D01*
X1516823Y936112D01*
X1516764Y936220D01*
X1516713Y936332D01*
X1516611Y936499D01*
X1516517Y936671D01*
X1516445Y936771D01*
X1516381Y936876D01*
X1516259Y937029D01*
X1516144Y937188D01*
X1516060Y937277D01*
X1515983Y937374D01*
X1515843Y937510D01*
X1515709Y937653D01*
X1515614Y937732D01*
X1515526Y937818D01*
X1515370Y937935D01*
X1515219Y938061D01*
X1515116Y938127D01*
X1515017Y938201D01*
X1514847Y938298D01*
X1514682Y938404D01*
X1514571Y938456D01*
X1514464Y938517D01*
X1514284Y938593D01*
X1514107Y938677D01*
X1513990Y938715D01*
X1513876Y938762D01*
X1513687Y938814D01*
X1513501Y938876D01*
X1513381Y938899D01*
X1513262Y938932D01*
X1513068Y938960D01*
X1512876Y938997D01*
X1512756Y939005D01*
X1512631Y939023D01*
X1512419Y939027D01*
X1512222Y939039D01*
X443578Y939039D01*
X443383Y939027D01*
X443187Y939024D01*
X443065Y939007D01*
X442942Y938999D01*
X442750Y938963D01*
X442556Y938935D01*
X442437Y938903D01*
X442316Y938880D01*
X442130Y938820D01*
X441941Y938768D01*
X441827Y938721D01*
X441710Y938683D01*
X441533Y938600D01*
X441352Y938525D01*
X441245Y938465D01*
X441134Y938412D01*
X440968Y938308D01*
X440798Y938211D01*
X440699Y938137D01*
X440595Y938071D01*
X440444Y937947D01*
X440288Y937829D01*
X440199Y937744D01*
X440104Y937666D01*
X439970Y937523D01*
X439829Y937387D01*
X439752Y937291D01*
X439668Y937202D01*
X439552Y937043D01*
X439429Y936891D01*
X439365Y936786D01*
X439293Y936687D01*
X439198Y936515D01*
X439095Y936348D01*
X439044Y936236D01*
X438985Y936129D01*
X438913Y935947D01*
X438832Y935768D01*
X438795Y935651D01*
X438750Y935536D01*
X438701Y935347D01*
X438642Y935160D01*
X438621Y935039D01*
X438590Y934920D01*
X438565Y934725D01*
X438531Y934532D01*
X438525Y934410D01*
X438509Y934288D01*
X438509Y934092D01*
X438499Y933896D01*
X438508Y933774D01*
X438508Y933650D01*
X438532Y933456D01*
X438547Y933261D01*
X438572Y933141D01*
X438587Y933018D01*
X438635Y932828D01*
X438674Y932636D01*
X438713Y932523D01*
X438744Y932401D01*
X438822Y932203D01*
X438885Y932016D01*
X439261Y931110D01*
X439261Y923090D01*
X436191Y915680D01*
X430520Y910009D01*
X423110Y906939D01*
X415090Y906939D01*
X410884Y908681D01*
X410699Y908745D01*
X410516Y908817D01*
X410397Y908848D01*
X410281Y908888D01*
X410089Y908928D01*
X409900Y908977D01*
X409778Y908992D01*
X409657Y909017D01*
X409462Y909033D01*
X409268Y909058D01*
X409145Y909058D01*
X409022Y909067D01*
X408826Y909058D01*
X408630Y909059D01*
X408508Y909044D01*
X408386Y909038D01*
X408193Y909004D01*
X407998Y908980D01*
X407879Y908950D01*
X407758Y908929D01*
X407571Y908871D01*
X407381Y908823D01*
X407266Y908778D01*
X407149Y908742D01*
X406970Y908661D01*
X406788Y908590D01*
X406680Y908531D01*
X406568Y908480D01*
X406401Y908378D01*
X406229Y908284D01*
X406129Y908212D01*
X406024Y908148D01*
X405871Y908026D01*
X405712Y907911D01*
X405623Y907827D01*
X405526Y907750D01*
X405390Y907609D01*
X405247Y907476D01*
X405168Y907381D01*
X405082Y907293D01*
X404964Y907137D01*
X404839Y906986D01*
X404773Y906883D01*
X404699Y906784D01*
X404602Y906614D01*
X404496Y906449D01*
X404444Y906338D01*
X404383Y906231D01*
X404307Y906051D01*
X404223Y905874D01*
X404185Y905757D01*
X404138Y905643D01*
X404086Y905454D01*
X404024Y905268D01*
X404001Y905148D01*
X403968Y905029D01*
X403940Y904835D01*
X403903Y904643D01*
X403895Y904523D01*
X403877Y904398D01*
X403873Y904186D01*
X403861Y903989D01*
X403861Y746196D01*
X403876Y745960D01*
X403883Y745724D01*
X403896Y745642D01*
X403901Y745561D01*
X403945Y745328D01*
X403982Y745094D01*
X404005Y745015D01*
X404020Y744935D01*
X404093Y744710D01*
X404159Y744482D01*
X404191Y744407D01*
X404217Y744329D01*
X404317Y744114D01*
X404411Y743897D01*
X404453Y743826D01*
X404488Y743752D01*
X404614Y743552D01*
X404735Y743348D01*
X404785Y743283D01*
X404829Y743214D01*
X404979Y743031D01*
X405124Y742844D01*
X405182Y742786D01*
X405234Y742723D01*
X405407Y742560D01*
X405574Y742393D01*
X405639Y742342D01*
X405698Y742286D01*
X405890Y742147D01*
X406077Y742001D01*
X406147Y741959D01*
X406213Y741911D01*
X406421Y741797D01*
X406624Y741676D01*
X406700Y741643D01*
X406771Y741603D01*
X406991Y741516D01*
X407209Y741421D01*
X407287Y741398D01*
X407364Y741368D01*
X407593Y741309D01*
X407820Y741242D01*
X407901Y741229D01*
X407980Y741209D01*
X408216Y741179D01*
X408449Y741141D01*
X408531Y741138D01*
X408612Y741128D01*
X408849Y741127D01*
X409086Y741119D01*
X409167Y741127D01*
X409250Y741127D01*
X409484Y741156D01*
X409720Y741178D01*
X409800Y741195D01*
X409882Y741205D01*
X410111Y741264D01*
X410342Y741315D01*
X410420Y741342D01*
X410499Y741362D01*
X410720Y741449D01*
X410943Y741529D01*
X411016Y741566D01*
X411092Y741596D01*
X411300Y741709D01*
X411511Y741816D01*
X411579Y741862D01*
X411651Y741901D01*
X411843Y742040D01*
X412039Y742172D01*
X412100Y742226D01*
X412168Y742275D01*
X412358Y742452D01*
X412532Y742605D01*
X414778Y744852D01*
X579164Y909237D01*
X582431Y910591D01*
X1242839Y910591D01*
X1243144Y910610D01*
X1243456Y910628D01*
X1243465Y910630D01*
X1243475Y910631D01*
X1244058Y910742D01*
X1244100Y910750D01*
X1244107Y910751D01*
X1244874Y910642D01*
X1244907Y910639D01*
X1244939Y910633D01*
X1245190Y910617D01*
X1245510Y910591D01*
X1245552Y910593D01*
X1245593Y910591D01*
X1246368Y910591D01*
X1246375Y910588D01*
X1246669Y910487D01*
X1246960Y910387D01*
X1246969Y910385D01*
X1246978Y910382D01*
X1247567Y910259D01*
X1247601Y910252D01*
X1247608Y910251D01*
X1248276Y909856D01*
X1248305Y909841D01*
X1248332Y909823D01*
X1248556Y909713D01*
X1248843Y909566D01*
X1248883Y909552D01*
X1248920Y909534D01*
X1249636Y909237D01*
X1249641Y909232D01*
X1249875Y909026D01*
X1250104Y908822D01*
X1250112Y908817D01*
X1250119Y908811D01*
X1250620Y908470D01*
X1250645Y908453D01*
X1250652Y908449D01*
X1251117Y907829D01*
X1251138Y907804D01*
X1251156Y907777D01*
X1251321Y907589D01*
X1251530Y907344D01*
X1251562Y907315D01*
X1251589Y907285D01*
X1252137Y906736D01*
X1252140Y906729D01*
X1252274Y906455D01*
X1252411Y906174D01*
X1252416Y906166D01*
X1252420Y906157D01*
X1252748Y905658D01*
X1252769Y905626D01*
X1289217Y857029D01*
X1289238Y857004D01*
X1289256Y856977D01*
X1289421Y856789D01*
X1289630Y856544D01*
X1289662Y856515D01*
X1289689Y856485D01*
X1290237Y855936D01*
X1290240Y855929D01*
X1290377Y855649D01*
X1290511Y855374D01*
X1290516Y855366D01*
X1290520Y855357D01*
X1290856Y854845D01*
X1290869Y854825D01*
X1290874Y854820D01*
X1291066Y854068D01*
X1291076Y854037D01*
X1291083Y854005D01*
X1291164Y853767D01*
X1291263Y853462D01*
X1291281Y853424D01*
X1291294Y853385D01*
X1291591Y852668D01*
X1291591Y852661D01*
X1291610Y852352D01*
X1291628Y852044D01*
X1291630Y852035D01*
X1291631Y852025D01*
X1291742Y851442D01*
X1291750Y851400D01*
X1291751Y851393D01*
X1291642Y850626D01*
X1291639Y850593D01*
X1291633Y850561D01*
X1291617Y850310D01*
X1291591Y849990D01*
X1291593Y849948D01*
X1291591Y849907D01*
X1291591Y847404D01*
X1291595Y847332D01*
X1291593Y847259D01*
X1291615Y847014D01*
X1291631Y846768D01*
X1291644Y846697D01*
X1291651Y846624D01*
X1291704Y846384D01*
X1291750Y846143D01*
X1291773Y846073D01*
X1291788Y846002D01*
X1291871Y845771D01*
X1291947Y845537D01*
X1291978Y845470D01*
X1292002Y845402D01*
X1292113Y845183D01*
X1292218Y844960D01*
X1292257Y844898D01*
X1292290Y844833D01*
X1292427Y844630D01*
X1292559Y844422D01*
X1292605Y844365D01*
X1292646Y844305D01*
X1292799Y844131D01*
X1292964Y843931D01*
X1293025Y843873D01*
X1293078Y843813D01*
X1294113Y842778D01*
X1296163Y837830D01*
X1296163Y826715D01*
X1296167Y826642D01*
X1296165Y826569D01*
X1296187Y826324D01*
X1296203Y826079D01*
X1296216Y826007D01*
X1296223Y825934D01*
X1296276Y825694D01*
X1296322Y825453D01*
X1296345Y825383D01*
X1296360Y825312D01*
X1296443Y825081D01*
X1296519Y824847D01*
X1296550Y824781D01*
X1296574Y824712D01*
X1296685Y824493D01*
X1296790Y824270D01*
X1296829Y824208D01*
X1296862Y824143D01*
X1296999Y823940D01*
X1297131Y823732D01*
X1297177Y823676D01*
X1297218Y823615D01*
X1297371Y823442D01*
X1297536Y823241D01*
X1297597Y823183D01*
X1297650Y823123D01*
X1312422Y808352D01*
X1315637Y805136D01*
X1316991Y801869D01*
X1316991Y767581D01*
X1316998Y767467D01*
X1316996Y767353D01*
X1317018Y767149D01*
X1317031Y766945D01*
X1317052Y766833D01*
X1317064Y766720D01*
X1317112Y766520D01*
X1317150Y766319D01*
X1317185Y766211D01*
X1317211Y766100D01*
X1317283Y765908D01*
X1317347Y765713D01*
X1317395Y765610D01*
X1317435Y765503D01*
X1317530Y765322D01*
X1317618Y765137D01*
X1317679Y765040D01*
X1317732Y764940D01*
X1317849Y764772D01*
X1317959Y764599D01*
X1318031Y764511D01*
X1318096Y764417D01*
X1318234Y764265D01*
X1318364Y764107D01*
X1318447Y764029D01*
X1318524Y763945D01*
X1318679Y763811D01*
X1318828Y763671D01*
X1318921Y763604D01*
X1319007Y763529D01*
X1319178Y763416D01*
X1319343Y763296D01*
X1319443Y763241D01*
X1319538Y763178D01*
X1319715Y763091D01*
X1319901Y762988D01*
X1320018Y762942D01*
X1320126Y762888D01*
X1325378Y760713D01*
X1328638Y757453D01*
X1328816Y757296D01*
X1328988Y757134D01*
X1329055Y757086D01*
X1329116Y757031D01*
X1329312Y756898D01*
X1329504Y756759D01*
X1329575Y756719D01*
X1329643Y756673D01*
X1329854Y756565D01*
X1330061Y756451D01*
X1330138Y756421D01*
X1330211Y756384D01*
X1330433Y756303D01*
X1330654Y756216D01*
X1330733Y756195D01*
X1330810Y756168D01*
X1331041Y756116D01*
X1331270Y756057D01*
X1331352Y756046D01*
X1331432Y756028D01*
X1331667Y756006D01*
X1331902Y755976D01*
X1331985Y755975D01*
X1332066Y755968D01*
X1332302Y755975D01*
X1332540Y755974D01*
X1332621Y755985D01*
X1332703Y755987D01*
X1332937Y756024D01*
X1333172Y756053D01*
X1333251Y756073D01*
X1333332Y756086D01*
X1333560Y756152D01*
X1333789Y756210D01*
X1333866Y756240D01*
X1333944Y756263D01*
X1334162Y756357D01*
X1334382Y756444D01*
X1334454Y756483D01*
X1334529Y756515D01*
X1334733Y756635D01*
X1334941Y756749D01*
X1335008Y756797D01*
X1335078Y756839D01*
X1335266Y756984D01*
X1335458Y757122D01*
X1335518Y757178D01*
X1335582Y757229D01*
X1335750Y757396D01*
X1335923Y757557D01*
X1335976Y757620D01*
X1336034Y757678D01*
X1336179Y757865D01*
X1336331Y758047D01*
X1336375Y758116D01*
X1336425Y758181D01*
X1336546Y758384D01*
X1336674Y758584D01*
X1336709Y758658D01*
X1336751Y758729D01*
X1336845Y758946D01*
X1336947Y759160D01*
X1336972Y759238D01*
X1337005Y759313D01*
X1337072Y759540D01*
X1337146Y759765D01*
X1337161Y759845D01*
X1337184Y759924D01*
X1337222Y760158D01*
X1337267Y760390D01*
X1337272Y760471D01*
X1337285Y760553D01*
X1337294Y760813D01*
X1337309Y761044D01*
X1337309Y804209D01*
X1337305Y804282D01*
X1337307Y804355D01*
X1337285Y804600D01*
X1337269Y804845D01*
X1337256Y804916D01*
X1337249Y804989D01*
X1337196Y805230D01*
X1337150Y805471D01*
X1337128Y805540D01*
X1337112Y805611D01*
X1337029Y805843D01*
X1336953Y806077D01*
X1336922Y806143D01*
X1336898Y806212D01*
X1336787Y806430D01*
X1336682Y806653D01*
X1336643Y806715D01*
X1336610Y806780D01*
X1336473Y806983D01*
X1336341Y807191D01*
X1336295Y807248D01*
X1336254Y807308D01*
X1336102Y807482D01*
X1335936Y807683D01*
X1335875Y807740D01*
X1335822Y807800D01*
X1335002Y808620D01*
X1332991Y813475D01*
X1332991Y837525D01*
X1335002Y842380D01*
X1338718Y846096D01*
X1343573Y848107D01*
X1348827Y848107D01*
X1353682Y846096D01*
X1355308Y844470D01*
X1355425Y844367D01*
X1355534Y844257D01*
X1355663Y844157D01*
X1355786Y844048D01*
X1355914Y843961D01*
X1356037Y843866D01*
X1356178Y843782D01*
X1356313Y843690D01*
X1356451Y843620D01*
X1356584Y843540D01*
X1356735Y843475D01*
X1356881Y843400D01*
X1357026Y843348D01*
X1357169Y843286D01*
X1357326Y843240D01*
X1357480Y843184D01*
X1357631Y843150D01*
X1357780Y843107D01*
X1357942Y843081D01*
X1358102Y843045D01*
X1358256Y843030D01*
X1358409Y843006D01*
X1358573Y843000D01*
X1358736Y842985D01*
X1358891Y842989D01*
X1359046Y842984D01*
X1359209Y842999D01*
X1359373Y843004D01*
X1359526Y843028D01*
X1359680Y843042D01*
X1359840Y843077D01*
X1360002Y843103D01*
X1360151Y843146D01*
X1360302Y843179D01*
X1360457Y843234D01*
X1360614Y843280D01*
X1360757Y843341D01*
X1360903Y843393D01*
X1361049Y843467D01*
X1361199Y843532D01*
X1361333Y843611D01*
X1361471Y843681D01*
X1361607Y843772D01*
X1361748Y843856D01*
X1361871Y843950D01*
X1361999Y844037D01*
X1362119Y844142D01*
X1362252Y844245D01*
X1362372Y844365D01*
X1362492Y844470D01*
X1364118Y846096D01*
X1368973Y848107D01*
X1374227Y848107D01*
X1379082Y846096D01*
X1382798Y842380D01*
X1384282Y838796D01*
X1384332Y838694D01*
X1384374Y838588D01*
X1384473Y838408D01*
X1384563Y838224D01*
X1384625Y838129D01*
X1384680Y838029D01*
X1384800Y837862D01*
X1384912Y837691D01*
X1384986Y837605D01*
X1385053Y837512D01*
X1385193Y837363D01*
X1385326Y837207D01*
X1385410Y837130D01*
X1385488Y837047D01*
X1385645Y836916D01*
X1385797Y836778D01*
X1385890Y836712D01*
X1385978Y836639D01*
X1386150Y836529D01*
X1386318Y836411D01*
X1386419Y836358D01*
X1386515Y836296D01*
X1386700Y836208D01*
X1386881Y836113D01*
X1386987Y836072D01*
X1387090Y836023D01*
X1387285Y835959D01*
X1387477Y835887D01*
X1387587Y835860D01*
X1387696Y835824D01*
X1387897Y835785D01*
X1388096Y835737D01*
X1388209Y835725D01*
X1388321Y835703D01*
X1388518Y835690D01*
X1388729Y835667D01*
X1388855Y835668D01*
X1388975Y835661D01*
X1462521Y835661D01*
X1466256Y834114D01*
X1519914Y780456D01*
X1521461Y776721D01*
X1521461Y305386D01*
X1521473Y305184D01*
X1521476Y304996D01*
X1521592Y303486D01*
X1521553Y303334D01*
X1521533Y303179D01*
X1521503Y303026D01*
X1521493Y302868D01*
X1521491Y302851D01*
X1520911Y301453D01*
X1520846Y301262D01*
X1520776Y301087D01*
X1520306Y299647D01*
X1520211Y299522D01*
X1520133Y299387D01*
X1520047Y299257D01*
X1519978Y299115D01*
X1519969Y299099D01*
X1518899Y298029D01*
X1518765Y297878D01*
X1518634Y297743D01*
X1503058Y279571D01*
X1502665Y279113D01*
X1502571Y278989D01*
X1502470Y278870D01*
X1502380Y278734D01*
X1502282Y278604D01*
X1502204Y278469D01*
X1502118Y278339D01*
X1502048Y278197D01*
X1502040Y278182D01*
X1500969Y277112D01*
X1500836Y276960D01*
X1500704Y276825D01*
X1444394Y211131D01*
X1444301Y211006D01*
X1444199Y210888D01*
X1444109Y210752D01*
X1444011Y210622D01*
X1443933Y210487D01*
X1443847Y210357D01*
X1443778Y210215D01*
X1443769Y210199D01*
X1442699Y209129D01*
X1442565Y208978D01*
X1442434Y208843D01*
X1441448Y207693D01*
X1441313Y207614D01*
X1441189Y207518D01*
X1441060Y207431D01*
X1440942Y207327D01*
X1440928Y207316D01*
X1439529Y206737D01*
X1439348Y206648D01*
X1439175Y206574D01*
X1437824Y205889D01*
X1437669Y205867D01*
X1437518Y205826D01*
X1437366Y205795D01*
X1437216Y205744D01*
X1437199Y205739D01*
X1435685Y205739D01*
X1435484Y205727D01*
X1435296Y205724D01*
X1433786Y205608D01*
X1433634Y205647D01*
X1433479Y205667D01*
X1433326Y205697D01*
X1433168Y205707D01*
X1433002Y205729D01*
X1432832Y205729D01*
X1432672Y205739D01*
X1378921Y205739D01*
X1378848Y205735D01*
X1378775Y205737D01*
X1378530Y205715D01*
X1378285Y205699D01*
X1378214Y205686D01*
X1378141Y205679D01*
X1377901Y205626D01*
X1377659Y205580D01*
X1377590Y205557D01*
X1377519Y205542D01*
X1377288Y205459D01*
X1377053Y205383D01*
X1376987Y205352D01*
X1376919Y205328D01*
X1376700Y205217D01*
X1376477Y205112D01*
X1376415Y205073D01*
X1376350Y205040D01*
X1376146Y204903D01*
X1375939Y204771D01*
X1375930Y204764D01*
X1370925Y202691D01*
X1362165Y202691D01*
X1362092Y202687D01*
X1362019Y202689D01*
X1361774Y202667D01*
X1361529Y202651D01*
X1361457Y202638D01*
X1361384Y202631D01*
X1361144Y202578D01*
X1360903Y202532D01*
X1360833Y202509D01*
X1360762Y202494D01*
X1360531Y202411D01*
X1360297Y202335D01*
X1360231Y202304D01*
X1360162Y202280D01*
X1359943Y202169D01*
X1359720Y202064D01*
X1359658Y202025D01*
X1359593Y201992D01*
X1359390Y201855D01*
X1359182Y201723D01*
X1359126Y201677D01*
X1359065Y201636D01*
X1358892Y201483D01*
X1358691Y201318D01*
X1358633Y201257D01*
X1358573Y201204D01*
X1272061Y114691D01*
X1271936Y114550D01*
X1271804Y114415D01*
X1271725Y114311D01*
X1271639Y114213D01*
X1271533Y114057D01*
X1271419Y113907D01*
X1271354Y113794D01*
X1271281Y113686D01*
X1271195Y113518D01*
X1271101Y113355D01*
X1271051Y113235D01*
X1270991Y113119D01*
X1270927Y112941D01*
X1270854Y112767D01*
X1270819Y112642D01*
X1270775Y112519D01*
X1270734Y112335D01*
X1270683Y112153D01*
X1270664Y112025D01*
X1270636Y111898D01*
X1270618Y111710D01*
X1270591Y111523D01*
X1270588Y111393D01*
X1270576Y111263D01*
X1270581Y111075D01*
X1270577Y110886D01*
X1270591Y110757D01*
X1270595Y110627D01*
X1270624Y110440D01*
X1270644Y110252D01*
X1270674Y110126D01*
X1270694Y109997D01*
X1270746Y109816D01*
X1270789Y109632D01*
X1270835Y109510D01*
X1270871Y109385D01*
X1270946Y109211D01*
X1271011Y109035D01*
X1271072Y108920D01*
X1271123Y108800D01*
X1271219Y108637D01*
X1271306Y108470D01*
X1271379Y108366D01*
X1271447Y108251D01*
X1271572Y108089D01*
X1271681Y107933D01*
X1272161Y107331D01*
X1273453Y105275D01*
X1274506Y103087D01*
X1274957Y101799D01*
X1256420Y101799D01*
X1256266Y101790D01*
X1256111Y101790D01*
X1255948Y101770D01*
X1255784Y101759D01*
X1255632Y101730D01*
X1255478Y101711D01*
X1255319Y101671D01*
X1255158Y101640D01*
X1255011Y101592D01*
X1254861Y101554D01*
X1254708Y101494D01*
X1254552Y101443D01*
X1254501Y101419D01*
X1254464Y101437D01*
X1254308Y101488D01*
X1254156Y101548D01*
X1254006Y101587D01*
X1253859Y101636D01*
X1253698Y101667D01*
X1253539Y101708D01*
X1253386Y101727D01*
X1253234Y101757D01*
X1253075Y101767D01*
X1252907Y101789D01*
X1252739Y101789D01*
X1252580Y101799D01*
X1234043Y101799D01*
X1234144Y102088D01*
X1234181Y102219D01*
X1234227Y102346D01*
X1234267Y102525D01*
X1234316Y102702D01*
X1234336Y102836D01*
X1234366Y102968D01*
X1234384Y103151D01*
X1234411Y103332D01*
X1234414Y103467D01*
X1234427Y103602D01*
X1234421Y103786D01*
X1234425Y103969D01*
X1234411Y104104D01*
X1234407Y104239D01*
X1234379Y104420D01*
X1234360Y104603D01*
X1234329Y104735D01*
X1234308Y104868D01*
X1234257Y105044D01*
X1234216Y105223D01*
X1234169Y105350D01*
X1234131Y105480D01*
X1234059Y105649D01*
X1233995Y105821D01*
X1233933Y105941D01*
X1233879Y106065D01*
X1233786Y106223D01*
X1233701Y106386D01*
X1233624Y106498D01*
X1233555Y106614D01*
X1233443Y106760D01*
X1233339Y106910D01*
X1233249Y107011D01*
X1233166Y107118D01*
X1233036Y107248D01*
X1232914Y107385D01*
X1232812Y107474D01*
X1232716Y107570D01*
X1232571Y107682D01*
X1232433Y107803D01*
X1232320Y107878D01*
X1232213Y107961D01*
X1232055Y108055D01*
X1231903Y108157D01*
X1231782Y108218D01*
X1231666Y108287D01*
X1231498Y108360D01*
X1231333Y108442D01*
X1231205Y108487D01*
X1231081Y108541D01*
X1230906Y108593D01*
X1230732Y108654D01*
X1230600Y108682D01*
X1230470Y108720D01*
X1230289Y108749D01*
X1230110Y108788D01*
X1229975Y108800D01*
X1229841Y108821D01*
X1229658Y108828D01*
X1229475Y108844D01*
X1229339Y108839D01*
X1229204Y108843D01*
X1229022Y108826D01*
X1228838Y108819D01*
X1228705Y108797D01*
X1228570Y108785D01*
X1228391Y108745D01*
X1228210Y108716D01*
X1228080Y108677D01*
X1227948Y108648D01*
X1227775Y108586D01*
X1227599Y108534D01*
X1227475Y108479D01*
X1227347Y108434D01*
X1227184Y108351D01*
X1227016Y108277D01*
X1226900Y108207D01*
X1226779Y108146D01*
X1226627Y108044D01*
X1226469Y107949D01*
X1226363Y107866D01*
X1226251Y107790D01*
X1226117Y107673D01*
X1225968Y107556D01*
X1225864Y107450D01*
X1225758Y107358D01*
X1221783Y103382D01*
X1216108Y100106D01*
X1209777Y98409D01*
X1203223Y98409D01*
X1196892Y100106D01*
X1191217Y103382D01*
X1186582Y108017D01*
X1183306Y113692D01*
X1181609Y120023D01*
X1181609Y126577D01*
X1183306Y132908D01*
X1186582Y138583D01*
X1191217Y143218D01*
X1196892Y146494D01*
X1203223Y148191D01*
X1209777Y148191D01*
X1216108Y146494D01*
X1221783Y143218D01*
X1226418Y138583D01*
X1227909Y136000D01*
X1227964Y135917D01*
X1228012Y135829D01*
X1228141Y135651D01*
X1228261Y135470D01*
X1228327Y135394D01*
X1228386Y135312D01*
X1228535Y135153D01*
X1228678Y134987D01*
X1228752Y134920D01*
X1228821Y134847D01*
X1228988Y134707D01*
X1229151Y134561D01*
X1229233Y134503D01*
X1229310Y134439D01*
X1229494Y134322D01*
X1229674Y134197D01*
X1229763Y134150D01*
X1229847Y134096D01*
X1230045Y134003D01*
X1230238Y133901D01*
X1230332Y133866D01*
X1230423Y133823D01*
X1230631Y133755D01*
X1230835Y133679D01*
X1230933Y133656D01*
X1231028Y133624D01*
X1231242Y133583D01*
X1231455Y133533D01*
X1231555Y133522D01*
X1231654Y133503D01*
X1231862Y133490D01*
X1232089Y133465D01*
X1232201Y133468D01*
X1232308Y133461D01*
X1259987Y133461D01*
X1260060Y133465D01*
X1260133Y133463D01*
X1260378Y133485D01*
X1260623Y133501D01*
X1260695Y133514D01*
X1260768Y133521D01*
X1261008Y133574D01*
X1261249Y133620D01*
X1261319Y133643D01*
X1261390Y133658D01*
X1261621Y133741D01*
X1261855Y133817D01*
X1261921Y133848D01*
X1261990Y133872D01*
X1262209Y133983D01*
X1262432Y134088D01*
X1262494Y134127D01*
X1262559Y134160D01*
X1262762Y134297D01*
X1262970Y134429D01*
X1263026Y134475D01*
X1263087Y134516D01*
X1263260Y134669D01*
X1263461Y134834D01*
X1263519Y134895D01*
X1263579Y134948D01*
X1335537Y206906D01*
X1335612Y206991D01*
X1335694Y207071D01*
X1335822Y207230D01*
X1335958Y207384D01*
X1336022Y207478D01*
X1336093Y207567D01*
X1336201Y207741D01*
X1336316Y207911D01*
X1336368Y208012D01*
X1336428Y208109D01*
X1336512Y208295D01*
X1336606Y208478D01*
X1336644Y208586D01*
X1336691Y208689D01*
X1336752Y208885D01*
X1336822Y209078D01*
X1336847Y209189D01*
X1336880Y209298D01*
X1336916Y209499D01*
X1336961Y209699D01*
X1336972Y209813D01*
X1336992Y209925D01*
X1337002Y210130D01*
X1337022Y210334D01*
X1337018Y210448D01*
X1337024Y210561D01*
X1337008Y210766D01*
X1337002Y210971D01*
X1336984Y211083D01*
X1336976Y211197D01*
X1336935Y211398D01*
X1336903Y211600D01*
X1336872Y211709D01*
X1336849Y211821D01*
X1336785Y212007D01*
X1336726Y212212D01*
X1336676Y212328D01*
X1336638Y212441D01*
X1336293Y213273D01*
X1336293Y218527D01*
X1338304Y223382D01*
X1339930Y225008D01*
X1340033Y225125D01*
X1340143Y225234D01*
X1340243Y225363D01*
X1340352Y225486D01*
X1340439Y225614D01*
X1340534Y225737D01*
X1340618Y225878D01*
X1340710Y226013D01*
X1340780Y226151D01*
X1340860Y226284D01*
X1340925Y226435D01*
X1341000Y226581D01*
X1341052Y226727D01*
X1341114Y226869D01*
X1341160Y227026D01*
X1341216Y227180D01*
X1341250Y227331D01*
X1341293Y227480D01*
X1341319Y227642D01*
X1341355Y227802D01*
X1341370Y227956D01*
X1341394Y228109D01*
X1341400Y228273D01*
X1341415Y228436D01*
X1341411Y228591D01*
X1341416Y228746D01*
X1341401Y228909D01*
X1341396Y229073D01*
X1341372Y229226D01*
X1341358Y229380D01*
X1341323Y229540D01*
X1341297Y229702D01*
X1341254Y229851D01*
X1341221Y230002D01*
X1341166Y230157D01*
X1341120Y230314D01*
X1341059Y230457D01*
X1341007Y230603D01*
X1340933Y230749D01*
X1340868Y230899D01*
X1340789Y231033D01*
X1340719Y231171D01*
X1340628Y231307D01*
X1340544Y231448D01*
X1340449Y231571D01*
X1340363Y231699D01*
X1340258Y231819D01*
X1340155Y231952D01*
X1340036Y232072D01*
X1339930Y232192D01*
X1338304Y233818D01*
X1336708Y237672D01*
X1336694Y237701D01*
X1336683Y237731D01*
X1336554Y237986D01*
X1336427Y238244D01*
X1336410Y238271D01*
X1336395Y238300D01*
X1336235Y238537D01*
X1336078Y238777D01*
X1336057Y238801D01*
X1336039Y238828D01*
X1335874Y239016D01*
X1335664Y239262D01*
X1335633Y239290D01*
X1335607Y239320D01*
X1314533Y260394D01*
X1313179Y263661D01*
X1313179Y271708D01*
X1313175Y271781D01*
X1313177Y271854D01*
X1313155Y272099D01*
X1313139Y272344D01*
X1313126Y272416D01*
X1313119Y272489D01*
X1313066Y272729D01*
X1313020Y272970D01*
X1312997Y273040D01*
X1312982Y273111D01*
X1312899Y273342D01*
X1312823Y273576D01*
X1312792Y273642D01*
X1312768Y273711D01*
X1312657Y273930D01*
X1312552Y274153D01*
X1312513Y274215D01*
X1312480Y274280D01*
X1312368Y274447D01*
X1312367Y274448D01*
X1312365Y274450D01*
X1312343Y274483D01*
X1312211Y274691D01*
X1312165Y274747D01*
X1312124Y274808D01*
X1312027Y274918D01*
X1311994Y274964D01*
X1311924Y275039D01*
X1311806Y275182D01*
X1311745Y275240D01*
X1311692Y275300D01*
X1254236Y332756D01*
X1254212Y332777D01*
X1254191Y332801D01*
X1253973Y332987D01*
X1253758Y333177D01*
X1253732Y333195D01*
X1253707Y333216D01*
X1253469Y333374D01*
X1253231Y333535D01*
X1253203Y333550D01*
X1253176Y333567D01*
X1252951Y333678D01*
X1252664Y333825D01*
X1252624Y333839D01*
X1252588Y333857D01*
X1249818Y335004D01*
X1247294Y337528D01*
X1247177Y337631D01*
X1247068Y337741D01*
X1246939Y337841D01*
X1246816Y337950D01*
X1246687Y338037D01*
X1246565Y338132D01*
X1246425Y338216D01*
X1246289Y338308D01*
X1246151Y338379D01*
X1246017Y338458D01*
X1245867Y338523D01*
X1245721Y338598D01*
X1245575Y338650D01*
X1245433Y338712D01*
X1245276Y338758D01*
X1245122Y338814D01*
X1244970Y338848D01*
X1244822Y338891D01*
X1244660Y338917D01*
X1244500Y338953D01*
X1244346Y338968D01*
X1244193Y338992D01*
X1244029Y338998D01*
X1243866Y339014D01*
X1243711Y339009D01*
X1243556Y339014D01*
X1243393Y338999D01*
X1243229Y338994D01*
X1243076Y338970D01*
X1242922Y338956D01*
X1242762Y338921D01*
X1242600Y338895D01*
X1242451Y338852D01*
X1242299Y338819D01*
X1242145Y338764D01*
X1241988Y338718D01*
X1241845Y338657D01*
X1241699Y338605D01*
X1241553Y338531D01*
X1241403Y338466D01*
X1241269Y338387D01*
X1241131Y338317D01*
X1240995Y338226D01*
X1240854Y338142D01*
X1240731Y338048D01*
X1240603Y337961D01*
X1240483Y337856D01*
X1240350Y337753D01*
X1240230Y337634D01*
X1240110Y337528D01*
X1239789Y337207D01*
X1238547Y336254D01*
X1237192Y335472D01*
X1236656Y335250D01*
X1236480Y335163D01*
X1236300Y335086D01*
X1236194Y335023D01*
X1236084Y334969D01*
X1235920Y334862D01*
X1235751Y334762D01*
X1235654Y334687D01*
X1235551Y334620D01*
X1235402Y334493D01*
X1235247Y334373D01*
X1235160Y334286D01*
X1235066Y334206D01*
X1234935Y334062D01*
X1234796Y333923D01*
X1234720Y333825D01*
X1234637Y333735D01*
X1234525Y333575D01*
X1234404Y333420D01*
X1234341Y333314D01*
X1234271Y333214D01*
X1234179Y333041D01*
X1234079Y332873D01*
X1234030Y332760D01*
X1233972Y332651D01*
X1233903Y332468D01*
X1233825Y332288D01*
X1233790Y332170D01*
X1233746Y332055D01*
X1233700Y331865D01*
X1233645Y331677D01*
X1233626Y331556D01*
X1233597Y331436D01*
X1233575Y331241D01*
X1233544Y331048D01*
X1233540Y330925D01*
X1233526Y330803D01*
X1233529Y330607D01*
X1233522Y330411D01*
X1233534Y330289D01*
X1233535Y330166D01*
X1233563Y329972D01*
X1233581Y329777D01*
X1233607Y329656D01*
X1233624Y329535D01*
X1233676Y329346D01*
X1233718Y329154D01*
X1233759Y329039D01*
X1233791Y328920D01*
X1233866Y328739D01*
X1233932Y328554D01*
X1233987Y328445D01*
X1234034Y328331D01*
X1234131Y328160D01*
X1234219Y327986D01*
X1234288Y327884D01*
X1234349Y327777D01*
X1234466Y327620D01*
X1234576Y327458D01*
X1234655Y327367D01*
X1234730Y327266D01*
X1234878Y327113D01*
X1235008Y326965D01*
X1277537Y284436D01*
X1278891Y281169D01*
X1278891Y272281D01*
X1278898Y272167D01*
X1278896Y272053D01*
X1278918Y271849D01*
X1278931Y271645D01*
X1278952Y271533D01*
X1278964Y271420D01*
X1279012Y271220D01*
X1279050Y271019D01*
X1279085Y270911D01*
X1279111Y270800D01*
X1279183Y270608D01*
X1279247Y270413D01*
X1279295Y270310D01*
X1279335Y270203D01*
X1279430Y270022D01*
X1279518Y269837D01*
X1279579Y269740D01*
X1279632Y269640D01*
X1279749Y269472D01*
X1279859Y269299D01*
X1279931Y269211D01*
X1279996Y269117D01*
X1280134Y268965D01*
X1280264Y268807D01*
X1280347Y268729D01*
X1280424Y268645D01*
X1280579Y268511D01*
X1280728Y268371D01*
X1280821Y268304D01*
X1280907Y268229D01*
X1281078Y268116D01*
X1281243Y267996D01*
X1281343Y267941D01*
X1281438Y267878D01*
X1281615Y267791D01*
X1281801Y267688D01*
X1281918Y267642D01*
X1282026Y267588D01*
X1287278Y265413D01*
X1291065Y261626D01*
X1293115Y256678D01*
X1293115Y251322D01*
X1291065Y246374D01*
X1287278Y242587D01*
X1282330Y240537D01*
X1257670Y240537D01*
X1252722Y242587D01*
X1248935Y246374D01*
X1246885Y251322D01*
X1246885Y256678D01*
X1248935Y261626D01*
X1252722Y265413D01*
X1257974Y267588D01*
X1258076Y267639D01*
X1258182Y267680D01*
X1258362Y267779D01*
X1258546Y267869D01*
X1258641Y267931D01*
X1258741Y267986D01*
X1258907Y268106D01*
X1259079Y268218D01*
X1259165Y268292D01*
X1259258Y268359D01*
X1259407Y268499D01*
X1259563Y268632D01*
X1259640Y268716D01*
X1259723Y268794D01*
X1259854Y268952D01*
X1259992Y269103D01*
X1260058Y269196D01*
X1260131Y269284D01*
X1260241Y269456D01*
X1260359Y269624D01*
X1260412Y269725D01*
X1260474Y269821D01*
X1260562Y270006D01*
X1260657Y270187D01*
X1260698Y270293D01*
X1260747Y270396D01*
X1260811Y270591D01*
X1260883Y270783D01*
X1260910Y270894D01*
X1260946Y271002D01*
X1260985Y271203D01*
X1261033Y271402D01*
X1261045Y271515D01*
X1261067Y271627D01*
X1261080Y271824D01*
X1261103Y272035D01*
X1261102Y272161D01*
X1261109Y272281D01*
X1261109Y273613D01*
X1261105Y273686D01*
X1261107Y273759D01*
X1261085Y274004D01*
X1261069Y274249D01*
X1261056Y274321D01*
X1261049Y274394D01*
X1260996Y274634D01*
X1260950Y274875D01*
X1260927Y274945D01*
X1260912Y275016D01*
X1260829Y275247D01*
X1260753Y275481D01*
X1260722Y275547D01*
X1260698Y275616D01*
X1260587Y275835D01*
X1260482Y276058D01*
X1260443Y276120D01*
X1260410Y276185D01*
X1260273Y276388D01*
X1260141Y276596D01*
X1260095Y276652D01*
X1260054Y276713D01*
X1259901Y276886D01*
X1259736Y277087D01*
X1259675Y277145D01*
X1259622Y277205D01*
X1166205Y370622D01*
X1166150Y370670D01*
X1166100Y370723D01*
X1165911Y370881D01*
X1165727Y371043D01*
X1165667Y371084D01*
X1165611Y371131D01*
X1165403Y371263D01*
X1165200Y371401D01*
X1165135Y371434D01*
X1165074Y371474D01*
X1164852Y371579D01*
X1164633Y371691D01*
X1164564Y371715D01*
X1164498Y371747D01*
X1164264Y371823D01*
X1164033Y371907D01*
X1163962Y371923D01*
X1163893Y371946D01*
X1163652Y371992D01*
X1163412Y372046D01*
X1163339Y372053D01*
X1163267Y372067D01*
X1163036Y372082D01*
X1162777Y372107D01*
X1162694Y372104D01*
X1162613Y372109D01*
X1141431Y372109D01*
X1141195Y372094D01*
X1140958Y372087D01*
X1140877Y372074D01*
X1140795Y372069D01*
X1140563Y372025D01*
X1140329Y371988D01*
X1140250Y371965D01*
X1140169Y371950D01*
X1139944Y371877D01*
X1139717Y371811D01*
X1139641Y371779D01*
X1139563Y371753D01*
X1139349Y371653D01*
X1139132Y371559D01*
X1139061Y371517D01*
X1138987Y371482D01*
X1138787Y371356D01*
X1138583Y371235D01*
X1138518Y371185D01*
X1138449Y371141D01*
X1138266Y370990D01*
X1138079Y370846D01*
X1138021Y370788D01*
X1137957Y370736D01*
X1137795Y370563D01*
X1137627Y370396D01*
X1137577Y370331D01*
X1137521Y370272D01*
X1137381Y370080D01*
X1137236Y369893D01*
X1137194Y369823D01*
X1137146Y369757D01*
X1137031Y369549D01*
X1136910Y369346D01*
X1136878Y369270D01*
X1136838Y369199D01*
X1136751Y368979D01*
X1136656Y368761D01*
X1136633Y368683D01*
X1136603Y368606D01*
X1136544Y368377D01*
X1136477Y368150D01*
X1136464Y368069D01*
X1136443Y367990D01*
X1136413Y367755D01*
X1136376Y367521D01*
X1136373Y367439D01*
X1136362Y367358D01*
X1136362Y367121D01*
X1136354Y366884D01*
X1136361Y366803D01*
X1136361Y366720D01*
X1136391Y366485D01*
X1136412Y366250D01*
X1136430Y366170D01*
X1136440Y366088D01*
X1136498Y365859D01*
X1136549Y365627D01*
X1136577Y365550D01*
X1136597Y365471D01*
X1136684Y365250D01*
X1136763Y365027D01*
X1136800Y364954D01*
X1136830Y364878D01*
X1136944Y364669D01*
X1137051Y364459D01*
X1137097Y364391D01*
X1137136Y364319D01*
X1137275Y364127D01*
X1137407Y363931D01*
X1137460Y363870D01*
X1137509Y363802D01*
X1137687Y363613D01*
X1137840Y363438D01*
X1138196Y363082D01*
X1140207Y358227D01*
X1140207Y352973D01*
X1138196Y348118D01*
X1135672Y345594D01*
X1135569Y345477D01*
X1135459Y345368D01*
X1135359Y345239D01*
X1135250Y345116D01*
X1135163Y344987D01*
X1135068Y344865D01*
X1134984Y344725D01*
X1134892Y344589D01*
X1134821Y344451D01*
X1134742Y344317D01*
X1134677Y344167D01*
X1134602Y344021D01*
X1134550Y343875D01*
X1134488Y343733D01*
X1134442Y343576D01*
X1134386Y343422D01*
X1134352Y343270D01*
X1134309Y343122D01*
X1134283Y342960D01*
X1134247Y342800D01*
X1134232Y342646D01*
X1134208Y342493D01*
X1134202Y342329D01*
X1134186Y342166D01*
X1134191Y342011D01*
X1134186Y341856D01*
X1134201Y341693D01*
X1134206Y341529D01*
X1134230Y341376D01*
X1134244Y341222D01*
X1134279Y341062D01*
X1134305Y340900D01*
X1134348Y340751D01*
X1134381Y340599D01*
X1134436Y340445D01*
X1134482Y340288D01*
X1134543Y340145D01*
X1134595Y339999D01*
X1134669Y339853D01*
X1134734Y339703D01*
X1134813Y339569D01*
X1134883Y339431D01*
X1134974Y339295D01*
X1135058Y339154D01*
X1135152Y339031D01*
X1135239Y338903D01*
X1135344Y338783D01*
X1135447Y338650D01*
X1135566Y338530D01*
X1135672Y338410D01*
X1135993Y338089D01*
X1136946Y336847D01*
X1137729Y335492D01*
X1137816Y335279D01*
X1117600Y335279D01*
X1097384Y335279D01*
X1097471Y335492D01*
X1098254Y336847D01*
X1099207Y338089D01*
X1099528Y338410D01*
X1099631Y338527D01*
X1099741Y338636D01*
X1099841Y338765D01*
X1099950Y338888D01*
X1100037Y339017D01*
X1100132Y339139D01*
X1100216Y339279D01*
X1100308Y339415D01*
X1100378Y339553D01*
X1100458Y339686D01*
X1100523Y339837D01*
X1100598Y339983D01*
X1100650Y340129D01*
X1100712Y340271D01*
X1100758Y340428D01*
X1100814Y340582D01*
X1100848Y340733D01*
X1100891Y340882D01*
X1100917Y341044D01*
X1100953Y341204D01*
X1100968Y341358D01*
X1100992Y341511D01*
X1100998Y341675D01*
X1101014Y341838D01*
X1101009Y341993D01*
X1101014Y342148D01*
X1100999Y342311D01*
X1100994Y342475D01*
X1100970Y342628D01*
X1100956Y342782D01*
X1100921Y342942D01*
X1100895Y343104D01*
X1100852Y343253D01*
X1100819Y343404D01*
X1100764Y343559D01*
X1100718Y343716D01*
X1100657Y343858D01*
X1100605Y344005D01*
X1100531Y344151D01*
X1100466Y344301D01*
X1100387Y344435D01*
X1100317Y344573D01*
X1100226Y344709D01*
X1100142Y344850D01*
X1100048Y344973D01*
X1099961Y345101D01*
X1099856Y345221D01*
X1099753Y345354D01*
X1099634Y345474D01*
X1099528Y345594D01*
X1097004Y348118D01*
X1094993Y352973D01*
X1094993Y358227D01*
X1097004Y363082D01*
X1098630Y364708D01*
X1098733Y364825D01*
X1098843Y364934D01*
X1098943Y365063D01*
X1099052Y365186D01*
X1099139Y365314D01*
X1099234Y365437D01*
X1099318Y365578D01*
X1099410Y365713D01*
X1099480Y365851D01*
X1099560Y365984D01*
X1099625Y366135D01*
X1099700Y366281D01*
X1099752Y366427D01*
X1099814Y366569D01*
X1099860Y366726D01*
X1099916Y366880D01*
X1099950Y367031D01*
X1099993Y367180D01*
X1100019Y367342D01*
X1100055Y367502D01*
X1100070Y367656D01*
X1100094Y367809D01*
X1100100Y367973D01*
X1100115Y368136D01*
X1100111Y368291D01*
X1100116Y368446D01*
X1100101Y368609D01*
X1100096Y368773D01*
X1100072Y368926D01*
X1100058Y369080D01*
X1100023Y369240D01*
X1099997Y369402D01*
X1099954Y369551D01*
X1099921Y369702D01*
X1099866Y369857D01*
X1099820Y370014D01*
X1099759Y370157D01*
X1099707Y370303D01*
X1099633Y370449D01*
X1099568Y370599D01*
X1099489Y370733D01*
X1099419Y370871D01*
X1099328Y371007D01*
X1099244Y371148D01*
X1099149Y371271D01*
X1099063Y371399D01*
X1098958Y371519D01*
X1098855Y371652D01*
X1098736Y371772D01*
X1098630Y371892D01*
X1097004Y373518D01*
X1094993Y378373D01*
X1094993Y383627D01*
X1097004Y388482D01*
X1098630Y390108D01*
X1098733Y390225D01*
X1098843Y390334D01*
X1098943Y390463D01*
X1099052Y390586D01*
X1099139Y390714D01*
X1099234Y390837D01*
X1099318Y390978D01*
X1099410Y391113D01*
X1099480Y391251D01*
X1099560Y391384D01*
X1099625Y391535D01*
X1099700Y391681D01*
X1099752Y391827D01*
X1099814Y391969D01*
X1099860Y392126D01*
X1099916Y392280D01*
X1099950Y392431D01*
X1099993Y392580D01*
X1100019Y392742D01*
X1100055Y392902D01*
X1100070Y393056D01*
X1100094Y393209D01*
X1100100Y393373D01*
X1100115Y393536D01*
X1100111Y393691D01*
X1100116Y393846D01*
X1100101Y394009D01*
X1100096Y394173D01*
X1100072Y394326D01*
X1100058Y394480D01*
X1100023Y394640D01*
X1099997Y394802D01*
X1099954Y394951D01*
X1099921Y395102D01*
X1099866Y395257D01*
X1099820Y395414D01*
X1099759Y395557D01*
X1099707Y395703D01*
X1099633Y395849D01*
X1099568Y395999D01*
X1099489Y396133D01*
X1099419Y396271D01*
X1099328Y396407D01*
X1099244Y396548D01*
X1099149Y396671D01*
X1099063Y396799D01*
X1098958Y396919D01*
X1098855Y397052D01*
X1098736Y397172D01*
X1098630Y397292D01*
X1097004Y398918D01*
X1095534Y402468D01*
X1095448Y402644D01*
X1095370Y402824D01*
X1095307Y402930D01*
X1095253Y403040D01*
X1095146Y403204D01*
X1095046Y403373D01*
X1094971Y403470D01*
X1094904Y403573D01*
X1094777Y403722D01*
X1094657Y403877D01*
X1094570Y403964D01*
X1094490Y404058D01*
X1094345Y404189D01*
X1094207Y404328D01*
X1094110Y404404D01*
X1094019Y404487D01*
X1093859Y404599D01*
X1093704Y404720D01*
X1093599Y404783D01*
X1093498Y404853D01*
X1093325Y404945D01*
X1093157Y405045D01*
X1093044Y405094D01*
X1092935Y405152D01*
X1092752Y405221D01*
X1092572Y405299D01*
X1092454Y405334D01*
X1092339Y405378D01*
X1092149Y405424D01*
X1091961Y405479D01*
X1091840Y405498D01*
X1091720Y405527D01*
X1091525Y405549D01*
X1091332Y405580D01*
X1091209Y405584D01*
X1091087Y405598D01*
X1090891Y405595D01*
X1090695Y405602D01*
X1090573Y405590D01*
X1090450Y405589D01*
X1090256Y405561D01*
X1090061Y405543D01*
X1089941Y405517D01*
X1089819Y405500D01*
X1089629Y405448D01*
X1089439Y405406D01*
X1089323Y405365D01*
X1089204Y405333D01*
X1089023Y405258D01*
X1088838Y405192D01*
X1088729Y405137D01*
X1088615Y405090D01*
X1088444Y404993D01*
X1088270Y404905D01*
X1088168Y404836D01*
X1088061Y404775D01*
X1087904Y404658D01*
X1087742Y404548D01*
X1087651Y404469D01*
X1087551Y404394D01*
X1087398Y404246D01*
X1087249Y404116D01*
X816519Y133386D01*
X816363Y133208D01*
X816200Y133036D01*
X816152Y132969D01*
X816098Y132908D01*
X815965Y132712D01*
X815825Y132520D01*
X815785Y132449D01*
X815739Y132381D01*
X815632Y132170D01*
X815517Y131963D01*
X815487Y131886D01*
X815450Y131813D01*
X815369Y131590D01*
X815282Y131370D01*
X815261Y131291D01*
X815234Y131214D01*
X815182Y130983D01*
X815123Y130754D01*
X815112Y130672D01*
X815094Y130592D01*
X815072Y130357D01*
X815042Y130122D01*
X815042Y130039D01*
X815034Y129958D01*
X815041Y129722D01*
X815041Y129484D01*
X815051Y129403D01*
X815053Y129321D01*
X815090Y129087D01*
X815119Y128852D01*
X815140Y128773D01*
X815152Y128692D01*
X815218Y128464D01*
X815276Y128235D01*
X815306Y128159D01*
X815329Y128080D01*
X815423Y127861D01*
X815510Y127642D01*
X815549Y127570D01*
X815582Y127495D01*
X815702Y127291D01*
X815815Y127083D01*
X815863Y127016D01*
X815905Y126946D01*
X816050Y126758D01*
X816189Y126566D01*
X816245Y126507D01*
X816295Y126442D01*
X816462Y126274D01*
X816623Y126101D01*
X816687Y126048D01*
X816744Y125990D01*
X816931Y125845D01*
X817113Y125693D01*
X817182Y125649D01*
X817247Y125599D01*
X817451Y125478D01*
X817650Y125350D01*
X817724Y125315D01*
X817795Y125273D01*
X818012Y125179D01*
X818226Y125077D01*
X818304Y125052D01*
X818379Y125019D01*
X818606Y124952D01*
X818831Y124878D01*
X818912Y124863D01*
X818990Y124840D01*
X819224Y124802D01*
X819457Y124757D01*
X819537Y124752D01*
X819619Y124739D01*
X819880Y124730D01*
X820110Y124715D01*
X844637Y124715D01*
X849492Y122704D01*
X853208Y118988D01*
X855219Y114133D01*
X855219Y108879D01*
X853208Y104024D01*
X849492Y100308D01*
X844637Y98297D01*
X820587Y98297D01*
X815732Y100308D01*
X812016Y104024D01*
X810005Y108879D01*
X810005Y114610D01*
X809990Y114846D01*
X809983Y115082D01*
X809970Y115164D01*
X809965Y115245D01*
X809921Y115478D01*
X809884Y115712D01*
X809861Y115791D01*
X809846Y115871D01*
X809773Y116097D01*
X809707Y116324D01*
X809675Y116399D01*
X809649Y116477D01*
X809549Y116692D01*
X809455Y116909D01*
X809413Y116980D01*
X809378Y117054D01*
X809252Y117254D01*
X809131Y117458D01*
X809081Y117523D01*
X809037Y117592D01*
X808886Y117775D01*
X808742Y117962D01*
X808684Y118020D01*
X808632Y118083D01*
X808459Y118245D01*
X808292Y118413D01*
X808227Y118464D01*
X808168Y118520D01*
X807976Y118659D01*
X807789Y118805D01*
X807719Y118847D01*
X807653Y118895D01*
X807445Y119009D01*
X807242Y119130D01*
X807167Y119163D01*
X807095Y119203D01*
X806874Y119290D01*
X806657Y119385D01*
X806579Y119408D01*
X806502Y119438D01*
X806273Y119497D01*
X806046Y119564D01*
X805965Y119577D01*
X805886Y119597D01*
X805651Y119627D01*
X805417Y119665D01*
X805335Y119668D01*
X805254Y119678D01*
X805017Y119679D01*
X804780Y119687D01*
X804699Y119679D01*
X804616Y119679D01*
X804381Y119650D01*
X804146Y119628D01*
X804066Y119611D01*
X803984Y119601D01*
X803754Y119542D01*
X803524Y119491D01*
X803446Y119464D01*
X803367Y119444D01*
X803146Y119357D01*
X802923Y119277D01*
X802850Y119240D01*
X802774Y119210D01*
X802565Y119096D01*
X802355Y118990D01*
X802287Y118944D01*
X802215Y118905D01*
X802023Y118766D01*
X801827Y118634D01*
X801766Y118580D01*
X801698Y118531D01*
X801508Y118354D01*
X801334Y118201D01*
X789624Y106491D01*
X789603Y106467D01*
X789579Y106445D01*
X789392Y106227D01*
X789203Y106013D01*
X789185Y105986D01*
X789164Y105962D01*
X789006Y105723D01*
X788845Y105486D01*
X788830Y105457D01*
X788812Y105431D01*
X788701Y105205D01*
X788555Y104918D01*
X788541Y104879D01*
X788523Y104843D01*
X788184Y104024D01*
X784468Y100308D01*
X779613Y98297D01*
X755563Y98297D01*
X750708Y100308D01*
X746992Y104024D01*
X744981Y108879D01*
X744981Y114133D01*
X746992Y118988D01*
X750708Y122704D01*
X755563Y124715D01*
X780597Y124715D01*
X780670Y124719D01*
X780743Y124717D01*
X780988Y124739D01*
X781233Y124755D01*
X781305Y124768D01*
X781378Y124775D01*
X781618Y124828D01*
X781859Y124874D01*
X781929Y124897D01*
X782000Y124912D01*
X782231Y124995D01*
X782465Y125071D01*
X782531Y125102D01*
X782600Y125126D01*
X782819Y125237D01*
X783042Y125342D01*
X783104Y125381D01*
X783169Y125414D01*
X783372Y125551D01*
X783580Y125683D01*
X783636Y125729D01*
X783697Y125770D01*
X783870Y125923D01*
X784071Y126088D01*
X784129Y126149D01*
X784189Y126202D01*
X1091609Y433622D01*
X1093348Y434343D01*
X1093413Y434375D01*
X1093482Y434400D01*
X1093700Y434515D01*
X1093920Y434623D01*
X1093981Y434663D01*
X1094046Y434697D01*
X1094247Y434838D01*
X1094453Y434973D01*
X1094508Y435020D01*
X1094568Y435062D01*
X1094751Y435227D01*
X1094937Y435386D01*
X1094986Y435440D01*
X1095041Y435489D01*
X1095201Y435676D01*
X1095366Y435857D01*
X1095408Y435917D01*
X1095456Y435972D01*
X1095592Y436178D01*
X1095733Y436378D01*
X1095767Y436443D01*
X1095807Y436504D01*
X1095910Y436711D01*
X1096032Y436941D01*
X1096061Y437019D01*
X1096097Y437091D01*
X1097004Y439282D01*
X1098630Y440908D01*
X1098733Y441025D01*
X1098843Y441134D01*
X1098943Y441263D01*
X1099052Y441386D01*
X1099139Y441514D01*
X1099234Y441637D01*
X1099318Y441778D01*
X1099410Y441913D01*
X1099480Y442051D01*
X1099560Y442184D01*
X1099625Y442335D01*
X1099700Y442481D01*
X1099752Y442627D01*
X1099814Y442769D01*
X1099860Y442926D01*
X1099916Y443080D01*
X1099950Y443231D01*
X1099993Y443380D01*
X1100019Y443542D01*
X1100055Y443702D01*
X1100070Y443856D01*
X1100094Y444009D01*
X1100100Y444173D01*
X1100115Y444336D01*
X1100111Y444491D01*
X1100116Y444646D01*
X1100101Y444809D01*
X1100096Y444973D01*
X1100072Y445126D01*
X1100058Y445280D01*
X1100023Y445440D01*
X1099997Y445602D01*
X1099954Y445751D01*
X1099921Y445902D01*
X1099866Y446057D01*
X1099820Y446214D01*
X1099759Y446357D01*
X1099707Y446503D01*
X1099633Y446649D01*
X1099568Y446799D01*
X1099489Y446933D01*
X1099419Y447071D01*
X1099328Y447207D01*
X1099244Y447348D01*
X1099149Y447471D01*
X1099063Y447599D01*
X1098958Y447719D01*
X1098855Y447852D01*
X1098736Y447972D01*
X1098630Y448092D01*
X1097004Y449718D01*
X1094993Y454573D01*
X1094993Y459827D01*
X1097004Y464682D01*
X1098630Y466308D01*
X1098733Y466425D01*
X1098843Y466534D01*
X1098943Y466663D01*
X1099052Y466786D01*
X1099139Y466914D01*
X1099234Y467037D01*
X1099318Y467178D01*
X1099410Y467313D01*
X1099480Y467451D01*
X1099560Y467584D01*
X1099625Y467735D01*
X1099700Y467881D01*
X1099752Y468026D01*
X1099814Y468169D01*
X1099860Y468326D01*
X1099916Y468480D01*
X1099950Y468631D01*
X1099993Y468780D01*
X1100019Y468942D01*
X1100055Y469102D01*
X1100070Y469256D01*
X1100094Y469409D01*
X1100100Y469573D01*
X1100115Y469736D01*
X1100111Y469891D01*
X1100116Y470046D01*
X1100101Y470209D01*
X1100096Y470373D01*
X1100072Y470526D01*
X1100058Y470680D01*
X1100023Y470840D01*
X1099997Y471002D01*
X1099954Y471151D01*
X1099921Y471302D01*
X1099866Y471457D01*
X1099820Y471614D01*
X1099759Y471757D01*
X1099707Y471903D01*
X1099633Y472049D01*
X1099568Y472199D01*
X1099489Y472333D01*
X1099419Y472471D01*
X1099328Y472607D01*
X1099244Y472748D01*
X1099150Y472871D01*
X1099063Y472999D01*
X1098958Y473119D01*
X1098855Y473252D01*
X1098735Y473372D01*
X1098630Y473492D01*
X1097004Y475118D01*
X1094993Y479973D01*
X1094993Y485227D01*
X1097004Y490082D01*
X1100720Y493798D01*
X1105575Y495809D01*
X1109916Y495809D01*
X1109948Y495811D01*
X1109979Y495809D01*
X1110266Y495831D01*
X1110551Y495849D01*
X1110583Y495855D01*
X1110615Y495857D01*
X1110896Y495914D01*
X1111177Y495968D01*
X1111208Y495978D01*
X1111239Y495984D01*
X1111477Y496065D01*
X1111783Y496165D01*
X1111821Y496182D01*
X1111859Y496195D01*
X1115539Y497719D01*
X1115788Y497842D01*
X1116039Y497960D01*
X1116074Y497982D01*
X1116111Y498000D01*
X1116342Y498152D01*
X1116577Y498301D01*
X1116609Y498327D01*
X1116643Y498349D01*
X1116854Y498530D01*
X1117069Y498706D01*
X1117097Y498736D01*
X1117128Y498763D01*
X1117315Y498968D01*
X1117505Y499170D01*
X1117529Y499204D01*
X1117557Y499234D01*
X1117717Y499461D01*
X1117880Y499686D01*
X1117900Y499722D01*
X1117924Y499755D01*
X1118054Y500000D01*
X1118188Y500243D01*
X1118203Y500282D01*
X1118222Y500318D01*
X1118321Y500578D01*
X1118423Y500836D01*
X1118434Y500875D01*
X1118448Y500914D01*
X1118513Y501183D01*
X1118583Y501452D01*
X1118588Y501493D01*
X1118597Y501533D01*
X1118628Y501809D01*
X1118664Y502084D01*
X1118664Y502125D01*
X1118668Y502166D01*
X1118664Y502444D01*
X1118665Y502722D01*
X1118660Y502762D01*
X1118659Y502803D01*
X1118620Y503078D01*
X1118586Y503354D01*
X1118576Y503394D01*
X1118570Y503434D01*
X1118497Y503702D01*
X1118429Y503971D01*
X1118414Y504009D01*
X1118403Y504049D01*
X1118297Y504305D01*
X1118196Y504564D01*
X1118176Y504600D01*
X1118160Y504638D01*
X1118024Y504879D01*
X1117890Y505123D01*
X1117866Y505156D01*
X1117846Y505192D01*
X1117679Y505415D01*
X1117517Y505640D01*
X1117489Y505670D01*
X1117464Y505702D01*
X1117271Y505903D01*
X1117082Y506105D01*
X1117050Y506131D01*
X1117022Y506161D01*
X1116805Y506335D01*
X1116592Y506513D01*
X1116558Y506535D01*
X1116526Y506561D01*
X1116289Y506706D01*
X1116055Y506856D01*
X1116018Y506873D01*
X1115983Y506895D01*
X1115731Y507009D01*
X1115479Y507129D01*
X1115440Y507142D01*
X1115403Y507158D01*
X1115138Y507241D01*
X1114874Y507328D01*
X1114834Y507335D01*
X1114795Y507348D01*
X1114522Y507396D01*
X1114249Y507449D01*
X1114208Y507452D01*
X1114167Y507459D01*
X1113846Y507475D01*
X1113595Y507491D01*
X1105575Y507491D01*
X1100720Y509502D01*
X1097004Y513218D01*
X1094993Y518073D01*
X1094993Y523327D01*
X1097004Y528182D01*
X1098630Y529808D01*
X1098733Y529925D01*
X1098843Y530034D01*
X1098943Y530163D01*
X1099052Y530286D01*
X1099139Y530414D01*
X1099234Y530537D01*
X1099318Y530678D01*
X1099410Y530813D01*
X1099480Y530951D01*
X1099560Y531084D01*
X1099625Y531235D01*
X1099700Y531381D01*
X1099752Y531527D01*
X1099814Y531669D01*
X1099860Y531826D01*
X1099916Y531980D01*
X1099950Y532131D01*
X1099993Y532280D01*
X1100019Y532442D01*
X1100055Y532602D01*
X1100070Y532756D01*
X1100094Y532909D01*
X1100100Y533073D01*
X1100115Y533236D01*
X1100111Y533391D01*
X1100116Y533546D01*
X1100101Y533709D01*
X1100096Y533873D01*
X1100072Y534026D01*
X1100058Y534180D01*
X1100023Y534340D01*
X1099997Y534502D01*
X1099954Y534651D01*
X1099921Y534802D01*
X1099866Y534957D01*
X1099820Y535114D01*
X1099759Y535257D01*
X1099707Y535403D01*
X1099633Y535549D01*
X1099568Y535699D01*
X1099489Y535833D01*
X1099419Y535971D01*
X1099328Y536107D01*
X1099244Y536248D01*
X1099149Y536371D01*
X1099063Y536499D01*
X1098958Y536619D01*
X1098855Y536752D01*
X1098736Y536872D01*
X1098630Y536992D01*
X1097004Y538618D01*
X1094993Y543473D01*
X1094993Y548727D01*
X1097004Y553582D01*
X1098630Y555208D01*
X1098733Y555325D01*
X1098843Y555434D01*
X1098943Y555563D01*
X1099052Y555686D01*
X1099139Y555814D01*
X1099234Y555937D01*
X1099318Y556078D01*
X1099410Y556213D01*
X1099480Y556351D01*
X1099560Y556484D01*
X1099625Y556635D01*
X1099700Y556781D01*
X1099752Y556927D01*
X1099814Y557069D01*
X1099860Y557226D01*
X1099916Y557380D01*
X1099950Y557531D01*
X1099993Y557680D01*
X1100019Y557842D01*
X1100055Y558002D01*
X1100070Y558156D01*
X1100094Y558309D01*
X1100100Y558473D01*
X1100115Y558636D01*
X1100111Y558791D01*
X1100116Y558946D01*
X1100101Y559109D01*
X1100096Y559273D01*
X1100072Y559426D01*
X1100058Y559580D01*
X1100023Y559740D01*
X1099997Y559902D01*
X1099954Y560051D01*
X1099921Y560202D01*
X1099866Y560357D01*
X1099820Y560514D01*
X1099759Y560657D01*
X1099707Y560803D01*
X1099633Y560949D01*
X1099568Y561099D01*
X1099489Y561233D01*
X1099419Y561371D01*
X1099328Y561507D01*
X1099244Y561648D01*
X1099149Y561771D01*
X1099063Y561899D01*
X1098958Y562019D01*
X1098855Y562152D01*
X1098736Y562272D01*
X1098630Y562392D01*
X1097004Y564018D01*
X1094993Y568873D01*
X1094993Y574127D01*
X1097004Y578982D01*
X1098630Y580608D01*
X1098733Y580725D01*
X1098843Y580834D01*
X1098943Y580963D01*
X1099052Y581086D01*
X1099139Y581214D01*
X1099234Y581337D01*
X1099318Y581478D01*
X1099410Y581613D01*
X1099480Y581751D01*
X1099560Y581884D01*
X1099625Y582035D01*
X1099700Y582181D01*
X1099752Y582327D01*
X1099814Y582469D01*
X1099860Y582626D01*
X1099916Y582780D01*
X1099950Y582931D01*
X1099993Y583080D01*
X1100019Y583242D01*
X1100055Y583402D01*
X1100070Y583556D01*
X1100094Y583709D01*
X1100100Y583873D01*
X1100115Y584036D01*
X1100111Y584191D01*
X1100116Y584346D01*
X1100101Y584509D01*
X1100096Y584673D01*
X1100072Y584826D01*
X1100058Y584980D01*
X1100023Y585140D01*
X1099997Y585302D01*
X1099954Y585451D01*
X1099921Y585602D01*
X1099866Y585757D01*
X1099820Y585914D01*
X1099759Y586057D01*
X1099707Y586203D01*
X1099633Y586349D01*
X1099568Y586499D01*
X1099489Y586633D01*
X1099419Y586771D01*
X1099328Y586907D01*
X1099244Y587048D01*
X1099149Y587171D01*
X1099063Y587299D01*
X1098958Y587419D01*
X1098855Y587552D01*
X1098736Y587672D01*
X1098630Y587792D01*
X1097004Y589418D01*
X1094993Y594273D01*
X1094993Y599527D01*
X1097004Y604382D01*
X1098630Y606008D01*
X1098733Y606125D01*
X1098843Y606234D01*
X1098943Y606363D01*
X1099052Y606486D01*
X1099139Y606614D01*
X1099234Y606737D01*
X1099318Y606878D01*
X1099410Y607013D01*
X1099480Y607151D01*
X1099560Y607284D01*
X1099625Y607435D01*
X1099700Y607581D01*
X1099752Y607727D01*
X1099814Y607869D01*
X1099860Y608026D01*
X1099916Y608180D01*
X1099950Y608331D01*
X1099993Y608480D01*
X1100019Y608642D01*
X1100055Y608802D01*
X1100070Y608956D01*
X1100094Y609109D01*
X1100100Y609273D01*
X1100115Y609436D01*
X1100111Y609591D01*
X1100116Y609746D01*
X1100101Y609909D01*
X1100096Y610073D01*
X1100072Y610226D01*
X1100058Y610380D01*
X1100023Y610540D01*
X1099997Y610702D01*
X1099954Y610851D01*
X1099921Y611002D01*
X1099866Y611157D01*
X1099820Y611314D01*
X1099759Y611457D01*
X1099707Y611603D01*
X1099633Y611749D01*
X1099568Y611899D01*
X1099489Y612033D01*
X1099419Y612171D01*
X1099328Y612307D01*
X1099244Y612448D01*
X1099149Y612571D01*
X1099063Y612699D01*
X1098958Y612819D01*
X1098855Y612952D01*
X1098736Y613072D01*
X1098630Y613192D01*
X1097004Y614818D01*
X1094993Y619673D01*
X1094993Y624927D01*
X1097004Y629782D01*
X1098630Y631408D01*
X1098733Y631525D01*
X1098843Y631634D01*
X1098943Y631763D01*
X1099052Y631886D01*
X1099139Y632014D01*
X1099234Y632137D01*
X1099318Y632278D01*
X1099410Y632413D01*
X1099480Y632551D01*
X1099560Y632684D01*
X1099625Y632835D01*
X1099700Y632981D01*
X1099752Y633127D01*
X1099814Y633269D01*
X1099860Y633426D01*
X1099916Y633580D01*
X1099950Y633731D01*
X1099993Y633880D01*
X1100019Y634042D01*
X1100055Y634202D01*
X1100070Y634356D01*
X1100094Y634509D01*
X1100100Y634673D01*
X1100115Y634836D01*
X1100111Y634991D01*
X1100116Y635146D01*
X1100101Y635309D01*
X1100096Y635473D01*
X1100072Y635626D01*
X1100058Y635780D01*
X1100023Y635940D01*
X1099997Y636102D01*
X1099954Y636251D01*
X1099921Y636402D01*
X1099866Y636557D01*
X1099820Y636714D01*
X1099759Y636857D01*
X1099707Y637003D01*
X1099633Y637149D01*
X1099568Y637299D01*
X1099489Y637433D01*
X1099419Y637571D01*
X1099328Y637707D01*
X1099244Y637848D01*
X1099149Y637971D01*
X1099063Y638099D01*
X1098958Y638219D01*
X1098855Y638352D01*
X1098736Y638472D01*
X1098630Y638592D01*
X1097004Y640218D01*
X1094993Y645073D01*
X1094993Y650327D01*
X1097004Y655182D01*
X1098630Y656808D01*
X1098733Y656925D01*
X1098843Y657034D01*
X1098943Y657163D01*
X1099052Y657286D01*
X1099139Y657414D01*
X1099234Y657537D01*
X1099318Y657678D01*
X1099410Y657813D01*
X1099480Y657951D01*
X1099560Y658084D01*
X1099625Y658235D01*
X1099700Y658381D01*
X1099752Y658527D01*
X1099814Y658669D01*
X1099860Y658826D01*
X1099916Y658980D01*
X1099950Y659131D01*
X1099993Y659280D01*
X1100019Y659442D01*
X1100055Y659602D01*
X1100070Y659756D01*
X1100094Y659909D01*
X1100100Y660073D01*
X1100115Y660236D01*
X1100111Y660391D01*
X1100116Y660546D01*
X1100101Y660709D01*
X1100096Y660873D01*
X1100072Y661026D01*
X1100058Y661180D01*
X1100023Y661340D01*
X1099997Y661502D01*
X1099954Y661651D01*
X1099921Y661802D01*
X1099866Y661957D01*
X1099820Y662114D01*
X1099759Y662257D01*
X1099707Y662403D01*
X1099633Y662549D01*
X1099568Y662699D01*
X1099489Y662833D01*
X1099419Y662971D01*
X1099328Y663107D01*
X1099244Y663248D01*
X1099149Y663371D01*
X1099063Y663499D01*
X1098958Y663619D01*
X1098855Y663752D01*
X1098736Y663872D01*
X1098630Y663992D01*
X1097004Y665618D01*
X1094993Y670473D01*
X1094993Y675727D01*
X1097004Y680582D01*
X1098630Y682208D01*
X1098733Y682325D01*
X1098843Y682434D01*
X1098943Y682563D01*
X1099052Y682686D01*
X1099139Y682814D01*
X1099234Y682937D01*
X1099318Y683078D01*
X1099410Y683213D01*
X1099480Y683351D01*
X1099560Y683484D01*
X1099625Y683635D01*
X1099700Y683781D01*
X1099752Y683927D01*
X1099814Y684069D01*
X1099860Y684226D01*
X1099916Y684380D01*
X1099950Y684531D01*
X1099993Y684680D01*
X1100019Y684842D01*
X1100055Y685002D01*
X1100070Y685156D01*
X1100094Y685309D01*
X1100100Y685473D01*
X1100115Y685636D01*
X1100111Y685791D01*
X1100116Y685946D01*
X1100101Y686109D01*
X1100096Y686273D01*
X1100072Y686426D01*
X1100058Y686580D01*
X1100023Y686740D01*
X1099997Y686902D01*
X1099954Y687051D01*
X1099921Y687202D01*
X1099866Y687357D01*
X1099820Y687514D01*
X1099759Y687657D01*
X1099707Y687803D01*
X1099633Y687949D01*
X1099568Y688099D01*
X1099489Y688233D01*
X1099419Y688371D01*
X1099328Y688507D01*
X1099244Y688648D01*
X1099149Y688771D01*
X1099063Y688899D01*
X1098958Y689019D01*
X1098855Y689152D01*
X1098736Y689272D01*
X1098630Y689392D01*
X1097004Y691018D01*
X1094993Y695873D01*
X1094993Y701127D01*
X1095864Y703229D01*
X1095901Y703337D01*
X1095946Y703441D01*
X1096004Y703638D01*
X1096070Y703831D01*
X1096093Y703943D01*
X1096125Y704052D01*
X1096158Y704255D01*
X1096199Y704455D01*
X1096208Y704569D01*
X1096227Y704681D01*
X1096233Y704886D01*
X1096250Y705090D01*
X1096244Y705204D01*
X1096248Y705318D01*
X1096230Y705522D01*
X1096220Y705727D01*
X1096200Y705839D01*
X1096190Y705953D01*
X1096146Y706153D01*
X1096111Y706355D01*
X1096077Y706464D01*
X1096053Y706575D01*
X1095984Y706767D01*
X1095924Y706964D01*
X1095877Y707068D01*
X1095839Y707175D01*
X1095747Y707358D01*
X1095662Y707545D01*
X1095603Y707642D01*
X1095551Y707744D01*
X1095437Y707913D01*
X1095330Y708088D01*
X1095259Y708177D01*
X1095195Y708272D01*
X1095065Y708420D01*
X1094932Y708586D01*
X1094842Y708674D01*
X1094763Y708764D01*
X1013805Y789722D01*
X1013750Y789770D01*
X1013700Y789823D01*
X1013511Y789981D01*
X1013327Y790143D01*
X1013267Y790184D01*
X1013211Y790231D01*
X1013003Y790363D01*
X1012800Y790501D01*
X1012735Y790534D01*
X1012674Y790574D01*
X1012452Y790679D01*
X1012233Y790791D01*
X1012164Y790815D01*
X1012098Y790847D01*
X1011864Y790923D01*
X1011633Y791007D01*
X1011562Y791023D01*
X1011493Y791046D01*
X1011252Y791092D01*
X1011012Y791146D01*
X1010939Y791153D01*
X1010867Y791167D01*
X1010636Y791182D01*
X1010377Y791207D01*
X1010294Y791204D01*
X1010213Y791209D01*
X818001Y791209D01*
X817887Y791202D01*
X817773Y791204D01*
X817569Y791182D01*
X817365Y791169D01*
X817253Y791148D01*
X817140Y791136D01*
X816940Y791088D01*
X816739Y791050D01*
X816631Y791015D01*
X816520Y790989D01*
X816328Y790917D01*
X816133Y790853D01*
X816030Y790805D01*
X815923Y790765D01*
X815742Y790670D01*
X815557Y790582D01*
X815460Y790521D01*
X815359Y790468D01*
X815192Y790351D01*
X815018Y790241D01*
X814931Y790169D01*
X814837Y790104D01*
X814685Y789966D01*
X814527Y789836D01*
X814449Y789753D01*
X814365Y789676D01*
X814231Y789521D01*
X814091Y789372D01*
X814024Y789280D01*
X813949Y789193D01*
X813836Y789022D01*
X813716Y788857D01*
X813661Y788757D01*
X813598Y788662D01*
X813511Y788485D01*
X813408Y788299D01*
X813362Y788182D01*
X813308Y788074D01*
X811298Y783220D01*
X807582Y779504D01*
X802727Y777493D01*
X797473Y777493D01*
X792618Y779504D01*
X790094Y782028D01*
X789977Y782131D01*
X789868Y782241D01*
X789739Y782341D01*
X789616Y782450D01*
X789487Y782537D01*
X789365Y782632D01*
X789225Y782716D01*
X789089Y782808D01*
X788951Y782879D01*
X788817Y782958D01*
X788667Y783023D01*
X788521Y783098D01*
X788375Y783150D01*
X788233Y783212D01*
X788076Y783258D01*
X787922Y783314D01*
X787770Y783348D01*
X787622Y783391D01*
X787460Y783417D01*
X787300Y783453D01*
X787146Y783468D01*
X786993Y783492D01*
X786829Y783498D01*
X786666Y783514D01*
X786511Y783509D01*
X786356Y783514D01*
X786193Y783499D01*
X786029Y783494D01*
X785876Y783470D01*
X785722Y783456D01*
X785562Y783421D01*
X785400Y783395D01*
X785251Y783352D01*
X785099Y783319D01*
X784945Y783264D01*
X784788Y783218D01*
X784645Y783157D01*
X784499Y783105D01*
X784353Y783031D01*
X784203Y782966D01*
X784069Y782887D01*
X783931Y782817D01*
X783795Y782726D01*
X783654Y782642D01*
X783531Y782548D01*
X783403Y782461D01*
X783283Y782356D01*
X783150Y782253D01*
X783030Y782134D01*
X782910Y782028D01*
X782589Y781707D01*
X781347Y780754D01*
X779992Y779971D01*
X779779Y779884D01*
X779779Y800100D01*
X779770Y800251D01*
X779770Y800288D01*
X779770Y800290D01*
X779770Y800409D01*
X779750Y800572D01*
X779739Y800736D01*
X779710Y800887D01*
X779691Y801041D01*
X779651Y801201D01*
X779620Y801361D01*
X779572Y801509D01*
X779534Y801659D01*
X779474Y801811D01*
X779424Y801967D01*
X779358Y802108D01*
X779301Y802252D01*
X779222Y802396D01*
X779153Y802544D01*
X779070Y802675D01*
X778995Y802811D01*
X778899Y802944D01*
X778811Y803082D01*
X778713Y803202D01*
X778622Y803327D01*
X778510Y803447D01*
X778406Y803573D01*
X778293Y803680D01*
X778187Y803793D01*
X778061Y803898D01*
X777942Y804010D01*
X777816Y804101D01*
X777697Y804200D01*
X777559Y804289D01*
X777427Y804385D01*
X777291Y804460D01*
X777160Y804543D01*
X777012Y804614D01*
X776869Y804693D01*
X776725Y804750D01*
X776585Y804816D01*
X776429Y804868D01*
X776277Y804928D01*
X776127Y804967D01*
X775979Y805015D01*
X775819Y805046D01*
X775660Y805087D01*
X775506Y805107D01*
X775354Y805137D01*
X775195Y805147D01*
X775028Y805168D01*
X774859Y805169D01*
X774700Y805179D01*
X774545Y805169D01*
X774391Y805169D01*
X774390Y805169D01*
X774227Y805149D01*
X774064Y805139D01*
X773912Y805110D01*
X773758Y805091D01*
X773599Y805050D01*
X773438Y805020D01*
X773291Y804972D01*
X773141Y804934D01*
X772988Y804874D01*
X772832Y804823D01*
X772692Y804757D01*
X772548Y804700D01*
X772404Y804622D01*
X772255Y804552D01*
X772125Y804469D01*
X771989Y804395D01*
X771856Y804299D01*
X771717Y804211D01*
X771598Y804112D01*
X771472Y804022D01*
X771352Y803910D01*
X771226Y803805D01*
X771120Y803692D01*
X771007Y803587D01*
X770902Y803461D01*
X770789Y803341D01*
X770698Y803216D01*
X770599Y803097D01*
X770511Y802959D01*
X770414Y802826D01*
X770340Y802691D01*
X770256Y802560D01*
X770186Y802412D01*
X770107Y802268D01*
X770050Y802124D01*
X769983Y801984D01*
X769932Y801828D01*
X769871Y801676D01*
X769833Y801526D01*
X769784Y801379D01*
X769753Y801218D01*
X769712Y801059D01*
X769692Y800906D01*
X769663Y800754D01*
X769653Y800595D01*
X769631Y800427D01*
X769631Y800259D01*
X769621Y800100D01*
X769621Y779884D01*
X769408Y779971D01*
X768053Y780754D01*
X766811Y781707D01*
X766490Y782028D01*
X766373Y782131D01*
X766264Y782241D01*
X766135Y782341D01*
X766012Y782450D01*
X765883Y782537D01*
X765761Y782632D01*
X765621Y782716D01*
X765485Y782808D01*
X765347Y782878D01*
X765214Y782958D01*
X765063Y783023D01*
X764917Y783098D01*
X764771Y783150D01*
X764629Y783212D01*
X764472Y783258D01*
X764318Y783314D01*
X764167Y783348D01*
X764018Y783391D01*
X763856Y783417D01*
X763696Y783453D01*
X763542Y783468D01*
X763389Y783492D01*
X763225Y783498D01*
X763062Y783514D01*
X762907Y783509D01*
X762752Y783514D01*
X762589Y783499D01*
X762425Y783494D01*
X762272Y783470D01*
X762118Y783456D01*
X761958Y783421D01*
X761796Y783395D01*
X761647Y783352D01*
X761496Y783319D01*
X761341Y783264D01*
X761184Y783218D01*
X761042Y783157D01*
X760895Y783105D01*
X760749Y783031D01*
X760599Y782966D01*
X760465Y782887D01*
X760327Y782817D01*
X760191Y782726D01*
X760050Y782642D01*
X759927Y782548D01*
X759799Y782461D01*
X759679Y782356D01*
X759546Y782253D01*
X759426Y782134D01*
X759306Y782028D01*
X756782Y779504D01*
X751927Y777493D01*
X746673Y777493D01*
X741818Y779504D01*
X741462Y779860D01*
X741284Y780017D01*
X741112Y780179D01*
X741045Y780228D01*
X740984Y780282D01*
X740788Y780415D01*
X740596Y780554D01*
X740525Y780594D01*
X740457Y780640D01*
X740245Y780748D01*
X740039Y780862D01*
X739962Y780892D01*
X739889Y780930D01*
X739666Y781010D01*
X739446Y781097D01*
X739367Y781118D01*
X739290Y781146D01*
X739059Y781197D01*
X738830Y781257D01*
X738748Y781267D01*
X738668Y781285D01*
X738433Y781307D01*
X738198Y781338D01*
X738115Y781338D01*
X738034Y781346D01*
X737798Y781338D01*
X737560Y781339D01*
X737479Y781329D01*
X737397Y781326D01*
X737164Y781289D01*
X736928Y781260D01*
X736848Y781240D01*
X736768Y781227D01*
X736541Y781161D01*
X736311Y781103D01*
X736234Y781073D01*
X736156Y781050D01*
X735939Y780957D01*
X735718Y780870D01*
X735646Y780830D01*
X735571Y780798D01*
X735367Y780678D01*
X735159Y780564D01*
X735092Y780516D01*
X735022Y780474D01*
X734834Y780330D01*
X734642Y780191D01*
X734582Y780135D01*
X734518Y780085D01*
X734350Y779918D01*
X734177Y779756D01*
X734124Y779693D01*
X734066Y779635D01*
X733921Y779448D01*
X733769Y779266D01*
X733725Y779197D01*
X733675Y779132D01*
X733554Y778929D01*
X733426Y778729D01*
X733391Y778655D01*
X733349Y778585D01*
X733255Y778367D01*
X733153Y778154D01*
X733128Y778075D01*
X733095Y778000D01*
X733028Y777773D01*
X732954Y777548D01*
X732939Y777468D01*
X732916Y777389D01*
X732878Y777155D01*
X732833Y776923D01*
X732828Y776843D01*
X732815Y776760D01*
X732806Y776500D01*
X732791Y776269D01*
X732791Y696732D01*
X732384Y695750D01*
X732360Y695681D01*
X732330Y695614D01*
X732257Y695380D01*
X732178Y695147D01*
X732163Y695075D01*
X732141Y695006D01*
X732098Y694764D01*
X732048Y694523D01*
X732042Y694450D01*
X732030Y694378D01*
X732017Y694134D01*
X731998Y693888D01*
X732001Y693815D01*
X731998Y693742D01*
X732016Y693497D01*
X732028Y693251D01*
X732040Y693180D01*
X732046Y693107D01*
X732095Y692866D01*
X732137Y692624D01*
X732158Y692554D01*
X732173Y692482D01*
X732247Y692263D01*
X732324Y692015D01*
X732358Y691938D01*
X732384Y691862D01*
X733807Y688427D01*
X733807Y683173D01*
X731796Y678318D01*
X728080Y674602D01*
X723225Y672591D01*
X699175Y672591D01*
X694320Y674602D01*
X690604Y678318D01*
X688593Y683173D01*
X688593Y688427D01*
X690604Y693282D01*
X694320Y696998D01*
X699175Y699009D01*
X709731Y699009D01*
X709804Y699013D01*
X709878Y699011D01*
X710123Y699033D01*
X710367Y699049D01*
X710439Y699062D01*
X710512Y699069D01*
X710752Y699122D01*
X710993Y699168D01*
X711063Y699191D01*
X711134Y699206D01*
X711366Y699289D01*
X711599Y699365D01*
X711666Y699396D01*
X711734Y699420D01*
X711954Y699531D01*
X712176Y699636D01*
X712238Y699675D01*
X712303Y699708D01*
X712506Y699845D01*
X712714Y699977D01*
X712771Y700023D01*
X712831Y700064D01*
X713005Y700217D01*
X713205Y700382D01*
X713263Y700444D01*
X713323Y700497D01*
X713522Y700695D01*
X713570Y700750D01*
X713623Y700800D01*
X713781Y700989D01*
X713943Y701173D01*
X713984Y701233D01*
X714031Y701289D01*
X714163Y701497D01*
X714301Y701700D01*
X714334Y701765D01*
X714374Y701826D01*
X714479Y702049D01*
X714591Y702268D01*
X714615Y702336D01*
X714647Y702402D01*
X714723Y702636D01*
X714807Y702867D01*
X714823Y702938D01*
X714846Y703007D01*
X714892Y703249D01*
X714946Y703489D01*
X714953Y703561D01*
X714967Y703633D01*
X714982Y703864D01*
X715007Y704123D01*
X715004Y704206D01*
X715009Y704287D01*
X715009Y776269D01*
X714994Y776505D01*
X714987Y776742D01*
X714974Y776823D01*
X714969Y776905D01*
X714925Y777137D01*
X714888Y777371D01*
X714865Y777450D01*
X714850Y777531D01*
X714777Y777756D01*
X714711Y777983D01*
X714679Y778059D01*
X714653Y778137D01*
X714553Y778351D01*
X714459Y778568D01*
X714417Y778639D01*
X714382Y778713D01*
X714256Y778913D01*
X714135Y779117D01*
X714085Y779182D01*
X714041Y779251D01*
X713890Y779434D01*
X713746Y779621D01*
X713688Y779679D01*
X713636Y779743D01*
X713463Y779905D01*
X713296Y780073D01*
X713231Y780123D01*
X713172Y780179D01*
X712980Y780319D01*
X712793Y780464D01*
X712723Y780506D01*
X712657Y780554D01*
X712449Y780669D01*
X712246Y780790D01*
X712170Y780822D01*
X712099Y780862D01*
X711879Y780949D01*
X711661Y781044D01*
X711583Y781067D01*
X711506Y781097D01*
X711277Y781156D01*
X711050Y781223D01*
X710969Y781236D01*
X710890Y781257D01*
X710655Y781287D01*
X710421Y781324D01*
X710339Y781327D01*
X710258Y781338D01*
X710021Y781338D01*
X709784Y781346D01*
X709703Y781339D01*
X709620Y781339D01*
X709385Y781309D01*
X709150Y781288D01*
X709070Y781270D01*
X708988Y781260D01*
X708759Y781202D01*
X708527Y781151D01*
X708450Y781123D01*
X708371Y781103D01*
X708150Y781016D01*
X707927Y780937D01*
X707854Y780900D01*
X707778Y780870D01*
X707569Y780756D01*
X707359Y780649D01*
X707291Y780603D01*
X707219Y780564D01*
X707027Y780425D01*
X706831Y780293D01*
X706770Y780240D01*
X706702Y780191D01*
X706513Y780013D01*
X706338Y779860D01*
X705982Y779504D01*
X701127Y777493D01*
X700432Y777493D01*
X700359Y777489D01*
X700286Y777491D01*
X700041Y777469D01*
X699796Y777453D01*
X699724Y777440D01*
X699651Y777433D01*
X699411Y777380D01*
X699170Y777334D01*
X699100Y777311D01*
X699029Y777296D01*
X698798Y777213D01*
X698564Y777137D01*
X698498Y777106D01*
X698429Y777082D01*
X698210Y776971D01*
X697987Y776866D01*
X697926Y776827D01*
X697861Y776794D01*
X697657Y776657D01*
X697449Y776525D01*
X697393Y776479D01*
X697332Y776438D01*
X697159Y776285D01*
X696958Y776120D01*
X696901Y776059D01*
X696840Y776006D01*
X641214Y720380D01*
X641058Y720202D01*
X640895Y720030D01*
X640847Y719963D01*
X640793Y719902D01*
X640660Y719706D01*
X640520Y719514D01*
X640481Y719443D01*
X640434Y719375D01*
X640327Y719164D01*
X640213Y718957D01*
X640182Y718880D01*
X640145Y718807D01*
X640065Y718584D01*
X639977Y718364D01*
X639957Y718285D01*
X639929Y718208D01*
X639877Y717977D01*
X639818Y717748D01*
X639807Y717666D01*
X639790Y717586D01*
X639767Y717351D01*
X639737Y717116D01*
X639737Y717033D01*
X639729Y716952D01*
X639736Y716716D01*
X639736Y716478D01*
X639746Y716397D01*
X639748Y716315D01*
X639785Y716081D01*
X639814Y715846D01*
X639835Y715767D01*
X639847Y715686D01*
X639913Y715458D01*
X639972Y715229D01*
X640002Y715153D01*
X640024Y715074D01*
X640118Y714856D01*
X640205Y714636D01*
X640244Y714564D01*
X640277Y714489D01*
X640397Y714285D01*
X640511Y714077D01*
X640559Y714010D01*
X640600Y713940D01*
X640745Y713752D01*
X640884Y713560D01*
X640940Y713501D01*
X640990Y713436D01*
X641157Y713268D01*
X641319Y713095D01*
X641382Y713042D01*
X641440Y712984D01*
X641626Y712839D01*
X641808Y712687D01*
X641877Y712643D01*
X641942Y712593D01*
X642146Y712472D01*
X642345Y712344D01*
X642420Y712309D01*
X642490Y712267D01*
X642707Y712173D01*
X642921Y712071D01*
X642999Y712046D01*
X643074Y712013D01*
X643301Y711946D01*
X643526Y711872D01*
X643607Y711857D01*
X643686Y711834D01*
X643919Y711796D01*
X644152Y711751D01*
X644232Y711746D01*
X644315Y711733D01*
X644575Y711724D01*
X644806Y711709D01*
X647025Y711709D01*
X651880Y709698D01*
X655596Y705982D01*
X657607Y701127D01*
X657607Y695873D01*
X655596Y691018D01*
X653970Y689392D01*
X653867Y689275D01*
X653757Y689166D01*
X653657Y689037D01*
X653548Y688914D01*
X653461Y688786D01*
X653366Y688663D01*
X653282Y688522D01*
X653190Y688387D01*
X653120Y688249D01*
X653040Y688116D01*
X652975Y687965D01*
X652900Y687819D01*
X652848Y687673D01*
X652786Y687531D01*
X652740Y687374D01*
X652684Y687220D01*
X652650Y687069D01*
X652607Y686920D01*
X652581Y686758D01*
X652545Y686598D01*
X652530Y686444D01*
X652506Y686291D01*
X652500Y686127D01*
X652485Y685964D01*
X652489Y685809D01*
X652484Y685654D01*
X652499Y685491D01*
X652504Y685327D01*
X652528Y685174D01*
X652542Y685020D01*
X652577Y684860D01*
X652603Y684698D01*
X652646Y684549D01*
X652679Y684398D01*
X652734Y684243D01*
X652780Y684086D01*
X652841Y683943D01*
X652893Y683797D01*
X652967Y683651D01*
X653032Y683501D01*
X653111Y683367D01*
X653181Y683229D01*
X653272Y683093D01*
X653356Y682952D01*
X653451Y682829D01*
X653537Y682701D01*
X653642Y682581D01*
X653745Y682448D01*
X653864Y682328D01*
X653970Y682208D01*
X655596Y680582D01*
X657607Y675727D01*
X657607Y670473D01*
X655596Y665618D01*
X653970Y663992D01*
X653867Y663875D01*
X653757Y663766D01*
X653657Y663637D01*
X653548Y663514D01*
X653461Y663386D01*
X653366Y663263D01*
X653282Y663122D01*
X653190Y662987D01*
X653120Y662849D01*
X653040Y662716D01*
X652975Y662565D01*
X652900Y662419D01*
X652848Y662273D01*
X652786Y662131D01*
X652740Y661974D01*
X652684Y661820D01*
X652650Y661669D01*
X652607Y661520D01*
X652581Y661358D01*
X652545Y661198D01*
X652530Y661044D01*
X652506Y660891D01*
X652500Y660727D01*
X652485Y660564D01*
X652489Y660409D01*
X652484Y660254D01*
X652499Y660091D01*
X652504Y659927D01*
X652528Y659774D01*
X652542Y659620D01*
X652577Y659460D01*
X652603Y659298D01*
X652646Y659149D01*
X652679Y658998D01*
X652734Y658843D01*
X652780Y658686D01*
X652841Y658543D01*
X652893Y658397D01*
X652967Y658251D01*
X653032Y658101D01*
X653111Y657967D01*
X653181Y657829D01*
X653272Y657693D01*
X653356Y657552D01*
X653451Y657429D01*
X653537Y657301D01*
X653642Y657181D01*
X653745Y657048D01*
X653864Y656928D01*
X653970Y656808D01*
X655596Y655182D01*
X657607Y650327D01*
X657607Y645073D01*
X655596Y640218D01*
X653970Y638592D01*
X653867Y638475D01*
X653757Y638366D01*
X653657Y638237D01*
X653548Y638114D01*
X653461Y637986D01*
X653366Y637863D01*
X653282Y637722D01*
X653190Y637587D01*
X653120Y637449D01*
X653040Y637316D01*
X652975Y637165D01*
X652900Y637019D01*
X652848Y636873D01*
X652786Y636731D01*
X652740Y636574D01*
X652684Y636420D01*
X652650Y636269D01*
X652607Y636120D01*
X652581Y635958D01*
X652545Y635798D01*
X652530Y635644D01*
X652506Y635491D01*
X652500Y635327D01*
X652485Y635164D01*
X652489Y635009D01*
X652484Y634854D01*
X652499Y634691D01*
X652504Y634527D01*
X652528Y634374D01*
X652542Y634220D01*
X652577Y634060D01*
X652603Y633898D01*
X652646Y633749D01*
X652679Y633598D01*
X652734Y633443D01*
X652780Y633286D01*
X652841Y633143D01*
X652893Y632997D01*
X652967Y632851D01*
X653032Y632701D01*
X653111Y632567D01*
X653181Y632429D01*
X653272Y632293D01*
X653356Y632152D01*
X653451Y632029D01*
X653537Y631901D01*
X653642Y631781D01*
X653745Y631648D01*
X653864Y631528D01*
X653970Y631408D01*
X655596Y629782D01*
X657607Y624927D01*
X657607Y619673D01*
X655596Y614818D01*
X655240Y614462D01*
X655083Y614284D01*
X654921Y614112D01*
X654872Y614045D01*
X654818Y613984D01*
X654685Y613788D01*
X654546Y613596D01*
X654506Y613525D01*
X654460Y613457D01*
X654352Y613245D01*
X654238Y613039D01*
X654208Y612962D01*
X654170Y612889D01*
X654090Y612666D01*
X654003Y612446D01*
X653982Y612367D01*
X653954Y612290D01*
X653903Y612059D01*
X653843Y611830D01*
X653833Y611748D01*
X653815Y611668D01*
X653793Y611433D01*
X653762Y611198D01*
X653762Y611115D01*
X653754Y611034D01*
X653762Y610798D01*
X653761Y610560D01*
X653771Y610479D01*
X653774Y610397D01*
X653811Y610164D01*
X653840Y609928D01*
X653860Y609848D01*
X653873Y609768D01*
X653939Y609541D01*
X653997Y609311D01*
X654027Y609234D01*
X654050Y609156D01*
X654143Y608939D01*
X654230Y608718D01*
X654270Y608646D01*
X654302Y608571D01*
X654422Y608367D01*
X654536Y608159D01*
X654584Y608092D01*
X654626Y608022D01*
X654770Y607834D01*
X654909Y607642D01*
X654965Y607582D01*
X655015Y607518D01*
X655182Y607350D01*
X655344Y607177D01*
X655407Y607124D01*
X655465Y607066D01*
X655652Y606921D01*
X655834Y606769D01*
X655903Y606725D01*
X655968Y606675D01*
X656171Y606554D01*
X656371Y606426D01*
X656445Y606391D01*
X656515Y606349D01*
X656732Y606255D01*
X656946Y606153D01*
X657025Y606128D01*
X657100Y606095D01*
X657327Y606028D01*
X657552Y605954D01*
X657632Y605939D01*
X657711Y605916D01*
X657945Y605878D01*
X658177Y605833D01*
X658257Y605828D01*
X658340Y605815D01*
X658600Y605806D01*
X658831Y605791D01*
X674869Y605791D01*
X678136Y604437D01*
X731437Y551136D01*
X732791Y547869D01*
X732791Y255383D01*
X732802Y255210D01*
X732803Y255037D01*
X732821Y254896D01*
X732831Y254747D01*
X732866Y254563D01*
X732889Y254387D01*
X732965Y254009D01*
X732887Y253617D01*
X732865Y253451D01*
X732833Y253285D01*
X732824Y253139D01*
X732803Y252986D01*
X732802Y252803D01*
X732791Y252631D01*
X732791Y252232D01*
X732643Y251876D01*
X732587Y251711D01*
X732522Y251551D01*
X732485Y251414D01*
X732437Y251273D01*
X732399Y251088D01*
X732353Y250918D01*
X732279Y250540D01*
X732057Y250207D01*
X731972Y250062D01*
X731879Y249921D01*
X731815Y249789D01*
X731737Y249656D01*
X731666Y249487D01*
X731590Y249333D01*
X731437Y248964D01*
X731165Y248691D01*
X731050Y248562D01*
X730928Y248438D01*
X730842Y248325D01*
X730744Y248214D01*
X730638Y248058D01*
X730530Y247917D01*
X655857Y135907D01*
X655772Y135761D01*
X655679Y135621D01*
X655615Y135489D01*
X655537Y135356D01*
X655466Y135187D01*
X655390Y135033D01*
X655237Y134664D01*
X654965Y134392D01*
X654850Y134261D01*
X654728Y134138D01*
X654642Y134026D01*
X654544Y133914D01*
X654437Y133758D01*
X654330Y133617D01*
X654117Y133297D01*
X653784Y133074D01*
X653650Y132972D01*
X653511Y132878D01*
X653401Y132781D01*
X653278Y132687D01*
X653148Y132559D01*
X653019Y132446D01*
X652736Y132163D01*
X652380Y132015D01*
X652225Y131939D01*
X652065Y131872D01*
X651942Y131801D01*
X651808Y131735D01*
X651650Y131632D01*
X651498Y131543D01*
X651178Y131329D01*
X650786Y131250D01*
X650623Y131207D01*
X650458Y131173D01*
X650319Y131126D01*
X650170Y131086D01*
X650000Y131018D01*
X649838Y130962D01*
X649468Y130809D01*
X649083Y130809D01*
X648910Y130798D01*
X648737Y130797D01*
X648596Y130779D01*
X648447Y130769D01*
X648263Y130734D01*
X648087Y130711D01*
X647709Y130635D01*
X647317Y130713D01*
X647151Y130735D01*
X646985Y130767D01*
X646839Y130776D01*
X646686Y130797D01*
X646503Y130798D01*
X646331Y130809D01*
X509156Y130809D01*
X509065Y130804D01*
X508973Y130806D01*
X508758Y130784D01*
X508520Y130769D01*
X508420Y130750D01*
X508321Y130740D01*
X507717Y130640D01*
X507550Y130678D01*
X507303Y130719D01*
X507058Y130767D01*
X506990Y130771D01*
X506921Y130783D01*
X506644Y130794D01*
X506404Y130809D01*
X506232Y130809D01*
X505666Y131044D01*
X505579Y131073D01*
X505495Y131111D01*
X505288Y131173D01*
X505063Y131250D01*
X504962Y131271D01*
X504868Y131299D01*
X504271Y131437D01*
X504131Y131537D01*
X503919Y131670D01*
X503711Y131808D01*
X503650Y131837D01*
X503591Y131875D01*
X503339Y131991D01*
X503123Y132097D01*
X502964Y132163D01*
X502531Y132596D01*
X502462Y132656D01*
X502399Y132723D01*
X502232Y132860D01*
X502053Y133017D01*
X501968Y133075D01*
X501892Y133137D01*
X415231Y195038D01*
X415019Y195170D01*
X414811Y195308D01*
X414750Y195338D01*
X414691Y195375D01*
X414439Y195491D01*
X414223Y195597D01*
X414064Y195663D01*
X413631Y196096D01*
X413562Y196156D01*
X413499Y196223D01*
X413332Y196359D01*
X413153Y196517D01*
X413068Y196575D01*
X412992Y196637D01*
X411892Y197423D01*
X411777Y197495D01*
X411666Y197575D01*
X411506Y197663D01*
X411352Y197760D01*
X411228Y197817D01*
X411109Y197882D01*
X410939Y197950D01*
X410773Y198026D01*
X410643Y198068D01*
X410516Y198118D01*
X410340Y198163D01*
X410165Y198219D01*
X410031Y198243D01*
X409900Y198277D01*
X409718Y198300D01*
X409539Y198333D01*
X409403Y198341D01*
X409268Y198358D01*
X409085Y198358D01*
X408903Y198369D01*
X408767Y198359D01*
X408630Y198359D01*
X408449Y198337D01*
X408267Y198324D01*
X408134Y198297D01*
X407998Y198281D01*
X407821Y198236D01*
X407642Y198200D01*
X407513Y198157D01*
X407381Y198123D01*
X407211Y198057D01*
X407037Y197999D01*
X406915Y197940D01*
X406788Y197890D01*
X406627Y197802D01*
X406463Y197724D01*
X406349Y197650D01*
X406229Y197585D01*
X406080Y197477D01*
X405927Y197379D01*
X405823Y197291D01*
X405712Y197211D01*
X405579Y197087D01*
X405439Y196969D01*
X405346Y196869D01*
X405247Y196776D01*
X405130Y196636D01*
X405006Y196502D01*
X404926Y196391D01*
X404839Y196287D01*
X404741Y196133D01*
X404635Y195984D01*
X404570Y195864D01*
X404496Y195750D01*
X404418Y195585D01*
X404331Y195424D01*
X404282Y195297D01*
X404223Y195174D01*
X404166Y195000D01*
X404100Y194830D01*
X404067Y194698D01*
X404024Y194569D01*
X403990Y194389D01*
X403945Y194212D01*
X403929Y194077D01*
X403903Y193943D01*
X403892Y193767D01*
X403869Y193580D01*
X403870Y193431D01*
X403861Y193289D01*
X403861Y10766D01*
X403878Y10489D01*
X403891Y10212D01*
X403898Y10171D01*
X403901Y10130D01*
X403953Y9858D01*
X404000Y9584D01*
X404012Y9545D01*
X404020Y9504D01*
X404106Y9240D01*
X404187Y8975D01*
X404204Y8938D01*
X404217Y8898D01*
X404335Y8647D01*
X404449Y8394D01*
X404470Y8359D01*
X404488Y8322D01*
X404636Y8087D01*
X404781Y7850D01*
X404807Y7818D01*
X404829Y7784D01*
X405006Y7569D01*
X405179Y7353D01*
X405208Y7324D01*
X405234Y7292D01*
X405437Y7102D01*
X405636Y6909D01*
X405668Y6884D01*
X405698Y6856D01*
X405923Y6692D01*
X406145Y6525D01*
X406180Y6505D01*
X406213Y6481D01*
X406456Y6347D01*
X406698Y6209D01*
X406736Y6193D01*
X406771Y6173D01*
X407030Y6071D01*
X407286Y5964D01*
X407325Y5953D01*
X407364Y5938D01*
X407633Y5868D01*
X407900Y5795D01*
X407941Y5789D01*
X407980Y5778D01*
X408257Y5743D01*
X408531Y5703D01*
X408571Y5703D01*
X408612Y5698D01*
X408890Y5697D01*
X409168Y5692D01*
X409209Y5696D01*
X409250Y5696D01*
X409525Y5731D01*
X409801Y5760D01*
X409841Y5770D01*
X409882Y5775D01*
X410151Y5843D01*
X410421Y5908D01*
X410460Y5922D01*
X410499Y5932D01*
X410758Y6034D01*
X411018Y6131D01*
X411054Y6150D01*
X411092Y6165D01*
X411337Y6299D01*
X411582Y6428D01*
X411615Y6451D01*
X411651Y6471D01*
X411877Y6634D01*
X412104Y6793D01*
X412134Y6820D01*
X412168Y6844D01*
X412370Y7034D01*
X412576Y7220D01*
X412603Y7251D01*
X412633Y7279D01*
X412811Y7493D01*
X412992Y7703D01*
X413014Y7737D01*
X413041Y7769D01*
X413190Y8003D01*
X413343Y8235D01*
X413361Y8271D01*
X413384Y8306D01*
X413522Y8598D01*
X413633Y8822D01*
X414709Y11420D01*
X420380Y17091D01*
X427790Y20161D01*
X435810Y20161D01*
X443220Y17091D01*
X448891Y11420D01*
X451961Y4010D01*
X451961Y-4010D01*
X448891Y-11420D01*
X443220Y-17091D01*
X440622Y-18167D01*
X440373Y-18289D01*
X440122Y-18408D01*
X440087Y-18430D01*
X440050Y-18448D01*
X439818Y-18600D01*
X439584Y-18749D01*
X439552Y-18775D01*
X439518Y-18797D01*
X439306Y-18978D01*
X439092Y-19154D01*
X439064Y-19184D01*
X439033Y-19211D01*
X438846Y-19416D01*
X438656Y-19618D01*
X438632Y-19652D01*
X438604Y-19682D01*
X438444Y-19909D01*
X438281Y-20134D01*
X438261Y-20169D01*
X438237Y-20203D01*
X438107Y-20448D01*
X437973Y-20691D01*
X437958Y-20730D01*
X437939Y-20766D01*
X437840Y-21026D01*
X437738Y-21284D01*
X437728Y-21323D01*
X437713Y-21362D01*
X437648Y-21633D01*
X437578Y-21900D01*
X437573Y-21941D01*
X437564Y-21981D01*
X437533Y-22257D01*
X437498Y-22532D01*
X437497Y-22573D01*
X437493Y-22614D01*
X437497Y-22892D01*
X437496Y-23170D01*
X437501Y-23210D01*
X437502Y-23251D01*
X437541Y-23526D01*
X437575Y-23802D01*
X437585Y-23842D01*
X437591Y-23882D01*
X437664Y-24150D01*
X437732Y-24419D01*
X437747Y-24457D01*
X437758Y-24497D01*
X437864Y-24753D01*
X437965Y-25012D01*
X437985Y-25048D01*
X438001Y-25086D01*
X438137Y-25327D01*
X438271Y-25571D01*
X438295Y-25605D01*
X438315Y-25640D01*
X438481Y-25862D01*
X438644Y-26088D01*
X438672Y-26118D01*
X438697Y-26150D01*
X438890Y-26351D01*
X439079Y-26553D01*
X439111Y-26579D01*
X439139Y-26609D01*
X439356Y-26783D01*
X439569Y-26961D01*
X439604Y-26983D01*
X439636Y-27008D01*
X439872Y-27154D01*
X440106Y-27304D01*
X440143Y-27321D01*
X440178Y-27343D01*
X440430Y-27457D01*
X440682Y-27577D01*
X440721Y-27590D01*
X440758Y-27606D01*
X441024Y-27689D01*
X441287Y-27776D01*
X441327Y-27783D01*
X441366Y-27796D01*
X441640Y-27844D01*
X441912Y-27897D01*
X441953Y-27900D01*
X441994Y-27907D01*
X442315Y-27923D01*
X442566Y-27939D01*
X1513589Y-27939D01*
X1513784Y-27927D01*
G37*
G36*
X640478Y148607D02*
X640478Y148607D01*
X640733Y148616D01*
X640796Y148627D01*
X640859Y148631D01*
X641110Y148678D01*
X641362Y148720D01*
X641423Y148738D01*
X641485Y148750D01*
X641728Y148829D01*
X641973Y148902D01*
X642031Y148927D01*
X642091Y148947D01*
X642323Y149056D01*
X642556Y149158D01*
X642610Y149191D01*
X642668Y149218D01*
X642884Y149354D01*
X643103Y149486D01*
X643153Y149525D01*
X643206Y149559D01*
X643403Y149721D01*
X643604Y149879D01*
X643648Y149924D01*
X643697Y149964D01*
X643872Y150150D01*
X644052Y150332D01*
X644090Y150381D01*
X644134Y150428D01*
X644301Y150659D01*
X644450Y150853D01*
X714156Y255412D01*
X714261Y255593D01*
X714374Y255769D01*
X714421Y255869D01*
X714476Y255964D01*
X714557Y256156D01*
X714647Y256345D01*
X714681Y256449D01*
X714724Y256550D01*
X714780Y256752D01*
X714846Y256950D01*
X714866Y257058D01*
X714896Y257164D01*
X714927Y257370D01*
X714967Y257576D01*
X714974Y257683D01*
X714991Y257794D01*
X714996Y258021D01*
X715009Y258230D01*
X715009Y324322D01*
X714997Y324518D01*
X714994Y324714D01*
X714977Y324836D01*
X714969Y324958D01*
X714933Y325151D01*
X714905Y325345D01*
X714873Y325463D01*
X714850Y325584D01*
X714790Y325771D01*
X714738Y325960D01*
X714691Y326073D01*
X714653Y326190D01*
X714570Y326367D01*
X714495Y326549D01*
X714435Y326656D01*
X714382Y326767D01*
X714278Y326932D01*
X714181Y327103D01*
X714107Y327201D01*
X714041Y327305D01*
X713917Y327456D01*
X713799Y327613D01*
X713714Y327701D01*
X713636Y327796D01*
X713493Y327930D01*
X713357Y328071D01*
X713261Y328148D01*
X713172Y328233D01*
X713013Y328348D01*
X712861Y328471D01*
X712756Y328535D01*
X712657Y328608D01*
X712485Y328702D01*
X712318Y328805D01*
X712206Y328856D01*
X712099Y328915D01*
X711917Y328988D01*
X711738Y329069D01*
X711621Y329105D01*
X711506Y329151D01*
X711317Y329200D01*
X711130Y329258D01*
X711009Y329279D01*
X710890Y329310D01*
X710695Y329335D01*
X710502Y329369D01*
X710380Y329375D01*
X710258Y329391D01*
X710061Y329391D01*
X709866Y329401D01*
X709744Y329392D01*
X709620Y329392D01*
X709426Y329368D01*
X709231Y329353D01*
X709110Y329329D01*
X708988Y329314D01*
X708798Y329265D01*
X708606Y329226D01*
X708493Y329187D01*
X708371Y329156D01*
X708173Y329078D01*
X707986Y329015D01*
X707442Y328789D01*
X707350Y328745D01*
X707255Y328708D01*
X707073Y328609D01*
X706870Y328509D01*
X706775Y328447D01*
X706679Y328395D01*
X640429Y286682D01*
X640234Y286542D01*
X640035Y286407D01*
X639977Y286356D01*
X639912Y286309D01*
X639719Y286129D01*
X639543Y285975D01*
X639401Y285833D01*
X638862Y285610D01*
X638771Y285565D01*
X638675Y285528D01*
X638493Y285429D01*
X638290Y285329D01*
X638195Y285267D01*
X638100Y285215D01*
X637606Y284904D01*
X637407Y284870D01*
X637174Y284815D01*
X636939Y284767D01*
X636866Y284742D01*
X636787Y284724D01*
X636540Y284631D01*
X636319Y284556D01*
X636133Y284479D01*
X635550Y284479D01*
X635448Y284473D01*
X635346Y284475D01*
X635139Y284453D01*
X634914Y284439D01*
X634803Y284418D01*
X634694Y284407D01*
X634119Y284308D01*
X633923Y284353D01*
X633687Y284391D01*
X633451Y284437D01*
X633374Y284442D01*
X633294Y284455D01*
X633031Y284464D01*
X632798Y284479D01*
X589788Y284479D01*
X589633Y284470D01*
X589478Y284470D01*
X589316Y284450D01*
X589152Y284439D01*
X589000Y284410D01*
X588846Y284391D01*
X588687Y284351D01*
X588526Y284320D01*
X588379Y284272D01*
X588229Y284234D01*
X588076Y284174D01*
X587920Y284123D01*
X587780Y284058D01*
X587636Y284001D01*
X587492Y283922D01*
X587344Y283852D01*
X587213Y283770D01*
X587077Y283695D01*
X586944Y283599D01*
X586805Y283511D01*
X586686Y283413D01*
X586560Y283322D01*
X586441Y283210D01*
X586314Y283106D01*
X586208Y282993D01*
X586095Y282887D01*
X585990Y282761D01*
X585878Y282642D01*
X585786Y282516D01*
X585687Y282397D01*
X585599Y282259D01*
X585503Y282127D01*
X585428Y281991D01*
X585344Y281860D01*
X585274Y281712D01*
X585195Y281569D01*
X585138Y281425D01*
X585071Y281285D01*
X585020Y281129D01*
X584960Y280976D01*
X584921Y280826D01*
X584872Y280679D01*
X584841Y280518D01*
X584800Y280360D01*
X584788Y280267D01*
X582698Y275220D01*
X578982Y271504D01*
X574127Y269493D01*
X568873Y269493D01*
X564018Y271504D01*
X560302Y275220D01*
X558213Y280264D01*
X558203Y280342D01*
X558163Y280501D01*
X558132Y280662D01*
X558084Y280809D01*
X558046Y280959D01*
X557986Y281112D01*
X557935Y281268D01*
X557870Y281408D01*
X557813Y281552D01*
X557734Y281696D01*
X557664Y281844D01*
X557582Y281975D01*
X557507Y282111D01*
X557411Y282244D01*
X557323Y282383D01*
X557225Y282502D01*
X557134Y282628D01*
X557022Y282747D01*
X556918Y282874D01*
X556805Y282980D01*
X556699Y283093D01*
X556573Y283198D01*
X556454Y283310D01*
X556328Y283402D01*
X556209Y283501D01*
X556071Y283589D01*
X555939Y283685D01*
X555803Y283760D01*
X555672Y283844D01*
X555524Y283914D01*
X555381Y283993D01*
X555237Y284050D01*
X555097Y284117D01*
X554941Y284168D01*
X554788Y284228D01*
X554638Y284267D01*
X554491Y284316D01*
X554330Y284347D01*
X554172Y284388D01*
X554018Y284407D01*
X553866Y284437D01*
X553707Y284447D01*
X553540Y284469D01*
X553371Y284469D01*
X553212Y284479D01*
X517861Y284479D01*
X517788Y284475D01*
X517715Y284477D01*
X517470Y284455D01*
X517225Y284439D01*
X517154Y284426D01*
X517081Y284419D01*
X516841Y284366D01*
X516599Y284320D01*
X516530Y284297D01*
X516459Y284282D01*
X516228Y284199D01*
X515993Y284123D01*
X515927Y284092D01*
X515859Y284068D01*
X515640Y283957D01*
X515417Y283852D01*
X515355Y283813D01*
X515290Y283780D01*
X515086Y283643D01*
X514879Y283511D01*
X514822Y283465D01*
X514762Y283424D01*
X514588Y283271D01*
X514387Y283106D01*
X514330Y283045D01*
X514270Y282992D01*
X512180Y280902D01*
X507325Y278891D01*
X493339Y278891D01*
X493103Y278876D01*
X492867Y278869D01*
X492785Y278856D01*
X492704Y278851D01*
X492471Y278807D01*
X492237Y278770D01*
X492158Y278747D01*
X492078Y278732D01*
X491852Y278659D01*
X491625Y278593D01*
X491550Y278561D01*
X491472Y278535D01*
X491257Y278435D01*
X491040Y278341D01*
X490969Y278299D01*
X490895Y278264D01*
X490695Y278138D01*
X490491Y278017D01*
X490426Y277967D01*
X490357Y277923D01*
X490174Y277772D01*
X489987Y277628D01*
X489929Y277570D01*
X489866Y277518D01*
X489704Y277345D01*
X489536Y277178D01*
X489485Y277113D01*
X489429Y277054D01*
X489290Y276862D01*
X489144Y276675D01*
X489102Y276605D01*
X489054Y276539D01*
X488940Y276331D01*
X488819Y276128D01*
X488786Y276052D01*
X488746Y275981D01*
X488659Y275761D01*
X488564Y275543D01*
X488541Y275465D01*
X488511Y275388D01*
X488452Y275159D01*
X488385Y274932D01*
X488372Y274851D01*
X488352Y274772D01*
X488322Y274537D01*
X488284Y274303D01*
X488281Y274221D01*
X488271Y274140D01*
X488270Y273903D01*
X488262Y273666D01*
X488270Y273585D01*
X488270Y273502D01*
X488299Y273267D01*
X488321Y273032D01*
X488338Y272952D01*
X488348Y272870D01*
X488407Y272641D01*
X488458Y272410D01*
X488485Y272332D01*
X488505Y272253D01*
X488592Y272032D01*
X488672Y271809D01*
X488709Y271736D01*
X488739Y271660D01*
X488853Y271452D01*
X488959Y271241D01*
X489005Y271173D01*
X489044Y271101D01*
X489183Y270909D01*
X489315Y270713D01*
X489369Y270652D01*
X489418Y270584D01*
X489595Y270394D01*
X489748Y270220D01*
X496487Y263481D01*
X497841Y260214D01*
X497841Y234449D01*
X497855Y234215D01*
X497862Y233980D01*
X497875Y233897D01*
X497881Y233813D01*
X497925Y233583D01*
X497961Y233351D01*
X497984Y233270D01*
X498000Y233187D01*
X498072Y232964D01*
X498137Y232739D01*
X498171Y232661D01*
X498197Y232581D01*
X498296Y232369D01*
X498389Y232153D01*
X498432Y232081D01*
X498468Y232005D01*
X498593Y231806D01*
X498712Y231604D01*
X498764Y231538D01*
X498809Y231466D01*
X498958Y231286D01*
X499101Y231100D01*
X499161Y231040D01*
X499214Y230975D01*
X499385Y230814D01*
X499551Y230648D01*
X499617Y230596D01*
X499678Y230539D01*
X499868Y230400D01*
X500053Y230256D01*
X500125Y230213D01*
X500193Y230164D01*
X500399Y230050D01*
X500601Y229930D01*
X500678Y229897D01*
X500751Y229856D01*
X500969Y229769D01*
X501184Y229675D01*
X501265Y229652D01*
X501344Y229621D01*
X501571Y229562D01*
X501796Y229496D01*
X501879Y229482D01*
X501960Y229461D01*
X502194Y229431D01*
X502425Y229394D01*
X502507Y229391D01*
X502592Y229380D01*
X502850Y229380D01*
X503080Y229372D01*
X506107Y229467D01*
X511022Y227610D01*
X514853Y224013D01*
X517015Y219224D01*
X517180Y213971D01*
X515323Y209056D01*
X512879Y206454D01*
X512780Y206334D01*
X512674Y206221D01*
X512577Y206089D01*
X512473Y205963D01*
X512390Y205832D01*
X512298Y205707D01*
X512219Y205563D01*
X512131Y205425D01*
X512065Y205285D01*
X511990Y205149D01*
X511930Y204997D01*
X511860Y204848D01*
X511812Y204701D01*
X511755Y204557D01*
X511713Y204398D01*
X511663Y204243D01*
X511634Y204091D01*
X511595Y203940D01*
X511574Y203778D01*
X511543Y203617D01*
X511533Y203462D01*
X511513Y203308D01*
X511513Y203145D01*
X511502Y202981D01*
X511512Y202826D01*
X511512Y202671D01*
X511532Y202509D01*
X511542Y202345D01*
X511571Y202193D01*
X511590Y202039D01*
X511630Y201880D01*
X511661Y201719D01*
X511708Y201571D01*
X511746Y201421D01*
X511806Y201269D01*
X511857Y201113D01*
X511922Y200973D01*
X511979Y200828D01*
X512058Y200684D01*
X512127Y200536D01*
X512210Y200405D01*
X512284Y200269D01*
X512380Y200136D01*
X512468Y199998D01*
X512566Y199878D01*
X512657Y199752D01*
X512766Y199636D01*
X512873Y199506D01*
X512996Y199390D01*
X513105Y199274D01*
X513436Y198962D01*
X514428Y197751D01*
X515252Y196421D01*
X515347Y196212D01*
X495141Y195577D01*
X495140Y195577D01*
X474934Y194942D01*
X475015Y195157D01*
X475755Y196536D01*
X476668Y197807D01*
X476980Y198139D01*
X477078Y198258D01*
X477184Y198371D01*
X477281Y198503D01*
X477386Y198630D01*
X477469Y198760D01*
X477560Y198885D01*
X477639Y199029D01*
X477727Y199167D01*
X477793Y199308D01*
X477868Y199443D01*
X477929Y199595D01*
X477999Y199744D01*
X478047Y199891D01*
X478104Y200035D01*
X478145Y200194D01*
X478196Y200350D01*
X478225Y200502D01*
X478264Y200652D01*
X478285Y200814D01*
X478316Y200975D01*
X478325Y201130D01*
X478345Y201284D01*
X478346Y201447D01*
X478356Y201611D01*
X478347Y201766D01*
X478347Y201921D01*
X478327Y202083D01*
X478317Y202247D01*
X478288Y202400D01*
X478269Y202553D01*
X478229Y202712D01*
X478198Y202873D01*
X478150Y203021D01*
X478112Y203171D01*
X478052Y203323D01*
X478002Y203479D01*
X477936Y203620D01*
X477880Y203764D01*
X477801Y203908D01*
X477731Y204056D01*
X477649Y204187D01*
X477574Y204323D01*
X477478Y204456D01*
X477391Y204595D01*
X477292Y204714D01*
X477202Y204840D01*
X477093Y204956D01*
X476985Y205086D01*
X476863Y205202D01*
X476754Y205318D01*
X474152Y207762D01*
X471989Y212551D01*
X471824Y217803D01*
X473681Y222719D01*
X477306Y226579D01*
X477383Y226621D01*
X477633Y226754D01*
X477661Y226773D01*
X477691Y226790D01*
X477923Y226957D01*
X478155Y227120D01*
X478180Y227143D01*
X478208Y227163D01*
X478416Y227357D01*
X478626Y227548D01*
X478648Y227574D01*
X478673Y227598D01*
X478855Y227816D01*
X479040Y228033D01*
X479059Y228061D01*
X479081Y228087D01*
X479234Y228327D01*
X479390Y228565D01*
X479405Y228596D01*
X479424Y228624D01*
X479546Y228882D01*
X479557Y228905D01*
X479573Y228934D01*
X479580Y228952D01*
X479671Y229137D01*
X479682Y229169D01*
X479697Y229200D01*
X479782Y229459D01*
X479808Y229526D01*
X479820Y229571D01*
X479878Y229740D01*
X479885Y229773D01*
X479896Y229805D01*
X479941Y230038D01*
X479968Y230143D01*
X479977Y230217D01*
X480008Y230363D01*
X480010Y230397D01*
X480017Y230431D01*
X480030Y230626D01*
X480049Y230775D01*
X480049Y230878D01*
X480059Y230998D01*
X480057Y231042D01*
X480059Y231085D01*
X480059Y252658D01*
X480055Y252731D01*
X480057Y252804D01*
X480035Y253049D01*
X480019Y253294D01*
X480006Y253366D01*
X479999Y253439D01*
X479946Y253679D01*
X479900Y253920D01*
X479877Y253990D01*
X479862Y254061D01*
X479779Y254292D01*
X479703Y254526D01*
X479672Y254592D01*
X479648Y254661D01*
X479537Y254880D01*
X479432Y255103D01*
X479393Y255165D01*
X479360Y255230D01*
X479223Y255433D01*
X479091Y255641D01*
X479045Y255697D01*
X479004Y255758D01*
X478851Y255931D01*
X478686Y256132D01*
X478625Y256190D01*
X478572Y256250D01*
X453473Y281349D01*
X452119Y284616D01*
X452119Y323079D01*
X453473Y326346D01*
X487927Y360800D01*
X488078Y360972D01*
X488237Y361140D01*
X488289Y361211D01*
X488348Y361278D01*
X488477Y361468D01*
X488483Y361476D01*
X489709Y362590D01*
X489795Y362679D01*
X489884Y362757D01*
X491054Y363928D01*
X491244Y364043D01*
X491312Y364097D01*
X491388Y364147D01*
X491579Y364310D01*
X491756Y364451D01*
X503679Y375290D01*
X503765Y375379D01*
X503853Y375457D01*
X590332Y461935D01*
X590380Y461990D01*
X590433Y462040D01*
X590591Y462229D01*
X590753Y462413D01*
X590794Y462473D01*
X590841Y462529D01*
X590973Y462737D01*
X591111Y462940D01*
X591144Y463005D01*
X591184Y463066D01*
X591289Y463288D01*
X591401Y463507D01*
X591425Y463576D01*
X591457Y463642D01*
X591533Y463876D01*
X591617Y464107D01*
X591633Y464178D01*
X591656Y464247D01*
X591702Y464488D01*
X591756Y464728D01*
X591763Y464801D01*
X591777Y464873D01*
X591792Y465104D01*
X591817Y465363D01*
X591814Y465446D01*
X591819Y465527D01*
X591819Y504689D01*
X593173Y507956D01*
X609644Y524427D01*
X611569Y525225D01*
X611634Y525257D01*
X611703Y525282D01*
X611920Y525397D01*
X612141Y525505D01*
X612202Y525545D01*
X612267Y525579D01*
X612468Y525720D01*
X612674Y525855D01*
X612729Y525902D01*
X612789Y525944D01*
X612971Y526109D01*
X613158Y526268D01*
X613207Y526322D01*
X613262Y526371D01*
X613422Y526558D01*
X613587Y526739D01*
X613629Y526799D01*
X613677Y526854D01*
X613813Y527059D01*
X613954Y527260D01*
X613988Y527325D01*
X614029Y527386D01*
X614131Y527593D01*
X614253Y527823D01*
X614282Y527901D01*
X614318Y527974D01*
X614404Y528182D01*
X618120Y531898D01*
X622975Y533909D01*
X647025Y533909D01*
X651880Y531898D01*
X655596Y528182D01*
X657607Y523327D01*
X657607Y518073D01*
X655596Y513218D01*
X653072Y510694D01*
X652969Y510577D01*
X652859Y510468D01*
X652759Y510339D01*
X652650Y510216D01*
X652563Y510087D01*
X652468Y509965D01*
X652384Y509825D01*
X652292Y509689D01*
X652221Y509551D01*
X652142Y509417D01*
X652077Y509267D01*
X652002Y509121D01*
X651950Y508975D01*
X651888Y508833D01*
X651842Y508676D01*
X651786Y508522D01*
X651752Y508370D01*
X651709Y508222D01*
X651683Y508060D01*
X651647Y507900D01*
X651632Y507746D01*
X651608Y507593D01*
X651602Y507429D01*
X651586Y507266D01*
X651591Y507111D01*
X651586Y506956D01*
X651601Y506793D01*
X651606Y506629D01*
X651630Y506476D01*
X651644Y506322D01*
X651679Y506162D01*
X651705Y506000D01*
X651748Y505851D01*
X651781Y505699D01*
X651836Y505545D01*
X651882Y505388D01*
X651943Y505245D01*
X651995Y505099D01*
X652069Y504953D01*
X652134Y504803D01*
X652213Y504669D01*
X652283Y504531D01*
X652374Y504395D01*
X652458Y504254D01*
X652552Y504131D01*
X652639Y504003D01*
X652744Y503883D01*
X652847Y503750D01*
X652966Y503630D01*
X653072Y503510D01*
X653393Y503189D01*
X654346Y501947D01*
X655129Y500592D01*
X655216Y500379D01*
X635000Y500379D01*
X634846Y500370D01*
X634691Y500370D01*
X634528Y500350D01*
X634364Y500339D01*
X634213Y500310D01*
X634059Y500291D01*
X633899Y500251D01*
X633739Y500220D01*
X633591Y500172D01*
X633441Y500134D01*
X633289Y500074D01*
X633133Y500024D01*
X632992Y499958D01*
X632848Y499901D01*
X632704Y499822D01*
X632556Y499753D01*
X632425Y499670D01*
X632289Y499595D01*
X632156Y499499D01*
X632018Y499411D01*
X631898Y499313D01*
X631773Y499222D01*
X631653Y499110D01*
X631527Y499006D01*
X631526Y499005D01*
X631420Y498892D01*
X631307Y498787D01*
X631202Y498661D01*
X631089Y498541D01*
X630998Y498416D01*
X630899Y498297D01*
X630811Y498159D01*
X630714Y498026D01*
X630640Y497891D01*
X630556Y497760D01*
X630486Y497612D01*
X630407Y497468D01*
X630350Y497324D01*
X630283Y497184D01*
X630232Y497028D01*
X630171Y496876D01*
X630133Y496726D01*
X630084Y496579D01*
X630053Y496418D01*
X630012Y496259D01*
X629992Y496106D01*
X629963Y495954D01*
X629953Y495795D01*
X629931Y495627D01*
X629931Y495459D01*
X629921Y495300D01*
X629921Y469900D01*
X629930Y469746D01*
X629930Y469591D01*
X629950Y469428D01*
X629961Y469264D01*
X629989Y469113D01*
X630009Y468959D01*
X630049Y468799D01*
X630080Y468639D01*
X630128Y468491D01*
X630166Y468341D01*
X630226Y468189D01*
X630276Y468033D01*
X630342Y467892D01*
X630399Y467748D01*
X630478Y467604D01*
X630547Y467456D01*
X630630Y467325D01*
X630705Y467189D01*
X630801Y467056D01*
X630888Y466918D01*
X630987Y466798D01*
X631078Y466673D01*
X631190Y466553D01*
X631294Y466427D01*
X631295Y466426D01*
X631407Y466320D01*
X631513Y466207D01*
X631639Y466102D01*
X631759Y465989D01*
X631884Y465898D01*
X632003Y465799D01*
X632141Y465711D01*
X632274Y465614D01*
X632409Y465540D01*
X632540Y465456D01*
X632688Y465386D01*
X632832Y465307D01*
X632976Y465250D01*
X633116Y465183D01*
X633272Y465132D01*
X633424Y465071D01*
X633574Y465033D01*
X633721Y464984D01*
X633882Y464953D01*
X634041Y464912D01*
X634194Y464892D01*
X634346Y464863D01*
X634505Y464853D01*
X634673Y464831D01*
X634841Y464831D01*
X635000Y464821D01*
X655216Y464821D01*
X655129Y464608D01*
X654346Y463253D01*
X653393Y462011D01*
X653072Y461690D01*
X652969Y461573D01*
X652859Y461464D01*
X652759Y461335D01*
X652650Y461212D01*
X652563Y461083D01*
X652468Y460961D01*
X652384Y460821D01*
X652292Y460685D01*
X652222Y460547D01*
X652142Y460414D01*
X652077Y460263D01*
X652002Y460117D01*
X651950Y459971D01*
X651888Y459829D01*
X651842Y459672D01*
X651786Y459518D01*
X651752Y459367D01*
X651709Y459218D01*
X651683Y459056D01*
X651647Y458896D01*
X651632Y458742D01*
X651608Y458589D01*
X651602Y458425D01*
X651586Y458262D01*
X651591Y458107D01*
X651586Y457952D01*
X651601Y457789D01*
X651606Y457625D01*
X651630Y457472D01*
X651644Y457318D01*
X651679Y457158D01*
X651705Y456996D01*
X651748Y456847D01*
X651781Y456696D01*
X651836Y456541D01*
X651882Y456384D01*
X651943Y456242D01*
X651995Y456095D01*
X652069Y455949D01*
X652134Y455799D01*
X652213Y455665D01*
X652283Y455527D01*
X652374Y455391D01*
X652458Y455250D01*
X652552Y455127D01*
X652639Y454999D01*
X652744Y454879D01*
X652847Y454746D01*
X652966Y454626D01*
X653072Y454506D01*
X655596Y451982D01*
X657607Y447127D01*
X657607Y441873D01*
X655596Y437018D01*
X653970Y435392D01*
X653867Y435275D01*
X653757Y435166D01*
X653657Y435037D01*
X653548Y434914D01*
X653461Y434786D01*
X653366Y434663D01*
X653282Y434522D01*
X653190Y434387D01*
X653120Y434249D01*
X653040Y434116D01*
X652975Y433965D01*
X652900Y433819D01*
X652848Y433673D01*
X652786Y433531D01*
X652740Y433374D01*
X652684Y433220D01*
X652650Y433069D01*
X652607Y432920D01*
X652581Y432758D01*
X652545Y432598D01*
X652530Y432444D01*
X652506Y432291D01*
X652500Y432127D01*
X652485Y431964D01*
X652489Y431809D01*
X652484Y431654D01*
X652499Y431491D01*
X652504Y431327D01*
X652528Y431174D01*
X652542Y431020D01*
X652577Y430860D01*
X652603Y430698D01*
X652646Y430549D01*
X652679Y430398D01*
X652734Y430243D01*
X652780Y430086D01*
X652841Y429943D01*
X652893Y429797D01*
X652967Y429651D01*
X653032Y429501D01*
X653111Y429367D01*
X653181Y429229D01*
X653272Y429093D01*
X653356Y428952D01*
X653451Y428829D01*
X653537Y428701D01*
X653642Y428581D01*
X653745Y428448D01*
X653864Y428328D01*
X653970Y428208D01*
X655596Y426582D01*
X657607Y421727D01*
X657607Y416473D01*
X655596Y411618D01*
X653970Y409992D01*
X653867Y409875D01*
X653757Y409766D01*
X653657Y409637D01*
X653548Y409514D01*
X653461Y409386D01*
X653366Y409263D01*
X653282Y409122D01*
X653190Y408987D01*
X653120Y408849D01*
X653040Y408716D01*
X652975Y408565D01*
X652900Y408419D01*
X652848Y408273D01*
X652786Y408131D01*
X652740Y407974D01*
X652684Y407820D01*
X652650Y407669D01*
X652607Y407520D01*
X652581Y407358D01*
X652545Y407198D01*
X652530Y407044D01*
X652506Y406891D01*
X652500Y406727D01*
X652485Y406564D01*
X652489Y406409D01*
X652484Y406254D01*
X652499Y406091D01*
X652504Y405927D01*
X652528Y405774D01*
X652542Y405620D01*
X652577Y405460D01*
X652603Y405298D01*
X652646Y405149D01*
X652679Y404998D01*
X652734Y404843D01*
X652780Y404686D01*
X652841Y404543D01*
X652893Y404397D01*
X652967Y404251D01*
X653032Y404101D01*
X653111Y403967D01*
X653181Y403829D01*
X653272Y403693D01*
X653356Y403552D01*
X653451Y403429D01*
X653537Y403301D01*
X653642Y403181D01*
X653745Y403048D01*
X653864Y402928D01*
X653970Y402808D01*
X655596Y401182D01*
X657607Y396327D01*
X657607Y391073D01*
X655596Y386218D01*
X653970Y384592D01*
X653867Y384475D01*
X653757Y384366D01*
X653657Y384237D01*
X653548Y384114D01*
X653461Y383986D01*
X653366Y383863D01*
X653282Y383722D01*
X653190Y383587D01*
X653120Y383449D01*
X653040Y383316D01*
X652975Y383165D01*
X652900Y383019D01*
X652848Y382874D01*
X652786Y382731D01*
X652740Y382574D01*
X652684Y382420D01*
X652650Y382269D01*
X652607Y382120D01*
X652581Y381958D01*
X652545Y381798D01*
X652530Y381644D01*
X652506Y381491D01*
X652500Y381327D01*
X652485Y381164D01*
X652489Y381009D01*
X652484Y380854D01*
X652499Y380691D01*
X652504Y380527D01*
X652528Y380374D01*
X652542Y380220D01*
X652577Y380060D01*
X652603Y379898D01*
X652646Y379749D01*
X652679Y379598D01*
X652734Y379443D01*
X652780Y379286D01*
X652841Y379143D01*
X652893Y378997D01*
X652967Y378851D01*
X653032Y378701D01*
X653111Y378567D01*
X653181Y378429D01*
X653272Y378293D01*
X653356Y378152D01*
X653450Y378029D01*
X653537Y377901D01*
X653642Y377781D01*
X653745Y377648D01*
X653865Y377528D01*
X653970Y377408D01*
X655596Y375782D01*
X657607Y370927D01*
X657607Y365673D01*
X655596Y360818D01*
X653970Y359192D01*
X653867Y359075D01*
X653757Y358966D01*
X653657Y358837D01*
X653548Y358714D01*
X653461Y358586D01*
X653366Y358463D01*
X653282Y358322D01*
X653190Y358187D01*
X653120Y358049D01*
X653040Y357916D01*
X652975Y357765D01*
X652900Y357619D01*
X652848Y357474D01*
X652786Y357331D01*
X652740Y357174D01*
X652684Y357020D01*
X652650Y356869D01*
X652607Y356720D01*
X652581Y356558D01*
X652545Y356398D01*
X652530Y356244D01*
X652506Y356091D01*
X652500Y355927D01*
X652485Y355764D01*
X652489Y355609D01*
X652484Y355454D01*
X652499Y355291D01*
X652504Y355127D01*
X652528Y354974D01*
X652542Y354820D01*
X652577Y354660D01*
X652603Y354498D01*
X652646Y354349D01*
X652679Y354198D01*
X652734Y354043D01*
X652780Y353886D01*
X652841Y353743D01*
X652893Y353597D01*
X652967Y353451D01*
X653032Y353301D01*
X653111Y353167D01*
X653181Y353029D01*
X653272Y352893D01*
X653356Y352752D01*
X653450Y352629D01*
X653537Y352501D01*
X653642Y352381D01*
X653745Y352248D01*
X653865Y352128D01*
X653970Y352008D01*
X655596Y350382D01*
X657607Y345527D01*
X657607Y340273D01*
X655596Y335418D01*
X651880Y331702D01*
X647025Y329691D01*
X622975Y329691D01*
X618120Y331702D01*
X614404Y335418D01*
X612393Y340273D01*
X612393Y345527D01*
X614404Y350382D01*
X616030Y352008D01*
X616133Y352125D01*
X616243Y352234D01*
X616343Y352363D01*
X616452Y352486D01*
X616539Y352614D01*
X616634Y352737D01*
X616718Y352878D01*
X616810Y353013D01*
X616880Y353151D01*
X616960Y353284D01*
X617025Y353435D01*
X617100Y353581D01*
X617152Y353727D01*
X617214Y353869D01*
X617260Y354026D01*
X617316Y354180D01*
X617350Y354331D01*
X617393Y354480D01*
X617419Y354642D01*
X617455Y354802D01*
X617470Y354956D01*
X617494Y355109D01*
X617500Y355273D01*
X617515Y355436D01*
X617511Y355591D01*
X617516Y355746D01*
X617501Y355909D01*
X617496Y356073D01*
X617472Y356226D01*
X617458Y356380D01*
X617423Y356540D01*
X617397Y356702D01*
X617354Y356851D01*
X617321Y357002D01*
X617266Y357157D01*
X617220Y357314D01*
X617159Y357457D01*
X617107Y357603D01*
X617033Y357749D01*
X616968Y357899D01*
X616889Y358033D01*
X616819Y358171D01*
X616728Y358307D01*
X616644Y358448D01*
X616549Y358571D01*
X616463Y358699D01*
X616358Y358819D01*
X616255Y358952D01*
X616136Y359072D01*
X616030Y359192D01*
X614404Y360818D01*
X612393Y365673D01*
X612393Y370927D01*
X614404Y375782D01*
X616030Y377408D01*
X616133Y377525D01*
X616243Y377634D01*
X616343Y377763D01*
X616452Y377886D01*
X616539Y378014D01*
X616634Y378137D01*
X616718Y378278D01*
X616810Y378413D01*
X616880Y378551D01*
X616960Y378684D01*
X617025Y378835D01*
X617100Y378981D01*
X617152Y379127D01*
X617214Y379269D01*
X617260Y379426D01*
X617316Y379580D01*
X617350Y379731D01*
X617393Y379880D01*
X617419Y380042D01*
X617455Y380202D01*
X617470Y380356D01*
X617494Y380509D01*
X617500Y380673D01*
X617515Y380836D01*
X617511Y380991D01*
X617516Y381146D01*
X617501Y381309D01*
X617496Y381473D01*
X617472Y381626D01*
X617458Y381780D01*
X617423Y381940D01*
X617397Y382102D01*
X617354Y382251D01*
X617321Y382402D01*
X617266Y382557D01*
X617220Y382714D01*
X617159Y382857D01*
X617107Y383003D01*
X617033Y383149D01*
X616968Y383299D01*
X616889Y383433D01*
X616819Y383571D01*
X616728Y383707D01*
X616644Y383848D01*
X616549Y383971D01*
X616463Y384099D01*
X616358Y384219D01*
X616255Y384352D01*
X616136Y384472D01*
X616030Y384592D01*
X614404Y386218D01*
X612393Y391073D01*
X612393Y396327D01*
X614404Y401182D01*
X616030Y402808D01*
X616133Y402925D01*
X616243Y403034D01*
X616343Y403163D01*
X616452Y403286D01*
X616539Y403414D01*
X616634Y403537D01*
X616718Y403678D01*
X616810Y403813D01*
X616880Y403951D01*
X616960Y404084D01*
X617025Y404235D01*
X617100Y404381D01*
X617152Y404526D01*
X617214Y404669D01*
X617260Y404826D01*
X617316Y404980D01*
X617350Y405131D01*
X617393Y405280D01*
X617419Y405442D01*
X617455Y405602D01*
X617470Y405756D01*
X617494Y405909D01*
X617500Y406073D01*
X617515Y406236D01*
X617511Y406391D01*
X617516Y406546D01*
X617501Y406709D01*
X617496Y406873D01*
X617472Y407026D01*
X617458Y407180D01*
X617423Y407340D01*
X617397Y407502D01*
X617354Y407651D01*
X617321Y407802D01*
X617266Y407957D01*
X617220Y408114D01*
X617159Y408257D01*
X617107Y408403D01*
X617033Y408549D01*
X616968Y408699D01*
X616889Y408833D01*
X616819Y408971D01*
X616728Y409107D01*
X616644Y409248D01*
X616550Y409371D01*
X616463Y409499D01*
X616358Y409619D01*
X616255Y409752D01*
X616135Y409872D01*
X616030Y409992D01*
X614404Y411618D01*
X612748Y415617D01*
X612662Y415793D01*
X612584Y415973D01*
X612521Y416079D01*
X612467Y416189D01*
X612360Y416353D01*
X612260Y416522D01*
X612185Y416619D01*
X612118Y416722D01*
X611991Y416871D01*
X611871Y417026D01*
X611784Y417113D01*
X611704Y417207D01*
X611559Y417339D01*
X611421Y417477D01*
X611324Y417553D01*
X611233Y417636D01*
X611073Y417748D01*
X610918Y417869D01*
X610813Y417932D01*
X610712Y418002D01*
X610539Y418094D01*
X610371Y418194D01*
X610258Y418243D01*
X610149Y418301D01*
X609966Y418370D01*
X609786Y418449D01*
X609668Y418483D01*
X609553Y418527D01*
X609363Y418573D01*
X609175Y418628D01*
X609054Y418647D01*
X608934Y418676D01*
X608739Y418698D01*
X608546Y418729D01*
X608423Y418733D01*
X608301Y418747D01*
X608105Y418744D01*
X607909Y418751D01*
X607787Y418739D01*
X607664Y418738D01*
X607470Y418710D01*
X607275Y418692D01*
X607155Y418666D01*
X607033Y418649D01*
X606843Y418597D01*
X606653Y418555D01*
X606537Y418514D01*
X606418Y418482D01*
X606237Y418407D01*
X606052Y418341D01*
X605943Y418286D01*
X605829Y418239D01*
X605659Y418142D01*
X605484Y418054D01*
X605382Y417985D01*
X605275Y417924D01*
X605118Y417807D01*
X604956Y417698D01*
X604865Y417618D01*
X604765Y417543D01*
X604611Y417395D01*
X604463Y417265D01*
X517207Y330009D01*
X517132Y329924D01*
X517050Y329844D01*
X516922Y329685D01*
X516786Y329531D01*
X516722Y329437D01*
X516651Y329348D01*
X516543Y329174D01*
X516428Y329004D01*
X516376Y328903D01*
X516316Y328806D01*
X516232Y328619D01*
X516138Y328437D01*
X516100Y328329D01*
X516053Y328226D01*
X515992Y328030D01*
X515922Y327837D01*
X515897Y327726D01*
X515864Y327617D01*
X515828Y327416D01*
X515783Y327216D01*
X515772Y327102D01*
X515752Y326990D01*
X515742Y326785D01*
X515722Y326581D01*
X515726Y326467D01*
X515720Y326354D01*
X515736Y326149D01*
X515742Y325945D01*
X515760Y325832D01*
X515768Y325718D01*
X515809Y325517D01*
X515841Y325315D01*
X515873Y325206D01*
X515895Y325094D01*
X515959Y324908D01*
X516018Y324703D01*
X516068Y324587D01*
X516106Y324474D01*
X517907Y320127D01*
X517907Y314873D01*
X515592Y309284D01*
X515528Y309099D01*
X515456Y308916D01*
X515425Y308797D01*
X515385Y308681D01*
X515346Y308489D01*
X515297Y308300D01*
X515281Y308178D01*
X515256Y308057D01*
X515241Y307862D01*
X515216Y307668D01*
X515215Y307544D01*
X515206Y307422D01*
X515215Y307226D01*
X515215Y307030D01*
X515230Y306908D01*
X515235Y306786D01*
X515269Y306593D01*
X515293Y306398D01*
X515324Y306279D01*
X515345Y306158D01*
X515402Y305971D01*
X515450Y305781D01*
X515495Y305666D01*
X515531Y305549D01*
X515612Y305370D01*
X515684Y305188D01*
X515743Y305080D01*
X515793Y304968D01*
X515895Y304801D01*
X515989Y304629D01*
X516061Y304529D01*
X516125Y304424D01*
X516248Y304271D01*
X516362Y304112D01*
X516446Y304023D01*
X516523Y303926D01*
X516664Y303790D01*
X516797Y303647D01*
X516892Y303568D01*
X516980Y303482D01*
X517137Y303364D01*
X517287Y303239D01*
X517391Y303173D01*
X517489Y303099D01*
X517659Y303002D01*
X517824Y302896D01*
X517935Y302844D01*
X518042Y302783D01*
X518223Y302707D01*
X518400Y302623D01*
X518517Y302585D01*
X518630Y302538D01*
X518819Y302486D01*
X519005Y302424D01*
X519126Y302401D01*
X519244Y302368D01*
X519438Y302340D01*
X519630Y302303D01*
X519751Y302295D01*
X519875Y302277D01*
X520088Y302273D01*
X520284Y302261D01*
X554125Y302261D01*
X554239Y302268D01*
X554353Y302266D01*
X554557Y302288D01*
X554761Y302301D01*
X554873Y302322D01*
X554986Y302334D01*
X555186Y302382D01*
X555387Y302420D01*
X555495Y302455D01*
X555606Y302481D01*
X555798Y302553D01*
X555993Y302617D01*
X556096Y302665D01*
X556203Y302705D01*
X556384Y302800D01*
X556569Y302888D01*
X556666Y302949D01*
X556767Y303002D01*
X556935Y303119D01*
X557108Y303229D01*
X557196Y303301D01*
X557289Y303366D01*
X557441Y303504D01*
X557599Y303634D01*
X557677Y303717D01*
X557762Y303794D01*
X557895Y303949D01*
X558035Y304098D01*
X558103Y304191D01*
X558177Y304277D01*
X558290Y304448D01*
X558411Y304613D01*
X558466Y304713D01*
X558528Y304808D01*
X558616Y304985D01*
X558718Y305171D01*
X558765Y305288D01*
X558818Y305396D01*
X560302Y308980D01*
X564018Y312696D01*
X568873Y314707D01*
X574127Y314707D01*
X578982Y312696D01*
X582698Y308980D01*
X584182Y305396D01*
X584232Y305294D01*
X584274Y305188D01*
X584373Y305008D01*
X584463Y304824D01*
X584525Y304729D01*
X584580Y304629D01*
X584700Y304463D01*
X584812Y304291D01*
X584886Y304205D01*
X584953Y304112D01*
X585093Y303963D01*
X585226Y303807D01*
X585310Y303730D01*
X585388Y303647D01*
X585545Y303516D01*
X585697Y303378D01*
X585790Y303312D01*
X585878Y303239D01*
X586050Y303129D01*
X586218Y303011D01*
X586319Y302958D01*
X586415Y302896D01*
X586600Y302808D01*
X586781Y302713D01*
X586887Y302672D01*
X586990Y302623D01*
X587185Y302559D01*
X587377Y302487D01*
X587487Y302460D01*
X587596Y302424D01*
X587796Y302385D01*
X587996Y302337D01*
X588109Y302325D01*
X588221Y302303D01*
X588418Y302290D01*
X588629Y302267D01*
X588755Y302268D01*
X588875Y302261D01*
X630333Y302261D01*
X630476Y302270D01*
X630619Y302269D01*
X630794Y302290D01*
X630969Y302301D01*
X631109Y302327D01*
X631252Y302344D01*
X631423Y302387D01*
X631595Y302420D01*
X631731Y302464D01*
X631870Y302499D01*
X632034Y302562D01*
X632201Y302617D01*
X632331Y302677D01*
X632464Y302729D01*
X632614Y302810D01*
X632778Y302888D01*
X632910Y302971D01*
X633040Y303042D01*
X691681Y339964D01*
X691683Y339966D01*
X691686Y339967D01*
X691956Y340162D01*
X692198Y340337D01*
X692200Y340339D01*
X692203Y340341D01*
X692439Y340562D01*
X692664Y340771D01*
X692666Y340773D01*
X692668Y340776D01*
X692862Y341008D01*
X693072Y341261D01*
X693074Y341263D01*
X693076Y341265D01*
X693233Y341511D01*
X693416Y341797D01*
X693417Y341800D01*
X693419Y341802D01*
X693556Y342091D01*
X693690Y342373D01*
X693690Y342375D01*
X693692Y342378D01*
X693787Y342668D01*
X693889Y342978D01*
X693890Y342980D01*
X693891Y342983D01*
X693951Y343294D01*
X694011Y343603D01*
X694011Y343606D01*
X694012Y343609D01*
X694020Y343732D01*
X694054Y344239D01*
X694054Y344251D01*
X694054Y344263D01*
X694054Y519358D01*
X694050Y519431D01*
X694052Y519504D01*
X694030Y519749D01*
X694014Y519994D01*
X694001Y520066D01*
X693994Y520139D01*
X693941Y520379D01*
X693895Y520620D01*
X693872Y520690D01*
X693857Y520761D01*
X693774Y520992D01*
X693698Y521226D01*
X693667Y521292D01*
X693643Y521361D01*
X693532Y521580D01*
X693427Y521803D01*
X693388Y521865D01*
X693355Y521930D01*
X693218Y522133D01*
X693086Y522341D01*
X693040Y522397D01*
X692999Y522458D01*
X692846Y522631D01*
X692681Y522832D01*
X692620Y522890D01*
X692567Y522950D01*
X660110Y555407D01*
X660055Y555455D01*
X660005Y555508D01*
X659816Y555666D01*
X659632Y555828D01*
X659572Y555869D01*
X659516Y555916D01*
X659308Y556048D01*
X659105Y556186D01*
X659040Y556219D01*
X658979Y556259D01*
X658757Y556364D01*
X658538Y556476D01*
X658469Y556500D01*
X658403Y556532D01*
X658169Y556608D01*
X657938Y556692D01*
X657867Y556708D01*
X657798Y556731D01*
X657557Y556777D01*
X657317Y556831D01*
X657244Y556838D01*
X657172Y556852D01*
X656941Y556867D01*
X656682Y556892D01*
X656599Y556889D01*
X656518Y556894D01*
X636409Y556894D01*
X636099Y556875D01*
X635848Y556863D01*
X634830Y556750D01*
X634687Y556778D01*
X634443Y556832D01*
X634374Y556839D01*
X634306Y556852D01*
X634072Y556867D01*
X633891Y556884D01*
X632948Y557275D01*
X632654Y557375D01*
X632417Y557461D01*
X630993Y557873D01*
X630973Y557881D01*
X630873Y557929D01*
X630675Y557994D01*
X630481Y558067D01*
X630373Y558093D01*
X630268Y558128D01*
X630063Y558167D01*
X629861Y558216D01*
X629751Y558228D01*
X629642Y558249D01*
X629442Y558262D01*
X629228Y558286D01*
X629105Y558284D01*
X628988Y558291D01*
X622975Y558291D01*
X618120Y560302D01*
X614404Y564018D01*
X612393Y568873D01*
X612393Y574127D01*
X614404Y578982D01*
X616030Y580608D01*
X616133Y580725D01*
X616243Y580834D01*
X616343Y580963D01*
X616452Y581086D01*
X616539Y581214D01*
X616634Y581337D01*
X616718Y581478D01*
X616810Y581613D01*
X616880Y581751D01*
X616960Y581884D01*
X617025Y582035D01*
X617100Y582181D01*
X617152Y582326D01*
X617214Y582469D01*
X617260Y582626D01*
X617316Y582780D01*
X617350Y582931D01*
X617393Y583080D01*
X617419Y583242D01*
X617455Y583402D01*
X617470Y583556D01*
X617494Y583709D01*
X617500Y583873D01*
X617515Y584036D01*
X617511Y584191D01*
X617516Y584346D01*
X617501Y584509D01*
X617496Y584673D01*
X617472Y584826D01*
X617458Y584980D01*
X617423Y585140D01*
X617397Y585302D01*
X617354Y585451D01*
X617321Y585602D01*
X617266Y585757D01*
X617220Y585914D01*
X617159Y586057D01*
X617107Y586203D01*
X617033Y586349D01*
X616968Y586499D01*
X616889Y586633D01*
X616819Y586771D01*
X616728Y586907D01*
X616644Y587048D01*
X616550Y587171D01*
X616463Y587299D01*
X616358Y587419D01*
X616255Y587552D01*
X616135Y587672D01*
X616030Y587792D01*
X614404Y589418D01*
X612393Y594273D01*
X612393Y599527D01*
X614404Y604382D01*
X614760Y604738D01*
X614917Y604916D01*
X615079Y605088D01*
X615128Y605155D01*
X615182Y605216D01*
X615315Y605412D01*
X615454Y605604D01*
X615494Y605675D01*
X615540Y605743D01*
X615648Y605954D01*
X615762Y606161D01*
X615792Y606238D01*
X615830Y606311D01*
X615910Y606534D01*
X615997Y606754D01*
X616018Y606833D01*
X616046Y606910D01*
X616097Y607141D01*
X616157Y607370D01*
X616167Y607452D01*
X616185Y607532D01*
X616207Y607767D01*
X616238Y608002D01*
X616238Y608085D01*
X616246Y608166D01*
X616238Y608402D01*
X616239Y608640D01*
X616229Y608721D01*
X616226Y608803D01*
X616189Y609036D01*
X616160Y609272D01*
X616140Y609352D01*
X616127Y609432D01*
X616061Y609659D01*
X616003Y609889D01*
X615973Y609966D01*
X615950Y610044D01*
X615857Y610261D01*
X615770Y610482D01*
X615730Y610554D01*
X615698Y610629D01*
X615578Y610833D01*
X615464Y611041D01*
X615416Y611108D01*
X615374Y611178D01*
X615230Y611366D01*
X615091Y611558D01*
X615035Y611618D01*
X614985Y611682D01*
X614818Y611850D01*
X614656Y612023D01*
X614593Y612076D01*
X614535Y612134D01*
X614348Y612279D01*
X614166Y612431D01*
X614097Y612475D01*
X614032Y612525D01*
X613829Y612646D01*
X613629Y612774D01*
X613555Y612809D01*
X613485Y612851D01*
X613268Y612945D01*
X613054Y613047D01*
X612975Y613072D01*
X612900Y613105D01*
X612673Y613172D01*
X612448Y613246D01*
X612368Y613261D01*
X612289Y613284D01*
X612055Y613322D01*
X611823Y613367D01*
X611743Y613372D01*
X611660Y613385D01*
X611400Y613394D01*
X611169Y613409D01*
X544531Y613409D01*
X544295Y613394D01*
X544058Y613387D01*
X543977Y613374D01*
X543895Y613369D01*
X543663Y613325D01*
X543429Y613288D01*
X543350Y613265D01*
X543269Y613250D01*
X543044Y613177D01*
X542817Y613111D01*
X542741Y613079D01*
X542663Y613053D01*
X542449Y612953D01*
X542232Y612859D01*
X542161Y612817D01*
X542087Y612782D01*
X541887Y612656D01*
X541683Y612535D01*
X541618Y612485D01*
X541549Y612441D01*
X541366Y612290D01*
X541179Y612146D01*
X541121Y612088D01*
X541057Y612036D01*
X540895Y611863D01*
X540727Y611696D01*
X540677Y611631D01*
X540621Y611572D01*
X540481Y611380D01*
X540336Y611193D01*
X540294Y611123D01*
X540246Y611057D01*
X540131Y610849D01*
X540010Y610646D01*
X539978Y610570D01*
X539938Y610499D01*
X539851Y610279D01*
X539756Y610061D01*
X539733Y609983D01*
X539703Y609906D01*
X539644Y609677D01*
X539577Y609450D01*
X539564Y609369D01*
X539543Y609290D01*
X539513Y609055D01*
X539476Y608821D01*
X539473Y608739D01*
X539462Y608658D01*
X539462Y608421D01*
X539454Y608184D01*
X539461Y608103D01*
X539461Y608020D01*
X539491Y607785D01*
X539512Y607550D01*
X539530Y607470D01*
X539540Y607388D01*
X539598Y607159D01*
X539649Y606927D01*
X539677Y606850D01*
X539697Y606771D01*
X539784Y606550D01*
X539863Y606327D01*
X539900Y606254D01*
X539930Y606178D01*
X540044Y605969D01*
X540151Y605759D01*
X540197Y605691D01*
X540236Y605619D01*
X540375Y605427D01*
X540507Y605231D01*
X540560Y605170D01*
X540609Y605102D01*
X540787Y604913D01*
X540940Y604738D01*
X541296Y604382D01*
X543307Y599527D01*
X543307Y594273D01*
X541296Y589418D01*
X538772Y586894D01*
X538669Y586777D01*
X538559Y586668D01*
X538459Y586539D01*
X538350Y586416D01*
X538263Y586287D01*
X538168Y586165D01*
X538084Y586025D01*
X537992Y585889D01*
X537921Y585751D01*
X537842Y585617D01*
X537777Y585467D01*
X537702Y585321D01*
X537650Y585175D01*
X537588Y585033D01*
X537542Y584876D01*
X537486Y584722D01*
X537452Y584570D01*
X537409Y584422D01*
X537383Y584260D01*
X537347Y584100D01*
X537332Y583946D01*
X537308Y583793D01*
X537302Y583629D01*
X537286Y583466D01*
X537291Y583311D01*
X537286Y583156D01*
X537301Y582993D01*
X537306Y582829D01*
X537330Y582676D01*
X537344Y582522D01*
X537379Y582362D01*
X537405Y582200D01*
X537448Y582051D01*
X537481Y581899D01*
X537536Y581745D01*
X537582Y581588D01*
X537643Y581445D01*
X537695Y581299D01*
X537769Y581153D01*
X537834Y581003D01*
X537913Y580869D01*
X537983Y580731D01*
X538074Y580595D01*
X538158Y580454D01*
X538252Y580331D01*
X538339Y580203D01*
X538444Y580083D01*
X538547Y579950D01*
X538666Y579830D01*
X538772Y579710D01*
X539093Y579389D01*
X540046Y578147D01*
X540829Y576792D01*
X540916Y576579D01*
X520700Y576579D01*
X500484Y576579D01*
X500571Y576792D01*
X501354Y578147D01*
X502346Y579440D01*
X502413Y579516D01*
X502575Y579688D01*
X502623Y579755D01*
X502678Y579816D01*
X502811Y580012D01*
X502950Y580204D01*
X502990Y580275D01*
X503036Y580343D01*
X503144Y580554D01*
X503258Y580761D01*
X503288Y580838D01*
X503325Y580910D01*
X503406Y581133D01*
X503493Y581354D01*
X503514Y581433D01*
X503542Y581510D01*
X503594Y581741D01*
X503653Y581970D01*
X503663Y582051D01*
X503681Y582131D01*
X503704Y582367D01*
X503734Y582602D01*
X503734Y582684D01*
X503742Y582766D01*
X503734Y583002D01*
X503735Y583240D01*
X503725Y583321D01*
X503722Y583403D01*
X503685Y583636D01*
X503656Y583872D01*
X503636Y583951D01*
X503623Y584032D01*
X503557Y584260D01*
X503499Y584489D01*
X503469Y584565D01*
X503446Y584644D01*
X503353Y584861D01*
X503266Y585082D01*
X503226Y585154D01*
X503194Y585229D01*
X503074Y585433D01*
X502960Y585641D01*
X502912Y585708D01*
X502871Y585778D01*
X502726Y585965D01*
X502587Y586158D01*
X502531Y586217D01*
X502481Y586282D01*
X502314Y586450D01*
X502152Y586623D01*
X502089Y586676D01*
X502031Y586733D01*
X501845Y586879D01*
X501662Y587031D01*
X501593Y587075D01*
X501529Y587125D01*
X501325Y587246D01*
X501125Y587374D01*
X501051Y587409D01*
X500981Y587451D01*
X500764Y587545D01*
X500550Y587647D01*
X500472Y587672D01*
X500397Y587705D01*
X500170Y587772D01*
X499944Y587846D01*
X499864Y587861D01*
X499785Y587884D01*
X499551Y587922D01*
X499319Y587967D01*
X499239Y587972D01*
X499156Y587985D01*
X498896Y587994D01*
X498665Y588009D01*
X493531Y588009D01*
X490264Y589363D01*
X475063Y604564D01*
X473709Y607831D01*
X473709Y700269D01*
X475063Y703536D01*
X502964Y731437D01*
X506231Y732791D01*
X626375Y732791D01*
X626447Y732795D01*
X626520Y732793D01*
X626765Y732815D01*
X627011Y732831D01*
X627082Y732844D01*
X627155Y732851D01*
X627395Y732904D01*
X627636Y732950D01*
X627706Y732973D01*
X627777Y732988D01*
X628008Y733071D01*
X628242Y733147D01*
X628309Y733178D01*
X628377Y733202D01*
X628596Y733313D01*
X628819Y733418D01*
X628881Y733457D01*
X628946Y733490D01*
X629149Y733627D01*
X629357Y733759D01*
X629414Y733805D01*
X629474Y733846D01*
X629648Y733999D01*
X629848Y734164D01*
X629906Y734225D01*
X629966Y734278D01*
X668105Y772417D01*
X668225Y772554D01*
X668353Y772684D01*
X668436Y772793D01*
X668526Y772895D01*
X668629Y773045D01*
X668739Y773191D01*
X668808Y773309D01*
X668885Y773422D01*
X668967Y773584D01*
X669059Y773742D01*
X669112Y773868D01*
X669174Y773990D01*
X669236Y774161D01*
X669307Y774329D01*
X669344Y774461D01*
X669390Y774589D01*
X669430Y774767D01*
X669479Y774942D01*
X669500Y775077D01*
X669530Y775211D01*
X669547Y775392D01*
X669574Y775572D01*
X669577Y775709D01*
X669590Y775845D01*
X669584Y776027D01*
X669589Y776209D01*
X669575Y776345D01*
X669571Y776482D01*
X669542Y776662D01*
X669524Y776843D01*
X669493Y776976D01*
X669472Y777111D01*
X669421Y777287D01*
X669380Y777464D01*
X669333Y777592D01*
X669295Y777723D01*
X669222Y777891D01*
X669159Y778062D01*
X669097Y778183D01*
X669042Y778308D01*
X668950Y778465D01*
X668866Y778627D01*
X668788Y778739D01*
X668719Y778857D01*
X668607Y779002D01*
X668504Y779151D01*
X668413Y779253D01*
X668329Y779361D01*
X668201Y779490D01*
X668079Y779626D01*
X667976Y779716D01*
X667879Y779813D01*
X667736Y779925D01*
X667598Y780044D01*
X667487Y780118D01*
X667377Y780204D01*
X667207Y780305D01*
X667053Y780408D01*
X666453Y780754D01*
X665211Y781707D01*
X664105Y782813D01*
X663152Y784055D01*
X662369Y785410D01*
X661771Y786856D01*
X661366Y788368D01*
X661161Y789919D01*
X661161Y795021D01*
X673100Y795021D01*
X673254Y795030D01*
X673409Y795030D01*
X673572Y795050D01*
X673736Y795061D01*
X673887Y795089D01*
X674041Y795109D01*
X674201Y795149D01*
X674361Y795180D01*
X674509Y795228D01*
X674659Y795266D01*
X674811Y795326D01*
X674967Y795376D01*
X675108Y795442D01*
X675252Y795499D01*
X675396Y795578D01*
X675544Y795647D01*
X675675Y795730D01*
X675811Y795805D01*
X675944Y795901D01*
X676082Y795988D01*
X676202Y796087D01*
X676327Y796178D01*
X676447Y796290D01*
X676573Y796394D01*
X676680Y796507D01*
X676793Y796613D01*
X676898Y796739D01*
X677010Y796858D01*
X677011Y796859D01*
X677102Y796984D01*
X677201Y797103D01*
X677289Y797241D01*
X677386Y797374D01*
X677460Y797509D01*
X677544Y797640D01*
X677614Y797788D01*
X677693Y797932D01*
X677750Y798076D01*
X677817Y798216D01*
X677868Y798372D01*
X677929Y798524D01*
X677967Y798674D01*
X678016Y798821D01*
X678047Y798982D01*
X678088Y799141D01*
X678108Y799294D01*
X678137Y799446D01*
X678147Y799605D01*
X678169Y799773D01*
X678169Y799941D01*
X678179Y800100D01*
X678179Y820316D01*
X678392Y820229D01*
X679747Y819446D01*
X680989Y818493D01*
X681310Y818172D01*
X681427Y818069D01*
X681536Y817959D01*
X681665Y817859D01*
X681788Y817750D01*
X681917Y817663D01*
X682039Y817568D01*
X682179Y817484D01*
X682315Y817392D01*
X682453Y817322D01*
X682586Y817242D01*
X682737Y817177D01*
X682883Y817102D01*
X683029Y817050D01*
X683171Y816988D01*
X683328Y816942D01*
X683482Y816886D01*
X683633Y816852D01*
X683782Y816809D01*
X683944Y816783D01*
X684104Y816747D01*
X684258Y816732D01*
X684411Y816708D01*
X684575Y816702D01*
X684738Y816686D01*
X684893Y816691D01*
X685048Y816686D01*
X685211Y816701D01*
X685375Y816706D01*
X685528Y816730D01*
X685682Y816744D01*
X685842Y816779D01*
X686004Y816805D01*
X686153Y816848D01*
X686304Y816881D01*
X686459Y816936D01*
X686616Y816982D01*
X686758Y817043D01*
X686905Y817095D01*
X687051Y817169D01*
X687201Y817234D01*
X687335Y817313D01*
X687473Y817383D01*
X687609Y817474D01*
X687750Y817558D01*
X687873Y817652D01*
X688001Y817739D01*
X688121Y817844D01*
X688254Y817947D01*
X688374Y818066D01*
X688494Y818172D01*
X691018Y820696D01*
X695873Y822707D01*
X701127Y822707D01*
X705982Y820696D01*
X707608Y819070D01*
X707725Y818967D01*
X707834Y818857D01*
X707963Y818757D01*
X708086Y818648D01*
X708214Y818561D01*
X708337Y818466D01*
X708478Y818382D01*
X708613Y818290D01*
X708751Y818220D01*
X708884Y818140D01*
X709035Y818075D01*
X709181Y818000D01*
X709326Y817948D01*
X709469Y817886D01*
X709626Y817840D01*
X709780Y817784D01*
X709931Y817750D01*
X710080Y817707D01*
X710242Y817681D01*
X710402Y817645D01*
X710556Y817630D01*
X710709Y817606D01*
X710873Y817600D01*
X711036Y817585D01*
X711191Y817589D01*
X711346Y817584D01*
X711509Y817599D01*
X711673Y817604D01*
X711826Y817628D01*
X711980Y817642D01*
X712140Y817677D01*
X712302Y817703D01*
X712451Y817746D01*
X712602Y817779D01*
X712757Y817834D01*
X712914Y817880D01*
X713057Y817941D01*
X713203Y817993D01*
X713349Y818067D01*
X713499Y818132D01*
X713633Y818211D01*
X713771Y818281D01*
X713907Y818372D01*
X714048Y818456D01*
X714171Y818550D01*
X714299Y818637D01*
X714419Y818742D01*
X714552Y818845D01*
X714672Y818965D01*
X714792Y819070D01*
X716418Y820696D01*
X721273Y822707D01*
X726527Y822707D01*
X731382Y820696D01*
X731738Y820340D01*
X731916Y820183D01*
X732088Y820021D01*
X732155Y819972D01*
X732216Y819918D01*
X732412Y819785D01*
X732604Y819646D01*
X732675Y819606D01*
X732743Y819560D01*
X732955Y819452D01*
X733161Y819338D01*
X733238Y819308D01*
X733311Y819270D01*
X733534Y819190D01*
X733754Y819103D01*
X733833Y819082D01*
X733910Y819054D01*
X734141Y819003D01*
X734370Y818943D01*
X734452Y818933D01*
X734532Y818915D01*
X734767Y818893D01*
X735002Y818862D01*
X735085Y818862D01*
X735166Y818854D01*
X735402Y818862D01*
X735640Y818861D01*
X735721Y818871D01*
X735803Y818874D01*
X736036Y818911D01*
X736272Y818940D01*
X736352Y818960D01*
X736432Y818973D01*
X736659Y819039D01*
X736889Y819097D01*
X736966Y819127D01*
X737044Y819150D01*
X737261Y819243D01*
X737482Y819330D01*
X737554Y819370D01*
X737629Y819402D01*
X737833Y819522D01*
X738041Y819636D01*
X738108Y819684D01*
X738178Y819726D01*
X738366Y819870D01*
X738558Y820009D01*
X738618Y820065D01*
X738682Y820115D01*
X738850Y820282D01*
X739023Y820444D01*
X739076Y820507D01*
X739134Y820565D01*
X739279Y820752D01*
X739431Y820934D01*
X739475Y821003D01*
X739525Y821068D01*
X739646Y821271D01*
X739774Y821471D01*
X739809Y821545D01*
X739851Y821615D01*
X739945Y821832D01*
X740047Y822046D01*
X740072Y822125D01*
X740105Y822200D01*
X740172Y822427D01*
X740246Y822652D01*
X740261Y822732D01*
X740284Y822811D01*
X740322Y823045D01*
X740367Y823277D01*
X740372Y823357D01*
X740385Y823440D01*
X740394Y823700D01*
X740409Y823931D01*
X740409Y827269D01*
X741763Y830536D01*
X756964Y845737D01*
X760231Y847091D01*
X1043169Y847091D01*
X1046436Y845737D01*
X1163237Y728936D01*
X1164591Y725669D01*
X1164591Y684031D01*
X1163237Y680764D01*
X1151252Y668778D01*
X1149640Y667167D01*
X1149484Y666989D01*
X1149321Y666817D01*
X1149273Y666750D01*
X1149219Y666689D01*
X1149086Y666493D01*
X1148946Y666301D01*
X1148906Y666230D01*
X1148860Y666162D01*
X1148753Y665951D01*
X1148638Y665744D01*
X1148608Y665667D01*
X1148571Y665594D01*
X1148490Y665371D01*
X1148403Y665151D01*
X1148383Y665072D01*
X1148355Y664995D01*
X1148303Y664764D01*
X1148244Y664535D01*
X1148233Y664453D01*
X1148215Y664373D01*
X1148193Y664138D01*
X1148163Y663903D01*
X1148163Y663820D01*
X1148155Y663739D01*
X1148162Y663503D01*
X1148162Y663265D01*
X1148172Y663184D01*
X1148174Y663102D01*
X1148211Y662869D01*
X1148240Y662633D01*
X1148261Y662554D01*
X1148273Y662473D01*
X1148339Y662245D01*
X1148397Y662016D01*
X1148428Y661939D01*
X1148450Y661861D01*
X1148544Y661644D01*
X1148631Y661423D01*
X1148670Y661351D01*
X1148703Y661276D01*
X1148822Y661072D01*
X1148936Y660864D01*
X1148985Y660797D01*
X1149026Y660727D01*
X1149171Y660540D01*
X1149310Y660347D01*
X1149366Y660287D01*
X1149416Y660223D01*
X1149583Y660055D01*
X1149744Y659882D01*
X1149808Y659829D01*
X1149865Y659771D01*
X1150052Y659626D01*
X1150234Y659474D01*
X1150303Y659430D01*
X1150368Y659380D01*
X1150572Y659259D01*
X1150771Y659131D01*
X1150845Y659096D01*
X1150916Y659054D01*
X1151133Y658960D01*
X1151347Y658858D01*
X1151425Y658833D01*
X1151500Y658800D01*
X1151727Y658733D01*
X1151952Y658659D01*
X1152033Y658644D01*
X1152111Y658621D01*
X1152345Y658583D01*
X1152578Y658538D01*
X1152658Y658533D01*
X1152740Y658520D01*
X1153001Y658511D01*
X1153231Y658496D01*
X1201183Y658496D01*
X1201271Y658501D01*
X1201355Y658499D01*
X1203043Y658556D01*
X1203175Y658501D01*
X1203205Y658491D01*
X1203234Y658477D01*
X1203506Y658388D01*
X1203778Y658295D01*
X1203809Y658288D01*
X1203839Y658278D01*
X1204120Y658224D01*
X1204401Y658166D01*
X1204433Y658163D01*
X1204465Y658157D01*
X1204715Y658141D01*
X1205037Y658115D01*
X1205078Y658117D01*
X1205119Y658115D01*
X1215176Y658115D01*
X1219004Y656529D01*
X1221933Y653600D01*
X1223519Y649772D01*
X1223519Y645628D01*
X1221933Y641801D01*
X1218724Y638592D01*
X1218622Y638475D01*
X1218512Y638366D01*
X1218411Y638237D01*
X1218303Y638114D01*
X1218216Y637986D01*
X1218121Y637863D01*
X1218037Y637722D01*
X1217945Y637587D01*
X1217874Y637449D01*
X1217795Y637316D01*
X1217730Y637165D01*
X1217655Y637019D01*
X1217603Y636874D01*
X1217541Y636731D01*
X1217495Y636574D01*
X1217439Y636420D01*
X1217405Y636269D01*
X1217362Y636120D01*
X1217336Y635958D01*
X1217300Y635798D01*
X1217285Y635644D01*
X1217260Y635491D01*
X1217255Y635327D01*
X1217239Y635164D01*
X1217244Y635009D01*
X1217239Y634854D01*
X1217254Y634691D01*
X1217259Y634527D01*
X1217283Y634374D01*
X1217297Y634220D01*
X1217332Y634060D01*
X1217358Y633898D01*
X1217401Y633749D01*
X1217434Y633598D01*
X1217489Y633443D01*
X1217535Y633286D01*
X1217596Y633143D01*
X1217648Y632997D01*
X1217722Y632851D01*
X1217787Y632701D01*
X1217866Y632567D01*
X1217935Y632429D01*
X1218027Y632293D01*
X1218110Y632152D01*
X1218205Y632029D01*
X1218292Y631901D01*
X1218397Y631781D01*
X1218500Y631648D01*
X1218619Y631528D01*
X1218724Y631408D01*
X1221933Y628200D01*
X1223519Y624372D01*
X1223519Y620228D01*
X1221933Y616401D01*
X1218724Y613192D01*
X1218622Y613075D01*
X1218512Y612966D01*
X1218411Y612837D01*
X1218303Y612714D01*
X1218216Y612586D01*
X1218121Y612463D01*
X1218037Y612322D01*
X1217945Y612187D01*
X1217874Y612049D01*
X1217795Y611916D01*
X1217730Y611765D01*
X1217655Y611619D01*
X1217603Y611474D01*
X1217541Y611331D01*
X1217495Y611174D01*
X1217439Y611020D01*
X1217405Y610869D01*
X1217362Y610720D01*
X1217336Y610558D01*
X1217300Y610398D01*
X1217285Y610244D01*
X1217260Y610091D01*
X1217255Y609927D01*
X1217239Y609764D01*
X1217244Y609609D01*
X1217239Y609454D01*
X1217254Y609291D01*
X1217259Y609127D01*
X1217283Y608974D01*
X1217297Y608820D01*
X1217332Y608660D01*
X1217358Y608498D01*
X1217401Y608349D01*
X1217434Y608198D01*
X1217489Y608043D01*
X1217535Y607886D01*
X1217596Y607743D01*
X1217648Y607597D01*
X1217722Y607451D01*
X1217787Y607301D01*
X1217866Y607167D01*
X1217935Y607029D01*
X1218027Y606893D01*
X1218110Y606752D01*
X1218205Y606629D01*
X1218292Y606501D01*
X1218397Y606381D01*
X1218500Y606248D01*
X1218619Y606128D01*
X1218724Y606008D01*
X1221933Y602800D01*
X1223519Y598972D01*
X1223519Y594828D01*
X1221933Y591001D01*
X1218724Y587792D01*
X1218622Y587675D01*
X1218512Y587566D01*
X1218411Y587437D01*
X1218303Y587314D01*
X1218216Y587186D01*
X1218121Y587063D01*
X1218037Y586922D01*
X1217945Y586787D01*
X1217874Y586649D01*
X1217795Y586516D01*
X1217730Y586365D01*
X1217655Y586219D01*
X1217603Y586074D01*
X1217541Y585931D01*
X1217495Y585774D01*
X1217439Y585620D01*
X1217405Y585469D01*
X1217362Y585320D01*
X1217336Y585158D01*
X1217300Y584998D01*
X1217285Y584844D01*
X1217260Y584691D01*
X1217255Y584527D01*
X1217239Y584364D01*
X1217244Y584209D01*
X1217239Y584054D01*
X1217254Y583891D01*
X1217259Y583727D01*
X1217283Y583574D01*
X1217297Y583420D01*
X1217332Y583260D01*
X1217358Y583098D01*
X1217401Y582949D01*
X1217434Y582798D01*
X1217489Y582643D01*
X1217535Y582486D01*
X1217596Y582343D01*
X1217648Y582197D01*
X1217722Y582051D01*
X1217787Y581901D01*
X1217866Y581767D01*
X1217935Y581629D01*
X1218027Y581493D01*
X1218110Y581352D01*
X1218205Y581229D01*
X1218292Y581101D01*
X1218397Y580981D01*
X1218500Y580848D01*
X1218619Y580728D01*
X1218724Y580608D01*
X1221933Y577400D01*
X1223519Y573572D01*
X1223519Y569428D01*
X1221933Y565601D01*
X1218724Y562392D01*
X1218622Y562275D01*
X1218512Y562166D01*
X1218411Y562037D01*
X1218303Y561914D01*
X1218216Y561786D01*
X1218121Y561663D01*
X1218037Y561522D01*
X1217945Y561387D01*
X1217874Y561249D01*
X1217795Y561116D01*
X1217730Y560965D01*
X1217655Y560819D01*
X1217603Y560674D01*
X1217541Y560531D01*
X1217495Y560374D01*
X1217439Y560220D01*
X1217405Y560069D01*
X1217362Y559920D01*
X1217336Y559758D01*
X1217300Y559598D01*
X1217285Y559444D01*
X1217260Y559291D01*
X1217255Y559127D01*
X1217239Y558964D01*
X1217244Y558809D01*
X1217239Y558654D01*
X1217254Y558491D01*
X1217259Y558327D01*
X1217283Y558174D01*
X1217297Y558020D01*
X1217332Y557860D01*
X1217358Y557698D01*
X1217401Y557549D01*
X1217434Y557398D01*
X1217489Y557243D01*
X1217535Y557086D01*
X1217596Y556943D01*
X1217648Y556797D01*
X1217722Y556651D01*
X1217787Y556501D01*
X1217866Y556367D01*
X1217935Y556229D01*
X1218027Y556093D01*
X1218110Y555952D01*
X1218205Y555829D01*
X1218292Y555701D01*
X1218397Y555581D01*
X1218500Y555448D01*
X1218619Y555328D01*
X1218724Y555208D01*
X1221933Y552000D01*
X1223519Y548172D01*
X1223519Y544028D01*
X1221933Y540200D01*
X1218724Y536992D01*
X1218622Y536875D01*
X1218512Y536766D01*
X1218411Y536637D01*
X1218303Y536514D01*
X1218216Y536386D01*
X1218121Y536263D01*
X1218037Y536122D01*
X1217945Y535987D01*
X1217874Y535849D01*
X1217795Y535716D01*
X1217730Y535565D01*
X1217655Y535419D01*
X1217603Y535273D01*
X1217541Y535131D01*
X1217495Y534974D01*
X1217439Y534820D01*
X1217405Y534669D01*
X1217362Y534520D01*
X1217336Y534358D01*
X1217300Y534198D01*
X1217285Y534044D01*
X1217260Y533891D01*
X1217255Y533727D01*
X1217239Y533564D01*
X1217244Y533409D01*
X1217239Y533254D01*
X1217254Y533091D01*
X1217259Y532927D01*
X1217283Y532774D01*
X1217297Y532620D01*
X1217332Y532460D01*
X1217358Y532298D01*
X1217401Y532149D01*
X1217434Y531998D01*
X1217489Y531843D01*
X1217535Y531686D01*
X1217596Y531543D01*
X1217648Y531397D01*
X1217722Y531251D01*
X1217787Y531101D01*
X1217866Y530967D01*
X1217935Y530829D01*
X1218027Y530693D01*
X1218110Y530552D01*
X1218205Y530429D01*
X1218292Y530301D01*
X1218397Y530181D01*
X1218500Y530048D01*
X1218619Y529928D01*
X1218724Y529808D01*
X1221933Y526599D01*
X1223519Y522772D01*
X1223519Y518628D01*
X1221933Y514800D01*
X1218724Y511592D01*
X1218622Y511475D01*
X1218512Y511366D01*
X1218411Y511237D01*
X1218303Y511114D01*
X1218216Y510986D01*
X1218121Y510863D01*
X1218037Y510722D01*
X1217945Y510587D01*
X1217874Y510449D01*
X1217795Y510316D01*
X1217730Y510165D01*
X1217655Y510019D01*
X1217603Y509873D01*
X1217541Y509731D01*
X1217495Y509574D01*
X1217439Y509420D01*
X1217405Y509269D01*
X1217362Y509120D01*
X1217336Y508958D01*
X1217300Y508798D01*
X1217285Y508644D01*
X1217260Y508491D01*
X1217255Y508327D01*
X1217239Y508164D01*
X1217244Y508009D01*
X1217239Y507854D01*
X1217254Y507691D01*
X1217259Y507527D01*
X1217283Y507374D01*
X1217297Y507220D01*
X1217332Y507060D01*
X1217358Y506898D01*
X1217401Y506749D01*
X1217434Y506598D01*
X1217489Y506443D01*
X1217535Y506286D01*
X1217596Y506143D01*
X1217648Y505997D01*
X1217722Y505851D01*
X1217787Y505701D01*
X1217866Y505567D01*
X1217935Y505429D01*
X1218027Y505293D01*
X1218110Y505152D01*
X1218205Y505029D01*
X1218292Y504901D01*
X1218397Y504781D01*
X1218500Y504648D01*
X1218619Y504528D01*
X1218724Y504408D01*
X1221933Y501199D01*
X1223519Y497372D01*
X1223519Y493228D01*
X1221933Y489401D01*
X1218724Y486192D01*
X1218622Y486075D01*
X1218512Y485966D01*
X1218411Y485837D01*
X1218303Y485714D01*
X1218216Y485586D01*
X1218121Y485463D01*
X1218037Y485322D01*
X1217945Y485187D01*
X1217874Y485049D01*
X1217795Y484916D01*
X1217730Y484765D01*
X1217655Y484619D01*
X1217603Y484474D01*
X1217541Y484331D01*
X1217495Y484174D01*
X1217439Y484020D01*
X1217405Y483869D01*
X1217362Y483720D01*
X1217336Y483558D01*
X1217300Y483398D01*
X1217285Y483244D01*
X1217260Y483091D01*
X1217255Y482927D01*
X1217239Y482764D01*
X1217244Y482609D01*
X1217239Y482454D01*
X1217254Y482291D01*
X1217259Y482127D01*
X1217283Y481974D01*
X1217297Y481820D01*
X1217332Y481660D01*
X1217358Y481498D01*
X1217401Y481349D01*
X1217434Y481198D01*
X1217489Y481043D01*
X1217535Y480886D01*
X1217596Y480743D01*
X1217648Y480597D01*
X1217722Y480451D01*
X1217787Y480301D01*
X1217866Y480167D01*
X1217935Y480029D01*
X1218027Y479893D01*
X1218110Y479752D01*
X1218205Y479629D01*
X1218292Y479501D01*
X1218397Y479381D01*
X1218500Y479248D01*
X1218619Y479128D01*
X1218724Y479008D01*
X1221933Y475800D01*
X1223519Y471972D01*
X1223519Y467828D01*
X1221933Y464000D01*
X1219003Y461070D01*
X1218760Y460951D01*
X1218511Y460834D01*
X1218474Y460811D01*
X1218436Y460792D01*
X1218205Y460641D01*
X1217972Y460494D01*
X1217939Y460466D01*
X1217903Y460443D01*
X1217693Y460263D01*
X1217481Y460088D01*
X1217451Y460057D01*
X1217419Y460029D01*
X1217232Y459825D01*
X1217044Y459624D01*
X1217018Y459590D01*
X1216990Y459558D01*
X1216830Y459332D01*
X1216668Y459110D01*
X1216648Y459072D01*
X1216623Y459037D01*
X1216494Y458793D01*
X1216360Y458552D01*
X1216344Y458512D01*
X1216324Y458474D01*
X1216226Y458216D01*
X1216124Y457960D01*
X1216114Y457919D01*
X1216099Y457878D01*
X1216034Y457610D01*
X1215965Y457343D01*
X1215959Y457301D01*
X1215949Y457259D01*
X1215918Y456984D01*
X1215883Y456711D01*
X1215883Y456669D01*
X1215878Y456626D01*
X1215882Y456350D01*
X1215882Y456074D01*
X1215887Y456032D01*
X1215888Y455989D01*
X1215926Y455715D01*
X1215960Y455442D01*
X1215970Y455400D01*
X1215976Y455358D01*
X1216049Y455091D01*
X1216117Y454824D01*
X1216132Y454784D01*
X1216144Y454743D01*
X1216249Y454488D01*
X1216349Y454231D01*
X1216370Y454194D01*
X1216386Y454154D01*
X1216523Y453914D01*
X1216655Y453672D01*
X1216680Y453637D01*
X1216701Y453600D01*
X1216866Y453379D01*
X1217028Y453155D01*
X1217057Y453124D01*
X1217082Y453090D01*
X1217273Y452892D01*
X1217462Y452689D01*
X1217495Y452662D01*
X1217525Y452631D01*
X1217773Y452431D01*
X1217966Y452271D01*
X1219061Y451475D01*
X1220079Y450457D01*
X1220717Y449579D01*
X1206500Y449579D01*
X1192283Y449579D01*
X1192934Y450476D01*
X1193053Y450611D01*
X1193216Y450783D01*
X1193264Y450850D01*
X1193318Y450911D01*
X1193451Y451107D01*
X1193591Y451299D01*
X1193630Y451370D01*
X1193676Y451438D01*
X1193784Y451649D01*
X1193898Y451856D01*
X1193929Y451932D01*
X1193966Y452006D01*
X1194046Y452229D01*
X1194134Y452449D01*
X1194154Y452528D01*
X1194182Y452605D01*
X1194234Y452836D01*
X1194293Y453065D01*
X1194303Y453147D01*
X1194321Y453227D01*
X1194344Y453462D01*
X1194374Y453697D01*
X1194374Y453779D01*
X1194382Y453861D01*
X1194375Y454097D01*
X1194375Y454335D01*
X1194365Y454416D01*
X1194363Y454498D01*
X1194326Y454732D01*
X1194296Y454967D01*
X1194276Y455046D01*
X1194264Y455127D01*
X1194198Y455354D01*
X1194139Y455584D01*
X1194109Y455660D01*
X1194087Y455739D01*
X1193993Y455956D01*
X1193906Y456177D01*
X1193867Y456249D01*
X1193834Y456324D01*
X1193714Y456528D01*
X1193600Y456736D01*
X1193552Y456803D01*
X1193511Y456873D01*
X1193366Y457061D01*
X1193227Y457253D01*
X1193171Y457312D01*
X1193121Y457377D01*
X1192954Y457545D01*
X1192792Y457718D01*
X1192729Y457771D01*
X1192672Y457829D01*
X1192485Y457974D01*
X1192303Y458126D01*
X1192234Y458170D01*
X1192169Y458220D01*
X1191965Y458341D01*
X1191766Y458469D01*
X1191692Y458504D01*
X1191621Y458546D01*
X1191404Y458640D01*
X1191190Y458742D01*
X1191112Y458767D01*
X1191037Y458800D01*
X1190810Y458867D01*
X1190585Y458941D01*
X1190504Y458956D01*
X1190426Y458979D01*
X1190192Y459017D01*
X1189959Y459062D01*
X1189879Y459067D01*
X1189797Y459080D01*
X1189537Y459089D01*
X1189305Y459104D01*
X1145286Y459104D01*
X1145131Y459095D01*
X1144976Y459095D01*
X1144814Y459075D01*
X1144650Y459064D01*
X1144498Y459035D01*
X1144344Y459016D01*
X1144185Y458976D01*
X1144024Y458945D01*
X1143877Y458897D01*
X1143727Y458859D01*
X1143574Y458799D01*
X1143418Y458748D01*
X1143278Y458683D01*
X1143134Y458626D01*
X1142990Y458547D01*
X1142842Y458477D01*
X1142711Y458395D01*
X1142575Y458320D01*
X1142442Y458224D01*
X1142303Y458136D01*
X1142184Y458038D01*
X1142058Y457947D01*
X1141939Y457835D01*
X1141812Y457731D01*
X1141706Y457618D01*
X1141593Y457512D01*
X1141488Y457386D01*
X1141376Y457267D01*
X1141284Y457141D01*
X1141185Y457022D01*
X1141097Y456884D01*
X1141001Y456752D01*
X1140926Y456616D01*
X1140842Y456485D01*
X1140772Y456337D01*
X1140693Y456194D01*
X1140636Y456050D01*
X1140569Y455910D01*
X1140518Y455754D01*
X1140458Y455601D01*
X1140419Y455451D01*
X1140370Y455304D01*
X1140339Y455143D01*
X1140298Y454985D01*
X1140279Y454831D01*
X1140249Y454679D01*
X1140249Y454674D01*
X1138196Y449718D01*
X1136570Y448092D01*
X1136467Y447975D01*
X1136357Y447866D01*
X1136257Y447737D01*
X1136148Y447614D01*
X1136061Y447486D01*
X1135966Y447363D01*
X1135882Y447222D01*
X1135790Y447087D01*
X1135720Y446949D01*
X1135640Y446816D01*
X1135575Y446665D01*
X1135500Y446519D01*
X1135448Y446374D01*
X1135386Y446231D01*
X1135340Y446074D01*
X1135284Y445920D01*
X1135250Y445769D01*
X1135207Y445620D01*
X1135181Y445458D01*
X1135145Y445298D01*
X1135130Y445144D01*
X1135106Y444991D01*
X1135100Y444827D01*
X1135085Y444664D01*
X1135089Y444509D01*
X1135084Y444354D01*
X1135099Y444191D01*
X1135104Y444027D01*
X1135128Y443874D01*
X1135142Y443720D01*
X1135177Y443560D01*
X1135203Y443398D01*
X1135246Y443249D01*
X1135279Y443098D01*
X1135334Y442943D01*
X1135380Y442786D01*
X1135441Y442643D01*
X1135493Y442497D01*
X1135567Y442351D01*
X1135632Y442201D01*
X1135711Y442067D01*
X1135781Y441929D01*
X1135872Y441793D01*
X1135956Y441652D01*
X1136050Y441529D01*
X1136137Y441401D01*
X1136242Y441281D01*
X1136345Y441148D01*
X1136465Y441028D01*
X1136570Y440908D01*
X1138196Y439282D01*
X1140207Y434427D01*
X1140207Y429173D01*
X1138196Y424318D01*
X1137840Y423962D01*
X1137683Y423784D01*
X1137521Y423612D01*
X1137472Y423545D01*
X1137418Y423484D01*
X1137285Y423288D01*
X1137146Y423096D01*
X1137106Y423025D01*
X1137060Y422957D01*
X1136952Y422745D01*
X1136838Y422539D01*
X1136808Y422462D01*
X1136770Y422389D01*
X1136690Y422166D01*
X1136603Y421946D01*
X1136582Y421867D01*
X1136554Y421790D01*
X1136503Y421559D01*
X1136443Y421330D01*
X1136433Y421248D01*
X1136415Y421168D01*
X1136393Y420933D01*
X1136362Y420698D01*
X1136362Y420615D01*
X1136354Y420534D01*
X1136362Y420298D01*
X1136361Y420060D01*
X1136371Y419979D01*
X1136374Y419897D01*
X1136411Y419664D01*
X1136440Y419428D01*
X1136460Y419348D01*
X1136473Y419268D01*
X1136539Y419041D01*
X1136597Y418811D01*
X1136627Y418734D01*
X1136650Y418656D01*
X1136743Y418439D01*
X1136830Y418218D01*
X1136870Y418146D01*
X1136902Y418071D01*
X1137022Y417867D01*
X1137136Y417659D01*
X1137184Y417592D01*
X1137226Y417522D01*
X1137370Y417334D01*
X1137509Y417142D01*
X1137565Y417082D01*
X1137615Y417018D01*
X1137782Y416850D01*
X1137944Y416677D01*
X1138007Y416624D01*
X1138065Y416566D01*
X1138252Y416421D01*
X1138434Y416269D01*
X1138503Y416225D01*
X1138568Y416175D01*
X1138771Y416054D01*
X1138971Y415926D01*
X1139045Y415891D01*
X1139115Y415849D01*
X1139332Y415755D01*
X1139546Y415653D01*
X1139625Y415628D01*
X1139700Y415595D01*
X1139927Y415528D01*
X1140152Y415454D01*
X1140232Y415439D01*
X1140311Y415416D01*
X1140545Y415378D01*
X1140777Y415333D01*
X1140857Y415328D01*
X1140940Y415315D01*
X1141200Y415306D01*
X1141431Y415291D01*
X1285277Y415291D01*
X1285514Y415306D01*
X1285750Y415313D01*
X1285832Y415326D01*
X1285913Y415331D01*
X1286146Y415375D01*
X1286380Y415412D01*
X1286459Y415435D01*
X1286539Y415450D01*
X1286765Y415523D01*
X1286992Y415589D01*
X1287067Y415621D01*
X1287145Y415647D01*
X1287360Y415747D01*
X1287577Y415841D01*
X1287648Y415883D01*
X1287722Y415918D01*
X1287922Y416044D01*
X1288126Y416165D01*
X1288191Y416215D01*
X1288260Y416259D01*
X1288443Y416410D01*
X1288630Y416554D01*
X1288688Y416612D01*
X1288751Y416664D01*
X1288913Y416837D01*
X1289081Y417004D01*
X1289132Y417069D01*
X1289188Y417128D01*
X1289327Y417320D01*
X1289473Y417507D01*
X1289515Y417577D01*
X1289563Y417643D01*
X1289677Y417851D01*
X1289798Y418054D01*
X1289831Y418130D01*
X1289871Y418201D01*
X1289958Y418421D01*
X1290052Y418639D01*
X1290076Y418717D01*
X1290106Y418794D01*
X1290165Y419023D01*
X1290232Y419250D01*
X1290245Y419331D01*
X1290265Y419410D01*
X1290295Y419645D01*
X1290333Y419879D01*
X1290336Y419961D01*
X1290346Y420042D01*
X1290347Y420279D01*
X1290355Y420516D01*
X1290347Y420597D01*
X1290347Y420680D01*
X1290318Y420915D01*
X1290296Y421150D01*
X1290279Y421230D01*
X1290269Y421312D01*
X1290210Y421541D01*
X1290159Y421772D01*
X1290132Y421850D01*
X1290111Y421929D01*
X1290025Y422150D01*
X1289945Y422373D01*
X1289908Y422446D01*
X1289878Y422522D01*
X1289764Y422730D01*
X1289658Y422941D01*
X1289612Y423009D01*
X1289573Y423081D01*
X1289434Y423273D01*
X1289301Y423469D01*
X1289248Y423530D01*
X1289199Y423598D01*
X1289022Y423788D01*
X1288869Y423962D01*
X1280233Y432598D01*
X1280178Y432646D01*
X1280128Y432699D01*
X1279940Y432856D01*
X1279755Y433019D01*
X1279695Y433060D01*
X1279639Y433107D01*
X1279432Y433239D01*
X1279228Y433377D01*
X1279163Y433410D01*
X1279102Y433450D01*
X1278879Y433555D01*
X1278661Y433667D01*
X1278592Y433691D01*
X1278526Y433723D01*
X1278292Y433800D01*
X1278061Y433883D01*
X1277990Y433899D01*
X1277921Y433922D01*
X1277679Y433968D01*
X1277440Y434022D01*
X1277367Y434029D01*
X1277295Y434043D01*
X1277064Y434058D01*
X1276805Y434083D01*
X1276722Y434080D01*
X1276641Y434085D01*
X1274024Y434085D01*
X1270196Y435671D01*
X1267267Y438600D01*
X1265681Y442428D01*
X1265681Y446572D01*
X1267267Y450399D01*
X1269206Y452338D01*
X1269363Y452516D01*
X1269525Y452688D01*
X1269573Y452755D01*
X1269627Y452816D01*
X1269760Y453012D01*
X1269900Y453204D01*
X1269939Y453275D01*
X1269985Y453343D01*
X1270093Y453554D01*
X1270207Y453761D01*
X1270238Y453838D01*
X1270275Y453911D01*
X1270355Y454134D01*
X1270443Y454354D01*
X1270463Y454433D01*
X1270491Y454510D01*
X1270543Y454741D01*
X1270602Y454970D01*
X1270612Y455052D01*
X1270630Y455132D01*
X1270653Y455367D01*
X1270683Y455602D01*
X1270683Y455685D01*
X1270691Y455766D01*
X1270684Y456002D01*
X1270684Y456240D01*
X1270674Y456321D01*
X1270671Y456403D01*
X1270635Y456636D01*
X1270605Y456872D01*
X1270585Y456951D01*
X1270572Y457032D01*
X1270507Y457260D01*
X1270448Y457489D01*
X1270418Y457566D01*
X1270395Y457644D01*
X1270302Y457862D01*
X1270215Y458082D01*
X1270176Y458154D01*
X1270143Y458229D01*
X1270023Y458433D01*
X1269909Y458641D01*
X1269861Y458708D01*
X1269820Y458778D01*
X1269675Y458966D01*
X1269536Y459158D01*
X1269480Y459217D01*
X1269430Y459282D01*
X1269263Y459450D01*
X1269101Y459623D01*
X1269038Y459676D01*
X1268980Y459734D01*
X1268793Y459879D01*
X1268611Y460031D01*
X1268542Y460075D01*
X1268478Y460125D01*
X1268274Y460246D01*
X1268075Y460374D01*
X1268000Y460409D01*
X1267930Y460451D01*
X1267713Y460545D01*
X1267499Y460647D01*
X1267421Y460672D01*
X1267346Y460705D01*
X1267118Y460772D01*
X1266894Y460846D01*
X1266813Y460861D01*
X1266734Y460884D01*
X1266500Y460922D01*
X1266268Y460967D01*
X1266188Y460972D01*
X1266105Y460985D01*
X1265845Y460994D01*
X1265614Y461009D01*
X1255531Y461009D01*
X1252264Y462363D01*
X1241548Y473078D01*
X1241548Y473079D01*
X1238333Y476294D01*
X1236979Y479561D01*
X1236979Y688839D01*
X1238333Y692106D01*
X1260185Y713958D01*
X1260287Y714075D01*
X1260397Y714184D01*
X1260498Y714313D01*
X1260606Y714436D01*
X1260693Y714564D01*
X1260789Y714687D01*
X1260872Y714828D01*
X1260965Y714963D01*
X1261035Y715101D01*
X1261114Y715234D01*
X1261180Y715385D01*
X1261254Y715531D01*
X1261307Y715676D01*
X1261369Y715819D01*
X1261415Y715976D01*
X1261470Y716130D01*
X1261504Y716281D01*
X1261548Y716430D01*
X1261574Y716592D01*
X1261610Y716752D01*
X1261624Y716906D01*
X1261649Y717059D01*
X1261655Y717223D01*
X1261670Y717386D01*
X1261665Y717541D01*
X1261671Y717696D01*
X1261656Y717859D01*
X1261651Y718023D01*
X1261627Y718176D01*
X1261612Y718330D01*
X1261577Y718490D01*
X1261552Y718652D01*
X1261509Y718801D01*
X1261475Y718952D01*
X1261420Y719106D01*
X1261375Y719264D01*
X1261313Y719407D01*
X1261261Y719553D01*
X1261187Y719699D01*
X1261122Y719849D01*
X1261044Y719983D01*
X1260974Y720121D01*
X1260882Y720257D01*
X1260799Y720398D01*
X1260704Y720521D01*
X1260618Y720649D01*
X1260512Y720769D01*
X1260409Y720902D01*
X1260290Y721022D01*
X1260185Y721142D01*
X1249763Y731564D01*
X1248409Y734831D01*
X1248409Y803465D01*
X1248394Y803701D01*
X1248387Y803938D01*
X1248374Y804019D01*
X1248369Y804101D01*
X1248325Y804333D01*
X1248288Y804568D01*
X1248265Y804646D01*
X1248250Y804727D01*
X1248177Y804952D01*
X1248111Y805180D01*
X1248079Y805255D01*
X1248053Y805333D01*
X1247953Y805547D01*
X1247859Y805765D01*
X1247817Y805835D01*
X1247782Y805909D01*
X1247656Y806109D01*
X1247535Y806314D01*
X1247485Y806378D01*
X1247441Y806448D01*
X1247290Y806630D01*
X1247145Y806818D01*
X1247088Y806876D01*
X1247036Y806939D01*
X1246863Y807101D01*
X1246696Y807269D01*
X1246631Y807319D01*
X1246572Y807375D01*
X1246380Y807515D01*
X1246193Y807660D01*
X1246123Y807702D01*
X1246057Y807750D01*
X1245849Y807865D01*
X1245645Y807986D01*
X1245570Y808019D01*
X1245499Y808058D01*
X1245279Y808145D01*
X1245061Y808240D01*
X1244982Y808263D01*
X1244906Y808293D01*
X1244677Y808353D01*
X1244450Y808419D01*
X1244369Y808432D01*
X1244290Y808453D01*
X1244054Y808483D01*
X1243821Y808520D01*
X1243739Y808523D01*
X1243658Y808534D01*
X1243421Y808534D01*
X1243184Y808542D01*
X1243102Y808535D01*
X1243020Y808535D01*
X1242785Y808506D01*
X1242549Y808484D01*
X1242469Y808466D01*
X1242388Y808456D01*
X1242159Y808398D01*
X1241927Y808347D01*
X1241850Y808319D01*
X1241771Y808299D01*
X1241550Y808212D01*
X1241327Y808133D01*
X1241254Y808096D01*
X1241178Y808066D01*
X1240969Y807952D01*
X1240758Y807845D01*
X1240691Y807799D01*
X1240619Y807760D01*
X1240427Y807621D01*
X1240230Y807489D01*
X1240170Y807436D01*
X1240102Y807387D01*
X1239912Y807209D01*
X1239843Y807149D01*
X1238547Y806154D01*
X1237192Y805371D01*
X1236979Y805284D01*
X1236979Y825500D01*
X1236979Y845716D01*
X1237192Y845629D01*
X1238547Y844846D01*
X1239789Y843893D01*
X1240110Y843572D01*
X1240227Y843469D01*
X1240336Y843359D01*
X1240465Y843259D01*
X1240588Y843150D01*
X1240717Y843063D01*
X1240839Y842968D01*
X1240979Y842884D01*
X1241115Y842792D01*
X1241253Y842722D01*
X1241386Y842642D01*
X1241537Y842577D01*
X1241683Y842502D01*
X1241829Y842450D01*
X1241971Y842388D01*
X1242128Y842342D01*
X1242282Y842286D01*
X1242433Y842252D01*
X1242582Y842209D01*
X1242744Y842183D01*
X1242904Y842147D01*
X1243058Y842132D01*
X1243211Y842108D01*
X1243375Y842102D01*
X1243538Y842086D01*
X1243693Y842091D01*
X1243848Y842086D01*
X1244011Y842101D01*
X1244175Y842106D01*
X1244328Y842130D01*
X1244482Y842144D01*
X1244642Y842179D01*
X1244804Y842205D01*
X1244953Y842248D01*
X1245104Y842281D01*
X1245259Y842336D01*
X1245416Y842382D01*
X1245558Y842443D01*
X1245705Y842495D01*
X1245851Y842569D01*
X1246001Y842634D01*
X1246135Y842713D01*
X1246273Y842783D01*
X1246409Y842874D01*
X1246550Y842958D01*
X1246673Y843052D01*
X1246801Y843139D01*
X1246921Y843244D01*
X1247054Y843347D01*
X1247174Y843466D01*
X1247294Y843572D01*
X1249818Y846096D01*
X1254673Y848107D01*
X1259927Y848107D01*
X1262744Y846940D01*
X1262968Y846863D01*
X1263189Y846780D01*
X1263269Y846760D01*
X1263347Y846733D01*
X1263579Y846685D01*
X1263808Y846630D01*
X1263890Y846621D01*
X1263971Y846604D01*
X1264206Y846585D01*
X1264441Y846559D01*
X1264524Y846560D01*
X1264606Y846554D01*
X1264842Y846565D01*
X1265078Y846568D01*
X1265160Y846580D01*
X1265243Y846584D01*
X1265476Y846624D01*
X1265709Y846657D01*
X1265789Y846679D01*
X1265870Y846693D01*
X1266096Y846762D01*
X1266324Y846824D01*
X1266400Y846855D01*
X1266479Y846880D01*
X1266695Y846977D01*
X1266913Y847067D01*
X1266985Y847107D01*
X1267060Y847141D01*
X1267262Y847264D01*
X1267467Y847381D01*
X1267533Y847430D01*
X1267604Y847474D01*
X1267789Y847621D01*
X1267978Y847762D01*
X1268037Y847820D01*
X1268102Y847871D01*
X1268266Y848041D01*
X1268436Y848205D01*
X1268488Y848269D01*
X1268546Y848328D01*
X1268688Y848517D01*
X1268836Y848701D01*
X1268879Y848771D01*
X1268929Y848837D01*
X1269046Y849042D01*
X1269170Y849243D01*
X1269205Y849319D01*
X1269246Y849390D01*
X1269336Y849608D01*
X1269434Y849823D01*
X1269459Y849902D01*
X1269491Y849978D01*
X1269553Y850206D01*
X1269623Y850431D01*
X1269638Y850513D01*
X1269660Y850593D01*
X1269694Y850826D01*
X1269735Y851059D01*
X1269739Y851141D01*
X1269751Y851223D01*
X1269755Y851459D01*
X1269767Y851695D01*
X1269761Y851778D01*
X1269762Y851860D01*
X1269737Y852095D01*
X1269719Y852330D01*
X1269703Y852411D01*
X1269694Y852494D01*
X1269639Y852724D01*
X1269592Y852955D01*
X1269566Y853033D01*
X1269547Y853113D01*
X1269464Y853335D01*
X1269388Y853558D01*
X1269352Y853633D01*
X1269323Y853710D01*
X1269213Y853919D01*
X1269110Y854132D01*
X1269066Y854200D01*
X1269027Y854274D01*
X1268878Y854486D01*
X1268752Y854680D01*
X1241678Y890778D01*
X1241604Y890865D01*
X1241537Y890958D01*
X1241398Y891107D01*
X1241265Y891262D01*
X1241180Y891340D01*
X1241102Y891423D01*
X1240945Y891554D01*
X1240794Y891691D01*
X1240700Y891757D01*
X1240612Y891831D01*
X1240440Y891940D01*
X1240273Y892058D01*
X1240172Y892112D01*
X1240075Y892174D01*
X1239890Y892261D01*
X1239710Y892357D01*
X1239603Y892397D01*
X1239500Y892447D01*
X1239305Y892511D01*
X1239115Y892583D01*
X1239003Y892610D01*
X1238894Y892646D01*
X1238694Y892684D01*
X1238495Y892732D01*
X1238381Y892745D01*
X1238269Y892767D01*
X1238073Y892780D01*
X1237862Y892803D01*
X1237736Y892801D01*
X1237615Y892809D01*
X589987Y892809D01*
X589914Y892805D01*
X589841Y892807D01*
X589596Y892785D01*
X589351Y892769D01*
X589279Y892756D01*
X589206Y892749D01*
X588966Y892696D01*
X588725Y892650D01*
X588655Y892627D01*
X588584Y892612D01*
X588353Y892529D01*
X588119Y892453D01*
X588053Y892422D01*
X587984Y892398D01*
X587765Y892287D01*
X587542Y892182D01*
X587480Y892143D01*
X587415Y892110D01*
X587212Y891973D01*
X587004Y891841D01*
X586948Y891795D01*
X586887Y891754D01*
X586714Y891601D01*
X586513Y891436D01*
X586455Y891375D01*
X586395Y891322D01*
X429478Y734405D01*
X429430Y734350D01*
X429377Y734300D01*
X429219Y734111D01*
X429057Y733927D01*
X429016Y733867D01*
X428969Y733811D01*
X428837Y733603D01*
X428699Y733400D01*
X428666Y733335D01*
X428626Y733274D01*
X428521Y733052D01*
X428409Y732833D01*
X428385Y732764D01*
X428353Y732698D01*
X428277Y732464D01*
X428193Y732233D01*
X428177Y732162D01*
X428154Y732093D01*
X428108Y731852D01*
X428054Y731612D01*
X428047Y731539D01*
X428033Y731467D01*
X428018Y731236D01*
X427993Y730977D01*
X427996Y730894D01*
X427991Y730813D01*
X427991Y210389D01*
X428002Y210216D01*
X428003Y210042D01*
X428022Y209898D01*
X428031Y209753D01*
X428063Y209583D01*
X428086Y209411D01*
X428123Y209270D01*
X428150Y209127D01*
X428203Y208962D01*
X428248Y208794D01*
X428302Y208660D01*
X428347Y208521D01*
X428420Y208364D01*
X428485Y208203D01*
X428556Y208076D01*
X428618Y207945D01*
X428710Y207798D01*
X428795Y207646D01*
X428881Y207529D01*
X428959Y207407D01*
X429069Y207273D01*
X429172Y207133D01*
X429272Y207027D01*
X429364Y206915D01*
X429491Y206796D01*
X429610Y206670D01*
X429720Y206581D01*
X429828Y206479D01*
X429981Y206368D01*
X430118Y206256D01*
X467094Y179845D01*
X467312Y179708D01*
X467526Y179568D01*
X467582Y179540D01*
X467634Y179508D01*
X467868Y179400D01*
X468098Y179287D01*
X468157Y179267D01*
X468213Y179241D01*
X468458Y179163D01*
X468701Y179080D01*
X468761Y179067D01*
X468820Y179049D01*
X469073Y179002D01*
X469325Y178950D01*
X469386Y178945D01*
X469447Y178934D01*
X469704Y178920D01*
X469960Y178899D01*
X470022Y178902D01*
X470083Y178899D01*
X470340Y178917D01*
X470596Y178928D01*
X470657Y178939D01*
X470719Y178943D01*
X470971Y178993D01*
X471224Y179037D01*
X471283Y179055D01*
X471344Y179067D01*
X471588Y179148D01*
X471833Y179223D01*
X471890Y179249D01*
X471948Y179268D01*
X472180Y179379D01*
X472414Y179485D01*
X472467Y179517D01*
X472523Y179543D01*
X472739Y179683D01*
X472958Y179816D01*
X473007Y179855D01*
X473059Y179888D01*
X473256Y180054D01*
X473456Y180214D01*
X473500Y180258D01*
X473547Y180298D01*
X473722Y180486D01*
X473901Y180670D01*
X473938Y180720D01*
X473980Y180765D01*
X474130Y180974D01*
X474285Y181179D01*
X474315Y181233D01*
X474351Y181283D01*
X474473Y181508D01*
X474602Y181732D01*
X474626Y181789D01*
X474655Y181843D01*
X474748Y182082D01*
X474847Y182320D01*
X474863Y182379D01*
X474886Y182437D01*
X474948Y182686D01*
X475017Y182934D01*
X475026Y182995D01*
X475041Y183055D01*
X475071Y183310D01*
X475108Y183564D01*
X475110Y183626D01*
X475117Y183687D01*
X475115Y183944D01*
X475120Y184201D01*
X475114Y184263D01*
X475113Y184325D01*
X475080Y184580D01*
X475058Y184782D01*
X490383Y185264D01*
X490598Y178408D01*
X485353Y178243D01*
X485131Y178255D01*
X485084Y178252D01*
X485036Y178253D01*
X484766Y178229D01*
X484496Y178210D01*
X484449Y178201D01*
X484402Y178197D01*
X484137Y178139D01*
X483871Y178087D01*
X483826Y178072D01*
X483779Y178061D01*
X483524Y177971D01*
X483266Y177885D01*
X483223Y177865D01*
X483178Y177849D01*
X482936Y177727D01*
X482691Y177610D01*
X482651Y177585D01*
X482609Y177563D01*
X482384Y177412D01*
X482156Y177265D01*
X482119Y177235D01*
X482080Y177208D01*
X481875Y177030D01*
X481668Y176856D01*
X481635Y176821D01*
X481599Y176790D01*
X481418Y176587D01*
X481234Y176389D01*
X481207Y176350D01*
X481175Y176315D01*
X481021Y176091D01*
X480863Y175871D01*
X480840Y175829D01*
X480814Y175790D01*
X480689Y175549D01*
X480560Y175311D01*
X480542Y175267D01*
X480521Y175224D01*
X480427Y174969D01*
X480329Y174717D01*
X480317Y174671D01*
X480301Y174626D01*
X480240Y174362D01*
X480174Y174099D01*
X480168Y174052D01*
X480157Y174005D01*
X480130Y173736D01*
X480098Y173466D01*
X480098Y173419D01*
X480093Y173372D01*
X480100Y173101D01*
X480101Y172829D01*
X480107Y172782D01*
X480108Y172735D01*
X480149Y172467D01*
X480184Y172197D01*
X480196Y172151D01*
X480204Y172105D01*
X480277Y171844D01*
X480346Y171581D01*
X480364Y171537D01*
X480377Y171491D01*
X480482Y171242D01*
X480584Y170990D01*
X480607Y170948D01*
X480625Y170905D01*
X480761Y170671D01*
X480893Y170433D01*
X480922Y170395D01*
X480945Y170354D01*
X481110Y170139D01*
X481270Y169920D01*
X481303Y169885D01*
X481332Y169847D01*
X481522Y169654D01*
X481709Y169457D01*
X481745Y169428D01*
X481779Y169393D01*
X482022Y169201D01*
X482216Y169043D01*
X509525Y149537D01*
X509772Y149383D01*
X510017Y149226D01*
X510042Y149214D01*
X510065Y149200D01*
X510329Y149078D01*
X510592Y148953D01*
X510619Y148945D01*
X510644Y148933D01*
X510921Y148845D01*
X511198Y148754D01*
X511225Y148749D01*
X511251Y148741D01*
X511538Y148688D01*
X511823Y148633D01*
X511850Y148631D01*
X511878Y148626D01*
X512237Y148606D01*
X512477Y148591D01*
X640223Y148591D01*
X640478Y148607D01*
G37*
%LPC*%
G36*
X1105575Y240791D02*
X1105575Y240791D01*
X1100720Y242802D01*
X1097004Y246518D01*
X1094993Y251373D01*
X1094993Y256627D01*
X1097004Y261482D01*
X1098630Y263108D01*
X1098733Y263225D01*
X1098843Y263334D01*
X1098905Y263414D01*
X1098907Y263416D01*
X1098910Y263420D01*
X1098943Y263463D01*
X1099052Y263586D01*
X1099139Y263714D01*
X1099234Y263837D01*
X1099318Y263978D01*
X1099410Y264113D01*
X1099480Y264251D01*
X1099560Y264384D01*
X1099625Y264535D01*
X1099700Y264681D01*
X1099752Y264827D01*
X1099814Y264969D01*
X1099860Y265126D01*
X1099916Y265280D01*
X1099950Y265431D01*
X1099993Y265580D01*
X1100019Y265742D01*
X1100055Y265902D01*
X1100070Y266056D01*
X1100094Y266209D01*
X1100100Y266373D01*
X1100115Y266536D01*
X1100111Y266691D01*
X1100116Y266846D01*
X1100101Y267009D01*
X1100096Y267173D01*
X1100072Y267326D01*
X1100058Y267480D01*
X1100023Y267640D01*
X1099997Y267802D01*
X1099954Y267951D01*
X1099921Y268102D01*
X1099866Y268257D01*
X1099820Y268414D01*
X1099759Y268557D01*
X1099707Y268703D01*
X1099633Y268849D01*
X1099568Y268999D01*
X1099489Y269133D01*
X1099419Y269271D01*
X1099328Y269407D01*
X1099244Y269548D01*
X1099149Y269671D01*
X1099063Y269799D01*
X1098958Y269919D01*
X1098855Y270052D01*
X1098736Y270172D01*
X1098630Y270292D01*
X1097004Y271918D01*
X1094993Y276773D01*
X1094993Y282027D01*
X1097004Y286882D01*
X1098630Y288508D01*
X1098733Y288625D01*
X1098843Y288734D01*
X1098943Y288863D01*
X1099052Y288986D01*
X1099139Y289114D01*
X1099234Y289237D01*
X1099318Y289378D01*
X1099410Y289513D01*
X1099480Y289651D01*
X1099560Y289784D01*
X1099625Y289935D01*
X1099700Y290081D01*
X1099752Y290227D01*
X1099814Y290369D01*
X1099860Y290526D01*
X1099916Y290680D01*
X1099950Y290831D01*
X1099993Y290980D01*
X1100019Y291142D01*
X1100055Y291302D01*
X1100070Y291456D01*
X1100094Y291609D01*
X1100100Y291773D01*
X1100115Y291936D01*
X1100111Y292091D01*
X1100116Y292246D01*
X1100101Y292409D01*
X1100096Y292573D01*
X1100072Y292726D01*
X1100058Y292880D01*
X1100023Y293040D01*
X1099997Y293202D01*
X1099954Y293351D01*
X1099921Y293502D01*
X1099866Y293657D01*
X1099820Y293814D01*
X1099759Y293957D01*
X1099707Y294103D01*
X1099633Y294249D01*
X1099568Y294399D01*
X1099489Y294533D01*
X1099419Y294671D01*
X1099328Y294807D01*
X1099244Y294948D01*
X1099149Y295071D01*
X1099063Y295199D01*
X1098958Y295319D01*
X1098855Y295452D01*
X1098736Y295572D01*
X1098630Y295692D01*
X1097004Y297318D01*
X1094993Y302173D01*
X1094993Y307427D01*
X1097004Y312282D01*
X1099528Y314806D01*
X1099631Y314923D01*
X1099741Y315032D01*
X1099841Y315161D01*
X1099950Y315284D01*
X1100037Y315413D01*
X1100132Y315535D01*
X1100216Y315675D01*
X1100308Y315811D01*
X1100379Y315949D01*
X1100458Y316083D01*
X1100523Y316233D01*
X1100598Y316379D01*
X1100650Y316525D01*
X1100712Y316667D01*
X1100758Y316824D01*
X1100814Y316978D01*
X1100848Y317130D01*
X1100891Y317278D01*
X1100917Y317440D01*
X1100953Y317600D01*
X1100968Y317754D01*
X1100992Y317907D01*
X1100998Y318071D01*
X1101014Y318234D01*
X1101009Y318389D01*
X1101014Y318544D01*
X1100999Y318707D01*
X1100994Y318871D01*
X1100970Y319024D01*
X1100956Y319178D01*
X1100921Y319338D01*
X1100895Y319500D01*
X1100852Y319649D01*
X1100819Y319801D01*
X1100764Y319955D01*
X1100718Y320112D01*
X1100657Y320255D01*
X1100605Y320401D01*
X1100531Y320547D01*
X1100466Y320697D01*
X1100387Y320831D01*
X1100317Y320969D01*
X1100226Y321105D01*
X1100142Y321246D01*
X1100048Y321369D01*
X1099961Y321497D01*
X1099856Y321617D01*
X1099753Y321750D01*
X1099634Y321870D01*
X1099528Y321990D01*
X1099207Y322311D01*
X1098254Y323553D01*
X1097471Y324908D01*
X1097384Y325121D01*
X1117600Y325121D01*
X1137816Y325121D01*
X1137729Y324908D01*
X1136946Y323553D01*
X1135993Y322311D01*
X1135672Y321990D01*
X1135569Y321873D01*
X1135459Y321764D01*
X1135359Y321635D01*
X1135250Y321512D01*
X1135163Y321383D01*
X1135068Y321261D01*
X1134984Y321121D01*
X1134892Y320985D01*
X1134822Y320847D01*
X1134742Y320714D01*
X1134677Y320563D01*
X1134602Y320417D01*
X1134550Y320271D01*
X1134488Y320129D01*
X1134442Y319972D01*
X1134386Y319818D01*
X1134352Y319667D01*
X1134309Y319518D01*
X1134283Y319356D01*
X1134247Y319196D01*
X1134232Y319042D01*
X1134208Y318889D01*
X1134202Y318725D01*
X1134186Y318562D01*
X1134191Y318407D01*
X1134186Y318252D01*
X1134201Y318089D01*
X1134206Y317925D01*
X1134230Y317772D01*
X1134244Y317618D01*
X1134279Y317458D01*
X1134305Y317296D01*
X1134348Y317147D01*
X1134381Y316996D01*
X1134436Y316841D01*
X1134482Y316684D01*
X1134543Y316542D01*
X1134595Y316395D01*
X1134669Y316249D01*
X1134734Y316099D01*
X1134813Y315965D01*
X1134883Y315827D01*
X1134974Y315691D01*
X1135058Y315550D01*
X1135152Y315427D01*
X1135239Y315299D01*
X1135344Y315179D01*
X1135447Y315046D01*
X1135566Y314926D01*
X1135672Y314806D01*
X1138196Y312282D01*
X1140207Y307427D01*
X1140207Y302173D01*
X1138196Y297318D01*
X1136570Y295692D01*
X1136467Y295575D01*
X1136357Y295466D01*
X1136257Y295337D01*
X1136148Y295214D01*
X1136061Y295086D01*
X1135966Y294963D01*
X1135882Y294822D01*
X1135790Y294687D01*
X1135720Y294549D01*
X1135640Y294416D01*
X1135575Y294265D01*
X1135500Y294119D01*
X1135448Y293974D01*
X1135386Y293831D01*
X1135340Y293674D01*
X1135284Y293520D01*
X1135250Y293369D01*
X1135207Y293220D01*
X1135181Y293058D01*
X1135145Y292898D01*
X1135130Y292744D01*
X1135106Y292591D01*
X1135100Y292427D01*
X1135085Y292264D01*
X1135089Y292109D01*
X1135084Y291954D01*
X1135099Y291791D01*
X1135104Y291627D01*
X1135128Y291474D01*
X1135142Y291320D01*
X1135177Y291160D01*
X1135203Y290998D01*
X1135246Y290849D01*
X1135279Y290698D01*
X1135334Y290543D01*
X1135380Y290386D01*
X1135441Y290243D01*
X1135493Y290097D01*
X1135567Y289951D01*
X1135632Y289801D01*
X1135711Y289667D01*
X1135781Y289529D01*
X1135872Y289393D01*
X1135956Y289252D01*
X1136050Y289129D01*
X1136137Y289001D01*
X1136242Y288881D01*
X1136345Y288748D01*
X1136465Y288628D01*
X1136570Y288508D01*
X1138196Y286882D01*
X1140207Y282027D01*
X1140207Y276773D01*
X1138196Y271918D01*
X1136570Y270292D01*
X1136467Y270175D01*
X1136357Y270066D01*
X1136257Y269937D01*
X1136148Y269814D01*
X1136061Y269686D01*
X1135966Y269563D01*
X1135882Y269422D01*
X1135790Y269287D01*
X1135720Y269149D01*
X1135640Y269016D01*
X1135575Y268865D01*
X1135500Y268719D01*
X1135448Y268574D01*
X1135386Y268431D01*
X1135340Y268274D01*
X1135284Y268120D01*
X1135250Y267969D01*
X1135207Y267820D01*
X1135181Y267658D01*
X1135145Y267498D01*
X1135130Y267344D01*
X1135106Y267191D01*
X1135100Y267027D01*
X1135085Y266864D01*
X1135089Y266709D01*
X1135084Y266554D01*
X1135099Y266391D01*
X1135104Y266227D01*
X1135128Y266074D01*
X1135142Y265920D01*
X1135177Y265760D01*
X1135203Y265598D01*
X1135246Y265449D01*
X1135279Y265298D01*
X1135334Y265143D01*
X1135380Y264986D01*
X1135441Y264843D01*
X1135493Y264697D01*
X1135567Y264551D01*
X1135632Y264401D01*
X1135711Y264267D01*
X1135781Y264129D01*
X1135872Y263993D01*
X1135956Y263852D01*
X1136050Y263729D01*
X1136137Y263601D01*
X1136242Y263481D01*
X1136345Y263348D01*
X1136465Y263228D01*
X1136570Y263108D01*
X1138196Y261482D01*
X1138763Y260113D01*
X1138861Y259913D01*
X1138952Y259709D01*
X1139001Y259627D01*
X1139043Y259541D01*
X1139166Y259354D01*
X1139281Y259163D01*
X1139340Y259088D01*
X1139393Y259008D01*
X1139538Y258838D01*
X1139676Y258663D01*
X1139744Y258596D01*
X1139807Y258524D01*
X1139971Y258373D01*
X1140131Y258217D01*
X1140207Y258159D01*
X1140278Y258094D01*
X1140460Y257966D01*
X1140638Y257831D01*
X1140720Y257783D01*
X1140799Y257728D01*
X1140996Y257623D01*
X1141189Y257511D01*
X1141277Y257474D01*
X1141361Y257429D01*
X1141570Y257350D01*
X1141776Y257263D01*
X1141868Y257237D01*
X1141957Y257203D01*
X1142174Y257151D01*
X1142389Y257091D01*
X1142483Y257077D01*
X1142577Y257054D01*
X1142799Y257029D01*
X1143019Y256996D01*
X1143115Y256994D01*
X1143210Y256983D01*
X1143433Y256987D01*
X1143656Y256981D01*
X1143751Y256991D01*
X1143847Y256993D01*
X1144068Y257024D01*
X1144290Y257046D01*
X1144383Y257068D01*
X1144478Y257081D01*
X1144693Y257140D01*
X1144911Y257190D01*
X1145000Y257223D01*
X1145093Y257248D01*
X1145299Y257333D01*
X1145508Y257411D01*
X1145593Y257455D01*
X1145682Y257491D01*
X1145876Y257601D01*
X1146074Y257704D01*
X1146153Y257759D01*
X1146236Y257806D01*
X1146414Y257939D01*
X1146598Y258066D01*
X1146670Y258130D01*
X1146746Y258187D01*
X1146906Y258342D01*
X1147073Y258491D01*
X1147136Y258563D01*
X1147205Y258630D01*
X1147344Y258803D01*
X1147491Y258972D01*
X1147543Y259050D01*
X1147604Y259126D01*
X1147732Y259333D01*
X1147854Y259517D01*
X1148588Y260789D01*
X1149561Y262057D01*
X1150691Y263187D01*
X1151960Y264160D01*
X1153344Y264959D01*
X1154820Y265570D01*
X1156364Y265984D01*
X1157949Y266193D01*
X1163321Y266193D01*
X1163321Y254000D01*
X1163321Y241807D01*
X1157949Y241807D01*
X1156364Y242016D01*
X1154820Y242430D01*
X1153344Y243041D01*
X1151960Y243840D01*
X1150691Y244813D01*
X1149561Y245943D01*
X1148588Y247211D01*
X1147854Y248483D01*
X1147731Y248669D01*
X1147614Y248859D01*
X1147555Y248934D01*
X1147502Y249014D01*
X1147356Y249182D01*
X1147217Y249357D01*
X1147148Y249424D01*
X1147086Y249496D01*
X1146920Y249645D01*
X1146760Y249801D01*
X1146683Y249858D01*
X1146612Y249922D01*
X1146429Y250050D01*
X1146251Y250184D01*
X1146168Y250232D01*
X1146089Y250286D01*
X1145891Y250390D01*
X1145698Y250501D01*
X1145610Y250537D01*
X1145525Y250582D01*
X1145315Y250660D01*
X1145110Y250746D01*
X1145018Y250771D01*
X1144928Y250805D01*
X1144711Y250856D01*
X1144495Y250915D01*
X1144401Y250929D01*
X1144308Y250951D01*
X1144086Y250974D01*
X1143865Y251006D01*
X1143769Y251008D01*
X1143674Y251018D01*
X1143451Y251013D01*
X1143228Y251017D01*
X1143133Y251007D01*
X1143037Y251005D01*
X1142816Y250973D01*
X1142594Y250949D01*
X1142501Y250927D01*
X1142407Y250913D01*
X1142192Y250853D01*
X1141975Y250802D01*
X1141885Y250768D01*
X1141793Y250743D01*
X1141587Y250657D01*
X1141378Y250578D01*
X1141293Y250534D01*
X1141205Y250497D01*
X1141012Y250386D01*
X1140814Y250282D01*
X1140736Y250227D01*
X1140653Y250179D01*
X1140475Y250045D01*
X1140292Y249917D01*
X1140221Y249853D01*
X1140144Y249795D01*
X1139985Y249639D01*
X1139819Y249489D01*
X1139757Y249417D01*
X1139688Y249350D01*
X1139549Y249175D01*
X1139404Y249006D01*
X1139351Y248927D01*
X1139291Y248852D01*
X1139175Y248661D01*
X1139052Y248475D01*
X1139011Y248391D01*
X1138960Y248308D01*
X1138860Y248085D01*
X1138763Y247887D01*
X1138196Y246518D01*
X1134480Y242802D01*
X1129625Y240791D01*
X1105575Y240791D01*
G37*
%LPD*%
%LPC*%
G36*
X820587Y53085D02*
X820587Y53085D01*
X815732Y55096D01*
X812016Y58812D01*
X810005Y63667D01*
X810005Y68921D01*
X812016Y73776D01*
X815732Y77492D01*
X820587Y79503D01*
X844637Y79503D01*
X849492Y77492D01*
X853208Y73776D01*
X855219Y68921D01*
X855219Y63667D01*
X853208Y58812D01*
X849492Y55096D01*
X844637Y53085D01*
X820587Y53085D01*
G37*
%LPD*%
G36*
X1214954Y349205D02*
X1214954Y349205D01*
X1215192Y349205D01*
X1215273Y349215D01*
X1215355Y349217D01*
X1215589Y349254D01*
X1215824Y349283D01*
X1215903Y349304D01*
X1215984Y349316D01*
X1216212Y349382D01*
X1216441Y349440D01*
X1216517Y349470D01*
X1216596Y349493D01*
X1216814Y349587D01*
X1217034Y349674D01*
X1217106Y349713D01*
X1217181Y349746D01*
X1217385Y349866D01*
X1217593Y349979D01*
X1217660Y350027D01*
X1217730Y350069D01*
X1217918Y350214D01*
X1218110Y350353D01*
X1218169Y350409D01*
X1218234Y350459D01*
X1218297Y350521D01*
X1231900Y350521D01*
X1232054Y350530D01*
X1232209Y350530D01*
X1232372Y350550D01*
X1232536Y350561D01*
X1232687Y350589D01*
X1232841Y350609D01*
X1233001Y350649D01*
X1233161Y350680D01*
X1233309Y350728D01*
X1233459Y350766D01*
X1233611Y350826D01*
X1233767Y350876D01*
X1233908Y350942D01*
X1234052Y350999D01*
X1234196Y351078D01*
X1234344Y351147D01*
X1234475Y351230D01*
X1234611Y351305D01*
X1234744Y351401D01*
X1234882Y351488D01*
X1235002Y351587D01*
X1235127Y351678D01*
X1235247Y351790D01*
X1235373Y351894D01*
X1235480Y352007D01*
X1235593Y352113D01*
X1235698Y352239D01*
X1235810Y352358D01*
X1235901Y352484D01*
X1236000Y352603D01*
X1236089Y352741D01*
X1236185Y352873D01*
X1236260Y353009D01*
X1236343Y353140D01*
X1236414Y353288D01*
X1236493Y353431D01*
X1236550Y353575D01*
X1236616Y353715D01*
X1236668Y353871D01*
X1236728Y354023D01*
X1236767Y354173D01*
X1236815Y354321D01*
X1236846Y354481D01*
X1236887Y354640D01*
X1236907Y354794D01*
X1236937Y354946D01*
X1236947Y355105D01*
X1236968Y355272D01*
X1236969Y355441D01*
X1236979Y355600D01*
X1236969Y355755D01*
X1236969Y355910D01*
X1236949Y356073D01*
X1236939Y356236D01*
X1236910Y356388D01*
X1236891Y356542D01*
X1236850Y356701D01*
X1236820Y356862D01*
X1236772Y357009D01*
X1236734Y357159D01*
X1236674Y357312D01*
X1236623Y357468D01*
X1236557Y357608D01*
X1236500Y357752D01*
X1236422Y357896D01*
X1236352Y358045D01*
X1236269Y358175D01*
X1236195Y358311D01*
X1236099Y358444D01*
X1236011Y358583D01*
X1235912Y358702D01*
X1235822Y358828D01*
X1235710Y358947D01*
X1235605Y359074D01*
X1235492Y359180D01*
X1235387Y359293D01*
X1235261Y359398D01*
X1235141Y359511D01*
X1235016Y359602D01*
X1234897Y359701D01*
X1234759Y359789D01*
X1234626Y359886D01*
X1234491Y359960D01*
X1234360Y360044D01*
X1234212Y360114D01*
X1234068Y360193D01*
X1233924Y360250D01*
X1233784Y360317D01*
X1233628Y360368D01*
X1233476Y360429D01*
X1233326Y360467D01*
X1233179Y360516D01*
X1233018Y360547D01*
X1232859Y360588D01*
X1232706Y360608D01*
X1232554Y360637D01*
X1232395Y360647D01*
X1232227Y360669D01*
X1232059Y360669D01*
X1231900Y360679D01*
X1219961Y360679D01*
X1219961Y365780D01*
X1220038Y366367D01*
X1220050Y366535D01*
X1220071Y366702D01*
X1220072Y366853D01*
X1220082Y367003D01*
X1220072Y367171D01*
X1220073Y367340D01*
X1220054Y367489D01*
X1220045Y367639D01*
X1220015Y367804D01*
X1219994Y367972D01*
X1219957Y368117D01*
X1219929Y368265D01*
X1219878Y368426D01*
X1219837Y368589D01*
X1219782Y368729D01*
X1219736Y368872D01*
X1219665Y369025D01*
X1219603Y369182D01*
X1219531Y369314D01*
X1219468Y369450D01*
X1219379Y369593D01*
X1219298Y369741D01*
X1219210Y369863D01*
X1219130Y369990D01*
X1219023Y370121D01*
X1218925Y370258D01*
X1218822Y370367D01*
X1218727Y370484D01*
X1218605Y370600D01*
X1218490Y370723D01*
X1218374Y370819D01*
X1218265Y370923D01*
X1218130Y371023D01*
X1218000Y371131D01*
X1217873Y371212D01*
X1217752Y371301D01*
X1217605Y371383D01*
X1217463Y371474D01*
X1217327Y371538D01*
X1217196Y371611D01*
X1217040Y371674D01*
X1216887Y371747D01*
X1216744Y371794D01*
X1216605Y371850D01*
X1216442Y371893D01*
X1216282Y371946D01*
X1216135Y371974D01*
X1215989Y372013D01*
X1215822Y372035D01*
X1215657Y372067D01*
X1215510Y372076D01*
X1215358Y372097D01*
X1215174Y372098D01*
X1215003Y372109D01*
X1202126Y372109D01*
X1201890Y372094D01*
X1201654Y372087D01*
X1201572Y372074D01*
X1201491Y372069D01*
X1201258Y372025D01*
X1201024Y371988D01*
X1200945Y371965D01*
X1200865Y371950D01*
X1200640Y371877D01*
X1200412Y371811D01*
X1200337Y371779D01*
X1200259Y371753D01*
X1200045Y371653D01*
X1199827Y371559D01*
X1199756Y371517D01*
X1199682Y371482D01*
X1199482Y371356D01*
X1199278Y371235D01*
X1199213Y371185D01*
X1199144Y371141D01*
X1198961Y370991D01*
X1198774Y370846D01*
X1198716Y370788D01*
X1198653Y370736D01*
X1198490Y370563D01*
X1198323Y370396D01*
X1198272Y370331D01*
X1198216Y370272D01*
X1198077Y370080D01*
X1197931Y369893D01*
X1197889Y369823D01*
X1197841Y369757D01*
X1197727Y369549D01*
X1197606Y369346D01*
X1197573Y369270D01*
X1197533Y369199D01*
X1197446Y368979D01*
X1197351Y368761D01*
X1197328Y368683D01*
X1197298Y368606D01*
X1197239Y368377D01*
X1197172Y368150D01*
X1197159Y368069D01*
X1197139Y367990D01*
X1197109Y367755D01*
X1197071Y367521D01*
X1197068Y367439D01*
X1197058Y367358D01*
X1197057Y367121D01*
X1197049Y366884D01*
X1197057Y366803D01*
X1197057Y366720D01*
X1197086Y366485D01*
X1197108Y366250D01*
X1197125Y366170D01*
X1197135Y366088D01*
X1197194Y365858D01*
X1197245Y365628D01*
X1197272Y365550D01*
X1197292Y365471D01*
X1197379Y365250D01*
X1197459Y365027D01*
X1197496Y364954D01*
X1197526Y364878D01*
X1197640Y364669D01*
X1197746Y364459D01*
X1197792Y364391D01*
X1197831Y364319D01*
X1197970Y364127D01*
X1198102Y363931D01*
X1198156Y363870D01*
X1198205Y363802D01*
X1198382Y363612D01*
X1198535Y363438D01*
X1211290Y350683D01*
X1211468Y350527D01*
X1211640Y350364D01*
X1211707Y350316D01*
X1211768Y350262D01*
X1211964Y350129D01*
X1212156Y349989D01*
X1212227Y349949D01*
X1212295Y349903D01*
X1212506Y349796D01*
X1212713Y349681D01*
X1212790Y349651D01*
X1212863Y349614D01*
X1213086Y349533D01*
X1213306Y349446D01*
X1213385Y349426D01*
X1213462Y349398D01*
X1213693Y349346D01*
X1213922Y349287D01*
X1214004Y349276D01*
X1214084Y349258D01*
X1214319Y349236D01*
X1214554Y349206D01*
X1214637Y349206D01*
X1214718Y349198D01*
X1214954Y349205D01*
G37*
%LPC*%
G36*
X640079Y474979D02*
X640079Y474979D01*
X640079Y490221D01*
X655216Y490221D01*
X655129Y490008D01*
X654346Y488653D01*
X653393Y487411D01*
X652174Y486192D01*
X652071Y486076D01*
X651961Y485966D01*
X651860Y485836D01*
X651752Y485714D01*
X651665Y485586D01*
X651570Y485463D01*
X651486Y485322D01*
X651394Y485187D01*
X651323Y485049D01*
X651244Y484916D01*
X651179Y484765D01*
X651104Y484619D01*
X651052Y484473D01*
X650990Y484331D01*
X650944Y484174D01*
X650888Y484020D01*
X650854Y483869D01*
X650811Y483720D01*
X650785Y483558D01*
X650749Y483398D01*
X650734Y483244D01*
X650710Y483091D01*
X650704Y482927D01*
X650688Y482764D01*
X650693Y482609D01*
X650688Y482454D01*
X650703Y482291D01*
X650708Y482127D01*
X650732Y481974D01*
X650746Y481820D01*
X650781Y481659D01*
X650807Y481498D01*
X650850Y481349D01*
X650883Y481197D01*
X650938Y481043D01*
X650984Y480886D01*
X651045Y480743D01*
X651097Y480597D01*
X651171Y480451D01*
X651236Y480301D01*
X651315Y480167D01*
X651385Y480029D01*
X651476Y479893D01*
X651560Y479752D01*
X651655Y479629D01*
X651741Y479501D01*
X651846Y479381D01*
X651949Y479248D01*
X652068Y479128D01*
X652174Y479008D01*
X653393Y477789D01*
X654346Y476547D01*
X655129Y475192D01*
X655216Y474979D01*
X640079Y474979D01*
G37*
%LPD*%
%LPC*%
G36*
X1213499Y67799D02*
X1213499Y67799D01*
X1213499Y81257D01*
X1214787Y80806D01*
X1216975Y79753D01*
X1219031Y78461D01*
X1220930Y76947D01*
X1222647Y75230D01*
X1224161Y73331D01*
X1225453Y71275D01*
X1226506Y69087D01*
X1226957Y67799D01*
X1213499Y67799D01*
G37*
%LPD*%
%LPC*%
G36*
X1213499Y53801D02*
X1213499Y53801D01*
X1226957Y53801D01*
X1226506Y52513D01*
X1225453Y50325D01*
X1224161Y48269D01*
X1222647Y46370D01*
X1220930Y44653D01*
X1219031Y43139D01*
X1216975Y41847D01*
X1214787Y40794D01*
X1213499Y40343D01*
X1213499Y53801D01*
G37*
%LPD*%
%LPC*%
G36*
X1186043Y67799D02*
X1186043Y67799D01*
X1186494Y69087D01*
X1187547Y71275D01*
X1188839Y73331D01*
X1190353Y75230D01*
X1192070Y76947D01*
X1193969Y78461D01*
X1196025Y79753D01*
X1198213Y80806D01*
X1199501Y81257D01*
X1199501Y67799D01*
X1186043Y67799D01*
G37*
%LPD*%
%LPC*%
G36*
X1261499Y87801D02*
X1261499Y87801D01*
X1274957Y87801D01*
X1274506Y86513D01*
X1273453Y84325D01*
X1272161Y82269D01*
X1270647Y80370D01*
X1268930Y78653D01*
X1267031Y77139D01*
X1264975Y75847D01*
X1262787Y74794D01*
X1261499Y74343D01*
X1261499Y87801D01*
G37*
%LPD*%
%LPC*%
G36*
X1198213Y40794D02*
X1198213Y40794D01*
X1196025Y41847D01*
X1193969Y43139D01*
X1192070Y44653D01*
X1190353Y46370D01*
X1188839Y48269D01*
X1187547Y50325D01*
X1186494Y52513D01*
X1186043Y53801D01*
X1199501Y53801D01*
X1199501Y40343D01*
X1198213Y40794D01*
G37*
%LPD*%
%LPC*%
G36*
X1246213Y74794D02*
X1246213Y74794D01*
X1244025Y75847D01*
X1241969Y77139D01*
X1240070Y78653D01*
X1238353Y80370D01*
X1236839Y82269D01*
X1235547Y84325D01*
X1234494Y86513D01*
X1234043Y87801D01*
X1247501Y87801D01*
X1247501Y74343D01*
X1246213Y74794D01*
G37*
%LPD*%
%LPC*%
G36*
X1211579Y754379D02*
X1211579Y754379D01*
X1211579Y761493D01*
X1216951Y761493D01*
X1218536Y761284D01*
X1220080Y760870D01*
X1221556Y760259D01*
X1222940Y759460D01*
X1224209Y758487D01*
X1225339Y757357D01*
X1226312Y756088D01*
X1227111Y754704D01*
X1227245Y754379D01*
X1211579Y754379D01*
G37*
%LPD*%
%LPC*%
G36*
X1173479Y259079D02*
X1173479Y259079D01*
X1173479Y266193D01*
X1178851Y266193D01*
X1180436Y265984D01*
X1181980Y265570D01*
X1183456Y264959D01*
X1184840Y264160D01*
X1186109Y263187D01*
X1187239Y262057D01*
X1188212Y260788D01*
X1189011Y259404D01*
X1189145Y259079D01*
X1173479Y259079D01*
G37*
%LPD*%
%LPC*%
G36*
X1185755Y754379D02*
X1185755Y754379D01*
X1185889Y754704D01*
X1186688Y756088D01*
X1187661Y757357D01*
X1188791Y758487D01*
X1190060Y759460D01*
X1191444Y760259D01*
X1192920Y760870D01*
X1194464Y761284D01*
X1196049Y761493D01*
X1201421Y761493D01*
X1201421Y754379D01*
X1185755Y754379D01*
G37*
%LPD*%
%LPC*%
G36*
X1211579Y737107D02*
X1211579Y737107D01*
X1211579Y744221D01*
X1227245Y744221D01*
X1227111Y743896D01*
X1226312Y742512D01*
X1225339Y741243D01*
X1224209Y740113D01*
X1222940Y739140D01*
X1221556Y738341D01*
X1220080Y737730D01*
X1218536Y737316D01*
X1216951Y737107D01*
X1211579Y737107D01*
G37*
%LPD*%
%LPC*%
G36*
X1173479Y241807D02*
X1173479Y241807D01*
X1173479Y248921D01*
X1189145Y248921D01*
X1189011Y248596D01*
X1188212Y247212D01*
X1187239Y245943D01*
X1186109Y244813D01*
X1184840Y243840D01*
X1183456Y243041D01*
X1181980Y242430D01*
X1180436Y242016D01*
X1178851Y241807D01*
X1173479Y241807D01*
G37*
%LPD*%
%LPC*%
G36*
X1196049Y737107D02*
X1196049Y737107D01*
X1194464Y737316D01*
X1192920Y737730D01*
X1191444Y738341D01*
X1190060Y739140D01*
X1188791Y740113D01*
X1187661Y741243D01*
X1186688Y742512D01*
X1185889Y743896D01*
X1185755Y744221D01*
X1201421Y744221D01*
X1201421Y737107D01*
X1196049Y737107D01*
G37*
%LPD*%
%LPC*%
G36*
X792479Y690879D02*
X792479Y690879D01*
X792479Y697739D01*
X797581Y697739D01*
X799132Y697534D01*
X800644Y697129D01*
X802090Y696531D01*
X803445Y695748D01*
X804687Y694795D01*
X805793Y693689D01*
X806746Y692447D01*
X807529Y691092D01*
X807616Y690879D01*
X792479Y690879D01*
G37*
%LPD*%
%LPC*%
G36*
X576579Y220979D02*
X576579Y220979D01*
X576579Y236116D01*
X576792Y236029D01*
X578147Y235246D01*
X579389Y234293D01*
X580495Y233187D01*
X581448Y231945D01*
X582231Y230590D01*
X582829Y229144D01*
X583234Y227632D01*
X583439Y226081D01*
X583439Y220979D01*
X576579Y220979D01*
G37*
%LPD*%
%LPC*%
G36*
X772667Y71373D02*
X772667Y71373D01*
X772667Y78233D01*
X777769Y78233D01*
X779320Y78028D01*
X780832Y77623D01*
X782278Y77025D01*
X783633Y76242D01*
X784875Y75289D01*
X785981Y74183D01*
X786934Y72941D01*
X787717Y71586D01*
X787804Y71373D01*
X772667Y71373D01*
G37*
%LPD*%
%LPC*%
G36*
X767184Y690879D02*
X767184Y690879D01*
X767271Y691092D01*
X768054Y692447D01*
X769007Y693689D01*
X770113Y694795D01*
X771355Y695748D01*
X772710Y696531D01*
X774156Y697129D01*
X775668Y697534D01*
X777219Y697739D01*
X782321Y697739D01*
X782321Y690879D01*
X767184Y690879D01*
G37*
%LPD*%
%LPC*%
G36*
X576579Y210821D02*
X576579Y210821D01*
X583439Y210821D01*
X583439Y205719D01*
X583234Y204168D01*
X582829Y202656D01*
X582231Y201210D01*
X581448Y199855D01*
X580495Y198613D01*
X579389Y197507D01*
X578147Y196554D01*
X576792Y195771D01*
X576579Y195684D01*
X576579Y210821D01*
G37*
%LPD*%
%LPC*%
G36*
X747372Y71373D02*
X747372Y71373D01*
X747459Y71586D01*
X748242Y72941D01*
X749195Y74183D01*
X750301Y75289D01*
X751543Y76242D01*
X752898Y77025D01*
X754344Y77623D01*
X755856Y78028D01*
X757407Y78233D01*
X762509Y78233D01*
X762509Y71373D01*
X747372Y71373D01*
G37*
%LPD*%
%LPC*%
G36*
X500536Y185583D02*
X500536Y185583D01*
X515666Y186058D01*
X515585Y185843D01*
X514845Y184464D01*
X513932Y183193D01*
X512861Y182052D01*
X511650Y181061D01*
X510320Y180236D01*
X508893Y179592D01*
X507395Y179140D01*
X505850Y178887D01*
X500752Y178727D01*
X500536Y185583D01*
G37*
%LPD*%
%LPC*%
G36*
X661161Y805179D02*
X661161Y805179D01*
X661161Y810281D01*
X661366Y811832D01*
X661771Y813344D01*
X662369Y814790D01*
X663152Y816145D01*
X664105Y817387D01*
X665211Y818493D01*
X666453Y819446D01*
X667808Y820229D01*
X668021Y820316D01*
X668021Y805179D01*
X661161Y805179D01*
G37*
%LPD*%
%LPC*%
G36*
X559561Y220979D02*
X559561Y220979D01*
X559561Y226081D01*
X559766Y227632D01*
X560171Y229144D01*
X560769Y230590D01*
X561552Y231945D01*
X562505Y233187D01*
X563611Y234293D01*
X564853Y235246D01*
X566208Y236029D01*
X566421Y236116D01*
X566421Y220979D01*
X559561Y220979D01*
G37*
%LPD*%
%LPC*%
G36*
X525779Y559561D02*
X525779Y559561D01*
X525779Y566421D01*
X540916Y566421D01*
X540829Y566208D01*
X540046Y564853D01*
X539093Y563611D01*
X537987Y562505D01*
X536745Y561552D01*
X535390Y560769D01*
X533944Y560171D01*
X532432Y559766D01*
X530881Y559561D01*
X525779Y559561D01*
G37*
%LPD*%
%LPC*%
G36*
X792479Y673861D02*
X792479Y673861D01*
X792479Y680721D01*
X807616Y680721D01*
X807529Y680508D01*
X806746Y679153D01*
X805793Y677911D01*
X804687Y676805D01*
X803445Y675852D01*
X802090Y675069D01*
X800644Y674471D01*
X799132Y674066D01*
X797581Y673861D01*
X792479Y673861D01*
G37*
%LPD*%
%LPC*%
G36*
X772667Y54355D02*
X772667Y54355D01*
X772667Y61215D01*
X787804Y61215D01*
X787717Y61002D01*
X786934Y59647D01*
X785981Y58405D01*
X784875Y57299D01*
X783633Y56346D01*
X782278Y55563D01*
X780832Y54965D01*
X779320Y54560D01*
X777769Y54355D01*
X772667Y54355D01*
G37*
%LPD*%
%LPC*%
G36*
X1219961Y830579D02*
X1219961Y830579D01*
X1219961Y835681D01*
X1220166Y837232D01*
X1220571Y838744D01*
X1221169Y840190D01*
X1221952Y841545D01*
X1222905Y842787D01*
X1224011Y843893D01*
X1225253Y844846D01*
X1226608Y845629D01*
X1226821Y845716D01*
X1226821Y830579D01*
X1219961Y830579D01*
G37*
%LPD*%
%LPC*%
G36*
X1226608Y805371D02*
X1226608Y805371D01*
X1225253Y806154D01*
X1224011Y807107D01*
X1222905Y808213D01*
X1221952Y809455D01*
X1221169Y810810D01*
X1220571Y812256D01*
X1220166Y813768D01*
X1219961Y815319D01*
X1219961Y820421D01*
X1226821Y820421D01*
X1226821Y805284D01*
X1226608Y805371D01*
G37*
%LPD*%
%LPC*%
G36*
X566208Y195771D02*
X566208Y195771D01*
X564853Y196554D01*
X563611Y197507D01*
X562505Y198613D01*
X561552Y199855D01*
X560769Y201210D01*
X560171Y202656D01*
X559766Y204168D01*
X559561Y205719D01*
X559561Y210821D01*
X566421Y210821D01*
X566421Y195684D01*
X566208Y195771D01*
G37*
%LPD*%
%LPC*%
G36*
X510519Y559561D02*
X510519Y559561D01*
X508968Y559766D01*
X507456Y560171D01*
X506010Y560769D01*
X504655Y561552D01*
X503413Y562505D01*
X502307Y563611D01*
X501354Y564853D01*
X500571Y566208D01*
X500484Y566421D01*
X515621Y566421D01*
X515621Y559561D01*
X510519Y559561D01*
G37*
%LPD*%
%LPC*%
G36*
X757407Y54355D02*
X757407Y54355D01*
X755856Y54560D01*
X754344Y54965D01*
X752898Y55563D01*
X751543Y56346D01*
X750301Y57299D01*
X749195Y58405D01*
X748242Y59647D01*
X747459Y61002D01*
X747372Y61215D01*
X762509Y61215D01*
X762509Y54355D01*
X757407Y54355D01*
G37*
%LPD*%
%LPC*%
G36*
X777219Y673861D02*
X777219Y673861D01*
X775668Y674066D01*
X774156Y674471D01*
X772710Y675069D01*
X771355Y675852D01*
X770113Y676805D01*
X769007Y677911D01*
X768054Y679153D01*
X767271Y680508D01*
X767184Y680721D01*
X782321Y680721D01*
X782321Y673861D01*
X777219Y673861D01*
G37*
%LPD*%
%LPC*%
G36*
X1211579Y435355D02*
X1211579Y435355D01*
X1211579Y439421D01*
X1220717Y439421D01*
X1220079Y438543D01*
X1219061Y437525D01*
X1217897Y436679D01*
X1216614Y436025D01*
X1215245Y435580D01*
X1213824Y435355D01*
X1211579Y435355D01*
G37*
%LPD*%
%LPC*%
G36*
X1199176Y435355D02*
X1199176Y435355D01*
X1197755Y435580D01*
X1196386Y436025D01*
X1195103Y436679D01*
X1193939Y437525D01*
X1192921Y438543D01*
X1192283Y439421D01*
X1201421Y439421D01*
X1201421Y435355D01*
X1199176Y435355D01*
G37*
%LPD*%
D10*
X644398Y393700D02*
X625602Y393700D01*
X625602Y419100D02*
X644398Y419100D01*
X644398Y444500D02*
X625602Y444500D01*
X625602Y469900D02*
X644398Y469900D01*
X644398Y495300D02*
X625602Y495300D01*
X625602Y520700D02*
X644398Y520700D01*
X644398Y571500D02*
X625602Y571500D01*
X625602Y596900D02*
X644398Y596900D01*
X644398Y622300D02*
X625602Y622300D01*
X625602Y647700D02*
X644398Y647700D01*
X644398Y673100D02*
X625602Y673100D01*
X625602Y698500D02*
X644398Y698500D01*
X1108202Y698500D02*
X1126998Y698500D01*
X1126998Y673100D02*
X1108202Y673100D01*
X1108202Y647700D02*
X1126998Y647700D01*
X1126998Y622300D02*
X1108202Y622300D01*
X1108202Y596900D02*
X1126998Y596900D01*
X1126998Y571500D02*
X1108202Y571500D01*
X1108202Y546100D02*
X1126998Y546100D01*
X1126998Y520700D02*
X1108202Y520700D01*
X1108202Y482600D02*
X1126998Y482600D01*
X1126998Y457200D02*
X1108202Y457200D01*
X1108202Y431800D02*
X1126998Y431800D01*
X1126998Y406400D02*
X1108202Y406400D01*
X1108202Y381000D02*
X1126998Y381000D01*
X1126998Y355600D02*
X1108202Y355600D01*
X1108202Y330200D02*
X1126998Y330200D01*
X1126998Y304800D02*
X1108202Y304800D01*
X1108202Y279400D02*
X1126998Y279400D01*
X1126998Y254000D02*
X1108202Y254000D01*
X644398Y368300D02*
X625602Y368300D01*
X625602Y342900D02*
X644398Y342900D01*
D11*
X1206500Y123300D03*
D12*
X1206500Y60800D03*
X1254500Y94800D03*
D13*
X1349248Y266700D02*
X1368552Y266700D01*
D10*
X1368298Y241300D02*
X1349502Y241300D01*
X1349502Y215900D02*
X1368298Y215900D01*
X504693Y190795D02*
X485907Y190205D01*
X485109Y215592D02*
X503896Y216183D01*
X504698Y292100D02*
X485902Y292100D01*
X485902Y317500D02*
X504698Y317500D01*
X571500Y225298D02*
X571500Y206502D01*
X571500Y282702D02*
X571500Y301498D01*
X758190Y111506D02*
X776986Y111506D01*
X823214Y111506D02*
X842010Y111506D01*
X776986Y66294D02*
X758190Y66294D01*
X823214Y66294D02*
X842010Y66294D01*
D14*
X1199896Y647700D02*
X1213104Y647700D01*
X1213104Y622300D02*
X1199896Y622300D01*
X1199896Y495300D02*
X1213104Y495300D01*
X1213104Y469900D02*
X1199896Y469900D01*
X1199896Y596900D02*
X1213104Y596900D01*
X1213104Y571500D02*
X1199896Y571500D01*
X1199896Y520700D02*
X1213104Y520700D01*
X1213104Y546100D02*
X1199896Y546100D01*
X1199896Y444500D02*
X1213104Y444500D01*
X1276096Y444500D02*
X1289304Y444500D01*
X1289304Y469900D02*
X1276096Y469900D01*
X1276096Y495300D02*
X1289304Y495300D01*
X1289304Y520700D02*
X1276096Y520700D01*
X1276096Y546100D02*
X1289304Y546100D01*
X1289304Y571500D02*
X1276096Y571500D01*
X1276096Y596900D02*
X1289304Y596900D01*
X1289304Y622300D02*
X1276096Y622300D01*
X1276096Y647700D02*
X1289304Y647700D01*
D13*
X1178052Y254000D02*
X1158748Y254000D01*
X1260348Y254000D02*
X1279652Y254000D01*
X1216152Y749300D02*
X1196848Y749300D01*
X1298448Y749300D02*
X1317752Y749300D01*
D10*
X1346200Y816102D02*
X1346200Y834898D01*
X1371600Y834898D02*
X1371600Y816102D01*
D13*
X1282700Y815848D02*
X1282700Y835152D01*
D10*
X1257300Y834898D02*
X1257300Y816102D01*
X1231900Y816102D02*
X1231900Y834898D01*
D13*
X1282700Y365252D02*
X1282700Y345948D01*
D10*
X1257300Y346202D02*
X1257300Y364998D01*
X1231900Y364998D02*
X1231900Y346202D01*
X796798Y685800D02*
X778002Y685800D01*
X720598Y685800D02*
X701802Y685800D01*
X530098Y698500D02*
X511302Y698500D01*
X511302Y673100D02*
X530098Y673100D01*
X530098Y647700D02*
X511302Y647700D01*
X511302Y622300D02*
X530098Y622300D01*
X530098Y596900D02*
X511302Y596900D01*
X511302Y571500D02*
X530098Y571500D01*
X673100Y790702D02*
X673100Y809498D01*
X698500Y809498D02*
X698500Y790702D01*
X723900Y790702D02*
X723900Y809498D01*
X749300Y809498D02*
X749300Y790702D01*
X774700Y790702D02*
X774700Y809498D01*
X800100Y809498D02*
X800100Y790702D01*
D15*
X1449900Y642800D03*
X1449900Y600800D03*
X1449900Y558800D03*
X1449900Y516800D03*
X1449900Y474800D03*
X1394900Y516800D03*
X1394900Y474800D03*
X1394900Y558800D03*
X1394900Y600800D03*
X1394900Y642800D03*
D16*
X1390000Y647700D01*
X1282700Y647700D01*
X1282700Y622300D02*
X1373400Y622300D01*
X1394900Y600800D01*
X1358900Y596900D02*
X1282700Y596900D01*
X1358900Y596900D02*
X1397000Y558800D01*
X1394900Y558800D01*
X1346200Y571500D02*
X1282700Y571500D01*
X1346200Y571500D02*
X1394900Y522800D01*
X1394900Y516800D01*
X1320800Y546100D02*
X1282700Y546100D01*
X1320800Y546100D02*
X1358900Y508000D01*
X1358900Y419100D01*
X1384300Y393700D01*
X1422400Y393700D01*
X1449900Y421200D02*
X1449900Y474800D01*
X1449900Y421200D02*
X1422400Y393700D01*
X1308100Y520700D02*
X1282700Y520700D01*
X1308100Y520700D02*
X1333500Y495300D01*
X1333500Y419100D01*
X1384300Y368300D01*
X1485900Y419100D02*
X1485900Y495300D01*
X1471400Y495300D01*
X1449900Y516800D01*
X1435100Y368300D02*
X1384300Y368300D01*
X1435100Y368300D02*
X1485900Y419100D01*
X1282700Y495300D02*
X1270000Y495300D01*
X1259840Y505460D01*
X1259840Y662940D01*
X1282700Y685800D01*
X1386974Y720040D02*
X1412026Y720040D01*
X1429740Y702326D01*
X1386974Y720040D02*
X1352734Y685800D01*
X1429740Y576860D02*
X1447800Y558800D01*
X1429740Y576860D02*
X1429740Y702326D01*
X1352734Y685800D02*
X1282700Y685800D01*
X1447800Y558800D02*
X1449900Y558800D01*
X1282700Y469900D02*
X1257300Y469900D01*
X1245870Y481330D01*
X1245870Y687070D01*
X1268730Y709930D01*
X1333500Y709930D01*
X1338764Y709930D01*
X1464400Y600800D02*
X1485900Y622300D01*
X1464400Y600800D02*
X1449900Y600800D01*
X1339287Y709930D02*
X1338764Y709930D01*
X1339287Y709930D02*
X1360170Y730813D01*
X1360170Y749300D01*
X1372870Y762000D01*
X1447800Y762000D01*
X1485900Y723900D01*
X1485900Y622300D01*
X1240900Y123300D02*
X1206500Y123300D01*
D17*
X1371600Y825500D02*
X1460500Y825500D01*
X1511300Y774700D02*
X1511300Y584200D01*
X1511300Y304800D01*
X1266300Y123300D02*
X1206500Y123300D01*
X1266300Y123300D02*
X1358900Y215900D01*
X1435100Y215900D01*
X1493371Y283882D02*
X1511300Y304800D01*
X1493371Y283882D02*
X1435100Y215900D01*
X1511300Y774700D02*
X1460500Y825500D01*
X1282700Y444500D02*
X1443318Y283882D01*
X1493371Y283882D01*
X1394900Y474800D02*
X1422400Y508000D01*
X1422400Y524668D02*
X1435192Y537460D01*
X1422400Y524668D02*
X1422400Y508000D01*
X1510668Y584200D02*
X1511300Y584200D01*
X1510668Y584200D02*
X1463928Y537460D01*
X1435192Y537460D01*
D16*
X1254500Y94800D02*
X1250315Y90805D01*
X635635Y474980D02*
X635635Y488950D01*
X635635Y474980D02*
X635000Y469900D01*
X635635Y488950D02*
X635000Y495300D01*
X551815Y195580D02*
X495935Y195580D01*
X551815Y195580D02*
X565785Y209550D01*
X495935Y195580D02*
X495300Y190500D01*
X565785Y209550D02*
X571500Y215900D01*
X1206500Y800100D02*
X1231900Y825500D01*
X1206500Y800100D02*
X1206500Y749300D01*
X1206500Y685800D01*
X1231900Y660400D01*
X1231900Y457200D01*
X1219200Y444500D01*
X1206500Y444500D01*
X1254500Y94800D02*
X1220500Y60800D01*
X1206500Y60800D01*
X1168400Y98900D01*
X1168400Y165100D01*
X1168400Y254000D01*
X795782Y38100D02*
X767588Y66294D01*
X1183800Y38100D02*
X1206500Y60800D01*
X1183800Y38100D02*
X795782Y38100D01*
X1231900Y355600D02*
X1239012Y348488D01*
X1239012Y338627D01*
X1206500Y203200D02*
X1168400Y165100D01*
X774700Y698500D02*
X774700Y800100D01*
X774700Y698500D02*
X787400Y685800D01*
X673100Y800100D02*
X533400Y800100D01*
X457200Y622300D02*
X482600Y571500D01*
X533400Y571500D01*
X457200Y723900D02*
X533400Y800100D01*
X457200Y723900D02*
X457200Y622300D01*
X457200Y381000D01*
X488725Y197075D02*
X495300Y190500D01*
X787400Y203200D02*
X787400Y685800D01*
X787400Y203200D02*
X723900Y139700D01*
X723900Y88900D01*
X746506Y66294D01*
X767588Y66294D01*
X571500Y571500D02*
X520700Y571500D01*
X571500Y571500D02*
X596900Y546100D01*
X647700Y546100D01*
X673100Y520700D01*
X673100Y482600D02*
X660400Y469900D01*
X635000Y469900D01*
X673100Y482600D02*
X673100Y520700D01*
X1193800Y863600D02*
X1231900Y825500D01*
X596900Y863600D02*
X533400Y800100D01*
X596900Y863600D02*
X1193800Y863600D01*
X1117600Y330200D02*
X1124712Y323088D01*
X1134573Y323088D01*
X1168400Y289261D01*
X1168400Y254000D01*
X1308100Y269539D02*
X1308100Y228600D01*
X1282700Y203200D01*
X1206500Y203200D01*
X1308100Y269539D02*
X1239012Y338627D01*
X457200Y381000D02*
X444500Y342900D01*
X444500Y228600D01*
X469900Y190500D01*
X495300Y190500D01*
X495935Y293370D02*
X565785Y293370D01*
X495935Y293370D02*
X495300Y292100D01*
X565785Y293370D02*
X571500Y292100D01*
X635635Y565785D02*
X662305Y565785D01*
X702945Y525145D01*
X702945Y336550D01*
X634365Y293370D01*
X572770Y293370D01*
X635635Y565785D02*
X635000Y571500D01*
X572770Y293370D02*
X571500Y292100D01*
X488950Y258445D02*
X488950Y216535D01*
X488950Y258445D02*
X461010Y286385D01*
X461010Y321310D01*
X495935Y356235D01*
X509905Y368935D01*
X600710Y459740D01*
X600710Y502920D01*
X614680Y516890D01*
X628650Y516890D01*
X494502Y215887D02*
X488950Y216535D01*
X628650Y516890D02*
X635000Y520700D01*
X614680Y440055D02*
X495935Y321310D01*
X614680Y440055D02*
X628650Y440055D01*
X495935Y321310D02*
X495300Y317500D01*
X628650Y440055D02*
X635000Y444500D01*
X768350Y111760D02*
X782320Y111760D01*
X1096645Y426085D01*
X1117600Y426085D01*
X768350Y111760D02*
X767588Y111506D01*
X1117600Y426085D02*
X1117600Y431800D01*
X1257300Y355600D02*
X1257300Y342265D01*
X1322070Y265430D02*
X1346200Y241300D01*
X1358900Y241300D01*
X1322070Y277495D02*
X1257300Y342265D01*
X1322070Y277495D02*
X1322070Y265430D01*
X1117600Y405130D02*
X1117600Y406400D01*
X1282700Y406400D01*
X1358900Y330200D01*
X1358900Y266700D01*
X1168400Y381000D02*
X1117600Y381000D01*
X1168400Y381000D02*
X1222039Y381000D01*
X1224325Y383286D01*
X1264875Y383286D02*
X1275588Y372573D01*
X1275588Y362712D01*
X1282700Y355600D01*
X1264875Y383286D02*
X1224325Y383286D01*
X1270000Y279400D02*
X1270000Y254000D01*
X1270000Y279400D02*
X1168400Y381000D01*
X1308100Y800100D02*
X1282700Y825500D01*
X1308100Y800100D02*
X1308100Y749300D01*
X1282700Y825500D02*
X1275588Y832612D01*
X508000Y139700D02*
X419100Y203200D01*
X508000Y139700D02*
X647700Y139700D01*
X723900Y546100D02*
X673100Y596900D01*
X635000Y596900D01*
X723900Y254000D02*
X647700Y139700D01*
X723900Y254000D02*
X723900Y546100D01*
X419100Y736600D02*
X584200Y901700D01*
X419100Y736600D02*
X419100Y203200D01*
X1282700Y850900D02*
X1244600Y901700D01*
X1282700Y850900D02*
X1282700Y825500D01*
X1244600Y901700D02*
X584200Y901700D01*
X1346200Y825500D02*
X1346200Y736600D01*
X1333500Y723900D01*
X1270000Y723900D01*
X1257300Y736600D01*
X1257300Y825500D01*
X749300Y825500D02*
X749300Y800100D01*
X749300Y825500D02*
X762000Y838200D01*
X1041400Y838200D01*
X1155700Y723900D01*
X1155700Y685800D01*
X1143000Y673100D01*
X1117600Y673100D01*
X1016000Y800100D02*
X800100Y800100D01*
X1016000Y800100D02*
X1117600Y698500D01*
X635000Y698500D02*
X520700Y698500D01*
X520700Y673100D02*
X635000Y673100D01*
X635000Y647700D02*
X520700Y647700D01*
X520700Y622300D02*
X635000Y622300D01*
X723900Y698500D02*
X723900Y800100D01*
X723900Y698500D02*
X711200Y685800D01*
X691388Y792988D02*
X698500Y800100D01*
X691388Y792988D02*
X691388Y783127D01*
X632161Y723900D01*
X508000Y723900D01*
X482600Y698500D01*
X482600Y609600D01*
X495300Y596900D01*
X520700Y596900D01*
X1117600Y649605D02*
X1201420Y649605D01*
X1206500Y647700D01*
X1117600Y647700D02*
X1117600Y649605D01*
X1117600Y621665D02*
X1201420Y621665D01*
X1206500Y622300D01*
X1117600Y622300D02*
X1117600Y621665D01*
X1117600Y600710D02*
X1201420Y600710D01*
X1206500Y596900D01*
X1117600Y596900D02*
X1117600Y600710D01*
X1117600Y572770D02*
X1201420Y572770D01*
X1206500Y571500D01*
X1117600Y571500D02*
X1117600Y572770D01*
X1117600Y544830D02*
X1201420Y544830D01*
X1206500Y546100D01*
X1117600Y546100D02*
X1117600Y544830D01*
X1117600Y523875D02*
X1201420Y523875D01*
X1206500Y520700D01*
X1117600Y520700D02*
X1117600Y523875D01*
X1117600Y488950D02*
X1201420Y488950D01*
X1206500Y495300D01*
X1117600Y488950D02*
X1117600Y482600D01*
X1138555Y467995D02*
X1201420Y467995D01*
X1138555Y467995D02*
X1131570Y461010D01*
X1117600Y461010D01*
X1201420Y467995D02*
X1206500Y469900D01*
X1117600Y461010D02*
X1117600Y457200D01*
M02*
