M48
;GenerationSoftware,Autodesk,EAGLE,8.7.1*%
;CreationDate,2018-05-14T10:07:04Z*%
FMAT,2
ICI,OFF
METRIC,TZ,000.000
T9C0.813
T8C0.900
T7C1.016
T6C1.118
T5C1.400
T4C2.000
T3C2.800
T2C3.000
T1C3.200
%
G90
M71
T1
X120650Y12330
T2
X139950Y68980
X139950Y42780
T3
X125450Y9480
X120650Y6080
T4
X43180Y0
X153670Y-1270
X153670Y92710
X41910Y92710
T5
X144990Y60080
X144990Y55880
X144990Y51680
X144990Y47480
X139490Y51680
X139490Y64280
X139490Y47480
X139490Y55880
X139490Y60080
X144990Y64280
T6
X72390Y80010
X116840Y25400
X127000Y25400
X120650Y74930
X130810Y74930
X52070Y69850
X52070Y67310
X52070Y62230
X52070Y59690
X52070Y57150
X67310Y80010
X69850Y80010
X74930Y80010
X77470Y80010
X80010Y80010
X52070Y64770
T7
X111760Y38100
X111760Y35560
X111760Y33020
X111760Y30480
X111760Y27940
X111760Y25400
X63500Y36830
X63500Y34290
X135890Y26670
X135890Y24130
X135890Y21590
X49530Y19050
X49450Y21589
X49530Y29210
X49530Y31750
X76759Y11151
X83261Y11151
X76759Y6629
X83261Y6629
X63500Y59690
X63500Y39370
X63500Y41910
X134620Y82550
X137160Y82550
X128270Y82550
X125730Y82550
X123190Y82550
X63500Y44450
X125730Y35560
X123190Y35560
X63500Y46990
X63500Y49530
X63500Y52070
X63500Y57150
X63500Y62230
X63500Y64770
X63500Y67310
X63500Y69850
X111760Y69850
X111760Y67310
X111760Y64770
X111760Y62230
X111760Y59690
X111760Y57150
X111760Y54610
X111760Y52070
X111760Y48260
X111760Y45720
X111760Y43180
X111760Y40640
X128270Y35560
T8
X57150Y29210
X57150Y21590
X78740Y68580
X71120Y68580
T9
X128270Y49530
X128270Y52070
X128270Y54610
X128270Y57150
X128270Y59690
X128270Y62230
X128270Y64770
X120650Y64770
X120650Y62230
X120650Y49530
X120650Y46990
X120650Y59690
X120650Y57150
X120650Y52070
X120650Y54610
X120650Y44450
X128270Y44450
X128270Y46990
M30