M48
;GenerationSoftware,Autodesk,EAGLE,8.7.0*%
;CreationDate,2018-04-11T09:38:31Z*%
FMAT,2
ICI,OFF
METRIC,TZ,000.000
T6C0.813
T5C0.900
T4C1.016
T3C1.118
T2C2.800
T1C3.200
%
G90
M71
T1
X59690Y14870
T2
X59690Y8620
X64490Y12020
T3
X57150Y38100
X46990Y38100
X72390Y76200
X62230Y76200
T4
X110490Y52070
X110490Y54610
X110490Y59690
X110490Y62230
X110490Y64770
X110490Y67310
X110490Y69850
X110490Y72390
X62230Y72390
X62230Y69850
X62230Y67310
X62230Y64770
X62230Y62230
X62230Y59690
X62230Y57150
X62230Y54610
X62230Y50800
X62230Y48260
X62230Y45720
X62230Y43180
X62230Y40640
X62230Y38100
X62230Y35560
X62230Y33020
X62230Y30480
X62230Y27940
X110490Y39370
X110490Y36830
X40640Y38100
X40640Y40640
X40640Y43180
X116840Y57150
X116920Y54611
X116840Y63500
X116840Y60960
X40640Y48260
X40640Y50800
X40640Y53340
X40640Y55880
X40640Y58420
X40640Y60960
X40640Y63500
X40640Y66040
X40640Y68580
X90449Y6909
X90449Y13411
X94971Y6909
X94971Y13411
X110490Y41910
X110490Y44450
X110490Y46990
X110490Y49530
X40640Y33020
X40640Y30480
X64770Y80010
X67310Y80010
X69850Y80010
X54610Y41910
X52070Y41910
X49530Y41910
X116840Y11430
X116840Y36830
X116840Y39370
X116840Y41910
X116840Y44450
X116840Y46990
X116840Y49530
X116840Y24130
X116840Y21590
X116840Y19050
X116840Y16510
X116840Y13970
T5
X120650Y11430
X121920Y54610
X121920Y62230
X120650Y19050
T6
X55880Y63500
X55880Y66040
X55880Y53340
X55880Y55880
X55880Y60960
X55880Y58420
X55880Y68580
X48260Y68580
X48260Y66040
X48260Y63500
X48260Y60960
X48260Y58420
X48260Y55880
X48260Y53340
X48260Y50800
X48260Y48260
X55880Y48260
X55880Y50800
M30