G04 EAGLE Gerber X2 export*
%TF.Part,Single*%
%TF.FileFunction,Profile,NP*%
%TF.FilePolarity,Positive*%
%TF.GenerationSoftware,Autodesk,EAGLE,8.7.1*%
%TF.CreationDate,2018-05-14T10:07:05Z*%
G75*
%MOMM*%
%FSLAX34Y34*%
%LPD*%
%AMOC8*
5,1,8,0,0,1.08239X$1,22.5*%
G01*
%ADD10C,0.254000*%


D10*
X393700Y-38100D02*
X1561900Y-38100D01*
X1561900Y949200D01*
X393700Y949200D01*
X393700Y-38100D01*
X441800Y-437D02*
X441724Y-1307D01*
X441572Y-2166D01*
X441346Y-3010D01*
X441048Y-3830D01*
X440679Y-4622D01*
X440242Y-5378D01*
X439741Y-6093D01*
X439180Y-6762D01*
X438562Y-7380D01*
X437893Y-7941D01*
X437178Y-8442D01*
X436422Y-8879D01*
X435630Y-9248D01*
X434810Y-9546D01*
X433966Y-9772D01*
X433107Y-9924D01*
X432237Y-10000D01*
X431363Y-10000D01*
X430494Y-9924D01*
X429634Y-9772D01*
X428790Y-9546D01*
X427970Y-9248D01*
X427178Y-8879D01*
X426422Y-8442D01*
X425707Y-7941D01*
X425038Y-7380D01*
X424420Y-6762D01*
X423859Y-6093D01*
X423358Y-5378D01*
X422921Y-4622D01*
X422552Y-3830D01*
X422254Y-3010D01*
X422028Y-2166D01*
X421876Y-1307D01*
X421800Y-437D01*
X421800Y437D01*
X421876Y1307D01*
X422028Y2166D01*
X422254Y3010D01*
X422552Y3830D01*
X422921Y4622D01*
X423358Y5378D01*
X423859Y6093D01*
X424420Y6762D01*
X425038Y7380D01*
X425707Y7941D01*
X426422Y8442D01*
X427178Y8879D01*
X427970Y9248D01*
X428790Y9546D01*
X429634Y9772D01*
X430494Y9924D01*
X431363Y10000D01*
X432237Y10000D01*
X433107Y9924D01*
X433966Y9772D01*
X434810Y9546D01*
X435630Y9248D01*
X436422Y8879D01*
X437178Y8442D01*
X437893Y7941D01*
X438562Y7380D01*
X439180Y6762D01*
X439741Y6093D01*
X440242Y5378D01*
X440679Y4622D01*
X441048Y3830D01*
X441346Y3010D01*
X441572Y2166D01*
X441724Y1307D01*
X441800Y437D01*
X441800Y-437D01*
X1546700Y-13137D02*
X1546624Y-14007D01*
X1546472Y-14866D01*
X1546246Y-15710D01*
X1545948Y-16530D01*
X1545579Y-17322D01*
X1545142Y-18078D01*
X1544641Y-18793D01*
X1544080Y-19462D01*
X1543462Y-20080D01*
X1542793Y-20641D01*
X1542078Y-21142D01*
X1541322Y-21579D01*
X1540530Y-21948D01*
X1539710Y-22246D01*
X1538866Y-22472D01*
X1538007Y-22624D01*
X1537137Y-22700D01*
X1536263Y-22700D01*
X1535394Y-22624D01*
X1534534Y-22472D01*
X1533690Y-22246D01*
X1532870Y-21948D01*
X1532078Y-21579D01*
X1531322Y-21142D01*
X1530607Y-20641D01*
X1529938Y-20080D01*
X1529320Y-19462D01*
X1528759Y-18793D01*
X1528258Y-18078D01*
X1527821Y-17322D01*
X1527452Y-16530D01*
X1527154Y-15710D01*
X1526928Y-14866D01*
X1526776Y-14007D01*
X1526700Y-13137D01*
X1526700Y-12263D01*
X1526776Y-11394D01*
X1526928Y-10534D01*
X1527154Y-9690D01*
X1527452Y-8870D01*
X1527821Y-8078D01*
X1528258Y-7322D01*
X1528759Y-6607D01*
X1529320Y-5938D01*
X1529938Y-5320D01*
X1530607Y-4759D01*
X1531322Y-4258D01*
X1532078Y-3821D01*
X1532870Y-3452D01*
X1533690Y-3154D01*
X1534534Y-2928D01*
X1535394Y-2776D01*
X1536263Y-2700D01*
X1537137Y-2700D01*
X1538007Y-2776D01*
X1538866Y-2928D01*
X1539710Y-3154D01*
X1540530Y-3452D01*
X1541322Y-3821D01*
X1542078Y-4258D01*
X1542793Y-4759D01*
X1543462Y-5320D01*
X1544080Y-5938D01*
X1544641Y-6607D01*
X1545142Y-7322D01*
X1545579Y-8078D01*
X1545948Y-8870D01*
X1546246Y-9690D01*
X1546472Y-10534D01*
X1546624Y-11394D01*
X1546700Y-12263D01*
X1546700Y-13137D01*
X1546700Y926663D02*
X1546624Y925794D01*
X1546472Y924934D01*
X1546246Y924090D01*
X1545948Y923270D01*
X1545579Y922478D01*
X1545142Y921722D01*
X1544641Y921007D01*
X1544080Y920338D01*
X1543462Y919720D01*
X1542793Y919159D01*
X1542078Y918658D01*
X1541322Y918221D01*
X1540530Y917852D01*
X1539710Y917554D01*
X1538866Y917328D01*
X1538007Y917176D01*
X1537137Y917100D01*
X1536263Y917100D01*
X1535394Y917176D01*
X1534534Y917328D01*
X1533690Y917554D01*
X1532870Y917852D01*
X1532078Y918221D01*
X1531322Y918658D01*
X1530607Y919159D01*
X1529938Y919720D01*
X1529320Y920338D01*
X1528759Y921007D01*
X1528258Y921722D01*
X1527821Y922478D01*
X1527452Y923270D01*
X1527154Y924090D01*
X1526928Y924934D01*
X1526776Y925794D01*
X1526700Y926663D01*
X1526700Y927537D01*
X1526776Y928407D01*
X1526928Y929266D01*
X1527154Y930110D01*
X1527452Y930930D01*
X1527821Y931722D01*
X1528258Y932478D01*
X1528759Y933193D01*
X1529320Y933862D01*
X1529938Y934480D01*
X1530607Y935041D01*
X1531322Y935542D01*
X1532078Y935979D01*
X1532870Y936348D01*
X1533690Y936646D01*
X1534534Y936872D01*
X1535394Y937024D01*
X1536263Y937100D01*
X1537137Y937100D01*
X1538007Y937024D01*
X1538866Y936872D01*
X1539710Y936646D01*
X1540530Y936348D01*
X1541322Y935979D01*
X1542078Y935542D01*
X1542793Y935041D01*
X1543462Y934480D01*
X1544080Y933862D01*
X1544641Y933193D01*
X1545142Y932478D01*
X1545579Y931722D01*
X1545948Y930930D01*
X1546246Y930110D01*
X1546472Y929266D01*
X1546624Y928407D01*
X1546700Y927537D01*
X1546700Y926663D01*
X429100Y926663D02*
X429024Y925794D01*
X428872Y924934D01*
X428646Y924090D01*
X428348Y923270D01*
X427979Y922478D01*
X427542Y921722D01*
X427041Y921007D01*
X426480Y920338D01*
X425862Y919720D01*
X425193Y919159D01*
X424478Y918658D01*
X423722Y918221D01*
X422930Y917852D01*
X422110Y917554D01*
X421266Y917328D01*
X420407Y917176D01*
X419537Y917100D01*
X418663Y917100D01*
X417794Y917176D01*
X416934Y917328D01*
X416090Y917554D01*
X415270Y917852D01*
X414478Y918221D01*
X413722Y918658D01*
X413007Y919159D01*
X412338Y919720D01*
X411720Y920338D01*
X411159Y921007D01*
X410658Y921722D01*
X410221Y922478D01*
X409852Y923270D01*
X409554Y924090D01*
X409328Y924934D01*
X409176Y925794D01*
X409100Y926663D01*
X409100Y927537D01*
X409176Y928407D01*
X409328Y929266D01*
X409554Y930110D01*
X409852Y930930D01*
X410221Y931722D01*
X410658Y932478D01*
X411159Y933193D01*
X411720Y933862D01*
X412338Y934480D01*
X413007Y935041D01*
X413722Y935542D01*
X414478Y935979D01*
X415270Y936348D01*
X416090Y936646D01*
X416934Y936872D01*
X417794Y937024D01*
X418663Y937100D01*
X419537Y937100D01*
X420407Y937024D01*
X421266Y936872D01*
X422110Y936646D01*
X422930Y936348D01*
X423722Y935979D01*
X424478Y935542D01*
X425193Y935041D01*
X425862Y934480D01*
X426480Y933862D01*
X427041Y933193D01*
X427542Y932478D01*
X427979Y931722D01*
X428348Y930930D01*
X428646Y930110D01*
X428872Y929266D01*
X429024Y928407D01*
X429100Y927537D01*
X429100Y926663D01*
X441800Y-437D02*
X441724Y-1307D01*
X441572Y-2166D01*
X441346Y-3010D01*
X441048Y-3830D01*
X440679Y-4622D01*
X440242Y-5378D01*
X439741Y-6093D01*
X439180Y-6762D01*
X438562Y-7380D01*
X437893Y-7941D01*
X437178Y-8442D01*
X436422Y-8879D01*
X435630Y-9248D01*
X434810Y-9546D01*
X433966Y-9772D01*
X433107Y-9924D01*
X432237Y-10000D01*
X431363Y-10000D01*
X430494Y-9924D01*
X429634Y-9772D01*
X428790Y-9546D01*
X427970Y-9248D01*
X427178Y-8879D01*
X426422Y-8442D01*
X425707Y-7941D01*
X425038Y-7380D01*
X424420Y-6762D01*
X423859Y-6093D01*
X423358Y-5378D01*
X422921Y-4622D01*
X422552Y-3830D01*
X422254Y-3010D01*
X422028Y-2166D01*
X421876Y-1307D01*
X421800Y-437D01*
X421800Y437D01*
X421876Y1307D01*
X422028Y2166D01*
X422254Y3010D01*
X422552Y3830D01*
X422921Y4622D01*
X423358Y5378D01*
X423859Y6093D01*
X424420Y6762D01*
X425038Y7380D01*
X425707Y7941D01*
X426422Y8442D01*
X427178Y8879D01*
X427970Y9248D01*
X428790Y9546D01*
X429634Y9772D01*
X430494Y9924D01*
X431363Y10000D01*
X432237Y10000D01*
X433107Y9924D01*
X433966Y9772D01*
X434810Y9546D01*
X435630Y9248D01*
X436422Y8879D01*
X437178Y8442D01*
X437893Y7941D01*
X438562Y7380D01*
X439180Y6762D01*
X439741Y6093D01*
X440242Y5378D01*
X440679Y4622D01*
X441048Y3830D01*
X441346Y3010D01*
X441572Y2166D01*
X441724Y1307D01*
X441800Y437D01*
X441800Y-437D01*
X1546700Y-13137D02*
X1546624Y-14007D01*
X1546472Y-14866D01*
X1546246Y-15710D01*
X1545948Y-16530D01*
X1545579Y-17322D01*
X1545142Y-18078D01*
X1544641Y-18793D01*
X1544080Y-19462D01*
X1543462Y-20080D01*
X1542793Y-20641D01*
X1542078Y-21142D01*
X1541322Y-21579D01*
X1540530Y-21948D01*
X1539710Y-22246D01*
X1538866Y-22472D01*
X1538007Y-22624D01*
X1537137Y-22700D01*
X1536263Y-22700D01*
X1535394Y-22624D01*
X1534534Y-22472D01*
X1533690Y-22246D01*
X1532870Y-21948D01*
X1532078Y-21579D01*
X1531322Y-21142D01*
X1530607Y-20641D01*
X1529938Y-20080D01*
X1529320Y-19462D01*
X1528759Y-18793D01*
X1528258Y-18078D01*
X1527821Y-17322D01*
X1527452Y-16530D01*
X1527154Y-15710D01*
X1526928Y-14866D01*
X1526776Y-14007D01*
X1526700Y-13137D01*
X1526700Y-12263D01*
X1526776Y-11394D01*
X1526928Y-10534D01*
X1527154Y-9690D01*
X1527452Y-8870D01*
X1527821Y-8078D01*
X1528258Y-7322D01*
X1528759Y-6607D01*
X1529320Y-5938D01*
X1529938Y-5320D01*
X1530607Y-4759D01*
X1531322Y-4258D01*
X1532078Y-3821D01*
X1532870Y-3452D01*
X1533690Y-3154D01*
X1534534Y-2928D01*
X1535394Y-2776D01*
X1536263Y-2700D01*
X1537137Y-2700D01*
X1538007Y-2776D01*
X1538866Y-2928D01*
X1539710Y-3154D01*
X1540530Y-3452D01*
X1541322Y-3821D01*
X1542078Y-4258D01*
X1542793Y-4759D01*
X1543462Y-5320D01*
X1544080Y-5938D01*
X1544641Y-6607D01*
X1545142Y-7322D01*
X1545579Y-8078D01*
X1545948Y-8870D01*
X1546246Y-9690D01*
X1546472Y-10534D01*
X1546624Y-11394D01*
X1546700Y-12263D01*
X1546700Y-13137D01*
X1546700Y926663D02*
X1546624Y925794D01*
X1546472Y924934D01*
X1546246Y924090D01*
X1545948Y923270D01*
X1545579Y922478D01*
X1545142Y921722D01*
X1544641Y921007D01*
X1544080Y920338D01*
X1543462Y919720D01*
X1542793Y919159D01*
X1542078Y918658D01*
X1541322Y918221D01*
X1540530Y917852D01*
X1539710Y917554D01*
X1538866Y917328D01*
X1538007Y917176D01*
X1537137Y917100D01*
X1536263Y917100D01*
X1535394Y917176D01*
X1534534Y917328D01*
X1533690Y917554D01*
X1532870Y917852D01*
X1532078Y918221D01*
X1531322Y918658D01*
X1530607Y919159D01*
X1529938Y919720D01*
X1529320Y920338D01*
X1528759Y921007D01*
X1528258Y921722D01*
X1527821Y922478D01*
X1527452Y923270D01*
X1527154Y924090D01*
X1526928Y924934D01*
X1526776Y925794D01*
X1526700Y926663D01*
X1526700Y927537D01*
X1526776Y928407D01*
X1526928Y929266D01*
X1527154Y930110D01*
X1527452Y930930D01*
X1527821Y931722D01*
X1528258Y932478D01*
X1528759Y933193D01*
X1529320Y933862D01*
X1529938Y934480D01*
X1530607Y935041D01*
X1531322Y935542D01*
X1532078Y935979D01*
X1532870Y936348D01*
X1533690Y936646D01*
X1534534Y936872D01*
X1535394Y937024D01*
X1536263Y937100D01*
X1537137Y937100D01*
X1538007Y937024D01*
X1538866Y936872D01*
X1539710Y936646D01*
X1540530Y936348D01*
X1541322Y935979D01*
X1542078Y935542D01*
X1542793Y935041D01*
X1543462Y934480D01*
X1544080Y933862D01*
X1544641Y933193D01*
X1545142Y932478D01*
X1545579Y931722D01*
X1545948Y930930D01*
X1546246Y930110D01*
X1546472Y929266D01*
X1546624Y928407D01*
X1546700Y927537D01*
X1546700Y926663D01*
X429100Y926663D02*
X429024Y925794D01*
X428872Y924934D01*
X428646Y924090D01*
X428348Y923270D01*
X427979Y922478D01*
X427542Y921722D01*
X427041Y921007D01*
X426480Y920338D01*
X425862Y919720D01*
X425193Y919159D01*
X424478Y918658D01*
X423722Y918221D01*
X422930Y917852D01*
X422110Y917554D01*
X421266Y917328D01*
X420407Y917176D01*
X419537Y917100D01*
X418663Y917100D01*
X417794Y917176D01*
X416934Y917328D01*
X416090Y917554D01*
X415270Y917852D01*
X414478Y918221D01*
X413722Y918658D01*
X413007Y919159D01*
X412338Y919720D01*
X411720Y920338D01*
X411159Y921007D01*
X410658Y921722D01*
X410221Y922478D01*
X409852Y923270D01*
X409554Y924090D01*
X409328Y924934D01*
X409176Y925794D01*
X409100Y926663D01*
X409100Y927537D01*
X409176Y928407D01*
X409328Y929266D01*
X409554Y930110D01*
X409852Y930930D01*
X410221Y931722D01*
X410658Y932478D01*
X411159Y933193D01*
X411720Y933862D01*
X412338Y934480D01*
X413007Y935041D01*
X413722Y935542D01*
X414478Y935979D01*
X415270Y936348D01*
X416090Y936646D01*
X416934Y936872D01*
X417794Y937024D01*
X418663Y937100D01*
X419537Y937100D01*
X420407Y937024D01*
X421266Y936872D01*
X422110Y936646D01*
X422930Y936348D01*
X423722Y935979D01*
X424478Y935542D01*
X425193Y935041D01*
X425862Y934480D01*
X426480Y933862D01*
X427041Y933193D01*
X427542Y932478D01*
X427979Y931722D01*
X428348Y930930D01*
X428646Y930110D01*
X428872Y929266D01*
X429024Y928407D01*
X429100Y927537D01*
X429100Y926663D01*
X1400036Y704800D02*
X1401104Y704724D01*
X1402165Y704571D01*
X1403212Y704343D01*
X1404240Y704041D01*
X1405244Y703667D01*
X1406219Y703222D01*
X1407159Y702708D01*
X1408060Y702129D01*
X1408918Y701487D01*
X1409728Y700785D01*
X1410485Y700028D01*
X1411187Y699218D01*
X1411829Y698360D01*
X1412408Y697459D01*
X1412922Y696519D01*
X1413367Y695544D01*
X1413741Y694540D01*
X1414043Y693512D01*
X1414271Y692465D01*
X1414424Y691404D01*
X1414500Y690336D01*
X1414500Y689264D01*
X1414424Y688196D01*
X1414271Y687135D01*
X1414043Y686088D01*
X1413741Y685060D01*
X1413367Y684056D01*
X1412922Y683081D01*
X1412408Y682141D01*
X1411829Y681240D01*
X1411187Y680382D01*
X1410485Y679572D01*
X1409728Y678815D01*
X1408918Y678113D01*
X1408060Y677471D01*
X1407159Y676892D01*
X1406219Y676378D01*
X1405244Y675933D01*
X1404240Y675559D01*
X1403212Y675257D01*
X1402165Y675029D01*
X1401104Y674876D01*
X1400036Y674800D01*
X1398964Y674800D01*
X1397896Y674876D01*
X1396835Y675029D01*
X1395788Y675257D01*
X1394760Y675559D01*
X1393756Y675933D01*
X1392781Y676378D01*
X1391841Y676892D01*
X1390940Y677471D01*
X1390082Y678113D01*
X1389272Y678815D01*
X1388515Y679572D01*
X1387813Y680382D01*
X1387171Y681240D01*
X1386592Y682141D01*
X1386078Y683081D01*
X1385633Y684056D01*
X1385259Y685060D01*
X1384957Y686088D01*
X1384729Y687135D01*
X1384576Y688196D01*
X1384500Y689264D01*
X1384500Y690336D01*
X1384576Y691404D01*
X1384729Y692465D01*
X1384957Y693512D01*
X1385259Y694540D01*
X1385633Y695544D01*
X1386078Y696519D01*
X1386592Y697459D01*
X1387171Y698360D01*
X1387813Y699218D01*
X1388515Y700028D01*
X1389272Y700785D01*
X1390082Y701487D01*
X1390940Y702129D01*
X1391841Y702708D01*
X1392781Y703222D01*
X1393756Y703667D01*
X1394760Y704041D01*
X1395788Y704343D01*
X1396835Y704571D01*
X1397896Y704724D01*
X1398964Y704800D01*
X1400036Y704800D01*
X1400036Y442800D02*
X1401104Y442724D01*
X1402165Y442571D01*
X1403212Y442343D01*
X1404240Y442041D01*
X1405244Y441667D01*
X1406219Y441222D01*
X1407159Y440708D01*
X1408060Y440129D01*
X1408918Y439487D01*
X1409728Y438785D01*
X1410485Y438028D01*
X1411187Y437218D01*
X1411829Y436360D01*
X1412408Y435459D01*
X1412922Y434519D01*
X1413367Y433544D01*
X1413741Y432540D01*
X1414043Y431512D01*
X1414271Y430465D01*
X1414424Y429404D01*
X1414500Y428336D01*
X1414500Y427264D01*
X1414424Y426196D01*
X1414271Y425135D01*
X1414043Y424088D01*
X1413741Y423060D01*
X1413367Y422056D01*
X1412922Y421081D01*
X1412408Y420141D01*
X1411829Y419240D01*
X1411187Y418382D01*
X1410485Y417572D01*
X1409728Y416815D01*
X1408918Y416113D01*
X1408060Y415471D01*
X1407159Y414892D01*
X1406219Y414378D01*
X1405244Y413933D01*
X1404240Y413559D01*
X1403212Y413257D01*
X1402165Y413029D01*
X1401104Y412876D01*
X1400036Y412800D01*
X1398964Y412800D01*
X1397896Y412876D01*
X1396835Y413029D01*
X1395788Y413257D01*
X1394760Y413559D01*
X1393756Y413933D01*
X1392781Y414378D01*
X1391841Y414892D01*
X1390940Y415471D01*
X1390082Y416113D01*
X1389272Y416815D01*
X1388515Y417572D01*
X1387813Y418382D01*
X1387171Y419240D01*
X1386592Y420141D01*
X1386078Y421081D01*
X1385633Y422056D01*
X1385259Y423060D01*
X1384957Y424088D01*
X1384729Y425135D01*
X1384576Y426196D01*
X1384500Y427264D01*
X1384500Y428336D01*
X1384576Y429404D01*
X1384729Y430465D01*
X1384957Y431512D01*
X1385259Y432540D01*
X1385633Y433544D01*
X1386078Y434519D01*
X1386592Y435459D01*
X1387171Y436360D01*
X1387813Y437218D01*
X1388515Y438028D01*
X1389272Y438785D01*
X1390082Y439487D01*
X1390940Y440129D01*
X1391841Y440708D01*
X1392781Y441222D01*
X1393756Y441667D01*
X1394760Y442041D01*
X1395788Y442343D01*
X1396835Y442571D01*
X1397896Y442724D01*
X1398964Y442800D01*
X1400036Y442800D01*
M02*
