G04 EAGLE Gerber X2 export*
%TF.Part,Single*%
%TF.FileFunction,Legend,Top,1*%
%TF.FilePolarity,Positive*%
%TF.GenerationSoftware,Autodesk,EAGLE,8.7.1*%
%TF.CreationDate,2018-05-16T11:30:19Z*%
G75*
%MOMM*%
%FSLAX34Y34*%
%LPD*%
%AMOC8*
5,1,8,0,0,1.08239X$1,22.5*%
G01*
%ADD10C,0.152400*%
%ADD11C,0.076200*%
%ADD12C,0.127000*%
%ADD13C,0.203200*%
%ADD14C,0.101600*%
%ADD15R,0.508000X0.508000*%
%ADD16R,0.508000X2.540000*%
%ADD17R,1.905000X0.762000*%
%ADD18C,0.254000*%


D10*
X432562Y13462D02*
X432562Y29718D01*
X437981Y20687D01*
X443399Y29718D01*
X443399Y13462D01*
X450486Y13462D02*
X450486Y24299D01*
X450034Y28815D02*
X450034Y29718D01*
X450937Y29718D01*
X450937Y28815D01*
X450034Y28815D01*
X457294Y24299D02*
X457294Y13462D01*
X457294Y24299D02*
X461810Y24299D01*
X461914Y24297D01*
X462017Y24291D01*
X462121Y24281D01*
X462224Y24267D01*
X462326Y24249D01*
X462427Y24228D01*
X462528Y24202D01*
X462627Y24173D01*
X462726Y24140D01*
X462823Y24103D01*
X462918Y24062D01*
X463012Y24018D01*
X463104Y23970D01*
X463194Y23919D01*
X463283Y23864D01*
X463369Y23806D01*
X463452Y23744D01*
X463534Y23680D01*
X463612Y23612D01*
X463688Y23542D01*
X463762Y23469D01*
X463832Y23392D01*
X463900Y23314D01*
X463964Y23232D01*
X464026Y23149D01*
X464084Y23063D01*
X464139Y22974D01*
X464190Y22884D01*
X464238Y22792D01*
X464282Y22698D01*
X464323Y22603D01*
X464360Y22506D01*
X464393Y22407D01*
X464422Y22308D01*
X464448Y22207D01*
X464469Y22106D01*
X464487Y22004D01*
X464501Y21901D01*
X464511Y21797D01*
X464517Y21694D01*
X464519Y21590D01*
X464519Y13462D01*
X471327Y13462D02*
X471327Y24299D01*
X470876Y28815D02*
X470876Y29718D01*
X471779Y29718D01*
X471779Y28815D01*
X470876Y28815D01*
X486822Y22493D02*
X491338Y22493D01*
X491338Y22494D02*
X491471Y22492D01*
X491603Y22486D01*
X491735Y22476D01*
X491867Y22463D01*
X491999Y22445D01*
X492129Y22424D01*
X492260Y22399D01*
X492389Y22370D01*
X492517Y22337D01*
X492645Y22301D01*
X492771Y22261D01*
X492896Y22217D01*
X493020Y22169D01*
X493142Y22118D01*
X493263Y22063D01*
X493382Y22005D01*
X493500Y21943D01*
X493615Y21878D01*
X493729Y21809D01*
X493840Y21738D01*
X493949Y21662D01*
X494056Y21584D01*
X494161Y21503D01*
X494263Y21418D01*
X494363Y21331D01*
X494460Y21241D01*
X494555Y21148D01*
X494646Y21052D01*
X494735Y20954D01*
X494821Y20853D01*
X494904Y20749D01*
X494984Y20643D01*
X495060Y20535D01*
X495134Y20425D01*
X495204Y20312D01*
X495271Y20198D01*
X495334Y20081D01*
X495394Y19963D01*
X495451Y19843D01*
X495504Y19721D01*
X495553Y19598D01*
X495599Y19474D01*
X495641Y19348D01*
X495679Y19221D01*
X495714Y19093D01*
X495745Y18964D01*
X495772Y18835D01*
X495795Y18704D01*
X495815Y18573D01*
X495830Y18441D01*
X495842Y18309D01*
X495850Y18177D01*
X495854Y18044D01*
X495854Y17912D01*
X495850Y17779D01*
X495842Y17647D01*
X495830Y17515D01*
X495815Y17383D01*
X495795Y17252D01*
X495772Y17121D01*
X495745Y16992D01*
X495714Y16863D01*
X495679Y16735D01*
X495641Y16608D01*
X495599Y16482D01*
X495553Y16358D01*
X495504Y16235D01*
X495451Y16113D01*
X495394Y15993D01*
X495334Y15875D01*
X495271Y15758D01*
X495204Y15644D01*
X495134Y15531D01*
X495060Y15421D01*
X494984Y15313D01*
X494904Y15207D01*
X494821Y15103D01*
X494735Y15002D01*
X494646Y14904D01*
X494555Y14808D01*
X494460Y14715D01*
X494363Y14625D01*
X494263Y14538D01*
X494161Y14453D01*
X494056Y14372D01*
X493949Y14294D01*
X493840Y14218D01*
X493729Y14147D01*
X493615Y14078D01*
X493500Y14013D01*
X493382Y13951D01*
X493263Y13893D01*
X493142Y13838D01*
X493020Y13787D01*
X492896Y13739D01*
X492771Y13695D01*
X492645Y13655D01*
X492517Y13619D01*
X492389Y13586D01*
X492260Y13557D01*
X492129Y13532D01*
X491999Y13511D01*
X491867Y13493D01*
X491735Y13480D01*
X491603Y13470D01*
X491471Y13464D01*
X491338Y13462D01*
X486822Y13462D01*
X486822Y29718D01*
X491338Y29718D01*
X491457Y29716D01*
X491577Y29710D01*
X491696Y29700D01*
X491814Y29686D01*
X491933Y29669D01*
X492050Y29647D01*
X492167Y29622D01*
X492282Y29592D01*
X492397Y29559D01*
X492511Y29522D01*
X492623Y29482D01*
X492734Y29437D01*
X492843Y29389D01*
X492951Y29338D01*
X493057Y29283D01*
X493161Y29224D01*
X493263Y29162D01*
X493363Y29097D01*
X493461Y29028D01*
X493557Y28956D01*
X493650Y28881D01*
X493740Y28804D01*
X493828Y28723D01*
X493913Y28639D01*
X493995Y28552D01*
X494075Y28463D01*
X494151Y28371D01*
X494225Y28277D01*
X494295Y28180D01*
X494362Y28082D01*
X494426Y27981D01*
X494486Y27877D01*
X494543Y27772D01*
X494596Y27665D01*
X494646Y27557D01*
X494692Y27447D01*
X494734Y27335D01*
X494773Y27222D01*
X494808Y27108D01*
X494839Y26993D01*
X494867Y26876D01*
X494890Y26759D01*
X494910Y26642D01*
X494926Y26523D01*
X494938Y26404D01*
X494946Y26285D01*
X494950Y26166D01*
X494950Y26046D01*
X494946Y25927D01*
X494938Y25808D01*
X494926Y25689D01*
X494910Y25570D01*
X494890Y25453D01*
X494867Y25336D01*
X494839Y25219D01*
X494808Y25104D01*
X494773Y24990D01*
X494734Y24877D01*
X494692Y24765D01*
X494646Y24655D01*
X494596Y24547D01*
X494543Y24440D01*
X494486Y24335D01*
X494426Y24231D01*
X494362Y24130D01*
X494295Y24032D01*
X494225Y23935D01*
X494151Y23841D01*
X494075Y23749D01*
X493995Y23660D01*
X493913Y23573D01*
X493828Y23489D01*
X493740Y23408D01*
X493650Y23331D01*
X493557Y23256D01*
X493461Y23184D01*
X493363Y23115D01*
X493263Y23050D01*
X493161Y22988D01*
X493057Y22929D01*
X492951Y22874D01*
X492843Y22823D01*
X492734Y22775D01*
X492623Y22730D01*
X492511Y22690D01*
X492397Y22653D01*
X492282Y22620D01*
X492167Y22590D01*
X492050Y22565D01*
X491933Y22543D01*
X491814Y22526D01*
X491696Y22512D01*
X491577Y22502D01*
X491457Y22496D01*
X491338Y22494D01*
X501582Y20687D02*
X501582Y17074D01*
X501583Y20687D02*
X501585Y20806D01*
X501591Y20926D01*
X501601Y21045D01*
X501615Y21163D01*
X501632Y21282D01*
X501654Y21399D01*
X501679Y21516D01*
X501709Y21631D01*
X501742Y21746D01*
X501779Y21860D01*
X501819Y21972D01*
X501864Y22083D01*
X501912Y22192D01*
X501963Y22300D01*
X502018Y22406D01*
X502077Y22510D01*
X502139Y22612D01*
X502204Y22712D01*
X502273Y22810D01*
X502345Y22906D01*
X502420Y22999D01*
X502497Y23089D01*
X502578Y23177D01*
X502662Y23262D01*
X502749Y23344D01*
X502838Y23424D01*
X502930Y23500D01*
X503024Y23574D01*
X503121Y23644D01*
X503219Y23711D01*
X503320Y23775D01*
X503424Y23835D01*
X503529Y23892D01*
X503636Y23945D01*
X503744Y23995D01*
X503854Y24041D01*
X503966Y24083D01*
X504079Y24122D01*
X504193Y24157D01*
X504308Y24188D01*
X504425Y24216D01*
X504542Y24239D01*
X504659Y24259D01*
X504778Y24275D01*
X504897Y24287D01*
X505016Y24295D01*
X505135Y24299D01*
X505255Y24299D01*
X505374Y24295D01*
X505493Y24287D01*
X505612Y24275D01*
X505731Y24259D01*
X505848Y24239D01*
X505965Y24216D01*
X506082Y24188D01*
X506197Y24157D01*
X506311Y24122D01*
X506424Y24083D01*
X506536Y24041D01*
X506646Y23995D01*
X506754Y23945D01*
X506861Y23892D01*
X506966Y23835D01*
X507070Y23775D01*
X507171Y23711D01*
X507269Y23644D01*
X507366Y23574D01*
X507460Y23500D01*
X507552Y23424D01*
X507641Y23344D01*
X507728Y23262D01*
X507812Y23177D01*
X507893Y23089D01*
X507970Y22999D01*
X508045Y22906D01*
X508117Y22810D01*
X508186Y22712D01*
X508251Y22612D01*
X508313Y22510D01*
X508372Y22406D01*
X508427Y22300D01*
X508478Y22192D01*
X508526Y22083D01*
X508571Y21972D01*
X508611Y21860D01*
X508648Y21746D01*
X508681Y21631D01*
X508711Y21516D01*
X508736Y21399D01*
X508758Y21282D01*
X508775Y21163D01*
X508789Y21045D01*
X508799Y20926D01*
X508805Y20806D01*
X508807Y20687D01*
X508807Y17074D01*
X508805Y16955D01*
X508799Y16835D01*
X508789Y16716D01*
X508775Y16598D01*
X508758Y16479D01*
X508736Y16362D01*
X508711Y16245D01*
X508681Y16130D01*
X508648Y16015D01*
X508611Y15901D01*
X508571Y15789D01*
X508526Y15678D01*
X508478Y15569D01*
X508427Y15461D01*
X508372Y15355D01*
X508313Y15251D01*
X508251Y15149D01*
X508186Y15049D01*
X508117Y14951D01*
X508045Y14855D01*
X507970Y14762D01*
X507893Y14672D01*
X507812Y14584D01*
X507728Y14499D01*
X507641Y14417D01*
X507552Y14337D01*
X507460Y14261D01*
X507366Y14187D01*
X507269Y14117D01*
X507171Y14050D01*
X507070Y13986D01*
X506966Y13926D01*
X506861Y13869D01*
X506754Y13816D01*
X506646Y13766D01*
X506536Y13720D01*
X506424Y13678D01*
X506311Y13639D01*
X506197Y13604D01*
X506082Y13573D01*
X505965Y13545D01*
X505848Y13522D01*
X505731Y13502D01*
X505612Y13486D01*
X505493Y13474D01*
X505374Y13466D01*
X505255Y13462D01*
X505135Y13462D01*
X505016Y13466D01*
X504897Y13474D01*
X504778Y13486D01*
X504659Y13502D01*
X504542Y13522D01*
X504425Y13545D01*
X504308Y13573D01*
X504193Y13604D01*
X504079Y13639D01*
X503966Y13678D01*
X503854Y13720D01*
X503744Y13766D01*
X503636Y13816D01*
X503529Y13869D01*
X503424Y13926D01*
X503320Y13986D01*
X503219Y14050D01*
X503121Y14117D01*
X503024Y14187D01*
X502930Y14261D01*
X502838Y14337D01*
X502749Y14417D01*
X502662Y14499D01*
X502578Y14584D01*
X502497Y14672D01*
X502420Y14762D01*
X502345Y14855D01*
X502273Y14951D01*
X502204Y15049D01*
X502139Y15149D01*
X502077Y15251D01*
X502018Y15355D01*
X501963Y15461D01*
X501912Y15569D01*
X501864Y15678D01*
X501819Y15789D01*
X501779Y15901D01*
X501742Y16015D01*
X501709Y16130D01*
X501679Y16245D01*
X501654Y16362D01*
X501632Y16479D01*
X501615Y16598D01*
X501601Y16716D01*
X501591Y16835D01*
X501585Y16955D01*
X501583Y17074D01*
X518217Y19784D02*
X522281Y19784D01*
X518217Y19784D02*
X518105Y19782D01*
X517994Y19776D01*
X517883Y19766D01*
X517772Y19753D01*
X517662Y19735D01*
X517553Y19713D01*
X517444Y19688D01*
X517336Y19659D01*
X517230Y19626D01*
X517124Y19589D01*
X517020Y19549D01*
X516918Y19505D01*
X516817Y19457D01*
X516718Y19406D01*
X516620Y19351D01*
X516525Y19293D01*
X516432Y19232D01*
X516341Y19167D01*
X516252Y19099D01*
X516166Y19028D01*
X516083Y18955D01*
X516002Y18878D01*
X515923Y18798D01*
X515848Y18716D01*
X515776Y18631D01*
X515706Y18544D01*
X515640Y18454D01*
X515577Y18362D01*
X515517Y18267D01*
X515461Y18171D01*
X515408Y18073D01*
X515359Y17973D01*
X515313Y17871D01*
X515271Y17768D01*
X515232Y17663D01*
X515197Y17557D01*
X515166Y17450D01*
X515139Y17342D01*
X515115Y17233D01*
X515096Y17123D01*
X515080Y17013D01*
X515068Y16902D01*
X515060Y16790D01*
X515056Y16679D01*
X515056Y16567D01*
X515060Y16456D01*
X515068Y16344D01*
X515080Y16233D01*
X515096Y16123D01*
X515115Y16013D01*
X515139Y15904D01*
X515166Y15796D01*
X515197Y15689D01*
X515232Y15583D01*
X515271Y15478D01*
X515313Y15375D01*
X515359Y15273D01*
X515408Y15173D01*
X515461Y15075D01*
X515517Y14979D01*
X515577Y14884D01*
X515640Y14792D01*
X515706Y14702D01*
X515776Y14615D01*
X515848Y14530D01*
X515923Y14448D01*
X516002Y14368D01*
X516083Y14291D01*
X516166Y14218D01*
X516252Y14147D01*
X516341Y14079D01*
X516432Y14014D01*
X516525Y13953D01*
X516620Y13895D01*
X516718Y13840D01*
X516817Y13789D01*
X516918Y13741D01*
X517020Y13697D01*
X517124Y13657D01*
X517230Y13620D01*
X517336Y13587D01*
X517444Y13558D01*
X517553Y13533D01*
X517662Y13511D01*
X517772Y13493D01*
X517883Y13480D01*
X517994Y13470D01*
X518105Y13464D01*
X518217Y13462D01*
X522281Y13462D01*
X522281Y21590D01*
X522279Y21691D01*
X522273Y21792D01*
X522264Y21893D01*
X522251Y21994D01*
X522234Y22094D01*
X522213Y22193D01*
X522189Y22291D01*
X522161Y22388D01*
X522129Y22485D01*
X522094Y22580D01*
X522055Y22673D01*
X522013Y22765D01*
X521967Y22856D01*
X521918Y22945D01*
X521866Y23031D01*
X521810Y23116D01*
X521752Y23199D01*
X521690Y23279D01*
X521625Y23357D01*
X521558Y23433D01*
X521488Y23506D01*
X521415Y23576D01*
X521339Y23643D01*
X521261Y23708D01*
X521181Y23770D01*
X521098Y23828D01*
X521013Y23884D01*
X520927Y23936D01*
X520838Y23985D01*
X520747Y24031D01*
X520655Y24073D01*
X520562Y24112D01*
X520467Y24147D01*
X520370Y24179D01*
X520273Y24207D01*
X520175Y24231D01*
X520076Y24252D01*
X519976Y24269D01*
X519875Y24282D01*
X519774Y24291D01*
X519673Y24297D01*
X519572Y24299D01*
X515959Y24299D01*
X529804Y24299D02*
X529804Y13462D01*
X529804Y24299D02*
X535222Y24299D01*
X535222Y22493D01*
X547291Y29718D02*
X547291Y13462D01*
X542775Y13462D01*
X542674Y13464D01*
X542573Y13470D01*
X542472Y13479D01*
X542371Y13492D01*
X542271Y13509D01*
X542172Y13530D01*
X542074Y13554D01*
X541977Y13582D01*
X541880Y13614D01*
X541785Y13649D01*
X541692Y13688D01*
X541600Y13730D01*
X541509Y13776D01*
X541421Y13825D01*
X541334Y13877D01*
X541249Y13933D01*
X541166Y13991D01*
X541086Y14053D01*
X541008Y14118D01*
X540932Y14185D01*
X540859Y14255D01*
X540789Y14328D01*
X540722Y14404D01*
X540657Y14482D01*
X540595Y14562D01*
X540537Y14645D01*
X540481Y14730D01*
X540429Y14816D01*
X540380Y14905D01*
X540334Y14996D01*
X540292Y15088D01*
X540253Y15181D01*
X540218Y15276D01*
X540186Y15373D01*
X540158Y15470D01*
X540134Y15568D01*
X540113Y15667D01*
X540096Y15767D01*
X540083Y15868D01*
X540074Y15969D01*
X540068Y16070D01*
X540066Y16171D01*
X540066Y21590D01*
X540068Y21691D01*
X540074Y21792D01*
X540083Y21893D01*
X540096Y21994D01*
X540113Y22094D01*
X540134Y22193D01*
X540158Y22291D01*
X540186Y22388D01*
X540218Y22485D01*
X540253Y22580D01*
X540292Y22673D01*
X540334Y22765D01*
X540380Y22856D01*
X540429Y22944D01*
X540481Y23031D01*
X540537Y23116D01*
X540595Y23199D01*
X540657Y23279D01*
X540722Y23357D01*
X540789Y23433D01*
X540859Y23506D01*
X540932Y23576D01*
X541008Y23643D01*
X541086Y23708D01*
X541166Y23770D01*
X541249Y23828D01*
X541334Y23884D01*
X541421Y23936D01*
X541509Y23985D01*
X541600Y24031D01*
X541692Y24073D01*
X541785Y24112D01*
X541880Y24147D01*
X541977Y24179D01*
X542074Y24207D01*
X542172Y24231D01*
X542271Y24252D01*
X542371Y24269D01*
X542472Y24282D01*
X542573Y24291D01*
X542674Y24297D01*
X542775Y24299D01*
X547291Y24299D01*
X561780Y29718D02*
X567199Y13462D01*
X572617Y29718D01*
X578314Y26106D02*
X582830Y29718D01*
X582830Y13462D01*
X587345Y13462D02*
X578314Y13462D01*
X593320Y13462D02*
X593320Y14365D01*
X594223Y14365D01*
X594223Y13462D01*
X593320Y13462D01*
X600198Y26106D02*
X604714Y29718D01*
X604714Y13462D01*
X609229Y13462D02*
X600198Y13462D01*
X652535Y470380D02*
X653974Y470380D01*
X653974Y465582D01*
X651095Y465582D01*
X651009Y465584D01*
X650923Y465590D01*
X650837Y465599D01*
X650752Y465613D01*
X650668Y465630D01*
X650584Y465651D01*
X650502Y465676D01*
X650421Y465704D01*
X650341Y465736D01*
X650262Y465772D01*
X650186Y465811D01*
X650111Y465854D01*
X650038Y465899D01*
X649967Y465948D01*
X649899Y466001D01*
X649832Y466056D01*
X649769Y466114D01*
X649708Y466175D01*
X649650Y466238D01*
X649595Y466305D01*
X649542Y466373D01*
X649493Y466444D01*
X649448Y466517D01*
X649405Y466592D01*
X649366Y466668D01*
X649330Y466747D01*
X649298Y466827D01*
X649270Y466908D01*
X649245Y466990D01*
X649224Y467074D01*
X649207Y467158D01*
X649193Y467243D01*
X649184Y467329D01*
X649178Y467415D01*
X649176Y467501D01*
X649176Y472299D01*
X649178Y472385D01*
X649184Y472471D01*
X649193Y472557D01*
X649207Y472642D01*
X649224Y472726D01*
X649245Y472810D01*
X649270Y472892D01*
X649298Y472973D01*
X649330Y473053D01*
X649366Y473132D01*
X649405Y473208D01*
X649448Y473283D01*
X649493Y473356D01*
X649542Y473427D01*
X649595Y473495D01*
X649650Y473562D01*
X649708Y473625D01*
X649769Y473686D01*
X649832Y473744D01*
X649899Y473799D01*
X649967Y473851D01*
X650038Y473901D01*
X650111Y473946D01*
X650186Y473989D01*
X650262Y474028D01*
X650341Y474064D01*
X650421Y474096D01*
X650502Y474124D01*
X650584Y474149D01*
X650668Y474170D01*
X650752Y474187D01*
X650837Y474201D01*
X650923Y474210D01*
X651009Y474216D01*
X651095Y474218D01*
X653974Y474218D01*
X658930Y474218D02*
X658930Y465582D01*
X663727Y465582D02*
X658930Y474218D01*
X663727Y474218D02*
X663727Y465582D01*
X668683Y465582D02*
X668683Y474218D01*
X671082Y474218D01*
X671179Y474216D01*
X671275Y474210D01*
X671371Y474201D01*
X671467Y474187D01*
X671562Y474170D01*
X671656Y474148D01*
X671749Y474123D01*
X671842Y474095D01*
X671933Y474062D01*
X672022Y474026D01*
X672110Y473986D01*
X672197Y473943D01*
X672282Y473897D01*
X672364Y473847D01*
X672445Y473793D01*
X672523Y473737D01*
X672599Y473677D01*
X672673Y473615D01*
X672744Y473549D01*
X672812Y473481D01*
X672878Y473410D01*
X672940Y473336D01*
X673000Y473260D01*
X673056Y473182D01*
X673110Y473101D01*
X673160Y473019D01*
X673206Y472934D01*
X673249Y472847D01*
X673289Y472759D01*
X673325Y472670D01*
X673358Y472579D01*
X673386Y472486D01*
X673411Y472393D01*
X673433Y472299D01*
X673450Y472204D01*
X673464Y472108D01*
X673473Y472012D01*
X673479Y471916D01*
X673481Y471819D01*
X673481Y467981D01*
X673479Y467884D01*
X673473Y467788D01*
X673464Y467692D01*
X673450Y467596D01*
X673433Y467501D01*
X673411Y467407D01*
X673386Y467314D01*
X673358Y467221D01*
X673325Y467130D01*
X673289Y467041D01*
X673249Y466953D01*
X673206Y466866D01*
X673160Y466782D01*
X673110Y466699D01*
X673056Y466618D01*
X673000Y466540D01*
X672940Y466464D01*
X672878Y466390D01*
X672812Y466319D01*
X672744Y466251D01*
X672673Y466185D01*
X672599Y466123D01*
X672523Y466063D01*
X672445Y466007D01*
X672364Y465953D01*
X672282Y465903D01*
X672197Y465857D01*
X672110Y465814D01*
X672022Y465774D01*
X671933Y465738D01*
X671842Y465705D01*
X671749Y465677D01*
X671656Y465652D01*
X671562Y465630D01*
X671467Y465613D01*
X671371Y465599D01*
X671275Y465590D01*
X671179Y465584D01*
X671082Y465582D01*
X668683Y465582D01*
X653974Y495780D02*
X652535Y495780D01*
X653974Y495780D02*
X653974Y490982D01*
X651095Y490982D01*
X651009Y490984D01*
X650923Y490990D01*
X650837Y490999D01*
X650752Y491013D01*
X650668Y491030D01*
X650584Y491051D01*
X650502Y491076D01*
X650421Y491104D01*
X650341Y491136D01*
X650262Y491172D01*
X650186Y491211D01*
X650111Y491254D01*
X650038Y491299D01*
X649967Y491348D01*
X649899Y491401D01*
X649832Y491456D01*
X649769Y491514D01*
X649708Y491575D01*
X649650Y491638D01*
X649595Y491705D01*
X649542Y491773D01*
X649493Y491844D01*
X649448Y491917D01*
X649405Y491992D01*
X649366Y492068D01*
X649330Y492147D01*
X649298Y492227D01*
X649270Y492308D01*
X649245Y492390D01*
X649224Y492474D01*
X649207Y492558D01*
X649193Y492643D01*
X649184Y492729D01*
X649178Y492815D01*
X649176Y492901D01*
X649176Y497699D01*
X649178Y497785D01*
X649184Y497871D01*
X649193Y497957D01*
X649207Y498042D01*
X649224Y498126D01*
X649245Y498210D01*
X649270Y498292D01*
X649298Y498373D01*
X649330Y498453D01*
X649366Y498532D01*
X649405Y498608D01*
X649448Y498683D01*
X649493Y498756D01*
X649542Y498827D01*
X649595Y498895D01*
X649650Y498962D01*
X649708Y499025D01*
X649769Y499086D01*
X649832Y499144D01*
X649899Y499199D01*
X649967Y499251D01*
X650038Y499301D01*
X650111Y499346D01*
X650186Y499389D01*
X650262Y499428D01*
X650341Y499464D01*
X650421Y499496D01*
X650502Y499524D01*
X650584Y499549D01*
X650668Y499570D01*
X650752Y499587D01*
X650837Y499601D01*
X650923Y499610D01*
X651009Y499616D01*
X651095Y499618D01*
X653974Y499618D01*
X658930Y499618D02*
X658930Y490982D01*
X663727Y490982D02*
X658930Y499618D01*
X663727Y499618D02*
X663727Y490982D01*
X668683Y490982D02*
X668683Y499618D01*
X671082Y499618D01*
X671179Y499616D01*
X671275Y499610D01*
X671371Y499601D01*
X671467Y499587D01*
X671562Y499570D01*
X671656Y499548D01*
X671749Y499523D01*
X671842Y499495D01*
X671933Y499462D01*
X672022Y499426D01*
X672110Y499386D01*
X672197Y499343D01*
X672282Y499297D01*
X672364Y499247D01*
X672445Y499193D01*
X672523Y499137D01*
X672599Y499077D01*
X672673Y499015D01*
X672744Y498949D01*
X672812Y498881D01*
X672878Y498810D01*
X672940Y498736D01*
X673000Y498660D01*
X673056Y498582D01*
X673110Y498501D01*
X673160Y498419D01*
X673206Y498334D01*
X673249Y498247D01*
X673289Y498159D01*
X673325Y498070D01*
X673358Y497979D01*
X673386Y497886D01*
X673411Y497793D01*
X673433Y497699D01*
X673450Y497604D01*
X673464Y497508D01*
X673473Y497412D01*
X673479Y497316D01*
X673481Y497219D01*
X673481Y493381D01*
X673479Y493284D01*
X673473Y493188D01*
X673464Y493092D01*
X673450Y492996D01*
X673433Y492901D01*
X673411Y492807D01*
X673386Y492714D01*
X673358Y492621D01*
X673325Y492530D01*
X673289Y492441D01*
X673249Y492353D01*
X673206Y492266D01*
X673160Y492182D01*
X673110Y492099D01*
X673056Y492018D01*
X673000Y491940D01*
X672940Y491864D01*
X672878Y491790D01*
X672812Y491719D01*
X672744Y491651D01*
X672673Y491585D01*
X672599Y491523D01*
X672523Y491463D01*
X672445Y491407D01*
X672364Y491353D01*
X672282Y491303D01*
X672197Y491257D01*
X672110Y491214D01*
X672022Y491174D01*
X671933Y491138D01*
X671842Y491105D01*
X671749Y491077D01*
X671656Y491052D01*
X671562Y491030D01*
X671467Y491013D01*
X671371Y490999D01*
X671275Y490990D01*
X671179Y490984D01*
X671082Y490982D01*
X668683Y490982D01*
X654583Y443540D02*
X648826Y443540D01*
X651705Y440662D02*
X651705Y446419D01*
X659060Y440182D02*
X661938Y440182D01*
X662024Y440184D01*
X662110Y440190D01*
X662196Y440199D01*
X662281Y440213D01*
X662365Y440230D01*
X662449Y440251D01*
X662531Y440276D01*
X662612Y440304D01*
X662692Y440336D01*
X662771Y440372D01*
X662847Y440411D01*
X662922Y440454D01*
X662995Y440499D01*
X663066Y440549D01*
X663134Y440601D01*
X663201Y440656D01*
X663264Y440714D01*
X663325Y440775D01*
X663383Y440838D01*
X663438Y440905D01*
X663491Y440973D01*
X663540Y441044D01*
X663585Y441117D01*
X663628Y441192D01*
X663667Y441268D01*
X663703Y441347D01*
X663735Y441427D01*
X663763Y441508D01*
X663788Y441591D01*
X663809Y441674D01*
X663826Y441758D01*
X663840Y441843D01*
X663849Y441929D01*
X663855Y442015D01*
X663857Y442101D01*
X663857Y443061D01*
X663855Y443147D01*
X663849Y443233D01*
X663840Y443319D01*
X663826Y443404D01*
X663809Y443488D01*
X663788Y443572D01*
X663763Y443654D01*
X663735Y443735D01*
X663703Y443815D01*
X663667Y443894D01*
X663628Y443970D01*
X663585Y444045D01*
X663540Y444118D01*
X663491Y444189D01*
X663438Y444257D01*
X663383Y444324D01*
X663325Y444387D01*
X663264Y444448D01*
X663201Y444506D01*
X663134Y444561D01*
X663066Y444614D01*
X662995Y444663D01*
X662922Y444708D01*
X662847Y444751D01*
X662771Y444790D01*
X662692Y444826D01*
X662612Y444858D01*
X662531Y444886D01*
X662449Y444911D01*
X662365Y444932D01*
X662281Y444949D01*
X662196Y444963D01*
X662110Y444972D01*
X662024Y444978D01*
X661938Y444980D01*
X659060Y444980D01*
X659060Y448818D01*
X663857Y448818D01*
X667724Y448818D02*
X670602Y440182D01*
X673481Y448818D01*
X651699Y398018D02*
X651699Y389382D01*
X651699Y398018D02*
X654098Y398018D01*
X654195Y398016D01*
X654291Y398010D01*
X654387Y398001D01*
X654483Y397987D01*
X654578Y397970D01*
X654672Y397948D01*
X654765Y397923D01*
X654858Y397895D01*
X654949Y397862D01*
X655038Y397826D01*
X655126Y397786D01*
X655213Y397743D01*
X655298Y397697D01*
X655380Y397647D01*
X655461Y397593D01*
X655539Y397537D01*
X655615Y397477D01*
X655689Y397415D01*
X655760Y397349D01*
X655828Y397281D01*
X655894Y397210D01*
X655956Y397136D01*
X656016Y397060D01*
X656072Y396982D01*
X656126Y396901D01*
X656176Y396819D01*
X656222Y396734D01*
X656265Y396647D01*
X656305Y396559D01*
X656341Y396470D01*
X656374Y396379D01*
X656402Y396286D01*
X656427Y396193D01*
X656449Y396099D01*
X656466Y396004D01*
X656480Y395908D01*
X656489Y395812D01*
X656495Y395716D01*
X656497Y395619D01*
X656495Y395522D01*
X656489Y395426D01*
X656480Y395330D01*
X656466Y395234D01*
X656449Y395139D01*
X656427Y395045D01*
X656402Y394952D01*
X656374Y394859D01*
X656341Y394768D01*
X656305Y394679D01*
X656265Y394591D01*
X656222Y394504D01*
X656176Y394420D01*
X656126Y394337D01*
X656072Y394256D01*
X656016Y394178D01*
X655956Y394102D01*
X655894Y394028D01*
X655828Y393957D01*
X655760Y393889D01*
X655689Y393823D01*
X655615Y393761D01*
X655539Y393701D01*
X655461Y393645D01*
X655380Y393591D01*
X655298Y393541D01*
X655213Y393495D01*
X655126Y393452D01*
X655038Y393412D01*
X654949Y393376D01*
X654858Y393343D01*
X654765Y393315D01*
X654672Y393290D01*
X654578Y393268D01*
X654483Y393251D01*
X654387Y393237D01*
X654291Y393228D01*
X654195Y393222D01*
X654098Y393220D01*
X651699Y393220D01*
X654578Y393220D02*
X656497Y389382D01*
X663332Y389382D02*
X663418Y389384D01*
X663504Y389390D01*
X663590Y389399D01*
X663675Y389413D01*
X663759Y389430D01*
X663843Y389451D01*
X663925Y389476D01*
X664006Y389504D01*
X664086Y389536D01*
X664165Y389572D01*
X664241Y389611D01*
X664316Y389654D01*
X664389Y389699D01*
X664460Y389749D01*
X664528Y389801D01*
X664595Y389856D01*
X664658Y389914D01*
X664719Y389975D01*
X664777Y390038D01*
X664832Y390105D01*
X664885Y390173D01*
X664934Y390244D01*
X664979Y390317D01*
X665022Y390392D01*
X665061Y390468D01*
X665097Y390547D01*
X665129Y390627D01*
X665157Y390708D01*
X665182Y390790D01*
X665203Y390874D01*
X665220Y390958D01*
X665234Y391043D01*
X665243Y391129D01*
X665249Y391215D01*
X665251Y391301D01*
X663332Y389382D02*
X663209Y389384D01*
X663086Y389389D01*
X662963Y389399D01*
X662841Y389412D01*
X662719Y389429D01*
X662597Y389449D01*
X662477Y389473D01*
X662357Y389501D01*
X662238Y389532D01*
X662120Y389567D01*
X662003Y389606D01*
X661887Y389648D01*
X661773Y389694D01*
X661660Y389743D01*
X661549Y389795D01*
X661439Y389851D01*
X661331Y389910D01*
X661225Y389973D01*
X661120Y390038D01*
X661018Y390107D01*
X660918Y390179D01*
X660821Y390254D01*
X660725Y390331D01*
X660632Y390412D01*
X660541Y390495D01*
X660453Y390581D01*
X660694Y396099D02*
X660696Y396185D01*
X660702Y396271D01*
X660711Y396357D01*
X660725Y396442D01*
X660742Y396526D01*
X660763Y396610D01*
X660788Y396692D01*
X660816Y396773D01*
X660848Y396853D01*
X660884Y396932D01*
X660923Y397008D01*
X660966Y397083D01*
X661011Y397156D01*
X661060Y397227D01*
X661113Y397295D01*
X661168Y397362D01*
X661226Y397425D01*
X661287Y397486D01*
X661350Y397544D01*
X661417Y397599D01*
X661485Y397652D01*
X661556Y397701D01*
X661629Y397746D01*
X661704Y397789D01*
X661780Y397828D01*
X661859Y397864D01*
X661939Y397896D01*
X662020Y397924D01*
X662102Y397949D01*
X662186Y397970D01*
X662270Y397987D01*
X662355Y398001D01*
X662441Y398010D01*
X662527Y398016D01*
X662613Y398018D01*
X662729Y398016D01*
X662844Y398011D01*
X662960Y398001D01*
X663075Y397988D01*
X663189Y397972D01*
X663303Y397951D01*
X663417Y397927D01*
X663529Y397899D01*
X663640Y397868D01*
X663751Y397833D01*
X663860Y397795D01*
X663968Y397753D01*
X664074Y397708D01*
X664180Y397659D01*
X664283Y397607D01*
X664385Y397552D01*
X664484Y397493D01*
X664582Y397431D01*
X664678Y397366D01*
X664772Y397298D01*
X661653Y394420D02*
X661579Y394466D01*
X661506Y394516D01*
X661436Y394569D01*
X661368Y394625D01*
X661303Y394684D01*
X661240Y394746D01*
X661181Y394811D01*
X661124Y394878D01*
X661070Y394948D01*
X661020Y395020D01*
X660973Y395094D01*
X660929Y395170D01*
X660889Y395249D01*
X660853Y395329D01*
X660820Y395410D01*
X660791Y395493D01*
X660765Y395578D01*
X660743Y395663D01*
X660726Y395749D01*
X660712Y395836D01*
X660702Y395923D01*
X660696Y396011D01*
X660694Y396099D01*
X664292Y392980D02*
X664366Y392934D01*
X664439Y392884D01*
X664509Y392831D01*
X664577Y392775D01*
X664642Y392716D01*
X664705Y392654D01*
X664764Y392589D01*
X664821Y392522D01*
X664875Y392452D01*
X664925Y392380D01*
X664972Y392306D01*
X665016Y392230D01*
X665056Y392151D01*
X665092Y392071D01*
X665125Y391990D01*
X665154Y391907D01*
X665180Y391822D01*
X665202Y391737D01*
X665219Y391651D01*
X665233Y391564D01*
X665243Y391477D01*
X665249Y391389D01*
X665251Y391301D01*
X664292Y392980D02*
X661653Y394420D01*
X671082Y398018D02*
X671082Y389382D01*
X668683Y398018D02*
X673481Y398018D01*
X656147Y516382D02*
X653268Y525018D01*
X659026Y525018D02*
X656147Y516382D01*
X663462Y516382D02*
X663462Y525018D01*
X662503Y516382D02*
X664422Y516382D01*
X664422Y525018D02*
X662503Y525018D01*
X668683Y525018D02*
X668683Y516382D01*
X673481Y516382D02*
X668683Y525018D01*
X673481Y525018D02*
X673481Y516382D01*
X654482Y418140D02*
X648725Y418140D01*
X651603Y415262D02*
X651603Y421019D01*
X658958Y414782D02*
X661357Y414782D01*
X661454Y414784D01*
X661550Y414790D01*
X661646Y414799D01*
X661742Y414813D01*
X661837Y414830D01*
X661931Y414852D01*
X662024Y414877D01*
X662117Y414905D01*
X662208Y414938D01*
X662297Y414974D01*
X662385Y415014D01*
X662472Y415057D01*
X662557Y415103D01*
X662639Y415153D01*
X662720Y415207D01*
X662798Y415263D01*
X662874Y415323D01*
X662948Y415385D01*
X663019Y415451D01*
X663087Y415519D01*
X663153Y415590D01*
X663215Y415664D01*
X663275Y415740D01*
X663331Y415818D01*
X663385Y415899D01*
X663435Y415982D01*
X663481Y416066D01*
X663524Y416153D01*
X663564Y416241D01*
X663600Y416330D01*
X663633Y416421D01*
X663661Y416514D01*
X663686Y416607D01*
X663708Y416701D01*
X663725Y416796D01*
X663739Y416892D01*
X663748Y416988D01*
X663754Y417084D01*
X663756Y417181D01*
X663754Y417278D01*
X663748Y417374D01*
X663739Y417470D01*
X663725Y417566D01*
X663708Y417661D01*
X663686Y417755D01*
X663661Y417848D01*
X663633Y417941D01*
X663600Y418032D01*
X663564Y418121D01*
X663524Y418209D01*
X663481Y418296D01*
X663435Y418381D01*
X663385Y418463D01*
X663331Y418544D01*
X663275Y418622D01*
X663215Y418698D01*
X663153Y418772D01*
X663087Y418843D01*
X663019Y418911D01*
X662948Y418977D01*
X662874Y419039D01*
X662798Y419099D01*
X662720Y419155D01*
X662639Y419209D01*
X662557Y419259D01*
X662472Y419305D01*
X662385Y419348D01*
X662297Y419388D01*
X662208Y419424D01*
X662117Y419457D01*
X662024Y419485D01*
X661931Y419510D01*
X661837Y419532D01*
X661742Y419549D01*
X661646Y419563D01*
X661550Y419572D01*
X661454Y419578D01*
X661357Y419580D01*
X661837Y423418D02*
X658958Y423418D01*
X661837Y423418D02*
X661923Y423416D01*
X662009Y423410D01*
X662095Y423401D01*
X662180Y423387D01*
X662264Y423370D01*
X662348Y423349D01*
X662430Y423324D01*
X662511Y423296D01*
X662591Y423264D01*
X662670Y423228D01*
X662746Y423189D01*
X662821Y423146D01*
X662894Y423101D01*
X662965Y423052D01*
X663033Y422999D01*
X663100Y422944D01*
X663163Y422886D01*
X663224Y422825D01*
X663282Y422762D01*
X663337Y422695D01*
X663390Y422627D01*
X663439Y422556D01*
X663484Y422483D01*
X663527Y422408D01*
X663566Y422332D01*
X663602Y422253D01*
X663634Y422173D01*
X663662Y422092D01*
X663687Y422010D01*
X663708Y421926D01*
X663725Y421842D01*
X663739Y421757D01*
X663748Y421671D01*
X663754Y421585D01*
X663756Y421499D01*
X663754Y421413D01*
X663748Y421327D01*
X663739Y421241D01*
X663725Y421156D01*
X663708Y421072D01*
X663687Y420988D01*
X663662Y420906D01*
X663634Y420825D01*
X663602Y420745D01*
X663566Y420666D01*
X663527Y420590D01*
X663484Y420515D01*
X663439Y420442D01*
X663390Y420371D01*
X663337Y420303D01*
X663282Y420236D01*
X663224Y420173D01*
X663163Y420112D01*
X663100Y420054D01*
X663033Y419999D01*
X662965Y419946D01*
X662894Y419897D01*
X662821Y419852D01*
X662746Y419809D01*
X662670Y419770D01*
X662591Y419734D01*
X662511Y419702D01*
X662430Y419674D01*
X662348Y419649D01*
X662264Y419628D01*
X662180Y419611D01*
X662095Y419597D01*
X662009Y419588D01*
X661923Y419582D01*
X661837Y419580D01*
X659917Y419580D01*
X667518Y415262D02*
X667518Y414782D01*
X667518Y415262D02*
X667997Y415262D01*
X667997Y414782D01*
X667518Y414782D01*
X671760Y414782D02*
X674158Y414782D01*
X674255Y414784D01*
X674351Y414790D01*
X674447Y414799D01*
X674543Y414813D01*
X674638Y414830D01*
X674732Y414852D01*
X674825Y414877D01*
X674918Y414905D01*
X675009Y414938D01*
X675098Y414974D01*
X675186Y415014D01*
X675273Y415057D01*
X675358Y415103D01*
X675440Y415153D01*
X675521Y415207D01*
X675599Y415263D01*
X675675Y415323D01*
X675749Y415385D01*
X675820Y415451D01*
X675888Y415519D01*
X675954Y415590D01*
X676016Y415664D01*
X676076Y415740D01*
X676132Y415818D01*
X676186Y415899D01*
X676236Y415982D01*
X676282Y416066D01*
X676325Y416153D01*
X676365Y416241D01*
X676401Y416330D01*
X676434Y416421D01*
X676462Y416514D01*
X676487Y416607D01*
X676509Y416701D01*
X676526Y416796D01*
X676540Y416892D01*
X676549Y416988D01*
X676555Y417084D01*
X676557Y417181D01*
X676555Y417278D01*
X676549Y417374D01*
X676540Y417470D01*
X676526Y417566D01*
X676509Y417661D01*
X676487Y417755D01*
X676462Y417848D01*
X676434Y417941D01*
X676401Y418032D01*
X676365Y418121D01*
X676325Y418209D01*
X676282Y418296D01*
X676236Y418381D01*
X676186Y418463D01*
X676132Y418544D01*
X676076Y418622D01*
X676016Y418698D01*
X675954Y418772D01*
X675888Y418843D01*
X675820Y418911D01*
X675749Y418977D01*
X675675Y419039D01*
X675599Y419099D01*
X675521Y419155D01*
X675440Y419209D01*
X675358Y419259D01*
X675273Y419305D01*
X675186Y419348D01*
X675098Y419388D01*
X675009Y419424D01*
X674918Y419457D01*
X674825Y419485D01*
X674732Y419510D01*
X674638Y419532D01*
X674543Y419549D01*
X674447Y419563D01*
X674351Y419572D01*
X674255Y419578D01*
X674158Y419580D01*
X674638Y423418D02*
X671760Y423418D01*
X674638Y423418D02*
X674724Y423416D01*
X674810Y423410D01*
X674896Y423401D01*
X674981Y423387D01*
X675065Y423370D01*
X675149Y423349D01*
X675231Y423324D01*
X675312Y423296D01*
X675392Y423264D01*
X675471Y423228D01*
X675547Y423189D01*
X675622Y423146D01*
X675695Y423101D01*
X675766Y423052D01*
X675834Y422999D01*
X675901Y422944D01*
X675964Y422886D01*
X676025Y422825D01*
X676083Y422762D01*
X676138Y422695D01*
X676191Y422627D01*
X676240Y422556D01*
X676285Y422483D01*
X676328Y422408D01*
X676367Y422332D01*
X676403Y422253D01*
X676435Y422173D01*
X676463Y422092D01*
X676488Y422010D01*
X676509Y421926D01*
X676526Y421842D01*
X676540Y421757D01*
X676549Y421671D01*
X676555Y421585D01*
X676557Y421499D01*
X676555Y421413D01*
X676549Y421327D01*
X676540Y421241D01*
X676526Y421156D01*
X676509Y421072D01*
X676488Y420988D01*
X676463Y420906D01*
X676435Y420825D01*
X676403Y420745D01*
X676367Y420666D01*
X676328Y420590D01*
X676285Y420515D01*
X676240Y420442D01*
X676191Y420371D01*
X676138Y420303D01*
X676083Y420236D01*
X676025Y420173D01*
X675964Y420112D01*
X675901Y420054D01*
X675834Y419999D01*
X675766Y419946D01*
X675695Y419897D01*
X675622Y419852D01*
X675547Y419809D01*
X675471Y419770D01*
X675392Y419734D01*
X675312Y419702D01*
X675231Y419674D01*
X675149Y419649D01*
X675065Y419628D01*
X674981Y419611D01*
X674896Y419597D01*
X674810Y419588D01*
X674724Y419582D01*
X674638Y419580D01*
X672719Y419580D01*
X680424Y423418D02*
X683302Y414782D01*
X686181Y423418D01*
X655983Y571500D02*
X655985Y571670D01*
X655991Y571840D01*
X656001Y572009D01*
X656015Y572179D01*
X656034Y572348D01*
X656056Y572516D01*
X656082Y572684D01*
X656112Y572851D01*
X656147Y573017D01*
X656185Y573183D01*
X656227Y573348D01*
X656273Y573511D01*
X656323Y573674D01*
X656377Y573835D01*
X656434Y573995D01*
X656496Y574153D01*
X656561Y574310D01*
X656630Y574465D01*
X656703Y574619D01*
X656731Y574695D01*
X656763Y574770D01*
X656798Y574844D01*
X656836Y574916D01*
X656878Y574986D01*
X656923Y575054D01*
X656971Y575120D01*
X657022Y575184D01*
X657076Y575245D01*
X657132Y575304D01*
X657192Y575360D01*
X657253Y575413D01*
X657317Y575463D01*
X657384Y575511D01*
X657452Y575555D01*
X657523Y575596D01*
X657595Y575634D01*
X657669Y575668D01*
X657744Y575699D01*
X657821Y575727D01*
X657899Y575751D01*
X657978Y575771D01*
X658058Y575788D01*
X658138Y575801D01*
X658219Y575811D01*
X658300Y575816D01*
X658382Y575818D01*
X658464Y575816D01*
X658545Y575811D01*
X658626Y575801D01*
X658706Y575788D01*
X658786Y575771D01*
X658865Y575751D01*
X658943Y575727D01*
X659020Y575699D01*
X659095Y575668D01*
X659169Y575634D01*
X659241Y575596D01*
X659312Y575555D01*
X659380Y575511D01*
X659447Y575463D01*
X659511Y575413D01*
X659572Y575360D01*
X659632Y575304D01*
X659688Y575245D01*
X659742Y575184D01*
X659793Y575120D01*
X659841Y575054D01*
X659886Y574986D01*
X659928Y574916D01*
X659966Y574844D01*
X660001Y574770D01*
X660033Y574695D01*
X660061Y574619D01*
X660134Y574465D01*
X660203Y574310D01*
X660268Y574153D01*
X660330Y573995D01*
X660387Y573835D01*
X660441Y573674D01*
X660491Y573511D01*
X660537Y573348D01*
X660579Y573183D01*
X660617Y573017D01*
X660652Y572851D01*
X660682Y572684D01*
X660708Y572516D01*
X660730Y572348D01*
X660749Y572179D01*
X660763Y572009D01*
X660773Y571840D01*
X660779Y571670D01*
X660781Y571500D01*
X655983Y571500D02*
X655985Y571330D01*
X655991Y571160D01*
X656001Y570991D01*
X656015Y570821D01*
X656034Y570652D01*
X656056Y570484D01*
X656082Y570316D01*
X656112Y570149D01*
X656147Y569983D01*
X656185Y569817D01*
X656227Y569652D01*
X656273Y569489D01*
X656323Y569327D01*
X656377Y569165D01*
X656434Y569006D01*
X656496Y568847D01*
X656561Y568690D01*
X656630Y568535D01*
X656703Y568381D01*
X656731Y568305D01*
X656763Y568230D01*
X656798Y568156D01*
X656836Y568084D01*
X656878Y568014D01*
X656923Y567946D01*
X656971Y567880D01*
X657022Y567816D01*
X657076Y567755D01*
X657132Y567696D01*
X657192Y567640D01*
X657253Y567587D01*
X657317Y567537D01*
X657384Y567489D01*
X657452Y567445D01*
X657523Y567404D01*
X657595Y567366D01*
X657669Y567332D01*
X657744Y567301D01*
X657821Y567273D01*
X657899Y567249D01*
X657978Y567229D01*
X658058Y567212D01*
X658138Y567199D01*
X658219Y567189D01*
X658300Y567184D01*
X658382Y567182D01*
X660061Y568381D02*
X660134Y568535D01*
X660203Y568690D01*
X660268Y568847D01*
X660330Y569006D01*
X660387Y569165D01*
X660441Y569327D01*
X660491Y569489D01*
X660537Y569652D01*
X660579Y569817D01*
X660617Y569983D01*
X660652Y570149D01*
X660682Y570316D01*
X660708Y570484D01*
X660730Y570652D01*
X660749Y570821D01*
X660763Y570991D01*
X660773Y571160D01*
X660779Y571330D01*
X660781Y571500D01*
X660061Y568381D02*
X660033Y568305D01*
X660001Y568230D01*
X659966Y568156D01*
X659928Y568084D01*
X659886Y568014D01*
X659841Y567946D01*
X659793Y567880D01*
X659742Y567816D01*
X659688Y567755D01*
X659632Y567696D01*
X659572Y567640D01*
X659511Y567587D01*
X659447Y567537D01*
X659380Y567489D01*
X659312Y567445D01*
X659241Y567404D01*
X659169Y567366D01*
X659095Y567332D01*
X659020Y567301D01*
X658943Y567273D01*
X658865Y567249D01*
X658786Y567229D01*
X658706Y567212D01*
X658626Y567199D01*
X658545Y567189D01*
X658464Y567184D01*
X658382Y567182D01*
X656463Y569101D02*
X660301Y573899D01*
X655983Y599299D02*
X658382Y601218D01*
X658382Y592582D01*
X655983Y592582D02*
X660781Y592582D01*
X660781Y624459D02*
X660779Y624551D01*
X660773Y624642D01*
X660764Y624733D01*
X660750Y624824D01*
X660733Y624914D01*
X660711Y625003D01*
X660686Y625091D01*
X660658Y625178D01*
X660625Y625264D01*
X660589Y625348D01*
X660550Y625431D01*
X660507Y625512D01*
X660460Y625591D01*
X660411Y625668D01*
X660358Y625743D01*
X660302Y625815D01*
X660243Y625885D01*
X660181Y625953D01*
X660116Y626018D01*
X660048Y626080D01*
X659978Y626139D01*
X659906Y626195D01*
X659831Y626248D01*
X659754Y626297D01*
X659675Y626344D01*
X659594Y626387D01*
X659511Y626426D01*
X659427Y626462D01*
X659341Y626495D01*
X659254Y626523D01*
X659166Y626548D01*
X659077Y626570D01*
X658987Y626587D01*
X658896Y626601D01*
X658805Y626610D01*
X658714Y626616D01*
X658622Y626618D01*
X658519Y626616D01*
X658417Y626610D01*
X658315Y626601D01*
X658213Y626588D01*
X658112Y626571D01*
X658011Y626550D01*
X657912Y626526D01*
X657813Y626497D01*
X657716Y626466D01*
X657619Y626430D01*
X657524Y626392D01*
X657431Y626349D01*
X657339Y626303D01*
X657249Y626254D01*
X657161Y626202D01*
X657074Y626146D01*
X656990Y626087D01*
X656909Y626026D01*
X656829Y625961D01*
X656752Y625893D01*
X656677Y625822D01*
X656606Y625749D01*
X656537Y625673D01*
X656470Y625595D01*
X656407Y625514D01*
X656347Y625431D01*
X656290Y625346D01*
X656236Y625259D01*
X656185Y625169D01*
X656138Y625078D01*
X656094Y624986D01*
X656053Y624891D01*
X656016Y624796D01*
X655983Y624699D01*
X660061Y622780D02*
X660128Y622846D01*
X660192Y622915D01*
X660253Y622986D01*
X660311Y623060D01*
X660366Y623136D01*
X660418Y623214D01*
X660467Y623294D01*
X660513Y623376D01*
X660555Y623460D01*
X660594Y623546D01*
X660629Y623633D01*
X660660Y623721D01*
X660688Y623811D01*
X660713Y623901D01*
X660734Y623993D01*
X660751Y624085D01*
X660764Y624178D01*
X660773Y624271D01*
X660779Y624365D01*
X660781Y624459D01*
X660061Y622780D02*
X655983Y617982D01*
X660781Y617982D01*
X658382Y643382D02*
X655983Y643382D01*
X658382Y643382D02*
X658479Y643384D01*
X658575Y643390D01*
X658671Y643399D01*
X658767Y643413D01*
X658862Y643430D01*
X658956Y643452D01*
X659049Y643477D01*
X659142Y643505D01*
X659233Y643538D01*
X659322Y643574D01*
X659410Y643614D01*
X659497Y643657D01*
X659582Y643703D01*
X659664Y643753D01*
X659745Y643807D01*
X659823Y643863D01*
X659899Y643923D01*
X659973Y643985D01*
X660044Y644051D01*
X660112Y644119D01*
X660178Y644190D01*
X660240Y644264D01*
X660300Y644340D01*
X660356Y644418D01*
X660410Y644499D01*
X660460Y644582D01*
X660506Y644666D01*
X660549Y644753D01*
X660589Y644841D01*
X660625Y644930D01*
X660658Y645021D01*
X660686Y645114D01*
X660711Y645207D01*
X660733Y645301D01*
X660750Y645396D01*
X660764Y645492D01*
X660773Y645588D01*
X660779Y645684D01*
X660781Y645781D01*
X660779Y645878D01*
X660773Y645974D01*
X660764Y646070D01*
X660750Y646166D01*
X660733Y646261D01*
X660711Y646355D01*
X660686Y646448D01*
X660658Y646541D01*
X660625Y646632D01*
X660589Y646721D01*
X660549Y646809D01*
X660506Y646896D01*
X660460Y646981D01*
X660410Y647063D01*
X660356Y647144D01*
X660300Y647222D01*
X660240Y647298D01*
X660178Y647372D01*
X660112Y647443D01*
X660044Y647511D01*
X659973Y647577D01*
X659899Y647639D01*
X659823Y647699D01*
X659745Y647755D01*
X659664Y647809D01*
X659582Y647859D01*
X659497Y647905D01*
X659410Y647948D01*
X659322Y647988D01*
X659233Y648024D01*
X659142Y648057D01*
X659049Y648085D01*
X658956Y648110D01*
X658862Y648132D01*
X658767Y648149D01*
X658671Y648163D01*
X658575Y648172D01*
X658479Y648178D01*
X658382Y648180D01*
X658862Y652018D02*
X655983Y652018D01*
X658862Y652018D02*
X658948Y652016D01*
X659034Y652010D01*
X659120Y652001D01*
X659205Y651987D01*
X659289Y651970D01*
X659373Y651949D01*
X659455Y651924D01*
X659536Y651896D01*
X659616Y651864D01*
X659695Y651828D01*
X659771Y651789D01*
X659846Y651746D01*
X659919Y651701D01*
X659990Y651652D01*
X660058Y651599D01*
X660125Y651544D01*
X660188Y651486D01*
X660249Y651425D01*
X660307Y651362D01*
X660362Y651295D01*
X660415Y651227D01*
X660464Y651156D01*
X660509Y651083D01*
X660552Y651008D01*
X660591Y650932D01*
X660627Y650853D01*
X660659Y650773D01*
X660687Y650692D01*
X660712Y650610D01*
X660733Y650526D01*
X660750Y650442D01*
X660764Y650357D01*
X660773Y650271D01*
X660779Y650185D01*
X660781Y650099D01*
X660779Y650013D01*
X660773Y649927D01*
X660764Y649841D01*
X660750Y649756D01*
X660733Y649672D01*
X660712Y649588D01*
X660687Y649506D01*
X660659Y649425D01*
X660627Y649345D01*
X660591Y649266D01*
X660552Y649190D01*
X660509Y649115D01*
X660464Y649042D01*
X660415Y648971D01*
X660362Y648903D01*
X660307Y648836D01*
X660249Y648773D01*
X660188Y648712D01*
X660125Y648654D01*
X660058Y648599D01*
X659990Y648546D01*
X659919Y648497D01*
X659846Y648452D01*
X659771Y648409D01*
X659695Y648370D01*
X659616Y648334D01*
X659536Y648302D01*
X659455Y648274D01*
X659373Y648249D01*
X659289Y648228D01*
X659205Y648211D01*
X659120Y648197D01*
X659034Y648188D01*
X658948Y648182D01*
X658862Y648180D01*
X656943Y648180D01*
X655983Y670701D02*
X657902Y677418D01*
X655983Y670701D02*
X660781Y670701D01*
X659342Y672620D02*
X659342Y668782D01*
X658862Y694182D02*
X655983Y694182D01*
X658862Y694182D02*
X658948Y694184D01*
X659034Y694190D01*
X659120Y694199D01*
X659205Y694213D01*
X659289Y694230D01*
X659373Y694251D01*
X659455Y694276D01*
X659536Y694304D01*
X659616Y694336D01*
X659695Y694372D01*
X659771Y694411D01*
X659846Y694454D01*
X659919Y694499D01*
X659990Y694549D01*
X660058Y694601D01*
X660125Y694656D01*
X660188Y694714D01*
X660249Y694775D01*
X660307Y694838D01*
X660362Y694905D01*
X660415Y694973D01*
X660464Y695044D01*
X660509Y695117D01*
X660552Y695192D01*
X660591Y695268D01*
X660627Y695347D01*
X660659Y695427D01*
X660687Y695508D01*
X660712Y695591D01*
X660733Y695674D01*
X660750Y695758D01*
X660764Y695843D01*
X660773Y695929D01*
X660779Y696015D01*
X660781Y696101D01*
X660781Y697061D01*
X660779Y697147D01*
X660773Y697233D01*
X660764Y697319D01*
X660750Y697404D01*
X660733Y697488D01*
X660712Y697572D01*
X660687Y697654D01*
X660659Y697735D01*
X660627Y697815D01*
X660591Y697894D01*
X660552Y697970D01*
X660509Y698045D01*
X660464Y698118D01*
X660415Y698189D01*
X660362Y698257D01*
X660307Y698324D01*
X660249Y698387D01*
X660188Y698448D01*
X660125Y698506D01*
X660058Y698561D01*
X659990Y698614D01*
X659919Y698663D01*
X659846Y698708D01*
X659771Y698751D01*
X659695Y698790D01*
X659616Y698826D01*
X659536Y698858D01*
X659455Y698886D01*
X659373Y698911D01*
X659289Y698932D01*
X659205Y698949D01*
X659120Y698963D01*
X659034Y698972D01*
X658948Y698978D01*
X658862Y698980D01*
X655983Y698980D01*
X655983Y702818D01*
X660781Y702818D01*
X1070920Y330680D02*
X1072360Y330680D01*
X1072360Y325882D01*
X1069481Y325882D01*
X1069395Y325884D01*
X1069309Y325890D01*
X1069223Y325899D01*
X1069138Y325913D01*
X1069054Y325930D01*
X1068970Y325951D01*
X1068888Y325976D01*
X1068807Y326004D01*
X1068727Y326036D01*
X1068648Y326072D01*
X1068572Y326111D01*
X1068497Y326154D01*
X1068424Y326199D01*
X1068353Y326248D01*
X1068285Y326301D01*
X1068218Y326356D01*
X1068155Y326414D01*
X1068094Y326475D01*
X1068036Y326538D01*
X1067981Y326605D01*
X1067928Y326673D01*
X1067879Y326744D01*
X1067834Y326817D01*
X1067791Y326892D01*
X1067752Y326968D01*
X1067716Y327047D01*
X1067684Y327127D01*
X1067656Y327208D01*
X1067631Y327290D01*
X1067610Y327374D01*
X1067593Y327458D01*
X1067579Y327543D01*
X1067570Y327629D01*
X1067564Y327715D01*
X1067562Y327801D01*
X1067562Y332599D01*
X1067564Y332685D01*
X1067570Y332771D01*
X1067579Y332857D01*
X1067593Y332942D01*
X1067610Y333026D01*
X1067631Y333110D01*
X1067656Y333192D01*
X1067684Y333273D01*
X1067716Y333353D01*
X1067752Y333432D01*
X1067791Y333508D01*
X1067834Y333583D01*
X1067879Y333656D01*
X1067928Y333727D01*
X1067981Y333795D01*
X1068036Y333862D01*
X1068094Y333925D01*
X1068155Y333986D01*
X1068218Y334044D01*
X1068285Y334099D01*
X1068353Y334151D01*
X1068424Y334201D01*
X1068497Y334246D01*
X1068572Y334289D01*
X1068648Y334328D01*
X1068727Y334364D01*
X1068807Y334396D01*
X1068888Y334424D01*
X1068970Y334449D01*
X1069054Y334470D01*
X1069138Y334487D01*
X1069223Y334501D01*
X1069309Y334510D01*
X1069395Y334516D01*
X1069481Y334518D01*
X1072360Y334518D01*
X1077316Y334518D02*
X1077316Y325882D01*
X1082113Y325882D02*
X1077316Y334518D01*
X1082113Y334518D02*
X1082113Y325882D01*
X1087069Y325882D02*
X1087069Y334518D01*
X1089468Y334518D01*
X1089565Y334516D01*
X1089661Y334510D01*
X1089757Y334501D01*
X1089853Y334487D01*
X1089948Y334470D01*
X1090042Y334448D01*
X1090135Y334423D01*
X1090228Y334395D01*
X1090319Y334362D01*
X1090408Y334326D01*
X1090496Y334286D01*
X1090583Y334243D01*
X1090668Y334197D01*
X1090750Y334147D01*
X1090831Y334093D01*
X1090909Y334037D01*
X1090985Y333977D01*
X1091059Y333915D01*
X1091130Y333849D01*
X1091198Y333781D01*
X1091264Y333710D01*
X1091326Y333636D01*
X1091386Y333560D01*
X1091442Y333482D01*
X1091496Y333401D01*
X1091546Y333319D01*
X1091592Y333234D01*
X1091635Y333147D01*
X1091675Y333059D01*
X1091711Y332970D01*
X1091744Y332879D01*
X1091772Y332786D01*
X1091797Y332693D01*
X1091819Y332599D01*
X1091836Y332504D01*
X1091850Y332408D01*
X1091859Y332312D01*
X1091865Y332216D01*
X1091867Y332119D01*
X1091867Y328281D01*
X1091865Y328184D01*
X1091859Y328088D01*
X1091850Y327992D01*
X1091836Y327896D01*
X1091819Y327801D01*
X1091797Y327707D01*
X1091772Y327614D01*
X1091744Y327521D01*
X1091711Y327430D01*
X1091675Y327341D01*
X1091635Y327253D01*
X1091592Y327166D01*
X1091546Y327082D01*
X1091496Y326999D01*
X1091442Y326918D01*
X1091386Y326840D01*
X1091326Y326764D01*
X1091264Y326690D01*
X1091198Y326619D01*
X1091130Y326551D01*
X1091059Y326485D01*
X1090985Y326423D01*
X1090909Y326363D01*
X1090831Y326307D01*
X1090750Y326253D01*
X1090668Y326203D01*
X1090583Y326157D01*
X1090496Y326114D01*
X1090408Y326074D01*
X1090319Y326038D01*
X1090228Y326005D01*
X1090135Y325977D01*
X1090042Y325952D01*
X1089948Y325930D01*
X1089853Y325913D01*
X1089757Y325899D01*
X1089661Y325890D01*
X1089565Y325884D01*
X1089468Y325882D01*
X1087069Y325882D01*
X1080262Y357999D02*
X1082661Y359918D01*
X1082661Y351282D01*
X1080262Y351282D02*
X1085060Y351282D01*
X1089406Y351282D02*
X1091805Y351282D01*
X1091902Y351284D01*
X1091998Y351290D01*
X1092094Y351299D01*
X1092190Y351313D01*
X1092285Y351330D01*
X1092379Y351352D01*
X1092472Y351377D01*
X1092565Y351405D01*
X1092656Y351438D01*
X1092745Y351474D01*
X1092833Y351514D01*
X1092920Y351557D01*
X1093005Y351603D01*
X1093087Y351653D01*
X1093168Y351707D01*
X1093246Y351763D01*
X1093322Y351823D01*
X1093396Y351885D01*
X1093467Y351951D01*
X1093535Y352019D01*
X1093601Y352090D01*
X1093663Y352164D01*
X1093723Y352240D01*
X1093779Y352318D01*
X1093833Y352399D01*
X1093883Y352482D01*
X1093929Y352566D01*
X1093972Y352653D01*
X1094012Y352741D01*
X1094048Y352830D01*
X1094081Y352921D01*
X1094109Y353014D01*
X1094134Y353107D01*
X1094156Y353201D01*
X1094173Y353296D01*
X1094187Y353392D01*
X1094196Y353488D01*
X1094202Y353584D01*
X1094204Y353681D01*
X1094202Y353778D01*
X1094196Y353874D01*
X1094187Y353970D01*
X1094173Y354066D01*
X1094156Y354161D01*
X1094134Y354255D01*
X1094109Y354348D01*
X1094081Y354441D01*
X1094048Y354532D01*
X1094012Y354621D01*
X1093972Y354709D01*
X1093929Y354796D01*
X1093883Y354881D01*
X1093833Y354963D01*
X1093779Y355044D01*
X1093723Y355122D01*
X1093663Y355198D01*
X1093601Y355272D01*
X1093535Y355343D01*
X1093467Y355411D01*
X1093396Y355477D01*
X1093322Y355539D01*
X1093246Y355599D01*
X1093168Y355655D01*
X1093087Y355709D01*
X1093005Y355759D01*
X1092920Y355805D01*
X1092833Y355848D01*
X1092745Y355888D01*
X1092656Y355924D01*
X1092565Y355957D01*
X1092472Y355985D01*
X1092379Y356010D01*
X1092285Y356032D01*
X1092190Y356049D01*
X1092094Y356063D01*
X1091998Y356072D01*
X1091902Y356078D01*
X1091805Y356080D01*
X1092285Y359918D02*
X1089406Y359918D01*
X1092285Y359918D02*
X1092371Y359916D01*
X1092457Y359910D01*
X1092543Y359901D01*
X1092628Y359887D01*
X1092712Y359870D01*
X1092796Y359849D01*
X1092878Y359824D01*
X1092959Y359796D01*
X1093039Y359764D01*
X1093118Y359728D01*
X1093194Y359689D01*
X1093269Y359646D01*
X1093342Y359601D01*
X1093413Y359552D01*
X1093481Y359499D01*
X1093548Y359444D01*
X1093611Y359386D01*
X1093672Y359325D01*
X1093730Y359262D01*
X1093785Y359195D01*
X1093838Y359127D01*
X1093887Y359056D01*
X1093932Y358983D01*
X1093975Y358908D01*
X1094014Y358832D01*
X1094050Y358753D01*
X1094082Y358673D01*
X1094110Y358592D01*
X1094135Y358510D01*
X1094156Y358426D01*
X1094173Y358342D01*
X1094187Y358257D01*
X1094196Y358171D01*
X1094202Y358085D01*
X1094204Y357999D01*
X1094202Y357913D01*
X1094196Y357827D01*
X1094187Y357741D01*
X1094173Y357656D01*
X1094156Y357572D01*
X1094135Y357488D01*
X1094110Y357406D01*
X1094082Y357325D01*
X1094050Y357245D01*
X1094014Y357166D01*
X1093975Y357090D01*
X1093932Y357015D01*
X1093887Y356942D01*
X1093838Y356871D01*
X1093785Y356803D01*
X1093730Y356736D01*
X1093672Y356673D01*
X1093611Y356612D01*
X1093548Y356554D01*
X1093481Y356499D01*
X1093413Y356446D01*
X1093342Y356397D01*
X1093269Y356352D01*
X1093194Y356309D01*
X1093118Y356270D01*
X1093039Y356234D01*
X1092959Y356202D01*
X1092878Y356174D01*
X1092796Y356149D01*
X1092712Y356128D01*
X1092628Y356111D01*
X1092543Y356097D01*
X1092457Y356088D01*
X1092371Y356082D01*
X1092285Y356080D01*
X1090366Y356080D01*
X1080262Y383399D02*
X1082661Y385318D01*
X1082661Y376682D01*
X1080262Y376682D02*
X1085060Y376682D01*
X1092045Y385318D02*
X1092137Y385316D01*
X1092228Y385310D01*
X1092319Y385301D01*
X1092410Y385287D01*
X1092500Y385270D01*
X1092589Y385248D01*
X1092677Y385223D01*
X1092764Y385195D01*
X1092850Y385162D01*
X1092934Y385126D01*
X1093017Y385087D01*
X1093098Y385044D01*
X1093177Y384997D01*
X1093254Y384948D01*
X1093329Y384895D01*
X1093401Y384839D01*
X1093471Y384780D01*
X1093539Y384718D01*
X1093604Y384653D01*
X1093666Y384585D01*
X1093725Y384515D01*
X1093781Y384443D01*
X1093834Y384368D01*
X1093883Y384291D01*
X1093930Y384212D01*
X1093973Y384131D01*
X1094012Y384048D01*
X1094048Y383964D01*
X1094081Y383878D01*
X1094109Y383791D01*
X1094134Y383703D01*
X1094156Y383614D01*
X1094173Y383524D01*
X1094187Y383433D01*
X1094196Y383342D01*
X1094202Y383251D01*
X1094204Y383159D01*
X1092045Y385318D02*
X1091942Y385316D01*
X1091840Y385310D01*
X1091738Y385301D01*
X1091636Y385288D01*
X1091535Y385271D01*
X1091434Y385250D01*
X1091335Y385226D01*
X1091236Y385197D01*
X1091139Y385166D01*
X1091042Y385130D01*
X1090947Y385092D01*
X1090854Y385049D01*
X1090762Y385003D01*
X1090672Y384954D01*
X1090584Y384902D01*
X1090497Y384846D01*
X1090413Y384787D01*
X1090332Y384726D01*
X1090252Y384661D01*
X1090175Y384593D01*
X1090100Y384522D01*
X1090029Y384449D01*
X1089960Y384373D01*
X1089893Y384295D01*
X1089830Y384214D01*
X1089770Y384131D01*
X1089713Y384046D01*
X1089659Y383959D01*
X1089608Y383869D01*
X1089561Y383778D01*
X1089517Y383686D01*
X1089476Y383591D01*
X1089439Y383496D01*
X1089406Y383399D01*
X1093484Y381480D02*
X1093551Y381546D01*
X1093615Y381615D01*
X1093676Y381686D01*
X1093734Y381760D01*
X1093789Y381836D01*
X1093841Y381914D01*
X1093890Y381994D01*
X1093936Y382076D01*
X1093978Y382160D01*
X1094017Y382246D01*
X1094052Y382333D01*
X1094083Y382421D01*
X1094111Y382511D01*
X1094136Y382601D01*
X1094157Y382693D01*
X1094174Y382785D01*
X1094187Y382878D01*
X1094196Y382971D01*
X1094202Y383065D01*
X1094204Y383159D01*
X1093484Y381480D02*
X1089406Y376682D01*
X1094204Y376682D01*
X1080262Y408799D02*
X1082661Y410718D01*
X1082661Y402082D01*
X1080262Y402082D02*
X1085060Y402082D01*
X1089406Y408799D02*
X1091805Y410718D01*
X1091805Y402082D01*
X1089406Y402082D02*
X1094204Y402082D01*
X1070441Y309118D02*
X1067562Y300482D01*
X1073319Y300482D02*
X1070441Y309118D01*
X1072600Y302641D02*
X1068282Y302641D01*
X1077575Y300482D02*
X1077575Y309118D01*
X1079974Y309118D01*
X1080071Y309116D01*
X1080167Y309110D01*
X1080263Y309101D01*
X1080359Y309087D01*
X1080454Y309070D01*
X1080548Y309048D01*
X1080641Y309023D01*
X1080734Y308995D01*
X1080825Y308962D01*
X1080914Y308926D01*
X1081002Y308886D01*
X1081089Y308843D01*
X1081174Y308797D01*
X1081256Y308747D01*
X1081337Y308693D01*
X1081415Y308637D01*
X1081491Y308577D01*
X1081565Y308515D01*
X1081636Y308449D01*
X1081704Y308381D01*
X1081770Y308310D01*
X1081832Y308236D01*
X1081892Y308160D01*
X1081948Y308082D01*
X1082002Y308001D01*
X1082052Y307919D01*
X1082098Y307834D01*
X1082141Y307747D01*
X1082181Y307659D01*
X1082217Y307570D01*
X1082250Y307479D01*
X1082278Y307386D01*
X1082303Y307293D01*
X1082325Y307199D01*
X1082342Y307104D01*
X1082356Y307008D01*
X1082365Y306912D01*
X1082371Y306816D01*
X1082373Y306719D01*
X1082371Y306622D01*
X1082365Y306526D01*
X1082356Y306430D01*
X1082342Y306334D01*
X1082325Y306239D01*
X1082303Y306145D01*
X1082278Y306052D01*
X1082250Y305959D01*
X1082217Y305868D01*
X1082181Y305779D01*
X1082141Y305691D01*
X1082098Y305604D01*
X1082052Y305520D01*
X1082002Y305437D01*
X1081948Y305356D01*
X1081892Y305278D01*
X1081832Y305202D01*
X1081770Y305128D01*
X1081704Y305057D01*
X1081636Y304989D01*
X1081565Y304923D01*
X1081491Y304861D01*
X1081415Y304801D01*
X1081337Y304745D01*
X1081256Y304691D01*
X1081174Y304641D01*
X1081089Y304595D01*
X1081002Y304552D01*
X1080914Y304512D01*
X1080825Y304476D01*
X1080734Y304443D01*
X1080641Y304415D01*
X1080548Y304390D01*
X1080454Y304368D01*
X1080359Y304351D01*
X1080263Y304337D01*
X1080167Y304328D01*
X1080071Y304322D01*
X1079974Y304320D01*
X1077575Y304320D01*
X1080454Y304320D02*
X1082373Y300482D01*
X1086965Y300482D02*
X1090803Y300482D01*
X1086965Y300482D02*
X1086965Y309118D01*
X1090803Y309118D01*
X1089844Y305280D02*
X1086965Y305280D01*
X1094890Y309118D02*
X1094890Y300482D01*
X1094890Y309118D02*
X1098728Y309118D01*
X1098728Y305280D02*
X1094890Y305280D01*
X1080262Y434199D02*
X1082661Y436118D01*
X1082661Y427482D01*
X1080262Y427482D02*
X1085060Y427482D01*
X1089406Y431800D02*
X1089408Y431970D01*
X1089414Y432140D01*
X1089424Y432309D01*
X1089438Y432479D01*
X1089457Y432648D01*
X1089479Y432816D01*
X1089505Y432984D01*
X1089535Y433151D01*
X1089570Y433317D01*
X1089608Y433483D01*
X1089650Y433648D01*
X1089696Y433811D01*
X1089746Y433974D01*
X1089800Y434135D01*
X1089857Y434295D01*
X1089919Y434453D01*
X1089984Y434610D01*
X1090053Y434765D01*
X1090126Y434919D01*
X1090154Y434995D01*
X1090186Y435070D01*
X1090221Y435144D01*
X1090259Y435216D01*
X1090301Y435286D01*
X1090346Y435354D01*
X1090394Y435420D01*
X1090445Y435484D01*
X1090499Y435545D01*
X1090555Y435604D01*
X1090615Y435660D01*
X1090676Y435713D01*
X1090740Y435763D01*
X1090807Y435811D01*
X1090875Y435855D01*
X1090946Y435896D01*
X1091018Y435934D01*
X1091092Y435968D01*
X1091167Y435999D01*
X1091244Y436027D01*
X1091322Y436051D01*
X1091401Y436071D01*
X1091481Y436088D01*
X1091561Y436101D01*
X1091642Y436111D01*
X1091723Y436116D01*
X1091805Y436118D01*
X1091887Y436116D01*
X1091968Y436111D01*
X1092049Y436101D01*
X1092129Y436088D01*
X1092209Y436071D01*
X1092288Y436051D01*
X1092366Y436027D01*
X1092443Y435999D01*
X1092518Y435968D01*
X1092592Y435934D01*
X1092664Y435896D01*
X1092735Y435855D01*
X1092803Y435811D01*
X1092870Y435763D01*
X1092934Y435713D01*
X1092995Y435660D01*
X1093055Y435604D01*
X1093111Y435545D01*
X1093165Y435484D01*
X1093216Y435420D01*
X1093264Y435354D01*
X1093309Y435286D01*
X1093351Y435216D01*
X1093389Y435144D01*
X1093424Y435070D01*
X1093456Y434995D01*
X1093484Y434919D01*
X1093557Y434765D01*
X1093626Y434610D01*
X1093691Y434453D01*
X1093753Y434295D01*
X1093810Y434135D01*
X1093864Y433974D01*
X1093914Y433811D01*
X1093960Y433648D01*
X1094002Y433483D01*
X1094040Y433317D01*
X1094075Y433151D01*
X1094105Y432984D01*
X1094131Y432816D01*
X1094153Y432648D01*
X1094172Y432479D01*
X1094186Y432309D01*
X1094196Y432140D01*
X1094202Y431970D01*
X1094204Y431800D01*
X1089406Y431800D02*
X1089408Y431630D01*
X1089414Y431460D01*
X1089424Y431291D01*
X1089438Y431121D01*
X1089457Y430952D01*
X1089479Y430784D01*
X1089505Y430616D01*
X1089535Y430449D01*
X1089570Y430283D01*
X1089608Y430117D01*
X1089650Y429952D01*
X1089696Y429789D01*
X1089746Y429627D01*
X1089800Y429465D01*
X1089857Y429306D01*
X1089919Y429147D01*
X1089984Y428990D01*
X1090053Y428835D01*
X1090126Y428681D01*
X1090154Y428605D01*
X1090186Y428530D01*
X1090221Y428456D01*
X1090259Y428384D01*
X1090301Y428314D01*
X1090346Y428246D01*
X1090394Y428180D01*
X1090445Y428116D01*
X1090499Y428055D01*
X1090555Y427996D01*
X1090615Y427940D01*
X1090676Y427887D01*
X1090740Y427837D01*
X1090807Y427789D01*
X1090875Y427745D01*
X1090946Y427704D01*
X1091018Y427666D01*
X1091092Y427632D01*
X1091167Y427601D01*
X1091244Y427573D01*
X1091322Y427549D01*
X1091401Y427529D01*
X1091481Y427512D01*
X1091561Y427499D01*
X1091642Y427489D01*
X1091723Y427484D01*
X1091805Y427482D01*
X1093484Y428681D02*
X1093557Y428835D01*
X1093626Y428990D01*
X1093691Y429147D01*
X1093753Y429306D01*
X1093810Y429465D01*
X1093864Y429627D01*
X1093914Y429789D01*
X1093960Y429952D01*
X1094002Y430117D01*
X1094040Y430283D01*
X1094075Y430449D01*
X1094105Y430616D01*
X1094131Y430784D01*
X1094153Y430952D01*
X1094172Y431121D01*
X1094186Y431291D01*
X1094196Y431460D01*
X1094202Y431630D01*
X1094204Y431800D01*
X1093484Y428681D02*
X1093456Y428605D01*
X1093424Y428530D01*
X1093389Y428456D01*
X1093351Y428384D01*
X1093309Y428314D01*
X1093264Y428246D01*
X1093216Y428180D01*
X1093165Y428116D01*
X1093111Y428055D01*
X1093055Y427996D01*
X1092995Y427940D01*
X1092934Y427887D01*
X1092870Y427837D01*
X1092803Y427789D01*
X1092735Y427745D01*
X1092664Y427704D01*
X1092592Y427666D01*
X1092518Y427632D01*
X1092443Y427601D01*
X1092366Y427573D01*
X1092288Y427549D01*
X1092209Y427529D01*
X1092129Y427512D01*
X1092049Y427499D01*
X1091968Y427489D01*
X1091887Y427484D01*
X1091805Y427482D01*
X1089886Y429401D02*
X1093724Y434199D01*
X1094881Y456720D02*
X1097760Y456720D01*
X1094881Y456720D02*
X1094795Y456722D01*
X1094709Y456728D01*
X1094623Y456737D01*
X1094538Y456751D01*
X1094454Y456768D01*
X1094370Y456789D01*
X1094288Y456814D01*
X1094207Y456842D01*
X1094127Y456874D01*
X1094048Y456910D01*
X1093972Y456949D01*
X1093897Y456992D01*
X1093824Y457037D01*
X1093753Y457086D01*
X1093685Y457139D01*
X1093618Y457194D01*
X1093555Y457252D01*
X1093494Y457313D01*
X1093436Y457376D01*
X1093381Y457443D01*
X1093328Y457511D01*
X1093279Y457582D01*
X1093234Y457655D01*
X1093191Y457730D01*
X1093152Y457806D01*
X1093116Y457885D01*
X1093084Y457965D01*
X1093056Y458046D01*
X1093031Y458128D01*
X1093010Y458212D01*
X1092993Y458296D01*
X1092979Y458381D01*
X1092970Y458467D01*
X1092964Y458553D01*
X1092962Y458639D01*
X1092962Y459119D01*
X1092964Y459216D01*
X1092970Y459312D01*
X1092979Y459408D01*
X1092993Y459504D01*
X1093010Y459599D01*
X1093032Y459693D01*
X1093057Y459786D01*
X1093085Y459879D01*
X1093118Y459970D01*
X1093154Y460059D01*
X1093194Y460147D01*
X1093237Y460234D01*
X1093283Y460319D01*
X1093333Y460401D01*
X1093387Y460482D01*
X1093443Y460560D01*
X1093503Y460636D01*
X1093565Y460710D01*
X1093631Y460781D01*
X1093699Y460849D01*
X1093770Y460915D01*
X1093844Y460977D01*
X1093920Y461037D01*
X1093998Y461093D01*
X1094079Y461147D01*
X1094162Y461197D01*
X1094246Y461243D01*
X1094333Y461286D01*
X1094421Y461326D01*
X1094510Y461362D01*
X1094601Y461395D01*
X1094694Y461423D01*
X1094787Y461448D01*
X1094881Y461470D01*
X1094976Y461487D01*
X1095072Y461501D01*
X1095168Y461510D01*
X1095264Y461516D01*
X1095361Y461518D01*
X1095458Y461516D01*
X1095554Y461510D01*
X1095650Y461501D01*
X1095746Y461487D01*
X1095841Y461470D01*
X1095935Y461448D01*
X1096028Y461423D01*
X1096121Y461395D01*
X1096212Y461362D01*
X1096301Y461326D01*
X1096389Y461286D01*
X1096476Y461243D01*
X1096561Y461197D01*
X1096643Y461147D01*
X1096724Y461093D01*
X1096802Y461037D01*
X1096878Y460977D01*
X1096952Y460915D01*
X1097023Y460849D01*
X1097091Y460781D01*
X1097157Y460710D01*
X1097219Y460636D01*
X1097279Y460560D01*
X1097335Y460482D01*
X1097389Y460401D01*
X1097439Y460319D01*
X1097485Y460234D01*
X1097528Y460147D01*
X1097568Y460059D01*
X1097604Y459970D01*
X1097637Y459879D01*
X1097665Y459786D01*
X1097690Y459693D01*
X1097712Y459599D01*
X1097729Y459504D01*
X1097743Y459408D01*
X1097752Y459312D01*
X1097758Y459216D01*
X1097760Y459119D01*
X1097760Y456720D01*
X1097758Y456597D01*
X1097752Y456474D01*
X1097742Y456351D01*
X1097728Y456229D01*
X1097711Y456107D01*
X1097689Y455986D01*
X1097664Y455866D01*
X1097634Y455746D01*
X1097601Y455628D01*
X1097564Y455511D01*
X1097524Y455394D01*
X1097480Y455280D01*
X1097432Y455166D01*
X1097380Y455055D01*
X1097325Y454945D01*
X1097266Y454837D01*
X1097204Y454730D01*
X1097139Y454626D01*
X1097070Y454524D01*
X1096998Y454424D01*
X1096923Y454327D01*
X1096844Y454232D01*
X1096763Y454140D01*
X1096679Y454050D01*
X1096592Y453963D01*
X1096502Y453879D01*
X1096410Y453798D01*
X1096315Y453719D01*
X1096218Y453644D01*
X1096118Y453572D01*
X1096016Y453503D01*
X1095912Y453438D01*
X1095805Y453376D01*
X1095697Y453317D01*
X1095587Y453262D01*
X1095476Y453210D01*
X1095362Y453163D01*
X1095248Y453118D01*
X1095131Y453078D01*
X1095014Y453041D01*
X1094896Y453008D01*
X1094776Y452978D01*
X1094656Y452953D01*
X1094535Y452931D01*
X1094413Y452914D01*
X1094291Y452900D01*
X1094168Y452890D01*
X1094045Y452884D01*
X1093922Y452882D01*
X1092962Y480681D02*
X1092964Y480778D01*
X1092970Y480874D01*
X1092979Y480970D01*
X1092993Y481066D01*
X1093010Y481161D01*
X1093032Y481255D01*
X1093057Y481348D01*
X1093085Y481441D01*
X1093118Y481532D01*
X1093154Y481621D01*
X1093194Y481709D01*
X1093237Y481796D01*
X1093283Y481881D01*
X1093333Y481963D01*
X1093387Y482044D01*
X1093443Y482122D01*
X1093503Y482198D01*
X1093565Y482272D01*
X1093631Y482343D01*
X1093699Y482411D01*
X1093770Y482477D01*
X1093844Y482539D01*
X1093920Y482599D01*
X1093998Y482655D01*
X1094079Y482709D01*
X1094162Y482759D01*
X1094246Y482805D01*
X1094333Y482848D01*
X1094421Y482888D01*
X1094510Y482924D01*
X1094601Y482957D01*
X1094694Y482985D01*
X1094787Y483010D01*
X1094881Y483032D01*
X1094976Y483049D01*
X1095072Y483063D01*
X1095168Y483072D01*
X1095264Y483078D01*
X1095361Y483080D01*
X1095458Y483078D01*
X1095554Y483072D01*
X1095650Y483063D01*
X1095746Y483049D01*
X1095841Y483032D01*
X1095935Y483010D01*
X1096028Y482985D01*
X1096121Y482957D01*
X1096212Y482924D01*
X1096301Y482888D01*
X1096389Y482848D01*
X1096476Y482805D01*
X1096561Y482759D01*
X1096643Y482709D01*
X1096724Y482655D01*
X1096802Y482599D01*
X1096878Y482539D01*
X1096952Y482477D01*
X1097023Y482411D01*
X1097091Y482343D01*
X1097157Y482272D01*
X1097219Y482198D01*
X1097279Y482122D01*
X1097335Y482044D01*
X1097389Y481963D01*
X1097439Y481881D01*
X1097485Y481796D01*
X1097528Y481709D01*
X1097568Y481621D01*
X1097604Y481532D01*
X1097637Y481441D01*
X1097665Y481348D01*
X1097690Y481255D01*
X1097712Y481161D01*
X1097729Y481066D01*
X1097743Y480970D01*
X1097752Y480874D01*
X1097758Y480778D01*
X1097760Y480681D01*
X1097758Y480584D01*
X1097752Y480488D01*
X1097743Y480392D01*
X1097729Y480296D01*
X1097712Y480201D01*
X1097690Y480107D01*
X1097665Y480014D01*
X1097637Y479921D01*
X1097604Y479830D01*
X1097568Y479741D01*
X1097528Y479653D01*
X1097485Y479566D01*
X1097439Y479482D01*
X1097389Y479399D01*
X1097335Y479318D01*
X1097279Y479240D01*
X1097219Y479164D01*
X1097157Y479090D01*
X1097091Y479019D01*
X1097023Y478951D01*
X1096952Y478885D01*
X1096878Y478823D01*
X1096802Y478763D01*
X1096724Y478707D01*
X1096643Y478653D01*
X1096561Y478603D01*
X1096476Y478557D01*
X1096389Y478514D01*
X1096301Y478474D01*
X1096212Y478438D01*
X1096121Y478405D01*
X1096028Y478377D01*
X1095935Y478352D01*
X1095841Y478330D01*
X1095746Y478313D01*
X1095650Y478299D01*
X1095554Y478290D01*
X1095458Y478284D01*
X1095361Y478282D01*
X1095264Y478284D01*
X1095168Y478290D01*
X1095072Y478299D01*
X1094976Y478313D01*
X1094881Y478330D01*
X1094787Y478352D01*
X1094694Y478377D01*
X1094601Y478405D01*
X1094510Y478438D01*
X1094421Y478474D01*
X1094333Y478514D01*
X1094246Y478557D01*
X1094162Y478603D01*
X1094079Y478653D01*
X1093998Y478707D01*
X1093920Y478763D01*
X1093844Y478823D01*
X1093770Y478885D01*
X1093699Y478951D01*
X1093631Y479019D01*
X1093565Y479090D01*
X1093503Y479164D01*
X1093443Y479240D01*
X1093387Y479318D01*
X1093333Y479399D01*
X1093283Y479482D01*
X1093237Y479566D01*
X1093194Y479653D01*
X1093154Y479741D01*
X1093118Y479830D01*
X1093085Y479921D01*
X1093057Y480014D01*
X1093032Y480107D01*
X1093010Y480201D01*
X1092993Y480296D01*
X1092979Y480392D01*
X1092970Y480488D01*
X1092964Y480584D01*
X1092962Y480681D01*
X1093442Y484999D02*
X1093444Y485085D01*
X1093450Y485171D01*
X1093459Y485257D01*
X1093473Y485342D01*
X1093490Y485426D01*
X1093511Y485510D01*
X1093536Y485592D01*
X1093564Y485673D01*
X1093596Y485753D01*
X1093632Y485832D01*
X1093671Y485908D01*
X1093714Y485983D01*
X1093759Y486056D01*
X1093808Y486127D01*
X1093861Y486195D01*
X1093916Y486262D01*
X1093974Y486325D01*
X1094035Y486386D01*
X1094098Y486444D01*
X1094165Y486499D01*
X1094233Y486552D01*
X1094304Y486601D01*
X1094377Y486646D01*
X1094452Y486689D01*
X1094528Y486728D01*
X1094607Y486764D01*
X1094687Y486796D01*
X1094768Y486824D01*
X1094850Y486849D01*
X1094934Y486870D01*
X1095018Y486887D01*
X1095103Y486901D01*
X1095189Y486910D01*
X1095275Y486916D01*
X1095361Y486918D01*
X1095447Y486916D01*
X1095533Y486910D01*
X1095619Y486901D01*
X1095704Y486887D01*
X1095788Y486870D01*
X1095872Y486849D01*
X1095954Y486824D01*
X1096035Y486796D01*
X1096115Y486764D01*
X1096194Y486728D01*
X1096270Y486689D01*
X1096345Y486646D01*
X1096418Y486601D01*
X1096489Y486552D01*
X1096557Y486499D01*
X1096624Y486444D01*
X1096687Y486386D01*
X1096748Y486325D01*
X1096806Y486262D01*
X1096861Y486195D01*
X1096914Y486127D01*
X1096963Y486056D01*
X1097008Y485983D01*
X1097051Y485908D01*
X1097090Y485832D01*
X1097126Y485753D01*
X1097158Y485673D01*
X1097186Y485592D01*
X1097211Y485510D01*
X1097232Y485426D01*
X1097249Y485342D01*
X1097263Y485257D01*
X1097272Y485171D01*
X1097278Y485085D01*
X1097280Y484999D01*
X1097278Y484913D01*
X1097272Y484827D01*
X1097263Y484741D01*
X1097249Y484656D01*
X1097232Y484572D01*
X1097211Y484488D01*
X1097186Y484406D01*
X1097158Y484325D01*
X1097126Y484245D01*
X1097090Y484166D01*
X1097051Y484090D01*
X1097008Y484015D01*
X1096963Y483942D01*
X1096914Y483871D01*
X1096861Y483803D01*
X1096806Y483736D01*
X1096748Y483673D01*
X1096687Y483612D01*
X1096624Y483554D01*
X1096557Y483499D01*
X1096489Y483446D01*
X1096418Y483397D01*
X1096345Y483352D01*
X1096270Y483309D01*
X1096194Y483270D01*
X1096115Y483234D01*
X1096035Y483202D01*
X1095954Y483174D01*
X1095872Y483149D01*
X1095788Y483128D01*
X1095704Y483111D01*
X1095619Y483097D01*
X1095533Y483088D01*
X1095447Y483082D01*
X1095361Y483080D01*
X1095275Y483082D01*
X1095189Y483088D01*
X1095103Y483097D01*
X1095018Y483111D01*
X1094934Y483128D01*
X1094850Y483149D01*
X1094768Y483174D01*
X1094687Y483202D01*
X1094607Y483234D01*
X1094528Y483270D01*
X1094452Y483309D01*
X1094377Y483352D01*
X1094304Y483397D01*
X1094233Y483446D01*
X1094165Y483499D01*
X1094098Y483554D01*
X1094035Y483612D01*
X1093974Y483673D01*
X1093916Y483736D01*
X1093861Y483803D01*
X1093808Y483871D01*
X1093759Y483942D01*
X1093714Y484015D01*
X1093671Y484090D01*
X1093632Y484166D01*
X1093596Y484245D01*
X1093564Y484325D01*
X1093536Y484406D01*
X1093511Y484488D01*
X1093490Y484572D01*
X1093473Y484656D01*
X1093459Y484741D01*
X1093450Y484827D01*
X1093444Y484913D01*
X1093442Y484999D01*
X1092962Y524058D02*
X1092962Y525018D01*
X1097760Y525018D01*
X1095361Y516382D01*
X1095841Y546580D02*
X1092962Y546580D01*
X1095841Y546580D02*
X1095927Y546578D01*
X1096013Y546572D01*
X1096099Y546563D01*
X1096184Y546549D01*
X1096268Y546532D01*
X1096352Y546511D01*
X1096434Y546486D01*
X1096515Y546458D01*
X1096595Y546426D01*
X1096674Y546390D01*
X1096750Y546351D01*
X1096825Y546308D01*
X1096898Y546263D01*
X1096969Y546214D01*
X1097037Y546161D01*
X1097104Y546106D01*
X1097167Y546048D01*
X1097228Y545987D01*
X1097286Y545924D01*
X1097341Y545857D01*
X1097394Y545789D01*
X1097443Y545718D01*
X1097488Y545645D01*
X1097531Y545570D01*
X1097570Y545494D01*
X1097606Y545415D01*
X1097638Y545335D01*
X1097666Y545254D01*
X1097691Y545172D01*
X1097712Y545088D01*
X1097729Y545004D01*
X1097743Y544919D01*
X1097752Y544833D01*
X1097758Y544747D01*
X1097760Y544661D01*
X1097760Y544181D01*
X1097758Y544084D01*
X1097752Y543988D01*
X1097743Y543892D01*
X1097729Y543796D01*
X1097712Y543701D01*
X1097690Y543607D01*
X1097665Y543514D01*
X1097637Y543421D01*
X1097604Y543330D01*
X1097568Y543241D01*
X1097528Y543153D01*
X1097485Y543066D01*
X1097439Y542982D01*
X1097389Y542899D01*
X1097335Y542818D01*
X1097279Y542740D01*
X1097219Y542664D01*
X1097157Y542590D01*
X1097091Y542519D01*
X1097023Y542451D01*
X1096952Y542385D01*
X1096878Y542323D01*
X1096802Y542263D01*
X1096724Y542207D01*
X1096643Y542153D01*
X1096561Y542103D01*
X1096476Y542057D01*
X1096389Y542014D01*
X1096301Y541974D01*
X1096212Y541938D01*
X1096121Y541905D01*
X1096028Y541877D01*
X1095935Y541852D01*
X1095841Y541830D01*
X1095746Y541813D01*
X1095650Y541799D01*
X1095554Y541790D01*
X1095458Y541784D01*
X1095361Y541782D01*
X1095264Y541784D01*
X1095168Y541790D01*
X1095072Y541799D01*
X1094976Y541813D01*
X1094881Y541830D01*
X1094787Y541852D01*
X1094694Y541877D01*
X1094601Y541905D01*
X1094510Y541938D01*
X1094421Y541974D01*
X1094333Y542014D01*
X1094246Y542057D01*
X1094162Y542103D01*
X1094079Y542153D01*
X1093998Y542207D01*
X1093920Y542263D01*
X1093844Y542323D01*
X1093770Y542385D01*
X1093699Y542451D01*
X1093631Y542519D01*
X1093565Y542590D01*
X1093503Y542664D01*
X1093443Y542740D01*
X1093387Y542818D01*
X1093333Y542899D01*
X1093283Y542982D01*
X1093237Y543066D01*
X1093194Y543153D01*
X1093154Y543241D01*
X1093118Y543330D01*
X1093085Y543421D01*
X1093057Y543514D01*
X1093032Y543607D01*
X1093010Y543701D01*
X1092993Y543796D01*
X1092979Y543892D01*
X1092970Y543988D01*
X1092964Y544084D01*
X1092962Y544181D01*
X1092962Y546580D01*
X1092964Y546703D01*
X1092970Y546826D01*
X1092980Y546949D01*
X1092994Y547071D01*
X1093011Y547193D01*
X1093033Y547314D01*
X1093058Y547434D01*
X1093088Y547554D01*
X1093121Y547672D01*
X1093158Y547789D01*
X1093198Y547906D01*
X1093242Y548020D01*
X1093290Y548134D01*
X1093342Y548245D01*
X1093397Y548355D01*
X1093456Y548463D01*
X1093518Y548570D01*
X1093583Y548674D01*
X1093652Y548776D01*
X1093724Y548876D01*
X1093799Y548973D01*
X1093878Y549068D01*
X1093959Y549160D01*
X1094043Y549250D01*
X1094130Y549337D01*
X1094220Y549421D01*
X1094312Y549502D01*
X1094407Y549581D01*
X1094504Y549656D01*
X1094604Y549728D01*
X1094706Y549797D01*
X1094810Y549862D01*
X1094917Y549924D01*
X1095025Y549983D01*
X1095135Y550038D01*
X1095246Y550090D01*
X1095360Y550137D01*
X1095474Y550182D01*
X1095591Y550222D01*
X1095708Y550259D01*
X1095826Y550292D01*
X1095946Y550322D01*
X1096066Y550347D01*
X1096187Y550369D01*
X1096309Y550386D01*
X1096431Y550400D01*
X1096554Y550410D01*
X1096677Y550416D01*
X1096800Y550418D01*
X1095841Y567182D02*
X1092962Y567182D01*
X1095841Y567182D02*
X1095927Y567184D01*
X1096013Y567190D01*
X1096099Y567199D01*
X1096184Y567213D01*
X1096268Y567230D01*
X1096352Y567251D01*
X1096434Y567276D01*
X1096515Y567304D01*
X1096595Y567336D01*
X1096674Y567372D01*
X1096750Y567411D01*
X1096825Y567454D01*
X1096898Y567499D01*
X1096969Y567549D01*
X1097037Y567601D01*
X1097104Y567656D01*
X1097167Y567714D01*
X1097228Y567775D01*
X1097286Y567838D01*
X1097341Y567905D01*
X1097394Y567973D01*
X1097443Y568044D01*
X1097488Y568117D01*
X1097531Y568192D01*
X1097570Y568268D01*
X1097606Y568347D01*
X1097638Y568427D01*
X1097666Y568508D01*
X1097691Y568591D01*
X1097712Y568674D01*
X1097729Y568758D01*
X1097743Y568843D01*
X1097752Y568929D01*
X1097758Y569015D01*
X1097760Y569101D01*
X1097760Y570061D01*
X1097758Y570147D01*
X1097752Y570233D01*
X1097743Y570319D01*
X1097729Y570404D01*
X1097712Y570488D01*
X1097691Y570572D01*
X1097666Y570654D01*
X1097638Y570735D01*
X1097606Y570815D01*
X1097570Y570894D01*
X1097531Y570970D01*
X1097488Y571045D01*
X1097443Y571118D01*
X1097394Y571189D01*
X1097341Y571257D01*
X1097286Y571324D01*
X1097228Y571387D01*
X1097167Y571448D01*
X1097104Y571506D01*
X1097037Y571561D01*
X1096969Y571614D01*
X1096898Y571663D01*
X1096825Y571708D01*
X1096750Y571751D01*
X1096674Y571790D01*
X1096595Y571826D01*
X1096515Y571858D01*
X1096434Y571886D01*
X1096352Y571911D01*
X1096268Y571932D01*
X1096184Y571949D01*
X1096099Y571963D01*
X1096013Y571972D01*
X1095927Y571978D01*
X1095841Y571980D01*
X1092962Y571980D01*
X1092962Y575818D01*
X1097760Y575818D01*
X1092962Y594501D02*
X1094881Y601218D01*
X1092962Y594501D02*
X1097760Y594501D01*
X1096320Y596420D02*
X1096320Y592582D01*
X1095361Y617982D02*
X1092962Y617982D01*
X1095361Y617982D02*
X1095458Y617984D01*
X1095554Y617990D01*
X1095650Y617999D01*
X1095746Y618013D01*
X1095841Y618030D01*
X1095935Y618052D01*
X1096028Y618077D01*
X1096121Y618105D01*
X1096212Y618138D01*
X1096301Y618174D01*
X1096389Y618214D01*
X1096476Y618257D01*
X1096561Y618303D01*
X1096643Y618353D01*
X1096724Y618407D01*
X1096802Y618463D01*
X1096878Y618523D01*
X1096952Y618585D01*
X1097023Y618651D01*
X1097091Y618719D01*
X1097157Y618790D01*
X1097219Y618864D01*
X1097279Y618940D01*
X1097335Y619018D01*
X1097389Y619099D01*
X1097439Y619182D01*
X1097485Y619266D01*
X1097528Y619353D01*
X1097568Y619441D01*
X1097604Y619530D01*
X1097637Y619621D01*
X1097665Y619714D01*
X1097690Y619807D01*
X1097712Y619901D01*
X1097729Y619996D01*
X1097743Y620092D01*
X1097752Y620188D01*
X1097758Y620284D01*
X1097760Y620381D01*
X1097758Y620478D01*
X1097752Y620574D01*
X1097743Y620670D01*
X1097729Y620766D01*
X1097712Y620861D01*
X1097690Y620955D01*
X1097665Y621048D01*
X1097637Y621141D01*
X1097604Y621232D01*
X1097568Y621321D01*
X1097528Y621409D01*
X1097485Y621496D01*
X1097439Y621581D01*
X1097389Y621663D01*
X1097335Y621744D01*
X1097279Y621822D01*
X1097219Y621898D01*
X1097157Y621972D01*
X1097091Y622043D01*
X1097023Y622111D01*
X1096952Y622177D01*
X1096878Y622239D01*
X1096802Y622299D01*
X1096724Y622355D01*
X1096643Y622409D01*
X1096561Y622459D01*
X1096476Y622505D01*
X1096389Y622548D01*
X1096301Y622588D01*
X1096212Y622624D01*
X1096121Y622657D01*
X1096028Y622685D01*
X1095935Y622710D01*
X1095841Y622732D01*
X1095746Y622749D01*
X1095650Y622763D01*
X1095554Y622772D01*
X1095458Y622778D01*
X1095361Y622780D01*
X1095841Y626618D02*
X1092962Y626618D01*
X1095841Y626618D02*
X1095927Y626616D01*
X1096013Y626610D01*
X1096099Y626601D01*
X1096184Y626587D01*
X1096268Y626570D01*
X1096352Y626549D01*
X1096434Y626524D01*
X1096515Y626496D01*
X1096595Y626464D01*
X1096674Y626428D01*
X1096750Y626389D01*
X1096825Y626346D01*
X1096898Y626301D01*
X1096969Y626252D01*
X1097037Y626199D01*
X1097104Y626144D01*
X1097167Y626086D01*
X1097228Y626025D01*
X1097286Y625962D01*
X1097341Y625895D01*
X1097394Y625827D01*
X1097443Y625756D01*
X1097488Y625683D01*
X1097531Y625608D01*
X1097570Y625532D01*
X1097606Y625453D01*
X1097638Y625373D01*
X1097666Y625292D01*
X1097691Y625210D01*
X1097712Y625126D01*
X1097729Y625042D01*
X1097743Y624957D01*
X1097752Y624871D01*
X1097758Y624785D01*
X1097760Y624699D01*
X1097758Y624613D01*
X1097752Y624527D01*
X1097743Y624441D01*
X1097729Y624356D01*
X1097712Y624272D01*
X1097691Y624188D01*
X1097666Y624106D01*
X1097638Y624025D01*
X1097606Y623945D01*
X1097570Y623866D01*
X1097531Y623790D01*
X1097488Y623715D01*
X1097443Y623642D01*
X1097394Y623571D01*
X1097341Y623503D01*
X1097286Y623436D01*
X1097228Y623373D01*
X1097167Y623312D01*
X1097104Y623254D01*
X1097037Y623199D01*
X1096969Y623146D01*
X1096898Y623097D01*
X1096825Y623052D01*
X1096750Y623009D01*
X1096674Y622970D01*
X1096595Y622934D01*
X1096515Y622902D01*
X1096434Y622874D01*
X1096352Y622849D01*
X1096268Y622828D01*
X1096184Y622811D01*
X1096099Y622797D01*
X1096013Y622788D01*
X1095927Y622782D01*
X1095841Y622780D01*
X1093922Y622780D01*
X1097760Y649859D02*
X1097758Y649951D01*
X1097752Y650042D01*
X1097743Y650133D01*
X1097729Y650224D01*
X1097712Y650314D01*
X1097690Y650403D01*
X1097665Y650491D01*
X1097637Y650578D01*
X1097604Y650664D01*
X1097568Y650748D01*
X1097529Y650831D01*
X1097486Y650912D01*
X1097439Y650991D01*
X1097390Y651068D01*
X1097337Y651143D01*
X1097281Y651215D01*
X1097222Y651285D01*
X1097160Y651353D01*
X1097095Y651418D01*
X1097027Y651480D01*
X1096957Y651539D01*
X1096885Y651595D01*
X1096810Y651648D01*
X1096733Y651697D01*
X1096654Y651744D01*
X1096573Y651787D01*
X1096490Y651826D01*
X1096406Y651862D01*
X1096320Y651895D01*
X1096233Y651923D01*
X1096145Y651948D01*
X1096056Y651970D01*
X1095966Y651987D01*
X1095875Y652001D01*
X1095784Y652010D01*
X1095693Y652016D01*
X1095601Y652018D01*
X1095498Y652016D01*
X1095396Y652010D01*
X1095294Y652001D01*
X1095192Y651988D01*
X1095091Y651971D01*
X1094990Y651950D01*
X1094891Y651926D01*
X1094792Y651897D01*
X1094695Y651866D01*
X1094598Y651830D01*
X1094503Y651792D01*
X1094410Y651749D01*
X1094318Y651703D01*
X1094228Y651654D01*
X1094140Y651602D01*
X1094053Y651546D01*
X1093969Y651487D01*
X1093888Y651426D01*
X1093808Y651361D01*
X1093731Y651293D01*
X1093656Y651222D01*
X1093585Y651149D01*
X1093516Y651073D01*
X1093449Y650995D01*
X1093386Y650914D01*
X1093326Y650831D01*
X1093269Y650746D01*
X1093215Y650659D01*
X1093164Y650569D01*
X1093117Y650478D01*
X1093073Y650386D01*
X1093032Y650291D01*
X1092995Y650196D01*
X1092962Y650099D01*
X1097040Y648180D02*
X1097107Y648246D01*
X1097171Y648315D01*
X1097232Y648386D01*
X1097290Y648460D01*
X1097345Y648536D01*
X1097397Y648614D01*
X1097446Y648694D01*
X1097492Y648776D01*
X1097534Y648860D01*
X1097573Y648946D01*
X1097608Y649033D01*
X1097639Y649121D01*
X1097667Y649211D01*
X1097692Y649301D01*
X1097713Y649393D01*
X1097730Y649485D01*
X1097743Y649578D01*
X1097752Y649671D01*
X1097758Y649765D01*
X1097760Y649859D01*
X1097040Y648180D02*
X1092962Y643382D01*
X1097760Y643382D01*
X1082661Y668782D02*
X1082661Y677418D01*
X1080262Y677418D02*
X1085060Y677418D01*
X1094074Y677418D02*
X1088317Y668782D01*
X1094074Y668782D02*
X1088317Y677418D01*
X1080262Y694182D02*
X1080262Y702818D01*
X1082661Y702818D01*
X1082758Y702816D01*
X1082854Y702810D01*
X1082950Y702801D01*
X1083046Y702787D01*
X1083141Y702770D01*
X1083235Y702748D01*
X1083328Y702723D01*
X1083421Y702695D01*
X1083512Y702662D01*
X1083601Y702626D01*
X1083689Y702586D01*
X1083776Y702543D01*
X1083861Y702497D01*
X1083943Y702447D01*
X1084024Y702393D01*
X1084102Y702337D01*
X1084178Y702277D01*
X1084252Y702215D01*
X1084323Y702149D01*
X1084391Y702081D01*
X1084457Y702010D01*
X1084519Y701936D01*
X1084579Y701860D01*
X1084635Y701782D01*
X1084689Y701701D01*
X1084739Y701619D01*
X1084785Y701534D01*
X1084828Y701447D01*
X1084868Y701359D01*
X1084904Y701270D01*
X1084937Y701179D01*
X1084965Y701086D01*
X1084990Y700993D01*
X1085012Y700899D01*
X1085029Y700804D01*
X1085043Y700708D01*
X1085052Y700612D01*
X1085058Y700516D01*
X1085060Y700419D01*
X1085058Y700322D01*
X1085052Y700226D01*
X1085043Y700130D01*
X1085029Y700034D01*
X1085012Y699939D01*
X1084990Y699845D01*
X1084965Y699752D01*
X1084937Y699659D01*
X1084904Y699568D01*
X1084868Y699479D01*
X1084828Y699391D01*
X1084785Y699304D01*
X1084739Y699220D01*
X1084689Y699137D01*
X1084635Y699056D01*
X1084579Y698978D01*
X1084519Y698902D01*
X1084457Y698828D01*
X1084391Y698757D01*
X1084323Y698689D01*
X1084252Y698623D01*
X1084178Y698561D01*
X1084102Y698501D01*
X1084024Y698445D01*
X1083943Y698391D01*
X1083861Y698341D01*
X1083776Y698295D01*
X1083689Y698252D01*
X1083601Y698212D01*
X1083512Y698176D01*
X1083421Y698143D01*
X1083328Y698115D01*
X1083235Y698090D01*
X1083141Y698068D01*
X1083046Y698051D01*
X1082950Y698037D01*
X1082854Y698028D01*
X1082758Y698022D01*
X1082661Y698020D01*
X1080262Y698020D01*
X1083141Y698020D02*
X1085060Y694182D01*
X1088842Y694182D02*
X1094599Y702818D01*
X1088842Y702818D02*
X1094599Y694182D01*
X1072360Y277001D02*
X1072358Y276915D01*
X1072352Y276829D01*
X1072343Y276743D01*
X1072329Y276658D01*
X1072312Y276574D01*
X1072291Y276490D01*
X1072266Y276408D01*
X1072238Y276327D01*
X1072206Y276247D01*
X1072170Y276168D01*
X1072131Y276092D01*
X1072088Y276017D01*
X1072043Y275944D01*
X1071994Y275873D01*
X1071941Y275805D01*
X1071886Y275738D01*
X1071828Y275675D01*
X1071767Y275614D01*
X1071704Y275556D01*
X1071637Y275501D01*
X1071569Y275449D01*
X1071498Y275399D01*
X1071425Y275354D01*
X1071350Y275311D01*
X1071274Y275272D01*
X1071195Y275236D01*
X1071115Y275204D01*
X1071034Y275176D01*
X1070952Y275151D01*
X1070868Y275130D01*
X1070784Y275113D01*
X1070699Y275099D01*
X1070613Y275090D01*
X1070527Y275084D01*
X1070441Y275082D01*
X1070318Y275084D01*
X1070195Y275089D01*
X1070072Y275099D01*
X1069950Y275112D01*
X1069828Y275129D01*
X1069706Y275149D01*
X1069586Y275173D01*
X1069466Y275201D01*
X1069347Y275232D01*
X1069229Y275267D01*
X1069112Y275306D01*
X1068996Y275348D01*
X1068882Y275394D01*
X1068769Y275443D01*
X1068658Y275495D01*
X1068548Y275551D01*
X1068440Y275610D01*
X1068334Y275673D01*
X1068229Y275738D01*
X1068127Y275807D01*
X1068027Y275879D01*
X1067930Y275954D01*
X1067834Y276031D01*
X1067741Y276112D01*
X1067650Y276195D01*
X1067562Y276281D01*
X1067802Y281799D02*
X1067804Y281885D01*
X1067810Y281971D01*
X1067819Y282057D01*
X1067833Y282142D01*
X1067850Y282226D01*
X1067871Y282310D01*
X1067896Y282392D01*
X1067924Y282473D01*
X1067956Y282553D01*
X1067992Y282632D01*
X1068031Y282708D01*
X1068074Y282783D01*
X1068119Y282856D01*
X1068168Y282927D01*
X1068221Y282995D01*
X1068276Y283062D01*
X1068334Y283125D01*
X1068395Y283186D01*
X1068458Y283244D01*
X1068525Y283299D01*
X1068593Y283352D01*
X1068664Y283401D01*
X1068737Y283446D01*
X1068812Y283489D01*
X1068888Y283528D01*
X1068967Y283564D01*
X1069047Y283596D01*
X1069128Y283624D01*
X1069210Y283649D01*
X1069294Y283670D01*
X1069378Y283687D01*
X1069463Y283701D01*
X1069549Y283710D01*
X1069635Y283716D01*
X1069721Y283718D01*
X1069837Y283716D01*
X1069952Y283711D01*
X1070068Y283701D01*
X1070183Y283688D01*
X1070297Y283672D01*
X1070411Y283651D01*
X1070525Y283627D01*
X1070637Y283599D01*
X1070748Y283568D01*
X1070859Y283533D01*
X1070968Y283495D01*
X1071076Y283453D01*
X1071182Y283408D01*
X1071288Y283359D01*
X1071391Y283307D01*
X1071493Y283252D01*
X1071592Y283193D01*
X1071690Y283131D01*
X1071786Y283066D01*
X1071880Y282998D01*
X1068761Y280120D02*
X1068687Y280166D01*
X1068614Y280216D01*
X1068544Y280269D01*
X1068476Y280325D01*
X1068411Y280384D01*
X1068348Y280446D01*
X1068289Y280511D01*
X1068232Y280578D01*
X1068178Y280648D01*
X1068128Y280720D01*
X1068081Y280794D01*
X1068037Y280870D01*
X1067997Y280949D01*
X1067961Y281029D01*
X1067928Y281110D01*
X1067899Y281193D01*
X1067873Y281278D01*
X1067851Y281363D01*
X1067834Y281449D01*
X1067820Y281536D01*
X1067810Y281623D01*
X1067804Y281711D01*
X1067802Y281799D01*
X1071401Y278680D02*
X1071475Y278634D01*
X1071548Y278584D01*
X1071618Y278531D01*
X1071686Y278475D01*
X1071751Y278416D01*
X1071814Y278354D01*
X1071873Y278289D01*
X1071930Y278222D01*
X1071984Y278152D01*
X1072034Y278080D01*
X1072081Y278006D01*
X1072125Y277930D01*
X1072165Y277851D01*
X1072201Y277771D01*
X1072234Y277690D01*
X1072263Y277607D01*
X1072289Y277522D01*
X1072311Y277437D01*
X1072328Y277351D01*
X1072342Y277264D01*
X1072352Y277177D01*
X1072358Y277089D01*
X1072360Y277001D01*
X1071400Y278680D02*
X1068761Y280120D01*
X1076706Y283718D02*
X1076706Y275082D01*
X1076706Y283718D02*
X1079105Y283718D01*
X1079202Y283716D01*
X1079298Y283710D01*
X1079394Y283701D01*
X1079490Y283687D01*
X1079585Y283670D01*
X1079679Y283648D01*
X1079772Y283623D01*
X1079865Y283595D01*
X1079956Y283562D01*
X1080045Y283526D01*
X1080133Y283486D01*
X1080220Y283443D01*
X1080305Y283397D01*
X1080387Y283347D01*
X1080468Y283293D01*
X1080546Y283237D01*
X1080622Y283177D01*
X1080696Y283115D01*
X1080767Y283049D01*
X1080835Y282981D01*
X1080901Y282910D01*
X1080963Y282836D01*
X1081023Y282760D01*
X1081079Y282682D01*
X1081133Y282601D01*
X1081183Y282519D01*
X1081229Y282434D01*
X1081272Y282347D01*
X1081312Y282259D01*
X1081348Y282170D01*
X1081381Y282079D01*
X1081409Y281986D01*
X1081434Y281893D01*
X1081456Y281799D01*
X1081473Y281704D01*
X1081487Y281608D01*
X1081496Y281512D01*
X1081502Y281416D01*
X1081504Y281319D01*
X1081504Y277481D01*
X1081502Y277384D01*
X1081496Y277288D01*
X1081487Y277192D01*
X1081473Y277096D01*
X1081456Y277001D01*
X1081434Y276907D01*
X1081409Y276814D01*
X1081381Y276721D01*
X1081348Y276630D01*
X1081312Y276541D01*
X1081272Y276453D01*
X1081229Y276366D01*
X1081183Y276282D01*
X1081133Y276199D01*
X1081079Y276118D01*
X1081023Y276040D01*
X1080963Y275964D01*
X1080901Y275890D01*
X1080835Y275819D01*
X1080767Y275751D01*
X1080696Y275685D01*
X1080622Y275623D01*
X1080546Y275563D01*
X1080468Y275507D01*
X1080387Y275453D01*
X1080305Y275403D01*
X1080220Y275357D01*
X1080133Y275314D01*
X1080045Y275274D01*
X1079956Y275238D01*
X1079865Y275205D01*
X1079772Y275177D01*
X1079679Y275152D01*
X1079585Y275130D01*
X1079490Y275113D01*
X1079394Y275099D01*
X1079298Y275090D01*
X1079202Y275084D01*
X1079105Y275082D01*
X1076706Y275082D01*
X1085675Y275082D02*
X1088554Y283718D01*
X1091432Y275082D01*
X1090713Y277241D02*
X1086395Y277241D01*
X1072360Y251601D02*
X1072358Y251515D01*
X1072352Y251429D01*
X1072343Y251343D01*
X1072329Y251258D01*
X1072312Y251174D01*
X1072291Y251090D01*
X1072266Y251008D01*
X1072238Y250927D01*
X1072206Y250847D01*
X1072170Y250768D01*
X1072131Y250692D01*
X1072088Y250617D01*
X1072043Y250544D01*
X1071994Y250473D01*
X1071941Y250405D01*
X1071886Y250338D01*
X1071828Y250275D01*
X1071767Y250214D01*
X1071704Y250156D01*
X1071637Y250101D01*
X1071569Y250049D01*
X1071498Y249999D01*
X1071425Y249954D01*
X1071350Y249911D01*
X1071274Y249872D01*
X1071195Y249836D01*
X1071115Y249804D01*
X1071034Y249776D01*
X1070952Y249751D01*
X1070868Y249730D01*
X1070784Y249713D01*
X1070699Y249699D01*
X1070613Y249690D01*
X1070527Y249684D01*
X1070441Y249682D01*
X1070318Y249684D01*
X1070195Y249689D01*
X1070072Y249699D01*
X1069950Y249712D01*
X1069828Y249729D01*
X1069706Y249749D01*
X1069586Y249773D01*
X1069466Y249801D01*
X1069347Y249832D01*
X1069229Y249867D01*
X1069112Y249906D01*
X1068996Y249948D01*
X1068882Y249994D01*
X1068769Y250043D01*
X1068658Y250095D01*
X1068548Y250151D01*
X1068440Y250210D01*
X1068334Y250273D01*
X1068229Y250338D01*
X1068127Y250407D01*
X1068027Y250479D01*
X1067930Y250554D01*
X1067834Y250631D01*
X1067741Y250712D01*
X1067650Y250795D01*
X1067562Y250881D01*
X1067802Y256399D02*
X1067804Y256485D01*
X1067810Y256571D01*
X1067819Y256657D01*
X1067833Y256742D01*
X1067850Y256826D01*
X1067871Y256910D01*
X1067896Y256992D01*
X1067924Y257073D01*
X1067956Y257153D01*
X1067992Y257232D01*
X1068031Y257308D01*
X1068074Y257383D01*
X1068119Y257456D01*
X1068168Y257527D01*
X1068221Y257595D01*
X1068276Y257662D01*
X1068334Y257725D01*
X1068395Y257786D01*
X1068458Y257844D01*
X1068525Y257899D01*
X1068593Y257952D01*
X1068664Y258001D01*
X1068737Y258046D01*
X1068812Y258089D01*
X1068888Y258128D01*
X1068967Y258164D01*
X1069047Y258196D01*
X1069128Y258224D01*
X1069210Y258249D01*
X1069294Y258270D01*
X1069378Y258287D01*
X1069463Y258301D01*
X1069549Y258310D01*
X1069635Y258316D01*
X1069721Y258318D01*
X1069837Y258316D01*
X1069952Y258311D01*
X1070068Y258301D01*
X1070183Y258288D01*
X1070297Y258272D01*
X1070411Y258251D01*
X1070525Y258227D01*
X1070637Y258199D01*
X1070748Y258168D01*
X1070859Y258133D01*
X1070968Y258095D01*
X1071076Y258053D01*
X1071182Y258008D01*
X1071288Y257959D01*
X1071391Y257907D01*
X1071493Y257852D01*
X1071592Y257793D01*
X1071690Y257731D01*
X1071786Y257666D01*
X1071880Y257598D01*
X1068761Y254720D02*
X1068687Y254766D01*
X1068614Y254816D01*
X1068544Y254869D01*
X1068476Y254925D01*
X1068411Y254984D01*
X1068348Y255046D01*
X1068289Y255111D01*
X1068232Y255178D01*
X1068178Y255248D01*
X1068128Y255320D01*
X1068081Y255394D01*
X1068037Y255470D01*
X1067997Y255549D01*
X1067961Y255629D01*
X1067928Y255710D01*
X1067899Y255793D01*
X1067873Y255878D01*
X1067851Y255963D01*
X1067834Y256049D01*
X1067820Y256136D01*
X1067810Y256223D01*
X1067804Y256311D01*
X1067802Y256399D01*
X1071401Y253280D02*
X1071475Y253234D01*
X1071548Y253184D01*
X1071618Y253131D01*
X1071686Y253075D01*
X1071751Y253016D01*
X1071814Y252954D01*
X1071873Y252889D01*
X1071930Y252822D01*
X1071984Y252752D01*
X1072034Y252680D01*
X1072081Y252606D01*
X1072125Y252530D01*
X1072165Y252451D01*
X1072201Y252371D01*
X1072234Y252290D01*
X1072263Y252207D01*
X1072289Y252122D01*
X1072311Y252037D01*
X1072328Y251951D01*
X1072342Y251864D01*
X1072352Y251777D01*
X1072358Y251689D01*
X1072360Y251601D01*
X1071400Y253280D02*
X1068761Y254720D01*
X1078282Y249682D02*
X1080201Y249682D01*
X1078282Y249682D02*
X1078196Y249684D01*
X1078110Y249690D01*
X1078024Y249699D01*
X1077939Y249713D01*
X1077855Y249730D01*
X1077771Y249751D01*
X1077689Y249776D01*
X1077608Y249804D01*
X1077528Y249836D01*
X1077449Y249872D01*
X1077373Y249911D01*
X1077298Y249954D01*
X1077225Y249999D01*
X1077154Y250048D01*
X1077086Y250101D01*
X1077019Y250156D01*
X1076956Y250214D01*
X1076895Y250275D01*
X1076837Y250338D01*
X1076782Y250405D01*
X1076729Y250473D01*
X1076680Y250544D01*
X1076635Y250617D01*
X1076592Y250692D01*
X1076553Y250768D01*
X1076517Y250847D01*
X1076485Y250927D01*
X1076457Y251008D01*
X1076432Y251090D01*
X1076411Y251174D01*
X1076394Y251258D01*
X1076380Y251343D01*
X1076371Y251429D01*
X1076365Y251515D01*
X1076363Y251601D01*
X1076363Y256399D01*
X1076365Y256485D01*
X1076371Y256571D01*
X1076380Y256657D01*
X1076394Y256742D01*
X1076411Y256826D01*
X1076432Y256910D01*
X1076457Y256992D01*
X1076485Y257073D01*
X1076517Y257153D01*
X1076553Y257232D01*
X1076592Y257308D01*
X1076635Y257383D01*
X1076680Y257456D01*
X1076729Y257527D01*
X1076782Y257595D01*
X1076837Y257662D01*
X1076895Y257725D01*
X1076956Y257786D01*
X1077019Y257844D01*
X1077086Y257899D01*
X1077154Y257951D01*
X1077225Y258001D01*
X1077298Y258046D01*
X1077373Y258089D01*
X1077449Y258128D01*
X1077528Y258164D01*
X1077608Y258196D01*
X1077689Y258224D01*
X1077771Y258249D01*
X1077855Y258270D01*
X1077939Y258287D01*
X1078024Y258301D01*
X1078110Y258310D01*
X1078196Y258316D01*
X1078282Y258318D01*
X1080201Y258318D01*
X1084352Y258318D02*
X1084352Y249682D01*
X1088190Y249682D01*
X650578Y363982D02*
X650578Y372618D01*
X649619Y363982D02*
X651538Y363982D01*
X651538Y372618D02*
X649619Y372618D01*
X655495Y370219D02*
X655495Y366381D01*
X655494Y370219D02*
X655496Y370316D01*
X655502Y370412D01*
X655511Y370508D01*
X655525Y370604D01*
X655542Y370699D01*
X655564Y370793D01*
X655589Y370886D01*
X655617Y370979D01*
X655650Y371070D01*
X655686Y371159D01*
X655726Y371247D01*
X655769Y371334D01*
X655815Y371419D01*
X655865Y371501D01*
X655919Y371582D01*
X655975Y371660D01*
X656035Y371736D01*
X656097Y371810D01*
X656163Y371881D01*
X656231Y371949D01*
X656302Y372015D01*
X656376Y372077D01*
X656452Y372137D01*
X656530Y372193D01*
X656611Y372247D01*
X656694Y372297D01*
X656778Y372343D01*
X656865Y372386D01*
X656953Y372426D01*
X657042Y372462D01*
X657133Y372495D01*
X657226Y372523D01*
X657319Y372548D01*
X657413Y372570D01*
X657508Y372587D01*
X657604Y372601D01*
X657700Y372610D01*
X657796Y372616D01*
X657893Y372618D01*
X657990Y372616D01*
X658086Y372610D01*
X658182Y372601D01*
X658278Y372587D01*
X658373Y372570D01*
X658467Y372548D01*
X658560Y372523D01*
X658653Y372495D01*
X658744Y372462D01*
X658833Y372426D01*
X658921Y372386D01*
X659008Y372343D01*
X659093Y372297D01*
X659175Y372247D01*
X659256Y372193D01*
X659334Y372137D01*
X659410Y372077D01*
X659484Y372015D01*
X659555Y371949D01*
X659623Y371881D01*
X659689Y371810D01*
X659751Y371736D01*
X659811Y371660D01*
X659867Y371582D01*
X659921Y371501D01*
X659971Y371419D01*
X660017Y371334D01*
X660060Y371247D01*
X660100Y371159D01*
X660136Y371070D01*
X660169Y370979D01*
X660197Y370886D01*
X660222Y370793D01*
X660244Y370699D01*
X660261Y370604D01*
X660275Y370508D01*
X660284Y370412D01*
X660290Y370316D01*
X660292Y370219D01*
X660292Y366381D01*
X660290Y366284D01*
X660284Y366188D01*
X660275Y366092D01*
X660261Y365996D01*
X660244Y365901D01*
X660222Y365807D01*
X660197Y365714D01*
X660169Y365621D01*
X660136Y365530D01*
X660100Y365441D01*
X660060Y365353D01*
X660017Y365266D01*
X659971Y365182D01*
X659921Y365099D01*
X659867Y365018D01*
X659811Y364940D01*
X659751Y364864D01*
X659689Y364790D01*
X659623Y364719D01*
X659555Y364651D01*
X659484Y364585D01*
X659410Y364523D01*
X659334Y364463D01*
X659256Y364407D01*
X659175Y364353D01*
X659093Y364303D01*
X659008Y364257D01*
X658921Y364214D01*
X658833Y364174D01*
X658744Y364138D01*
X658653Y364105D01*
X658560Y364077D01*
X658467Y364052D01*
X658373Y364030D01*
X658278Y364013D01*
X658182Y363999D01*
X658086Y363990D01*
X657990Y363984D01*
X657893Y363982D01*
X657796Y363984D01*
X657700Y363990D01*
X657604Y363999D01*
X657508Y364013D01*
X657413Y364030D01*
X657319Y364052D01*
X657226Y364077D01*
X657133Y364105D01*
X657042Y364138D01*
X656953Y364174D01*
X656865Y364214D01*
X656778Y364257D01*
X656694Y364303D01*
X656611Y364353D01*
X656530Y364407D01*
X656452Y364463D01*
X656376Y364523D01*
X656302Y364585D01*
X656231Y364651D01*
X656163Y364719D01*
X656097Y364790D01*
X656035Y364864D01*
X655975Y364940D01*
X655919Y365018D01*
X655865Y365099D01*
X655815Y365182D01*
X655769Y365266D01*
X655726Y365353D01*
X655686Y365441D01*
X655650Y365530D01*
X655617Y365621D01*
X655589Y365714D01*
X655564Y365807D01*
X655542Y365901D01*
X655525Y365996D01*
X655511Y366092D01*
X655502Y366188D01*
X655496Y366284D01*
X655494Y366381D01*
X665028Y363982D02*
X665028Y372618D01*
X667427Y372618D01*
X667524Y372616D01*
X667620Y372610D01*
X667716Y372601D01*
X667812Y372587D01*
X667907Y372570D01*
X668001Y372548D01*
X668094Y372523D01*
X668187Y372495D01*
X668278Y372462D01*
X668367Y372426D01*
X668455Y372386D01*
X668542Y372343D01*
X668627Y372297D01*
X668709Y372247D01*
X668790Y372193D01*
X668868Y372137D01*
X668944Y372077D01*
X669018Y372015D01*
X669089Y371949D01*
X669157Y371881D01*
X669223Y371810D01*
X669285Y371736D01*
X669345Y371660D01*
X669401Y371582D01*
X669455Y371501D01*
X669505Y371419D01*
X669551Y371334D01*
X669594Y371247D01*
X669634Y371159D01*
X669670Y371070D01*
X669703Y370979D01*
X669731Y370886D01*
X669756Y370793D01*
X669778Y370699D01*
X669795Y370604D01*
X669809Y370508D01*
X669818Y370412D01*
X669824Y370316D01*
X669826Y370219D01*
X669824Y370122D01*
X669818Y370026D01*
X669809Y369930D01*
X669795Y369834D01*
X669778Y369739D01*
X669756Y369645D01*
X669731Y369552D01*
X669703Y369459D01*
X669670Y369368D01*
X669634Y369279D01*
X669594Y369191D01*
X669551Y369104D01*
X669505Y369020D01*
X669455Y368937D01*
X669401Y368856D01*
X669345Y368778D01*
X669285Y368702D01*
X669223Y368628D01*
X669157Y368557D01*
X669089Y368489D01*
X669018Y368423D01*
X668944Y368361D01*
X668868Y368301D01*
X668790Y368245D01*
X668709Y368191D01*
X668627Y368141D01*
X668542Y368095D01*
X668455Y368052D01*
X668367Y368012D01*
X668278Y367976D01*
X668187Y367943D01*
X668094Y367915D01*
X668001Y367890D01*
X667907Y367868D01*
X667812Y367851D01*
X667716Y367837D01*
X667620Y367828D01*
X667524Y367822D01*
X667427Y367820D01*
X665028Y367820D01*
X667907Y367820D02*
X669826Y363982D01*
X674418Y363982D02*
X678256Y363982D01*
X674418Y363982D02*
X674418Y372618D01*
X678256Y372618D01*
X677297Y368780D02*
X674418Y368780D01*
X682343Y372618D02*
X682343Y363982D01*
X682343Y372618D02*
X686181Y372618D01*
X686181Y368780D02*
X682343Y368780D01*
D11*
X984631Y21209D02*
X984631Y18090D01*
X984633Y18022D01*
X984639Y17953D01*
X984649Y17886D01*
X984662Y17818D01*
X984680Y17752D01*
X984701Y17687D01*
X984726Y17623D01*
X984754Y17561D01*
X984786Y17500D01*
X984821Y17442D01*
X984860Y17385D01*
X984902Y17331D01*
X984947Y17279D01*
X984994Y17230D01*
X985045Y17184D01*
X985098Y17141D01*
X985153Y17100D01*
X985211Y17063D01*
X985270Y17030D01*
X985332Y16999D01*
X985395Y16973D01*
X985459Y16950D01*
X985525Y16930D01*
X985592Y16915D01*
X985659Y16903D01*
X985727Y16895D01*
X985796Y16891D01*
X985864Y16891D01*
X985933Y16895D01*
X986001Y16903D01*
X986068Y16915D01*
X986135Y16930D01*
X986201Y16950D01*
X986265Y16973D01*
X986328Y16999D01*
X986390Y17030D01*
X986449Y17063D01*
X986507Y17100D01*
X986562Y17141D01*
X986615Y17184D01*
X986666Y17230D01*
X986713Y17279D01*
X986758Y17331D01*
X986800Y17385D01*
X986839Y17442D01*
X986874Y17500D01*
X986906Y17561D01*
X986934Y17623D01*
X986959Y17687D01*
X986980Y17752D01*
X986998Y17818D01*
X987011Y17886D01*
X987021Y17953D01*
X987027Y18022D01*
X987029Y18090D01*
X987030Y18090D02*
X987030Y21209D01*
X990642Y16891D02*
X990702Y16893D01*
X990762Y16899D01*
X990822Y16908D01*
X990881Y16921D01*
X990939Y16938D01*
X990995Y16958D01*
X991051Y16982D01*
X991104Y17010D01*
X991156Y17040D01*
X991206Y17074D01*
X991254Y17111D01*
X991299Y17151D01*
X991342Y17194D01*
X991382Y17239D01*
X991419Y17287D01*
X991453Y17337D01*
X991483Y17389D01*
X991511Y17442D01*
X991535Y17498D01*
X991555Y17554D01*
X991572Y17612D01*
X991585Y17671D01*
X991594Y17731D01*
X991600Y17791D01*
X991602Y17851D01*
X990642Y16891D02*
X990553Y16893D01*
X990464Y16899D01*
X990376Y16909D01*
X990288Y16922D01*
X990201Y16940D01*
X990115Y16961D01*
X990029Y16986D01*
X989945Y17015D01*
X989862Y17047D01*
X989781Y17083D01*
X989701Y17122D01*
X989624Y17165D01*
X989548Y17212D01*
X989474Y17261D01*
X989402Y17314D01*
X989333Y17370D01*
X989267Y17429D01*
X989203Y17491D01*
X989322Y20249D02*
X989324Y20309D01*
X989330Y20369D01*
X989339Y20429D01*
X989352Y20488D01*
X989369Y20546D01*
X989389Y20602D01*
X989413Y20658D01*
X989441Y20711D01*
X989471Y20763D01*
X989505Y20813D01*
X989542Y20861D01*
X989582Y20906D01*
X989625Y20949D01*
X989670Y20989D01*
X989718Y21026D01*
X989768Y21060D01*
X989820Y21090D01*
X989873Y21118D01*
X989929Y21142D01*
X989985Y21162D01*
X990043Y21179D01*
X990102Y21192D01*
X990162Y21201D01*
X990222Y21207D01*
X990282Y21209D01*
X990365Y21207D01*
X990447Y21201D01*
X990529Y21192D01*
X990611Y21179D01*
X990692Y21162D01*
X990772Y21141D01*
X990851Y21117D01*
X990929Y21089D01*
X991005Y21057D01*
X991080Y21022D01*
X991153Y20984D01*
X991225Y20942D01*
X991294Y20897D01*
X991361Y20849D01*
X989802Y19409D02*
X989752Y19441D01*
X989703Y19476D01*
X989657Y19513D01*
X989614Y19554D01*
X989572Y19597D01*
X989534Y19642D01*
X989498Y19690D01*
X989466Y19740D01*
X989436Y19791D01*
X989410Y19845D01*
X989387Y19900D01*
X989367Y19956D01*
X989351Y20013D01*
X989338Y20071D01*
X989329Y20130D01*
X989324Y20189D01*
X989322Y20249D01*
X991122Y18691D02*
X991172Y18659D01*
X991221Y18624D01*
X991267Y18587D01*
X991310Y18546D01*
X991352Y18503D01*
X991390Y18458D01*
X991426Y18410D01*
X991458Y18360D01*
X991488Y18309D01*
X991514Y18255D01*
X991537Y18200D01*
X991557Y18144D01*
X991573Y18087D01*
X991586Y18029D01*
X991595Y17970D01*
X991600Y17911D01*
X991602Y17851D01*
X991122Y18690D02*
X989803Y19410D01*
X993872Y19290D02*
X995072Y19290D01*
X995072Y19289D02*
X995140Y19287D01*
X995209Y19281D01*
X995276Y19271D01*
X995344Y19258D01*
X995410Y19240D01*
X995475Y19219D01*
X995539Y19194D01*
X995601Y19166D01*
X995662Y19134D01*
X995720Y19099D01*
X995777Y19060D01*
X995831Y19018D01*
X995883Y18973D01*
X995932Y18926D01*
X995978Y18875D01*
X996021Y18822D01*
X996062Y18767D01*
X996099Y18709D01*
X996132Y18650D01*
X996163Y18588D01*
X996189Y18525D01*
X996212Y18461D01*
X996232Y18395D01*
X996247Y18328D01*
X996259Y18261D01*
X996267Y18193D01*
X996271Y18124D01*
X996271Y18056D01*
X996267Y17987D01*
X996259Y17919D01*
X996247Y17852D01*
X996232Y17785D01*
X996212Y17719D01*
X996189Y17655D01*
X996163Y17592D01*
X996132Y17530D01*
X996099Y17471D01*
X996062Y17413D01*
X996021Y17358D01*
X995978Y17305D01*
X995932Y17254D01*
X995883Y17207D01*
X995831Y17162D01*
X995777Y17120D01*
X995720Y17081D01*
X995662Y17046D01*
X995601Y17014D01*
X995539Y16986D01*
X995475Y16961D01*
X995410Y16940D01*
X995344Y16922D01*
X995276Y16909D01*
X995209Y16899D01*
X995140Y16893D01*
X995072Y16891D01*
X993872Y16891D01*
X993872Y21209D01*
X995072Y21209D01*
X995132Y21207D01*
X995192Y21201D01*
X995252Y21192D01*
X995311Y21179D01*
X995369Y21162D01*
X995425Y21142D01*
X995481Y21118D01*
X995534Y21090D01*
X995586Y21060D01*
X995636Y21026D01*
X995684Y20989D01*
X995729Y20949D01*
X995772Y20906D01*
X995812Y20861D01*
X995849Y20813D01*
X995883Y20763D01*
X995913Y20711D01*
X995941Y20658D01*
X995965Y20602D01*
X995985Y20546D01*
X996002Y20488D01*
X996015Y20429D01*
X996024Y20369D01*
X996030Y20309D01*
X996032Y20249D01*
X996030Y20189D01*
X996024Y20129D01*
X996015Y20069D01*
X996002Y20010D01*
X995985Y19952D01*
X995965Y19896D01*
X995941Y19840D01*
X995913Y19787D01*
X995883Y19735D01*
X995849Y19685D01*
X995812Y19637D01*
X995772Y19592D01*
X995729Y19549D01*
X995684Y19509D01*
X995636Y19472D01*
X995586Y19438D01*
X995534Y19408D01*
X995481Y19380D01*
X995425Y19356D01*
X995369Y19336D01*
X995311Y19319D01*
X995252Y19306D01*
X995192Y19297D01*
X995132Y19291D01*
X995072Y19289D01*
D12*
X873722Y755156D02*
X872381Y755156D01*
X873722Y755157D02*
X873793Y755155D01*
X873865Y755149D01*
X873935Y755140D01*
X874005Y755127D01*
X874075Y755110D01*
X874143Y755089D01*
X874210Y755065D01*
X874276Y755037D01*
X874340Y755006D01*
X874403Y754971D01*
X874463Y754933D01*
X874522Y754892D01*
X874578Y754848D01*
X874632Y754801D01*
X874683Y754752D01*
X874731Y754699D01*
X874777Y754644D01*
X874819Y754587D01*
X874859Y754527D01*
X874895Y754466D01*
X874928Y754402D01*
X874957Y754337D01*
X874983Y754271D01*
X875006Y754203D01*
X875025Y754134D01*
X875040Y754064D01*
X875051Y753994D01*
X875059Y753923D01*
X875063Y753852D01*
X875063Y753780D01*
X875059Y753709D01*
X875051Y753638D01*
X875040Y753568D01*
X875025Y753498D01*
X875006Y753429D01*
X874983Y753361D01*
X874957Y753295D01*
X874928Y753230D01*
X874895Y753166D01*
X874859Y753105D01*
X874819Y753045D01*
X874777Y752988D01*
X874731Y752933D01*
X874683Y752880D01*
X874632Y752831D01*
X874578Y752784D01*
X874522Y752740D01*
X874463Y752699D01*
X874403Y752661D01*
X874340Y752626D01*
X874276Y752595D01*
X874210Y752567D01*
X874143Y752543D01*
X874075Y752522D01*
X874005Y752505D01*
X873935Y752492D01*
X873865Y752483D01*
X873793Y752477D01*
X873722Y752475D01*
X872381Y752475D01*
X872381Y757301D01*
X873722Y757301D01*
X873787Y757299D01*
X873851Y757293D01*
X873915Y757283D01*
X873979Y757270D01*
X874041Y757252D01*
X874102Y757231D01*
X874162Y757207D01*
X874220Y757178D01*
X874277Y757146D01*
X874331Y757111D01*
X874383Y757073D01*
X874433Y757031D01*
X874480Y756987D01*
X874524Y756940D01*
X874566Y756890D01*
X874604Y756838D01*
X874639Y756784D01*
X874671Y756727D01*
X874700Y756669D01*
X874724Y756609D01*
X874745Y756548D01*
X874763Y756486D01*
X874776Y756422D01*
X874786Y756358D01*
X874792Y756294D01*
X874794Y756229D01*
X874792Y756164D01*
X874786Y756100D01*
X874776Y756036D01*
X874763Y755972D01*
X874745Y755910D01*
X874724Y755849D01*
X874700Y755789D01*
X874671Y755731D01*
X874639Y755674D01*
X874604Y755620D01*
X874566Y755568D01*
X874524Y755518D01*
X874480Y755471D01*
X874433Y755427D01*
X874383Y755385D01*
X874331Y755347D01*
X874277Y755312D01*
X874220Y755280D01*
X874162Y755251D01*
X874102Y755227D01*
X874041Y755206D01*
X873979Y755188D01*
X873915Y755175D01*
X873851Y755165D01*
X873787Y755159D01*
X873722Y755157D01*
X877538Y756229D02*
X878879Y757301D01*
X878879Y752475D01*
X880219Y752475D02*
X877538Y752475D01*
D13*
X1230500Y129300D02*
X1251500Y129300D01*
X1251500Y71300D02*
X1251500Y20300D01*
X1251500Y118300D02*
X1251500Y129300D01*
X1161500Y129300D02*
X1161500Y20300D01*
X1161500Y129300D02*
X1180500Y129300D01*
X1161500Y20300D02*
X1251500Y20300D01*
D14*
X1155192Y-6999D02*
X1155192Y-9596D01*
X1155190Y-9695D01*
X1155184Y-9795D01*
X1155175Y-9894D01*
X1155162Y-9992D01*
X1155145Y-10090D01*
X1155124Y-10188D01*
X1155099Y-10284D01*
X1155071Y-10379D01*
X1155039Y-10473D01*
X1155004Y-10566D01*
X1154965Y-10658D01*
X1154922Y-10748D01*
X1154877Y-10836D01*
X1154827Y-10923D01*
X1154775Y-11007D01*
X1154719Y-11090D01*
X1154661Y-11170D01*
X1154599Y-11248D01*
X1154534Y-11323D01*
X1154466Y-11396D01*
X1154396Y-11466D01*
X1154323Y-11534D01*
X1154248Y-11599D01*
X1154170Y-11661D01*
X1154090Y-11719D01*
X1154007Y-11775D01*
X1153923Y-11827D01*
X1153836Y-11877D01*
X1153748Y-11922D01*
X1153658Y-11965D01*
X1153566Y-12004D01*
X1153473Y-12039D01*
X1153379Y-12071D01*
X1153284Y-12099D01*
X1153188Y-12124D01*
X1153090Y-12145D01*
X1152992Y-12162D01*
X1152894Y-12175D01*
X1152795Y-12184D01*
X1152695Y-12190D01*
X1152596Y-12192D01*
X1146104Y-12192D01*
X1146104Y-12193D02*
X1146005Y-12191D01*
X1145905Y-12185D01*
X1145806Y-12176D01*
X1145708Y-12163D01*
X1145610Y-12145D01*
X1145512Y-12125D01*
X1145416Y-12100D01*
X1145320Y-12072D01*
X1145226Y-12040D01*
X1145133Y-12005D01*
X1145042Y-11966D01*
X1144952Y-11923D01*
X1144863Y-11878D01*
X1144777Y-11828D01*
X1144692Y-11776D01*
X1144610Y-11720D01*
X1144530Y-11661D01*
X1144452Y-11600D01*
X1144376Y-11535D01*
X1144303Y-11467D01*
X1144233Y-11397D01*
X1144165Y-11324D01*
X1144100Y-11248D01*
X1144039Y-11170D01*
X1143980Y-11090D01*
X1143924Y-11008D01*
X1143872Y-10923D01*
X1143823Y-10837D01*
X1143777Y-10748D01*
X1143734Y-10658D01*
X1143695Y-10567D01*
X1143660Y-10474D01*
X1143628Y-10380D01*
X1143600Y-10284D01*
X1143575Y-10188D01*
X1143555Y-10090D01*
X1143537Y-9992D01*
X1143524Y-9894D01*
X1143515Y-9795D01*
X1143509Y-9696D01*
X1143507Y-9596D01*
X1143508Y-9596D02*
X1143508Y-6999D01*
X1143508Y-2253D02*
X1155192Y-2253D01*
X1155192Y4238D02*
X1143508Y-2253D01*
X1143508Y4238D02*
X1155192Y4238D01*
X1146104Y9558D02*
X1143508Y12804D01*
X1155192Y12804D01*
X1155192Y16049D02*
X1155192Y9558D01*
D13*
X1371600Y222250D02*
X1365250Y228600D01*
X1371600Y222250D02*
X1371600Y209550D01*
X1365250Y203200D01*
X1352550Y203200D02*
X1346200Y209550D01*
X1346200Y222250D01*
X1352550Y228600D01*
X1371600Y260350D02*
X1371600Y273050D01*
X1371600Y260350D02*
X1365250Y254000D01*
X1352550Y254000D02*
X1346200Y260350D01*
X1365250Y254000D02*
X1371600Y247650D01*
X1371600Y234950D01*
X1365250Y228600D01*
X1352550Y228600D02*
X1346200Y234950D01*
X1346200Y247650D01*
X1352550Y254000D01*
X1352550Y279400D02*
X1365250Y279400D01*
X1371600Y273050D01*
X1352550Y279400D02*
X1346200Y273050D01*
X1346200Y260350D01*
X1352550Y203200D02*
X1365250Y203200D01*
D15*
X1358900Y241300D03*
X1358900Y266700D03*
D13*
X1394714Y228667D02*
X1394714Y226860D01*
X1394712Y226777D01*
X1394706Y226693D01*
X1394697Y226610D01*
X1394683Y226528D01*
X1394666Y226447D01*
X1394645Y226366D01*
X1394620Y226286D01*
X1394592Y226208D01*
X1394560Y226131D01*
X1394525Y226055D01*
X1394486Y225981D01*
X1394443Y225909D01*
X1394398Y225839D01*
X1394349Y225772D01*
X1394297Y225706D01*
X1394243Y225643D01*
X1394185Y225583D01*
X1394125Y225525D01*
X1394062Y225471D01*
X1393996Y225419D01*
X1393929Y225370D01*
X1393859Y225325D01*
X1393787Y225282D01*
X1393713Y225243D01*
X1393638Y225208D01*
X1393560Y225176D01*
X1393482Y225148D01*
X1393402Y225123D01*
X1393322Y225102D01*
X1393240Y225085D01*
X1393158Y225071D01*
X1393075Y225062D01*
X1392991Y225056D01*
X1392908Y225054D01*
X1388392Y225054D01*
X1388309Y225056D01*
X1388225Y225062D01*
X1388142Y225071D01*
X1388060Y225085D01*
X1387979Y225102D01*
X1387898Y225123D01*
X1387818Y225148D01*
X1387740Y225176D01*
X1387663Y225208D01*
X1387587Y225243D01*
X1387513Y225282D01*
X1387441Y225325D01*
X1387371Y225370D01*
X1387304Y225419D01*
X1387238Y225471D01*
X1387175Y225525D01*
X1387115Y225583D01*
X1387057Y225643D01*
X1387003Y225706D01*
X1386951Y225772D01*
X1386902Y225839D01*
X1386857Y225909D01*
X1386814Y225981D01*
X1386775Y226055D01*
X1386740Y226130D01*
X1386708Y226208D01*
X1386680Y226286D01*
X1386655Y226366D01*
X1386634Y226446D01*
X1386617Y226528D01*
X1386603Y226610D01*
X1386594Y226693D01*
X1386588Y226777D01*
X1386586Y226860D01*
X1386586Y228667D01*
X1388844Y232721D02*
X1392456Y232721D01*
X1388844Y232720D02*
X1388751Y232722D01*
X1388658Y232728D01*
X1388565Y232737D01*
X1388472Y232751D01*
X1388381Y232768D01*
X1388290Y232789D01*
X1388200Y232814D01*
X1388111Y232842D01*
X1388023Y232874D01*
X1387937Y232910D01*
X1387852Y232949D01*
X1387769Y232992D01*
X1387688Y233038D01*
X1387609Y233088D01*
X1387532Y233140D01*
X1387457Y233196D01*
X1387385Y233255D01*
X1387315Y233317D01*
X1387247Y233381D01*
X1387183Y233449D01*
X1387121Y233519D01*
X1387062Y233591D01*
X1387006Y233666D01*
X1386954Y233743D01*
X1386904Y233822D01*
X1386858Y233903D01*
X1386815Y233986D01*
X1386776Y234071D01*
X1386740Y234157D01*
X1386708Y234245D01*
X1386680Y234334D01*
X1386655Y234424D01*
X1386634Y234515D01*
X1386617Y234606D01*
X1386603Y234699D01*
X1386594Y234792D01*
X1386588Y234885D01*
X1386586Y234978D01*
X1386588Y235071D01*
X1386594Y235164D01*
X1386603Y235257D01*
X1386617Y235350D01*
X1386634Y235441D01*
X1386655Y235532D01*
X1386680Y235622D01*
X1386708Y235711D01*
X1386740Y235799D01*
X1386776Y235885D01*
X1386815Y235970D01*
X1386858Y236053D01*
X1386904Y236134D01*
X1386954Y236213D01*
X1387006Y236290D01*
X1387062Y236365D01*
X1387121Y236437D01*
X1387183Y236507D01*
X1387247Y236575D01*
X1387315Y236639D01*
X1387385Y236701D01*
X1387457Y236760D01*
X1387532Y236816D01*
X1387609Y236868D01*
X1387688Y236918D01*
X1387769Y236964D01*
X1387852Y237007D01*
X1387937Y237046D01*
X1388023Y237082D01*
X1388111Y237114D01*
X1388200Y237142D01*
X1388290Y237167D01*
X1388381Y237188D01*
X1388472Y237205D01*
X1388565Y237219D01*
X1388658Y237228D01*
X1388751Y237234D01*
X1388844Y237236D01*
X1392456Y237236D01*
X1392549Y237234D01*
X1392642Y237228D01*
X1392735Y237219D01*
X1392828Y237205D01*
X1392919Y237188D01*
X1393010Y237167D01*
X1393100Y237142D01*
X1393189Y237114D01*
X1393277Y237082D01*
X1393363Y237046D01*
X1393448Y237007D01*
X1393531Y236964D01*
X1393612Y236918D01*
X1393691Y236868D01*
X1393768Y236816D01*
X1393843Y236760D01*
X1393915Y236701D01*
X1393985Y236639D01*
X1394053Y236575D01*
X1394117Y236507D01*
X1394179Y236437D01*
X1394238Y236365D01*
X1394294Y236290D01*
X1394346Y236213D01*
X1394396Y236134D01*
X1394442Y236053D01*
X1394485Y235970D01*
X1394524Y235885D01*
X1394560Y235799D01*
X1394592Y235711D01*
X1394620Y235622D01*
X1394645Y235532D01*
X1394666Y235441D01*
X1394683Y235350D01*
X1394697Y235257D01*
X1394706Y235164D01*
X1394712Y235071D01*
X1394714Y234978D01*
X1394712Y234885D01*
X1394706Y234792D01*
X1394697Y234699D01*
X1394683Y234606D01*
X1394666Y234515D01*
X1394645Y234424D01*
X1394620Y234334D01*
X1394592Y234245D01*
X1394560Y234157D01*
X1394524Y234071D01*
X1394485Y233986D01*
X1394442Y233903D01*
X1394396Y233822D01*
X1394346Y233743D01*
X1394294Y233666D01*
X1394238Y233591D01*
X1394179Y233519D01*
X1394117Y233449D01*
X1394053Y233381D01*
X1393985Y233317D01*
X1393915Y233255D01*
X1393843Y233196D01*
X1393768Y233140D01*
X1393691Y233088D01*
X1393612Y233038D01*
X1393531Y232992D01*
X1393448Y232949D01*
X1393363Y232910D01*
X1393277Y232874D01*
X1393189Y232842D01*
X1393100Y232814D01*
X1393010Y232789D01*
X1392919Y232768D01*
X1392828Y232751D01*
X1392735Y232737D01*
X1392642Y232728D01*
X1392549Y232722D01*
X1392456Y232720D01*
X1394714Y242294D02*
X1386586Y242294D01*
X1394714Y241390D02*
X1394714Y243197D01*
X1386586Y243197D02*
X1386586Y241390D01*
X1386586Y247656D02*
X1394714Y247656D01*
X1394714Y252171D02*
X1386586Y247656D01*
X1386586Y252171D02*
X1394714Y252171D01*
X1391553Y257263D02*
X1391553Y262681D01*
X1392908Y269000D02*
X1386586Y269000D01*
X1392908Y269000D02*
X1392991Y268998D01*
X1393075Y268992D01*
X1393158Y268983D01*
X1393240Y268969D01*
X1393321Y268952D01*
X1393402Y268931D01*
X1393482Y268906D01*
X1393560Y268878D01*
X1393637Y268846D01*
X1393713Y268811D01*
X1393787Y268772D01*
X1393859Y268729D01*
X1393929Y268684D01*
X1393996Y268635D01*
X1394062Y268583D01*
X1394125Y268529D01*
X1394185Y268471D01*
X1394243Y268411D01*
X1394297Y268348D01*
X1394349Y268282D01*
X1394398Y268215D01*
X1394443Y268145D01*
X1394486Y268073D01*
X1394525Y267999D01*
X1394560Y267923D01*
X1394592Y267846D01*
X1394620Y267768D01*
X1394645Y267688D01*
X1394666Y267607D01*
X1394683Y267526D01*
X1394697Y267444D01*
X1394706Y267361D01*
X1394712Y267277D01*
X1394714Y267194D01*
X1394714Y266291D01*
X1392908Y273868D02*
X1386586Y275675D01*
X1392908Y273868D02*
X1392908Y278384D01*
X1391102Y277029D02*
X1394714Y277029D01*
X482407Y196448D02*
X482806Y183754D01*
X482407Y196448D02*
X488554Y202994D01*
X501248Y203393D02*
X507794Y197246D01*
X488554Y202994D02*
X482008Y209142D01*
X481609Y221835D01*
X487756Y228382D01*
X500450Y228781D02*
X506996Y222633D01*
X507395Y209940D01*
X501248Y203393D01*
X502046Y178006D02*
X489352Y177607D01*
X482806Y183754D01*
X502046Y178006D02*
X508193Y184552D01*
X507794Y197246D01*
X500450Y228781D02*
X487756Y228382D01*
X478681Y242239D02*
X470557Y241984D01*
X470670Y238373D01*
X470781Y234851D02*
X478990Y232398D01*
X470951Y229435D01*
X472961Y230175D02*
X472833Y234237D01*
X479196Y225820D02*
X479338Y221306D01*
X471073Y225564D01*
X471214Y221051D01*
X471361Y216393D02*
X471474Y212783D01*
X471361Y216393D02*
X479485Y216649D01*
X479598Y213038D01*
X475959Y213827D02*
X475874Y216535D01*
X479736Y208656D02*
X471612Y208401D01*
X479736Y208656D02*
X479807Y206400D01*
X479808Y206307D01*
X479805Y206213D01*
X479798Y206120D01*
X479788Y206028D01*
X479773Y205935D01*
X479755Y205844D01*
X479733Y205753D01*
X479708Y205663D01*
X479678Y205575D01*
X479645Y205487D01*
X479609Y205402D01*
X479569Y205317D01*
X479525Y205235D01*
X479478Y205154D01*
X479428Y205075D01*
X479375Y204999D01*
X479318Y204925D01*
X479258Y204853D01*
X479196Y204783D01*
X479131Y204717D01*
X479063Y204653D01*
X478992Y204592D01*
X478919Y204533D01*
X478844Y204478D01*
X478766Y204427D01*
X478687Y204378D01*
X478605Y204333D01*
X478522Y204291D01*
X478436Y204252D01*
X478350Y204217D01*
X478262Y204186D01*
X478173Y204159D01*
X478083Y204135D01*
X477991Y204115D01*
X477900Y204098D01*
X477807Y204086D01*
X477714Y204077D01*
X477621Y204072D01*
X477528Y204071D01*
X477434Y204074D01*
X477341Y204081D01*
X477248Y204091D01*
X477156Y204106D01*
X477065Y204124D01*
X476974Y204146D01*
X476884Y204171D01*
X476796Y204201D01*
X476708Y204234D01*
X476623Y204270D01*
X476538Y204310D01*
X476456Y204354D01*
X476375Y204401D01*
X476296Y204451D01*
X476220Y204504D01*
X476145Y204561D01*
X476074Y204621D01*
X476004Y204683D01*
X475938Y204748D01*
X475874Y204816D01*
X475813Y204887D01*
X475754Y204960D01*
X475699Y205035D01*
X475648Y205113D01*
X475599Y205192D01*
X475554Y205274D01*
X475512Y205357D01*
X475473Y205443D01*
X475438Y205529D01*
X475407Y205617D01*
X475380Y205706D01*
X475356Y205796D01*
X475336Y205888D01*
X475319Y205979D01*
X475307Y206072D01*
X475298Y206165D01*
X475293Y206258D01*
X475222Y208514D01*
X475308Y205806D02*
X471754Y203888D01*
X475060Y199306D02*
X475230Y193890D01*
X474075Y187531D02*
X480393Y187730D01*
X474075Y187532D02*
X473991Y187531D01*
X473908Y187534D01*
X473825Y187541D01*
X473742Y187552D01*
X473660Y187567D01*
X473579Y187585D01*
X473498Y187607D01*
X473419Y187633D01*
X473341Y187663D01*
X473264Y187696D01*
X473189Y187732D01*
X473116Y187772D01*
X473045Y187816D01*
X472975Y187862D01*
X472908Y187912D01*
X472844Y187965D01*
X472782Y188020D01*
X472722Y188079D01*
X472665Y188140D01*
X472612Y188204D01*
X472561Y188270D01*
X472513Y188339D01*
X472469Y188409D01*
X472427Y188482D01*
X472390Y188556D01*
X472355Y188632D01*
X472324Y188710D01*
X472297Y188788D01*
X472274Y188869D01*
X472254Y188950D01*
X472238Y189031D01*
X472226Y189114D01*
X472217Y189197D01*
X472213Y189280D01*
X472184Y190183D01*
X480624Y180382D02*
X480625Y180293D01*
X480622Y180205D01*
X480615Y180116D01*
X480604Y180028D01*
X480590Y179941D01*
X480571Y179854D01*
X480549Y179768D01*
X480523Y179683D01*
X480494Y179600D01*
X480461Y179518D01*
X480424Y179437D01*
X480384Y179358D01*
X480340Y179281D01*
X480293Y179205D01*
X480243Y179132D01*
X480190Y179061D01*
X480134Y178993D01*
X480074Y178927D01*
X480012Y178864D01*
X479947Y178803D01*
X479880Y178746D01*
X479810Y178691D01*
X479738Y178639D01*
X479664Y178591D01*
X479587Y178546D01*
X479509Y178504D01*
X479429Y178466D01*
X479348Y178431D01*
X479265Y178400D01*
X479180Y178373D01*
X479095Y178349D01*
X479009Y178329D01*
X478921Y178313D01*
X478834Y178300D01*
X478745Y178292D01*
X478657Y178287D01*
X480625Y180382D02*
X480620Y180481D01*
X480611Y180581D01*
X480598Y180679D01*
X480582Y180777D01*
X480562Y180875D01*
X480538Y180971D01*
X480511Y181067D01*
X480480Y181162D01*
X480445Y181255D01*
X480407Y181347D01*
X480365Y181437D01*
X480320Y181526D01*
X480272Y181613D01*
X480220Y181698D01*
X480165Y181781D01*
X480107Y181862D01*
X480046Y181940D01*
X479982Y182017D01*
X479916Y182090D01*
X479846Y182161D01*
X479774Y182230D01*
X479699Y182295D01*
X479622Y182358D01*
X479542Y182418D01*
X479460Y182474D01*
X479377Y182528D01*
X479291Y182578D01*
X479203Y182625D01*
X479113Y182669D01*
X479022Y182709D01*
X478930Y182745D01*
X478836Y182779D01*
X478741Y182808D01*
X477056Y178914D02*
X477124Y178850D01*
X477194Y178789D01*
X477267Y178731D01*
X477342Y178676D01*
X477420Y178625D01*
X477499Y178576D01*
X477581Y178532D01*
X477664Y178491D01*
X477749Y178453D01*
X477836Y178419D01*
X477924Y178389D01*
X478013Y178362D01*
X478103Y178340D01*
X478195Y178321D01*
X478286Y178306D01*
X478379Y178295D01*
X478472Y178288D01*
X478565Y178285D01*
X478658Y178286D01*
X477056Y178914D02*
X472422Y182609D01*
X472564Y178095D01*
X482600Y285750D02*
X482600Y298450D01*
X488950Y304800D01*
X501650Y304800D02*
X508000Y298450D01*
X488950Y304800D02*
X482600Y311150D01*
X482600Y323850D01*
X488950Y330200D01*
X501650Y330200D02*
X508000Y323850D01*
X508000Y311150D01*
X501650Y304800D01*
X501650Y279400D02*
X488950Y279400D01*
X482600Y285750D01*
X501650Y279400D02*
X508000Y285750D01*
X508000Y298450D01*
X501650Y330200D02*
X488950Y330200D01*
X467614Y280416D02*
X459486Y280416D01*
X467614Y280416D02*
X467614Y284028D01*
X467614Y288309D02*
X459486Y288309D01*
X459486Y290567D01*
X459488Y290660D01*
X459494Y290753D01*
X459503Y290846D01*
X459517Y290939D01*
X459534Y291030D01*
X459555Y291121D01*
X459580Y291211D01*
X459608Y291300D01*
X459640Y291388D01*
X459676Y291474D01*
X459715Y291559D01*
X459758Y291642D01*
X459804Y291723D01*
X459854Y291802D01*
X459906Y291879D01*
X459962Y291954D01*
X460021Y292026D01*
X460083Y292096D01*
X460147Y292164D01*
X460215Y292228D01*
X460285Y292290D01*
X460357Y292349D01*
X460432Y292405D01*
X460509Y292457D01*
X460588Y292507D01*
X460669Y292553D01*
X460752Y292596D01*
X460837Y292635D01*
X460923Y292671D01*
X461011Y292703D01*
X461100Y292731D01*
X461190Y292756D01*
X461281Y292777D01*
X461372Y292794D01*
X461465Y292808D01*
X461558Y292817D01*
X461651Y292823D01*
X461744Y292825D01*
X465356Y292825D01*
X465449Y292823D01*
X465542Y292817D01*
X465635Y292808D01*
X465728Y292794D01*
X465819Y292777D01*
X465910Y292756D01*
X466000Y292731D01*
X466089Y292703D01*
X466177Y292671D01*
X466263Y292635D01*
X466348Y292596D01*
X466431Y292553D01*
X466512Y292507D01*
X466591Y292457D01*
X466668Y292405D01*
X466743Y292349D01*
X466815Y292290D01*
X466885Y292228D01*
X466953Y292164D01*
X467017Y292096D01*
X467079Y292026D01*
X467138Y291954D01*
X467194Y291879D01*
X467246Y291802D01*
X467296Y291723D01*
X467342Y291642D01*
X467385Y291559D01*
X467424Y291474D01*
X467460Y291388D01*
X467492Y291300D01*
X467520Y291211D01*
X467545Y291121D01*
X467566Y291030D01*
X467583Y290939D01*
X467597Y290846D01*
X467606Y290753D01*
X467612Y290660D01*
X467614Y290567D01*
X467614Y288309D01*
X467614Y298166D02*
X459486Y298166D01*
X459486Y300424D01*
X459488Y300517D01*
X459494Y300610D01*
X459503Y300703D01*
X459517Y300796D01*
X459534Y300887D01*
X459555Y300978D01*
X459580Y301068D01*
X459608Y301157D01*
X459640Y301245D01*
X459676Y301331D01*
X459715Y301416D01*
X459758Y301499D01*
X459804Y301580D01*
X459854Y301659D01*
X459906Y301736D01*
X459962Y301811D01*
X460021Y301883D01*
X460083Y301953D01*
X460147Y302021D01*
X460215Y302085D01*
X460285Y302147D01*
X460357Y302206D01*
X460432Y302262D01*
X460509Y302314D01*
X460588Y302364D01*
X460669Y302410D01*
X460752Y302453D01*
X460837Y302492D01*
X460923Y302528D01*
X461011Y302560D01*
X461100Y302588D01*
X461190Y302613D01*
X461281Y302634D01*
X461372Y302651D01*
X461465Y302665D01*
X461558Y302674D01*
X461651Y302680D01*
X461744Y302682D01*
X461837Y302680D01*
X461930Y302674D01*
X462023Y302665D01*
X462116Y302651D01*
X462207Y302634D01*
X462298Y302613D01*
X462388Y302588D01*
X462477Y302560D01*
X462565Y302528D01*
X462651Y302492D01*
X462736Y302453D01*
X462819Y302410D01*
X462900Y302364D01*
X462979Y302314D01*
X463056Y302262D01*
X463131Y302206D01*
X463203Y302147D01*
X463273Y302085D01*
X463341Y302021D01*
X463405Y301953D01*
X463467Y301883D01*
X463526Y301811D01*
X463582Y301736D01*
X463634Y301659D01*
X463684Y301580D01*
X463730Y301499D01*
X463773Y301416D01*
X463812Y301331D01*
X463848Y301245D01*
X463880Y301157D01*
X463908Y301068D01*
X463933Y300978D01*
X463954Y300887D01*
X463971Y300796D01*
X463985Y300703D01*
X463994Y300610D01*
X464000Y300517D01*
X464002Y300424D01*
X464002Y298166D01*
X464002Y300875D02*
X467614Y302681D01*
X464453Y307365D02*
X464453Y312783D01*
X465808Y319103D02*
X459486Y319103D01*
X465808Y319102D02*
X465891Y319100D01*
X465975Y319094D01*
X466058Y319085D01*
X466140Y319071D01*
X466221Y319054D01*
X466302Y319033D01*
X466382Y319008D01*
X466460Y318980D01*
X466537Y318948D01*
X466613Y318913D01*
X466687Y318874D01*
X466759Y318831D01*
X466829Y318786D01*
X466896Y318737D01*
X466962Y318685D01*
X467025Y318631D01*
X467085Y318573D01*
X467143Y318513D01*
X467197Y318450D01*
X467249Y318384D01*
X467298Y318317D01*
X467343Y318247D01*
X467386Y318175D01*
X467425Y318101D01*
X467460Y318025D01*
X467492Y317948D01*
X467520Y317870D01*
X467545Y317790D01*
X467566Y317709D01*
X467583Y317628D01*
X467597Y317546D01*
X467606Y317463D01*
X467612Y317379D01*
X467614Y317296D01*
X467614Y316393D01*
X467614Y323971D02*
X467614Y326228D01*
X467612Y326321D01*
X467606Y326414D01*
X467597Y326507D01*
X467583Y326600D01*
X467566Y326691D01*
X467545Y326782D01*
X467520Y326872D01*
X467492Y326961D01*
X467460Y327049D01*
X467424Y327135D01*
X467385Y327220D01*
X467342Y327303D01*
X467296Y327384D01*
X467246Y327463D01*
X467194Y327540D01*
X467138Y327615D01*
X467079Y327687D01*
X467017Y327757D01*
X466953Y327825D01*
X466885Y327889D01*
X466815Y327951D01*
X466743Y328010D01*
X466668Y328066D01*
X466591Y328118D01*
X466512Y328168D01*
X466431Y328214D01*
X466348Y328257D01*
X466263Y328296D01*
X466177Y328332D01*
X466089Y328364D01*
X466000Y328392D01*
X465910Y328417D01*
X465819Y328438D01*
X465728Y328455D01*
X465635Y328469D01*
X465542Y328478D01*
X465449Y328484D01*
X465356Y328486D01*
X465263Y328484D01*
X465170Y328478D01*
X465077Y328469D01*
X464984Y328455D01*
X464893Y328438D01*
X464802Y328417D01*
X464712Y328392D01*
X464623Y328364D01*
X464535Y328332D01*
X464449Y328296D01*
X464364Y328257D01*
X464281Y328214D01*
X464200Y328168D01*
X464121Y328118D01*
X464044Y328066D01*
X463969Y328010D01*
X463897Y327951D01*
X463827Y327889D01*
X463759Y327825D01*
X463695Y327757D01*
X463633Y327687D01*
X463574Y327615D01*
X463518Y327540D01*
X463466Y327463D01*
X463416Y327384D01*
X463370Y327303D01*
X463327Y327220D01*
X463288Y327135D01*
X463252Y327049D01*
X463220Y326961D01*
X463192Y326872D01*
X463167Y326782D01*
X463146Y326691D01*
X463129Y326600D01*
X463115Y326507D01*
X463106Y326414D01*
X463100Y326321D01*
X463098Y326228D01*
X459486Y326680D02*
X459486Y323971D01*
X459486Y326680D02*
X459488Y326763D01*
X459494Y326847D01*
X459503Y326930D01*
X459517Y327012D01*
X459534Y327093D01*
X459555Y327174D01*
X459580Y327254D01*
X459608Y327332D01*
X459640Y327409D01*
X459675Y327485D01*
X459714Y327559D01*
X459757Y327631D01*
X459802Y327701D01*
X459851Y327768D01*
X459903Y327834D01*
X459957Y327897D01*
X460015Y327957D01*
X460075Y328015D01*
X460138Y328069D01*
X460204Y328121D01*
X460271Y328170D01*
X460341Y328215D01*
X460413Y328258D01*
X460487Y328297D01*
X460563Y328332D01*
X460640Y328364D01*
X460718Y328392D01*
X460798Y328417D01*
X460879Y328438D01*
X460960Y328455D01*
X461042Y328469D01*
X461125Y328478D01*
X461209Y328484D01*
X461292Y328486D01*
X461375Y328484D01*
X461459Y328478D01*
X461542Y328469D01*
X461624Y328455D01*
X461705Y328438D01*
X461786Y328417D01*
X461866Y328392D01*
X461944Y328364D01*
X462021Y328332D01*
X462097Y328297D01*
X462171Y328258D01*
X462243Y328215D01*
X462313Y328170D01*
X462380Y328121D01*
X462446Y328069D01*
X462509Y328015D01*
X462569Y327957D01*
X462627Y327897D01*
X462681Y327834D01*
X462733Y327768D01*
X462782Y327701D01*
X462827Y327631D01*
X462870Y327559D01*
X462909Y327485D01*
X462944Y327409D01*
X462976Y327332D01*
X463004Y327254D01*
X463029Y327174D01*
X463050Y327093D01*
X463067Y327012D01*
X463081Y326930D01*
X463090Y326847D01*
X463096Y326763D01*
X463098Y326680D01*
X463098Y324874D01*
X563880Y279400D02*
X563880Y228600D01*
X563880Y279400D02*
X571500Y279400D01*
X579120Y279400D01*
X579120Y228600D01*
X571500Y228600D01*
X563880Y228600D01*
X571500Y279400D02*
X571500Y281940D01*
X571500Y228600D02*
X571500Y226060D01*
D12*
X560705Y249948D02*
X555879Y249948D01*
X555879Y251289D01*
X555881Y251360D01*
X555887Y251432D01*
X555896Y251502D01*
X555909Y251572D01*
X555926Y251642D01*
X555947Y251710D01*
X555971Y251777D01*
X555999Y251843D01*
X556030Y251907D01*
X556065Y251970D01*
X556103Y252030D01*
X556144Y252089D01*
X556188Y252145D01*
X556235Y252199D01*
X556284Y252250D01*
X556337Y252298D01*
X556392Y252344D01*
X556449Y252386D01*
X556509Y252426D01*
X556570Y252462D01*
X556634Y252495D01*
X556699Y252524D01*
X556765Y252550D01*
X556833Y252573D01*
X556902Y252592D01*
X556972Y252607D01*
X557042Y252618D01*
X557113Y252626D01*
X557184Y252630D01*
X557256Y252630D01*
X557327Y252626D01*
X557398Y252618D01*
X557468Y252607D01*
X557538Y252592D01*
X557607Y252573D01*
X557675Y252550D01*
X557741Y252524D01*
X557806Y252495D01*
X557870Y252462D01*
X557931Y252426D01*
X557991Y252386D01*
X558048Y252344D01*
X558103Y252298D01*
X558156Y252250D01*
X558205Y252199D01*
X558252Y252145D01*
X558296Y252089D01*
X558337Y252030D01*
X558375Y251970D01*
X558410Y251907D01*
X558441Y251843D01*
X558469Y251777D01*
X558493Y251710D01*
X558514Y251642D01*
X558531Y251572D01*
X558544Y251502D01*
X558553Y251432D01*
X558559Y251360D01*
X558561Y251289D01*
X558560Y251289D02*
X558560Y249948D01*
X558560Y251557D02*
X560705Y252629D01*
X556951Y255371D02*
X555879Y256711D01*
X560705Y256711D01*
X560705Y255371D02*
X560705Y258052D01*
D13*
X778510Y119380D02*
X821690Y119380D01*
X821690Y58420D02*
X778510Y58420D01*
X830580Y78740D02*
X830580Y98880D01*
X769620Y99180D02*
X769620Y78740D01*
X782320Y88900D02*
X782325Y89336D01*
X782341Y89772D01*
X782368Y90208D01*
X782406Y90643D01*
X782454Y91076D01*
X782512Y91509D01*
X782582Y91940D01*
X782662Y92369D01*
X782752Y92796D01*
X782853Y93220D01*
X782964Y93642D01*
X783086Y94061D01*
X783217Y94477D01*
X783359Y94890D01*
X783511Y95299D01*
X783673Y95704D01*
X783845Y96105D01*
X784027Y96502D01*
X784218Y96894D01*
X784419Y97281D01*
X784630Y97664D01*
X784850Y98041D01*
X785079Y98412D01*
X785316Y98778D01*
X785563Y99138D01*
X785819Y99492D01*
X786083Y99839D01*
X786356Y100180D01*
X786637Y100513D01*
X786926Y100840D01*
X787223Y101160D01*
X787528Y101472D01*
X787840Y101777D01*
X788160Y102074D01*
X788487Y102363D01*
X788820Y102644D01*
X789161Y102917D01*
X789508Y103181D01*
X789862Y103437D01*
X790222Y103684D01*
X790588Y103921D01*
X790959Y104150D01*
X791336Y104370D01*
X791719Y104581D01*
X792106Y104782D01*
X792498Y104973D01*
X792895Y105155D01*
X793296Y105327D01*
X793701Y105489D01*
X794110Y105641D01*
X794523Y105783D01*
X794939Y105914D01*
X795358Y106036D01*
X795780Y106147D01*
X796204Y106248D01*
X796631Y106338D01*
X797060Y106418D01*
X797491Y106488D01*
X797924Y106546D01*
X798357Y106594D01*
X798792Y106632D01*
X799228Y106659D01*
X799664Y106675D01*
X800100Y106680D01*
X800536Y106675D01*
X800972Y106659D01*
X801408Y106632D01*
X801843Y106594D01*
X802276Y106546D01*
X802709Y106488D01*
X803140Y106418D01*
X803569Y106338D01*
X803996Y106248D01*
X804420Y106147D01*
X804842Y106036D01*
X805261Y105914D01*
X805677Y105783D01*
X806090Y105641D01*
X806499Y105489D01*
X806904Y105327D01*
X807305Y105155D01*
X807702Y104973D01*
X808094Y104782D01*
X808481Y104581D01*
X808864Y104370D01*
X809241Y104150D01*
X809612Y103921D01*
X809978Y103684D01*
X810338Y103437D01*
X810692Y103181D01*
X811039Y102917D01*
X811380Y102644D01*
X811713Y102363D01*
X812040Y102074D01*
X812360Y101777D01*
X812672Y101472D01*
X812977Y101160D01*
X813274Y100840D01*
X813563Y100513D01*
X813844Y100180D01*
X814117Y99839D01*
X814381Y99492D01*
X814637Y99138D01*
X814884Y98778D01*
X815121Y98412D01*
X815350Y98041D01*
X815570Y97664D01*
X815781Y97281D01*
X815982Y96894D01*
X816173Y96502D01*
X816355Y96105D01*
X816527Y95704D01*
X816689Y95299D01*
X816841Y94890D01*
X816983Y94477D01*
X817114Y94061D01*
X817236Y93642D01*
X817347Y93220D01*
X817448Y92796D01*
X817538Y92369D01*
X817618Y91940D01*
X817688Y91509D01*
X817746Y91076D01*
X817794Y90643D01*
X817832Y90208D01*
X817859Y89772D01*
X817875Y89336D01*
X817880Y88900D01*
X817875Y88464D01*
X817859Y88028D01*
X817832Y87592D01*
X817794Y87157D01*
X817746Y86724D01*
X817688Y86291D01*
X817618Y85860D01*
X817538Y85431D01*
X817448Y85004D01*
X817347Y84580D01*
X817236Y84158D01*
X817114Y83739D01*
X816983Y83323D01*
X816841Y82910D01*
X816689Y82501D01*
X816527Y82096D01*
X816355Y81695D01*
X816173Y81298D01*
X815982Y80906D01*
X815781Y80519D01*
X815570Y80136D01*
X815350Y79759D01*
X815121Y79388D01*
X814884Y79022D01*
X814637Y78662D01*
X814381Y78308D01*
X814117Y77961D01*
X813844Y77620D01*
X813563Y77287D01*
X813274Y76960D01*
X812977Y76640D01*
X812672Y76328D01*
X812360Y76023D01*
X812040Y75726D01*
X811713Y75437D01*
X811380Y75156D01*
X811039Y74883D01*
X810692Y74619D01*
X810338Y74363D01*
X809978Y74116D01*
X809612Y73879D01*
X809241Y73650D01*
X808864Y73430D01*
X808481Y73219D01*
X808094Y73018D01*
X807702Y72827D01*
X807305Y72645D01*
X806904Y72473D01*
X806499Y72311D01*
X806090Y72159D01*
X805677Y72017D01*
X805261Y71886D01*
X804842Y71764D01*
X804420Y71653D01*
X803996Y71552D01*
X803569Y71462D01*
X803140Y71382D01*
X802709Y71312D01*
X802276Y71254D01*
X801843Y71206D01*
X801408Y71168D01*
X800972Y71141D01*
X800536Y71125D01*
X800100Y71120D01*
X799664Y71125D01*
X799228Y71141D01*
X798792Y71168D01*
X798357Y71206D01*
X797924Y71254D01*
X797491Y71312D01*
X797060Y71382D01*
X796631Y71462D01*
X796204Y71552D01*
X795780Y71653D01*
X795358Y71764D01*
X794939Y71886D01*
X794523Y72017D01*
X794110Y72159D01*
X793701Y72311D01*
X793296Y72473D01*
X792895Y72645D01*
X792498Y72827D01*
X792106Y73018D01*
X791719Y73219D01*
X791336Y73430D01*
X790959Y73650D01*
X790588Y73879D01*
X790222Y74116D01*
X789862Y74363D01*
X789508Y74619D01*
X789161Y74883D01*
X788820Y75156D01*
X788487Y75437D01*
X788160Y75726D01*
X787840Y76023D01*
X787528Y76328D01*
X787223Y76640D01*
X786926Y76960D01*
X786637Y77287D01*
X786356Y77620D01*
X786083Y77961D01*
X785819Y78308D01*
X785563Y78662D01*
X785316Y79022D01*
X785079Y79388D01*
X784850Y79759D01*
X784630Y80136D01*
X784419Y80519D01*
X784218Y80906D01*
X784027Y81298D01*
X783845Y81695D01*
X783673Y82096D01*
X783511Y82501D01*
X783359Y82910D01*
X783217Y83323D01*
X783086Y83739D01*
X782964Y84158D01*
X782853Y84580D01*
X782752Y85004D01*
X782662Y85431D01*
X782582Y85860D01*
X782512Y86291D01*
X782454Y86724D01*
X782406Y87157D01*
X782368Y87592D01*
X782341Y88028D01*
X782325Y88464D01*
X782320Y88900D01*
D12*
X779145Y127635D02*
X779245Y127637D01*
X779344Y127643D01*
X779444Y127653D01*
X779542Y127666D01*
X779641Y127684D01*
X779738Y127705D01*
X779834Y127730D01*
X779930Y127759D01*
X780024Y127792D01*
X780117Y127828D01*
X780208Y127868D01*
X780298Y127912D01*
X780386Y127959D01*
X780472Y128009D01*
X780556Y128063D01*
X780638Y128120D01*
X780717Y128180D01*
X780795Y128244D01*
X780869Y128310D01*
X780941Y128379D01*
X781010Y128451D01*
X781076Y128525D01*
X781140Y128603D01*
X781200Y128682D01*
X781257Y128764D01*
X781311Y128848D01*
X781361Y128934D01*
X781408Y129022D01*
X781452Y129112D01*
X781492Y129203D01*
X781528Y129296D01*
X781561Y129390D01*
X781590Y129486D01*
X781615Y129582D01*
X781636Y129679D01*
X781654Y129778D01*
X781667Y129876D01*
X781677Y129976D01*
X781683Y130075D01*
X781685Y130175D01*
X779145Y127635D02*
X779004Y127637D01*
X778863Y127642D01*
X778722Y127652D01*
X778581Y127665D01*
X778441Y127681D01*
X778301Y127702D01*
X778162Y127726D01*
X778023Y127754D01*
X777886Y127785D01*
X777749Y127820D01*
X777613Y127858D01*
X777478Y127900D01*
X777345Y127946D01*
X777212Y127995D01*
X777081Y128048D01*
X776952Y128104D01*
X776823Y128163D01*
X776697Y128226D01*
X776572Y128292D01*
X776449Y128361D01*
X776328Y128434D01*
X776209Y128510D01*
X776091Y128589D01*
X775976Y128670D01*
X775864Y128755D01*
X775753Y128843D01*
X775645Y128934D01*
X775539Y129027D01*
X775436Y129124D01*
X775335Y129223D01*
X775653Y136525D02*
X775655Y136625D01*
X775661Y136724D01*
X775671Y136824D01*
X775684Y136922D01*
X775702Y137021D01*
X775723Y137118D01*
X775748Y137214D01*
X775777Y137310D01*
X775810Y137404D01*
X775846Y137497D01*
X775886Y137588D01*
X775930Y137678D01*
X775977Y137766D01*
X776027Y137852D01*
X776081Y137936D01*
X776138Y138018D01*
X776198Y138097D01*
X776262Y138175D01*
X776328Y138249D01*
X776397Y138321D01*
X776469Y138390D01*
X776543Y138456D01*
X776621Y138520D01*
X776700Y138580D01*
X776782Y138637D01*
X776866Y138691D01*
X776952Y138741D01*
X777040Y138788D01*
X777130Y138832D01*
X777221Y138872D01*
X777314Y138908D01*
X777408Y138941D01*
X777504Y138970D01*
X777600Y138995D01*
X777697Y139016D01*
X777796Y139034D01*
X777894Y139047D01*
X777994Y139057D01*
X778093Y139063D01*
X778193Y139065D01*
X778193Y139066D02*
X778326Y139064D01*
X778459Y139059D01*
X778592Y139049D01*
X778725Y139036D01*
X778857Y139019D01*
X778989Y138999D01*
X779120Y138975D01*
X779250Y138947D01*
X779380Y138916D01*
X779508Y138881D01*
X779636Y138842D01*
X779762Y138800D01*
X779887Y138754D01*
X780011Y138705D01*
X780134Y138653D01*
X780255Y138597D01*
X780374Y138537D01*
X780492Y138475D01*
X780607Y138409D01*
X780721Y138340D01*
X780833Y138267D01*
X780943Y138192D01*
X781051Y138113D01*
X776922Y134302D02*
X776838Y134354D01*
X776755Y134409D01*
X776675Y134468D01*
X776597Y134529D01*
X776522Y134593D01*
X776449Y134661D01*
X776378Y134731D01*
X776311Y134803D01*
X776246Y134878D01*
X776184Y134956D01*
X776125Y135036D01*
X776069Y135118D01*
X776017Y135202D01*
X775968Y135288D01*
X775922Y135376D01*
X775879Y135466D01*
X775840Y135557D01*
X775805Y135650D01*
X775773Y135744D01*
X775745Y135839D01*
X775720Y135935D01*
X775700Y136032D01*
X775682Y136130D01*
X775669Y136228D01*
X775660Y136327D01*
X775654Y136426D01*
X775652Y136525D01*
X780415Y132398D02*
X780499Y132346D01*
X780582Y132291D01*
X780662Y132232D01*
X780740Y132171D01*
X780815Y132107D01*
X780888Y132039D01*
X780959Y131969D01*
X781026Y131897D01*
X781091Y131822D01*
X781153Y131744D01*
X781212Y131664D01*
X781268Y131582D01*
X781320Y131498D01*
X781369Y131412D01*
X781415Y131324D01*
X781458Y131234D01*
X781497Y131143D01*
X781532Y131050D01*
X781564Y130956D01*
X781592Y130861D01*
X781617Y130765D01*
X781637Y130668D01*
X781655Y130570D01*
X781668Y130472D01*
X781677Y130373D01*
X781683Y130274D01*
X781685Y130175D01*
X780415Y132398D02*
X776923Y134303D01*
X786384Y136525D02*
X789559Y139065D01*
X789559Y127635D01*
X786384Y127635D02*
X792734Y127635D01*
D13*
X1214120Y431800D02*
X1275080Y431800D01*
X1275080Y660400D02*
X1254760Y660400D01*
X1234440Y660400D02*
X1214120Y660400D01*
X1234440Y660400D02*
X1234443Y660153D01*
X1234452Y659905D01*
X1234467Y659658D01*
X1234488Y659412D01*
X1234515Y659166D01*
X1234548Y658921D01*
X1234587Y658676D01*
X1234632Y658433D01*
X1234683Y658191D01*
X1234740Y657950D01*
X1234802Y657711D01*
X1234871Y657473D01*
X1234945Y657237D01*
X1235025Y657003D01*
X1235110Y656771D01*
X1235202Y656541D01*
X1235298Y656313D01*
X1235401Y656088D01*
X1235508Y655865D01*
X1235622Y655645D01*
X1235740Y655428D01*
X1235864Y655213D01*
X1235993Y655002D01*
X1236127Y654794D01*
X1236266Y654589D01*
X1236410Y654388D01*
X1236558Y654190D01*
X1236712Y653996D01*
X1236870Y653806D01*
X1237033Y653620D01*
X1237200Y653438D01*
X1237372Y653260D01*
X1237548Y653086D01*
X1237728Y652916D01*
X1237913Y652751D01*
X1238101Y652591D01*
X1238293Y652435D01*
X1238489Y652283D01*
X1238688Y652137D01*
X1238891Y651995D01*
X1239098Y651859D01*
X1239307Y651727D01*
X1239520Y651601D01*
X1239736Y651480D01*
X1239954Y651364D01*
X1240176Y651254D01*
X1240400Y651149D01*
X1240626Y651049D01*
X1240855Y650955D01*
X1241086Y650867D01*
X1241320Y650784D01*
X1241555Y650707D01*
X1241792Y650636D01*
X1242030Y650570D01*
X1242270Y650511D01*
X1242512Y650457D01*
X1242755Y650409D01*
X1242998Y650367D01*
X1243243Y650331D01*
X1243489Y650301D01*
X1243735Y650277D01*
X1243982Y650259D01*
X1244229Y650247D01*
X1244476Y650241D01*
X1244724Y650241D01*
X1244971Y650247D01*
X1245218Y650259D01*
X1245465Y650277D01*
X1245711Y650301D01*
X1245957Y650331D01*
X1246202Y650367D01*
X1246445Y650409D01*
X1246688Y650457D01*
X1246930Y650511D01*
X1247170Y650570D01*
X1247408Y650636D01*
X1247645Y650707D01*
X1247880Y650784D01*
X1248114Y650867D01*
X1248345Y650955D01*
X1248574Y651049D01*
X1248800Y651149D01*
X1249024Y651254D01*
X1249246Y651364D01*
X1249464Y651480D01*
X1249680Y651601D01*
X1249893Y651727D01*
X1250102Y651859D01*
X1250309Y651995D01*
X1250512Y652137D01*
X1250711Y652283D01*
X1250907Y652435D01*
X1251099Y652591D01*
X1251287Y652751D01*
X1251472Y652916D01*
X1251652Y653086D01*
X1251828Y653260D01*
X1252000Y653438D01*
X1252167Y653620D01*
X1252330Y653806D01*
X1252488Y653996D01*
X1252642Y654190D01*
X1252790Y654388D01*
X1252934Y654589D01*
X1253073Y654794D01*
X1253207Y655002D01*
X1253336Y655213D01*
X1253460Y655428D01*
X1253578Y655645D01*
X1253692Y655865D01*
X1253799Y656088D01*
X1253902Y656313D01*
X1253998Y656541D01*
X1254090Y656771D01*
X1254175Y657003D01*
X1254255Y657237D01*
X1254329Y657473D01*
X1254398Y657711D01*
X1254460Y657950D01*
X1254517Y658191D01*
X1254568Y658433D01*
X1254613Y658676D01*
X1254652Y658921D01*
X1254685Y659166D01*
X1254712Y659412D01*
X1254733Y659658D01*
X1254748Y659905D01*
X1254757Y660153D01*
X1254760Y660400D01*
X1275080Y660400D02*
X1275080Y657860D01*
X1275080Y637540D02*
X1275080Y632460D01*
X1214120Y657860D02*
X1214120Y660400D01*
X1275080Y434340D02*
X1275080Y431800D01*
X1214120Y431800D02*
X1214120Y434340D01*
X1275080Y607060D02*
X1275080Y612140D01*
X1275080Y586740D02*
X1275080Y581660D01*
X1275080Y561340D02*
X1275080Y556260D01*
X1275080Y535940D02*
X1275080Y530860D01*
X1275080Y510540D02*
X1275080Y505460D01*
X1275080Y485140D02*
X1275080Y480060D01*
X1275080Y459740D02*
X1275080Y454660D01*
X1214120Y632460D02*
X1214120Y637540D01*
X1214120Y612140D02*
X1214120Y607060D01*
X1214120Y586740D02*
X1214120Y581660D01*
X1214120Y561340D02*
X1214120Y556260D01*
X1214120Y535940D02*
X1214120Y530860D01*
X1214120Y510540D02*
X1214120Y505460D01*
X1214120Y485140D02*
X1214120Y480060D01*
X1214120Y459740D02*
X1214120Y454660D01*
D12*
X1214755Y666750D02*
X1214755Y675005D01*
X1214755Y666750D02*
X1214757Y666639D01*
X1214763Y666529D01*
X1214772Y666418D01*
X1214786Y666308D01*
X1214803Y666199D01*
X1214824Y666090D01*
X1214849Y665982D01*
X1214878Y665875D01*
X1214910Y665769D01*
X1214946Y665664D01*
X1214986Y665561D01*
X1215029Y665459D01*
X1215076Y665358D01*
X1215127Y665259D01*
X1215180Y665163D01*
X1215237Y665068D01*
X1215298Y664975D01*
X1215361Y664884D01*
X1215428Y664795D01*
X1215498Y664709D01*
X1215571Y664626D01*
X1215646Y664544D01*
X1215724Y664466D01*
X1215806Y664391D01*
X1215889Y664318D01*
X1215975Y664248D01*
X1216064Y664181D01*
X1216155Y664118D01*
X1216248Y664057D01*
X1216343Y664000D01*
X1216439Y663947D01*
X1216538Y663896D01*
X1216639Y663849D01*
X1216741Y663806D01*
X1216844Y663766D01*
X1216949Y663730D01*
X1217055Y663698D01*
X1217162Y663669D01*
X1217270Y663644D01*
X1217379Y663623D01*
X1217488Y663606D01*
X1217598Y663592D01*
X1217709Y663583D01*
X1217819Y663577D01*
X1217930Y663575D01*
X1218041Y663577D01*
X1218151Y663583D01*
X1218262Y663592D01*
X1218372Y663606D01*
X1218481Y663623D01*
X1218590Y663644D01*
X1218698Y663669D01*
X1218805Y663698D01*
X1218911Y663730D01*
X1219016Y663766D01*
X1219119Y663806D01*
X1219221Y663849D01*
X1219322Y663896D01*
X1219421Y663947D01*
X1219518Y664000D01*
X1219612Y664057D01*
X1219705Y664118D01*
X1219796Y664181D01*
X1219885Y664248D01*
X1219971Y664318D01*
X1220054Y664391D01*
X1220136Y664466D01*
X1220214Y664544D01*
X1220289Y664626D01*
X1220362Y664709D01*
X1220432Y664795D01*
X1220499Y664884D01*
X1220562Y664975D01*
X1220623Y665068D01*
X1220680Y665163D01*
X1220733Y665259D01*
X1220784Y665358D01*
X1220831Y665459D01*
X1220874Y665561D01*
X1220914Y665664D01*
X1220950Y665769D01*
X1220982Y665875D01*
X1221011Y665982D01*
X1221036Y666090D01*
X1221057Y666199D01*
X1221074Y666308D01*
X1221088Y666418D01*
X1221097Y666529D01*
X1221103Y666639D01*
X1221105Y666750D01*
X1221105Y675005D01*
X1226972Y675005D02*
X1226972Y663575D01*
X1232052Y663575D01*
X1236853Y663575D02*
X1236853Y675005D01*
X1243203Y663575D01*
X1243203Y675005D01*
X1248664Y672465D02*
X1251839Y675005D01*
X1251839Y663575D01*
X1248664Y663575D02*
X1255014Y663575D01*
D10*
X1239520Y266700D02*
X1198880Y266700D01*
X1198880Y241300D01*
X1239520Y241300D01*
X1239520Y266700D01*
X1225550Y254000D02*
X1219200Y254000D01*
X1209040Y247650D02*
X1209040Y260350D01*
X1219200Y254000D01*
X1203960Y254000D01*
X1209040Y247650D02*
X1219200Y254000D01*
X1219200Y247650D01*
X1219200Y254000D02*
X1219200Y260350D01*
D12*
X1220724Y236855D02*
X1220724Y225425D01*
X1220724Y236855D02*
X1223899Y236855D01*
X1224010Y236853D01*
X1224120Y236847D01*
X1224231Y236838D01*
X1224341Y236824D01*
X1224450Y236807D01*
X1224559Y236786D01*
X1224667Y236761D01*
X1224774Y236732D01*
X1224880Y236700D01*
X1224985Y236664D01*
X1225088Y236624D01*
X1225190Y236581D01*
X1225291Y236534D01*
X1225390Y236483D01*
X1225487Y236430D01*
X1225581Y236373D01*
X1225674Y236312D01*
X1225765Y236249D01*
X1225854Y236182D01*
X1225940Y236112D01*
X1226023Y236039D01*
X1226105Y235964D01*
X1226183Y235886D01*
X1226258Y235804D01*
X1226331Y235721D01*
X1226401Y235635D01*
X1226468Y235546D01*
X1226531Y235455D01*
X1226592Y235362D01*
X1226649Y235268D01*
X1226702Y235171D01*
X1226753Y235072D01*
X1226800Y234971D01*
X1226843Y234869D01*
X1226883Y234766D01*
X1226919Y234661D01*
X1226951Y234555D01*
X1226980Y234448D01*
X1227005Y234340D01*
X1227026Y234231D01*
X1227043Y234122D01*
X1227057Y234012D01*
X1227066Y233901D01*
X1227072Y233791D01*
X1227074Y233680D01*
X1227074Y228600D01*
X1227072Y228489D01*
X1227066Y228379D01*
X1227057Y228268D01*
X1227043Y228158D01*
X1227026Y228049D01*
X1227005Y227940D01*
X1226980Y227832D01*
X1226951Y227725D01*
X1226919Y227619D01*
X1226883Y227514D01*
X1226843Y227411D01*
X1226800Y227309D01*
X1226753Y227208D01*
X1226702Y227109D01*
X1226649Y227012D01*
X1226592Y226918D01*
X1226531Y226825D01*
X1226468Y226734D01*
X1226401Y226645D01*
X1226331Y226559D01*
X1226258Y226476D01*
X1226183Y226394D01*
X1226105Y226316D01*
X1226023Y226241D01*
X1225940Y226168D01*
X1225854Y226098D01*
X1225765Y226031D01*
X1225674Y225968D01*
X1225581Y225907D01*
X1225487Y225850D01*
X1225390Y225797D01*
X1225291Y225746D01*
X1225190Y225699D01*
X1225088Y225656D01*
X1224985Y225616D01*
X1224880Y225580D01*
X1224774Y225548D01*
X1224667Y225519D01*
X1224559Y225494D01*
X1224450Y225473D01*
X1224341Y225456D01*
X1224231Y225442D01*
X1224120Y225433D01*
X1224010Y225427D01*
X1223899Y225425D01*
X1220724Y225425D01*
X1232535Y234315D02*
X1235710Y236855D01*
X1235710Y225425D01*
X1232535Y225425D02*
X1238885Y225425D01*
D16*
X1233170Y254000D03*
D17*
X1189355Y254000D03*
X1249045Y254000D03*
D10*
X1236980Y762000D02*
X1277620Y762000D01*
X1236980Y762000D02*
X1236980Y736600D01*
X1277620Y736600D01*
X1277620Y762000D01*
X1263650Y749300D02*
X1257300Y749300D01*
X1247140Y742950D02*
X1247140Y755650D01*
X1257300Y749300D01*
X1242060Y749300D01*
X1247140Y742950D02*
X1257300Y749300D01*
X1257300Y742950D01*
X1257300Y749300D02*
X1257300Y755650D01*
D12*
X1258824Y732155D02*
X1258824Y720725D01*
X1258824Y732155D02*
X1261999Y732155D01*
X1262110Y732153D01*
X1262220Y732147D01*
X1262331Y732138D01*
X1262441Y732124D01*
X1262550Y732107D01*
X1262659Y732086D01*
X1262767Y732061D01*
X1262874Y732032D01*
X1262980Y732000D01*
X1263085Y731964D01*
X1263188Y731924D01*
X1263290Y731881D01*
X1263391Y731834D01*
X1263490Y731783D01*
X1263587Y731730D01*
X1263681Y731673D01*
X1263774Y731612D01*
X1263865Y731549D01*
X1263954Y731482D01*
X1264040Y731412D01*
X1264123Y731339D01*
X1264205Y731264D01*
X1264283Y731186D01*
X1264358Y731104D01*
X1264431Y731021D01*
X1264501Y730935D01*
X1264568Y730846D01*
X1264631Y730755D01*
X1264692Y730662D01*
X1264749Y730568D01*
X1264802Y730471D01*
X1264853Y730372D01*
X1264900Y730271D01*
X1264943Y730169D01*
X1264983Y730066D01*
X1265019Y729961D01*
X1265051Y729855D01*
X1265080Y729748D01*
X1265105Y729640D01*
X1265126Y729531D01*
X1265143Y729422D01*
X1265157Y729312D01*
X1265166Y729201D01*
X1265172Y729091D01*
X1265174Y728980D01*
X1265174Y723900D01*
X1265172Y723789D01*
X1265166Y723679D01*
X1265157Y723568D01*
X1265143Y723458D01*
X1265126Y723349D01*
X1265105Y723240D01*
X1265080Y723132D01*
X1265051Y723025D01*
X1265019Y722919D01*
X1264983Y722814D01*
X1264943Y722711D01*
X1264900Y722609D01*
X1264853Y722508D01*
X1264802Y722409D01*
X1264749Y722313D01*
X1264692Y722218D01*
X1264631Y722125D01*
X1264568Y722034D01*
X1264501Y721945D01*
X1264431Y721859D01*
X1264358Y721776D01*
X1264283Y721694D01*
X1264205Y721616D01*
X1264123Y721541D01*
X1264040Y721468D01*
X1263954Y721398D01*
X1263865Y721331D01*
X1263774Y721268D01*
X1263681Y721207D01*
X1263587Y721150D01*
X1263490Y721097D01*
X1263391Y721046D01*
X1263290Y720999D01*
X1263188Y720956D01*
X1263085Y720916D01*
X1262980Y720880D01*
X1262874Y720848D01*
X1262767Y720819D01*
X1262659Y720794D01*
X1262550Y720773D01*
X1262441Y720756D01*
X1262331Y720742D01*
X1262220Y720733D01*
X1262110Y720727D01*
X1261999Y720725D01*
X1258824Y720725D01*
X1274128Y732156D02*
X1274232Y732154D01*
X1274337Y732148D01*
X1274441Y732139D01*
X1274544Y732126D01*
X1274647Y732108D01*
X1274749Y732088D01*
X1274851Y732063D01*
X1274951Y732035D01*
X1275051Y732003D01*
X1275149Y731967D01*
X1275246Y731928D01*
X1275341Y731886D01*
X1275435Y731840D01*
X1275527Y731790D01*
X1275617Y731738D01*
X1275705Y731682D01*
X1275791Y731622D01*
X1275875Y731560D01*
X1275956Y731495D01*
X1276035Y731427D01*
X1276112Y731355D01*
X1276185Y731282D01*
X1276257Y731205D01*
X1276325Y731126D01*
X1276390Y731045D01*
X1276452Y730961D01*
X1276512Y730875D01*
X1276568Y730787D01*
X1276620Y730697D01*
X1276670Y730605D01*
X1276716Y730511D01*
X1276758Y730416D01*
X1276797Y730319D01*
X1276833Y730221D01*
X1276865Y730121D01*
X1276893Y730021D01*
X1276918Y729919D01*
X1276938Y729817D01*
X1276956Y729714D01*
X1276969Y729611D01*
X1276978Y729507D01*
X1276984Y729402D01*
X1276986Y729298D01*
X1274128Y732155D02*
X1274010Y732153D01*
X1273891Y732147D01*
X1273773Y732138D01*
X1273656Y732125D01*
X1273539Y732107D01*
X1273422Y732087D01*
X1273306Y732062D01*
X1273191Y732034D01*
X1273078Y732001D01*
X1272965Y731966D01*
X1272853Y731926D01*
X1272743Y731884D01*
X1272634Y731837D01*
X1272526Y731787D01*
X1272421Y731734D01*
X1272317Y731677D01*
X1272215Y731617D01*
X1272115Y731554D01*
X1272017Y731487D01*
X1271921Y731418D01*
X1271828Y731345D01*
X1271737Y731269D01*
X1271648Y731191D01*
X1271562Y731109D01*
X1271479Y731025D01*
X1271398Y730939D01*
X1271321Y730849D01*
X1271246Y730758D01*
X1271174Y730664D01*
X1271105Y730567D01*
X1271040Y730469D01*
X1270977Y730368D01*
X1270918Y730265D01*
X1270862Y730161D01*
X1270810Y730055D01*
X1270761Y729947D01*
X1270716Y729838D01*
X1270674Y729727D01*
X1270636Y729615D01*
X1276033Y727076D02*
X1276109Y727151D01*
X1276184Y727230D01*
X1276255Y727311D01*
X1276324Y727395D01*
X1276389Y727481D01*
X1276451Y727569D01*
X1276511Y727659D01*
X1276567Y727751D01*
X1276620Y727846D01*
X1276669Y727942D01*
X1276715Y728040D01*
X1276758Y728139D01*
X1276797Y728240D01*
X1276832Y728342D01*
X1276864Y728445D01*
X1276892Y728549D01*
X1276917Y728654D01*
X1276938Y728761D01*
X1276955Y728867D01*
X1276968Y728974D01*
X1276977Y729082D01*
X1276983Y729190D01*
X1276985Y729298D01*
X1276033Y727075D02*
X1270635Y720725D01*
X1276985Y720725D01*
D16*
X1271270Y749300D03*
D17*
X1227455Y749300D03*
X1287145Y749300D03*
D13*
X1339850Y838200D02*
X1352550Y838200D01*
X1358900Y831850D01*
X1358900Y819150D02*
X1352550Y812800D01*
X1358900Y831850D02*
X1365250Y838200D01*
X1377950Y838200D01*
X1384300Y831850D01*
X1384300Y819150D02*
X1377950Y812800D01*
X1365250Y812800D01*
X1358900Y819150D01*
X1333500Y819150D02*
X1333500Y831850D01*
X1339850Y838200D01*
X1333500Y819150D02*
X1339850Y812800D01*
X1352550Y812800D01*
X1384300Y819150D02*
X1384300Y831850D01*
X1337225Y854992D02*
X1337225Y861314D01*
X1337225Y854992D02*
X1337223Y854909D01*
X1337217Y854825D01*
X1337208Y854742D01*
X1337194Y854660D01*
X1337177Y854579D01*
X1337156Y854498D01*
X1337131Y854418D01*
X1337103Y854340D01*
X1337071Y854263D01*
X1337036Y854187D01*
X1336997Y854113D01*
X1336954Y854041D01*
X1336909Y853971D01*
X1336860Y853904D01*
X1336808Y853838D01*
X1336754Y853775D01*
X1336696Y853715D01*
X1336636Y853657D01*
X1336573Y853603D01*
X1336507Y853551D01*
X1336440Y853502D01*
X1336370Y853457D01*
X1336298Y853414D01*
X1336224Y853375D01*
X1336149Y853340D01*
X1336071Y853308D01*
X1335993Y853280D01*
X1335913Y853255D01*
X1335833Y853234D01*
X1335751Y853217D01*
X1335669Y853203D01*
X1335586Y853194D01*
X1335502Y853188D01*
X1335419Y853186D01*
X1334516Y853186D01*
X1342093Y859508D02*
X1344351Y861314D01*
X1344351Y853186D01*
X1342093Y853186D02*
X1346609Y853186D01*
X1351395Y856347D02*
X1356814Y856347D01*
X1364005Y853186D02*
X1364088Y853188D01*
X1364172Y853194D01*
X1364255Y853203D01*
X1364337Y853217D01*
X1364419Y853234D01*
X1364499Y853255D01*
X1364579Y853280D01*
X1364657Y853308D01*
X1364735Y853340D01*
X1364810Y853375D01*
X1364884Y853414D01*
X1364956Y853457D01*
X1365026Y853502D01*
X1365093Y853551D01*
X1365159Y853603D01*
X1365222Y853657D01*
X1365282Y853715D01*
X1365340Y853775D01*
X1365394Y853838D01*
X1365446Y853904D01*
X1365495Y853971D01*
X1365540Y854041D01*
X1365583Y854113D01*
X1365622Y854187D01*
X1365657Y854263D01*
X1365689Y854340D01*
X1365717Y854418D01*
X1365742Y854498D01*
X1365763Y854579D01*
X1365780Y854660D01*
X1365794Y854742D01*
X1365803Y854825D01*
X1365809Y854909D01*
X1365811Y854992D01*
X1364005Y853186D02*
X1363885Y853188D01*
X1363764Y853194D01*
X1363644Y853203D01*
X1363524Y853216D01*
X1363405Y853233D01*
X1363286Y853254D01*
X1363168Y853279D01*
X1363051Y853307D01*
X1362935Y853339D01*
X1362820Y853375D01*
X1362706Y853414D01*
X1362593Y853457D01*
X1362482Y853503D01*
X1362373Y853553D01*
X1362264Y853606D01*
X1362158Y853663D01*
X1362054Y853723D01*
X1361951Y853786D01*
X1361851Y853853D01*
X1361752Y853922D01*
X1361656Y853995D01*
X1361562Y854070D01*
X1361471Y854149D01*
X1361382Y854231D01*
X1361296Y854315D01*
X1361522Y859508D02*
X1361524Y859591D01*
X1361530Y859675D01*
X1361539Y859758D01*
X1361553Y859840D01*
X1361570Y859921D01*
X1361591Y860002D01*
X1361616Y860082D01*
X1361644Y860160D01*
X1361676Y860237D01*
X1361711Y860313D01*
X1361750Y860387D01*
X1361793Y860459D01*
X1361838Y860529D01*
X1361887Y860596D01*
X1361939Y860662D01*
X1361993Y860725D01*
X1362051Y860785D01*
X1362111Y860843D01*
X1362174Y860897D01*
X1362240Y860949D01*
X1362307Y860998D01*
X1362377Y861043D01*
X1362449Y861086D01*
X1362523Y861125D01*
X1362599Y861160D01*
X1362676Y861192D01*
X1362754Y861220D01*
X1362834Y861245D01*
X1362915Y861266D01*
X1362996Y861283D01*
X1363078Y861297D01*
X1363161Y861306D01*
X1363245Y861312D01*
X1363328Y861314D01*
X1363443Y861312D01*
X1363557Y861306D01*
X1363672Y861297D01*
X1363785Y861283D01*
X1363899Y861266D01*
X1364012Y861244D01*
X1364123Y861219D01*
X1364235Y861190D01*
X1364345Y861158D01*
X1364453Y861122D01*
X1364561Y861082D01*
X1364667Y861038D01*
X1364772Y860991D01*
X1364874Y860940D01*
X1364976Y860886D01*
X1365075Y860829D01*
X1365172Y860768D01*
X1365267Y860704D01*
X1365360Y860637D01*
X1362425Y857928D02*
X1362355Y857972D01*
X1362286Y858018D01*
X1362220Y858068D01*
X1362156Y858121D01*
X1362095Y858176D01*
X1362036Y858235D01*
X1361980Y858296D01*
X1361927Y858359D01*
X1361876Y858425D01*
X1361829Y858492D01*
X1361785Y858562D01*
X1361744Y858634D01*
X1361706Y858708D01*
X1361671Y858783D01*
X1361640Y858860D01*
X1361613Y858938D01*
X1361589Y859017D01*
X1361569Y859098D01*
X1361552Y859179D01*
X1361539Y859260D01*
X1361529Y859343D01*
X1361524Y859425D01*
X1361522Y859508D01*
X1364908Y856572D02*
X1364978Y856528D01*
X1365047Y856482D01*
X1365113Y856432D01*
X1365177Y856379D01*
X1365238Y856324D01*
X1365297Y856265D01*
X1365353Y856204D01*
X1365406Y856141D01*
X1365457Y856075D01*
X1365504Y856008D01*
X1365548Y855938D01*
X1365589Y855866D01*
X1365627Y855792D01*
X1365662Y855717D01*
X1365693Y855640D01*
X1365720Y855562D01*
X1365744Y855483D01*
X1365764Y855402D01*
X1365781Y855321D01*
X1365794Y855240D01*
X1365804Y855157D01*
X1365809Y855075D01*
X1365811Y854992D01*
X1364908Y856573D02*
X1362425Y857927D01*
X1370135Y859056D02*
X1370135Y855444D01*
X1370135Y859056D02*
X1370137Y859149D01*
X1370143Y859242D01*
X1370152Y859335D01*
X1370166Y859428D01*
X1370183Y859519D01*
X1370204Y859610D01*
X1370229Y859700D01*
X1370257Y859789D01*
X1370289Y859877D01*
X1370325Y859963D01*
X1370364Y860048D01*
X1370407Y860131D01*
X1370453Y860212D01*
X1370503Y860291D01*
X1370555Y860368D01*
X1370611Y860443D01*
X1370670Y860515D01*
X1370732Y860585D01*
X1370796Y860653D01*
X1370864Y860717D01*
X1370934Y860779D01*
X1371006Y860838D01*
X1371081Y860894D01*
X1371158Y860946D01*
X1371237Y860996D01*
X1371318Y861042D01*
X1371401Y861085D01*
X1371486Y861124D01*
X1371572Y861160D01*
X1371660Y861192D01*
X1371749Y861220D01*
X1371839Y861245D01*
X1371930Y861266D01*
X1372021Y861283D01*
X1372114Y861297D01*
X1372207Y861306D01*
X1372300Y861312D01*
X1372393Y861314D01*
X1372486Y861312D01*
X1372579Y861306D01*
X1372672Y861297D01*
X1372765Y861283D01*
X1372856Y861266D01*
X1372947Y861245D01*
X1373037Y861220D01*
X1373126Y861192D01*
X1373214Y861160D01*
X1373300Y861124D01*
X1373385Y861085D01*
X1373468Y861042D01*
X1373549Y860996D01*
X1373628Y860946D01*
X1373705Y860894D01*
X1373780Y860838D01*
X1373852Y860779D01*
X1373922Y860717D01*
X1373990Y860653D01*
X1374054Y860585D01*
X1374116Y860515D01*
X1374175Y860443D01*
X1374231Y860368D01*
X1374283Y860291D01*
X1374333Y860212D01*
X1374379Y860131D01*
X1374422Y860048D01*
X1374461Y859963D01*
X1374497Y859877D01*
X1374529Y859789D01*
X1374557Y859700D01*
X1374582Y859610D01*
X1374603Y859519D01*
X1374620Y859428D01*
X1374634Y859335D01*
X1374643Y859242D01*
X1374649Y859149D01*
X1374651Y859056D01*
X1374650Y859056D02*
X1374650Y855444D01*
X1374651Y855444D02*
X1374649Y855351D01*
X1374643Y855258D01*
X1374634Y855165D01*
X1374620Y855072D01*
X1374603Y854981D01*
X1374582Y854890D01*
X1374557Y854800D01*
X1374529Y854711D01*
X1374497Y854623D01*
X1374461Y854537D01*
X1374422Y854452D01*
X1374379Y854369D01*
X1374333Y854288D01*
X1374283Y854209D01*
X1374231Y854132D01*
X1374175Y854057D01*
X1374116Y853985D01*
X1374054Y853915D01*
X1373990Y853847D01*
X1373922Y853783D01*
X1373852Y853721D01*
X1373780Y853662D01*
X1373705Y853606D01*
X1373628Y853554D01*
X1373549Y853504D01*
X1373468Y853458D01*
X1373385Y853415D01*
X1373300Y853376D01*
X1373214Y853340D01*
X1373126Y853308D01*
X1373037Y853280D01*
X1372947Y853255D01*
X1372856Y853234D01*
X1372765Y853217D01*
X1372672Y853203D01*
X1372579Y853194D01*
X1372486Y853188D01*
X1372393Y853186D01*
X1372300Y853188D01*
X1372207Y853194D01*
X1372114Y853203D01*
X1372021Y853217D01*
X1371930Y853234D01*
X1371839Y853255D01*
X1371749Y853280D01*
X1371660Y853308D01*
X1371572Y853340D01*
X1371486Y853376D01*
X1371401Y853415D01*
X1371318Y853458D01*
X1371237Y853504D01*
X1371158Y853554D01*
X1371081Y853606D01*
X1371006Y853662D01*
X1370934Y853721D01*
X1370864Y853783D01*
X1370796Y853847D01*
X1370732Y853915D01*
X1370670Y853985D01*
X1370611Y854057D01*
X1370555Y854132D01*
X1370503Y854209D01*
X1370453Y854288D01*
X1370407Y854369D01*
X1370364Y854452D01*
X1370325Y854537D01*
X1370289Y854623D01*
X1370257Y854711D01*
X1370229Y854800D01*
X1370204Y854890D01*
X1370183Y854981D01*
X1370166Y855072D01*
X1370152Y855165D01*
X1370143Y855258D01*
X1370137Y855351D01*
X1370135Y855444D01*
X1379615Y853186D02*
X1379615Y861314D01*
X1379615Y853186D02*
X1383228Y853186D01*
X1387540Y853186D02*
X1391152Y853186D01*
X1387540Y853186D02*
X1387540Y861314D01*
X1391152Y861314D01*
X1390249Y857702D02*
X1387540Y857702D01*
X1395433Y861314D02*
X1395433Y853186D01*
X1399949Y853186D02*
X1395433Y861314D01*
X1399949Y861314D02*
X1399949Y853186D01*
X1404882Y855444D02*
X1404882Y859056D01*
X1404884Y859149D01*
X1404890Y859242D01*
X1404899Y859335D01*
X1404913Y859428D01*
X1404930Y859519D01*
X1404951Y859610D01*
X1404976Y859700D01*
X1405004Y859789D01*
X1405036Y859877D01*
X1405072Y859963D01*
X1405111Y860048D01*
X1405154Y860131D01*
X1405200Y860212D01*
X1405250Y860291D01*
X1405302Y860368D01*
X1405358Y860443D01*
X1405417Y860515D01*
X1405479Y860585D01*
X1405543Y860653D01*
X1405611Y860717D01*
X1405681Y860779D01*
X1405753Y860838D01*
X1405828Y860894D01*
X1405905Y860946D01*
X1405984Y860996D01*
X1406065Y861042D01*
X1406148Y861085D01*
X1406233Y861124D01*
X1406319Y861160D01*
X1406407Y861192D01*
X1406496Y861220D01*
X1406586Y861245D01*
X1406677Y861266D01*
X1406768Y861283D01*
X1406861Y861297D01*
X1406954Y861306D01*
X1407047Y861312D01*
X1407140Y861314D01*
X1407233Y861312D01*
X1407326Y861306D01*
X1407419Y861297D01*
X1407512Y861283D01*
X1407603Y861266D01*
X1407694Y861245D01*
X1407784Y861220D01*
X1407873Y861192D01*
X1407961Y861160D01*
X1408047Y861124D01*
X1408132Y861085D01*
X1408215Y861042D01*
X1408296Y860996D01*
X1408375Y860946D01*
X1408452Y860894D01*
X1408527Y860838D01*
X1408599Y860779D01*
X1408669Y860717D01*
X1408737Y860653D01*
X1408801Y860585D01*
X1408863Y860515D01*
X1408922Y860443D01*
X1408978Y860368D01*
X1409030Y860291D01*
X1409080Y860212D01*
X1409126Y860131D01*
X1409169Y860048D01*
X1409208Y859963D01*
X1409244Y859877D01*
X1409276Y859789D01*
X1409304Y859700D01*
X1409329Y859610D01*
X1409350Y859519D01*
X1409367Y859428D01*
X1409381Y859335D01*
X1409390Y859242D01*
X1409396Y859149D01*
X1409398Y859056D01*
X1409398Y855444D01*
X1409396Y855351D01*
X1409390Y855258D01*
X1409381Y855165D01*
X1409367Y855072D01*
X1409350Y854981D01*
X1409329Y854890D01*
X1409304Y854800D01*
X1409276Y854711D01*
X1409244Y854623D01*
X1409208Y854537D01*
X1409169Y854452D01*
X1409126Y854369D01*
X1409080Y854288D01*
X1409030Y854209D01*
X1408978Y854132D01*
X1408922Y854057D01*
X1408863Y853985D01*
X1408801Y853915D01*
X1408737Y853847D01*
X1408669Y853783D01*
X1408599Y853721D01*
X1408527Y853662D01*
X1408452Y853606D01*
X1408375Y853554D01*
X1408296Y853504D01*
X1408215Y853458D01*
X1408132Y853415D01*
X1408047Y853376D01*
X1407961Y853340D01*
X1407873Y853308D01*
X1407784Y853280D01*
X1407694Y853255D01*
X1407603Y853234D01*
X1407512Y853217D01*
X1407419Y853203D01*
X1407326Y853194D01*
X1407233Y853188D01*
X1407140Y853186D01*
X1407047Y853188D01*
X1406954Y853194D01*
X1406861Y853203D01*
X1406768Y853217D01*
X1406677Y853234D01*
X1406586Y853255D01*
X1406496Y853280D01*
X1406407Y853308D01*
X1406319Y853340D01*
X1406233Y853376D01*
X1406148Y853415D01*
X1406065Y853458D01*
X1405984Y853504D01*
X1405905Y853554D01*
X1405828Y853606D01*
X1405753Y853662D01*
X1405681Y853721D01*
X1405611Y853783D01*
X1405543Y853847D01*
X1405479Y853915D01*
X1405417Y853985D01*
X1405358Y854057D01*
X1405302Y854132D01*
X1405250Y854209D01*
X1405200Y854288D01*
X1405154Y854369D01*
X1405111Y854452D01*
X1405072Y854537D01*
X1405036Y854623D01*
X1405004Y854711D01*
X1404976Y854800D01*
X1404951Y854890D01*
X1404930Y854981D01*
X1404913Y855072D01*
X1404899Y855165D01*
X1404890Y855258D01*
X1404884Y855351D01*
X1404882Y855444D01*
X1414455Y853186D02*
X1414455Y861314D01*
X1413552Y853186D02*
X1415358Y853186D01*
X1415358Y861314D02*
X1413552Y861314D01*
X1419817Y861314D02*
X1419817Y853186D01*
X1419817Y861314D02*
X1422075Y861314D01*
X1422168Y861312D01*
X1422261Y861306D01*
X1422354Y861297D01*
X1422447Y861283D01*
X1422538Y861266D01*
X1422629Y861245D01*
X1422719Y861220D01*
X1422808Y861192D01*
X1422896Y861160D01*
X1422982Y861124D01*
X1423067Y861085D01*
X1423150Y861042D01*
X1423231Y860996D01*
X1423310Y860946D01*
X1423387Y860894D01*
X1423462Y860838D01*
X1423534Y860779D01*
X1423604Y860717D01*
X1423672Y860653D01*
X1423736Y860585D01*
X1423798Y860515D01*
X1423857Y860443D01*
X1423913Y860368D01*
X1423965Y860291D01*
X1424015Y860212D01*
X1424061Y860131D01*
X1424104Y860048D01*
X1424143Y859963D01*
X1424179Y859877D01*
X1424211Y859789D01*
X1424239Y859700D01*
X1424264Y859610D01*
X1424285Y859519D01*
X1424302Y859428D01*
X1424316Y859335D01*
X1424325Y859242D01*
X1424331Y859149D01*
X1424333Y859056D01*
X1424333Y855444D01*
X1424331Y855351D01*
X1424325Y855258D01*
X1424316Y855165D01*
X1424302Y855072D01*
X1424285Y854981D01*
X1424264Y854890D01*
X1424239Y854800D01*
X1424211Y854711D01*
X1424179Y854623D01*
X1424143Y854537D01*
X1424104Y854452D01*
X1424061Y854369D01*
X1424015Y854288D01*
X1423965Y854209D01*
X1423913Y854132D01*
X1423857Y854057D01*
X1423798Y853985D01*
X1423736Y853915D01*
X1423672Y853847D01*
X1423604Y853783D01*
X1423534Y853721D01*
X1423462Y853662D01*
X1423387Y853606D01*
X1423310Y853554D01*
X1423231Y853504D01*
X1423150Y853458D01*
X1423067Y853415D01*
X1422982Y853376D01*
X1422896Y853340D01*
X1422808Y853308D01*
X1422719Y853280D01*
X1422629Y853255D01*
X1422538Y853234D01*
X1422447Y853217D01*
X1422354Y853203D01*
X1422261Y853194D01*
X1422168Y853188D01*
X1422075Y853186D01*
X1419817Y853186D01*
X1429602Y853186D02*
X1429602Y861314D01*
X1429602Y853186D02*
X1433215Y853186D01*
X1437191Y855444D02*
X1437191Y859056D01*
X1437190Y859056D02*
X1437192Y859149D01*
X1437198Y859242D01*
X1437207Y859335D01*
X1437221Y859428D01*
X1437238Y859519D01*
X1437259Y859610D01*
X1437284Y859700D01*
X1437312Y859789D01*
X1437344Y859877D01*
X1437380Y859963D01*
X1437419Y860048D01*
X1437462Y860131D01*
X1437508Y860212D01*
X1437558Y860291D01*
X1437610Y860368D01*
X1437666Y860443D01*
X1437725Y860515D01*
X1437787Y860585D01*
X1437851Y860653D01*
X1437919Y860717D01*
X1437989Y860779D01*
X1438061Y860838D01*
X1438136Y860894D01*
X1438213Y860946D01*
X1438292Y860996D01*
X1438373Y861042D01*
X1438456Y861085D01*
X1438541Y861124D01*
X1438627Y861160D01*
X1438715Y861192D01*
X1438804Y861220D01*
X1438894Y861245D01*
X1438985Y861266D01*
X1439076Y861283D01*
X1439169Y861297D01*
X1439262Y861306D01*
X1439355Y861312D01*
X1439448Y861314D01*
X1439541Y861312D01*
X1439634Y861306D01*
X1439727Y861297D01*
X1439820Y861283D01*
X1439911Y861266D01*
X1440002Y861245D01*
X1440092Y861220D01*
X1440181Y861192D01*
X1440269Y861160D01*
X1440355Y861124D01*
X1440440Y861085D01*
X1440523Y861042D01*
X1440604Y860996D01*
X1440683Y860946D01*
X1440760Y860894D01*
X1440835Y860838D01*
X1440907Y860779D01*
X1440977Y860717D01*
X1441045Y860653D01*
X1441109Y860585D01*
X1441171Y860515D01*
X1441230Y860443D01*
X1441286Y860368D01*
X1441338Y860291D01*
X1441388Y860212D01*
X1441434Y860131D01*
X1441477Y860048D01*
X1441516Y859963D01*
X1441552Y859877D01*
X1441584Y859789D01*
X1441612Y859700D01*
X1441637Y859610D01*
X1441658Y859519D01*
X1441675Y859428D01*
X1441689Y859335D01*
X1441698Y859242D01*
X1441704Y859149D01*
X1441706Y859056D01*
X1441706Y855444D01*
X1441704Y855351D01*
X1441698Y855258D01*
X1441689Y855165D01*
X1441675Y855072D01*
X1441658Y854981D01*
X1441637Y854890D01*
X1441612Y854800D01*
X1441584Y854711D01*
X1441552Y854623D01*
X1441516Y854537D01*
X1441477Y854452D01*
X1441434Y854369D01*
X1441388Y854288D01*
X1441338Y854209D01*
X1441286Y854132D01*
X1441230Y854057D01*
X1441171Y853985D01*
X1441109Y853915D01*
X1441045Y853847D01*
X1440977Y853783D01*
X1440907Y853721D01*
X1440835Y853662D01*
X1440760Y853606D01*
X1440683Y853554D01*
X1440604Y853504D01*
X1440523Y853458D01*
X1440440Y853415D01*
X1440355Y853376D01*
X1440269Y853340D01*
X1440181Y853308D01*
X1440092Y853280D01*
X1440002Y853255D01*
X1439911Y853234D01*
X1439820Y853217D01*
X1439727Y853203D01*
X1439634Y853194D01*
X1439541Y853188D01*
X1439448Y853186D01*
X1439355Y853188D01*
X1439262Y853194D01*
X1439169Y853203D01*
X1439076Y853217D01*
X1438985Y853234D01*
X1438894Y853255D01*
X1438804Y853280D01*
X1438715Y853308D01*
X1438627Y853340D01*
X1438541Y853376D01*
X1438456Y853415D01*
X1438373Y853458D01*
X1438292Y853504D01*
X1438213Y853554D01*
X1438136Y853606D01*
X1438061Y853662D01*
X1437989Y853721D01*
X1437919Y853783D01*
X1437851Y853847D01*
X1437787Y853915D01*
X1437725Y853985D01*
X1437666Y854057D01*
X1437610Y854132D01*
X1437558Y854209D01*
X1437508Y854288D01*
X1437462Y854369D01*
X1437419Y854452D01*
X1437380Y854537D01*
X1437344Y854623D01*
X1437312Y854711D01*
X1437284Y854800D01*
X1437259Y854890D01*
X1437238Y854981D01*
X1437221Y855072D01*
X1437207Y855165D01*
X1437198Y855258D01*
X1437192Y855351D01*
X1437190Y855444D01*
X1448094Y853186D02*
X1449901Y853186D01*
X1448094Y853186D02*
X1448011Y853188D01*
X1447927Y853194D01*
X1447844Y853203D01*
X1447762Y853217D01*
X1447681Y853234D01*
X1447600Y853255D01*
X1447520Y853280D01*
X1447442Y853308D01*
X1447365Y853340D01*
X1447289Y853375D01*
X1447215Y853414D01*
X1447143Y853457D01*
X1447073Y853502D01*
X1447006Y853551D01*
X1446940Y853603D01*
X1446877Y853657D01*
X1446817Y853715D01*
X1446759Y853775D01*
X1446705Y853838D01*
X1446653Y853904D01*
X1446604Y853971D01*
X1446559Y854041D01*
X1446516Y854113D01*
X1446477Y854187D01*
X1446442Y854263D01*
X1446410Y854340D01*
X1446382Y854418D01*
X1446357Y854498D01*
X1446336Y854579D01*
X1446319Y854660D01*
X1446305Y854742D01*
X1446296Y854825D01*
X1446290Y854909D01*
X1446288Y854992D01*
X1446288Y859508D01*
X1446290Y859591D01*
X1446296Y859675D01*
X1446305Y859758D01*
X1446319Y859840D01*
X1446336Y859921D01*
X1446357Y860002D01*
X1446382Y860082D01*
X1446410Y860160D01*
X1446442Y860237D01*
X1446477Y860313D01*
X1446516Y860387D01*
X1446559Y860459D01*
X1446604Y860529D01*
X1446653Y860596D01*
X1446705Y860662D01*
X1446759Y860725D01*
X1446817Y860785D01*
X1446877Y860843D01*
X1446940Y860897D01*
X1447006Y860949D01*
X1447073Y860998D01*
X1447143Y861043D01*
X1447215Y861086D01*
X1447289Y861125D01*
X1447364Y861160D01*
X1447442Y861192D01*
X1447520Y861220D01*
X1447600Y861245D01*
X1447680Y861266D01*
X1447762Y861283D01*
X1447844Y861297D01*
X1447927Y861306D01*
X1448011Y861312D01*
X1448094Y861314D01*
X1449901Y861314D01*
X1454496Y861314D02*
X1454496Y853186D01*
X1454496Y856347D02*
X1459012Y861314D01*
X1456303Y858153D02*
X1459012Y853186D01*
X1244600Y819150D02*
X1238250Y812800D01*
X1225550Y812800D01*
X1219200Y819150D01*
X1219200Y831850D02*
X1225550Y838200D01*
X1238250Y838200D01*
X1244600Y831850D01*
X1276350Y812800D02*
X1289050Y812800D01*
X1276350Y812800D02*
X1270000Y819150D01*
X1270000Y831850D02*
X1276350Y838200D01*
X1270000Y819150D02*
X1263650Y812800D01*
X1250950Y812800D01*
X1244600Y819150D01*
X1244600Y831850D02*
X1250950Y838200D01*
X1263650Y838200D01*
X1270000Y831850D01*
X1295400Y831850D02*
X1295400Y819150D01*
X1289050Y812800D01*
X1295400Y831850D02*
X1289050Y838200D01*
X1276350Y838200D01*
X1219200Y831850D02*
X1219200Y819150D01*
D15*
X1257300Y825500D03*
X1282700Y825500D03*
D12*
X1289136Y810895D02*
X1289136Y807141D01*
X1289134Y807076D01*
X1289128Y807012D01*
X1289118Y806948D01*
X1289105Y806884D01*
X1289087Y806822D01*
X1289066Y806761D01*
X1289042Y806701D01*
X1289013Y806643D01*
X1288981Y806586D01*
X1288946Y806532D01*
X1288908Y806480D01*
X1288866Y806430D01*
X1288822Y806383D01*
X1288775Y806339D01*
X1288725Y806297D01*
X1288673Y806259D01*
X1288619Y806224D01*
X1288562Y806192D01*
X1288504Y806163D01*
X1288444Y806139D01*
X1288383Y806118D01*
X1288321Y806100D01*
X1288257Y806087D01*
X1288193Y806077D01*
X1288129Y806071D01*
X1288064Y806069D01*
X1287527Y806069D01*
X1293559Y810895D02*
X1293627Y810893D01*
X1293694Y810887D01*
X1293761Y810878D01*
X1293828Y810865D01*
X1293893Y810848D01*
X1293958Y810827D01*
X1294021Y810803D01*
X1294083Y810775D01*
X1294143Y810744D01*
X1294201Y810710D01*
X1294257Y810672D01*
X1294312Y810632D01*
X1294363Y810588D01*
X1294412Y810541D01*
X1294459Y810492D01*
X1294503Y810441D01*
X1294543Y810386D01*
X1294581Y810330D01*
X1294615Y810272D01*
X1294646Y810212D01*
X1294674Y810150D01*
X1294698Y810087D01*
X1294719Y810022D01*
X1294736Y809957D01*
X1294749Y809890D01*
X1294758Y809823D01*
X1294764Y809756D01*
X1294766Y809688D01*
X1293559Y810895D02*
X1293481Y810893D01*
X1293403Y810887D01*
X1293326Y810877D01*
X1293249Y810864D01*
X1293173Y810846D01*
X1293098Y810825D01*
X1293024Y810800D01*
X1292952Y810771D01*
X1292881Y810739D01*
X1292812Y810703D01*
X1292744Y810664D01*
X1292679Y810621D01*
X1292616Y810575D01*
X1292555Y810526D01*
X1292497Y810474D01*
X1292442Y810419D01*
X1292389Y810362D01*
X1292340Y810302D01*
X1292293Y810239D01*
X1292250Y810175D01*
X1292210Y810108D01*
X1292173Y810039D01*
X1292140Y809968D01*
X1292110Y809896D01*
X1292084Y809823D01*
X1294363Y808750D02*
X1294412Y808799D01*
X1294459Y808851D01*
X1294502Y808906D01*
X1294543Y808963D01*
X1294581Y809022D01*
X1294615Y809083D01*
X1294646Y809146D01*
X1294674Y809210D01*
X1294698Y809276D01*
X1294718Y809342D01*
X1294735Y809410D01*
X1294748Y809479D01*
X1294757Y809548D01*
X1294763Y809618D01*
X1294765Y809688D01*
X1294363Y808750D02*
X1292084Y806069D01*
X1294765Y806069D01*
D13*
X1244600Y349250D02*
X1238250Y342900D01*
X1225550Y342900D01*
X1219200Y349250D01*
X1219200Y361950D02*
X1225550Y368300D01*
X1238250Y368300D01*
X1244600Y361950D01*
X1276350Y342900D02*
X1289050Y342900D01*
X1276350Y342900D02*
X1270000Y349250D01*
X1270000Y361950D02*
X1276350Y368300D01*
X1270000Y349250D02*
X1263650Y342900D01*
X1250950Y342900D01*
X1244600Y349250D01*
X1244600Y361950D02*
X1250950Y368300D01*
X1263650Y368300D01*
X1270000Y361950D01*
X1295400Y361950D02*
X1295400Y349250D01*
X1289050Y342900D01*
X1295400Y361950D02*
X1289050Y368300D01*
X1276350Y368300D01*
X1219200Y361950D02*
X1219200Y349250D01*
D15*
X1257300Y355600D03*
X1282700Y355600D03*
D12*
X1289136Y340995D02*
X1289136Y337241D01*
X1289134Y337176D01*
X1289128Y337112D01*
X1289118Y337048D01*
X1289105Y336984D01*
X1289087Y336922D01*
X1289066Y336861D01*
X1289042Y336801D01*
X1289013Y336743D01*
X1288981Y336686D01*
X1288946Y336632D01*
X1288908Y336580D01*
X1288866Y336530D01*
X1288822Y336483D01*
X1288775Y336439D01*
X1288725Y336397D01*
X1288673Y336359D01*
X1288619Y336324D01*
X1288562Y336292D01*
X1288504Y336263D01*
X1288444Y336239D01*
X1288383Y336218D01*
X1288321Y336200D01*
X1288257Y336187D01*
X1288193Y336177D01*
X1288129Y336171D01*
X1288064Y336169D01*
X1287527Y336169D01*
X1292084Y336169D02*
X1293424Y336169D01*
X1293495Y336171D01*
X1293567Y336177D01*
X1293637Y336186D01*
X1293707Y336199D01*
X1293777Y336216D01*
X1293845Y336237D01*
X1293912Y336261D01*
X1293978Y336289D01*
X1294042Y336320D01*
X1294105Y336355D01*
X1294165Y336393D01*
X1294224Y336434D01*
X1294280Y336478D01*
X1294334Y336525D01*
X1294385Y336574D01*
X1294433Y336627D01*
X1294479Y336682D01*
X1294521Y336739D01*
X1294561Y336799D01*
X1294597Y336860D01*
X1294630Y336924D01*
X1294659Y336989D01*
X1294685Y337055D01*
X1294708Y337123D01*
X1294727Y337192D01*
X1294742Y337262D01*
X1294753Y337332D01*
X1294761Y337403D01*
X1294765Y337474D01*
X1294765Y337546D01*
X1294761Y337617D01*
X1294753Y337688D01*
X1294742Y337758D01*
X1294727Y337828D01*
X1294708Y337897D01*
X1294685Y337965D01*
X1294659Y338031D01*
X1294630Y338096D01*
X1294597Y338160D01*
X1294561Y338221D01*
X1294521Y338281D01*
X1294479Y338338D01*
X1294433Y338393D01*
X1294385Y338446D01*
X1294334Y338495D01*
X1294280Y338542D01*
X1294224Y338586D01*
X1294165Y338627D01*
X1294105Y338665D01*
X1294042Y338700D01*
X1293978Y338731D01*
X1293912Y338759D01*
X1293845Y338783D01*
X1293777Y338804D01*
X1293707Y338821D01*
X1293637Y338834D01*
X1293567Y338843D01*
X1293495Y338849D01*
X1293424Y338851D01*
X1293693Y340995D02*
X1292084Y340995D01*
X1293693Y340995D02*
X1293758Y340993D01*
X1293822Y340987D01*
X1293886Y340977D01*
X1293950Y340964D01*
X1294012Y340946D01*
X1294073Y340925D01*
X1294133Y340901D01*
X1294191Y340872D01*
X1294248Y340840D01*
X1294302Y340805D01*
X1294354Y340767D01*
X1294404Y340725D01*
X1294451Y340681D01*
X1294495Y340634D01*
X1294537Y340584D01*
X1294575Y340532D01*
X1294610Y340478D01*
X1294642Y340421D01*
X1294671Y340363D01*
X1294695Y340303D01*
X1294716Y340242D01*
X1294734Y340180D01*
X1294747Y340116D01*
X1294757Y340052D01*
X1294763Y339988D01*
X1294765Y339923D01*
X1294763Y339858D01*
X1294757Y339794D01*
X1294747Y339730D01*
X1294734Y339666D01*
X1294716Y339604D01*
X1294695Y339543D01*
X1294671Y339483D01*
X1294642Y339425D01*
X1294610Y339368D01*
X1294575Y339314D01*
X1294537Y339262D01*
X1294495Y339212D01*
X1294451Y339165D01*
X1294404Y339121D01*
X1294354Y339079D01*
X1294302Y339041D01*
X1294248Y339006D01*
X1294191Y338974D01*
X1294133Y338945D01*
X1294073Y338921D01*
X1294012Y338900D01*
X1293950Y338882D01*
X1293886Y338869D01*
X1293822Y338859D01*
X1293758Y338853D01*
X1293693Y338851D01*
X1293693Y338850D02*
X1292620Y338850D01*
D13*
X774700Y678180D02*
X723900Y678180D01*
X723900Y685800D01*
X723900Y693420D01*
X774700Y693420D01*
X774700Y685800D01*
X774700Y678180D01*
X723900Y685800D02*
X721360Y685800D01*
X774700Y685800D02*
X777240Y685800D01*
D12*
X745248Y675005D02*
X745248Y670179D01*
X745248Y675005D02*
X746589Y675005D01*
X746660Y675003D01*
X746732Y674997D01*
X746802Y674988D01*
X746872Y674975D01*
X746942Y674958D01*
X747010Y674937D01*
X747077Y674913D01*
X747143Y674885D01*
X747207Y674854D01*
X747270Y674819D01*
X747330Y674781D01*
X747389Y674740D01*
X747445Y674696D01*
X747499Y674649D01*
X747550Y674600D01*
X747598Y674547D01*
X747644Y674492D01*
X747686Y674435D01*
X747726Y674375D01*
X747762Y674314D01*
X747795Y674250D01*
X747824Y674185D01*
X747850Y674119D01*
X747873Y674051D01*
X747892Y673982D01*
X747907Y673912D01*
X747918Y673842D01*
X747926Y673771D01*
X747930Y673700D01*
X747930Y673628D01*
X747926Y673557D01*
X747918Y673486D01*
X747907Y673416D01*
X747892Y673346D01*
X747873Y673277D01*
X747850Y673209D01*
X747824Y673143D01*
X747795Y673078D01*
X747762Y673014D01*
X747726Y672953D01*
X747686Y672893D01*
X747644Y672836D01*
X747598Y672781D01*
X747550Y672728D01*
X747499Y672679D01*
X747445Y672632D01*
X747389Y672588D01*
X747330Y672547D01*
X747270Y672509D01*
X747207Y672474D01*
X747143Y672443D01*
X747077Y672415D01*
X747010Y672391D01*
X746942Y672370D01*
X746872Y672353D01*
X746802Y672340D01*
X746732Y672331D01*
X746660Y672325D01*
X746589Y672323D01*
X746589Y672324D02*
X745248Y672324D01*
X746857Y672324D02*
X747929Y670179D01*
X750671Y670179D02*
X752011Y670179D01*
X752082Y670181D01*
X752154Y670187D01*
X752224Y670196D01*
X752294Y670209D01*
X752364Y670226D01*
X752432Y670247D01*
X752499Y670271D01*
X752565Y670299D01*
X752629Y670330D01*
X752692Y670365D01*
X752752Y670403D01*
X752811Y670444D01*
X752867Y670488D01*
X752921Y670535D01*
X752972Y670584D01*
X753020Y670637D01*
X753066Y670692D01*
X753108Y670749D01*
X753148Y670809D01*
X753184Y670870D01*
X753217Y670934D01*
X753246Y670999D01*
X753272Y671065D01*
X753295Y671133D01*
X753314Y671202D01*
X753329Y671272D01*
X753340Y671342D01*
X753348Y671413D01*
X753352Y671484D01*
X753352Y671556D01*
X753348Y671627D01*
X753340Y671698D01*
X753329Y671768D01*
X753314Y671838D01*
X753295Y671907D01*
X753272Y671975D01*
X753246Y672041D01*
X753217Y672106D01*
X753184Y672170D01*
X753148Y672231D01*
X753108Y672291D01*
X753066Y672348D01*
X753020Y672403D01*
X752972Y672456D01*
X752921Y672505D01*
X752867Y672552D01*
X752811Y672596D01*
X752752Y672637D01*
X752692Y672675D01*
X752629Y672710D01*
X752565Y672741D01*
X752499Y672769D01*
X752432Y672793D01*
X752364Y672814D01*
X752294Y672831D01*
X752224Y672844D01*
X752154Y672853D01*
X752082Y672859D01*
X752011Y672861D01*
X752279Y675005D02*
X750671Y675005D01*
X752279Y675005D02*
X752344Y675003D01*
X752408Y674997D01*
X752472Y674987D01*
X752536Y674974D01*
X752598Y674956D01*
X752659Y674935D01*
X752719Y674911D01*
X752777Y674882D01*
X752834Y674850D01*
X752888Y674815D01*
X752940Y674777D01*
X752990Y674735D01*
X753037Y674691D01*
X753081Y674644D01*
X753123Y674594D01*
X753161Y674542D01*
X753196Y674488D01*
X753228Y674431D01*
X753257Y674373D01*
X753281Y674313D01*
X753302Y674252D01*
X753320Y674190D01*
X753333Y674126D01*
X753343Y674062D01*
X753349Y673998D01*
X753351Y673933D01*
X753349Y673868D01*
X753343Y673804D01*
X753333Y673740D01*
X753320Y673676D01*
X753302Y673614D01*
X753281Y673553D01*
X753257Y673493D01*
X753228Y673435D01*
X753196Y673378D01*
X753161Y673324D01*
X753123Y673272D01*
X753081Y673222D01*
X753037Y673175D01*
X752990Y673131D01*
X752940Y673089D01*
X752888Y673051D01*
X752834Y673016D01*
X752777Y672984D01*
X752719Y672955D01*
X752659Y672931D01*
X752598Y672910D01*
X752536Y672892D01*
X752472Y672879D01*
X752408Y672869D01*
X752344Y672863D01*
X752279Y672861D01*
X752279Y672860D02*
X751207Y672860D01*
D13*
X527050Y711200D02*
X514350Y711200D01*
X514350Y558800D02*
X527050Y558800D01*
X554736Y700800D02*
X561058Y700800D01*
X561141Y700798D01*
X561225Y700792D01*
X561308Y700783D01*
X561390Y700769D01*
X561471Y700752D01*
X561552Y700731D01*
X561632Y700706D01*
X561710Y700678D01*
X561787Y700646D01*
X561863Y700611D01*
X561937Y700572D01*
X562009Y700529D01*
X562079Y700484D01*
X562146Y700435D01*
X562212Y700383D01*
X562275Y700329D01*
X562335Y700271D01*
X562393Y700211D01*
X562447Y700148D01*
X562499Y700082D01*
X562548Y700015D01*
X562593Y699945D01*
X562636Y699873D01*
X562675Y699799D01*
X562710Y699723D01*
X562742Y699646D01*
X562770Y699568D01*
X562795Y699488D01*
X562816Y699407D01*
X562833Y699326D01*
X562847Y699244D01*
X562856Y699161D01*
X562862Y699077D01*
X562864Y698994D01*
X562864Y698091D01*
X562864Y705668D02*
X562864Y708378D01*
X562862Y708461D01*
X562856Y708545D01*
X562847Y708628D01*
X562833Y708710D01*
X562816Y708791D01*
X562795Y708872D01*
X562770Y708952D01*
X562742Y709030D01*
X562710Y709107D01*
X562675Y709183D01*
X562636Y709257D01*
X562593Y709329D01*
X562548Y709399D01*
X562499Y709466D01*
X562447Y709532D01*
X562393Y709595D01*
X562335Y709655D01*
X562275Y709713D01*
X562212Y709767D01*
X562146Y709819D01*
X562079Y709868D01*
X562009Y709913D01*
X561937Y709956D01*
X561863Y709995D01*
X561787Y710030D01*
X561710Y710062D01*
X561632Y710090D01*
X561552Y710115D01*
X561471Y710136D01*
X561390Y710153D01*
X561308Y710167D01*
X561225Y710176D01*
X561141Y710182D01*
X561058Y710184D01*
X560155Y710184D01*
X560072Y710182D01*
X559988Y710176D01*
X559905Y710167D01*
X559823Y710153D01*
X559742Y710136D01*
X559661Y710115D01*
X559581Y710090D01*
X559503Y710062D01*
X559426Y710030D01*
X559350Y709995D01*
X559276Y709956D01*
X559204Y709913D01*
X559134Y709868D01*
X559067Y709819D01*
X559001Y709767D01*
X558938Y709713D01*
X558878Y709655D01*
X558820Y709595D01*
X558766Y709532D01*
X558714Y709466D01*
X558665Y709399D01*
X558620Y709329D01*
X558577Y709257D01*
X558538Y709183D01*
X558503Y709108D01*
X558471Y709030D01*
X558443Y708952D01*
X558418Y708872D01*
X558397Y708792D01*
X558380Y708710D01*
X558366Y708628D01*
X558357Y708545D01*
X558351Y708461D01*
X558349Y708378D01*
X558348Y708378D02*
X558348Y705668D01*
X554736Y705668D01*
X554736Y710184D01*
X660400Y793750D02*
X660400Y806450D01*
X812800Y806450D02*
X812800Y793750D01*
X664125Y835942D02*
X664125Y842264D01*
X664125Y835942D02*
X664123Y835859D01*
X664117Y835775D01*
X664108Y835692D01*
X664094Y835610D01*
X664077Y835529D01*
X664056Y835448D01*
X664031Y835368D01*
X664003Y835290D01*
X663971Y835213D01*
X663936Y835137D01*
X663897Y835063D01*
X663854Y834991D01*
X663809Y834921D01*
X663760Y834854D01*
X663708Y834788D01*
X663654Y834725D01*
X663596Y834665D01*
X663536Y834607D01*
X663473Y834553D01*
X663407Y834501D01*
X663340Y834452D01*
X663270Y834407D01*
X663198Y834364D01*
X663124Y834325D01*
X663049Y834290D01*
X662971Y834258D01*
X662893Y834230D01*
X662813Y834205D01*
X662733Y834184D01*
X662651Y834167D01*
X662569Y834153D01*
X662486Y834144D01*
X662402Y834138D01*
X662319Y834136D01*
X661416Y834136D01*
X668993Y838652D02*
X671703Y838652D01*
X671703Y838651D02*
X671786Y838649D01*
X671870Y838643D01*
X671953Y838634D01*
X672035Y838620D01*
X672116Y838603D01*
X672197Y838582D01*
X672277Y838557D01*
X672355Y838529D01*
X672432Y838497D01*
X672508Y838462D01*
X672582Y838423D01*
X672654Y838380D01*
X672724Y838335D01*
X672791Y838286D01*
X672857Y838234D01*
X672920Y838180D01*
X672980Y838122D01*
X673038Y838062D01*
X673092Y837999D01*
X673144Y837933D01*
X673193Y837866D01*
X673238Y837796D01*
X673281Y837724D01*
X673320Y837650D01*
X673355Y837574D01*
X673387Y837497D01*
X673415Y837419D01*
X673440Y837339D01*
X673461Y837258D01*
X673478Y837177D01*
X673492Y837095D01*
X673501Y837012D01*
X673507Y836928D01*
X673509Y836845D01*
X673509Y836394D01*
X673507Y836301D01*
X673501Y836208D01*
X673492Y836115D01*
X673478Y836022D01*
X673461Y835931D01*
X673440Y835840D01*
X673415Y835750D01*
X673387Y835661D01*
X673355Y835573D01*
X673319Y835487D01*
X673280Y835402D01*
X673237Y835319D01*
X673191Y835238D01*
X673141Y835159D01*
X673089Y835082D01*
X673033Y835007D01*
X672974Y834935D01*
X672912Y834865D01*
X672848Y834797D01*
X672780Y834733D01*
X672710Y834671D01*
X672638Y834612D01*
X672563Y834556D01*
X672486Y834504D01*
X672407Y834454D01*
X672326Y834408D01*
X672243Y834365D01*
X672158Y834326D01*
X672072Y834290D01*
X671984Y834258D01*
X671895Y834230D01*
X671805Y834205D01*
X671714Y834184D01*
X671623Y834167D01*
X671530Y834153D01*
X671437Y834144D01*
X671344Y834138D01*
X671251Y834136D01*
X671158Y834138D01*
X671065Y834144D01*
X670972Y834153D01*
X670879Y834167D01*
X670788Y834184D01*
X670697Y834205D01*
X670607Y834230D01*
X670518Y834258D01*
X670430Y834290D01*
X670344Y834326D01*
X670259Y834365D01*
X670176Y834408D01*
X670095Y834454D01*
X670016Y834504D01*
X669939Y834556D01*
X669864Y834612D01*
X669792Y834671D01*
X669722Y834733D01*
X669654Y834797D01*
X669590Y834865D01*
X669528Y834935D01*
X669469Y835007D01*
X669413Y835082D01*
X669361Y835159D01*
X669311Y835238D01*
X669265Y835319D01*
X669222Y835402D01*
X669183Y835487D01*
X669147Y835573D01*
X669115Y835661D01*
X669087Y835750D01*
X669062Y835840D01*
X669041Y835931D01*
X669024Y836022D01*
X669010Y836115D01*
X669001Y836208D01*
X668995Y836301D01*
X668993Y836394D01*
X668993Y838652D01*
X668994Y838652D02*
X668996Y838770D01*
X669002Y838888D01*
X669011Y839006D01*
X669025Y839123D01*
X669042Y839240D01*
X669063Y839357D01*
X669088Y839472D01*
X669117Y839587D01*
X669150Y839701D01*
X669186Y839813D01*
X669226Y839924D01*
X669269Y840034D01*
X669316Y840143D01*
X669366Y840250D01*
X669420Y840355D01*
X669478Y840458D01*
X669539Y840559D01*
X669603Y840659D01*
X669670Y840756D01*
X669740Y840851D01*
X669814Y840943D01*
X669890Y841034D01*
X669970Y841121D01*
X670052Y841206D01*
X670137Y841288D01*
X670224Y841368D01*
X670315Y841444D01*
X670407Y841518D01*
X670502Y841588D01*
X670599Y841655D01*
X670699Y841719D01*
X670800Y841780D01*
X670903Y841837D01*
X671008Y841891D01*
X671115Y841942D01*
X671224Y841989D01*
X671334Y842032D01*
X671445Y842072D01*
X671557Y842108D01*
X671671Y842141D01*
X671786Y842170D01*
X671901Y842195D01*
X672018Y842216D01*
X672135Y842233D01*
X672252Y842247D01*
X672370Y842256D01*
X672488Y842262D01*
X672606Y842264D01*
D18*
X1377400Y668800D02*
X1377400Y448800D01*
X1377400Y668800D02*
X1444400Y668800D01*
X1455400Y668800D02*
X1471400Y668800D01*
X1471400Y448800D01*
X1377400Y448800D01*
X1390400Y441800D02*
X1390062Y441576D01*
X1389729Y441344D01*
X1389401Y441105D01*
X1389080Y440857D01*
X1388765Y440602D01*
X1388456Y440339D01*
X1388154Y440068D01*
X1387858Y439790D01*
X1387569Y439505D01*
X1387287Y439214D01*
X1387013Y438915D01*
X1386745Y438610D01*
X1386486Y438298D01*
X1386234Y437980D01*
X1385989Y437656D01*
X1385753Y437326D01*
X1385525Y436991D01*
X1385305Y436650D01*
X1385094Y436304D01*
X1384891Y435953D01*
X1384696Y435596D01*
X1384510Y435236D01*
X1384334Y434871D01*
X1384166Y434501D01*
X1384007Y434128D01*
X1383857Y433751D01*
X1383717Y433370D01*
X1383586Y432986D01*
X1383464Y432599D01*
X1383352Y432209D01*
X1383249Y431817D01*
X1383156Y431422D01*
X1383072Y431025D01*
X1382999Y430626D01*
X1382935Y430226D01*
X1382880Y429824D01*
X1382836Y429420D01*
X1382801Y429016D01*
X1382777Y428611D01*
X1382762Y428206D01*
X1382757Y427800D01*
X1382762Y427394D01*
X1382777Y426989D01*
X1382801Y426584D01*
X1382836Y426180D01*
X1382880Y425776D01*
X1382935Y425374D01*
X1382999Y424974D01*
X1383072Y424575D01*
X1383156Y424178D01*
X1383249Y423783D01*
X1383352Y423391D01*
X1383464Y423001D01*
X1383586Y422614D01*
X1383717Y422230D01*
X1383857Y421849D01*
X1384007Y421472D01*
X1384166Y421099D01*
X1384334Y420729D01*
X1384510Y420364D01*
X1384696Y420004D01*
X1384891Y419647D01*
X1385094Y419296D01*
X1385305Y418950D01*
X1385525Y418609D01*
X1385753Y418274D01*
X1385989Y417944D01*
X1386234Y417620D01*
X1386486Y417302D01*
X1386745Y416990D01*
X1387013Y416685D01*
X1387287Y416386D01*
X1387569Y416095D01*
X1387858Y415810D01*
X1388154Y415532D01*
X1388456Y415261D01*
X1388765Y414998D01*
X1389080Y414743D01*
X1389401Y414495D01*
X1389729Y414256D01*
X1390062Y414024D01*
X1390400Y413800D01*
X1408400Y413800D02*
X1408738Y414024D01*
X1409071Y414256D01*
X1409399Y414495D01*
X1409720Y414743D01*
X1410035Y414998D01*
X1410344Y415261D01*
X1410646Y415532D01*
X1410942Y415810D01*
X1411231Y416095D01*
X1411513Y416386D01*
X1411787Y416685D01*
X1412055Y416990D01*
X1412314Y417302D01*
X1412566Y417620D01*
X1412811Y417944D01*
X1413047Y418274D01*
X1413275Y418609D01*
X1413495Y418950D01*
X1413706Y419296D01*
X1413909Y419647D01*
X1414104Y420004D01*
X1414290Y420364D01*
X1414466Y420729D01*
X1414634Y421099D01*
X1414793Y421472D01*
X1414943Y421849D01*
X1415083Y422230D01*
X1415214Y422614D01*
X1415336Y423001D01*
X1415448Y423391D01*
X1415551Y423783D01*
X1415644Y424178D01*
X1415728Y424575D01*
X1415801Y424974D01*
X1415865Y425374D01*
X1415920Y425776D01*
X1415964Y426180D01*
X1415999Y426584D01*
X1416023Y426989D01*
X1416038Y427394D01*
X1416043Y427800D01*
X1416038Y428206D01*
X1416023Y428611D01*
X1415999Y429016D01*
X1415964Y429420D01*
X1415920Y429824D01*
X1415865Y430226D01*
X1415801Y430626D01*
X1415728Y431025D01*
X1415644Y431422D01*
X1415551Y431817D01*
X1415448Y432209D01*
X1415336Y432599D01*
X1415214Y432986D01*
X1415083Y433370D01*
X1414943Y433751D01*
X1414793Y434128D01*
X1414634Y434501D01*
X1414466Y434871D01*
X1414290Y435236D01*
X1414104Y435596D01*
X1413909Y435953D01*
X1413706Y436304D01*
X1413495Y436650D01*
X1413275Y436991D01*
X1413047Y437326D01*
X1412811Y437656D01*
X1412566Y437980D01*
X1412314Y438298D01*
X1412055Y438610D01*
X1411787Y438915D01*
X1411513Y439214D01*
X1411231Y439505D01*
X1410942Y439790D01*
X1410646Y440068D01*
X1410344Y440339D01*
X1410035Y440602D01*
X1409720Y440857D01*
X1409399Y441105D01*
X1409071Y441344D01*
X1408738Y441576D01*
X1408400Y441800D01*
X1408400Y413800D02*
X1390400Y413800D01*
X1389400Y440800D02*
X1389400Y447800D01*
X1409400Y447800D02*
X1409400Y440800D01*
X1408400Y675800D02*
X1408738Y676024D01*
X1409071Y676256D01*
X1409399Y676495D01*
X1409720Y676743D01*
X1410035Y676998D01*
X1410344Y677261D01*
X1410646Y677532D01*
X1410942Y677810D01*
X1411231Y678095D01*
X1411513Y678386D01*
X1411787Y678685D01*
X1412055Y678990D01*
X1412314Y679302D01*
X1412566Y679620D01*
X1412811Y679944D01*
X1413047Y680274D01*
X1413275Y680609D01*
X1413495Y680950D01*
X1413706Y681296D01*
X1413909Y681647D01*
X1414104Y682004D01*
X1414290Y682364D01*
X1414466Y682729D01*
X1414634Y683099D01*
X1414793Y683472D01*
X1414943Y683849D01*
X1415083Y684230D01*
X1415214Y684614D01*
X1415336Y685001D01*
X1415448Y685391D01*
X1415551Y685783D01*
X1415644Y686178D01*
X1415728Y686575D01*
X1415801Y686974D01*
X1415865Y687374D01*
X1415920Y687776D01*
X1415964Y688180D01*
X1415999Y688584D01*
X1416023Y688989D01*
X1416038Y689394D01*
X1416043Y689800D01*
X1416038Y690206D01*
X1416023Y690611D01*
X1415999Y691016D01*
X1415964Y691420D01*
X1415920Y691824D01*
X1415865Y692226D01*
X1415801Y692626D01*
X1415728Y693025D01*
X1415644Y693422D01*
X1415551Y693817D01*
X1415448Y694209D01*
X1415336Y694599D01*
X1415214Y694986D01*
X1415083Y695370D01*
X1414943Y695751D01*
X1414793Y696128D01*
X1414634Y696501D01*
X1414466Y696871D01*
X1414290Y697236D01*
X1414104Y697596D01*
X1413909Y697953D01*
X1413706Y698304D01*
X1413495Y698650D01*
X1413275Y698991D01*
X1413047Y699326D01*
X1412811Y699656D01*
X1412566Y699980D01*
X1412314Y700298D01*
X1412055Y700610D01*
X1411787Y700915D01*
X1411513Y701214D01*
X1411231Y701505D01*
X1410942Y701790D01*
X1410646Y702068D01*
X1410344Y702339D01*
X1410035Y702602D01*
X1409720Y702857D01*
X1409399Y703105D01*
X1409071Y703344D01*
X1408738Y703576D01*
X1408400Y703800D01*
X1390400Y703800D02*
X1390062Y703576D01*
X1389729Y703344D01*
X1389401Y703105D01*
X1389080Y702857D01*
X1388765Y702602D01*
X1388456Y702339D01*
X1388154Y702068D01*
X1387858Y701790D01*
X1387569Y701505D01*
X1387287Y701214D01*
X1387013Y700915D01*
X1386745Y700610D01*
X1386486Y700298D01*
X1386234Y699980D01*
X1385989Y699656D01*
X1385753Y699326D01*
X1385525Y698991D01*
X1385305Y698650D01*
X1385094Y698304D01*
X1384891Y697953D01*
X1384696Y697596D01*
X1384510Y697236D01*
X1384334Y696871D01*
X1384166Y696501D01*
X1384007Y696128D01*
X1383857Y695751D01*
X1383717Y695370D01*
X1383586Y694986D01*
X1383464Y694599D01*
X1383352Y694209D01*
X1383249Y693817D01*
X1383156Y693422D01*
X1383072Y693025D01*
X1382999Y692626D01*
X1382935Y692226D01*
X1382880Y691824D01*
X1382836Y691420D01*
X1382801Y691016D01*
X1382777Y690611D01*
X1382762Y690206D01*
X1382757Y689800D01*
X1382762Y689394D01*
X1382777Y688989D01*
X1382801Y688584D01*
X1382836Y688180D01*
X1382880Y687776D01*
X1382935Y687374D01*
X1382999Y686974D01*
X1383072Y686575D01*
X1383156Y686178D01*
X1383249Y685783D01*
X1383352Y685391D01*
X1383464Y685001D01*
X1383586Y684614D01*
X1383717Y684230D01*
X1383857Y683849D01*
X1384007Y683472D01*
X1384166Y683099D01*
X1384334Y682729D01*
X1384510Y682364D01*
X1384696Y682004D01*
X1384891Y681647D01*
X1385094Y681296D01*
X1385305Y680950D01*
X1385525Y680609D01*
X1385753Y680274D01*
X1385989Y679944D01*
X1386234Y679620D01*
X1386486Y679302D01*
X1386745Y678990D01*
X1387013Y678685D01*
X1387287Y678386D01*
X1387569Y678095D01*
X1387858Y677810D01*
X1388154Y677532D01*
X1388456Y677261D01*
X1388765Y676998D01*
X1389080Y676743D01*
X1389401Y676495D01*
X1389729Y676256D01*
X1390062Y676024D01*
X1390400Y675800D01*
X1390400Y703800D02*
X1408400Y703800D01*
X1409400Y676800D02*
X1409400Y669800D01*
X1389400Y669800D02*
X1389400Y676800D01*
X1444400Y668800D02*
X1444402Y668948D01*
X1444408Y669095D01*
X1444418Y669243D01*
X1444432Y669390D01*
X1444449Y669536D01*
X1444471Y669682D01*
X1444497Y669828D01*
X1444526Y669972D01*
X1444560Y670116D01*
X1444597Y670259D01*
X1444638Y670401D01*
X1444683Y670542D01*
X1444732Y670681D01*
X1444784Y670819D01*
X1444840Y670956D01*
X1444900Y671091D01*
X1444963Y671224D01*
X1445030Y671356D01*
X1445100Y671486D01*
X1445174Y671614D01*
X1445251Y671740D01*
X1445332Y671863D01*
X1445416Y671985D01*
X1445503Y672104D01*
X1445593Y672221D01*
X1445687Y672335D01*
X1445783Y672447D01*
X1445883Y672556D01*
X1445985Y672663D01*
X1446090Y672767D01*
X1446198Y672867D01*
X1446308Y672965D01*
X1446422Y673060D01*
X1446537Y673152D01*
X1446655Y673241D01*
X1446776Y673326D01*
X1446898Y673409D01*
X1447023Y673488D01*
X1447150Y673563D01*
X1447279Y673635D01*
X1447410Y673704D01*
X1447542Y673769D01*
X1447676Y673830D01*
X1447812Y673888D01*
X1447950Y673943D01*
X1448088Y673993D01*
X1448229Y674040D01*
X1448370Y674083D01*
X1448512Y674122D01*
X1448656Y674157D01*
X1448800Y674189D01*
X1448945Y674216D01*
X1449091Y674240D01*
X1449237Y674260D01*
X1449384Y674276D01*
X1449531Y674288D01*
X1449679Y674296D01*
X1449826Y674300D01*
X1449974Y674300D01*
X1450121Y674296D01*
X1450269Y674288D01*
X1450416Y674276D01*
X1450563Y674260D01*
X1450709Y674240D01*
X1450855Y674216D01*
X1451000Y674189D01*
X1451144Y674157D01*
X1451288Y674122D01*
X1451430Y674083D01*
X1451571Y674040D01*
X1451712Y673993D01*
X1451850Y673943D01*
X1451988Y673888D01*
X1452124Y673830D01*
X1452258Y673769D01*
X1452390Y673704D01*
X1452521Y673635D01*
X1452650Y673563D01*
X1452777Y673488D01*
X1452902Y673409D01*
X1453024Y673326D01*
X1453145Y673241D01*
X1453263Y673152D01*
X1453378Y673060D01*
X1453492Y672965D01*
X1453602Y672867D01*
X1453710Y672767D01*
X1453815Y672663D01*
X1453917Y672556D01*
X1454017Y672447D01*
X1454113Y672335D01*
X1454207Y672221D01*
X1454297Y672104D01*
X1454384Y671985D01*
X1454468Y671863D01*
X1454549Y671740D01*
X1454626Y671614D01*
X1454700Y671486D01*
X1454770Y671356D01*
X1454837Y671224D01*
X1454900Y671091D01*
X1454960Y670956D01*
X1455016Y670819D01*
X1455068Y670681D01*
X1455117Y670542D01*
X1455162Y670401D01*
X1455203Y670259D01*
X1455240Y670116D01*
X1455274Y669972D01*
X1455303Y669828D01*
X1455329Y669682D01*
X1455351Y669536D01*
X1455368Y669390D01*
X1455382Y669243D01*
X1455392Y669095D01*
X1455398Y668948D01*
X1455400Y668800D01*
D14*
X1480058Y624247D02*
X1491742Y616458D01*
X1491742Y624247D02*
X1480058Y616458D01*
X1482654Y628537D02*
X1480058Y631783D01*
X1491742Y631783D01*
X1491742Y635028D02*
X1491742Y628537D01*
M02*
