G04 EAGLE Gerber X2 export*
%TF.Part,Single*%
%TF.FileFunction,Soldermask,Bot,1*%
%TF.FilePolarity,Negative*%
%TF.GenerationSoftware,Autodesk,EAGLE,8.7.0*%
%TF.CreationDate,2018-04-11T09:38:31Z*%
G75*
%MOMM*%
%FSLAX34Y34*%
%LPD*%
%AMOC8*
5,1,8,0,0,1.08239X$1,22.5*%
G01*
%ADD10C,2.082800*%
%ADD11C,4.419200*%
%ADD12C,4.019200*%
%ADD13C,1.524000*%
%ADD14C,2.133600*%


D10*
X1104900Y419100D03*
X1104900Y444500D03*
X1104900Y469900D03*
X1104900Y495300D03*
X1104900Y520700D03*
X1104900Y546100D03*
X1104900Y596900D03*
X1104900Y622300D03*
X1104900Y647700D03*
X1104900Y673100D03*
X1104900Y698500D03*
X1104900Y723900D03*
X622300Y723900D03*
X622300Y698500D03*
X622300Y673100D03*
X622300Y647700D03*
X622300Y622300D03*
X622300Y596900D03*
X622300Y571500D03*
X622300Y546100D03*
X622300Y508000D03*
X622300Y482600D03*
X622300Y457200D03*
X622300Y431800D03*
X622300Y406400D03*
X622300Y381000D03*
X622300Y355600D03*
X622300Y330200D03*
X622300Y304800D03*
X622300Y279400D03*
X1104900Y393700D03*
X1104900Y368300D03*
D11*
X596900Y148700D03*
D12*
X596900Y86200D03*
X644900Y120200D03*
D10*
X406400Y381000D03*
X406400Y406400D03*
X406400Y431800D03*
X1168400Y571500D03*
X1169198Y546113D03*
X1168400Y635000D03*
X1168400Y609600D03*
X406400Y482600D03*
X406400Y508000D03*
X406400Y533400D03*
X406400Y558800D03*
X406400Y584200D03*
X406400Y609600D03*
X406400Y635000D03*
X406400Y660400D03*
X406400Y685800D03*
X1219200Y546100D03*
X1219200Y622300D03*
X904494Y69088D03*
X904494Y134112D03*
X949706Y69088D03*
X949706Y134112D03*
D13*
X565404Y482600D02*
X552196Y482600D01*
X552196Y508000D02*
X565404Y508000D01*
X565404Y635000D02*
X552196Y635000D01*
X552196Y660400D02*
X565404Y660400D01*
X565404Y533400D02*
X552196Y533400D01*
X552196Y558800D02*
X565404Y558800D01*
X565404Y609600D02*
X552196Y609600D01*
X552196Y584200D02*
X565404Y584200D01*
X565404Y685800D02*
X552196Y685800D01*
X489204Y685800D02*
X475996Y685800D01*
X475996Y660400D02*
X489204Y660400D01*
X489204Y635000D02*
X475996Y635000D01*
X475996Y609600D02*
X489204Y609600D01*
X489204Y584200D02*
X475996Y584200D01*
X475996Y558800D02*
X489204Y558800D01*
X489204Y533400D02*
X475996Y533400D01*
X475996Y508000D02*
X489204Y508000D01*
X489204Y482600D02*
X475996Y482600D01*
D14*
X571500Y381000D03*
X469900Y381000D03*
X723900Y762000D03*
X622300Y762000D03*
D10*
X406400Y330200D03*
X406400Y304800D03*
X647700Y800100D03*
X673100Y800100D03*
X698500Y800100D03*
X546100Y419100D03*
X520700Y419100D03*
X495300Y419100D03*
X1206500Y114300D03*
X1206500Y190500D03*
X1168400Y368300D03*
X1168400Y393700D03*
X1168400Y419100D03*
X1168400Y444500D03*
X1168400Y469900D03*
X1168400Y495300D03*
X1168400Y241300D03*
X1168400Y215900D03*
X1168400Y190500D03*
X1168400Y165100D03*
X1168400Y139700D03*
X1168400Y114300D03*
M02*
